<svg width="135" height="59" viewBox="0 0 135 59" fill="none" xmlns="http://www.w3.org/2000/svg">
<path d="M82.065 46.626C78.163 46.626 75.211 46.919 73.004 47.422C70.568 45.522 65.168 43.758 58.383 43.651C57.414 42.869 55.937 42.107 54.068 41.467C55.677 41.734 57.3399 41.876 59.0439 41.876C72.9909 41.876 84.298 32.502 84.298 20.938C84.298 9.37499 72.9909 0 59.0439 0C48.1249 0 38.826 5.746 35.303 13.789C28.377 15.429 23.191 20.468 22.541 26.596C19.935 28.179 18.226 30.715 18.172 33.589C17.62 33.448 17.0369 33.37 16.4319 33.37C13.1009 33.37 10.401 35.668 10.401 38.503C10.401 38.618 10.412 38.731 10.42 38.844C9.43498 38.247 8.23195 37.893 6.93195 37.893C3.96095 37.893 1.49799 39.722 0.997986 42.127C0.300986 42.755 0 43.476 0 44.249C0 46.752 2.32395 50.202 11.976 50.202C12.618 50.202 13.249 50.192 13.874 50.175C14.27 50.188 14.663 50.202 15.088 50.202C22.628 50.202 29.0329 48.961 31.4839 47.226C33.0099 48.85 36.18 50.202 42.22 50.202C43.344 50.202 44.441 50.172 45.507 50.12C46.63 52.133 49.7499 54.05 56.9449 54.05C60.9739 54.05 64.6739 53.693 67.6299 53.099C68.3329 55.828 71.599 58.874 81.154 58.874C92.184 58.874 101.125 56.487 101.125 53.544C101.124 50.602 93.094 46.626 82.065 46.626ZM30.499 43.116C30.199 42.923 29.863 42.734 29.504 42.548C30.005 42.522 30.5 42.478 30.981 42.397C30.774 42.626 30.616 42.866 30.499 43.116Z" fill="#D2E5F9"/>
<path d="M115.985 19.834C110.821 19.834 106.167 21.339 102.842 23.749C102.579 19.294 98.4181 15.75 93.3101 15.75C90.9921 15.75 88.8671 16.48 87.2111 17.693C83.5391 7.38199 73.697 0 62.127 0C47.422 0 35.501 11.921 35.501 26.625C35.501 27.838 35.59 29.03 35.747 30.2C33.089 31.321 31.045 33.149 30.075 35.342C28.611 35.123 27.011 35 25.333 35C18.383 35 12.749 37.071 12.749 39.625C12.749 39.68 12.767 39.734 12.772 39.789C11.874 39.684 10.899 39.625 9.87402 39.625C5.52502 39.625 1.99902 40.66 1.99902 41.938C1.99902 43.215 5.52502 44.251 9.87402 44.251C12.885 44.251 15.4981 43.754 16.8231 43.026C19.0641 43.784 22.047 44.251 25.333 44.251C27.694 44.251 29.8961 44.007 31.7841 43.591C34.0341 45.92 37.6991 47.443 41.8491 47.443C42.9831 47.443 44.075 47.32 45.117 47.109C49.73 50.944 55.658 53.252 62.127 53.252C65.922 53.252 69.528 52.453 72.795 51.022C76.576 54.817 82.652 57.291 89.525 57.291C99.723 57.291 108.188 51.863 109.947 44.71C111.84 45.174 113.866 45.439 115.985 45.439C126.082 45.439 134.266 39.708 134.266 32.637C134.266 25.566 126.082 19.834 115.985 19.834Z" fill="white"/>
<path d="M68.1331 4.00095C67.8621 3.91395 84.7491 6.00097 83.2491 20.168C83.2491 20.168 83.6831 9.00095 68.1331 4.00095Z" fill="#D2E5F9"/>
<path d="M92.583 30.835C92.583 30.835 97.583 20.002 83.249 20.168C83.249 20.168 94.916 19.501 92.583 30.835Z" fill="#D2E5F9"/>
<path d="M110.299 29.439C110.299 29.439 105.331 21.827 97.373 25.498C97.373 25.498 102.515 22.376 110.299 29.439Z" fill="#D2E5F9"/>
<path d="M58.3828 43.651C58.3828 43.651 69.5088 47.855 78.1288 44.095C86.7488 40.335 85.2488 30.835 85.2488 30.835C85.2488 30.835 82.3488 49.801 58.3828 43.651Z" fill="#D2E5F9"/>
<path d="M55.083 19.168C55.083 19.168 55.583 14.501 63.249 16.835C70.916 19.168 68.129 25.498 68.129 25.498C68.129 25.498 67.416 14.001 55.083 19.168Z" fill="#D2E5F9"/>
<path d="M78.1289 27.835C78.1289 27.835 76.5089 20.161 68.1289 25.498C68.1289 25.498 75.0089 22.168 78.1289 27.835Z" fill="#D2E5F9"/>
<path d="M44.2491 29.439C44.3471 30.273 39.4161 15.668 55.0831 19.168C55.0831 19.168 42.9161 18.043 44.2491 29.439Z" fill="#D2E5F9"/>
</svg>
