<svg width="169" height="143" viewBox="0 0 169 143" fill="none" xmlns="http://www.w3.org/2000/svg">
<path d="M133.068 27.7261C129.296 27.7261 125.667 28.4585 122.258 29.8022C111.75 11.7648 94.569 0 75.1419 0C51.3938 0 30.9952 17.5687 22.0531 42.7003C9.77301 43.4648 0 55.9067 0 71.1891C0 86.4715 9.77301 98.9152 22.0531 99.6797C30.9952 124.811 51.3938 142.38 75.1419 142.38C94.569 142.38 111.75 130.613 122.258 112.578C125.667 113.921 129.296 114.654 133.068 114.654C152.601 114.654 168.435 95.1944 168.435 71.1891C168.435 47.1856 152.601 27.7261 133.068 27.7261Z" fill="white"/>
</svg>
