<svg width="176" height="72" viewBox="0 0 176 72" fill="none" xmlns="http://www.w3.org/2000/svg">
<path d="M138.999 53.5001C133.856 53.5001 129.236 54.5851 125.981 56.3101C123.638 55.8361 120.805 55.558 117.749 55.558C116.612 55.558 115.511 55.6001 114.449 55.6721C112.764 54.8181 109.468 54.1811 105.478 53.9821C105.481 53.9531 105.499 53.925 105.499 53.895C105.499 53.065 104.225 52.368 102.462 52.111C102.915 51.498 103.166 50.8451 103.166 50.1671C103.166 46.6691 96.674 43.833 88.666 43.833C87.09 43.833 85.577 43.946 84.157 44.149C83.502 42.535 81.034 41.333 78.083 41.333C74.631 41.333 71.833 42.9751 71.833 45.0001C71.833 46.3481 73.076 47.5221 74.922 48.1591C74.439 48.7911 74.167 49.4641 74.167 50.1671C74.167 50.1721 74.168 50.177 74.168 50.182C73.892 50.174 73.615 50.1671 73.333 50.1671C67.632 50.1671 63.01 51.842 63.001 53.91C61.289 53.65 59.315 53.5001 57.208 53.5001C53.989 53.5001 51.075 53.8481 48.947 54.4091C47.465 54.1041 45.499 53.9171 43.333 53.9171C39.086 53.9171 35.589 54.632 35.073 55.556C33.613 55.521 32.087 55.5001 30.505 55.5001C20.653 55.5001 12.667 56.2271 12.667 57.1251C12.667 57.3591 13.222 57.581 14.202 57.782C5.78 57.961 0 58.3271 0 58.7501C0 59.3491 11.566 59.833 25.833 59.833C36.771 59.833 46.115 59.548 49.883 59.145C51.896 59.575 54.438 59.833 57.208 59.833C62.94 59.833 67.713 58.734 68.775 57.278C70.151 57.524 71.694 57.6671 73.333 57.6671C77.11 57.6671 80.405 56.9291 82.207 55.8311C84.154 56.2551 86.342 56.5001 88.667 56.5001C89.179 56.5001 89.685 56.487 90.184 56.465C90.073 56.626 90 56.79 90 56.958C90 58.639 95.746 60.0001 102.833 60.0001C102.953 60.0001 103.07 59.996 103.189 59.996C103.43 62.31 109.848 64.1671 117.749 64.1671C119.048 64.1671 120.3 64.1111 121.498 64.0181C123.087 68.0901 130.313 71.1671 138.999 71.1671C148.848 71.1671 156.832 67.212 156.832 62.333C156.833 57.455 148.848 53.5001 138.999 53.5001ZM45.27 58.037C45.652 57.985 45.995 57.931 46.312 57.877C46.436 57.957 46.579 58.036 46.727 58.113C46.268 58.087 45.782 58.061 45.27 58.037Z" fill="#D2E5F9"/>
<path d="M158.963 55.23C158.573 55.23 158.203 55.24 157.823 55.24C158.543 54.4 158.963 53.41 158.963 52.36C158.963 50.009 156.923 47.99 154.033 47.15C154.303 46.639 154.463 46.099 154.463 45.54C154.463 42.85 151.063 40.63 146.673 40.3C144.113 35.84 138.283 32.32 130.933 30.81C130.683 27.85 126.743 25.5 121.893 25.5C120.623 25.5 119.423 25.66 118.323 25.95C116.403 23.13 113.583 20.98 110.293 19.86C108.603 8.61999 98.903 0 87.193 0C77.143 0 68.573 6.34995 65.283 15.2599C64.393 14.6299 63.343 14.2599 62.203 14.2599C59.113 14.2599 56.603 16.99 56.603 20.35C56.603 22.35 57.483 24.111 58.843 25.22C58.093 26.731 57.663 28.42 57.663 30.21C57.663 30.85 57.733 31.481 57.833 32.09C57.373 32.03 56.903 32 56.413 32C53.193 32 50.463 33.31 49.433 35.13C46.523 35.97 44.033 37.231 42.203 38.78C36.863 39.03 32.713 40.7 32.483 42.759C29.943 43.799 28.333 45.369 28.333 47.119C28.333 47.239 28.353 47.359 28.373 47.469C24.813 48.099 22.333 49.519 22.333 51.179C22.333 51.69 22.583 52.179 23.013 52.629C17.973 52.969 14.583 53.589 14.583 54.299C14.583 54.989 17.713 55.589 22.453 55.94C25.143 56.13 28.343 56.25 31.793 56.25C39.763 56.25 46.443 55.64 48.403 54.8C51.143 55.72 54.293 56.25 57.663 56.25C68.063 56.25 76.493 51.269 76.493 45.12C76.493 44.769 76.463 44.42 76.403 44.08C79.633 45.76 83.303 46.72 87.193 46.72C89.423 46.72 91.573 46.401 93.613 45.821C94.983 47.281 96.633 48.47 98.463 49.321C101.323 55.901 111.163 60.751 122.853 60.751C124.473 60.751 126.063 60.6509 127.603 60.4709C127.603 60.5509 127.583 60.631 127.583 60.711C127.583 65.982 134.183 70.251 142.333 70.251C147.653 70.251 152.323 68.431 154.913 65.691C156.283 64.251 157.073 62.55 157.083 60.731C157.703 60.741 158.323 60.751 158.963 60.751C168.143 60.751 175.583 59.511 175.583 57.991C175.583 56.469 168.143 55.23 158.963 55.23Z" fill="white"/>
<path opacity="0.29" d="M154.913 65.69C152.323 68.429 147.653 70.25 142.333 70.25C134.183 70.25 127.583 65.9799 127.583 60.7099C127.583 60.6299 127.603 60.5499 127.603 60.4699C126.063 60.6509 124.473 60.75 122.853 60.75C111.163 60.75 101.323 55.8999 98.4629 49.3199C96.6329 48.4689 94.9829 47.2799 93.6129 45.8199C91.5729 46.3999 89.4229 46.719 87.1929 46.719C83.3029 46.719 79.6329 45.759 76.4029 44.079C76.4629 44.419 76.4929 44.7679 76.4929 45.1189C76.4929 51.2679 68.0629 56.2489 57.6629 56.2489C54.2929 56.2489 51.1429 55.7189 48.4029 54.7989C46.4429 55.6389 39.7629 56.2489 31.7929 56.2489C28.3429 56.2489 25.1429 56.1289 22.4529 55.9389C24.2729 54.0579 27.3629 51.3479 30.4429 50.8189C35.2829 49.9789 37.7829 52.8189 37.7829 52.8189C37.7829 52.8189 36.9429 41.649 46.9429 42.479C55.3229 43.178 54.1129 48.6779 53.5029 50.4389C54.0229 49.3289 55.6729 46.949 59.9429 47.979C62.9529 48.708 64.0129 50.4889 64.3629 51.9489C64.4229 49.5689 65.0529 46.089 68.1129 45.979C69.1929 45.939 70.0329 46.0579 70.6829 46.2489C69.5529 44.5389 68.6529 41.729 69.7829 37.479C71.9429 29.319 78.2829 27.819 83.4429 27.479C88.6129 27.149 90.6129 29.649 93.4429 32.979C95.0629 34.888 95.4029 38.1589 95.4029 40.6089C96.6229 39.9189 99.4629 39.848 105.613 41.649C120.233 45.918 114.603 55.378 114.453 55.638C114.743 55.418 120.793 50.8879 128.283 53.8189C134.953 56.4279 134.683 61.439 134.163 62.909C134.983 62.069 137.573 60.4589 142.283 62.8189C147.853 65.5979 144.133 68.7679 143.163 69.4989C144.553 68.5899 152.253 63.69 154.913 65.69Z" fill="#D2E5F9"/>
<path d="M103.708 30.25C103.708 30.25 110.708 27.25 116.458 29.25C122.208 31.25 122.458 39.25 122.458 39.25C122.458 39.25 118.458 27.375 103.708 30.25Z" fill="#D2E5F9"/>
<path d="M132.708 49.375C132.708 49.375 135.445 35.396 122.458 39.25C122.458 39.25 131.023 37.244 132.708 49.375Z" fill="#D2E5F9"/>
<path d="M94.458 6.375C94.458 6.375 105.333 10.375 105.708 18.5C106.083 26.625 103.708 30.25 103.708 30.25C103.708 30.25 109.208 13.375 94.458 6.375Z" fill="#D2E5F9"/>
<path opacity="0.29" d="M69.458 32.25C72.0123 32.25 74.083 30.1793 74.083 27.625C74.083 25.0707 72.0123 23 69.458 23C66.9037 23 64.833 25.0707 64.833 27.625C64.833 30.1793 66.9037 32.25 69.458 32.25Z" fill="#D2E5F9"/>
<path opacity="0.29" d="M71.52 23.438C72.9355 23.438 74.083 22.2906 74.083 20.8751C74.083 19.4596 72.9355 18.312 71.52 18.312C70.1045 18.312 68.957 19.4596 68.957 20.8751C68.957 22.2906 70.1045 23.438 71.52 23.438Z" fill="#D2E5F9"/>
</svg>
