<svg width="487" height="193" viewBox="0 0 487 193" fill="none" xmlns="http://www.w3.org/2000/svg">
<path d="M472.416 170.056C470.597 170.056 468.865 170.21 467.276 170.485C467.282 170.341 467.305 170.201 467.305 170.056C467.305 162.381 458.948 156.159 448.638 156.159C446.652 156.159 444.741 156.394 442.946 156.822C438.775 152.279 431.399 148.842 422.517 147.476C427.153 143.75 429.971 138.854 429.971 133.486C429.971 122.538 418.264 113.537 403.274 112.477C403.287 112.113 403.305 111.75 403.305 111.383C403.305 91.806 385.396 75.935 363.304 75.935C354.172 75.935 345.759 78.653 339.026 83.218C335.846 81.347 331.838 80.222 327.471 80.222C325.485 80.222 323.574 80.458 321.778 80.886C318.771 77.611 314.092 74.913 308.39 73.149C310.38 70.313 311.506 67.115 311.506 63.73C311.506 59.005 309.324 54.643 305.64 51.125C305.925 49.634 306.08 48.097 306.08 46.522C306.08 33.061 295.167 22.148 281.706 22.148C281.498 22.148 281.291 22.158 281.084 22.164C275.152 9.17 260.788 0 243.999 0C243.686 0 243.378 0.0149961 243.067 0.0209961C242.756 0.0149961 242.448 0 242.136 0C225.347 0 210.983 9.17 205.051 22.164C204.844 22.159 204.638 22.148 204.429 22.148C190.968 22.148 180.056 33.06 180.056 46.522C180.056 59.983 190.969 70.896 204.429 70.896C206.277 70.896 208.074 70.684 209.804 70.294C209.171 71.131 208.58 71.995 208.028 72.881C203.61 71.614 198.62 70.896 193.333 70.896C180.734 70.896 169.809 74.951 164.359 80.887C162.564 80.459 160.653 80.223 158.666 80.223C154.299 80.223 150.291 81.348 147.111 83.219C140.378 78.654 131.966 75.936 122.833 75.936C100.741 75.936 82.833 91.807 82.833 111.384C82.833 111.751 82.852 112.113 82.864 112.478C67.874 113.538 56.166 122.539 56.166 133.487C56.166 138.855 58.985 143.752 63.621 147.477C54.739 148.842 47.363 152.28 43.192 156.823C41.397 156.395 39.486 156.16 37.5 156.16C27.19 156.16 18.833 162.382 18.833 170.057C18.833 170.202 18.856 170.342 18.862 170.486C17.274 170.212 15.542 170.057 13.723 170.057C6.144 170.057 0 172.678 0 175.91C0 179.143 6.144 181.764 13.723 181.764C17.878 181.764 21.594 180.973 24.11 179.729C27.503 182.331 32.243 183.955 37.5 183.955C42.861 183.955 47.681 182.263 51.085 179.568C56.775 182.302 64.129 183.955 72.166 183.955C78.473 183.955 84.358 182.937 89.351 181.179C94.719 187.806 102.918 192.047 112.111 192.047C120.821 192.047 128.639 188.239 134.002 182.202C137.794 184.633 142.298 186.049 147.137 186.049C151.976 186.049 156.482 184.633 160.274 182.201C161.121 182.248 161.972 182.28 162.833 182.28C168.386 182.28 173.675 181.276 178.481 179.463C184.2 182.261 191.637 183.955 199.774 183.955C206.986 183.955 213.649 182.625 219.052 180.375C220.447 180.88 222.075 181.27 223.865 181.505C226.872 183.048 230.512 183.955 234.441 183.955C237.555 183.955 240.485 183.38 243.067 182.375C245.649 183.38 248.579 183.955 251.693 183.955C255.621 183.955 259.261 183.048 262.269 181.505C264.059 181.27 265.687 180.88 267.082 180.375C272.486 182.625 279.148 183.955 286.36 183.955C294.498 183.955 301.934 182.261 307.653 179.463C312.46 181.277 317.748 182.28 323.301 182.28C324.162 182.28 325.013 182.248 325.86 182.201C329.652 184.633 334.157 186.049 338.997 186.049C343.835 186.049 348.34 184.633 352.132 182.202C357.495 188.239 365.313 192.047 374.023 192.047C383.216 192.047 391.416 187.806 396.784 181.179C401.777 182.938 407.663 183.955 413.969 183.955C422.006 183.955 429.361 182.303 435.05 179.568C438.455 182.262 443.275 183.955 448.636 183.955C453.892 183.955 458.633 182.332 462.026 179.729C464.543 180.973 468.258 181.764 472.414 181.764C479.993 181.764 486.137 179.143 486.137 175.91C486.139 172.677 479.995 170.056 472.416 170.056Z" fill="white"/>
</svg>
