<svg width="243" height="81" viewBox="0 0 243 81" fill="none" xmlns="http://www.w3.org/2000/svg">
<path d="M159.616 50.627C167.561 50.627 174.001 47.2409 174.001 43.064C174.001 38.887 167.561 35.501 159.616 35.501C151.671 35.501 145.231 38.887 145.231 43.064C145.231 47.2409 151.671 50.627 159.616 50.627Z" fill="#D2E5F9"/>
<path d="M82.3259 56.835C89.1419 56.835 94.6679 52.656 94.6679 47.502C94.6679 46.853 94.5799 46.219 94.4129 45.606C101.157 44.748 106.335 39.803 106.335 33.814C106.335 32.881 106.197 31.978 105.96 31.106C108.145 29.704 109.825 27.726 110.722 25.418C112.582 26.106 114.648 26.501 116.836 26.501C122.091 26.501 126.68 24.275 129.223 20.956C130.256 21.155 131.329 21.272 132.44 21.272C139.896 21.272 145.94 16.51 145.94 10.636C145.94 4.76199 139.896 0 132.44 0C128.067 0 124.192 1.646 121.725 4.185C120.195 3.749 118.555 3.5 116.836 3.5C110.721 3.5 105.5 6.50597 103.369 10.754C101.788 10.161 100.052 9.83301 98.2289 9.83301C90.9239 9.83301 85.0019 15.094 85.0019 21.584C85.0019 22.257 85.0799 22.912 85.2019 23.554C81.0959 25.635 78.3349 29.445 78.3349 33.813C78.3349 35.453 78.7239 37.015 79.4249 38.437C74.0109 39.425 69.9839 43.103 69.9839 47.501C69.9839 52.656 75.5089 56.835 82.3259 56.835Z" fill="#D2E5F9"/>
<path d="M145.393 64.049C142.56 64.049 139.926 64.267 137.708 64.639C134.715 63.44 128.755 62.621 121.882 62.621C115.388 62.621 109.72 63.353 106.588 64.445C103.131 64.174 99.268 64.021 95.19 64.021C83.873 64.021 74.209 65.192 70.325 66.844C67.44 66.363 63.753 66.073 59.732 66.073C50.491 66.073 43 67.599 43 69.483C43 71.367 50.492 72.893 59.732 72.893C65.91 72.893 71.292 72.208 74.191 71.194C79.078 72.228 86.664 72.893 95.189 72.893C106.35 72.893 115.907 71.754 119.893 70.137C120.547 70.153 121.209 70.162 121.882 70.162C125.939 70.162 129.668 69.873 132.669 69.394C134.999 70.61 139.814 71.448 145.393 71.448C153.248 71.448 159.615 69.792 159.615 67.749C159.616 65.705 153.248 64.049 145.393 64.049Z" fill="#D2E5F9"/>
<path d="M31.667 68.679C31.667 70.375 24.578 71.7509 15.834 71.7509C7.08898 71.7509 0.000976562 70.375 0.000976562 68.679C0.000976562 66.982 7.08998 65.606 15.834 65.606C24.579 65.606 31.667 66.982 31.667 68.679Z" fill="#D2E5F9"/>
<path d="M45.334 61.7159C45.334 65.5619 40.558 68.6799 34.667 68.6799C28.776 68.6799 24 65.5619 24 61.7159C24 57.8699 28.775 54.752 34.667 54.752C40.558 54.752 45.334 57.8699 45.334 61.7159Z" fill="#D2E5F9"/>
<path d="M242.751 70.082C242.751 71.972 232.801 73.492 220.531 73.492C216.421 73.492 212.57 73.322 209.26 73.021C209.41 73.471 209.49 73.942 209.49 74.431C209.49 78.061 205.12 81.001 199.73 81.001C194.34 81.001 189.96 78.061 189.96 74.431C189.96 73.971 190.03 73.532 190.16 73.101C188.65 73.351 187.02 73.492 185.31 73.492C183.17 73.492 181.14 73.271 179.33 72.891C178.28 74.851 175.51 76.251 172.24 76.251C168.08 76.251 164.71 73.971 164.71 71.161C164.71 70.931 164.74 70.711 164.78 70.491C163.31 70.651 161.8 70.731 160.25 70.731C155.89 70.731 151.79 70.081 148.23 68.941C146.62 69.981 144.72 70.581 142.67 70.581C138.14 70.581 134.3 67.661 132.93 63.601C129.68 65.171 125.91 66.072 121.88 66.072C117.43 66.072 113.29 64.971 109.82 63.082C107.24 67.352 94.98 70.582 80.25 70.582C74.98 70.582 70.02 70.172 65.71 69.442C60.17 70.011 53.37 70.402 45.91 70.532C46.18 70.952 46.33 71.391 46.33 71.851C46.33 74.282 42.12 76.251 36.92 76.251C31.72 76.251 27.5 74.281 27.5 71.851C27.5 71.322 27.71 70.822 28.07 70.362C11.8 69.721 0 67.832 0 65.601C0 63.202 13.79 61.192 32.11 60.721C29.26 59.822 27.5 58.581 27.5 57.221C27.5 54.452 34.69 52.211 43.56 52.211C45.06 52.211 46.5 52.281 47.87 52.401C48.54 50.441 50.8 49.001 53.5 49.001C54.1 49.001 54.68 49.071 55.23 49.211C56.13 48.221 57.3 47.621 58.58 47.621C61.09 47.621 63.16 49.881 63.58 52.861C65.75 51.161 69.9 50.01 74.68 50.001C73.12 48.681 72.25 47.191 72.25 45.621C72.25 41.631 77.92 38.181 86.15 36.531C85.71 34.951 85.47 33.301 85.47 31.6C85.47 20.22 95.97 11 108.92 11C112.39 11 115.69 11.67 118.65 12.86C120.57 5.42899 126.56 0 133.67 0C142.32 0 149.33 8.03996 149.33 17.96C149.33 24.2 146.55 29.7 142.33 32.92C148.48 34.13 152.96 37.89 152.96 42.35C152.96 42.571 152.93 42.781 152.91 42.991C155.23 42.581 157.69 42.35 160.25 42.35C160.38 42.35 160.51 42.361 160.65 42.361C161.78 39.26 165.18 37.001 169.21 37.001C174.16 37.001 178.17 40.401 178.17 44.601C178.17 45.291 178.05 45.942 177.85 46.572C182.27 49.132 185 52.662 185 56.542C185 58.271 184.46 59.932 183.47 61.462C184.08 61.422 184.69 61.402 185.31 61.402C186.19 61.402 187.04 61.442 187.87 61.502C188.17 59.162 190.57 57.332 193.48 57.332C196.6 57.332 199.13 59.432 199.13 62.012C199.13 62.182 199.11 62.363 199.09 62.542C202.71 63.132 205.25 64.532 205.25 66.152C205.25 66.721 204.93 67.261 204.38 67.752C208.43 67.092 214.16 66.682 220.53 66.682C232.801 66.681 242.751 68.202 242.751 70.082Z" fill="white"/>
<path opacity="0.29" d="M242.751 70.0819C242.751 71.9719 232.801 73.492 220.531 73.492C216.421 73.492 212.57 73.322 209.26 73.021C209.41 73.471 209.49 73.9419 209.49 74.4309C209.49 78.0609 205.12 81.001 199.73 81.001C194.34 81.001 189.96 78.0609 189.96 74.4309C189.96 73.9709 190.03 73.532 190.16 73.101C188.65 73.351 187.02 73.492 185.31 73.492C183.17 73.492 181.14 73.271 179.33 72.891C178.28 74.851 175.51 76.2509 172.24 76.2509C168.08 76.2509 164.71 73.971 164.71 71.161C164.71 70.931 164.74 70.7109 164.78 70.4909C163.31 70.6509 161.8 70.731 160.25 70.731C155.89 70.731 151.79 70.081 148.23 68.941C146.62 69.981 144.72 70.581 142.67 70.581C138.14 70.581 134.3 67.661 132.93 63.601C129.68 65.171 125.91 66.0719 121.88 66.0719C117.43 66.0719 113.29 64.9709 109.82 63.0819C107.24 67.3519 94.98 70.5819 80.25 70.5819C74.98 70.5819 70.02 70.172 65.71 69.442C60.17 70.011 53.37 70.402 45.91 70.532C46.18 70.952 46.33 71.391 46.33 71.851C46.33 74.282 42.12 76.2509 36.92 76.2509C31.72 76.2509 27.5 74.281 27.5 71.851C27.5 71.322 27.71 70.822 28.07 70.362C11.8 69.721 0 67.832 0 65.601C0 65.601 7.82998 64.171 18.17 66.331C27.85 68.361 30.22 69.3709 30.48 69.4909C30.23 69.1909 27.44 65.7699 33.5 64.5009C39.67 63.2009 46.79 66.171 47.16 66.321C46.89 66.091 42.93 62.591 50.67 60.331C58.46 58.06 61.04 63.381 61.16 63.661C61.09 63.321 59.7 56.801 67.17 55.831C72.94 55.081 74.08 59.31 74.3 61.441C74.23 56.821 74.63 40.43 83.67 44.17C85.9 45.09 87.47 46.1 88.57 47.11C88.12 42.889 88.47 38.36 91.83 37.67C98.15 36.37 101.14 41.3799 101.3 41.6599C101.14 41.2299 97.01 30.059 106.17 24.33C115.5 18.5 121.38 23.33 121.38 23.33C121.38 23.33 120.67 12.17 130.5 12.5C140.33 12.83 139.33 28.5 135.17 33.33C131.65 37.41 131.1 38.0499 131.02 38.1599C131.38 37.8799 136.86 33.93 142.5 41.5C146.17 46.42 142.12 51.7499 138.62 55.0299C140.28 54.9199 142.62 55.19 145.94 56.17C157.83 59.67 158.17 64.33 158.17 64.33C158.17 64.33 158.33 60.5899 168 61.7099C177.67 62.8299 183.5 70.33 183.5 70.33C183.5 70.33 179.17 72.33 188.33 70.33C197.5 68.33 203 72.89 203 72.89C203 72.89 202.53 68.83 211.35 70.5C220.17 72.17 223.83 71.5 229.83 71C235.83 70.5 240.501 72.3319 242.751 70.0819Z" fill="#D2E5F9"/>
</svg>
