<svg width="24" height="24" viewBox="0 0 24 24" fill="none" xmlns="http://www.w3.org/2000/svg">
<g clip-path="url(#clip0_147_4912)">
<path d="M23.9313 11.9917C23.9313 18.5865 18.5851 23.9326 11.9903 23.9326C5.39691 23.9326 0.0507812 18.5865 0.0507812 11.9917C0.0507812 5.39691 5.39691 0.0507812 11.9903 0.0507812C18.5851 0.0507812 23.9313 5.39553 23.9313 11.9917Z" fill="#544B50"/>
<path d="M22.592 11.9915C22.592 17.8462 17.8468 22.5915 11.9921 22.5915C6.13878 22.5915 1.39355 17.8462 1.39355 11.9915C1.39355 6.13684 6.13878 1.3916 11.9921 1.3916C17.8454 1.39022 22.592 6.13546 22.592 11.9915Z" fill="#221E20"/>
<mask id="mask0_147_4912" style="mask-type:luminance" maskUnits="userSpaceOnUse" x="-1" y="-1" width="26" height="26">
<path d="M16.6864 23.314C22.9347 20.7258 25.9018 13.5623 23.3136 7.31397C20.7254 1.06563 13.562 -1.90151 7.31363 0.68669C1.06529 3.27489 -1.90184 10.4383 0.686365 16.6867C3.27457 22.935 10.438 25.9022 16.6864 23.314Z" fill="white"/>
</mask>
<g mask="url(#mask0_147_4912)">
<path d="M8.15826 24.6727L6.41205 23.7576L6.39551 17.8408L8.14172 18.7574L8.15826 24.6727Z" fill="#544B50"/>
<path d="M11.5704 25.2326L9.64638 24.7998L8.09863 19.0898L10.024 19.5226L11.5704 25.2326Z" fill="#544B50"/>
<path d="M15.0107 24.891L13.0412 24.9709L10.0684 19.8549L12.0378 19.7764L15.0107 24.891Z" fill="#544B50"/>
<path d="M18.2469 23.6689L16.3643 24.2547L12.1689 20.0842L14.0516 19.4971L18.2469 23.6689Z" fill="#544B50"/>
<path d="M21.0552 21.6515L19.3889 22.7059L14.2578 19.762L15.9241 18.709L21.0552 21.6515Z" fill="#544B50"/>
<path d="M23.2475 18.976L21.912 20.4259L16.1924 18.9098L17.5306 17.46L23.2475 18.976Z" fill="#544B50"/>
<path d="M24.6707 15.8242L23.7542 17.5704L17.8389 17.587L18.7554 15.8421L24.6707 15.8242Z" fill="#544B50"/>
<path d="M25.234 12.4121L24.7998 14.3361L19.0898 15.8825L19.524 13.9585L25.234 12.4121Z" fill="#544B50"/>
<path d="M24.8923 8.9707L24.9695 10.9416L19.8549 13.913L19.7764 11.9421L24.8923 8.9707Z" fill="#544B50"/>
<path d="M23.6695 5.73535L24.2553 7.618L20.0834 11.8133L19.499 9.92928L23.6695 5.73535Z" fill="#544B50"/>
<path d="M21.6538 2.92578L22.7068 4.59069L19.7629 9.72319L18.71 8.0569L21.6538 2.92578Z" fill="#544B50"/>
<path d="M18.9789 0.735352L20.4261 2.07223L18.9128 7.79046L17.4629 6.45362L18.9789 0.735352Z" fill="#544B50"/>
<path d="M15.8242 -0.69043L17.5691 0.226101L17.5856 6.14142L15.8394 5.22489L15.8242 -0.69043Z" fill="#544B50"/>
<path d="M12.4121 -1.25L14.3347 -0.817244L15.8839 4.89274L13.9599 4.45999L12.4121 -1.25Z" fill="#544B50"/>
<path d="M8.9707 -0.906003L10.9416 -0.987305L13.913 4.12867L11.9435 4.20858L8.9707 -0.906003Z" fill="#544B50"/>
<path d="M5.73633 0.313267L7.61898 -0.272461L11.8143 3.89804L9.93164 4.48516L5.73633 0.313267Z" fill="#544B50"/>
<path d="M2.92676 2.33069L4.59303 1.27637L9.72554 4.22023L8.05926 5.27321L2.92676 2.33069Z" fill="#544B50"/>
<path d="M0.736328 5.00653L2.07321 3.55664L7.79146 5.07269L6.45596 6.5212L0.736328 5.00653Z" fill="#544B50"/>
<path d="M-0.69043 8.15731L0.22609 6.41106L6.1428 6.39453L5.22628 8.14074L-0.69043 8.15731Z" fill="#544B50"/>
<path d="M-1.25 11.5704L-0.817239 9.64636L4.89412 8.09863L4.45998 10.0226L-1.25 11.5704Z" fill="#544B50"/>
<path d="M-0.908346 15.0107L-0.988281 13.0398L4.12769 10.0684L4.20762 12.0392L-0.908346 15.0107Z" fill="#544B50"/>
<path d="M0.313684 18.2483L-0.273438 16.3643L3.89707 12.1689L4.48419 14.053L0.313684 18.2483Z" fill="#544B50"/>
<path d="M2.33209 21.0556L1.27637 19.3893L4.22163 14.2568L5.27321 15.9231L2.33209 21.0556Z" fill="#544B50"/>
<path d="M5.00653 23.2493L3.55664 21.9124L5.07268 16.1914L6.52258 17.5283L5.00653 23.2493Z" fill="#544B50"/>
</g>
<path d="M21.2091 11.992C21.2091 17.0817 17.0827 21.2095 11.9916 21.2095C6.90179 21.2095 2.77539 17.0817 2.77539 11.992C2.77539 6.9008 6.90179 2.77441 11.9916 2.77441C17.0827 2.77304 21.2091 6.89942 21.2091 11.992Z" fill="#221E20"/>
<path d="M13.5142 11.9917C13.5142 12.8324 12.8334 13.5147 11.9913 13.5147C11.1506 13.5147 10.4697 12.8324 10.4697 11.9917C10.4697 11.151 11.1506 10.4688 11.9913 10.4688C12.8334 10.4674 13.5142 11.1496 13.5142 11.9917Z" fill="#76797B"/>
<path d="M18.1077 11.9906C18.1077 15.37 15.3692 18.1071 11.9912 18.1071C8.61313 18.1071 5.87598 15.37 5.87598 11.9906C5.87598 8.61391 8.61313 5.87402 11.9912 5.87402C15.3678 5.87402 18.1077 8.61254 18.1077 11.9906Z" fill="#8E8D8D"/>
<path d="M17.4015 11.9896C17.4015 14.9803 14.9799 17.4019 11.992 17.4019C9.00397 17.4019 6.58105 14.9803 6.58105 11.9896C6.58105 9.00298 9.00397 6.58008 11.992 6.58008C14.9799 6.58008 17.4015 9.00298 17.4015 11.9896Z" fill="#76797B"/>
<path d="M13.5142 11.9917C13.5142 12.8324 12.8334 13.5147 11.9913 13.5147C11.1506 13.5147 10.4697 12.8324 10.4697 11.9917C10.4697 11.151 11.1506 10.4688 11.9913 10.4688C12.8334 10.4674 13.5142 11.1496 13.5142 11.9917Z" fill="#A0A0A0"/>
<path d="M13.1494 7.96961C13.1494 8.34035 12.6312 9.76684 11.9917 9.76684C11.3508 9.76684 10.834 8.34035 10.834 7.96961C10.834 7.60025 11.3508 7.2998 11.9917 7.2998C12.6312 7.2998 13.1494 7.60025 13.1494 7.96961Z" fill="black"/>
<path d="M9.96673 8.32871C10.2272 8.59057 10.8695 9.96603 10.4174 10.4195C9.96674 10.8701 8.59127 10.2293 8.32803 9.96741C8.06755 9.70554 8.22053 9.12809 8.67397 8.67465C9.12465 8.22259 9.70349 8.06822 9.96673 8.32871Z" fill="black"/>
<path d="M7.96962 10.834C8.34174 10.834 9.7682 11.3522 9.7682 11.9917C9.76683 12.6312 8.34174 13.1494 7.96962 13.1494C7.59888 13.1494 7.2998 12.6312 7.2998 11.9917C7.2998 11.3522 7.60026 10.834 7.96962 10.834Z" fill="black"/>
<path d="M8.32808 14.0156C8.58995 13.7538 9.96541 13.1115 10.4175 13.5649C10.8695 14.0156 10.2273 15.3897 9.96541 15.653C9.70492 15.9134 9.12607 15.7605 8.67264 15.3084C8.22058 14.8563 8.0676 14.2775 8.32808 14.0156Z" fill="black"/>
<path d="M10.834 16.012C10.834 15.6427 11.3508 14.2148 11.9903 14.2148C12.6312 14.2148 13.148 15.6413 13.148 16.012C13.148 16.3828 12.6312 16.6819 11.9903 16.6819C11.3508 16.6819 10.834 16.3814 10.834 16.012Z" fill="black"/>
<path d="M14.0135 15.6536C13.753 15.3917 13.1107 14.0148 13.5614 13.5642C14.0135 13.1121 15.3889 13.7544 15.6522 14.0149C15.9127 14.2754 15.7597 14.8542 15.3076 15.309C14.8528 15.7597 14.2753 15.9141 14.0135 15.6536Z" fill="black"/>
<path d="M16.012 13.1488C15.6413 13.1488 14.2135 12.6292 14.2148 11.9897C14.2148 11.3502 15.6413 10.832 16.012 10.832C16.3814 10.832 16.6819 11.3502 16.6819 11.9897C16.6832 12.6292 16.3828 13.1488 16.012 13.1488Z" fill="black"/>
<path d="M15.6535 9.96741C15.393 10.2293 14.0162 10.8715 13.5641 10.4195C13.1121 9.96741 13.7543 8.59195 14.0162 8.32871C14.2767 8.06822 14.8542 8.22259 15.309 8.67465C15.761 9.12671 15.9154 9.70417 15.6535 9.96741Z" fill="black"/>
</g>
<defs>
<clipPath id="clip0_147_4912">
<rect width="24" height="24" rx="12" fill="white"/>
</clipPath>
</defs>
</svg>
