<svg width="499" height="119" viewBox="0 0 499 119" fill="none" xmlns="http://www.w3.org/2000/svg">
<path d="M31 21.333C31 21.333 191.667 22.15 264.333 21.742C337 21.333 467 21.742 467 21.742L471 100.657L0 113.333L31 21.333Z" fill="url(#paint0_linear_148_4920)"/>
<path d="M475.038 22.333C475.076 22.108 475.102 21.88 475.102 21.643C475.102 19.435 473.312 17.645 471.104 17.645C470.554 17.645 470.031 17.756 469.554 17.958C469.222 14.076 465.972 11.028 462.005 11.028C461.209 11.028 460.442 11.153 459.722 11.38C460.035 10.492 460.213 9.541 460.213 8.547C460.213 3.827 456.386 0 451.665 0C447.552 0 444.119 2.90701 443.304 6.77701C441.997 6.14501 440.531 5.78998 438.983 5.78998C433.544 5.78998 429.13 10.165 429.06 15.588C428.615 15.493 428.153 15.441 427.678 15.441C424.024 15.441 421.061 18.403 421.061 22.057C421.061 22.151 421.071 22.241 421.075 22.333H475.038Z" fill="url(#paint1_linear_148_4920)"/>
<path d="M343.834 35.4411C343.871 35.2261 343.895 35.0071 343.895 34.7821C343.895 32.6701 342.183 30.9581 340.071 30.9581C339.545 30.9581 339.045 31.0631 338.589 31.2561C338.272 27.5441 335.162 24.6281 331.367 24.6281C330.606 24.6281 329.873 24.7471 329.183 24.9641C329.482 24.1141 329.653 23.2051 329.653 22.2541C329.653 17.7381 325.993 14.0781 321.477 14.0781C317.542 14.0781 314.257 16.8581 313.478 20.5611C312.228 19.9571 310.826 19.6161 309.344 19.6161C304.141 19.6161 299.918 23.8021 299.852 28.9891C299.426 28.8981 298.984 28.8481 298.531 28.8481C295.035 28.8481 292.201 31.6811 292.201 35.1771C292.201 35.2661 292.211 35.3531 292.214 35.4411H343.834Z" fill="url(#paint2_linear_148_4920)"/>
<path d="M376.125 22.6311C376.121 22.3921 376.103 22.1511 376.057 21.9071C375.626 19.6281 373.43 18.1281 371.151 18.5581C370.584 18.6651 370.065 18.8812 369.612 19.1822C368.513 15.2402 364.565 12.7271 360.469 13.4991C359.648 13.6541 358.881 13.9322 358.181 14.3072C358.33 13.3292 358.329 12.3131 358.136 11.2871C357.216 6.41414 352.52 3.20815 347.647 4.12815C343.401 4.93015 340.423 8.59915 340.336 12.7542C338.865 12.3562 337.282 12.2741 335.683 12.5751C330.069 13.6351 326.364 19.0121 327.349 24.6231C326.87 24.6121 326.383 24.6481 325.894 24.7401C322.122 25.4521 319.64 29.0871 320.352 32.8591C320.37 32.9561 320.398 33.0471 320.42 33.1411L376.125 22.6311Z" fill="url(#paint3_linear_148_4920)"/>
<path d="M129.068 64.3301C129.103 64.1261 129.126 63.9181 129.126 63.7031C129.126 61.6921 127.496 60.0631 125.485 60.0631C124.985 60.0631 124.508 60.1631 124.075 60.3461C123.772 56.8131 120.813 54.0371 117.201 54.0371C116.477 54.0371 115.779 54.1501 115.123 54.3561C115.407 53.5481 115.57 52.6831 115.57 51.7781C115.57 47.4801 112.086 43.9961 107.788 43.9961C104.043 43.9961 100.917 46.6431 100.175 50.1671C98.9858 49.5911 97.6518 49.2681 96.2408 49.2681C91.2898 49.2681 87.2698 53.2511 87.2068 58.1881C86.8018 58.1021 86.3808 58.0541 85.9488 58.0541C82.6218 58.0541 79.9248 60.7511 79.9248 64.0791C79.9248 64.1631 79.9338 64.2461 79.9378 64.3291H129.068V64.3301Z" fill="url(#paint4_linear_148_4920)"/>
<path d="M484.747 18.96C484.747 18.96 379.003 15.96 265.758 39.959C152.514 63.957 13.7705 63.957 13.7705 63.957L3.27051 107.455C3.27051 107.455 493.747 118.705 497.497 118.705C501.247 118.705 490.747 16.71 490.747 16.71L484.747 18.96Z" fill="url(#paint5_linear_148_4920)"/>
<defs>
<linearGradient id="paint0_linear_148_4920" x1="-0.0001" y1="67.333" x2="471" y2="67.333" gradientUnits="userSpaceOnUse">
<stop stop-color="#3D6159"/>
<stop offset="1" stop-color="#BAFF5C"/>
</linearGradient>
<linearGradient id="paint1_linear_148_4920" x1="421.06" y1="11.1665" x2="475.101" y2="11.1665" gradientUnits="userSpaceOnUse">
<stop stop-color="#7EB34D"/>
<stop offset="1" stop-color="#BAFF5C"/>
</linearGradient>
<linearGradient id="paint2_linear_148_4920" x1="292.2" y1="24.7598" x2="343.895" y2="24.7598" gradientUnits="userSpaceOnUse">
<stop stop-color="#7EB34D"/>
<stop offset="1" stop-color="#BAFF5C"/>
</linearGradient>
<linearGradient id="paint3_linear_148_4920" x1="318.23" y1="21.6174" x2="374.017" y2="11.0925" gradientUnits="userSpaceOnUse">
<stop stop-color="#7EB34D"/>
<stop offset="1" stop-color="#BAFF5C"/>
</linearGradient>
<linearGradient id="paint4_linear_148_4920" x1="104.525" y1="67.3306" x2="104.525" y2="41.5582" gradientUnits="userSpaceOnUse">
<stop stop-color="#7EB34D"/>
<stop offset="1" stop-color="#BAFF5C"/>
</linearGradient>
<linearGradient id="paint5_linear_148_4920" x1="257.602" y1="170.637" x2="240.353" y2="-6.35473" gradientUnits="userSpaceOnUse">
<stop stop-color="#3D6159"/>
<stop offset="1" stop-color="#BAFF5C"/>
</linearGradient>
</defs>
</svg>
