<?xml version="1.0" encoding="utf-8"?>
<!-- Generator: Adobe Illustrator 26.0.3, SVG Export Plug-In . SVG Version: 6.00 Build 0)  -->
<svg version="1.0" id="katman_1" xmlns="http://www.w3.org/2000/svg" xmlns:xlink="http://www.w3.org/1999/xlink" x="0px" y="0px"
	 viewBox="0 0 600 450" style="enable-background:new 0 0 600 450;" xml:space="preserve">
<style type="text/css">
	.st0{fill:#333333;}
	.st1{fill:none;stroke:#16A86F;stroke-width:9.8149;stroke-miterlimit:20.7305;}
	.st2{fill:#16A86F;}
</style>
<g id="Layer_2">
	<g id="Layer_1-2">
		<path class="st0" d="M310.7,210c-2.5-3-5.6-5.3-9.2-6.9c-4.2-1.7-8.8-2.6-13.3-2.5c-3.4-0.1-6.7,0.5-9.8,1.9
			c-2.7,1.2-5.1,3.1-7,5.4h-0.9v-24.4c0-1.7-0.8-3.4-2.2-4.5c-1.6-1.4-3.7-2.2-5.8-2.1c-2.2-0.1-4.4,0.6-6.1,2.1
			c-1.3,1.2-2,2.8-2,4.5v62.3c0,3.8,0.7,7.6,2.1,11.1c1.3,3.4,3.4,6.5,6.1,8.9c2.8,2.6,6.2,4.6,9.8,5.9c4.6,1.5,9.4,2.2,14.2,2.1
			c4.7,0.1,9.3-0.8,13.6-2.6c3.7-1.6,7.1-4,9.8-7c2.6-2.8,4.5-6.2,5.8-9.8c1.3-4,1.9-8.2,1.9-12.4v-8.6c0-4.4-0.6-8.8-1.9-13.1
			C314.8,216.7,313.1,213.1,310.7,210z M301.4,242.1c0.3,4.4-1.1,8.7-3.9,12.1c-2.7,3-6.6,4.7-10.6,4.5c-4,0.1-8-0.9-11.5-2.9
			c-3.2-2-4.9-5.5-4.6-9.2v-16.3c-0.2-4.1,1.4-8.1,4.4-10.9c2.8-2.2,6.2-3.4,9.8-3.4c4.3-0.2,8.5,1.5,11.6,4.5
			c3.2,3.7,4.8,8.4,4.4,13.3L301.4,242.1z"/>
		<path class="st0" d="M343.9,200.7c-2.2-0.1-4.4,0.6-6.1,2.1c-1.4,1.1-2.3,2.7-2.4,4.5V267c0.1,1.8,0.9,3.4,2.4,4.5
			c1.7,1.4,3.9,2.2,6.1,2.1c2.1,0.1,4.2-0.6,5.8-2.1c1.3-1.1,2.1-2.8,2.2-4.5v-59.7c0-1.7-0.8-3.4-2.2-4.5
			C348.1,201.4,346.1,200.6,343.9,200.7z"/>
		<path class="st0" d="M343.9,175.7c-2.2-0.1-4.4,0.6-6.1,2.1c-1.4,1.1-2.3,2.7-2.4,4.5v3.2c0.1,1.8,0.9,3.4,2.4,4.5
			c1.7,1.4,3.9,2.2,6.1,2.1c2.1,0.1,4.2-0.7,5.8-2.1c1.3-1.1,2.1-2.8,2.2-4.5v-3.3c0-1.7-0.8-3.4-2.2-4.5
			C348.1,176.3,346,175.6,343.9,175.7z"/>
		<path class="st0" d="M428.1,210c-2.5-3-5.6-5.3-9.2-6.9c-4.2-1.7-8.8-2.6-13.3-2.5c-3.4-0.1-6.7,0.5-9.8,1.9
			c-2.7,1.2-5.1,3.1-7,5.4h-0.9v-24.4c0-1.7-0.8-3.4-2.2-4.5c-1.6-1.4-3.7-2.2-5.8-2.1c-2.2-0.1-4.4,0.6-6.1,2.1
			c-1.2,1.2-1.8,2.8-1.7,4.5v62.3c0,3.8,0.7,7.6,2.1,11.1c1.3,3.4,3.4,6.5,6.1,8.9c2.8,2.6,6.2,4.6,9.8,5.9
			c4.6,1.5,9.4,2.2,14.2,2.1c4.7,0.1,9.3-0.8,13.6-2.6c3.7-1.6,7.1-4,9.8-7c2.6-2.8,4.5-6.2,5.8-9.8c1.3-4,1.9-8.2,1.9-12.4v-8.6
			c0-4.4-0.6-8.8-1.9-13.1C432.5,216.6,430.7,213.1,428.1,210z M418.9,242.1c0.2,4.4-1.2,8.7-4,12.1c-2.7,3-6.6,4.7-10.6,4.5
			c-4,0.1-8-0.9-11.5-2.9c-3.2-2-4.9-5.5-4.6-9.2v-16.3c-0.2-4.1,1.4-8.1,4.4-10.9c2.8-2.2,6.2-3.4,9.8-3.4
			c4.3-0.2,8.5,1.5,11.6,4.5c3.2,3.7,4.8,8.4,4.4,13.3L418.9,242.1z"/>
		<path class="st0" d="M461.3,175.7c-2.2-0.1-4.4,0.6-6.1,2.1c-1.4,1.1-2.3,2.7-2.4,4.5v3.2c0.1,1.8,0.9,3.4,2.4,4.5
			c1.7,1.4,3.9,2.2,6.1,2.1c2.1,0.1,4.2-0.7,5.8-2.1c1.4-1.1,2.2-2.8,2.3-4.5v-3.3c0-1.7-0.8-3.4-2.2-4.5
			C465.6,176.2,463.5,175.5,461.3,175.7z"/>
		<path class="st0" d="M461.3,200.7c-2.2-0.1-4.4,0.6-6.1,2.1c-1.4,1.1-2.3,2.7-2.4,4.5V267c0.1,1.8,0.9,3.4,2.4,4.5
			c1.7,1.4,3.9,2.2,6.1,2.1c2.1,0.1,4.2-0.6,5.8-2.1c1.3-1.1,2.1-2.8,2.2-4.5v-59.7c0-1.7-0.8-3.4-2.2-4.5
			C465.5,201.4,463.4,200.6,461.3,200.7z"/>
		<path class="st0" d="M529.9,259.8c-1.2-1.3-3-1.9-4.7-1.8c-1.5-0.2-3-0.2-4.5,0c-1.6,0.2-3.1,0.2-4.7,0c-1.8,0.1-3.5-0.7-4.5-2.1
			c-1.2-2.2-1.9-4.6-1.9-7.1v-34H520c1.6,0,3.1-0.6,4.2-1.8c1.3-1.3,1.9-3,1.9-4.8c0-1.7-0.6-3.3-1.9-4.5c-1.1-1.1-2.6-1.8-4.2-1.8
			h-10.4v-14.3l0,0v0.7c0.1-2.1-1.4-3.8-3.5-4c-1-0.1-2,0.3-2.8,1l-20.6,23c-1.4,1.5-1.3,3.9,0.2,5.3c0.7,0.7,1.7,1,2.7,1h8v33.6
			c-0.7,6.9,1.1,13.9,5,19.6c4.2,4.2,10,6.3,15.9,5.9c2.1,0.1,4.3,0.1,6.4,0c1.8-0.2,3.6-0.7,5.3-1.5c1.4-0.6,2.7-1.5,3.7-2.7
			c1-1.2,1.4-2.8,1.4-4.3C531.6,263.3,531.1,261.4,529.9,259.8z"/>
		<path class="st2" d="M161.2,177l-14.7,19.6h58.9v58.9H87.6v-58.9h58.9L131.7,177H87.6c-10.8,0-19.6,8.8-19.6,19.6c0,0,0,0,0,0
			v58.9c0,10.8,8.8,19.6,19.6,19.6h117.8c10.8,0,19.6-8.8,19.6-19.6v-58.9c0-10.8-8.8-19.6-19.6-19.6H161.2z"/>
		<rect x="107.2" y="216.2" class="st2" width="19.6" height="19.6"/>
		<rect x="166.1" y="216.2" class="st2" width="19.6" height="19.6"/>
	</g>
</g>
</svg>
