<svg width="243" height="257" viewBox="0 0 243 257" fill="none" xmlns="http://www.w3.org/2000/svg">
<path d="M242.083 135.403C242.083 202.254 187.89 256.446 121.042 256.446C54.1925 256.446 0.000488281 202.254 0.000488281 135.403C0.000488281 68.554 54.1925 14.3621 121.042 14.3621C187.89 14.3621 242.083 68.554 242.083 135.403Z" fill="#FFA000"/>
<path d="M92.5239 253.058C93.9613 253.405 95.4039 253.733 96.8599 254.028V102.072H92.5239V253.058Z" fill="#F78A00"/>
<path d="M212.329 214.885V70.4544H207.913V219.68C209.426 218.12 210.901 216.524 212.329 214.885Z" fill="#F78A00"/>
<path d="M188.856 235.677C193.427 232.581 197.771 229.175 201.866 225.499V84.4288H188.856V235.677Z" fill="#F78A00"/>
<path d="M15.7939 195.22C26.5339 214.077 42.1926 229.766 61.0273 240.54V94.7571H15.7939V195.22Z" fill="#F78A00"/>
<path d="M71.8491 246.025C76.0651 247.902 80.4051 249.55 84.8585 250.942V102.071H71.8491V246.025Z" fill="#F78A00"/>
<path d="M242.083 122.961C242.083 189.81 187.89 244.002 121.042 244.002C54.1925 244.002 0.000488281 189.81 0.000488281 122.961C0.000488281 56.1099 54.1925 1.91796 121.042 1.91796C187.89 1.91796 242.083 56.1099 242.083 122.961Z" fill="#FFFB00"/>
<path d="M242.083 121.041C242.083 187.892 187.89 242.083 121.042 242.083C54.1925 242.083 0.000488281 187.892 0.000488281 121.041C0.000488281 54.1921 54.1925 0.000116155 121.042 0.000116155C187.89 0.000116155 242.083 54.1921 242.083 121.041Z" fill="#FFE200"/>
<path d="M128.729 0.267793L0.267578 128.729C1.78491 152.914 10.3782 175.182 24.0382 193.453L193.453 24.0385C175.181 10.3785 152.916 1.78513 128.729 0.267793Z" fill="#FFF800"/>
<path d="M241.627 110.886C240.475 97.0259 236.991 83.8365 231.563 71.6979L71.6978 231.563C83.8364 236.993 97.0258 240.475 110.886 241.627L241.627 110.886Z" fill="#FFF800"/>
<path d="M219.671 50.9189C217.85 48.3616 215.947 45.8669 213.937 43.4629L43.4634 213.938C45.8674 215.947 48.362 217.85 50.9194 219.671L219.671 50.9189Z" fill="#FFF800"/>
<mask id="mask0_75_4300" style="mask-type:luminance" maskUnits="userSpaceOnUse" x="12" y="12" width="218" height="218">
<path d="M12.9307 12.931H229.152V229.152H12.9307V12.931Z" fill="white"/>
</mask>
<g mask="url(#mask0_75_4300)">
<g opacity="0.360001">
<path d="M229.152 121.041C229.152 180.749 180.749 229.152 121.041 229.152C61.3333 229.152 12.9307 180.749 12.9307 121.041C12.9307 61.3332 61.3333 12.9305 121.041 12.9305C180.749 12.9305 229.152 61.3332 229.152 121.041Z" fill="#FFFC78"/>
</g>
</g>
<path d="M121.041 1.76408C187.595 1.76408 241.584 55.4827 242.061 121.924C242.064 121.628 242.083 121.337 242.083 121.041C242.083 54.1921 187.891 7.84749e-05 121.041 7.84749e-05C54.192 7.84749e-05 0 54.1921 0 121.041C0 121.337 0.0199985 121.628 0.0213318 121.924C0.498665 55.4827 54.488 1.76408 121.041 1.76408Z" fill="#FFFB00"/>
<path d="M216.744 122.502C216.744 175.358 173.896 218.204 121.042 218.204C68.1869 218.204 25.3389 175.358 25.3389 122.502C25.3389 69.6463 68.1869 26.7996 121.042 26.7996C173.896 26.7996 216.744 69.6463 216.744 122.502Z" fill="#FFF700"/>
<path d="M216.744 121.041C216.744 173.897 173.896 216.744 121.042 216.744C68.1869 216.744 25.3389 173.897 25.3389 121.041C25.3389 68.1868 68.1869 25.3388 121.042 25.3388C173.896 25.3388 216.744 68.1868 216.744 121.041Z" fill="#FFBB00"/>
<path d="M204.079 137.732C205.135 137.732 205.994 138.59 205.994 139.646C205.994 140.701 205.135 141.558 204.079 141.558C203.024 141.558 202.166 140.701 202.166 139.646C202.166 138.59 203.024 137.732 204.079 137.732ZM215.507 106.262L192.968 128.801L201.663 137.497C201.154 138.072 200.832 138.818 200.832 139.646C200.832 141.436 202.288 142.892 204.079 142.892C205.87 142.892 207.327 141.436 207.327 139.646C207.327 137.856 205.87 136.398 204.079 136.398C203.603 136.398 203.154 136.508 202.744 136.693L194.854 128.801L215.755 107.901C215.676 107.353 215.596 106.806 215.507 106.262Z" fill="#FFE000"/>
<path d="M170.666 56.9445L171.335 56.2765C171.621 56.1059 171.95 56.0019 172.306 56.0019C173.361 56.0019 174.219 56.8605 174.219 57.9152C174.219 58.9699 173.361 59.8285 172.306 59.8285C171.25 59.8285 170.393 58.9699 170.393 57.9152C170.393 57.5592 170.497 57.2299 170.666 56.9445ZM107.161 37.9752C106.105 37.9752 105.247 37.1179 105.247 36.0619C105.247 35.0072 106.105 34.1499 107.161 34.1499C108.215 34.1499 109.074 35.0072 109.074 36.0619C109.074 37.1179 108.215 37.9752 107.161 37.9752ZM107.161 32.8165C105.37 32.8165 103.914 34.2725 103.914 36.0619C103.914 37.8525 105.37 39.3085 107.161 39.3085C107.977 39.3085 108.717 38.9952 109.287 38.4952L122.497 51.7032L131.939 42.2592L147.446 57.7659L159.257 45.9539L169.539 56.2379C169.242 56.7285 169.059 57.2992 169.059 57.9152C169.059 59.7045 170.517 61.1619 172.306 61.1619C174.097 61.1619 175.553 59.7045 175.553 57.9152C175.553 56.1245 174.097 54.6685 172.306 54.6685C171.614 54.6685 170.975 54.8899 170.449 55.2605L159.257 44.0685L147.446 55.8805L132.882 41.3165L138.957 35.2432L148.31 44.5979L158.954 33.9539L158.487 33.4885C158.263 33.3925 158.037 33.3045 157.811 33.2112L148.31 42.7125L138.957 33.3579L122.497 49.8179L110.099 37.4205C110.291 37.0059 110.407 36.5485 110.407 36.0619C110.407 34.2725 108.95 32.8165 107.161 32.8165Z" fill="#FFE000"/>
<path d="M157.224 70.1462C156.169 70.1462 155.31 69.2876 155.31 68.2329C155.31 67.1782 156.169 66.3196 157.224 66.3196C158.278 66.3196 159.137 67.1782 159.137 68.2329C159.137 69.2876 158.278 70.1462 157.224 70.1462ZM178.848 77.8196L195.362 61.3049C195.08 60.9582 194.798 60.6116 194.512 60.2689L178.848 75.9342L163.556 60.6436L158.792 65.4076C158.324 65.1476 157.796 64.9862 157.224 64.9862C155.433 64.9862 153.977 66.4436 153.977 68.2329C153.977 70.0236 155.433 71.4796 157.224 71.4796C159.014 71.4796 160.47 70.0236 160.47 68.2329C160.47 67.4982 160.214 66.8276 159.802 66.2822L163.556 62.5289L178.848 77.8196Z" fill="#FFE000"/>
<path d="M169.04 189.212L169.598 188.655L169.588 188.646C169.892 188.442 170.258 188.322 170.651 188.322C171.707 188.322 172.566 189.18 172.566 190.235C172.566 191.29 171.707 192.147 170.651 192.147C169.596 192.147 168.738 191.29 168.738 190.235C168.738 189.858 168.851 189.51 169.04 189.212ZM113.567 193.327C112.511 193.327 111.652 192.468 111.652 191.412C111.652 190.358 112.511 189.5 113.567 189.5C114.622 189.5 115.48 190.358 115.48 191.412C115.48 192.468 114.622 193.327 113.567 193.327ZM178.439 104.084C177.383 104.084 176.524 103.226 176.524 102.171C176.524 101.115 177.383 100.258 178.439 100.258C179.494 100.258 180.351 101.115 180.351 102.171C180.351 103.226 179.494 104.084 178.439 104.084ZM198.92 151.918C199.975 151.918 200.834 152.776 200.834 153.832C200.834 154.887 199.975 155.744 198.92 155.744C197.864 155.744 197.007 154.887 197.007 153.832C197.007 152.776 197.864 151.918 198.92 151.918ZM177.718 176.279L197.344 156.652C197.812 156.915 198.346 157.078 198.92 157.078C200.711 157.078 202.167 155.623 202.167 153.832C202.167 152.042 200.711 150.584 198.92 150.584C197.13 150.584 195.674 152.042 195.674 153.832C195.674 154.564 195.926 155.232 196.336 155.775L177.718 174.394L166.376 163.052L183.96 145.468L174 135.507L193.39 116.118L181.175 103.902C181.494 103.4 181.684 102.808 181.684 102.171C181.684 100.38 180.23 98.9242 178.439 98.9242C176.648 98.9242 175.191 100.38 175.191 102.171C175.191 103.962 176.648 105.418 178.439 105.418C179.11 105.418 179.734 105.212 180.25 104.863L191.504 116.118L172.115 135.507L182.075 145.468L125.908 201.634L116.651 192.375C116.747 192.07 116.814 191.75 116.814 191.412C116.814 189.623 115.356 188.167 113.567 188.167C111.776 188.167 110.319 189.623 110.319 191.412C110.319 193.203 111.776 194.66 113.567 194.66C114.522 194.66 115.374 194.238 115.968 193.578L124.966 202.576L110.81 216.735C111.383 216.795 111.963 216.838 112.54 216.888L154.243 175.186L167.791 188.734C167.552 189.184 167.404 189.69 167.404 190.235C167.404 192.024 168.86 193.48 170.651 193.48C172.442 193.48 173.899 192.024 173.899 190.235C173.899 188.444 172.442 186.988 170.651 186.988C169.891 186.988 169.199 187.262 168.644 187.702L155.186 174.243L165.434 163.995L177.718 176.279Z" fill="#FFE000"/>
<path d="M78.6591 46.9704C79.7151 46.9704 80.5724 47.8291 80.5724 48.8837C80.5724 49.9384 79.7151 50.7971 78.6591 50.7971C77.6044 50.7971 76.7457 49.9384 76.7457 48.8837C76.7457 47.8291 77.6044 46.9704 78.6591 46.9704ZM71.6977 81.7491C72.7537 81.7491 73.6111 82.6077 73.6111 83.6624C73.6111 84.7171 72.7537 85.5758 71.6977 85.5758C70.6431 85.5758 69.7844 84.7171 69.7844 83.6624C69.7844 82.6077 70.6431 81.7491 71.6977 81.7491ZM81.3657 123.266C82.1217 123.266 82.7351 123.881 82.7351 124.637C82.7351 125.392 82.1217 126.006 81.3657 126.006C80.6111 126.006 79.9964 125.392 79.9964 124.637C79.9964 123.881 80.6111 123.266 81.3657 123.266ZM74.2777 146.66C75.0337 146.66 75.6471 147.274 75.6471 148.029C75.6471 148.785 75.0337 149.4 74.2777 149.4C73.5231 149.4 72.9084 148.785 72.9084 148.029C72.9084 147.274 73.5231 146.66 74.2777 146.66ZM61.9137 165.03C62.1671 164.592 62.6284 164.348 63.1031 164.348C63.3337 164.348 63.5697 164.406 63.7844 164.529C64.4377 164.908 64.6631 165.748 64.2857 166.401C63.9084 167.054 63.0724 167.28 62.4151 166.902C62.0991 166.718 61.8724 166.422 61.7777 166.07C61.6831 165.717 61.7311 165.348 61.9137 165.03ZM101.59 215.302C102.352 215.46 103.127 215.582 103.895 215.722L44.5764 156.404L48.8444 152.134L60.8911 164.181C60.8484 164.244 60.7977 164.298 60.7591 164.364C60.0151 165.654 60.4577 167.31 61.7484 168.056C62.1737 168.302 62.6377 168.417 63.0964 168.417C64.0311 168.417 64.9404 167.933 65.4404 167.068C66.1857 165.777 65.7417 164.121 64.4511 163.376C63.6391 162.906 62.6817 162.912 61.8964 163.301L54.2257 155.63L67.5097 142.345L71.9124 146.748C71.7044 147.132 71.5751 147.564 71.5751 148.029C71.5751 149.521 72.7884 150.733 74.2777 150.733C75.7684 150.733 76.9804 149.521 76.9804 148.029C76.9804 146.538 75.7684 145.326 74.2777 145.326C73.7377 145.326 73.2364 145.489 72.8137 145.764L67.5097 140.46L53.2831 154.688L44.1817 145.585L57.1177 132.65L45.6697 121.204L61.5337 105.34H71.0311V115.066L79.1137 123.148C78.8297 123.576 78.6631 124.085 78.6631 124.637C78.6631 126.128 79.8764 127.34 81.3657 127.34C82.8564 127.34 84.0684 126.128 84.0684 124.637C84.0684 123.145 82.8564 121.933 81.3657 121.933C80.9097 121.933 80.4871 122.057 80.1084 122.257L72.3644 114.514V104.006H61.9244V94.8384L70.2244 86.5384C70.6697 86.7678 71.1644 86.9091 71.6977 86.9091C73.4884 86.9091 74.9444 85.4517 74.9444 83.6624C74.9444 81.8717 73.4884 80.4157 71.6977 80.4157C69.9084 80.4157 68.4511 81.8717 68.4511 83.6624C68.4511 84.4344 68.7337 85.1344 69.1857 85.6931L60.5911 94.2864V104.397L56.4577 108.532L44.2911 96.3651L63.3191 77.3371L57.2111 71.2278L76.8577 51.5811C77.3737 51.9264 77.9924 52.1304 78.6591 52.1304C80.4497 52.1304 81.9057 50.6731 81.9057 48.8837C81.9057 47.0931 80.4497 45.6371 78.6591 45.6371C76.8697 45.6371 75.4124 47.0931 75.4124 48.8837C75.4124 49.5264 75.6057 50.1211 75.9284 50.6251L55.3257 71.2278L61.4337 77.3371L43.3484 95.4224L32.6884 84.7624C32.5031 85.2091 32.3351 85.6651 32.1564 86.1144L55.5151 109.474L43.7844 121.204L55.2324 132.65L31.7817 156.101C31.9564 156.553 32.1337 157.005 32.3151 157.453L43.2391 146.528L47.9017 151.192L42.6897 156.404L101.59 215.302Z" fill="#FFE000"/>
<path d="M204.079 137.191C205.135 137.191 205.994 138.05 205.994 139.106C205.994 140.16 205.135 141.018 204.079 141.018C203.024 141.018 202.166 140.16 202.166 139.106C202.166 138.05 203.024 137.191 204.079 137.191ZM215.507 105.722L192.968 128.26L201.663 136.956C201.154 137.531 200.832 138.278 200.832 139.106C200.832 140.895 202.288 142.351 204.079 142.351C205.87 142.351 207.327 140.895 207.327 139.106C207.327 137.315 205.87 135.858 204.079 135.858C203.603 135.858 203.154 135.967 202.744 136.152L194.854 128.26L215.755 107.36C215.676 106.812 215.596 106.267 215.507 105.722Z" fill="#FC9A00"/>
<path d="M170.666 56.404L171.335 55.736C171.621 55.5653 171.95 55.4613 172.306 55.4613C173.361 55.4613 174.219 56.32 174.219 57.3747C174.219 58.4293 173.361 59.288 172.306 59.288C171.25 59.288 170.393 58.4293 170.393 57.3747C170.393 57.0187 170.497 56.6893 170.666 56.404ZM107.161 37.4347C106.105 37.4347 105.247 36.5773 105.247 35.5213C105.247 34.4667 106.105 33.6093 107.161 33.6093C108.215 33.6093 109.074 34.4667 109.074 35.5213C109.074 36.5773 108.215 37.4347 107.161 37.4347ZM107.161 32.276C105.37 32.276 103.914 33.732 103.914 35.5213C103.914 37.312 105.37 38.768 107.161 38.768C107.977 38.768 108.717 38.4547 109.287 37.9547L122.497 51.1627L131.939 41.7187L147.446 57.2253L159.257 45.4133L169.539 55.6973C169.242 56.188 169.059 56.7587 169.059 57.3747C169.059 59.164 170.517 60.6213 172.306 60.6213C174.097 60.6213 175.553 59.164 175.553 57.3747C175.553 55.584 174.097 54.128 172.306 54.128C171.614 54.128 170.975 54.3493 170.449 54.72L159.257 43.528L147.446 55.34L132.882 40.776L138.957 34.7027L148.31 44.0573L158.954 33.4133L158.487 32.948C158.263 32.852 158.037 32.764 157.811 32.6707L148.31 42.172L138.957 32.8173L122.497 49.2773L110.099 36.88C110.291 36.4653 110.407 36.0093 110.407 35.5213C110.407 33.732 108.95 32.276 107.161 32.276Z" fill="#FC9A00"/>
<path d="M157.224 69.606C156.169 69.606 155.31 68.7473 155.31 67.6926C155.31 66.638 156.169 65.7793 157.224 65.7793C158.278 65.7793 159.137 66.638 159.137 67.6926C159.137 68.7473 158.278 69.606 157.224 69.606ZM178.848 77.2793L195.362 60.7646C195.08 60.418 194.798 60.0713 194.512 59.7286L178.848 75.394L163.556 60.1033L158.792 64.8673C158.324 64.6073 157.796 64.446 157.224 64.446C155.433 64.446 153.977 65.9033 153.977 67.6926C153.977 69.4833 155.433 70.9393 157.224 70.9393C159.014 70.9393 160.47 69.4833 160.47 67.6926C160.47 66.958 160.214 66.2873 159.802 65.742L163.556 61.9886L178.848 77.2793Z" fill="#FC9A00"/>
<path d="M169.04 188.672L169.598 188.114L169.588 188.105C169.892 187.901 170.258 187.781 170.651 187.781C171.707 187.781 172.566 188.64 172.566 189.694C172.566 190.749 171.707 191.606 170.651 191.606C169.596 191.606 168.738 190.749 168.738 189.694C168.738 189.317 168.851 188.969 169.04 188.672ZM113.567 192.786C112.511 192.786 111.652 191.928 111.652 190.872C111.652 189.817 112.511 188.96 113.567 188.96C114.622 188.96 115.48 189.817 115.48 190.872C115.48 191.928 114.622 192.786 113.567 192.786ZM178.439 103.544C177.383 103.544 176.524 102.685 176.524 101.63C176.524 100.574 177.383 99.717 178.439 99.717C179.494 99.717 180.351 100.574 180.351 101.63C180.351 102.685 179.494 103.544 178.439 103.544ZM198.92 151.377C199.975 151.377 200.834 152.236 200.834 153.292C200.834 154.346 199.975 155.204 198.92 155.204C197.864 155.204 197.007 154.346 197.007 153.292C197.007 152.236 197.864 151.377 198.92 151.377ZM177.718 175.738L197.344 156.112C197.812 156.374 198.346 156.537 198.92 156.537C200.711 156.537 202.167 155.082 202.167 153.292C202.167 151.501 200.711 150.044 198.92 150.044C197.13 150.044 195.674 151.501 195.674 153.292C195.674 154.024 195.926 154.692 196.336 155.234L177.718 173.853L166.376 162.512L183.96 144.928L174 134.966L193.39 115.577L181.175 103.362C181.494 102.86 181.684 102.268 181.684 101.63C181.684 99.8397 180.23 98.3837 178.439 98.3837C176.648 98.3837 175.191 99.8397 175.191 101.63C175.191 103.421 176.648 104.877 178.439 104.877C179.11 104.877 179.734 104.672 180.25 104.322L191.504 115.577L172.115 134.966L182.075 144.928L125.908 201.093L116.651 191.834C116.747 191.529 116.814 191.209 116.814 190.872C116.814 189.082 115.356 187.626 113.567 187.626C111.776 187.626 110.319 189.082 110.319 190.872C110.319 192.662 111.776 194.12 113.567 194.12C114.522 194.12 115.374 193.697 115.968 193.037L124.966 202.036L110.81 216.194C111.383 216.254 111.963 216.297 112.54 216.348L154.243 174.645L167.791 188.193C167.552 188.644 167.404 189.149 167.404 189.694C167.404 191.484 168.86 192.94 170.651 192.94C172.442 192.94 173.899 191.484 173.899 189.694C173.899 187.904 172.442 186.448 170.651 186.448C169.891 186.448 169.199 186.721 168.644 187.161L155.186 173.702L165.434 163.454L177.718 175.738Z" fill="#FC9A00"/>
<path d="M78.6591 46.4301C79.7151 46.4301 80.5724 47.2888 80.5724 48.3435C80.5724 49.3981 79.7151 50.2568 78.6591 50.2568C77.6044 50.2568 76.7457 49.3981 76.7457 48.3435C76.7457 47.2888 77.6044 46.4301 78.6591 46.4301ZM71.6977 81.2088C72.7537 81.2088 73.6111 82.0675 73.6111 83.1221C73.6111 84.1768 72.7537 85.0355 71.6977 85.0355C70.6431 85.0355 69.7844 84.1768 69.7844 83.1221C69.7844 82.0675 70.6431 81.2088 71.6977 81.2088ZM81.3657 122.726C82.1217 122.726 82.7351 123.341 82.7351 124.097C82.7351 124.851 82.1217 125.466 81.3657 125.466C80.6111 125.466 79.9964 124.851 79.9964 124.097C79.9964 123.341 80.6111 122.726 81.3657 122.726ZM74.2777 146.119C75.0337 146.119 75.6471 146.734 75.6471 147.489C75.6471 148.245 75.0337 148.859 74.2777 148.859C73.5231 148.859 72.9084 148.245 72.9084 147.489C72.9084 146.734 73.5231 146.119 74.2777 146.119ZM61.9137 164.49C62.1671 164.051 62.6284 163.807 63.1031 163.807C63.3337 163.807 63.5697 163.866 63.7844 163.989C64.4377 164.367 64.6631 165.207 64.2857 165.861C63.9084 166.514 63.0724 166.739 62.4151 166.362C62.0991 166.178 61.8724 165.882 61.7777 165.53C61.6831 165.177 61.7311 164.807 61.9137 164.49ZM101.59 214.762C102.352 214.919 103.127 215.042 103.895 215.182L44.5764 155.863L48.8444 151.594L60.8911 163.641C60.8484 163.703 60.7977 163.758 60.7591 163.823C60.0151 165.114 60.4577 166.77 61.7484 167.515C62.1737 167.762 62.6377 167.877 63.0964 167.877C64.0311 167.877 64.9404 167.393 65.4404 166.527C66.1857 165.237 65.7417 163.581 64.4511 162.835C63.6391 162.366 62.6817 162.371 61.8964 162.761L54.2257 155.09L67.5097 141.805L71.9124 146.207C71.7044 146.591 71.5751 147.023 71.5751 147.489C71.5751 148.981 72.7884 150.193 74.2777 150.193C75.7684 150.193 76.9804 148.981 76.9804 147.489C76.9804 145.998 75.7684 144.786 74.2777 144.786C73.7377 144.786 73.2364 144.949 72.8137 145.223L67.5097 139.919L53.2831 154.147L44.1817 145.045L57.1177 132.11L45.6697 120.663L61.5337 104.799H71.0311V114.526L79.1137 122.607C78.8297 123.035 78.6631 123.545 78.6631 124.097C78.6631 125.587 79.8764 126.799 81.3657 126.799C82.8564 126.799 84.0684 125.587 84.0684 124.097C84.0684 122.605 82.8564 121.393 81.3657 121.393C80.9097 121.393 80.4871 121.517 80.1084 121.717L72.3644 113.974V103.466H61.9244V94.2981L70.2244 85.9981C70.6697 86.2275 71.1644 86.3688 71.6977 86.3688C73.4884 86.3688 74.9444 84.9115 74.9444 83.1221C74.9444 81.3315 73.4884 79.8755 71.6977 79.8755C69.9084 79.8755 68.4511 81.3315 68.4511 83.1221C68.4511 83.8941 68.7337 84.5955 69.1857 85.1528L60.5911 93.7461V103.857L56.4577 107.991L44.2911 95.8248L63.3191 76.7968L57.2111 70.6875L76.8577 51.0408C77.3737 51.3861 77.9924 51.5901 78.6591 51.5901C80.4497 51.5901 81.9057 50.1328 81.9057 48.3435C81.9057 46.5528 80.4497 45.0968 78.6591 45.0968C76.8697 45.0968 75.4124 46.5528 75.4124 48.3435C75.4124 48.9861 75.6057 49.5808 75.9284 50.0848L55.3257 70.6875L61.4337 76.7968L43.3484 94.8821L32.6884 84.2221C32.5031 84.6688 32.3351 85.1248 32.1564 85.5741L55.5151 108.934L43.7844 120.663L55.2324 132.11L31.7817 155.561C31.9564 156.013 32.1337 156.465 32.3151 156.913L43.2391 145.987L47.9017 150.651L42.6897 155.863L101.59 214.762Z" fill="#FC9A00"/>
<mask id="mask1_75_4300" style="mask-type:luminance" maskUnits="userSpaceOnUse" x="94" y="54" width="123" height="162">
<path d="M94.7705 54.6312H216.22V215.83H94.7705V54.6312Z" fill="white"/>
</mask>
<g mask="url(#mask1_75_4300)">
<mask id="mask2_75_4300" style="mask-type:luminance" maskUnits="userSpaceOnUse" x="94" y="54" width="123" height="162">
<path d="M134.132 215.831C177.529 209.89 211.664 174.88 216.221 131.055L137.995 54.631L131.567 66.1684L118.591 76.8204L120.827 65.1377L110.515 55.5444L103.849 62.9164L102.491 86.7577L99.0292 122.502L100.791 148.312L94.7705 156.906L101.887 168.704L99.0292 180.726L134.132 215.831Z" fill="white"/>
</mask>
<g mask="url(#mask2_75_4300)">
<mask id="mask3_75_4300" style="mask-type:luminance" maskUnits="userSpaceOnUse" x="-43906" y="-43244" width="87381" height="87381">
<path d="M-43905.4 -43243.4H43474.6V44136.6H-43905.4V-43243.4Z" fill="url(#paint0_linear_75_4300)"/>
</mask>
<g mask="url(#mask3_75_4300)">
<path d="M134.131 215.832C177.528 209.891 211.663 174.881 216.22 131.056L137.994 54.632L131.566 66.1694L118.59 76.8213L120.826 65.1387L110.514 55.5453L103.848 62.9174L102.49 86.7587L99.0282 122.503L100.79 148.313L94.7695 156.907L101.886 168.705L99.0282 180.727L134.131 215.832Z" fill="url(#paint1_linear_75_4300)"/>
</g>
</g>
</g>
<mask id="mask4_75_4300" style="mask-type:luminance" maskUnits="userSpaceOnUse" x="25" y="119" width="192" height="98">
<path d="M25.3389 119.007H216.744V216.744H25.3389V119.007Z" fill="white"/>
</mask>
<g mask="url(#mask4_75_4300)">
<g opacity="0.289993">
<path d="M121.042 212.674C68.8695 212.674 26.4775 170.92 25.3909 119.008C25.3762 119.686 25.3389 120.36 25.3389 121.041C25.3389 173.897 68.1869 216.745 121.042 216.745C173.898 216.745 216.744 173.897 216.744 121.041C216.744 120.36 216.707 119.686 216.692 119.008C215.607 170.92 173.215 212.674 121.042 212.674Z" fill="#FF9A00"/>
</g>
</g>
<path d="M121.042 26.9853C173.622 26.9853 216.279 69.3907 216.724 121.864C216.726 121.589 216.744 121.317 216.744 121.041C216.744 68.1867 173.898 25.3387 121.042 25.3387C68.1869 25.3387 25.3389 68.1867 25.3389 121.041C25.3389 121.317 25.3575 121.589 25.3602 121.864C25.8042 69.3907 68.4629 26.9853 121.042 26.9853Z" fill="#FFF133"/>
<path d="M127.958 155.194L110.514 155.103L110.691 129.747L128.135 129.838C135.124 129.887 140.771 135.613 140.722 142.605C140.674 149.597 134.947 155.243 127.958 155.194ZM128.424 88.2739C135.414 88.3219 141.06 94.0486 141.012 101.039C140.964 108.029 135.238 113.677 128.247 113.629L110.804 113.537L110.982 88.1819L128.424 88.2739ZM148.224 121.873C153.712 116.654 157.166 109.306 157.223 101.153C157.306 89.3379 150.244 79.1139 140.095 74.5712L140.15 66.8193C140.178 62.6873 136.851 59.3139 132.719 59.2859C128.587 59.2566 125.214 62.5832 125.186 66.7152L125.148 72.0392L112.582 71.9819L112.619 66.6579C112.648 62.5272 109.32 59.1526 105.19 59.1246C101.058 59.0952 97.6844 62.4219 97.6551 66.5539L97.6191 71.8779L93.5991 71.8499C89.1231 71.8192 85.4698 75.4219 85.4378 79.8979C85.4071 84.3752 89.0111 88.0286 93.4871 88.0606L94.7698 88.0699L94.3044 154.99L93.0204 154.982C88.5444 154.95 84.8898 158.554 84.8591 163.03C84.8271 167.506 88.4311 171.161 92.9071 171.191L96.9258 171.221L96.8964 175.446C96.8684 179.578 100.195 182.951 104.326 182.981C108.458 183.009 111.831 179.682 111.86 175.551L111.89 171.325L124.455 171.382L124.427 175.609C124.398 179.739 127.724 183.113 131.856 183.142C135.987 183.17 139.362 179.843 139.39 175.713L139.435 169.057C149.648 164.657 156.851 154.531 156.932 142.718C156.99 134.562 153.64 127.167 148.224 121.873Z" fill="#EB7500"/>
<path d="M127.958 148.922L110.514 148.831L110.691 123.475L128.135 123.566C135.124 123.615 140.771 129.34 140.722 136.332C140.674 143.323 134.947 148.97 127.958 148.922ZM128.424 82.0004C135.414 82.0497 141.06 87.7764 141.012 94.767C140.964 101.756 135.238 107.404 128.247 107.355L110.804 107.264L110.982 81.9097L128.424 82.0004ZM148.224 115.6C153.712 110.38 157.166 103.034 157.223 94.8804C157.306 83.0657 150.244 72.8417 140.095 68.299L140.15 60.547C140.178 56.415 136.851 53.0417 132.719 53.0124C128.587 52.9844 125.214 56.311 125.186 60.443L125.148 65.767L112.582 65.7097L112.619 60.3857C112.648 56.2537 109.32 52.8804 105.19 52.851C101.058 52.823 97.6844 56.1497 97.6551 60.2817L97.6191 65.6057L93.5991 65.5777C89.1231 65.5457 85.4698 69.1497 85.4378 73.6257C85.4071 78.103 89.0111 81.7564 93.4871 81.787L94.7698 81.7964L94.3044 148.718L93.0204 148.708C88.5444 148.676 84.8898 152.282 84.8591 156.758C84.8271 161.234 88.4311 164.888 92.9071 164.919L96.9258 164.948L96.8964 169.174C96.8684 173.306 100.195 176.679 104.326 176.708C108.458 176.736 111.831 173.41 111.86 169.279L111.89 165.052L124.455 165.108L124.427 169.336C124.398 173.467 127.724 176.839 131.856 176.87C135.987 176.898 139.362 173.571 139.39 169.44L139.435 162.784C149.648 158.384 156.851 148.259 156.932 136.446C156.99 128.29 153.64 120.895 148.224 115.6Z" fill="#FFFB00"/>
<path d="M127.958 148.311L110.514 148.222L110.691 122.864L128.135 122.955C135.124 123.006 140.771 128.731 140.722 135.723C140.674 142.714 134.947 148.36 127.958 148.311ZM128.424 81.3911C135.414 81.4391 141.06 87.1658 141.012 94.1564C140.964 101.147 135.238 106.794 128.247 106.746L110.804 106.654L110.982 81.3004L128.424 81.3911ZM148.224 114.991C153.712 109.771 157.166 102.423 157.223 94.2698C157.306 82.4551 150.244 72.2311 140.095 67.6898L140.15 59.9364C140.178 55.8058 136.851 52.4324 132.719 52.4031C128.587 52.3738 125.214 55.7004 125.186 59.8324L125.148 65.1564L112.582 65.0991L112.619 59.7764C112.648 55.6444 109.32 52.2711 105.19 52.2418C101.058 52.2124 97.6844 55.5391 97.6551 59.6724L97.6191 64.9951L93.5991 64.9671C89.1231 64.9364 85.4698 68.5391 85.4378 73.0164C85.4071 77.4924 89.0111 81.1471 93.4871 81.1778L94.7698 81.1871L94.3044 148.108L93.0204 148.099C88.5444 148.067 84.8898 151.672 84.8591 156.147C84.8271 160.623 88.4311 164.279 92.9071 164.31L96.9258 164.338L96.8964 168.563C96.8684 172.696 100.195 176.068 104.326 176.098C108.458 176.126 111.831 172.8 111.86 168.668L111.89 164.442L124.455 164.499L124.427 168.726C124.398 172.856 127.724 176.23 131.856 176.259C135.987 176.287 139.362 172.96 139.39 168.83L139.435 162.174C149.648 157.775 156.851 147.65 156.932 135.835C156.99 127.68 153.64 120.286 148.224 114.991Z" fill="#FFE200"/>
<path d="M96.9196 165.349L96.897 168.563C96.897 168.611 96.9023 168.657 96.9023 168.705L96.9263 165.349H96.9196Z" fill="#FFF700"/>
<path d="M140.095 68.7008C150.093 73.1755 157.079 83.1675 157.207 94.7568C157.211 94.5942 157.223 94.4328 157.224 94.2702C157.305 82.4582 150.248 72.2368 140.103 67.6928L140.095 68.7008Z" fill="#FFF700"/>
<path d="M127.958 149.323C134.947 149.372 140.674 143.725 140.722 136.735C140.723 136.539 140.706 136.351 140.698 136.157C140.418 142.945 134.801 148.359 127.958 148.311L110.522 148.221L110.514 149.232L127.958 149.323Z" fill="#FFF700"/>
<path d="M124.449 165.51L124.426 168.725C124.426 168.771 124.432 168.817 124.433 168.865L124.456 165.51H124.449Z" fill="#FFF700"/>
<path d="M128.247 107.757C135.238 107.806 140.964 102.158 141.012 95.1688C141.014 94.9741 140.995 94.7848 140.988 94.5928C140.708 101.378 135.091 106.793 128.247 106.745L110.811 106.654L110.804 107.666L128.247 107.757Z" fill="#FFF700"/>
<path d="M93.0211 149.111L94.3038 149.12L94.7705 82.1985H94.7638L94.3038 148.108L93.0211 148.099C88.5451 148.068 84.8905 151.672 84.8585 156.147C84.8571 156.343 84.8718 156.532 84.8838 156.724C85.1411 152.453 88.6918 149.081 93.0211 149.111Z" fill="#FFF700"/>
<path d="M112.583 66.1111L125.148 66.1685L125.187 60.8445C125.215 56.7125 128.587 53.3858 132.72 53.4151C136.805 53.4431 140.096 56.7418 140.143 60.8085L140.149 59.9365C140.179 55.8058 136.852 52.4325 132.72 52.4031C128.587 52.3738 125.215 55.7005 125.187 59.8325L125.148 65.1565L112.589 65.0991L112.583 66.1111Z" fill="#FFF700"/>
<path d="M148.225 116.001C153.482 121.142 156.784 128.264 156.92 136.138C156.921 136.036 156.933 135.937 156.933 135.834C156.988 127.937 153.842 120.758 148.724 115.504C148.557 115.669 148.396 115.84 148.225 116.001Z" fill="#FFF700"/>
<path d="M93.5999 65.979L97.6186 66.007L97.6559 60.683C97.6839 56.551 101.057 53.2243 105.189 53.2536C109.275 53.2816 112.567 56.5803 112.613 60.647L112.62 59.7763C112.648 55.6443 109.321 52.271 105.189 52.2416C101.057 52.2123 97.6839 55.539 97.6559 59.671L97.6186 64.995L93.5999 64.967C89.1239 64.9363 85.4692 68.539 85.4386 73.0163C85.4372 73.211 85.4519 73.4003 85.4626 73.5923C85.7212 69.3216 89.2706 65.9483 93.5999 65.979Z" fill="#FFF700"/>
<path d="M93.0212 148.099C88.5452 148.068 84.8905 151.672 84.8585 156.147C84.8572 156.404 84.8705 156.656 84.8918 156.905L93.6945 148.104L93.0212 148.099Z" fill="#FFF800"/>
<path d="M112.731 106.664L110.804 106.654L110.981 81.3004L128.424 81.3897C131.12 81.4097 133.613 82.279 135.66 83.735L147.185 72.2084C145.067 70.379 142.683 68.847 140.095 67.6897L140.149 59.9363C140.177 55.8043 136.851 52.4324 132.72 52.403C130.869 52.3897 129.192 53.075 127.879 54.179L126.968 55.0884C125.883 56.3777 125.197 58.0163 125.185 59.8323L125.148 65.1563L116.939 65.119L94.728 87.3297L94.4653 124.93L112.731 106.664Z" fill="#FFF800"/>
<path d="M127.958 148.311L110.514 148.22L110.536 145.046L91.4258 164.158C91.9058 164.25 92.4004 164.306 92.9071 164.31L96.9258 164.338L96.8964 168.563C96.8764 171.519 98.5871 174.062 101.067 175.295L111.89 164.472V164.442H111.92L128.055 148.307C128.022 148.307 127.99 148.312 127.958 148.311Z" fill="#FFF800"/>
<path d="M154.466 81.7675L140.947 95.2861C140.37 101.317 135.56 106.117 129.546 106.689L113.355 122.878L118.89 122.907L156.012 85.7861C155.596 84.3995 155.076 83.0581 154.466 81.7675Z" fill="#FFF800"/>
<path d="M148.225 114.991C152.677 110.756 155.753 105.111 156.799 98.7826L131.993 123.589C137.063 125.255 140.723 130.033 140.719 135.643L153.775 122.585C152.335 119.761 150.471 117.187 148.225 114.991Z" fill="#FFF800"/>
<path d="M110.634 131.164L110.673 125.561L94.3473 141.885L94.3086 147.489L110.634 131.164Z" fill="#FFF800"/>
<defs>
<linearGradient id="paint0_linear_75_4300" x1="75.3555" y1="73.6194" x2="171.483" y2="169.746" gradientUnits="userSpaceOnUse">
<stop stop-color="white"/>
<stop offset="0.99737" stop-color="white" stop-opacity="0"/>
<stop offset="1" stop-color="white" stop-opacity="0"/>
</linearGradient>
<linearGradient id="paint1_linear_75_4300" x1="75.3513" y1="73.6201" x2="171.478" y2="169.747" gradientUnits="userSpaceOnUse">
<stop stop-color="#FFBB00"/>
<stop offset="0.99737" stop-color="#FFBB00"/>
<stop offset="1" stop-color="#FFBB00"/>
</linearGradient>
</defs>
</svg>
