<svg width="634" height="175" viewBox="0 0 634 175" fill="none" xmlns="http://www.w3.org/2000/svg">
<path d="M562.471 49.5558L521.973 21.8077C521.973 21.8077 473.225 2.30876 449.977 0.0587565C426.728 -2.19124 354.477 60.8828 319.976 68.3818C274.277 78.3138 250.487 72.0548 250.487 72.0548C250.487 72.0548 191.245 59.3097 137.247 33.8117C112.751 22.2437 0 74.3048 0 74.3048L13.687 171.051L539.433 168.258L562.471 49.5558Z" fill="url(#paint0_linear_137_4387)"/>
<path d="M622.958 46.2142C622.958 46.2142 590.307 38.7042 550.615 38.2036C510.922 37.7029 508.575 27.157 443.278 40.6738C334.842 63.1215 251 72.4989 251 72.4989L450.743 116.307L630 122.815L622.958 46.2142Z" fill="url(#paint1_linear_137_4387)"/>
<path d="M215.969 66.4863L218.776 51.1113L221.582 66.4863H215.969Z" fill="#238471"/>
<path d="M194.818 60.0928L197.623 44.7178L200.43 60.0928H194.818Z" fill="#238471"/>
<path d="M243.022 73.8643L245.827 58.4893L248.634 73.8643H243.022Z" fill="#238471"/>
<path d="M220.396 67.963L223.202 45.292L226.009 67.963H220.396Z" fill="#238471"/>
<path d="M201.213 62.5529L204.019 39.8809L206.825 62.5529H201.213Z" fill="#238471"/>
<path d="M208.099 65.9942L210.905 43.3232L213.712 65.9942H208.099Z" fill="#238471"/>
<path d="M251.384 83.2111L254.191 60.54L256.996 83.2111H251.384Z" fill="#238471"/>
<path d="M179.569 63.0441L182.376 40.3721L185.183 63.0441H179.569Z" fill="#238471"/>
<path d="M154.484 61.5675L157.29 38.8965L160.097 61.5675H154.484Z" fill="#238471"/>
<path d="M150.058 63.0441L152.864 40.3721L155.671 63.0441H150.058Z" fill="#238471"/>
<path d="M165.405 61.5226L168.212 38.8516L171.019 61.5226H165.405Z" fill="#238471"/>
<path d="M263.29 92.0186L266.096 69.3486L268.902 92.0186H263.29Z" fill="#238471"/>
<path d="M278.046 97.922L280.853 75.251L283.658 97.922H278.046Z" fill="#238471"/>
<path d="M291.325 103.331L294.132 80.6602L296.938 103.331H291.325Z" fill="#238471"/>
<path d="M288.654 100.381L290.935 77.71L293.215 100.381H288.654Z" fill="#238471"/>
<path d="M229.532 73.2863L231.813 50.6143L234.093 73.2863H229.532Z" fill="#238471"/>
<path d="M226.188 78.2462L228.466 55.5742L230.747 78.2462H226.188Z" fill="#238471"/>
<path d="M236.334 78.7794L238.613 56.1074L240.894 78.7794H236.334Z" fill="#238471"/>
<path d="M186.065 58.5714L188.345 43.8154L190.625 58.5714H186.065Z" fill="#238471"/>
<path d="M170.683 58.0792L172.964 43.3232L175.244 58.0792H170.683Z" fill="#238471"/>
<path opacity="0.34" d="M349.974 95.3798C349.974 95.3798 225.481 75.1319 186.483 60.8819C147.485 46.6329 103.237 60.8829 74.7392 74.3819C46.2392 87.8809 25.2412 108.13 25.2412 108.13C25.2412 108.13 249.48 120.129 349.974 95.3798Z" fill="url(#paint2_linear_137_4387)"/>
<path d="M82.5518 110.166C82.5518 110.166 182.552 71.1656 381.552 95.1656C580.552 119.166 630.552 107.166 630.552 107.166L633.552 174.166L79.5518 162.166L82.5518 110.166Z" fill="url(#paint3_linear_137_4387)"/>
<path d="M148.125 131.5C148.163 131.275 148.188 131.047 148.188 130.81C148.188 128.602 146.398 126.812 144.19 126.812C143.64 126.812 143.117 126.923 142.64 127.125C142.308 123.243 139.058 120.195 135.091 120.195C134.295 120.195 133.528 120.32 132.808 120.547C133.121 119.659 133.299 118.708 133.299 117.714C133.299 112.994 129.472 109.167 124.751 109.167C120.638 109.167 117.205 112.074 116.39 115.944C115.083 115.312 113.618 114.957 112.069 114.957C106.63 114.957 102.215 119.332 102.146 124.755C101.701 124.66 101.239 124.608 100.764 124.608C97.1105 124.608 94.1475 127.57 94.1475 131.224C94.1475 131.318 94.1575 131.408 94.1615 131.5H148.125Z" fill="url(#paint4_linear_137_4387)"/>
<path d="M441.005 131.5C441.043 131.275 441.069 131.047 441.069 130.81C441.069 128.602 439.279 126.812 437.071 126.812C436.521 126.812 435.998 126.923 435.521 127.125C435.189 123.243 431.939 120.195 427.972 120.195C427.176 120.195 426.409 120.32 425.689 120.547C426.002 119.659 426.18 118.708 426.18 117.714C426.18 112.994 422.353 109.167 417.632 109.167C413.519 109.167 410.086 112.074 409.271 115.944C407.964 115.312 406.498 114.957 404.95 114.957C399.511 114.957 395.097 119.332 395.027 124.755C394.582 124.66 394.12 124.608 393.645 124.608C389.991 124.608 387.028 127.57 387.028 131.224C387.028 131.318 387.038 131.408 387.042 131.5H441.005Z" fill="url(#paint5_linear_137_4387)"/>
<path d="M352.641 132.119C352.665 131.974 352.682 131.828 352.682 131.677C352.682 130.26 351.533 129.111 350.116 129.111C349.763 129.111 349.427 129.183 349.122 129.311C348.909 126.821 346.823 124.865 344.277 124.865C343.766 124.865 343.274 124.944 342.811 125.091C343.012 124.521 343.126 123.91 343.126 123.273C343.126 120.244 340.67 117.788 337.641 117.788C335.001 117.788 332.797 119.653 332.275 122.138C331.436 121.733 330.496 121.504 329.502 121.504C326.011 121.504 323.178 124.312 323.134 127.792C322.848 127.732 322.551 127.697 322.247 127.697C319.901 127.697 318 129.598 318 131.943C318 132.004 318.006 132.061 318.009 132.121H352.641V132.119Z" fill="url(#paint6_linear_137_4387)"/>
<path d="M299.025 131.25C299.055 131.073 299.075 130.893 299.075 130.707C299.075 128.969 297.666 127.56 295.927 127.56C295.494 127.56 295.082 127.648 294.708 127.805C294.446 124.749 291.887 122.35 288.764 122.35C288.138 122.35 287.535 122.448 286.967 122.627C287.213 121.927 287.354 121.179 287.354 120.397C287.354 116.68 284.341 113.668 280.625 113.668C277.386 113.668 274.684 115.956 274.042 119.004C273.013 118.507 271.859 118.227 270.639 118.227C266.358 118.227 262.882 121.671 262.827 125.941C262.476 125.866 262.112 125.825 261.739 125.825C258.861 125.825 256.529 128.157 256.529 131.034C256.529 131.108 256.537 131.179 256.54 131.252H299.025V131.25Z" fill="url(#paint7_linear_137_4387)"/>
<path d="M485.5 48.7853L488.005 31.9453L490.512 48.7853H485.5Z" fill="#60C64A"/>
<path d="M475.348 48.2375L479.109 31.3975L482.869 48.2375H475.348Z" fill="#60C64A"/>
<path d="M465.463 52.3478L469.223 35.5068L472.983 52.3478H465.463Z" fill="#60C64A"/>
<path d="M459.532 47.1418L463.292 30.3008L467.052 47.1418H459.532Z" fill="#60C64A"/>
<path d="M470.077 44.674L473.836 27.834L477.597 44.674H470.077Z" fill="#60C64A"/>
<path d="M465.793 41.6603L469.553 24.8203L473.313 41.6603H465.793Z" fill="#60C64A"/>
<path d="M479.742 40.9299L483.501 24.0889L487.262 40.9299H479.742Z" fill="#60C64A"/>
<path d="M475.128 40.6564L478.889 23.8154L482.649 40.6564H475.128Z" fill="#60C64A"/>
<path d="M493.251 45.5871L497.012 28.7471L500.772 45.5871H493.251Z" fill="#60C64A"/>
<path d="M489.297 49.424L493.058 32.583L496.818 49.424H489.297Z" fill="#60C64A"/>
<path d="M481.086 53.2931L484.846 36.4541L488.606 53.2931H481.086Z" fill="#60C64A"/>
<path d="M454.375 49.6984L458.135 32.8584L461.895 49.6984H454.375Z" fill="#60C64A"/>
<path d="M449.432 51.8908L453.192 35.0508L456.953 51.8908H449.432Z" fill="#60C64A"/>
<path d="M441.195 54.0822L444.955 37.2422L448.714 54.0822H441.195Z" fill="#60C64A"/>
<path d="M445.678 56.673L449.438 39.832L453.198 56.673H445.678Z" fill="#60C64A"/>
<path d="M499.519 42.299L503.279 25.458L507.04 42.299H499.519Z" fill="#60C64A"/>
<path d="M498.86 51.6164L502.62 34.7764L506.38 51.6164H498.86Z" fill="#60C64A"/>
<path d="M504.461 48.3283L508.221 31.4883L511.982 48.3283H504.461Z" fill="#60C64A"/>
<path d="M508.416 46.6837L512.175 29.8438L515.936 46.6837H508.416Z" fill="#60C64A"/>
<path d="M486.668 44.7658L490.427 27.9258L494.188 44.7658H486.668Z" fill="#60C64A"/>
<path d="M495.894 40.9299L499.655 24.0889L503.415 40.9299H495.894Z" fill="#60C64A"/>
<path d="M513.688 48.8761L517.448 32.0352L521.208 48.8761H513.688Z" fill="#60C64A"/>
<path d="M430.321 56.2756L434.081 39.4346L437.84 56.2756H430.321Z" fill="#60C64A"/>
<path d="M416.151 57.9181L419.911 41.0791L423.671 57.9181H416.151Z" fill="#60C64A"/>
<path d="M436.582 46.2833L438.694 36.8223L440.806 46.2833H436.582Z" fill="#60C64A"/>
<path d="M426.696 49.8458L428.808 40.3838L430.921 49.8458H426.696Z" fill="#60C64A"/>
<path d="M407.914 50.6671L410.026 41.2051L412.138 50.6671H407.914Z" fill="#60C64A"/>
<path d="M517.642 40.8028L519.754 31.3418L521.868 40.8028H517.642Z" fill="#60C64A"/>
<path d="M513.029 38.8849L515.142 29.4229L517.254 38.8849H513.029Z" fill="#60C64A"/>
<path d="M496.224 56.422L498.336 46.96L500.449 56.422H496.224Z" fill="#60C64A"/>
<path d="M510.393 58.3399L512.505 48.8789L514.619 58.3399H510.393Z" fill="#60C64A"/>
<path d="M520.938 53.6817L523.05 44.2207L525.163 53.6817H520.938Z" fill="#60C64A"/>
<path d="M521.267 44.6397L523.379 35.1777L525.493 44.6397H521.267Z" fill="#60C64A"/>
<path d="M529.505 48.4757L531.617 39.0137L533.73 48.4757H529.505Z" fill="#60C64A"/>
<path d="M403.629 52.585L405.742 43.124L407.855 52.585H403.629Z" fill="#60C64A"/>
<path d="M392.096 53.6817L394.208 44.2207L396.322 53.6817H392.096Z" fill="#60C64A"/>
<path d="M383 53.4102L384.395 47.1592L385.791 53.4102H383Z" fill="#60C64A"/>
<defs>
<linearGradient id="paint0_linear_137_4387" x1="-0.0008" y1="85.5251" x2="562.471" y2="85.5251" gradientUnits="userSpaceOnUse">
<stop stop-color="#3D6159"/>
<stop offset="1" stop-color="#BAF05C"/>
</linearGradient>
<linearGradient id="paint1_linear_137_4387" x1="251" y1="78.3153" x2="630" y2="78.3153" gradientUnits="userSpaceOnUse">
<stop stop-color="#66BA59"/>
<stop offset="1" stop-color="#CCFF5C"/>
</linearGradient>
<linearGradient id="paint2_linear_137_4387" x1="186.962" y1="105.98" x2="194.893" y2="54.0744" gradientUnits="userSpaceOnUse">
<stop stop-color="#87A343"/>
<stop offset="1" stop-color="#BAFF5C"/>
</linearGradient>
<linearGradient id="paint3_linear_137_4387" x1="55.553" y1="130.763" x2="609.553" y2="130.763" gradientUnits="userSpaceOnUse">
<stop stop-color="#3D6159"/>
<stop offset="1" stop-color="#BAFF5C"/>
</linearGradient>
<linearGradient id="paint4_linear_137_4387" x1="94.1481" y1="120.333" x2="148.189" y2="120.333" gradientUnits="userSpaceOnUse">
<stop stop-color="#3D6159"/>
<stop offset="1" stop-color="#BAFF5C"/>
</linearGradient>
<linearGradient id="paint5_linear_137_4387" x1="387.028" y1="120.333" x2="441.069" y2="120.333" gradientUnits="userSpaceOnUse">
<stop stop-color="#3D6159"/>
<stop offset="1" stop-color="#BAFF5C"/>
</linearGradient>
<linearGradient id="paint6_linear_137_4387" x1="317.999" y1="124.953" x2="352.682" y2="124.953" gradientUnits="userSpaceOnUse">
<stop stop-color="#3D6159"/>
<stop offset="1" stop-color="#BAFF5C"/>
</linearGradient>
<linearGradient id="paint7_linear_137_4387" x1="256.528" y1="122.458" x2="299.075" y2="122.458" gradientUnits="userSpaceOnUse">
<stop stop-color="#3D6159"/>
<stop offset="1" stop-color="#BAFF5C"/>
</linearGradient>
</defs>
</svg>
