<svg width="41" height="16" viewBox="0 0 41 16" fill="none" xmlns="http://www.w3.org/2000/svg">
<path d="M0 12.796L9.221 7.241L19.492 9.33601L27.937 0L40.899 0.998001L27.494 3.89301L20.951 10.004L8.729 9.7L0 12.796Z" fill="white"/>
<path d="M38.2261 10.4794H19.2441V9.27344L38.2261 10.4794Z" fill="white"/>
<path d="M24.0805 10.4788L20.1775 12.4298L16.0315 11.6978L11.3975 12.6738L17.0065 9.25879L24.0805 10.4788Z" fill="white"/>
<path d="M35.6338 10.1582V10.5702L38.2258 10.4792L35.6338 10.1582Z" fill="#FF4343"/>
<path d="M16.6097 11.6211L8.46973 15.0971L16.9297 11.6211H16.6097Z" fill="#FF4343"/>
<path d="M17.2493 11.667L9.11133 15.143L17.5713 11.667H17.2493Z" fill="#FF4343"/>
<path d="M7.10799 10.2764L4.72 10.2044L5.225 9.65039L0 12.7964L7.10799 10.2764Z" fill="#C9C9C9"/>
<path d="M31.4893 3.02896L40.8993 0.997955L32.2953 0.334961L33.3473 1.42396L31.4893 3.02896Z" fill="#C9C9C9"/>
</svg>
