<svg width="32" height="11" viewBox="0 0 32 11" fill="none" xmlns="http://www.w3.org/2000/svg">
<path d="M0 9.084L7.1 4.807L15.007 6.42L20.858 1.826L31.488 0L22.108 3.826L16.13 6.935L6.721 6.701L0 9.084Z" fill="white"/>
<path d="M29.4314 7.30009H14.8154V6.37109L29.4314 7.30009Z" fill="white"/>
<path d="M18.5394 7.30032L15.5344 8.80233L12.3424 8.23933L8.77441 8.99033L13.0944 6.36133L18.5394 7.30032Z" fill="white"/>
<path d="M27.4346 7.05273V7.37074L29.4306 7.29973L27.4346 7.05273Z" fill="#FF4343"/>
<path d="M12.7885 8.17969L6.52148 10.8557L13.0355 8.17969H12.7885Z" fill="#FF4343"/>
<path d="M13.2807 8.21484L7.01367 10.8908L13.5267 8.21484H13.2807Z" fill="#FF4343"/>
<path d="M5.473 7.14311L3.634 7.08811L4.022 6.66211L0 9.08411L5.473 7.14311Z" fill="#C9C9C9"/>
<path d="M24.5869 3.05906L31.4089 0.164062L24.8069 0.906059L25.7599 1.57706L24.5869 3.05906Z" fill="#C9C9C9"/>
</svg>
