<svg width="140" height="140" viewBox="0 0 140 140" fill="none" xmlns="http://www.w3.org/2000/svg">
<path d="M1.26929 69.9867C1.26929 107.939 32.0347 138.704 69.9867 138.704C107.939 138.704 138.704 107.939 138.704 69.9867C138.704 32.0347 107.939 1.26941 69.9867 1.26941C32.0347 1.26941 1.26929 32.0347 1.26929 69.9867Z" fill="url(#paint0_linear_75_4170)"/>
<path d="M138.704 69.9868C138.704 107.939 107.939 138.704 69.9866 138.704C32.0346 138.704 1.26929 107.939 1.26929 69.9868C1.26929 32.0348 32.0346 1.26944 69.9866 1.26944C107.939 1.26944 138.704 32.0348 138.704 69.9868Z" stroke="#E5AE4C" stroke-width="2.53867" stroke-miterlimit="10"/>
<path d="M138.704 69.9868C138.704 107.939 107.939 138.704 69.9866 138.704C32.0346 138.704 1.26929 107.939 1.26929 69.9868C1.26929 32.0348 32.0346 1.26944 69.9866 1.26944C107.939 1.26944 138.704 32.0348 138.704 69.9868Z" stroke="#E5AE4C" stroke-width="2.53867" stroke-miterlimit="10"/>
<path d="M109.722 30.2502C131.669 52.1955 131.669 87.7768 109.723 109.722C87.7767 131.667 52.1953 131.667 30.25 109.722C8.30468 87.7768 8.30468 52.1955 30.25 30.2502C52.1953 8.30483 87.7767 8.30483 109.722 30.2502Z" fill="#F4D178"/>
<path d="M109.722 30.2502C131.669 52.1955 131.669 87.7768 109.723 109.722C87.7767 131.667 52.1953 131.667 30.25 109.722C8.30468 87.7768 8.30468 52.1955 30.25 30.2502C52.1953 8.30483 87.7767 8.30483 109.722 30.2502Z" stroke="#E5AE4C" stroke-width="2.53867" stroke-miterlimit="10"/>
<path d="M92.6284 39.8059H50.923L47.3457 46.0992H60.751C64.719 46.0992 70.063 49.9299 70.743 52.8032C71.0124 52.9392 51.4497 52.8032 51.4497 52.8032L47.3457 58.6859H71.8337C71.8337 58.6859 72.2444 72.3659 49.671 69.9032V76.4859L74.0644 104.665H84.147L59.6577 74.6912C59.6577 74.6912 77.8537 74.5552 80.863 58.8219C80.999 58.9592 88.6604 58.8219 88.6604 58.8219L92.6284 52.9392H80.863C80.863 52.9392 80.043 49.1086 77.4417 45.9619C77.4417 46.0992 88.6604 45.9619 88.6604 45.9619L92.6284 39.8059Z" fill="#E5AE4C"/>
<path d="M138.704 69.9868C138.704 107.939 107.939 138.704 69.9866 138.704C32.0346 138.704 1.26929 107.939 1.26929 69.9868C1.26929 32.0348 32.0346 1.26944 69.9866 1.26944C107.939 1.26944 138.704 32.0348 138.704 69.9868Z" stroke="#E5AE4C" stroke-width="1.26933" stroke-miterlimit="10"/>
<path d="M138.704 69.9868C138.704 107.939 107.939 138.704 69.9866 138.704C32.0346 138.704 1.26929 107.939 1.26929 69.9868C1.26929 32.0348 32.0346 1.26944 69.9866 1.26944C107.939 1.26944 138.704 32.0348 138.704 69.9868Z" stroke="#E5AE4C" stroke-width="2.53867" stroke-miterlimit="10"/>
<path d="M109.722 30.2502C131.669 52.1955 131.669 87.7768 109.724 109.722C87.7769 131.667 52.1956 131.667 30.2503 109.722C8.30493 87.7768 8.30493 52.1955 30.2503 30.2502C52.1956 8.30483 87.7769 8.30483 109.722 30.2502Z" fill="#F4D178"/>
<path d="M109.722 30.2502C131.669 52.1955 131.669 87.7768 109.724 109.722C87.7769 131.667 52.1956 131.667 30.2503 109.722C8.30493 87.7768 8.30493 52.1955 30.2503 30.2502C52.1956 8.30483 87.7769 8.30483 109.722 30.2502Z" stroke="#E5AE4C" stroke-width="2.53867" stroke-miterlimit="10"/>
<path d="M92.6281 39.8059H50.9228L47.3455 46.0992H60.7508C64.7188 46.0992 70.0628 49.9299 70.7428 52.8032C71.0121 52.9392 51.4495 52.8032 51.4495 52.8032L47.3455 58.6859H71.8335C71.8335 58.6859 72.2441 72.3659 49.6708 69.9032V76.4859L74.0641 104.665H84.1468L59.6575 74.6912C59.6575 74.6912 77.8535 74.5552 80.8628 58.8219C80.9988 58.9592 88.6601 58.8219 88.6601 58.8219L92.6281 52.9392H80.8628C80.8628 52.9392 80.0428 49.1086 77.4415 45.9619C77.4415 46.0992 88.6601 45.9619 88.6601 45.9619L92.6281 39.8059Z" fill="#E5AE4C"/>
<path d="M138.704 69.9868C138.704 107.939 107.939 138.704 69.9866 138.704C32.0346 138.704 1.26929 107.939 1.26929 69.9868C1.26929 32.0348 32.0346 1.26944 69.9866 1.26944C107.939 1.26944 138.704 32.0348 138.704 69.9868Z" stroke="#E5AE4C" stroke-width="1.26933" stroke-miterlimit="10"/>
<path d="M138.704 69.9868C138.704 107.939 107.939 138.704 69.9866 138.704C32.0346 138.704 1.26929 107.939 1.26929 69.9868C1.26929 32.0348 32.0346 1.26944 69.9866 1.26944C107.939 1.26944 138.704 32.0348 138.704 69.9868Z" stroke="#E5AE4C" stroke-width="2.53867" stroke-miterlimit="10"/>
<path d="M138.704 69.9868C138.704 107.939 107.939 138.704 69.9866 138.704C32.0346 138.704 1.26929 107.939 1.26929 69.9868C1.26929 32.0348 32.0346 1.26944 69.9866 1.26944C107.939 1.26944 138.704 32.0348 138.704 69.9868Z" stroke="#E5AE4C" stroke-width="2.53867" stroke-miterlimit="10"/>
<path d="M109.722 30.2502C131.669 52.1955 131.669 87.7768 109.723 109.722C87.7767 131.667 52.1953 131.667 30.25 109.722C8.30468 87.7768 8.30468 52.1955 30.25 30.2502C52.1953 8.30483 87.7767 8.30483 109.722 30.2502Z" fill="#F4D178"/>
<path d="M109.722 30.2502C131.669 52.1955 131.669 87.7768 109.723 109.722C87.7767 131.667 52.1953 131.667 30.25 109.722C8.30468 87.7768 8.30468 52.1955 30.25 30.2502C52.1953 8.30483 87.7767 8.30483 109.722 30.2502Z" stroke="#E5AE4C" stroke-width="2.53867" stroke-miterlimit="10"/>
<path d="M92.6284 39.8059H50.923L47.3457 46.0992H60.751C64.719 46.0992 70.063 49.9299 70.743 52.8032C71.0124 52.9392 51.4497 52.8032 51.4497 52.8032L47.3457 58.6859H71.8337C71.8337 58.6859 72.2444 72.3659 49.671 69.9032V76.4859L74.0644 104.665H84.147L59.6577 74.6912C59.6577 74.6912 77.8537 74.5552 80.863 58.8219C80.999 58.9592 88.6604 58.8219 88.6604 58.8219L92.6284 52.9392H80.863C80.863 52.9392 80.043 49.1086 77.4417 45.9619C77.4417 46.0992 88.6604 45.9619 88.6604 45.9619L92.6284 39.8059Z" fill="#E5AE4C"/>
<path d="M138.704 69.9868C138.704 107.939 107.939 138.704 69.9866 138.704C32.0346 138.704 1.26929 107.939 1.26929 69.9868C1.26929 32.0348 32.0346 1.26944 69.9866 1.26944C107.939 1.26944 138.704 32.0348 138.704 69.9868Z" stroke="#E5AE4C" stroke-width="1.26933" stroke-miterlimit="10"/>
<path d="M138.704 69.9868C138.704 107.939 107.939 138.704 69.9866 138.704C32.0346 138.704 1.26929 107.939 1.26929 69.9868C1.26929 32.0348 32.0346 1.26944 69.9866 1.26944C107.939 1.26944 138.704 32.0348 138.704 69.9868Z" stroke="#E5AE4C" stroke-width="2.53867" stroke-miterlimit="10"/>
<path d="M109.722 30.2502C131.669 52.1955 131.669 87.7768 109.724 109.722C87.7769 131.667 52.1956 131.667 30.2503 109.722C8.30493 87.7768 8.30493 52.1955 30.2503 30.2502C52.1956 8.30483 87.7769 8.30483 109.722 30.2502Z" fill="#F4D178"/>
<path d="M109.722 30.2502C131.669 52.1955 131.669 87.7768 109.724 109.722C87.7769 131.667 52.1956 131.667 30.2503 109.722C8.30493 87.7768 8.30493 52.1955 30.2503 30.2502C52.1956 8.30483 87.7769 8.30483 109.722 30.2502Z" stroke="#E5AE4C" stroke-width="2.53867" stroke-miterlimit="10"/>
<path d="M92.6281 39.8059H50.9228L47.3455 46.0992H60.7508C64.7188 46.0992 70.0628 49.9299 70.7428 52.8032C71.0121 52.9392 51.4495 52.8032 51.4495 52.8032L47.3455 58.6859H71.8335C71.8335 58.6859 72.2441 72.3659 49.6708 69.9032V76.4859L74.0641 104.665H84.1468L59.6575 74.6912C59.6575 74.6912 77.8535 74.5552 80.8628 58.8219C80.9988 58.9592 88.6601 58.8219 88.6601 58.8219L92.6281 52.9392H80.8628C80.8628 52.9392 80.0428 49.1086 77.4415 45.9619C77.4415 46.0992 88.6601 45.9619 88.6601 45.9619L92.6281 39.8059Z" fill="#E5AE4C"/>
<path d="M138.704 69.9868C138.704 107.939 107.939 138.704 69.9866 138.704C32.0346 138.704 1.26929 107.939 1.26929 69.9868C1.26929 32.0348 32.0346 1.26944 69.9866 1.26944C107.939 1.26944 138.704 32.0348 138.704 69.9868Z" stroke="#E5AE4C" stroke-width="1.26933" stroke-miterlimit="10"/>
<defs>
<linearGradient id="paint0_linear_75_4170" x1="1.26939" y1="69.9865" x2="138.704" y2="69.9865" gradientUnits="userSpaceOnUse">
<stop stop-color="#E8C256"/>
<stop offset="0.496194" stop-color="#FFEF8D"/>
<stop offset="1" stop-color="#E8C256"/>
</linearGradient>
</defs>
</svg>
