<svg width="585" height="431" viewBox="0 0 585 431" fill="none" xmlns="http://www.w3.org/2000/svg">
<path d="M467.091 246.623C477.499 246.932 495.573 248.069 521.307 250.022C547.276 251.986 561.029 263.682 562.584 285.11C564.344 306.533 564.753 324.541 563.819 339.129C563.15 353.681 550.79 361.871 526.713 363.687C502.829 365.519 466.006 368.34 416.256 372.151C366.597 375.89 305.884 380.584 234.112 386.221C162.528 391.848 118.37 393.797 101.634 392.072C85.1573 390.311 71.8865 383.816 61.822 372.592C51.8298 361.587 44.9112 343.041 41.0842 316.95C37.2754 291.021 33.2918 250.748 29.1334 196.146C25.3727 146.79 21.8411 94.0802 18.5385 38.0165C8.44381 41.2132 3.57426 49.4891 3.92381 62.839C7.69048 147.718 12.9096 221.075 19.5992 282.877L32.0804 405.68C31.6525 420.837 40.5238 428.296 58.6942 428.062L580.977 393.558C582.882 366.437 580.477 312.297 573.787 231.137C534.337 236.053 493.018 238.783 449.831 239.326C450.91 244.025 456.665 246.455 467.091 246.623Z" fill="#9066AE"/>
<path d="M527.464 193.766L521.076 184.582C520.413 177.453 525.927 173.596 537.625 173.018C549.316 172.445 555.59 176.778 556.458 186.033C556.922 191.041 556.97 194.045 556.603 195.039C555.626 199.368 551.818 201.753 545.176 202.194C538.999 202.6 533.093 199.789 527.464 193.766ZM469.12 186.855C474.158 186.52 478.527 187.692 482.228 190.351C486.199 193.39 488.375 196.927 488.748 200.976C489.146 205.218 487.646 208.902 484.253 212.038C481.107 215.346 477.015 217.168 471.976 217.503C466.944 217.832 462.448 216.579 458.501 213.738C454.794 211.074 452.751 207.618 452.347 203.381C451.974 199.337 453.348 195.562 456.482 192.056C459.869 188.92 464.081 187.19 469.12 186.855ZM442.247 239.539C444.826 239.519 447.357 239.443 449.828 239.326C493.015 238.783 534.34 236.053 573.791 231.137C575.105 230.929 576.352 230.751 577.539 230.599C581.553 209.389 579.42 186.551 571.151 162.078L567.722 162.306L435.858 171.019C432.273 194.329 434.406 217.173 442.247 239.539Z" fill="#A34ADF"/>
<path d="M544.013 203.25C537.884 203.245 532.002 200.267 526.517 194.396L520.033 185.095C519.569 181.396 520.491 178.707 522.606 176.662C525.438 173.927 530.471 172.354 537.552 172.009C538.257 171.973 538.95 171.953 539.619 171.953C550.714 171.953 556.789 176.662 557.657 185.953C558.29 192.792 558.043 194.563 557.747 195.34C556.699 200.043 552.486 202.722 545.272 203.205C544.85 203.235 544.428 203.25 544.013 203.25ZM497.601 40.5595C491.074 40.5595 485.458 41.7722 480.901 44.157C474.658 47.3232 471.904 51.7681 472.464 57.7708L486.44 79.1226C497.475 92.6958 508.299 99.6169 518.538 99.6169C519.044 99.6169 519.556 99.6016 520.063 99.5661C529.139 98.9674 534.593 93.6294 536.714 83.2377C537.636 78.6152 537.769 72.6227 537.1 65.4276C535.714 50.6315 524.438 42.5688 502.628 40.7776C500.892 40.6305 499.21 40.5595 497.601 40.5595ZM523.444 107.04C521.678 107.04 520.364 107.456 519.424 108.314C517.881 109.714 517.278 112.358 517.634 116.163L519.568 122.252C521.497 125.287 524.583 126.865 528.922 126.865C529.338 126.865 529.766 126.85 530.206 126.819C532.586 126.667 534.346 125.825 535.575 124.247C536.69 122.958 537.136 121.527 536.986 119.832C536.329 112.738 532.713 108.634 525.945 107.274C525.059 107.121 524.209 107.04 523.444 107.04ZM117.957 393.691C110.985 393.691 105.446 393.488 101.486 393.077C84.7504 391.296 71.082 384.603 60.8607 373.202C50.7781 362.105 43.7209 343.219 39.8939 317.077C36.0971 291.25 32.0774 250.586 27.931 196.212C24.1824 147.075 20.6207 93.8679 17.3301 38.0681L17.2939 37.3323L18.1076 37.0685C21.2113 36.0841 24.7851 35.5412 28.7326 35.46L544.133 1.40269L544.332 2.29571C554.059 46.004 562.334 99.8046 568.921 162.216L569.023 163.236L436.925 171.963C433.598 194.497 435.683 216.879 443.15 238.51C445.392 238.485 447.598 238.419 449.762 238.317L450.81 238.267L451.009 239.134C451.967 243.28 457.385 245.451 467.112 245.609C477.484 245.918 495.745 247.065 521.413 249.013C547.936 251.023 562.201 263.145 563.78 285.05C565.534 306.407 565.956 324.628 565.016 339.185C564.335 354.25 551.48 362.836 526.819 364.698L416.368 373.161C366.702 376.906 305.995 381.595 234.224 387.237C179.676 391.519 140.551 393.691 117.957 393.691Z" fill="#BB7DE7"/>
<path d="M482.229 190.35C478.528 187.692 474.159 186.52 469.121 186.854C464.082 187.189 459.87 188.92 456.483 192.055C453.349 195.556 451.969 199.337 452.349 203.376C452.746 207.618 454.795 211.073 458.496 213.732C462.449 216.578 466.945 217.832 471.977 217.502C477.016 217.167 481.102 215.345 484.254 212.032C487.641 208.901 489.141 205.218 488.75 200.976C488.376 196.926 486.2 193.39 482.229 190.35Z" fill="#573A77"/>
<path d="M516.435 116.241L518.405 122.508C520.84 126.425 524.812 128.196 530.302 127.83C533.05 127.653 535.141 126.643 536.582 124.801C537.829 123.36 538.366 121.675 538.185 119.747C537.486 112.233 533.496 107.742 526.222 106.286C518.96 105.022 515.699 108.336 516.435 116.241ZM537.908 83.4066C538.848 78.6928 538.98 72.6698 538.299 65.3479C536.877 50.1206 525.029 41.5961 502.748 39.7694C493.696 39.0083 486.199 40.1855 480.268 43.2908C473.669 46.6347 470.668 51.4855 471.265 57.8484L485.385 79.6061C497.348 94.3312 508.943 101.323 520.159 100.577C529.778 99.9431 535.69 94.2195 537.908 83.4066Z" fill="#B068DF"/>
<path d="M485.8 201.208C486.27 216.522 459.927 220.251 455.594 204.927C450.677 187.538 482.986 183.555 485.8 201.208C486.306 204.364 492.236 203.999 491.718 200.751C488.072 177.852 448.917 180.399 449.405 203.618C449.616 213.751 461.332 220.231 472.348 219.992C484.197 219.729 492.001 209.93 491.718 200.751C491.622 197.56 485.698 197.961 485.8 201.208Z" fill="#573A77"/>
<path d="M449.676 236.979C437.816 237.106 437.767 206.773 437.273 198.548C437.189 197 438.973 173.329 436.315 173.502C437.309 173.441 438.304 173.375 439.292 173.309C453.358 172.38 467.425 171.447 481.491 170.518C510.353 168.61 539.214 166.702 568.082 164.795C569.727 164.688 570.836 163.425 570.692 162.08C564.99 108.574 557.77 55.1079 546.121 2.26627C545.82 0.911484 544.506 -0.103334 542.806 0.00829632C392.911 9.91293 243.01 19.8226 93.1144 29.7273C68.7967 31.3358 41.1825 30.2448 17.4676 35.6843C13.7431 36.5418 16.0393 41.21 19.6493 40.3829C38.0186 36.1663 59.3228 36.9782 78.0959 35.7401C118.505 33.066 158.908 30.3971 199.31 27.7281C291.789 21.6189 384.263 15.5046 476.742 9.39029C496.594 8.08118 516.446 6.77207 536.297 5.45788C538.208 5.33103 540.13 5.20417 542.047 5.07732C542.463 5.05195 542.885 5.0215 543.3 4.99105C538.979 5.28027 541.981 10.9227 542.481 13.2872C548.061 39.6218 552.389 66.1491 556.203 92.7019C558.379 107.878 560.29 123.075 562.073 138.282C562.423 141.225 562.194 160.167 567.293 159.832C566.298 159.898 565.304 159.959 564.309 160.025C550.243 160.959 536.183 161.887 522.117 162.816C493.249 164.724 464.387 166.631 435.52 168.539C434.23 168.626 433.073 169.514 432.922 170.615C429.668 194.295 431.837 217.433 439.485 240.394C439.865 241.525 441.353 242.038 442.613 242.027C445.204 242.007 447.796 241.982 450.381 241.951C454.268 241.911 453.437 236.938 449.676 236.979Z" fill="#573A77"/>
<path d="M573.624 228.645C532.535 233.643 491.186 236.276 449.68 236.982C445.793 237.048 446.618 242.02 450.385 241.954C491.885 241.244 533.234 238.621 574.329 233.617C578.162 233.156 577.379 228.188 573.624 228.645Z" fill="#573A77"/>
<path d="M577.201 228.115C576.008 228.277 574.814 228.45 573.621 228.643C569.842 229.267 570.602 234.224 574.326 233.62C575.519 233.422 576.707 233.25 577.906 233.087C581.721 232.575 580.949 227.613 577.201 228.115Z" fill="#573A77"/>
<path d="M568.385 162.934C575.55 185.058 578.479 207.389 574.598 230.192C574.062 233.332 579.962 234.236 580.51 231.014C584.53 207.358 581.372 184.195 573.941 161.23C572.935 158.129 567.372 159.804 568.385 162.934Z" fill="#573A77"/>
<path d="M568.085 164.798C569.224 164.717 570.369 164.646 571.514 164.57C575.39 164.311 574.588 159.348 570.809 159.597C569.67 159.673 568.525 159.749 567.38 159.825C563.505 160.079 564.313 165.046 568.085 164.798Z" fill="#573A77"/>
<path d="M571.015 231.36C573.781 265.711 576.288 300.083 577.777 334.491C578.271 345.994 578.596 357.491 578.675 369.005C578.699 374.003 578.639 379.006 578.494 384.004C578.398 387.454 576.626 391.341 580.435 391.087C561.884 392.32 543.334 393.543 524.784 394.766C434.065 400.763 343.358 406.756 252.644 412.753C188.37 417 124.095 421.247 59.8149 425.494C38.1249 426.925 35.8348 413.073 34.4306 399.18C32.6889 382.07 30.9472 364.961 29.2115 347.846C25.4569 310.947 21.431 274.048 18.1043 237.119C15.3079 205.994 13.0901 174.834 11.1616 143.664C10.0949 126.483 9.16076 109.292 8.29292 92.1061C7.53958 77.1172 -0.771175 48.2811 19.6472 40.3807C23.1366 39.031 20.8947 34.3628 17.4655 35.6872C7.44318 39.5638 3.27874 46.0688 1.40445 55.0449C-2.30798 72.8093 2.40485 93.7349 3.36912 111.682C5.32779 148.327 7.7686 184.952 10.8 221.536C14.0243 260.47 18.3092 299.337 22.2627 338.225C24.1551 356.847 26.0475 375.474 27.9459 394.101C29.1211 405.695 27.6325 419.289 40.0414 426.844C53.0108 434.75 80.86 429.122 95.2939 428.169C254.681 417.635 414.062 407.101 573.444 396.572C576.083 396.395 578.711 396.222 581.351 396.049C582.586 395.963 583.882 395.07 583.948 393.974C587.498 339.864 581.278 284.841 576.933 230.903C576.674 227.716 570.75 228.107 571.015 231.36Z" fill="#573A77"/>
<path d="M514.958 15.1119C514.017 15.183 513.246 15.5229 512.631 16.1369C512.011 16.7407 511.727 17.4359 511.794 18.2274C511.872 19.0241 512.282 19.6685 513.011 20.186C513.728 20.7137 514.56 20.9471 515.494 20.8964L522.021 20.4651C522.961 20.3941 523.733 20.0541 524.347 19.4401C524.968 18.8312 525.251 18.1361 525.185 17.3394C525.107 16.553 524.697 15.8984 523.968 15.391C523.25 14.8582 522.419 14.6248 521.479 14.6806L514.958 15.1119ZM496.835 17.1821C496.124 16.6544 495.293 16.416 494.352 16.4769L480.618 17.38C479.678 17.4511 478.906 17.7911 478.297 18.405C477.671 19.0088 477.393 19.704 477.454 20.5006C477.538 21.2922 477.942 21.9417 478.671 22.4541C479.388 22.9818 480.214 23.2203 481.16 23.1645L494.895 22.2512C495.829 22.1903 496.606 21.8402 497.215 21.2262C497.842 20.6275 498.125 19.9272 498.053 19.1357C497.974 18.3492 497.571 17.6946 496.835 17.1821ZM446.278 19.6532C445.338 19.7192 444.566 20.0643 443.957 20.6782C443.331 21.277 443.047 21.9772 443.114 22.7687C443.198 23.5552 443.602 24.2098 444.331 24.7273C445.048 25.25 445.88 25.4884 446.814 25.4276L460.555 24.5193C461.495 24.4533 462.266 24.1083 462.875 23.4943C463.502 22.8956 463.785 22.1954 463.719 21.4038C463.635 20.6173 463.231 19.9627 462.502 19.4452C461.784 18.9226 460.953 18.6841 460.019 18.7399L446.278 19.6532ZM411.938 21.9163C411.004 21.9822 410.226 22.3273 409.618 22.9463C408.991 23.5451 408.714 24.2453 408.78 25.0369C408.864 25.8234 409.268 26.4779 409.997 26.9904C410.714 27.5181 411.54 27.7566 412.48 27.6957L426.215 26.7925C427.155 26.7215 427.933 26.3815 428.541 25.7675C429.168 25.1586 429.451 24.4685 429.385 23.6719C429.301 22.8804 428.897 22.2309 428.162 21.7184C427.444 21.1907 426.619 20.9522 425.679 21.008L411.938 21.9163ZM393.822 23.9865C393.104 23.4639 392.285 23.2254 391.339 23.2762L377.604 24.1844C376.664 24.2555 375.892 24.5954 375.278 25.2094C374.657 25.8132 374.374 26.5134 374.44 27.305C374.518 28.0965 374.928 28.7511 375.663 29.2585C376.374 29.7913 377.206 30.0196 378.146 29.9689L391.875 29.0606C392.815 28.9896 393.587 28.6496 394.201 28.0356C394.828 27.4318 395.105 26.7367 395.045 25.9451C394.961 25.1536 394.551 24.5041 393.822 23.9865ZM343.27 26.4525C342.324 26.5236 341.552 26.8635 340.944 27.4826C340.311 28.0864 340.04 28.7815 340.1 29.5731C340.184 30.3647 340.588 31.0192 341.317 31.5266C342.041 32.0594 342.86 32.2928 343.806 32.237L357.541 31.3287C358.475 31.2628 359.253 30.9177 359.867 30.3038C360.488 29.6999 360.771 29.0048 360.705 28.2133C360.627 27.4217 360.217 26.7722 359.488 26.2546C358.771 25.732 357.939 25.4935 356.999 25.5493L343.27 26.4525ZM325.148 28.5278C324.431 28.0001 323.605 27.7616 322.665 27.8175L308.924 28.7257C307.99 28.7917 307.212 29.1367 306.604 29.7507C305.977 30.3545 305.694 31.0547 305.766 31.8412C305.844 32.6328 306.248 33.2873 306.983 33.7998C307.695 34.3275 308.526 34.5609 309.466 34.5051L323.201 33.6019C324.141 33.5309 324.919 33.1909 325.521 32.5719C326.154 31.9681 326.431 31.2729 326.365 30.4814C326.281 29.6898 325.877 29.0403 325.148 28.5278ZM288.325 30.0856L274.59 30.9938C273.65 31.0649 272.878 31.4049 272.264 32.0188C271.643 32.6226 271.36 33.3178 271.426 34.1093C271.504 34.9009 271.914 35.5504 272.643 36.0679C273.361 36.5906 274.186 36.829 275.126 36.7783L288.861 35.87C289.807 35.799 290.579 35.4591 291.187 34.8451C291.814 34.2413 292.098 33.541 292.031 32.7546C291.947 31.9579 291.543 31.3034 290.814 30.7959C290.091 30.2632 289.265 30.0298 288.325 30.0856ZM240.25 33.262C239.316 33.333 238.539 33.673 237.93 34.2869C237.303 34.8908 237.02 35.5859 237.092 36.3775C237.164 37.1741 237.58 37.8236 238.31 38.3361C239.021 38.8638 239.852 39.1022 240.792 39.0464L254.527 38.1382C255.461 38.0672 256.239 37.7272 256.848 37.1132C257.474 36.5094 257.752 35.8092 257.691 35.0176C257.607 34.2311 257.197 33.5766 256.468 33.0641C255.757 32.5364 254.931 32.3029 253.985 32.3537L240.25 33.262ZM222.514 39.3762C223.134 38.7775 223.418 38.0773 223.351 37.2857C223.273 36.4992 222.863 35.8447 222.134 35.3322C221.417 34.8045 220.585 34.5711 219.651 34.6269L205.916 35.5301C204.97 35.6011 204.205 35.9411 203.59 36.5601C202.963 37.1639 202.686 37.854 202.746 38.6507C202.831 39.4422 203.234 40.0917 203.964 40.6042C204.687 41.1319 205.512 41.3704 206.453 41.3146L220.187 40.4063C221.127 40.3403 221.899 39.9953 222.514 39.3762ZM171.57 37.8033C170.636 37.8693 169.859 38.2143 169.256 38.8282C168.623 39.427 168.34 40.1272 168.412 40.9188C168.497 41.7103 168.9 42.3598 169.63 42.8774C170.341 43.4 171.172 43.6385 172.113 43.5827L185.853 42.6744C186.788 42.6085 187.565 42.2685 188.168 41.6444C188.8 41.0456 189.084 40.3505 189.011 39.5539C188.927 38.7674 188.523 38.1128 187.794 37.6054C187.083 37.0726 186.251 36.8341 185.311 36.895L171.57 37.8033ZM153.834 43.9176C154.46 43.3188 154.738 42.6186 154.677 41.827C154.593 41.0355 154.189 40.3809 153.46 39.8684C152.737 39.3407 151.911 39.1073 150.971 39.1581L137.236 40.0714C136.296 40.1424 135.525 40.4824 134.91 41.0964C134.289 41.6951 134.006 42.3953 134.072 43.1869C134.151 43.9734 134.56 44.6279 135.29 45.1455C136.007 45.6681 136.838 45.9066 137.773 45.8508L151.507 44.9425C152.454 44.8715 153.225 44.5316 153.834 43.9176ZM116.631 41.4313L102.896 42.3344C101.962 42.4055 101.185 42.7455 100.576 43.3645C99.9492 43.9683 99.672 44.6634 99.7383 45.455C99.8166 46.2466 100.226 46.9011 100.956 47.4085C101.673 47.9413 102.499 48.1798 103.439 48.1189L117.173 47.2106C118.108 47.1396 118.885 46.7997 119.494 46.1857C120.12 45.5819 120.404 44.8867 120.337 44.0952C120.259 43.3036 119.849 42.6541 119.114 42.1366C118.403 41.6139 117.571 41.3754 116.631 41.4313ZM85.1598 48.4538C85.7805 47.85 86.0638 47.1548 85.9975 46.3633C85.9192 45.5717 85.5094 44.9222 84.7801 44.4047C84.063 43.882 83.2373 43.6436 82.2971 43.6994L68.5624 44.6026C67.6162 44.6736 66.8508 45.0187 66.2361 45.6326C65.6093 46.2364 65.3321 46.9316 65.3923 47.7282C65.4767 48.5147 65.8805 49.1692 66.6097 49.6767C67.3329 50.2094 68.1586 50.4428 69.1047 50.387L82.8335 49.4788C83.7737 49.4128 84.5451 49.0678 85.1598 48.4538ZM274.584 401.586L288.325 400.677C289.259 400.611 290.036 400.266 290.639 399.652C291.272 399.049 291.549 398.348 291.483 397.562C291.398 396.77 290.995 396.121 290.265 395.603C289.548 395.081 288.723 394.842 287.782 394.898L274.042 395.801C273.107 395.872 272.33 396.212 271.727 396.831C271.095 397.435 270.811 398.13 270.878 398.922C270.962 399.713 271.366 400.368 272.101 400.875C272.812 401.408 273.644 401.641 274.584 401.586ZM257.149 399.83C257.064 399.038 256.661 398.384 255.931 397.876C255.208 397.344 254.383 397.11 253.442 397.166L239.708 398.074C238.768 398.14 237.996 398.485 237.381 399.099C236.761 399.703 236.477 400.403 236.544 401.19C236.622 401.981 237.032 402.631 237.761 403.148C238.478 403.676 239.31 403.909 240.244 403.854L253.979 402.95C254.925 402.879 255.69 402.539 256.305 401.92C256.932 401.317 257.209 400.621 257.149 399.83ZM324.605 393.335C323.888 392.812 323.056 392.574 322.116 392.625L308.388 393.533C307.441 393.604 306.67 393.944 306.061 394.558C305.435 395.162 305.151 395.862 305.218 396.654C305.302 397.445 305.706 398.1 306.435 398.607C307.158 399.14 307.978 399.368 308.918 399.317L322.659 398.409C323.599 398.338 324.37 397.998 324.985 397.384C325.606 396.78 325.889 396.085 325.823 395.294C325.744 394.502 325.335 393.853 324.605 393.335ZM358.939 391.067C358.222 390.539 357.396 390.301 356.456 390.357L342.722 391.265C341.787 391.336 341.01 391.676 340.395 392.29C339.774 392.894 339.491 393.594 339.558 394.385C339.636 395.172 340.046 395.826 340.775 396.339C341.492 396.867 342.318 397.1 343.264 397.044L356.993 396.141C357.933 396.07 358.71 395.73 359.319 395.116C359.946 394.507 360.223 393.817 360.157 393.026C360.078 392.229 359.669 391.579 358.939 391.067ZM393.279 388.799C392.562 388.271 391.736 388.033 390.79 388.088L377.061 389.002C376.121 389.063 375.344 389.408 374.735 390.027C374.108 390.625 373.831 391.326 373.897 392.117C373.976 392.904 374.386 393.558 375.115 394.071C375.832 394.598 376.658 394.837 377.598 394.776L391.333 393.873C392.273 393.802 393.044 393.457 393.659 392.843C394.286 392.244 394.563 391.549 394.503 390.752C394.418 389.961 394.014 389.311 393.279 388.799ZM134.747 409.953C135.458 410.48 136.29 410.719 137.23 410.663L150.971 409.75C151.905 409.689 152.683 409.344 153.285 408.725C153.918 408.126 154.201 407.426 154.129 406.634C154.051 405.848 153.641 405.193 152.912 404.681C152.2 404.153 151.369 403.915 150.429 403.975L136.688 404.879C135.754 404.95 134.976 405.29 134.374 405.909C133.741 406.512 133.464 407.203 133.53 407.999C133.614 408.791 134.018 409.44 134.747 409.953ZM118.951 410.998C119.578 410.394 119.855 409.699 119.795 408.902C119.711 408.116 119.307 407.461 118.578 406.949C117.854 406.421 117.029 406.183 116.089 406.244L102.354 407.152C101.414 407.213 100.642 407.563 100.028 408.177C99.4069 408.776 99.1236 409.476 99.1899 410.267C99.2682 411.054 99.678 411.708 100.407 412.226C101.124 412.749 101.956 412.987 102.896 412.931L116.625 412.023C117.571 411.952 118.337 411.612 118.951 410.998ZM169.081 407.685C169.804 408.212 170.63 408.451 171.564 408.395L185.305 407.487C186.245 407.416 187.017 407.076 187.631 406.457C188.252 405.858 188.535 405.158 188.469 404.366C188.385 403.58 187.981 402.925 187.252 402.413C186.534 401.885 185.703 401.646 184.769 401.702L171.034 402.61C170.088 402.682 169.316 403.022 168.708 403.635C168.081 404.239 167.797 404.934 167.864 405.726C167.948 406.523 168.352 407.172 169.081 407.685ZM219.103 399.434L205.368 400.342C204.434 400.413 203.656 400.753 203.047 401.367C202.421 401.971 202.137 402.666 202.204 403.458C202.288 404.249 202.698 404.899 203.427 405.416C204.138 405.939 204.964 406.178 205.91 406.127L219.645 405.219C220.579 405.148 221.356 404.808 221.965 404.194C222.592 403.59 222.869 402.89 222.803 402.098C222.725 401.306 222.315 400.652 221.585 400.145C220.874 399.612 220.043 399.378 219.103 399.434ZM555.812 383.004C556.759 382.933 557.524 382.593 558.139 381.979C558.766 381.375 559.043 380.675 558.982 379.889C558.898 379.092 558.494 378.443 557.759 377.93C557.042 377.402 556.216 377.169 555.27 377.22L548.749 377.651C547.809 377.722 547.038 378.062 546.429 378.676C545.802 379.285 545.519 379.98 545.585 380.767C545.67 381.563 546.073 382.213 546.803 382.725C547.52 383.253 548.351 383.491 549.286 383.435L555.812 383.004ZM425.673 391.6C426.613 391.534 427.384 391.189 427.993 390.575C428.62 389.976 428.903 389.276 428.837 388.484C428.752 387.698 428.348 387.043 427.619 386.526C426.902 386.003 426.076 385.764 425.136 385.82L411.395 386.729C410.455 386.8 409.684 387.14 409.075 387.754C408.448 388.357 408.165 389.053 408.231 389.849C408.316 390.636 408.72 391.29 409.449 391.803C410.166 392.33 410.998 392.569 411.938 392.508L425.673 391.6ZM461.953 384.263C461.242 383.73 460.41 383.496 459.47 383.552L445.735 384.46C444.795 384.532 444.018 384.871 443.415 385.485C442.782 386.084 442.511 386.784 442.571 387.576C442.656 388.368 443.06 389.017 443.789 389.535C444.512 390.062 445.332 390.296 446.278 390.245L460.013 389.332C460.947 389.266 461.724 388.926 462.333 388.307C462.96 387.708 463.243 387.008 463.177 386.216C463.098 385.425 462.688 384.775 461.953 384.263ZM496.293 381.994C495.576 381.462 494.744 381.228 493.81 381.284L480.075 382.192C479.135 382.258 478.364 382.603 477.749 383.217C477.128 383.821 476.845 384.516 476.911 385.308C476.99 386.099 477.399 386.749 478.129 387.266C478.846 387.789 479.678 388.028 480.612 387.972L494.346 387.069C495.287 386.998 496.058 386.658 496.673 386.038C497.294 385.435 497.577 384.74 497.51 383.943C497.432 383.156 497.022 382.502 496.293 381.994ZM530.633 379.721C529.916 379.194 529.09 378.96 528.144 379.016L514.409 379.919C513.475 379.99 512.698 380.335 512.089 380.949C511.462 381.553 511.179 382.243 511.251 383.04C511.33 383.831 511.739 384.481 512.469 384.993C513.18 385.521 514.011 385.759 514.952 385.704L528.686 384.795C529.627 384.729 530.404 384.384 531.007 383.77C531.639 383.167 531.917 382.466 531.85 381.675C531.766 380.888 531.368 380.234 530.633 379.721ZM50.4402 46.6779C49.729 46.1502 48.8974 45.9117 47.9572 45.9675L34.2224 46.8758C33.2823 46.9417 32.5048 47.2868 31.9021 47.9007C31.2693 48.5045 30.9921 49.2048 31.0584 49.9963C31.1428 50.7828 31.5465 51.4374 32.2758 51.9499C32.9929 52.4776 33.8186 52.711 34.7588 52.6552L48.4996 51.752C49.4337 51.6809 50.2112 51.341 50.8199 50.727C51.4466 50.1181 51.7299 49.428 51.6636 48.6314C51.5792 47.8398 51.1754 47.1904 50.4402 46.6779ZM68.0199 409.42C67.0798 409.486 66.3024 409.826 65.6937 410.445C65.0669 411.044 64.7897 411.744 64.85 412.535C64.9343 413.322 65.3441 413.976 66.0733 414.489C66.7905 415.017 67.6102 415.255 68.5563 415.199L82.2911 414.291C83.2253 414.22 84.0027 413.88 84.6174 413.266C85.2382 412.667 85.5214 411.967 85.4491 411.176C85.3768 410.379 84.9669 409.729 84.2317 409.217C83.5205 408.689 82.6889 408.456 81.7487 408.507L68.0199 409.42Z" fill="#573A77"/>
<path d="M568.385 162.934C575.55 185.058 578.479 207.389 574.598 230.192C574.062 233.332 579.962 234.236 580.51 231.014C584.53 207.358 581.372 184.195 573.941 161.23C572.935 158.129 567.372 159.804 568.385 162.934Z" fill="#573A77"/>
<path d="M568.085 164.798C569.224 164.717 570.369 164.646 571.514 164.57C575.39 164.311 574.588 159.348 570.809 159.597C569.67 159.673 568.525 159.749 567.38 159.825C563.505 160.079 564.313 165.046 568.085 164.798Z" fill="#573A77"/>
<path d="M571.015 231.36C573.781 265.711 576.288 300.083 577.777 334.491C578.271 345.994 578.596 357.491 578.675 369.005C578.699 374.003 578.639 379.006 578.494 384.004C578.398 387.454 576.626 391.341 580.435 391.087C561.884 392.32 543.334 393.543 524.784 394.766C434.065 400.763 343.358 406.756 252.644 412.753C188.37 417 124.095 421.247 59.8149 425.494C38.1249 426.925 35.8348 413.073 34.4306 399.18C32.6889 382.07 30.9472 364.961 29.2115 347.846C25.4569 310.947 21.431 274.048 18.1043 237.119C15.3079 205.994 13.0901 174.834 11.1616 143.664C10.0949 126.483 9.16076 109.292 8.29292 92.1061C7.53958 77.1172 -0.771175 48.2811 19.6472 40.3807C23.1366 39.031 20.8947 34.3628 17.4655 35.6872C7.44318 39.5638 3.27874 46.0688 1.40445 55.0449C-2.30798 72.8093 2.40485 93.7349 3.36912 111.682C5.32779 148.327 7.7686 184.952 10.8 221.536C14.0243 260.47 18.3092 299.337 22.2627 338.225C24.1551 356.847 26.0475 375.474 27.9459 394.101C29.1211 405.695 27.6325 419.289 40.0414 426.844C53.0108 434.75 80.86 429.122 95.2939 428.169C254.681 417.635 414.062 407.101 573.444 396.572C576.083 396.395 578.711 396.222 581.351 396.049C582.586 395.963 583.882 395.07 583.948 393.974C587.498 339.864 581.278 284.841 576.933 230.903C576.674 227.716 570.75 228.107 571.015 231.36Z" fill="#573A77"/>
<path d="M514.958 15.1119C514.017 15.183 513.246 15.5229 512.631 16.1369C512.011 16.7407 511.727 17.4359 511.794 18.2274C511.872 19.0241 512.282 19.6685 513.011 20.186C513.728 20.7137 514.56 20.9471 515.494 20.8964L522.021 20.4651C522.961 20.3941 523.733 20.0541 524.347 19.4401C524.968 18.8312 525.251 18.1361 525.185 17.3394C525.107 16.553 524.697 15.8984 523.968 15.391C523.25 14.8582 522.419 14.6248 521.479 14.6806L514.958 15.1119ZM496.835 17.1821C496.124 16.6544 495.293 16.416 494.352 16.4769L480.618 17.38C479.678 17.4511 478.906 17.7911 478.297 18.405C477.671 19.0088 477.393 19.704 477.454 20.5006C477.538 21.2922 477.942 21.9417 478.671 22.4541C479.388 22.9818 480.214 23.2203 481.16 23.1645L494.895 22.2512C495.829 22.1903 496.606 21.8402 497.215 21.2262C497.842 20.6275 498.125 19.9272 498.053 19.1357C497.974 18.3492 497.571 17.6946 496.835 17.1821ZM446.278 19.6532C445.338 19.7192 444.566 20.0643 443.957 20.6782C443.331 21.277 443.047 21.9772 443.114 22.7687C443.198 23.5552 443.602 24.2098 444.331 24.7273C445.048 25.25 445.88 25.4884 446.814 25.4276L460.555 24.5193C461.495 24.4533 462.266 24.1083 462.875 23.4943C463.502 22.8956 463.785 22.1954 463.719 21.4038C463.635 20.6173 463.231 19.9627 462.502 19.4452C461.784 18.9226 460.953 18.6841 460.019 18.7399L446.278 19.6532ZM411.938 21.9163C411.004 21.9822 410.226 22.3273 409.618 22.9463C408.991 23.5451 408.714 24.2453 408.78 25.0369C408.864 25.8234 409.268 26.4779 409.997 26.9904C410.714 27.5181 411.54 27.7566 412.48 27.6957L426.215 26.7925C427.155 26.7215 427.933 26.3815 428.541 25.7675C429.168 25.1586 429.451 24.4685 429.385 23.6719C429.301 22.8804 428.897 22.2309 428.162 21.7184C427.444 21.1907 426.619 20.9522 425.679 21.008L411.938 21.9163ZM393.822 23.9865C393.104 23.4639 392.285 23.2254 391.339 23.2762L377.604 24.1844C376.664 24.2555 375.892 24.5954 375.278 25.2094C374.657 25.8132 374.374 26.5134 374.44 27.305C374.518 28.0965 374.928 28.7511 375.663 29.2585C376.374 29.7913 377.206 30.0196 378.146 29.9689L391.875 29.0606C392.815 28.9896 393.587 28.6496 394.201 28.0356C394.828 27.4318 395.105 26.7367 395.045 25.9451C394.961 25.1536 394.551 24.5041 393.822 23.9865ZM343.27 26.4525C342.324 26.5236 341.552 26.8635 340.944 27.4826C340.311 28.0864 340.04 28.7815 340.1 29.5731C340.184 30.3647 340.588 31.0192 341.317 31.5266C342.041 32.0594 342.86 32.2928 343.806 32.237L357.541 31.3287C358.475 31.2628 359.253 30.9177 359.867 30.3038C360.488 29.6999 360.771 29.0048 360.705 28.2133C360.627 27.4217 360.217 26.7722 359.488 26.2546C358.771 25.732 357.939 25.4935 356.999 25.5493L343.27 26.4525ZM325.148 28.5278C324.431 28.0001 323.605 27.7616 322.665 27.8175L308.924 28.7257C307.99 28.7917 307.212 29.1367 306.604 29.7507C305.977 30.3545 305.694 31.0547 305.766 31.8412C305.844 32.6328 306.248 33.2873 306.983 33.7998C307.695 34.3275 308.526 34.5609 309.466 34.5051L323.201 33.6019C324.141 33.5309 324.919 33.1909 325.521 32.5719C326.154 31.9681 326.431 31.2729 326.365 30.4814C326.281 29.6898 325.877 29.0403 325.148 28.5278ZM288.325 30.0856L274.59 30.9938C273.65 31.0649 272.878 31.4049 272.264 32.0188C271.643 32.6226 271.36 33.3178 271.426 34.1093C271.504 34.9009 271.914 35.5504 272.643 36.0679C273.361 36.5906 274.186 36.829 275.126 36.7783L288.861 35.87C289.807 35.799 290.579 35.4591 291.187 34.8451C291.814 34.2413 292.098 33.541 292.031 32.7546C291.947 31.9579 291.543 31.3034 290.814 30.7959C290.091 30.2632 289.265 30.0298 288.325 30.0856ZM240.25 33.262C239.316 33.333 238.539 33.673 237.93 34.2869C237.303 34.8908 237.02 35.5859 237.092 36.3775C237.164 37.1741 237.58 37.8236 238.31 38.3361C239.021 38.8638 239.852 39.1022 240.792 39.0464L254.527 38.1382C255.461 38.0672 256.239 37.7272 256.848 37.1132C257.474 36.5094 257.752 35.8092 257.691 35.0176C257.607 34.2311 257.197 33.5766 256.468 33.0641C255.757 32.5364 254.931 32.3029 253.985 32.3537L240.25 33.262ZM222.514 39.3762C223.134 38.7775 223.418 38.0773 223.351 37.2857C223.273 36.4992 222.863 35.8447 222.134 35.3322C221.417 34.8045 220.585 34.5711 219.651 34.6269L205.916 35.5301C204.97 35.6011 204.205 35.9411 203.59 36.5601C202.963 37.1639 202.686 37.854 202.746 38.6507C202.831 39.4422 203.234 40.0917 203.964 40.6042C204.687 41.1319 205.512 41.3704 206.453 41.3146L220.187 40.4063C221.127 40.3403 221.899 39.9953 222.514 39.3762ZM171.57 37.8033C170.636 37.8693 169.859 38.2143 169.256 38.8282C168.623 39.427 168.34 40.1272 168.412 40.9188C168.497 41.7103 168.9 42.3598 169.63 42.8774C170.341 43.4 171.172 43.6385 172.113 43.5827L185.853 42.6744C186.788 42.6085 187.565 42.2685 188.168 41.6444C188.8 41.0456 189.084 40.3505 189.011 39.5539C188.927 38.7674 188.523 38.1128 187.794 37.6054C187.083 37.0726 186.251 36.8341 185.311 36.895L171.57 37.8033ZM153.834 43.9176C154.46 43.3188 154.738 42.6186 154.677 41.827C154.593 41.0355 154.189 40.3809 153.46 39.8684C152.737 39.3407 151.911 39.1073 150.971 39.1581L137.236 40.0714C136.296 40.1424 135.525 40.4824 134.91 41.0964C134.289 41.6951 134.006 42.3953 134.072 43.1869C134.151 43.9734 134.56 44.6279 135.29 45.1455C136.007 45.6681 136.838 45.9066 137.773 45.8508L151.507 44.9425C152.454 44.8715 153.225 44.5316 153.834 43.9176ZM116.631 41.4313L102.896 42.3344C101.962 42.4055 101.185 42.7455 100.576 43.3645C99.9492 43.9683 99.672 44.6634 99.7383 45.455C99.8166 46.2466 100.226 46.9011 100.956 47.4085C101.673 47.9413 102.499 48.1798 103.439 48.1189L117.173 47.2106C118.108 47.1396 118.885 46.7997 119.494 46.1857C120.12 45.5819 120.404 44.8867 120.337 44.0952C120.259 43.3036 119.849 42.6541 119.114 42.1366C118.403 41.6139 117.571 41.3754 116.631 41.4313ZM85.1598 48.4538C85.7805 47.85 86.0638 47.1548 85.9975 46.3633C85.9192 45.5717 85.5094 44.9222 84.7801 44.4047C84.063 43.882 83.2373 43.6436 82.2971 43.6994L68.5624 44.6026C67.6162 44.6736 66.8508 45.0187 66.2361 45.6326C65.6093 46.2364 65.3321 46.9316 65.3923 47.7282C65.4767 48.5147 65.8805 49.1692 66.6097 49.6767C67.3329 50.2094 68.1586 50.4428 69.1047 50.387L82.8335 49.4788C83.7737 49.4128 84.5451 49.0678 85.1598 48.4538ZM274.584 401.586L288.325 400.677C289.259 400.611 290.036 400.266 290.639 399.652C291.272 399.049 291.549 398.348 291.483 397.562C291.398 396.77 290.995 396.121 290.265 395.603C289.548 395.081 288.723 394.842 287.782 394.898L274.042 395.801C273.107 395.872 272.33 396.212 271.727 396.831C271.095 397.435 270.811 398.13 270.878 398.922C270.962 399.713 271.366 400.368 272.101 400.875C272.812 401.408 273.644 401.641 274.584 401.586ZM257.149 399.83C257.064 399.038 256.661 398.384 255.931 397.876C255.208 397.344 254.383 397.11 253.442 397.166L239.708 398.074C238.768 398.14 237.996 398.485 237.381 399.099C236.761 399.703 236.477 400.403 236.544 401.19C236.622 401.981 237.032 402.631 237.761 403.148C238.478 403.676 239.31 403.909 240.244 403.854L253.979 402.95C254.925 402.879 255.69 402.539 256.305 401.92C256.932 401.317 257.209 400.621 257.149 399.83ZM324.605 393.335C323.888 392.812 323.056 392.574 322.116 392.625L308.388 393.533C307.441 393.604 306.67 393.944 306.061 394.558C305.435 395.162 305.151 395.862 305.218 396.654C305.302 397.445 305.706 398.1 306.435 398.607C307.158 399.14 307.978 399.368 308.918 399.317L322.659 398.409C323.599 398.338 324.37 397.998 324.985 397.384C325.606 396.78 325.889 396.085 325.823 395.294C325.744 394.502 325.335 393.853 324.605 393.335ZM358.939 391.067C358.222 390.539 357.396 390.301 356.456 390.357L342.722 391.265C341.787 391.336 341.01 391.676 340.395 392.29C339.774 392.894 339.491 393.594 339.558 394.385C339.636 395.172 340.046 395.826 340.775 396.339C341.492 396.867 342.318 397.1 343.264 397.044L356.993 396.141C357.933 396.07 358.71 395.73 359.319 395.116C359.946 394.507 360.223 393.817 360.157 393.026C360.078 392.229 359.669 391.579 358.939 391.067ZM393.279 388.799C392.562 388.271 391.736 388.033 390.79 388.088L377.061 389.002C376.121 389.063 375.344 389.408 374.735 390.027C374.108 390.625 373.831 391.326 373.897 392.117C373.976 392.904 374.386 393.558 375.115 394.071C375.832 394.598 376.658 394.837 377.598 394.776L391.333 393.873C392.273 393.802 393.044 393.457 393.659 392.843C394.286 392.244 394.563 391.549 394.503 390.752C394.418 389.961 394.014 389.311 393.279 388.799ZM134.747 409.953C135.458 410.48 136.29 410.719 137.23 410.663L150.971 409.75C151.905 409.689 152.683 409.344 153.285 408.725C153.918 408.126 154.201 407.426 154.129 406.634C154.051 405.848 153.641 405.193 152.912 404.681C152.2 404.153 151.369 403.915 150.429 403.975L136.688 404.879C135.754 404.95 134.976 405.29 134.374 405.909C133.741 406.512 133.464 407.203 133.53 407.999C133.614 408.791 134.018 409.44 134.747 409.953ZM118.951 410.998C119.578 410.394 119.855 409.699 119.795 408.902C119.711 408.116 119.307 407.461 118.578 406.949C117.854 406.421 117.029 406.183 116.089 406.244L102.354 407.152C101.414 407.213 100.642 407.563 100.028 408.177C99.4069 408.776 99.1236 409.476 99.1899 410.267C99.2682 411.054 99.678 411.708 100.407 412.226C101.124 412.749 101.956 412.987 102.896 412.931L116.625 412.023C117.571 411.952 118.337 411.612 118.951 410.998ZM169.081 407.685C169.804 408.212 170.63 408.451 171.564 408.395L185.305 407.487C186.245 407.416 187.017 407.076 187.631 406.457C188.252 405.858 188.535 405.158 188.469 404.366C188.385 403.58 187.981 402.925 187.252 402.413C186.534 401.885 185.703 401.646 184.769 401.702L171.034 402.61C170.088 402.682 169.316 403.022 168.708 403.635C168.081 404.239 167.797 404.934 167.864 405.726C167.948 406.523 168.352 407.172 169.081 407.685ZM219.103 399.434L205.368 400.342C204.434 400.413 203.656 400.753 203.047 401.367C202.421 401.971 202.137 402.666 202.204 403.458C202.288 404.249 202.698 404.899 203.427 405.416C204.138 405.939 204.964 406.178 205.91 406.127L219.645 405.219C220.579 405.148 221.356 404.808 221.965 404.194C222.592 403.59 222.869 402.89 222.803 402.098C222.725 401.306 222.315 400.652 221.585 400.145C220.874 399.612 220.043 399.378 219.103 399.434ZM555.812 383.004C556.759 382.933 557.524 382.593 558.139 381.979C558.766 381.375 559.043 380.675 558.982 379.889C558.898 379.092 558.494 378.443 557.759 377.93C557.042 377.402 556.216 377.169 555.27 377.22L548.749 377.651C547.809 377.722 547.038 378.062 546.429 378.676C545.802 379.285 545.519 379.98 545.585 380.767C545.67 381.563 546.073 382.213 546.803 382.725C547.52 383.253 548.351 383.491 549.286 383.435L555.812 383.004ZM425.673 391.6C426.613 391.534 427.384 391.189 427.993 390.575C428.62 389.976 428.903 389.276 428.837 388.484C428.752 387.698 428.348 387.043 427.619 386.526C426.902 386.003 426.076 385.764 425.136 385.82L411.395 386.729C410.455 386.8 409.684 387.14 409.075 387.754C408.448 388.357 408.165 389.053 408.231 389.849C408.316 390.636 408.72 391.29 409.449 391.803C410.166 392.33 410.998 392.569 411.938 392.508L425.673 391.6ZM461.953 384.263C461.242 383.73 460.41 383.496 459.47 383.552L445.735 384.46C444.795 384.532 444.018 384.871 443.415 385.485C442.782 386.084 442.511 386.784 442.571 387.576C442.656 388.368 443.06 389.017 443.789 389.535C444.512 390.062 445.332 390.296 446.278 390.245L460.013 389.332C460.947 389.266 461.724 388.926 462.333 388.307C462.96 387.708 463.243 387.008 463.177 386.216C463.098 385.425 462.688 384.775 461.953 384.263ZM496.293 381.994C495.576 381.462 494.744 381.228 493.81 381.284L480.075 382.192C479.135 382.258 478.364 382.603 477.749 383.217C477.128 383.821 476.845 384.516 476.911 385.308C476.99 386.099 477.399 386.749 478.129 387.266C478.846 387.789 479.678 388.028 480.612 387.972L494.346 387.069C495.287 386.998 496.058 386.658 496.673 386.038C497.294 385.435 497.577 384.74 497.51 383.943C497.432 383.156 497.022 382.502 496.293 381.994ZM530.633 379.721C529.916 379.194 529.09 378.96 528.144 379.016L514.409 379.919C513.475 379.99 512.698 380.335 512.089 380.949C511.462 381.553 511.179 382.243 511.251 383.04C511.33 383.831 511.739 384.481 512.469 384.993C513.18 385.521 514.011 385.759 514.952 385.704L528.686 384.795C529.627 384.729 530.404 384.384 531.007 383.77C531.639 383.167 531.917 382.466 531.85 381.675C531.766 380.888 531.368 380.234 530.633 379.721ZM50.4402 46.6779C49.729 46.1502 48.8974 45.9117 47.9572 45.9675L34.2224 46.8758C33.2823 46.9417 32.5048 47.2868 31.9021 47.9007C31.2693 48.5045 30.9921 49.2048 31.0584 49.9963C31.1428 50.7828 31.5465 51.4374 32.2758 51.9499C32.9929 52.4776 33.8186 52.711 34.7588 52.6552L48.4996 51.752C49.4337 51.6809 50.2112 51.341 50.8199 50.727C51.4466 50.1181 51.7299 49.428 51.6636 48.6314C51.5792 47.8398 51.1754 47.1904 50.4402 46.6779ZM68.0199 409.42C67.0798 409.486 66.3024 409.826 65.6937 410.445C65.0669 411.044 64.7897 411.744 64.85 412.535C64.9343 413.322 65.3441 413.976 66.0733 414.489C66.7905 415.017 67.6102 415.255 68.5563 415.199L82.2911 414.291C83.2253 414.22 84.0027 413.88 84.6174 413.266C85.2382 412.667 85.5214 411.967 85.4491 411.176C85.3768 410.379 84.9669 409.729 84.2317 409.217C83.5205 408.689 82.6889 408.456 81.7487 408.507L68.0199 409.42Z" fill="#573A77"/>
</svg>
