<svg width="585" height="431" viewBox="0 0 585 431" fill="none" xmlns="http://www.w3.org/2000/svg">
<path d="M467.091 246.624C477.499 246.933 495.573 248.07 521.307 250.023C547.276 251.987 561.029 263.683 562.584 285.111C564.344 306.533 564.753 324.541 563.819 339.129C563.15 353.682 550.79 361.871 526.713 363.688C502.829 365.52 466.007 368.341 416.256 372.152C366.597 375.891 305.884 380.585 234.112 386.222C162.528 391.849 118.37 393.798 101.634 392.072C85.1573 390.312 71.8865 383.817 61.822 372.593C51.8298 361.587 44.9112 343.041 41.0842 316.95C37.2754 291.022 33.2918 250.749 29.1334 196.146C25.3727 146.791 21.8411 94.081 18.5385 38.0173C8.44381 41.214 3.57426 49.4898 3.92381 62.8397C7.69047 147.719 12.9096 221.075 19.5992 282.878L32.0804 405.681C31.6525 420.838 40.5238 428.296 58.6942 428.063L580.977 393.559C582.882 366.438 580.477 312.298 573.787 231.137C534.337 236.054 493.018 238.784 449.831 239.327C450.91 244.026 456.665 246.456 467.091 246.624Z" fill="#9066AE"/>
<path d="M527.464 193.767L521.076 184.583C520.413 177.453 525.927 173.597 537.625 173.019C549.316 172.445 555.59 176.779 556.458 186.034C556.922 191.042 556.97 194.046 556.603 195.04C555.626 199.368 551.818 201.753 545.176 202.195C538.999 202.601 533.093 199.79 527.464 193.767ZM469.12 186.856C474.158 186.521 478.527 187.693 482.228 190.352C486.199 193.391 488.375 196.928 488.748 200.977C489.146 205.219 487.646 208.903 484.253 212.038C481.107 215.347 477.015 217.168 471.976 217.503C466.944 217.833 462.448 216.58 458.501 213.738C454.794 211.074 452.751 207.619 452.347 203.382C451.974 199.338 453.348 195.563 456.482 192.057C459.869 188.921 464.081 187.191 469.12 186.856ZM442.247 239.54C444.826 239.52 447.357 239.444 449.828 239.327C493.015 238.784 534.34 236.054 573.791 231.137C575.105 230.929 576.352 230.752 577.539 230.599C581.553 209.39 579.42 186.551 571.151 162.079L567.722 162.307L435.858 171.019C432.273 194.33 434.406 217.173 442.247 239.54Z" fill="#A34ADF"/>
<path d="M544.013 203.25C537.884 203.245 532.002 200.267 526.517 194.396L520.033 185.095C519.569 181.396 520.491 178.707 522.606 176.662C525.438 173.927 530.471 172.354 537.552 172.009C538.257 171.974 538.95 171.953 539.619 171.953C550.714 171.953 556.789 176.662 557.657 185.953C558.29 192.793 558.043 194.564 557.747 195.34C556.699 200.044 552.486 202.723 545.272 203.205C544.85 203.235 544.428 203.25 544.013 203.25ZM497.601 40.5597C491.074 40.5597 485.458 41.7724 480.901 44.1572C474.658 47.3235 471.904 51.7684 472.464 57.771L486.44 79.1228C497.475 92.696 508.299 99.6171 518.538 99.6171C519.044 99.6171 519.556 99.6019 520.063 99.5663C529.139 98.9676 534.593 93.6297 536.714 83.2379C537.636 78.6154 537.769 72.6229 537.1 65.4279C535.714 50.6318 524.438 42.5691 502.628 40.7779C500.892 40.6307 499.21 40.5597 497.601 40.5597ZM523.444 107.04C521.678 107.04 520.364 107.457 519.424 108.314C517.881 109.715 517.278 112.358 517.634 116.164L519.568 122.253C521.497 125.287 524.583 126.865 528.922 126.865C529.338 126.865 529.766 126.85 530.206 126.819C532.586 126.667 534.346 125.825 535.575 124.247C536.69 122.958 537.136 121.527 536.986 119.832C536.329 112.739 532.713 108.634 525.945 107.274C525.059 107.122 524.209 107.04 523.444 107.04ZM117.957 393.691C110.985 393.691 105.446 393.488 101.486 393.077C84.7504 391.296 71.082 384.604 60.8607 373.202C50.7781 362.105 43.7209 343.219 39.8939 317.078C36.0971 291.25 32.0774 250.587 27.931 196.213C24.1824 147.075 20.6207 93.8682 17.3301 38.0683L17.2939 37.3326L18.1076 37.0687C21.2113 36.0844 24.7851 35.5414 28.7326 35.4602L544.133 1.40292L544.332 2.29596C554.059 46.0042 562.334 99.8048 568.921 162.216L569.023 163.236L436.925 171.964C433.598 194.498 435.683 216.879 443.15 238.51C445.392 238.485 447.598 238.419 449.762 238.318L450.81 238.267L451.009 239.134C451.967 243.28 457.385 245.452 467.112 245.609C477.484 245.919 495.745 247.065 521.413 249.014C547.936 251.023 562.201 263.145 563.78 285.05C565.534 306.407 565.956 324.628 565.016 339.185C564.335 354.25 551.48 362.836 526.819 364.698L416.368 373.162C366.702 376.906 305.995 381.595 234.224 387.237C179.676 391.52 140.551 393.691 117.957 393.691Z" fill="#BB7DE7"/>
<path d="M482.229 190.351C478.528 187.692 474.159 186.52 469.121 186.855C464.082 187.19 459.87 188.92 456.483 192.056C453.349 195.557 451.969 199.337 452.349 203.376C452.746 207.618 454.795 211.073 458.496 213.732C462.449 216.579 466.945 217.832 471.977 217.502C477.016 217.167 481.102 215.346 484.254 212.032C487.641 208.902 489.141 205.218 488.75 200.976C488.376 196.927 486.2 193.39 482.229 190.351Z" fill="#330A61"/>
<path d="M516.435 116.241L518.405 122.508C520.84 126.425 524.812 128.196 530.302 127.831C533.05 127.653 535.141 126.643 536.582 124.801C537.829 123.36 538.366 121.676 538.185 119.748C537.486 112.233 533.496 107.742 526.222 106.286C518.96 105.023 515.699 108.336 516.435 116.241ZM537.908 83.4069C538.848 78.693 538.98 72.6701 538.299 65.3482C536.877 50.1208 525.029 41.5963 502.748 39.7697C493.696 39.0085 486.199 40.1857 480.268 43.2911C473.669 46.6349 470.668 51.4857 471.265 57.8486L485.385 79.6064C497.348 94.3314 508.943 101.324 520.159 100.578C529.778 99.9434 535.69 94.2198 537.908 83.4069Z" fill="#B068DF"/>
<path d="M485.8 201.208C486.27 216.522 459.927 220.251 455.594 204.928C450.677 187.539 482.986 183.556 485.8 201.208C486.306 204.364 492.236 203.999 491.718 200.752C488.072 177.852 448.917 180.399 449.405 203.619C449.616 213.752 461.332 220.231 472.348 219.993C484.197 219.729 492.001 209.931 491.718 200.752C491.622 197.56 485.698 197.961 485.8 201.208Z" fill="#330A61"/>
<path d="M449.676 236.979C437.816 237.106 437.767 206.773 437.273 198.548C437.189 197 438.973 173.329 436.315 173.502C437.309 173.441 438.304 173.375 439.292 173.309C453.358 172.381 467.425 171.447 481.491 170.518C510.353 168.611 539.214 166.703 568.082 164.795C569.727 164.688 570.836 163.425 570.692 162.08C564.99 108.574 557.77 55.1081 546.121 2.26651C545.82 0.911728 544.506 -0.103088 542.806 0.00854492C392.911 9.91318 243.01 19.8229 93.1143 29.7275C68.7967 31.336 41.1825 30.2451 17.4676 35.6845C13.7431 36.542 16.0393 41.2102 19.6493 40.3831C38.0186 36.1665 59.3228 36.9784 78.0959 35.7403C118.505 33.0663 158.908 30.3973 199.31 27.7283C291.789 21.6191 384.263 15.5048 476.742 9.39053C496.594 8.08142 516.446 6.77232 536.297 5.45813C538.208 5.33127 540.13 5.20442 542.047 5.07756C542.463 5.0522 542.885 5.02174 543.3 4.99129C538.979 5.28052 541.981 10.9229 542.481 13.2874C548.061 39.622 552.389 66.1494 556.203 92.7021C558.379 107.879 560.29 123.076 562.073 138.283C562.423 141.226 562.194 160.167 567.293 159.832C566.298 159.898 565.304 159.959 564.309 160.025C550.243 160.959 536.183 161.887 522.117 162.816C493.249 164.724 464.387 166.632 435.52 168.54C434.23 168.626 433.073 169.514 432.922 170.615C429.668 194.296 431.837 217.434 439.485 240.394C439.865 241.525 441.353 242.038 442.613 242.028C445.204 242.007 447.796 241.982 450.381 241.952C454.268 241.911 453.437 236.938 449.676 236.979Z" fill="#330A61"/>
<path d="M573.624 228.646C532.535 233.644 491.186 236.277 449.68 236.982C445.793 237.048 446.618 242.021 450.385 241.955C491.885 241.245 533.234 238.621 574.329 233.618C578.162 233.156 577.379 228.189 573.624 228.646Z" fill="#330A61"/>
<path d="M577.201 228.116C576.008 228.278 574.814 228.45 573.621 228.643C569.842 229.267 570.602 234.225 574.326 233.621C575.519 233.423 576.707 233.251 577.906 233.088C581.721 232.576 580.949 227.613 577.201 228.116Z" fill="#330A61"/>
<path d="M568.385 162.935C575.55 185.058 578.479 207.389 574.598 230.192C574.062 233.333 579.962 234.236 580.51 231.014C584.53 207.359 581.372 184.196 573.941 161.23C572.935 158.13 567.372 159.804 568.385 162.935Z" fill="#330A61"/>
<path d="M568.085 164.798C569.224 164.717 570.369 164.646 571.514 164.57C575.39 164.311 574.588 159.349 570.809 159.597C569.67 159.673 568.525 159.749 567.38 159.825C563.505 160.079 564.313 165.047 568.085 164.798Z" fill="#330A61"/>
<path d="M571.015 231.36C573.781 265.711 576.288 300.083 577.777 334.491C578.271 345.994 578.596 357.492 578.675 369.005C578.699 374.003 578.639 379.006 578.494 384.004C578.398 387.454 576.626 391.341 580.435 391.087C561.884 392.32 543.334 393.543 524.784 394.766C434.065 400.764 343.358 406.756 252.644 412.754C188.37 417.001 124.095 421.248 59.8149 425.495C38.1249 426.926 35.8348 413.073 34.4306 399.18C32.6889 382.071 30.9472 364.961 29.2115 347.846C25.4569 310.947 21.431 274.048 18.1043 237.119C15.3079 205.994 13.0901 174.834 11.1616 143.664C10.0949 126.483 9.16076 109.292 8.29292 92.1063C7.53958 77.1174 -0.771175 48.2813 19.6472 40.381C23.1366 39.0313 20.8947 34.3631 17.4655 35.6874C7.44318 39.564 3.27874 46.069 1.40445 55.0451C-2.30798 72.8095 2.40485 93.7351 3.36912 111.682C5.32779 148.327 7.7686 184.952 10.8 221.536C14.0243 260.47 18.3092 299.337 22.2627 338.225C24.1551 356.847 26.0475 375.474 27.9459 394.101C29.1211 405.696 27.6325 419.289 40.0414 426.844C53.0108 434.75 80.86 429.123 95.2939 428.169C254.681 417.635 414.062 407.101 573.444 396.572C576.083 396.395 578.711 396.222 581.351 396.05C582.586 395.963 583.882 395.07 583.948 393.974C587.498 339.864 581.278 284.841 576.933 230.903C576.674 227.717 570.75 228.107 571.015 231.36Z" fill="#330A61"/>
<path d="M514.958 15.1122C514.017 15.1832 513.246 15.5232 512.631 16.1371C512.011 16.7409 511.727 17.4361 511.794 18.2277C511.872 19.0243 512.282 19.6687 513.011 20.1863C513.728 20.714 514.56 20.9474 515.494 20.8966L522.021 20.4654C522.961 20.3943 523.733 20.0543 524.347 19.4404C524.968 18.8315 525.251 18.1363 525.185 17.3397C525.107 16.5532 524.697 15.8987 523.968 15.3913C523.25 14.8585 522.419 14.6251 521.479 14.6809L514.958 15.1122ZM496.835 17.1824C496.124 16.6547 495.293 16.4162 494.352 16.4771L480.618 17.3803C479.678 17.4513 478.906 17.7913 478.297 18.4053C477.671 19.0091 477.393 19.7042 477.454 20.5009C477.538 21.2924 477.942 21.9419 478.671 22.4544C479.388 22.9821 480.214 23.2206 481.16 23.1648L494.895 22.2514C495.829 22.1905 496.606 21.8404 497.215 21.2265C497.842 20.6277 498.125 19.9275 498.053 19.1359C497.974 18.3495 497.571 17.6949 496.835 17.1824ZM446.278 19.6535C445.338 19.7195 444.566 20.0645 443.957 20.6785C443.331 21.2772 443.047 21.9774 443.114 22.769C443.198 23.5555 443.602 24.21 444.331 24.7276C445.048 25.2502 445.88 25.4887 446.814 25.4278L460.555 24.5195C461.495 24.4536 462.267 24.1086 462.875 23.4946C463.502 22.8958 463.785 22.1956 463.719 21.4041C463.635 20.6176 463.231 19.963 462.502 19.4454C461.784 18.9228 460.953 18.6843 460.019 18.7401L446.278 19.6535ZM411.938 21.9165C411.004 21.9825 410.226 22.3275 409.618 22.9466C408.991 23.5453 408.714 24.2455 408.78 25.0371C408.864 25.8236 409.268 26.4781 409.997 26.9906C410.714 27.5183 411.54 27.7568 412.48 27.6959L426.215 26.7928C427.155 26.7217 427.933 26.3817 428.541 25.7678C429.168 25.1589 429.451 24.4688 429.385 23.6721C429.301 22.8806 428.897 22.2311 428.162 21.7187C427.444 21.1909 426.619 20.9524 425.679 21.0082L411.938 21.9165ZM393.822 23.9868C393.104 23.4641 392.285 23.2257 391.339 23.2764L377.604 24.1847C376.664 24.2557 375.892 24.5956 375.278 25.2096C374.657 25.8134 374.374 26.5137 374.44 27.3052C374.518 28.0968 374.928 28.7513 375.663 29.2588C376.374 29.7915 377.206 30.0199 378.146 29.9691L391.875 29.0609C392.815 28.9898 393.587 28.6498 394.201 28.0359C394.828 27.4321 395.105 26.7369 395.045 25.9454C394.961 25.1538 394.551 24.5043 393.822 23.9868ZM343.27 26.4528C342.324 26.5238 341.552 26.8638 340.944 27.4828C340.311 28.0866 340.04 28.7818 340.1 29.5733C340.184 30.3649 340.588 31.0195 341.317 31.5269C342.04 32.0597 342.86 32.2931 343.806 32.2372L357.541 31.329C358.475 31.263 359.253 30.918 359.867 30.304C360.488 29.7002 360.771 29.0051 360.705 28.2135C360.627 27.4219 360.217 26.7725 359.488 26.2549C358.771 25.7323 357.939 25.4938 356.999 25.5496L343.27 26.4528ZM325.148 28.5281C324.431 28.0004 323.605 27.7619 322.665 27.8177L308.924 28.726C307.99 28.7919 307.212 29.137 306.604 29.7509C305.977 30.3548 305.694 31.055 305.766 31.8415C305.844 32.633 306.248 33.2876 306.983 33.8001C307.695 34.3278 308.526 34.5612 309.466 34.5054L323.201 33.6022C324.141 33.5311 324.919 33.1912 325.521 32.5721C326.154 31.9683 326.431 31.2732 326.365 30.4816C326.281 29.6901 325.877 29.0406 325.148 28.5281ZM288.325 30.0858L274.59 30.9941C273.65 31.0651 272.878 31.4051 272.264 32.0191C271.643 32.6229 271.36 33.318 271.426 34.1096C271.504 34.9011 271.914 35.5506 272.643 36.0682C273.361 36.5908 274.186 36.8293 275.126 36.7786L288.861 35.8703C289.807 35.7993 290.579 35.4593 291.187 34.8453C291.814 34.2415 292.098 33.5413 292.031 32.7548C291.947 31.9582 291.543 31.3036 290.814 30.7962C290.091 30.2634 289.265 30.03 288.325 30.0858ZM240.25 33.2622C239.316 33.3332 238.539 33.6732 237.93 34.2872C237.303 34.891 237.02 35.5862 237.092 36.3777C237.164 37.1743 237.58 37.8238 238.31 38.3363C239.021 38.864 239.852 39.1025 240.792 39.0467L254.527 38.1384C255.461 38.0674 256.239 37.7274 256.848 37.1135C257.474 36.5096 257.752 35.8094 257.691 35.0179C257.607 34.2314 257.197 33.5768 256.468 33.0643C255.757 32.5366 254.931 32.3032 253.985 32.3539L240.25 33.2622ZM222.514 39.3765C223.134 38.7777 223.418 38.0775 223.351 37.2859C223.273 36.4995 222.863 35.8449 222.134 35.3325C221.417 34.8047 220.585 34.5714 219.651 34.6272L205.916 35.5304C204.97 35.6014 204.205 35.9413 203.59 36.5604C202.963 37.1642 202.686 37.8543 202.746 38.6509C202.831 39.4425 203.234 40.0919 203.964 40.6045C204.687 41.1321 205.512 41.3706 206.453 41.3148L220.187 40.4066C221.127 40.3406 221.899 39.9955 222.514 39.3765ZM171.57 37.8035C170.636 37.8695 169.859 38.2145 169.256 38.8285C168.623 39.4272 168.34 40.1275 168.412 40.919C168.497 41.7106 168.9 42.3601 169.63 42.8776C170.341 43.4003 171.172 43.6387 172.113 43.5829L185.853 42.6747C186.788 42.6087 187.565 42.2687 188.168 41.6446C188.8 41.0459 189.084 40.3507 189.011 39.5541C188.927 38.7676 188.523 38.113 187.794 37.6057C187.083 37.0728 186.251 36.8344 185.311 36.8953L171.57 37.8035ZM153.834 43.9178C154.46 43.3191 154.738 42.6188 154.677 41.8273C154.593 41.0357 154.189 40.3812 153.46 39.8687C152.737 39.341 151.911 39.1076 150.971 39.1583L137.236 40.0717C136.296 40.1427 135.525 40.4826 134.91 41.0966C134.289 41.6953 134.006 42.3956 134.072 43.1871C134.151 43.9736 134.56 44.6282 135.29 45.1458C136.007 45.6684 136.839 45.9069 137.773 45.851L151.507 44.9428C152.454 44.8717 153.225 44.5318 153.834 43.9178ZM116.631 41.4315L102.896 42.3347C101.962 42.4057 101.185 42.7457 100.576 43.3647C99.9492 43.9686 99.672 44.6637 99.7383 45.4553C99.8167 46.2468 100.226 46.9014 100.956 47.4088C101.673 47.9416 102.499 48.1801 103.439 48.1192L117.173 47.2109C118.108 47.1399 118.885 46.7999 119.494 46.1859C120.12 45.5821 120.404 44.887 120.337 44.0954C120.259 43.3038 119.849 42.6544 119.114 42.1368C118.403 41.6142 117.571 41.3757 116.631 41.4315ZM85.1598 48.4541C85.7805 47.8503 86.0638 47.1551 85.9975 46.3635C85.9192 45.572 85.5094 44.9225 84.7801 44.4049C84.063 43.8823 83.2373 43.6438 82.2971 43.6996L68.5624 44.6028C67.6162 44.6739 66.8508 45.0189 66.2361 45.6329C65.6093 46.2367 65.3321 46.9319 65.3923 47.7285C65.4767 48.515 65.8805 49.1695 66.6097 49.6769C67.3329 50.2097 68.1586 50.4431 69.1047 50.3873L82.8335 49.479C83.7737 49.4131 84.5451 49.068 85.1598 48.4541ZM274.584 401.586L288.325 400.678C289.259 400.612 290.036 400.267 290.639 399.653C291.272 399.049 291.549 398.349 291.483 397.562C291.398 396.77 290.995 396.121 290.265 395.603C289.548 395.081 288.723 394.842 287.782 394.898L274.042 395.801C273.107 395.872 272.33 396.212 271.727 396.831C271.095 397.435 270.811 398.13 270.878 398.922C270.962 399.713 271.366 400.368 272.101 400.875C272.812 401.408 273.644 401.642 274.584 401.586ZM257.149 399.83C257.064 399.039 256.661 398.384 255.931 397.877C255.208 397.344 254.383 397.11 253.442 397.166L239.708 398.075C238.768 398.14 237.996 398.486 237.381 399.099C236.761 399.703 236.477 400.404 236.544 401.19C236.622 401.982 237.032 402.631 237.761 403.149C238.478 403.676 239.31 403.91 240.244 403.854L253.979 402.951C254.925 402.88 255.69 402.54 256.305 401.921C256.932 401.317 257.209 400.622 257.149 399.83ZM324.605 393.335C323.888 392.813 323.056 392.574 322.116 392.625L308.388 393.533C307.441 393.604 306.67 393.944 306.061 394.558C305.435 395.162 305.151 395.862 305.218 396.654C305.302 397.445 305.706 398.1 306.435 398.607C307.158 399.14 307.978 399.368 308.918 399.318L322.659 398.409C323.599 398.338 324.37 397.998 324.985 397.384C325.606 396.781 325.889 396.085 325.823 395.294C325.744 394.502 325.335 393.853 324.605 393.335ZM358.939 391.067C358.222 390.539 357.396 390.301 356.456 390.357L342.721 391.265C341.787 391.336 341.01 391.676 340.395 392.29C339.774 392.894 339.491 393.594 339.558 394.386C339.636 395.172 340.046 395.827 340.775 396.339C341.492 396.867 342.318 397.1 343.264 397.044L356.993 396.141C357.933 396.07 358.71 395.73 359.319 395.116C359.946 394.507 360.223 393.817 360.157 393.026C360.078 392.229 359.669 391.58 358.939 391.067ZM393.279 388.799C392.562 388.271 391.736 388.033 390.79 388.089L377.061 389.002C376.121 389.063 375.344 389.408 374.735 390.027C374.108 390.626 373.831 391.326 373.897 392.118C373.976 392.904 374.386 393.559 375.115 394.071C375.832 394.599 376.658 394.837 377.598 394.776L391.333 393.873C392.273 393.802 393.044 393.457 393.659 392.843C394.286 392.244 394.563 391.549 394.503 390.753C394.418 389.961 394.014 389.312 393.279 388.799ZM134.747 409.953C135.458 410.481 136.29 410.719 137.23 410.663L150.971 409.75C151.905 409.689 152.683 409.344 153.285 408.725C153.918 408.126 154.201 407.426 154.129 406.635C154.051 405.848 153.641 405.193 152.912 404.681C152.2 404.153 151.369 403.915 150.429 403.976L136.688 404.879C135.754 404.95 134.976 405.29 134.374 405.909C133.741 406.513 133.464 407.203 133.53 407.999C133.614 408.791 134.018 409.44 134.747 409.953ZM118.951 410.998C119.578 410.394 119.855 409.699 119.795 408.903C119.711 408.116 119.307 407.462 118.578 406.949C117.854 406.421 117.029 406.183 116.089 406.244L102.354 407.152C101.414 407.213 100.642 407.563 100.028 408.177C99.4069 408.776 99.1236 409.476 99.1899 410.268C99.2682 411.054 99.678 411.709 100.407 412.226C101.124 412.749 101.956 412.987 102.896 412.931L116.625 412.023C117.571 411.952 118.337 411.612 118.951 410.998ZM169.081 407.685C169.804 408.213 170.63 408.451 171.564 408.395L185.305 407.487C186.245 407.416 187.017 407.076 187.631 406.457C188.252 405.858 188.535 405.158 188.469 404.366C188.385 403.58 187.981 402.925 187.252 402.413C186.534 401.885 185.703 401.647 184.769 401.703L171.034 402.611C170.088 402.682 169.316 403.022 168.708 403.636C168.081 404.24 167.797 404.935 167.864 405.726C167.948 406.523 168.352 407.172 169.081 407.685ZM219.103 399.434L205.368 400.343C204.434 400.414 203.656 400.754 203.047 401.368C202.421 401.971 202.137 402.667 202.204 403.458C202.288 404.25 202.698 404.899 203.427 405.417C204.138 405.939 204.964 406.178 205.91 406.127L219.645 405.219C220.579 405.148 221.356 404.808 221.965 404.194C222.592 403.59 222.869 402.89 222.803 402.098C222.725 401.307 222.315 400.652 221.585 400.145C220.874 399.612 220.043 399.379 219.103 399.434ZM555.812 383.004C556.759 382.933 557.524 382.593 558.139 381.979C558.766 381.376 559.043 380.675 558.982 379.889C558.898 379.092 558.494 378.443 557.759 377.93C557.042 377.403 556.216 377.169 555.27 377.22L548.749 377.651C547.809 377.722 547.038 378.062 546.429 378.676C545.802 379.285 545.519 379.98 545.585 380.767C545.67 381.563 546.073 382.213 546.803 382.725C547.52 383.253 548.351 383.492 549.286 383.436L555.812 383.004ZM425.673 391.6C426.613 391.534 427.384 391.189 427.993 390.575C428.62 389.976 428.903 389.276 428.837 388.484C428.752 387.698 428.348 387.043 427.619 386.526C426.902 386.003 426.076 385.765 425.136 385.821L411.395 386.729C410.455 386.8 409.684 387.14 409.075 387.754C408.448 388.358 408.165 389.053 408.231 389.849C408.316 390.636 408.72 391.29 409.449 391.803C410.166 392.331 410.998 392.569 411.938 392.508L425.673 391.6ZM461.953 384.263C461.242 383.73 460.41 383.497 459.47 383.552L445.735 384.461C444.795 384.532 444.018 384.872 443.415 385.486C442.782 386.084 442.511 386.785 442.571 387.576C442.656 388.368 443.06 389.017 443.789 389.535C444.512 390.063 445.332 390.296 446.278 390.245L460.013 389.332C460.947 389.266 461.724 388.926 462.333 388.307C462.96 387.708 463.243 387.008 463.177 386.216C463.098 385.425 462.688 384.775 461.953 384.263ZM496.293 381.995C495.576 381.462 494.744 381.229 493.81 381.284L480.075 382.193C479.135 382.259 478.364 382.604 477.749 383.218C477.128 383.821 476.845 384.517 476.911 385.308C476.99 386.1 477.399 386.749 478.129 387.267C478.846 387.789 479.678 388.028 480.612 387.972L494.346 387.069C495.287 386.998 496.058 386.658 496.673 386.039C497.294 385.435 497.577 384.74 497.51 383.943C497.432 383.157 497.022 382.502 496.293 381.995ZM530.633 379.722C529.916 379.194 529.09 378.96 528.144 379.016L514.409 379.919C513.475 379.99 512.698 380.335 512.089 380.949C511.462 381.553 511.179 382.243 511.251 383.04C511.33 383.832 511.739 384.481 512.469 384.994C513.18 385.521 514.011 385.76 514.952 385.704L528.686 384.796C529.627 384.73 530.404 384.385 531.007 383.771C531.639 383.167 531.917 382.467 531.85 381.675C531.766 380.889 531.368 380.234 530.633 379.722ZM50.4402 46.6781C49.729 46.1504 48.8974 45.912 47.9572 45.9678L34.2224 46.876C33.2823 46.942 32.5048 47.287 31.9021 47.901C31.2693 48.5048 30.9921 49.205 31.0584 49.9966C31.1428 50.7831 31.5465 51.4377 32.2758 51.9501C32.9929 52.4778 33.8186 52.7112 34.7588 52.6554L48.4996 51.7522C49.4337 51.6812 50.2112 51.3412 50.8199 50.7272C51.4466 50.1183 51.7299 49.4283 51.6636 48.6316C51.5792 47.8401 51.1754 47.1906 50.4402 46.6781ZM68.0199 409.42C67.0798 409.486 66.3024 409.826 65.6937 410.445C65.0669 411.044 64.7897 411.744 64.85 412.536C64.9343 413.322 65.3441 413.977 66.0733 414.489C66.7905 415.017 67.6102 415.255 68.5563 415.2L82.2911 414.291C83.2253 414.22 84.0027 413.88 84.6174 413.266C85.2382 412.668 85.5214 411.967 85.4491 411.176C85.3768 410.379 84.9669 409.73 84.2317 409.217C83.5205 408.69 82.6889 408.456 81.7487 408.507L68.0199 409.42Z" fill="#330A61"/>
<path d="M568.385 162.935C575.55 185.058 578.479 207.389 574.598 230.192C574.062 233.333 579.962 234.236 580.51 231.014C584.53 207.359 581.372 184.196 573.941 161.23C572.935 158.13 567.372 159.804 568.385 162.935Z" fill="#330A61"/>
<path d="M568.085 164.798C569.224 164.717 570.369 164.646 571.514 164.57C575.39 164.311 574.588 159.349 570.809 159.597C569.67 159.673 568.525 159.749 567.38 159.825C563.505 160.079 564.313 165.047 568.085 164.798Z" fill="#330A61"/>
<path d="M571.015 231.36C573.781 265.711 576.288 300.083 577.777 334.491C578.271 345.994 578.596 357.492 578.675 369.005C578.699 374.003 578.639 379.006 578.494 384.004C578.398 387.454 576.626 391.341 580.435 391.087C561.884 392.32 543.334 393.543 524.784 394.766C434.065 400.764 343.358 406.756 252.644 412.754C188.37 417.001 124.095 421.248 59.8149 425.495C38.1249 426.926 35.8348 413.073 34.4306 399.18C32.6889 382.071 30.9472 364.961 29.2115 347.846C25.4569 310.947 21.431 274.048 18.1043 237.119C15.3079 205.994 13.0901 174.834 11.1616 143.664C10.0949 126.483 9.16076 109.292 8.29292 92.1063C7.53958 77.1174 -0.771175 48.2813 19.6472 40.381C23.1366 39.0313 20.8947 34.3631 17.4655 35.6874C7.44318 39.564 3.27874 46.069 1.40445 55.0451C-2.30798 72.8095 2.40485 93.7351 3.36912 111.682C5.32779 148.327 7.7686 184.952 10.8 221.536C14.0243 260.47 18.3092 299.337 22.2627 338.225C24.1551 356.847 26.0475 375.474 27.9459 394.101C29.1211 405.696 27.6325 419.289 40.0414 426.844C53.0108 434.75 80.86 429.123 95.2939 428.169C254.681 417.635 414.062 407.101 573.444 396.572C576.083 396.395 578.711 396.222 581.351 396.05C582.586 395.963 583.882 395.07 583.948 393.974C587.498 339.864 581.278 284.841 576.933 230.903C576.674 227.717 570.75 228.107 571.015 231.36Z" fill="#330A61"/>
<path d="M514.958 15.1122C514.017 15.1832 513.246 15.5232 512.631 16.1371C512.011 16.7409 511.727 17.4361 511.794 18.2277C511.872 19.0243 512.282 19.6687 513.011 20.1863C513.728 20.714 514.56 20.9474 515.494 20.8966L522.021 20.4654C522.961 20.3943 523.733 20.0543 524.347 19.4404C524.968 18.8315 525.251 18.1363 525.185 17.3397C525.107 16.5532 524.697 15.8987 523.968 15.3913C523.25 14.8585 522.419 14.6251 521.479 14.6809L514.958 15.1122ZM496.835 17.1824C496.124 16.6547 495.293 16.4162 494.352 16.4771L480.618 17.3803C479.678 17.4513 478.906 17.7913 478.297 18.4053C477.671 19.0091 477.393 19.7042 477.454 20.5009C477.538 21.2924 477.942 21.9419 478.671 22.4544C479.388 22.9821 480.214 23.2206 481.16 23.1648L494.895 22.2514C495.829 22.1905 496.606 21.8404 497.215 21.2265C497.842 20.6277 498.125 19.9275 498.053 19.1359C497.974 18.3495 497.571 17.6949 496.835 17.1824ZM446.278 19.6535C445.338 19.7195 444.566 20.0645 443.957 20.6785C443.331 21.2772 443.047 21.9774 443.114 22.769C443.198 23.5555 443.602 24.21 444.331 24.7276C445.048 25.2502 445.88 25.4887 446.814 25.4278L460.555 24.5195C461.495 24.4536 462.267 24.1086 462.875 23.4946C463.502 22.8958 463.785 22.1956 463.719 21.4041C463.635 20.6176 463.231 19.963 462.502 19.4454C461.784 18.9228 460.953 18.6843 460.019 18.7401L446.278 19.6535ZM411.938 21.9165C411.004 21.9825 410.226 22.3275 409.618 22.9466C408.991 23.5453 408.714 24.2455 408.78 25.0371C408.864 25.8236 409.268 26.4781 409.997 26.9906C410.714 27.5183 411.54 27.7568 412.48 27.6959L426.215 26.7928C427.155 26.7217 427.933 26.3817 428.541 25.7678C429.168 25.1589 429.451 24.4688 429.385 23.6721C429.301 22.8806 428.897 22.2311 428.162 21.7187C427.444 21.1909 426.619 20.9524 425.679 21.0082L411.938 21.9165ZM393.822 23.9868C393.104 23.4641 392.285 23.2257 391.339 23.2764L377.604 24.1847C376.664 24.2557 375.892 24.5956 375.278 25.2096C374.657 25.8134 374.374 26.5137 374.44 27.3052C374.518 28.0968 374.928 28.7513 375.663 29.2588C376.374 29.7915 377.206 30.0199 378.146 29.9691L391.875 29.0609C392.815 28.9898 393.587 28.6498 394.201 28.0359C394.828 27.4321 395.105 26.7369 395.045 25.9454C394.961 25.1538 394.551 24.5043 393.822 23.9868ZM343.27 26.4528C342.324 26.5238 341.552 26.8638 340.944 27.4828C340.311 28.0866 340.04 28.7818 340.1 29.5733C340.184 30.3649 340.588 31.0195 341.317 31.5269C342.04 32.0597 342.86 32.2931 343.806 32.2372L357.541 31.329C358.475 31.263 359.253 30.918 359.867 30.304C360.488 29.7002 360.771 29.0051 360.705 28.2135C360.627 27.4219 360.217 26.7725 359.488 26.2549C358.771 25.7323 357.939 25.4938 356.999 25.5496L343.27 26.4528ZM325.148 28.5281C324.431 28.0004 323.605 27.7619 322.665 27.8177L308.924 28.726C307.99 28.7919 307.212 29.137 306.604 29.7509C305.977 30.3548 305.694 31.055 305.766 31.8415C305.844 32.633 306.248 33.2876 306.983 33.8001C307.695 34.3278 308.526 34.5612 309.466 34.5054L323.201 33.6022C324.141 33.5311 324.919 33.1912 325.521 32.5721C326.154 31.9683 326.431 31.2732 326.365 30.4816C326.281 29.6901 325.877 29.0406 325.148 28.5281ZM288.325 30.0858L274.59 30.9941C273.65 31.0651 272.878 31.4051 272.264 32.0191C271.643 32.6229 271.36 33.318 271.426 34.1096C271.504 34.9011 271.914 35.5506 272.643 36.0682C273.361 36.5908 274.186 36.8293 275.126 36.7786L288.861 35.8703C289.807 35.7993 290.579 35.4593 291.187 34.8453C291.814 34.2415 292.098 33.5413 292.031 32.7548C291.947 31.9582 291.543 31.3036 290.814 30.7962C290.091 30.2634 289.265 30.03 288.325 30.0858ZM240.25 33.2622C239.316 33.3332 238.539 33.6732 237.93 34.2872C237.303 34.891 237.02 35.5862 237.092 36.3777C237.164 37.1743 237.58 37.8238 238.31 38.3363C239.021 38.864 239.852 39.1025 240.792 39.0467L254.527 38.1384C255.461 38.0674 256.239 37.7274 256.848 37.1135C257.474 36.5096 257.752 35.8094 257.691 35.0179C257.607 34.2314 257.197 33.5768 256.468 33.0643C255.757 32.5366 254.931 32.3032 253.985 32.3539L240.25 33.2622ZM222.514 39.3765C223.134 38.7777 223.418 38.0775 223.351 37.2859C223.273 36.4995 222.863 35.8449 222.134 35.3325C221.417 34.8047 220.585 34.5714 219.651 34.6272L205.916 35.5304C204.97 35.6014 204.205 35.9413 203.59 36.5604C202.963 37.1642 202.686 37.8543 202.746 38.6509C202.831 39.4425 203.234 40.0919 203.964 40.6045C204.687 41.1321 205.512 41.3706 206.453 41.3148L220.187 40.4066C221.127 40.3406 221.899 39.9955 222.514 39.3765ZM171.57 37.8035C170.636 37.8695 169.859 38.2145 169.256 38.8285C168.623 39.4272 168.34 40.1275 168.412 40.919C168.497 41.7106 168.9 42.3601 169.63 42.8776C170.341 43.4003 171.172 43.6387 172.113 43.5829L185.853 42.6747C186.788 42.6087 187.565 42.2687 188.168 41.6446C188.8 41.0459 189.084 40.3507 189.011 39.5541C188.927 38.7676 188.523 38.113 187.794 37.6057C187.083 37.0728 186.251 36.8344 185.311 36.8953L171.57 37.8035ZM153.834 43.9178C154.46 43.3191 154.738 42.6188 154.677 41.8273C154.593 41.0357 154.189 40.3812 153.46 39.8687C152.737 39.341 151.911 39.1076 150.971 39.1583L137.236 40.0717C136.296 40.1427 135.525 40.4826 134.91 41.0966C134.289 41.6953 134.006 42.3956 134.072 43.1871C134.151 43.9736 134.56 44.6282 135.29 45.1458C136.007 45.6684 136.839 45.9069 137.773 45.851L151.507 44.9428C152.454 44.8717 153.225 44.5318 153.834 43.9178ZM116.631 41.4315L102.896 42.3347C101.962 42.4057 101.185 42.7457 100.576 43.3647C99.9492 43.9686 99.672 44.6637 99.7383 45.4553C99.8167 46.2468 100.226 46.9014 100.956 47.4088C101.673 47.9416 102.499 48.1801 103.439 48.1192L117.173 47.2109C118.108 47.1399 118.885 46.7999 119.494 46.1859C120.12 45.5821 120.404 44.887 120.337 44.0954C120.259 43.3038 119.849 42.6544 119.114 42.1368C118.403 41.6142 117.571 41.3757 116.631 41.4315ZM85.1598 48.4541C85.7805 47.8503 86.0638 47.1551 85.9975 46.3635C85.9192 45.572 85.5094 44.9225 84.7801 44.4049C84.063 43.8823 83.2373 43.6438 82.2971 43.6996L68.5624 44.6028C67.6162 44.6739 66.8508 45.0189 66.2361 45.6329C65.6093 46.2367 65.3321 46.9319 65.3923 47.7285C65.4767 48.515 65.8805 49.1695 66.6097 49.6769C67.3329 50.2097 68.1586 50.4431 69.1047 50.3873L82.8335 49.479C83.7737 49.4131 84.5451 49.068 85.1598 48.4541ZM274.584 401.586L288.325 400.678C289.259 400.612 290.036 400.267 290.639 399.653C291.272 399.049 291.549 398.349 291.483 397.562C291.398 396.77 290.995 396.121 290.265 395.603C289.548 395.081 288.723 394.842 287.782 394.898L274.042 395.801C273.107 395.872 272.33 396.212 271.727 396.831C271.095 397.435 270.811 398.13 270.878 398.922C270.962 399.713 271.366 400.368 272.101 400.875C272.812 401.408 273.644 401.642 274.584 401.586ZM257.149 399.83C257.064 399.039 256.661 398.384 255.931 397.877C255.208 397.344 254.383 397.11 253.442 397.166L239.708 398.075C238.768 398.14 237.996 398.486 237.381 399.099C236.761 399.703 236.477 400.404 236.544 401.19C236.622 401.982 237.032 402.631 237.761 403.149C238.478 403.676 239.31 403.91 240.244 403.854L253.979 402.951C254.925 402.88 255.69 402.54 256.305 401.921C256.932 401.317 257.209 400.622 257.149 399.83ZM324.605 393.335C323.888 392.813 323.056 392.574 322.116 392.625L308.388 393.533C307.441 393.604 306.67 393.944 306.061 394.558C305.435 395.162 305.151 395.862 305.218 396.654C305.302 397.445 305.706 398.1 306.435 398.607C307.158 399.14 307.978 399.368 308.918 399.318L322.659 398.409C323.599 398.338 324.37 397.998 324.985 397.384C325.606 396.781 325.889 396.085 325.823 395.294C325.744 394.502 325.335 393.853 324.605 393.335ZM358.939 391.067C358.222 390.539 357.396 390.301 356.456 390.357L342.721 391.265C341.787 391.336 341.01 391.676 340.395 392.29C339.774 392.894 339.491 393.594 339.558 394.386C339.636 395.172 340.046 395.827 340.775 396.339C341.492 396.867 342.318 397.1 343.264 397.044L356.993 396.141C357.933 396.07 358.71 395.73 359.319 395.116C359.946 394.507 360.223 393.817 360.157 393.026C360.078 392.229 359.669 391.58 358.939 391.067ZM393.279 388.799C392.562 388.271 391.736 388.033 390.79 388.089L377.061 389.002C376.121 389.063 375.344 389.408 374.735 390.027C374.108 390.626 373.831 391.326 373.897 392.118C373.976 392.904 374.386 393.559 375.115 394.071C375.832 394.599 376.658 394.837 377.598 394.776L391.333 393.873C392.273 393.802 393.044 393.457 393.659 392.843C394.286 392.244 394.563 391.549 394.503 390.753C394.418 389.961 394.014 389.312 393.279 388.799ZM134.747 409.953C135.458 410.481 136.29 410.719 137.23 410.663L150.971 409.75C151.905 409.689 152.683 409.344 153.285 408.725C153.918 408.126 154.201 407.426 154.129 406.635C154.051 405.848 153.641 405.193 152.912 404.681C152.2 404.153 151.369 403.915 150.429 403.976L136.688 404.879C135.754 404.95 134.976 405.29 134.374 405.909C133.741 406.513 133.464 407.203 133.53 407.999C133.614 408.791 134.018 409.44 134.747 409.953ZM118.951 410.998C119.578 410.394 119.855 409.699 119.795 408.903C119.711 408.116 119.307 407.462 118.578 406.949C117.854 406.421 117.029 406.183 116.089 406.244L102.354 407.152C101.414 407.213 100.642 407.563 100.028 408.177C99.4069 408.776 99.1236 409.476 99.1899 410.268C99.2682 411.054 99.678 411.709 100.407 412.226C101.124 412.749 101.956 412.987 102.896 412.931L116.625 412.023C117.571 411.952 118.337 411.612 118.951 410.998ZM169.081 407.685C169.804 408.213 170.63 408.451 171.564 408.395L185.305 407.487C186.245 407.416 187.017 407.076 187.631 406.457C188.252 405.858 188.535 405.158 188.469 404.366C188.385 403.58 187.981 402.925 187.252 402.413C186.534 401.885 185.703 401.647 184.769 401.703L171.034 402.611C170.088 402.682 169.316 403.022 168.708 403.636C168.081 404.24 167.797 404.935 167.864 405.726C167.948 406.523 168.352 407.172 169.081 407.685ZM219.103 399.434L205.368 400.343C204.434 400.414 203.656 400.754 203.047 401.368C202.421 401.971 202.137 402.667 202.204 403.458C202.288 404.25 202.698 404.899 203.427 405.417C204.138 405.939 204.964 406.178 205.91 406.127L219.645 405.219C220.579 405.148 221.356 404.808 221.965 404.194C222.592 403.59 222.869 402.89 222.803 402.098C222.725 401.307 222.315 400.652 221.585 400.145C220.874 399.612 220.043 399.379 219.103 399.434ZM555.812 383.004C556.759 382.933 557.524 382.593 558.139 381.979C558.766 381.376 559.043 380.675 558.982 379.889C558.898 379.092 558.494 378.443 557.759 377.93C557.042 377.403 556.216 377.169 555.27 377.22L548.749 377.651C547.809 377.722 547.038 378.062 546.429 378.676C545.802 379.285 545.519 379.98 545.585 380.767C545.67 381.563 546.073 382.213 546.803 382.725C547.52 383.253 548.351 383.492 549.286 383.436L555.812 383.004ZM425.673 391.6C426.613 391.534 427.384 391.189 427.993 390.575C428.62 389.976 428.903 389.276 428.837 388.484C428.752 387.698 428.348 387.043 427.619 386.526C426.902 386.003 426.076 385.765 425.136 385.821L411.395 386.729C410.455 386.8 409.684 387.14 409.075 387.754C408.448 388.358 408.165 389.053 408.231 389.849C408.316 390.636 408.72 391.29 409.449 391.803C410.166 392.331 410.998 392.569 411.938 392.508L425.673 391.6ZM461.953 384.263C461.242 383.73 460.41 383.497 459.47 383.552L445.735 384.461C444.795 384.532 444.018 384.872 443.415 385.486C442.782 386.084 442.511 386.785 442.571 387.576C442.656 388.368 443.06 389.017 443.789 389.535C444.512 390.063 445.332 390.296 446.278 390.245L460.013 389.332C460.947 389.266 461.724 388.926 462.333 388.307C462.96 387.708 463.243 387.008 463.177 386.216C463.098 385.425 462.688 384.775 461.953 384.263ZM496.293 381.995C495.576 381.462 494.744 381.229 493.81 381.284L480.075 382.193C479.135 382.259 478.364 382.604 477.749 383.218C477.128 383.821 476.845 384.517 476.911 385.308C476.99 386.1 477.399 386.749 478.129 387.267C478.846 387.789 479.678 388.028 480.612 387.972L494.346 387.069C495.287 386.998 496.058 386.658 496.673 386.039C497.294 385.435 497.577 384.74 497.51 383.943C497.432 383.157 497.022 382.502 496.293 381.995ZM530.633 379.722C529.916 379.194 529.09 378.96 528.144 379.016L514.409 379.919C513.475 379.99 512.698 380.335 512.089 380.949C511.462 381.553 511.179 382.243 511.251 383.04C511.33 383.832 511.739 384.481 512.469 384.994C513.18 385.521 514.011 385.76 514.952 385.704L528.686 384.796C529.627 384.73 530.404 384.385 531.007 383.771C531.639 383.167 531.917 382.467 531.85 381.675C531.766 380.889 531.368 380.234 530.633 379.722ZM50.4402 46.6781C49.729 46.1504 48.8974 45.912 47.9572 45.9678L34.2224 46.876C33.2823 46.942 32.5048 47.287 31.9021 47.901C31.2693 48.5048 30.9921 49.205 31.0584 49.9966C31.1428 50.7831 31.5465 51.4377 32.2758 51.9501C32.9929 52.4778 33.8186 52.7112 34.7588 52.6554L48.4996 51.7522C49.4337 51.6812 50.2112 51.3412 50.8199 50.7272C51.4466 50.1183 51.7299 49.4283 51.6636 48.6316C51.5792 47.8401 51.1754 47.1906 50.4402 46.6781ZM68.0199 409.42C67.0798 409.486 66.3024 409.826 65.6937 410.445C65.0669 411.044 64.7897 411.744 64.85 412.536C64.9343 413.322 65.3441 413.977 66.0733 414.489C66.7905 415.017 67.6102 415.255 68.5563 415.2L82.2911 414.291C83.2253 414.22 84.0027 413.88 84.6174 413.266C85.2382 412.668 85.5214 411.967 85.4491 411.176C85.3768 410.379 84.9669 409.73 84.2317 409.217C83.5205 408.69 82.6889 408.456 81.7487 408.507L68.0199 409.42Z" fill="#330A61"/>
<rect x="114.899" y="181.085" width="89.0877" height="73.0509" rx="10" transform="rotate(-4.84647 114.899 181.085)" fill="#660DFF"/>
<path d="M114.979 186.025C114.318 183.834 115.501 181.362 117.622 180.504L173.962 157.688C176.775 156.549 179.767 157.981 180.644 160.887C181.608 164.081 179.616 167.645 176.42 168.446L128.675 180.401C127.139 180.786 125.748 181.739 124.758 183.083L121.924 186.936C119.891 189.698 115.93 189.178 114.979 186.025Z" fill="#660DFF"/>
<path d="M113.975 237.419C113.621 233.24 116.721 229.564 120.901 229.21L170.705 224.987C174.884 224.633 178.559 227.733 178.914 231.913C179.268 236.092 176.167 239.767 171.988 240.122L122.184 244.344C118.005 244.699 114.329 241.598 113.975 237.419Z" fill="#BB7DE7"/>
<path d="M180.667 206.595C180.201 201.092 184.283 196.253 189.787 195.786L234.797 191.97C240.3 191.503 245.139 195.586 245.606 201.089L246.055 206.385C246.521 211.888 242.438 216.727 236.935 217.194L191.925 221.01C186.422 221.477 181.583 217.394 181.116 211.891L180.667 206.595Z" fill="#BB7DE7"/>
<rect x="91.1299" y="212.136" width="53.2135" height="15.1888" rx="7.59441" transform="rotate(-4.84647 91.1299 212.136)" fill="#BB7DE7"/>
<rect x="96.6289" y="192.071" width="53.2135" height="15.1888" rx="7.59441" transform="rotate(-4.84647 96.6289 192.071)" fill="#BB7DE7"/>
<ellipse cx="193.64" cy="207.436" rx="7.4738" ry="8.31768" transform="rotate(-4.84647 193.64 207.436)" fill="#660DFF"/>
<path d="M237.827 241.735C234.383 242.027 231.213 241.504 228.316 240.165C225.458 238.78 223.128 236.794 221.324 234.207C219.517 231.577 218.467 228.54 218.175 225.096C217.883 221.652 218.408 218.503 219.75 215.649C221.093 212.795 223.058 210.466 225.645 208.662C228.275 206.855 231.312 205.805 234.756 205.513C237.222 205.304 239.555 205.556 241.757 206.268C243.954 206.939 245.883 207.974 247.544 209.375C249.243 210.729 250.521 212.419 251.378 214.445L244.314 218.255C243.529 216.566 242.326 215.255 240.705 214.322C239.127 213.385 237.36 213 235.405 213.166C233.576 213.321 231.978 213.906 230.608 214.921C229.28 215.933 228.28 217.26 227.605 218.901C226.931 220.543 226.68 222.384 226.853 224.425C227.026 226.465 227.583 228.238 228.524 229.742C229.466 231.247 230.676 232.386 232.154 233.16C233.675 233.93 235.35 234.238 237.178 234.083C239.176 233.913 240.874 233.234 242.272 232.045C243.67 230.856 244.612 229.342 245.098 227.502L252.713 230.196C252.199 232.21 251.243 234.068 249.846 235.77C248.445 237.431 246.72 238.797 244.67 239.87C242.616 240.901 240.335 241.523 237.827 241.735ZM276.88 238.424C273.479 238.712 270.309 238.189 267.37 236.854C264.473 235.515 262.08 233.556 260.191 230.975C258.345 228.391 257.274 225.356 256.979 221.87C256.683 218.384 257.228 215.212 258.612 212.354C260.04 209.493 262.069 207.158 264.699 205.351C267.329 203.544 270.365 202.494 273.809 202.202C277.21 201.914 280.359 202.439 283.256 203.777C286.153 205.116 288.524 207.077 290.371 209.661C292.256 212.199 293.348 215.232 293.647 218.761C293.943 222.247 293.377 225.421 291.949 228.283C290.522 231.144 288.493 233.478 285.863 235.286C283.233 237.093 280.239 238.139 276.88 238.424ZM276.231 230.771C278.102 230.613 279.701 230.028 281.028 229.016C282.398 228.001 283.42 226.672 284.095 225.031C284.808 223.343 285.08 221.5 284.91 219.502C284.737 217.461 284.161 215.712 283.181 214.253C282.24 212.749 281.008 211.611 279.487 210.841C278.005 210.025 276.329 209.696 274.458 209.854C272.545 210.017 270.905 210.627 269.539 211.685C268.169 212.7 267.126 214.03 266.409 215.675C265.731 217.274 265.478 219.094 265.651 221.135C265.821 223.133 266.378 224.906 267.323 226.453C268.306 227.954 269.559 229.089 271.08 229.859C272.601 230.63 274.318 230.934 276.231 230.771ZM301.453 235.57L298.512 200.878L306.355 200.213L306.934 207.037L306.194 205.879C306.825 203.727 308.009 202.043 309.747 200.825C311.524 199.561 313.645 198.824 316.111 198.615C318.662 198.399 320.962 198.761 323.012 199.7C325.104 200.636 326.787 202.056 328.062 203.961C329.333 205.823 330.078 208.05 330.298 210.644L332.191 232.963L323.837 233.672L322.112 213.329C321.982 211.798 321.573 210.506 320.884 209.451C320.195 208.396 319.294 207.616 318.18 207.111C317.106 206.56 315.867 206.343 314.464 206.462C313.104 206.578 311.919 206.999 310.911 207.727C309.898 208.412 309.141 209.333 308.64 210.489C308.138 211.645 307.952 212.988 308.082 214.518L309.807 234.861L301.453 235.57ZM339.255 232.365L336.313 197.673L344.667 196.965L347.609 231.656L339.255 232.365ZM335.984 193.783L335.227 184.855L343.581 184.147L344.338 193.075L335.984 193.783ZM383.124 241.491L381.475 222.041L382.954 223.585C381.923 225.557 380.387 227.143 378.348 228.343C376.305 229.501 374.03 230.187 371.521 230.399C368.163 230.684 365.099 230.152 362.329 228.802C359.557 227.41 357.288 225.397 355.523 222.764C353.758 220.13 352.733 217.134 352.449 213.775C352.16 210.374 352.666 207.248 353.966 204.398C355.265 201.547 357.165 199.202 359.664 197.363C362.205 195.52 365.113 194.46 368.386 194.183C371.022 193.959 373.405 194.292 375.536 195.182C377.706 196.026 379.465 197.333 380.814 199.102L380.131 200.895L379.547 194.007L387.455 193.337L391.478 240.783L383.124 241.491ZM371.765 222.671C373.678 222.509 375.32 221.92 376.69 220.905C378.059 219.889 379.081 218.561 379.756 216.92C380.473 215.274 380.745 213.432 380.572 211.391C380.402 209.393 379.826 207.643 378.842 206.142C377.897 204.595 376.664 203.437 375.143 202.666C373.622 201.896 371.905 201.592 369.992 201.754C368.121 201.913 366.481 202.523 365.073 203.584C363.66 204.603 362.596 205.935 361.879 207.58C361.201 209.179 360.948 210.999 361.121 213.04C361.294 215.081 361.852 216.853 362.793 218.358C363.776 219.859 365.05 220.993 366.614 221.759C368.177 222.526 369.895 222.83 371.765 222.671Z" fill="#660DFF"/>
</svg>
