<svg width="416" height="566" viewBox="0 0 416 566" fill="none" xmlns="http://www.w3.org/2000/svg">
<path d="M87.9345 102.645C87.9345 117.22 85.977 139.454 83.5589 139.454C81.1444 139.454 79.1833 117.22 79.1833 102.645C79.1833 88.0663 81.1444 76.2473 83.5589 76.2473C85.977 76.2473 87.9345 88.0663 87.9345 102.645Z" fill="#B1E079"/>
<path d="M101.027 115.723C95.3743 126.862 85.2523 141.747 83.4099 139.157C81.5604 136.564 88.6851 117.477 94.3416 106.334C99.9946 95.1977 106.072 88.2687 107.922 90.8616C109.768 93.4544 106.68 104.587 101.027 115.723Z" fill="#B1E079"/>
<path d="M66.095 115.723C71.748 126.862 81.87 141.747 83.7124 139.157C85.5583 136.564 78.4336 117.477 72.7771 106.334C67.1241 95.1977 61.0465 88.2687 59.2006 90.8616C57.3511 93.4544 60.442 104.587 66.095 115.723Z" fill="#B1E079"/>
<path d="M94.7511 107.071C91.8436 120.827 85.5682 140.721 83.2868 139.392C81.0091 138.056 83.5891 116.002 86.4965 102.249C89.404 88.4933 93.6068 78.4243 95.881 79.7564C98.1623 81.0885 97.6585 93.3188 94.7511 107.071Z" fill="#B1E079"/>
<path d="M72.3672 107.071C75.2747 120.827 81.5537 140.721 83.8351 139.392C86.1092 138.056 83.5292 116.002 80.6254 102.249C77.7179 88.4933 73.5151 78.4243 71.2374 79.7564C68.956 81.0885 69.4634 93.3188 72.3672 107.071Z" fill="#B1E079"/>
<path d="M99.3658 121.561H67.7545L71.5651 162.397H95.5515L99.3658 121.561Z" fill="#4C6C8F"/>
<path d="M222.394 102.645C222.394 117.22 220.436 139.454 218.018 139.454C215.6 139.454 213.643 117.22 213.643 102.645C213.643 88.0663 215.6 76.2473 218.018 76.2473C220.436 76.2473 222.394 88.0663 222.394 102.645Z" fill="#B1E079"/>
<path d="M235.487 115.723C229.834 126.862 219.712 141.747 217.866 139.157C216.02 136.564 223.144 117.477 228.801 106.334C234.454 95.1977 240.531 88.2687 242.377 90.8616C244.227 93.4544 241.136 104.587 235.487 115.723Z" fill="#B1E079"/>
<path d="M200.551 115.723C206.204 126.862 216.326 141.747 218.172 139.157C220.018 136.564 212.893 117.477 207.237 106.334C201.584 95.1977 195.506 88.2687 193.66 90.8616C191.811 93.4544 194.902 104.587 200.551 115.723Z" fill="#B1E079"/>
<path d="M229.21 107.071C226.303 120.827 220.024 140.721 217.746 139.392C215.468 138.056 218.048 116.002 220.956 102.249C223.86 88.4933 228.063 78.4243 230.34 79.7564C232.622 81.0885 232.118 93.3188 229.21 107.071Z" fill="#B1E079"/>
<path d="M206.826 107.071C209.734 120.827 216.013 140.721 218.291 139.392C220.568 138.056 217.988 116.002 215.081 102.249C212.177 88.4933 207.974 78.4243 205.696 79.7564C203.415 81.0885 203.919 93.3188 206.826 107.071Z" fill="#B1E079"/>
<path d="M233.825 121.561H202.214L206.024 162.397H230.011L233.825 121.561Z" fill="#4C6C8F"/>
<path d="M356.853 102.645C356.853 117.22 354.891 139.454 352.477 139.454C350.059 139.454 348.101 117.22 348.101 102.645C348.101 88.0663 350.059 76.2473 352.477 76.2473C354.891 76.2473 356.853 88.0663 356.853 102.645Z" fill="#B1E079"/>
<path d="M369.943 115.723C364.29 126.862 354.167 141.747 352.325 139.157C350.479 136.564 357.604 117.477 363.26 106.334C368.91 95.1977 374.991 88.2687 376.837 90.8616C378.686 93.4544 375.595 104.587 369.943 115.723Z" fill="#B1E079"/>
<path d="M335.01 115.723C340.663 126.862 350.785 141.747 352.631 139.157C354.477 136.564 347.352 117.477 341.696 106.334C336.043 95.1977 329.965 88.2687 328.116 90.8616C326.27 93.4544 329.357 104.587 335.01 115.723Z" fill="#B1E079"/>
<path d="M363.67 107.071C360.763 120.827 354.484 140.721 352.202 139.392C349.928 138.056 352.508 116.002 355.412 102.249C358.319 88.4933 362.522 78.4243 364.8 79.7564C367.081 81.0885 366.574 93.3188 363.67 107.071Z" fill="#B1E079"/>
<path d="M341.286 107.071C344.193 120.827 350.469 140.721 352.75 139.392C355.028 138.056 352.448 116.002 349.54 102.249C346.637 88.4933 342.43 78.4243 340.156 79.7564C337.875 81.0885 338.378 93.3188 341.286 107.071Z" fill="#B1E079"/>
<path d="M368.284 121.561H336.673L340.483 162.397H364.47L368.284 121.561Z" fill="#4C6C8F"/>
<path d="M864.921 565.999H28.8368V447.557H864.921V565.999Z" fill="#4E7786"/>
<path d="M463.183 464.814H313.756V565.996H463.183V464.814Z" fill="#4C6D8F"/>
<path d="M308.103 459.479V566H313.753V464.814H385.644V566H391.293V464.814H463.184V566H468.833V459.479H308.103Z" fill="#44607E"/>
<path d="M403.825 519.382H399.323V506.095H403.825V519.382Z" fill="#6BAEC1"/>
<path d="M377.615 519.382H373.114V506.095H377.615V519.382Z" fill="#6BAEC1"/>
<path d="M219.688 496.381H21.2261C15.3104 496.381 10.5175 500.908 10.5175 506.495V520.652H230.4V506.495C230.4 500.908 225.603 496.381 219.688 496.381Z" fill="#B1E079"/>
<path d="M0 520.65H238.605V565.999H0V520.65Z" fill="#4C6C8F"/>
<path d="M238.605 530.766H0V520.65H238.605V530.766Z" fill="#6BAEC1"/>
<mask id="mask0_10_3958" style="mask-type:luminance" maskUnits="userSpaceOnUse" x="28" y="132" width="837" height="31">
<path d="M28.8368 132.388H864.928V162.398H28.8368V132.388Z" fill="white"/>
</mask>
<g mask="url(#mask0_10_3958)">
<g opacity="0.5">
<path d="M864.921 132.388H28.8368V162.395H864.921V132.388Z" fill="#9CDAD5"/>
</g>
</g>
<path d="M212.171 186.452V302.25H35.5909V321.889H212.171V435.458H854.425V186.452H212.171Z" fill="#4C6C8F"/>
<path d="M854.425 361.691H212.013V347.343H854.425V361.691Z" fill="#44607D"/>
<path d="M854.425 391.299H212.013V376.956H854.425V391.299Z" fill="#44607D"/>
<path d="M854.425 420.905H212.013V406.561H854.425V420.905Z" fill="#44607D"/>
<path d="M39.4377 435.46H854.45V186.417H39.4377V435.46ZM879.822 459.478H14.0624V162.395H879.822V459.478Z" fill="#6BA8BF"/>
<path d="M497.892 267.342H336.533V224.107H497.892V267.342Z" fill="#78D1CC"/>
<path d="M415.322 267.343H391.357L345.579 224.107H369.598L415.322 267.343Z" fill="#C9F7F2"/>
<path d="M463.755 267.343H451.777L405.995 224.107H417.978L463.755 267.343Z" fill="#C9F7F2"/>
<path d="M338.656 265.338H495.773V226.112H338.656V265.338ZM500.012 269.344H334.417V222.109H500.012V269.344Z" fill="#31616D"/>
<path d="M210.146 302.252H41.5538V188.459H210.146V302.252Z" fill="#78D1CC"/>
<path d="M172.843 302.251H148.882L41.5544 200.892V188.458H52.3494L172.843 302.251Z" fill="#C9F7F2"/>
<path d="M210.144 291.787V302.251H209.241L88.7476 188.457H100.726L210.144 291.787Z" fill="#C9F7F2"/>
<path d="M210.143 266.221V277.537L115.763 188.456H127.796L210.143 266.221Z" fill="#C9F7F2"/>
<path d="M43.6762 300.247H208.029V190.457H43.6762V300.247ZM212.265 304.247H39.4375V186.451H212.265V304.247Z" fill="#31616D"/>
<path d="M210.146 433.458H41.5538V319.665H210.146V433.458Z" fill="#78D1CC"/>
<path d="M172.843 433.458H148.882L41.5544 332.099V319.665H52.3494L172.843 433.458Z" fill="#C9F7F2"/>
<path d="M210.144 422.998V433.457H209.241L88.7476 319.664H100.726L210.144 422.998Z" fill="#C9F7F2"/>
<path d="M210.143 397.431V408.744L115.763 319.663H127.796L210.143 397.431Z" fill="#C9F7F2"/>
<path d="M43.6762 431.456H208.029V321.663H43.6762V431.456ZM212.265 435.46H39.4375V317.663H212.265V435.46Z" fill="#31616D"/>
<path d="M459.12 401.607H248.824V366.645H459.12V401.607Z" fill="#2C3E4F"/>
<path d="M346.711 401.606H322.746L285.727 366.645H309.749L346.711 401.606Z" fill="#324659"/>
<path d="M395.145 401.606H383.162L346.146 366.645H358.125L395.145 401.606Z" fill="#324659"/>
<path d="M422.216 401.606H410.234L373.16 366.645H385.197L422.216 401.606Z" fill="#324659"/>
<path d="M250.94 399.605H457.001V368.647H250.94V399.605ZM461.24 403.608H246.701V364.644H461.24V403.608Z" fill="#2C3E4F"/>
</svg>
