<svg width="725" height="894" viewBox="0 0 725 894" fill="none" xmlns="http://www.w3.org/2000/svg">
<mask id="mask0_10_492" style="mask-type:luminance" maskUnits="userSpaceOnUse" x="0" y="0" width="725" height="891">
<path d="M0 0H725V891H0V0Z" fill="white"/>
</mask>
<g mask="url(#mask0_10_492)">
<path d="M119.803 802.454H611.376V113.595H119.803V802.454Z" fill="#6EC7C6"/>
<path d="M611.376 113.595H119.803V159.995H611.376V113.595Z" fill="#60ADAD"/>
</g>
<path d="M119.805 353.162H611.378V159.991H119.805V353.162Z" fill="url(#paint0_linear_10_492)"/>
<mask id="mask1_10_492" style="mask-type:luminance" maskUnits="userSpaceOnUse" x="0" y="0" width="725" height="891">
<path d="M0 0H725V891H0V0Z" fill="white"/>
</mask>
<g mask="url(#mask1_10_492)">
<path d="M119.803 390.525H611.376V353.164H119.803V390.525Z" fill="#60ADAD"/>
</g>
<path d="M119.805 802.454H611.378V390.527H119.805V802.454Z" fill="url(#paint1_linear_10_492)"/>
<path d="M105.566 135.5H625.614V113.593H105.566V135.5Z" fill="url(#paint2_linear_10_492)"/>
<path d="M105.566 150.516H625.614V139.562H105.566V150.516Z" fill="url(#paint3_linear_10_492)"/>
<path d="M105.566 364.296H625.614V342.388H105.566V364.296Z" fill="url(#paint4_linear_10_492)"/>
<path d="M105.566 379.313H625.614V368.359H105.566V379.313Z" fill="url(#paint5_linear_10_492)"/>
<path d="M125.701 79.4028H273.598V57.8442H125.701V79.4028Z" fill="url(#paint6_linear_10_492)"/>
<mask id="mask2_10_492" style="mask-type:luminance" maskUnits="userSpaceOnUse" x="0" y="0" width="725" height="891">
<path d="M0 0H725V891H0V0Z" fill="white"/>
</mask>
<g mask="url(#mask2_10_492)">
<path d="M261.703 113.595H137.595V79.4058H261.703V113.595Z" fill="#6EC7C6"/>
<path d="M261.703 79.4058H137.595V91.6304H261.703V79.4058Z" fill="#60ADAD"/>
<path d="M137.593 113.595H261.702V91.6304H137.593V113.595Z" fill="#6EC7C6"/>
</g>
<path d="M467.03 326.77H597.551V177.572H467.03V326.77Z" fill="url(#paint7_linear_10_492)"/>
<mask id="mask3_10_492" style="mask-type:luminance" maskUnits="userSpaceOnUse" x="0" y="0" width="725" height="891">
<path d="M0 0H725V891H0V0Z" fill="white"/>
</mask>
<g mask="url(#mask3_10_492)">
<path d="M475.973 187.502V276.727H505.308L577.911 187.502H475.973Z" fill="#2C3E4F"/>
<path d="M588.609 237.979L557.08 276.727H588.609V237.979Z" fill="#2C3E4F"/>
<path d="M588.609 187.502H577.911L505.309 276.727H557.08L588.609 237.979V187.502Z" fill="#324659"/>
<path d="M475.973 290.872V312.782L493.8 290.872H475.973Z" fill="#2C3E4F"/>
<path d="M524.436 316.844H588.609V290.871H545.57L524.436 316.844Z" fill="#2C3E4F"/>
<path d="M493.8 290.872L475.973 312.782V316.845H524.437L545.57 290.872H493.8Z" fill="#324659"/>
</g>
<path d="M300.389 326.77H430.908V177.572H300.389V326.77Z" fill="url(#paint8_linear_10_492)"/>
<mask id="mask4_10_492" style="mask-type:luminance" maskUnits="userSpaceOnUse" x="0" y="0" width="725" height="891">
<path d="M0 0H725V891H0V0Z" fill="white"/>
</mask>
<g mask="url(#mask4_10_492)">
<path d="M403.296 187.502H309.331V276.727H330.695L403.296 187.502Z" fill="#2C3E4F"/>
<path d="M421.967 203.38L362.283 276.727H421.967V203.38Z" fill="#2C3E4F"/>
<path d="M421.967 187.502H403.296L330.695 276.727H362.283L421.967 203.38V187.502Z" fill="#324659"/>
<path d="M309.33 290.872V302.984L319.186 290.872H309.33Z" fill="#2C3E4F"/>
<path d="M319.186 290.872L309.33 302.984V316.845H329.64L350.774 290.872H319.186Z" fill="#324659"/>
<path d="M329.641 316.844H421.967V290.871H350.775L329.641 316.844Z" fill="#2C3E4F"/>
</g>
<mask id="mask5_10_492" style="mask-type:luminance" maskUnits="userSpaceOnUse" x="0" y="0" width="725" height="891">
<path d="M0 0H725V891H0V0Z" fill="white"/>
</mask>
<g mask="url(#mask5_10_492)">
<path d="M403.296 187.502H309.331V276.727H330.695L403.296 187.502Z" fill="#2C3E4F"/>
<path d="M421.967 203.38L362.283 276.727H421.967V203.38Z" fill="#2C3E4F"/>
<path d="M421.967 187.502H403.296L330.695 276.727H362.283L421.967 203.38V187.502Z" fill="#324659"/>
<path d="M309.33 290.872V302.984L319.186 290.872H309.33Z" fill="#2C3E4F"/>
<path d="M319.186 290.872L309.33 302.984V316.845H329.64L350.774 290.872H319.186Z" fill="#324659"/>
<path d="M329.641 316.844H421.967V290.871H350.775L329.641 316.844Z" fill="#2C3E4F"/>
</g>
<path d="M133.747 326.77H264.265V177.572H133.747V326.77Z" fill="url(#paint9_linear_10_492)"/>
<mask id="mask6_10_492" style="mask-type:luminance" maskUnits="userSpaceOnUse" x="0" y="2" width="725" height="892">
<path d="M0 2.54816H725V893.548H0V2.54816Z" fill="white"/>
</mask>
<g mask="url(#mask6_10_492)">
<path d="M255.324 190.05H241.845L169.243 279.275H216.627L255.324 231.717V190.05Z" fill="#324659"/>
<path d="M255.324 231.717L216.626 279.275H255.324V231.717Z" fill="#2C3E4F"/>
<path d="M241.845 190.05H142.688V279.275H169.244L241.845 190.05Z" fill="#2C3E4F"/>
<path d="M157.734 293.42L142.688 311.91V319.393H183.983L205.117 293.42H157.734Z" fill="#324659"/>
<path d="M183.983 319.392H255.325V293.42H205.117L183.983 319.392Z" fill="#2C3E4F"/>
<path d="M142.689 293.42V311.91L157.734 293.42H142.689Z" fill="#2C3E4F"/>
</g>
<path d="M459.917 805.002H597.549V488.59H459.917V805.002Z" fill="url(#paint10_linear_10_492)"/>
<mask id="mask7_10_492" style="mask-type:luminance" maskUnits="userSpaceOnUse" x="0" y="0" width="725" height="891">
<path d="M0 0H725V891H0V0Z" fill="white"/>
</mask>
<g mask="url(#mask7_10_492)">
<path d="M538.51 499.046H469.347V528.745H514.344L538.51 499.046Z" fill="#2C3E4F"/>
<path d="M568.344 499.046H538.51L514.345 528.745H544.178L568.344 499.046Z" fill="#324659"/>
<path d="M588.12 499.046H568.344L544.178 528.745H566.115H588.12V499.046Z" fill="#2C3E4F"/>
</g>
<path d="M459.917 475.831H597.549V400.082H459.917V475.831Z" fill="url(#paint11_linear_10_492)"/>
<mask id="mask8_10_492" style="mask-type:luminance" maskUnits="userSpaceOnUse" x="0" y="0" width="725" height="891">
<path d="M0 0H725V891H0V0Z" fill="white"/>
</mask>
<g mask="url(#mask8_10_492)">
<path d="M469.346 410.011V465.905H493.526L539.006 410.011H469.346Z" fill="#2C3E4F"/>
<path d="M539.006 410.011L493.526 465.905H520.727L566.206 410.011H539.006Z" fill="#324659"/>
<path d="M520.726 465.905H588.121V410.01H566.206L520.726 465.905Z" fill="#2C3E4F"/>
<path d="M588.12 693.198H469.346V542.669H588.12V693.198Z" fill="#2C3E4F"/>
<mask id="mask9_10_492" style="mask-type:luminance" maskUnits="userSpaceOnUse" x="470" y="704" width="117" height="69">
<path d="M470.751 704.314H586.715V772.46H470.751V704.314Z" fill="white"/>
</mask>
<g mask="url(#mask9_10_492)">
<g opacity="0.289993">
<path d="M578.135 714.858H479.329V761.915H578.135V714.858ZM470.753 704.314H586.716V772.459H470.753V704.314Z" fill="#2C3E4F"/>
</g>
</g>
<path d="M469.346 542.67V647.671L554.785 542.67H469.346Z" fill="#2C3E4F"/>
<path d="M580.23 542.67H554.784L469.346 647.671V678.943L580.23 542.67Z" fill="#324659"/>
<path d="M580.23 542.67L469.346 678.943V693.199H588.12V542.67H580.23Z" fill="#2C3E4F"/>
<path d="M574.368 661.467L492.328 656.693C488.725 656.483 485.941 652.723 486.111 648.293L487.894 601.989C488.065 597.559 491.126 594.14 494.729 594.348L576.769 599.122C580.374 599.332 583.158 603.092 582.985 607.522L581.203 653.826C581.032 658.256 577.971 661.676 574.368 661.467Z" fill="#F4F4F4"/>
</g>
<mask id="mask10_10_492" style="mask-type:luminance" maskUnits="userSpaceOnUse" x="0" y="2" width="725" height="891">
<path d="M0 2H725V893H0V2Z" fill="white"/>
</mask>
<g mask="url(#mask10_10_492)">
<path d="M537.21 556.568C537.21 558.051 536.232 559.253 535.025 559.253C533.819 559.253 532.841 558.051 532.841 556.568C532.841 555.085 533.819 553.884 535.025 553.884C536.232 553.884 537.21 555.085 537.21 556.568Z" fill="#F4F4F4"/>
<path d="M493.638 599.559L493.399 599.208L534.092 557.543L534.331 557.894L493.638 599.559Z" fill="#F4F4F4"/>
<path d="M576.084 604.357L534.9 557.887L535.152 557.55L576.338 604.02L576.084 604.357Z" fill="#F4F4F4"/>
<path d="M464.768 679.263H464.966C466.751 679.263 468.199 677.483 468.199 675.289V620.113C468.199 617.918 466.751 616.137 464.966 616.137H464.768C462.982 616.137 461.535 617.918 461.535 620.113V675.289C461.535 677.483 462.982 679.263 464.768 679.263Z" fill="#F4F4F4"/>
<path d="M133.746 488.043V658.801L272.691 488.043H133.746Z" fill="#2C3E4F"/>
<path d="M272.691 488.043L133.747 658.801V695.198H140.984L309.545 488.043H272.691Z" fill="#324659"/>
<path d="M449.719 590.758L364.736 695.198H449.719V590.758Z" fill="#2C3E4F"/>
<path d="M449.719 535.762L319.984 695.199H364.736L449.719 590.758V535.762Z" fill="#324659"/>
<path d="M449.719 488.043H309.544L140.983 695.198H319.984L449.719 535.761V488.043Z" fill="#2C3E4F"/>
<path d="M151.927 488.042H123.259V455.585H151.927V488.042Z" fill="#76548F"/>
<path d="M460.204 488.042H431.536V455.585H460.204V488.042Z" fill="#76548F"/>
<path d="M431.537 454.59L399.188 386.421H421.223L460.205 454.59V455.586H431.537V454.59Z" fill="#9066AE"/>
<path d="M162.242 386.421H184.276L151.928 454.589V455.586H123.26V454.589L162.242 386.421Z" fill="#9066AE"/>
<path d="M177.684 488.042H151.927V455.585H177.684V488.042Z" fill="#D5D5D5"/>
<path d="M431.537 488.042H405.779V455.585H431.537V488.042Z" fill="#D5D5D5"/>
<path d="M177.685 455.586H151.927V454.589L184.275 386.421H204.073L177.685 454.589V455.586Z" fill="#F4F4F4"/>
<path d="M431.537 455.586H405.779V454.589L379.391 386.421H399.188L431.537 454.589V455.586Z" fill="#F4F4F4"/>
<path d="M202.814 488.042H177.684V455.585H202.814V488.042Z" fill="#76548F"/>
<path d="M405.78 488.042H380.651V455.585H405.78V488.042Z" fill="#76548F"/>
<path d="M405.78 455.586H380.651V454.589L360.076 386.421H379.391L405.78 454.589V455.586Z" fill="#9066AE"/>
<path d="M202.814 455.586H177.684V454.589L204.074 386.421H223.388L202.814 454.589V455.586Z" fill="#9066AE"/>
<path d="M380.651 488.042H353.008V455.585H380.651V488.042Z" fill="#D5D5D5"/>
<path d="M230.456 488.042H202.814V455.585H230.456V488.042Z" fill="#D5D5D5"/>
<path d="M380.651 455.586H353.009V454.589L338.83 386.421H360.077L380.651 454.589V455.586Z" fill="#F4F4F4"/>
<path d="M230.456 455.586H202.815V454.589L223.387 386.421H244.634L230.456 454.589V455.586Z" fill="#F4F4F4"/>
<path d="M257.469 488.042H230.456V455.585H257.469V488.042Z" fill="#76548F"/>
<path d="M353.008 488.042H325.995V455.585H353.008V488.042Z" fill="#76548F"/>
<path d="M257.469 455.586H230.456V454.589L244.634 386.421H265.398L257.469 454.589V455.586Z" fill="#9066AE"/>
<path d="M353.009 455.586H325.995V454.589L318.066 386.421H338.83L353.009 454.589V455.586Z" fill="#9066AE"/>
<path d="M280.086 488.042H257.469V455.585H280.086V488.042Z" fill="#D5D5D5"/>
<path d="M325.995 488.042H303.379V455.585H325.995V488.042Z" fill="#D5D5D5"/>
<path d="M280.086 455.586H257.469V454.589L265.397 386.421H282.78L280.086 454.589V455.586Z" fill="#F4F4F4"/>
<path d="M325.995 455.586H303.379V454.589L300.683 386.421H318.067L325.995 454.589V455.586Z" fill="#F4F4F4"/>
<path d="M303.379 455.586V488.043H291.732H280.086V455.586H303.379Z" fill="#76548F"/>
<path d="M303.379 455.586H280.086V454.589L282.78 386.421H291.732H300.685L303.379 454.589V455.586Z" fill="#9066AE"/>
<mask id="mask11_10_492" style="mask-type:luminance" maskUnits="userSpaceOnUse" x="335" y="706" width="117" height="69">
<path d="M335.234 706.314H451.197V774.46H335.234V706.314Z" fill="white"/>
</mask>
<g mask="url(#mask11_10_492)">
<g opacity="0.289993">
<path d="M442.618 716.858H343.814V763.915H442.618V716.858ZM335.233 706.314H451.197V774.459H335.233V706.314Z" fill="#2C3E4F"/>
</g>
</g>
<mask id="mask12_10_492" style="mask-type:luminance" maskUnits="userSpaceOnUse" x="132" y="706" width="117" height="69">
<path d="M132.268 706.314H248.231V774.46H132.268V706.314Z" fill="white"/>
</mask>
<g mask="url(#mask12_10_492)">
<g opacity="0.289993">
<path d="M239.652 716.858H140.847V763.915H239.652V716.858ZM132.268 706.314H248.231V774.459H132.268V706.314Z" fill="#2C3E4F"/>
</g>
</g>
</g>
<mask id="mask13_10_492" style="mask-type:luminance" maskUnits="userSpaceOnUse" x="0" y="3" width="725" height="891">
<path d="M0 3H725V894H0V3Z" fill="white"/>
</mask>
<g mask="url(#mask13_10_492)">
<path d="M216.295 826.041H290.534L319.361 680.263H245.123L216.295 826.041Z" fill="#523A63"/>
<path d="M348.938 826.041H274.698L245.87 680.263H320.11L348.938 826.041Z" fill="#9066AE"/>
<path d="M324.993 745.654H265.232C263.993 745.654 262.99 744.421 262.99 742.899C262.99 741.379 263.993 740.144 265.232 740.144H324.993C326.23 740.144 327.234 741.379 327.234 742.899C327.234 744.421 326.23 745.654 324.993 745.654Z" fill="#F4F4F4"/>
<path d="M328.524 762.545H268.763C267.524 762.545 266.521 761.312 266.521 759.792C266.521 758.272 267.524 757.037 268.763 757.037H328.524C329.763 757.037 330.766 758.272 330.766 759.792C330.766 761.312 329.763 762.545 328.524 762.545Z" fill="#F4F4F4"/>
<path d="M332.055 779.437H272.293C271.055 779.437 270.052 778.204 270.052 776.682C270.052 775.162 271.055 773.927 272.293 773.927H332.055C333.294 773.927 334.297 775.162 334.297 776.682C334.297 778.204 333.294 779.437 332.055 779.437Z" fill="#F4F4F4"/>
<path d="M335.585 796.326H275.823C274.585 796.326 273.582 795.093 273.582 793.573C273.582 792.053 274.585 790.818 275.823 790.818H335.585C336.822 790.818 337.825 792.053 337.825 793.573C337.825 795.093 336.822 796.326 335.585 796.326Z" fill="#F4F4F4"/>
<path d="M339.116 813.219H279.354C278.116 813.219 277.113 811.986 277.113 810.464C277.113 808.944 278.116 807.711 279.354 807.711H339.116C340.353 807.711 341.356 808.944 341.356 810.464C341.356 811.986 340.353 813.219 339.116 813.219Z" fill="#F4F4F4"/>
<path d="M259.589 700.808C259.078 700.808 258.588 700.726 258.121 700.562C257.659 700.399 257.241 700.168 256.866 699.871C256.497 699.574 256.186 699.226 255.934 698.826C255.688 698.426 255.521 697.99 255.434 697.517C255.347 697.045 255.353 696.608 255.452 696.208C255.557 695.808 255.743 695.46 256.008 695.163C256.274 694.866 256.607 694.636 257.009 694.472C257.41 694.309 257.863 694.227 258.368 694.227C258.88 694.227 259.363 694.309 259.818 694.472C260.28 694.636 260.695 694.866 261.064 695.163C261.439 695.46 261.753 695.808 262.005 696.208C262.256 696.602 262.426 697.038 262.514 697.517C262.601 697.99 262.592 698.429 262.489 698.835C262.384 699.235 262.198 699.584 261.932 699.881C261.672 700.171 261.341 700.399 260.94 700.562C260.545 700.726 260.094 700.808 259.589 700.808ZM259.349 699.553C259.639 699.553 259.895 699.505 260.117 699.408C260.346 699.311 260.536 699.172 260.687 698.99C260.838 698.808 260.941 698.593 260.993 698.344C261.052 698.096 261.054 697.82 260.998 697.517C260.942 697.214 260.839 696.939 260.689 696.69C260.544 696.442 260.363 696.226 260.145 696.045C259.933 695.863 259.694 695.724 259.43 695.627C259.166 695.53 258.889 695.481 258.599 695.481C258.31 695.481 258.051 695.53 257.822 695.627C257.599 695.724 257.413 695.863 257.261 696.045C257.11 696.226 257.005 696.442 256.946 696.69C256.893 696.939 256.894 697.214 256.95 697.517C257.005 697.814 257.105 698.09 257.25 698.344C257.401 698.593 257.582 698.808 257.794 698.99C258.012 699.172 258.254 699.311 258.518 699.408C258.782 699.505 259.059 699.553 259.349 699.553ZM264.225 700.699L263.053 694.336H265.854C266.433 694.336 266.949 694.43 267.403 694.618C267.856 694.799 268.228 695.063 268.519 695.408C268.811 695.754 269.001 696.166 269.089 696.645C269.176 697.117 269.137 697.526 268.973 697.872C268.808 698.217 268.534 698.484 268.149 698.672C267.764 698.853 267.282 698.944 266.702 698.944H264.734L265.277 698.281L265.722 700.699H264.225ZM265.307 698.444L264.513 697.744H266.398C266.86 697.744 267.188 697.648 267.38 697.454C267.572 697.26 267.637 696.99 267.573 696.645C267.508 696.293 267.344 696.02 267.08 695.827C266.817 695.633 266.454 695.536 265.992 695.536H264.106L264.643 694.836L265.307 698.444ZM271.582 696.899H274.696L274.907 698.044H271.792L271.582 696.899ZM272.174 699.517H275.696L275.913 700.699H270.904L269.733 694.336H274.622L274.839 695.518H271.438L272.174 699.517ZM277.105 700.699L275.933 694.336H277.172L281.832 698.917H281.232L280.388 694.336H281.867L283.038 700.699H281.809L277.139 696.117H277.74L278.583 700.699H277.105ZM284.569 700.699L283.398 694.336H284.895L286.066 700.699H284.569ZM287.602 700.699L286.43 694.336H287.669L292.329 698.917H291.728L290.885 694.336H292.364L293.535 700.699H292.306L287.636 696.117H288.237L289.08 700.699H287.602ZM298.21 700.808C297.699 700.808 297.213 700.729 296.752 700.571C296.297 700.408 295.882 700.177 295.507 699.881C295.138 699.584 294.827 699.235 294.575 698.835C294.329 698.435 294.162 697.996 294.074 697.517C293.985 697.038 293.991 696.599 294.09 696.199C294.195 695.799 294.38 695.451 294.646 695.154C294.912 694.857 295.246 694.63 295.648 694.472C296.049 694.309 296.509 694.227 297.026 694.227C297.599 694.227 298.131 694.321 298.621 694.509C299.118 694.696 299.557 694.969 299.937 695.327L299.136 696.199C298.857 695.957 298.569 695.778 298.27 695.663C297.971 695.542 297.658 695.481 297.331 695.481C297.017 695.481 296.739 695.53 296.498 695.627C296.257 695.724 296.058 695.863 295.9 696.045C295.749 696.226 295.644 696.442 295.585 696.69C295.532 696.939 295.534 697.214 295.589 697.517C295.644 697.814 295.743 698.087 295.888 698.335C296.038 698.584 296.223 698.802 296.443 698.99C296.667 699.172 296.915 699.311 297.185 699.408C297.462 699.505 297.754 699.553 298.062 699.553C298.358 699.553 298.636 699.508 298.897 699.417C299.162 699.32 299.407 699.159 299.631 698.935L300.677 699.999C300.373 700.259 300 700.459 299.558 700.599C299.121 700.738 298.672 700.808 298.21 700.808ZM299.274 699.808L298.833 697.417H300.201L300.677 699.999L299.274 699.808Z" fill="#F4F4F4"/>
<path d="M260.618 716.658L258.703 706.257H263.507C264.656 706.257 265.708 706.475 266.664 706.911C267.619 707.337 268.414 707.936 269.05 708.709C269.686 709.481 270.101 710.398 270.297 711.458C270.49 712.507 270.412 713.424 270.062 714.206C269.711 714.979 269.137 715.583 268.341 716.019C267.544 716.445 266.571 716.658 265.422 716.658H260.618ZM262.702 714.682H264.938C265.643 714.682 266.228 714.553 266.695 714.295C267.169 714.028 267.503 713.652 267.695 713.166C267.898 712.681 267.939 712.111 267.819 711.458C267.697 710.794 267.446 710.224 267.066 709.749C266.695 709.263 266.223 708.892 265.652 708.634C265.089 708.367 264.455 708.233 263.75 708.233H261.514L262.702 714.682ZM276.823 716.777C275.957 716.777 275.154 716.598 274.413 716.242C273.683 715.885 273.065 715.4 272.559 714.786C272.061 714.162 271.739 713.453 271.593 712.661C271.446 711.859 271.507 711.15 271.776 710.536C272.054 709.912 272.494 709.427 273.095 709.08C273.704 708.724 274.441 708.545 275.308 708.545C276.164 708.545 276.962 708.724 277.702 709.08C278.441 709.427 279.058 709.907 279.554 710.521C280.05 711.136 280.373 711.849 280.522 712.661C280.668 713.453 280.607 714.162 280.339 714.786C280.07 715.4 279.63 715.885 279.021 716.242C278.412 716.598 277.679 716.777 276.823 716.777ZM276.473 714.875C276.866 714.875 277.202 714.786 277.481 714.607C277.761 714.429 277.961 714.177 278.082 713.85C278.201 713.513 278.219 713.117 278.135 712.661C278.049 712.195 277.886 711.799 277.644 711.472C277.403 711.146 277.11 710.893 276.764 710.715C276.419 710.536 276.05 710.447 275.658 710.447C275.265 710.447 274.929 710.536 274.649 710.715C274.37 710.893 274.165 711.146 274.034 711.472C273.912 711.799 273.895 712.195 273.98 712.661C274.064 713.117 274.228 713.513 274.471 713.85C274.723 714.177 275.021 714.429 275.366 714.607C275.711 714.786 276.08 714.875 276.473 714.875ZM291.749 708.545C292.394 708.545 292.986 708.674 293.527 708.932C294.076 709.179 294.54 709.566 294.919 710.091C295.306 710.606 295.574 711.269 295.724 712.082L296.566 716.658H294.21L293.433 712.438C293.314 711.794 293.091 711.319 292.762 711.012C292.434 710.705 292.023 710.551 291.529 710.551C291.187 710.551 290.894 710.63 290.651 710.789C290.407 710.937 290.237 711.165 290.143 711.472C290.048 711.779 290.045 712.171 290.132 712.646L290.871 716.658H288.514L287.737 712.438C287.618 711.794 287.395 711.319 287.066 711.012C286.748 710.705 286.342 710.551 285.849 710.551C285.506 710.551 285.213 710.63 284.971 710.789C284.726 710.937 284.557 711.165 284.462 711.472C284.367 711.779 284.364 712.171 284.452 712.646L285.19 716.658H282.833L281.362 708.664H283.613L284.015 710.848L283.474 710.209C283.656 709.665 283.978 709.254 284.441 708.976C284.911 708.689 285.479 708.545 286.144 708.545C286.889 708.545 287.574 708.734 288.197 709.11C288.828 709.476 289.305 710.041 289.627 710.804L288.755 710.581C288.912 709.957 289.254 709.462 289.78 709.095C290.317 708.729 290.973 708.545 291.749 708.545ZM303.505 716.777C302.82 716.777 302.193 716.628 301.625 716.331C301.057 716.034 300.571 715.583 300.168 714.979C299.772 714.365 299.489 713.592 299.318 712.661C299.145 711.72 299.138 710.947 299.299 710.343C299.46 709.739 299.769 709.288 300.228 708.991C300.687 708.694 301.274 708.545 301.989 708.545C302.755 708.545 303.472 708.719 304.14 709.065C304.816 709.402 305.387 709.878 305.853 710.492C306.329 711.106 306.643 711.829 306.796 712.661C306.951 713.503 306.904 714.231 306.654 714.845C306.415 715.459 306.019 715.935 305.467 716.272C304.924 716.608 304.27 716.777 303.505 716.777ZM299.21 719.54L297.207 708.664H299.458L299.759 710.299L300.151 712.676L300.737 715.038L301.566 719.54H299.21ZM302.747 714.875C303.14 714.875 303.471 714.786 303.74 714.607C304.02 714.429 304.22 714.177 304.341 713.85C304.47 713.513 304.493 713.117 304.409 712.661C304.323 712.195 304.155 711.799 303.903 711.472C303.662 711.146 303.368 710.893 303.023 710.715C302.688 710.536 302.325 710.447 301.932 710.447C301.539 710.447 301.203 710.536 300.923 710.715C300.644 710.893 300.444 711.146 300.323 711.472C300.202 711.799 300.184 712.195 300.27 712.661C300.353 713.117 300.517 713.513 300.76 713.85C301.002 714.177 301.295 714.429 301.64 714.607C301.985 714.786 302.354 714.875 302.747 714.875ZM313.165 716.777C312.239 716.777 311.39 716.598 310.619 716.242C309.859 715.885 309.231 715.4 308.735 714.786C308.237 714.162 307.915 713.453 307.77 712.661C307.622 711.859 307.678 711.15 307.937 710.536C308.205 709.912 308.634 709.427 309.225 709.08C309.814 708.724 310.522 708.545 311.348 708.545C312.143 708.545 312.889 708.714 313.586 709.051C314.291 709.377 314.887 709.853 315.375 710.477C315.86 711.091 316.182 711.829 316.341 712.691C316.358 712.78 316.372 712.884 316.383 713.003C316.393 713.112 316.403 713.216 316.411 713.315H309.809L309.56 711.963H314.923L314.09 712.364C314.014 711.948 313.862 711.586 313.634 711.279C313.406 710.972 313.126 710.734 312.792 710.566C312.457 710.388 312.088 710.299 311.686 710.299C311.283 710.299 310.942 710.388 310.662 710.566C310.391 710.734 310.199 710.977 310.086 711.294C309.971 711.601 309.953 711.968 310.032 712.394L310.097 712.75C310.178 713.186 310.344 713.572 310.598 713.909C310.859 714.236 311.183 714.489 311.568 714.667C311.962 714.835 312.4 714.919 312.884 714.919C313.317 714.919 313.683 714.855 313.981 714.726C314.29 714.598 314.557 714.404 314.781 714.147L316.281 715.484C315.985 715.9 315.576 716.222 315.054 716.45C314.53 716.668 313.901 716.777 313.165 716.777ZM321.986 716.777C321.029 716.777 320.24 716.539 319.619 716.064C318.996 715.578 318.597 714.86 318.422 713.909L317.13 706.896H319.487L320.773 713.879C320.835 714.216 320.974 714.479 321.19 714.667C321.404 714.845 321.667 714.934 321.979 714.934C322.352 714.934 322.651 714.835 322.876 714.637L323.812 716.272C323.601 716.44 323.333 716.569 323.007 716.658C322.689 716.737 322.349 716.777 321.986 716.777ZM316.563 710.625L316.235 708.843H321.87L322.198 710.625H316.563ZM263.877 734.36L261.963 723.96H266.767C267.915 723.96 268.967 724.178 269.924 724.613C270.879 725.039 271.674 725.639 272.31 726.411C272.945 727.184 273.361 728.1 273.556 729.16C273.749 730.21 273.671 731.126 273.322 731.909C272.97 732.681 272.397 733.286 271.601 733.721C270.803 734.147 269.83 734.36 268.682 734.36H263.877ZM265.961 732.384H268.197C268.902 732.384 269.488 732.255 269.954 731.998C270.428 731.73 270.762 731.354 270.955 730.869C271.157 730.383 271.199 729.814 271.078 729.16C270.956 728.496 270.705 727.927 270.325 727.451C269.954 726.966 269.483 726.594 268.912 726.337C268.349 726.069 267.715 725.936 267.01 725.936H264.774L265.961 732.384ZM276.193 734.36L274.721 726.367H277.078L278.55 734.36H276.193ZM275.694 725.252C275.261 725.252 274.886 725.128 274.568 724.881C274.251 724.633 274.058 724.326 273.991 723.96C273.923 723.593 274.003 723.286 274.229 723.038C274.456 722.791 274.785 722.667 275.218 722.667C275.651 722.667 276.026 722.786 276.342 723.024C276.655 723.251 276.846 723.549 276.914 723.915C276.985 724.301 276.908 724.623 276.684 724.881C276.467 725.128 276.138 725.252 275.694 725.252ZM285.112 737.362C284.347 737.362 283.589 737.268 282.839 737.079C282.101 736.901 281.462 736.629 280.921 736.262L281.551 734.598C281.945 734.875 282.418 735.093 282.971 735.252C283.536 735.42 284.075 735.504 284.589 735.504C285.425 735.504 285.995 735.321 286.3 734.955C286.616 734.588 286.707 734.043 286.574 733.32L286.352 732.117L286.134 730.111L285.732 728.09L285.414 726.367H287.65L288.876 733.023C289.149 734.509 288.958 735.603 288.302 736.307C287.646 737.01 286.582 737.362 285.112 737.362ZM284.126 733.974C283.37 733.974 282.656 733.816 281.983 733.499C281.319 733.172 280.747 732.721 280.269 732.146C279.799 731.562 279.493 730.884 279.35 730.111C279.206 729.328 279.263 728.65 279.519 728.075C279.785 727.491 280.19 727.04 280.736 726.723C281.292 726.406 281.948 726.248 282.703 726.248C283.388 726.248 284.018 726.386 284.593 726.664C285.166 726.931 285.651 727.352 286.049 727.927C286.445 728.491 286.725 729.219 286.889 730.111C287.052 730.992 287.04 731.721 286.853 732.295C286.665 732.86 286.335 733.281 285.862 733.558C285.389 733.835 284.811 733.974 284.126 733.974ZM284.244 732.072C284.657 732.072 285.01 731.993 285.303 731.834C285.594 731.666 285.803 731.433 285.93 731.136C286.056 730.839 286.084 730.497 286.013 730.111C285.94 729.715 285.786 729.373 285.552 729.086C285.316 728.789 285.022 728.561 284.671 728.402C284.318 728.234 283.935 728.15 283.522 728.15C283.109 728.15 282.757 728.234 282.465 728.402C282.172 728.561 281.957 728.789 281.821 729.086C281.692 729.373 281.664 729.715 281.737 730.111C281.809 730.497 281.962 730.839 282.198 731.136C282.444 731.433 282.744 731.666 283.097 731.834C283.449 731.993 283.831 732.072 284.244 732.072ZM291.316 734.36L289.844 726.367H292.201L293.672 734.36H291.316ZM290.817 725.252C290.384 725.252 290.009 725.128 289.691 724.881C289.373 724.633 289.181 724.326 289.114 723.96C289.046 723.593 289.125 723.286 289.352 723.038C289.578 722.791 289.908 722.667 290.341 722.667C290.774 722.667 291.148 722.786 291.464 723.024C291.778 723.251 291.969 723.549 292.036 723.915C292.107 724.301 292.031 724.623 291.806 724.881C291.59 725.128 291.26 725.252 290.817 725.252ZM299.205 734.479C298.248 734.479 297.459 734.241 296.838 733.766C296.215 733.281 295.816 732.562 295.641 731.612L294.349 724.599H296.706L297.992 731.582C298.054 731.919 298.193 732.181 298.409 732.369C298.623 732.548 298.886 732.637 299.198 732.637C299.571 732.637 299.87 732.538 300.096 732.34L301.031 733.974C300.82 734.142 300.552 734.271 300.226 734.36C299.908 734.44 299.568 734.479 299.205 734.479ZM293.782 728.328L293.454 726.545H299.089L299.417 728.328H293.782ZM307.411 734.36L307.123 732.8L306.909 732.458L306.395 729.665C306.304 729.17 306.077 728.784 305.713 728.506C305.36 728.229 304.866 728.09 304.232 728.09C303.799 728.09 303.383 728.16 302.986 728.298C302.597 728.427 302.277 728.605 302.027 728.833L300.883 727.214C301.269 726.906 301.759 726.669 302.353 726.5C302.946 726.332 303.565 726.248 304.21 726.248C305.449 726.248 306.463 726.535 307.254 727.11C308.045 727.684 308.552 728.581 308.777 729.799L309.616 734.36H307.411ZM304.955 734.479C304.32 734.479 303.757 734.375 303.266 734.167C302.772 733.949 302.371 733.657 302.062 733.291C301.753 732.924 301.556 732.513 301.472 732.057C301.385 731.582 301.424 731.166 301.59 730.809C301.766 730.453 302.093 730.175 302.57 729.977C303.045 729.769 303.696 729.665 304.522 729.665H306.682L306.931 731.017H305.028C304.474 731.017 304.107 731.106 303.929 731.285C303.76 731.463 303.7 731.686 303.75 731.953C303.804 732.25 303.964 732.488 304.228 732.666C304.501 732.835 304.844 732.919 305.257 732.919C305.65 732.919 305.986 732.83 306.265 732.652C306.543 732.463 306.719 732.191 306.795 731.834L307.354 732.904C307.278 733.419 307.037 733.811 306.634 734.078C306.23 734.345 305.67 734.479 304.955 734.479ZM311.749 734.36L309.72 723.336H312.076L314.106 734.36H311.749Z" fill="#F4F4F4"/>
</g>
<path d="M515.542 623.946C514.45 623.902 513.438 623.669 512.508 623.245C511.577 622.822 510.772 622.249 510.093 621.529C509.415 620.808 508.894 619.973 508.531 619.025C508.182 618.064 508.029 617.037 508.072 615.945C508.116 614.839 508.349 613.827 508.773 612.91C509.196 611.992 509.774 611.201 510.508 610.536C511.241 609.872 512.088 609.371 513.049 609.036C514.01 608.687 515.044 608.534 516.149 608.578C517.255 608.621 518.273 608.855 519.204 609.279C520.135 609.702 520.939 610.275 521.618 610.995C522.297 611.703 522.812 612.53 523.161 613.478C523.524 614.427 523.684 615.454 523.64 616.559C523.597 617.652 523.357 618.663 522.92 619.593C522.483 620.51 521.898 621.301 521.165 621.966C520.431 622.631 519.584 623.138 518.623 623.487C517.675 623.836 516.648 623.989 515.542 623.946ZM515.64 621.468C516.373 621.496 517.051 621.396 517.674 621.168C518.297 620.925 518.844 620.58 519.316 620.132C519.801 619.684 520.175 619.145 520.44 618.515C520.719 617.885 520.873 617.197 520.902 616.451C520.932 615.705 520.832 615.014 520.604 614.378C520.389 613.729 520.058 613.162 519.61 612.677C519.176 612.18 518.658 611.792 518.055 611.515C517.452 611.238 516.784 611.085 516.051 611.056C515.332 611.027 514.661 611.127 514.038 611.356C513.415 611.585 512.861 611.93 512.376 612.392C511.904 612.84 511.53 613.379 511.251 614.008C510.973 614.625 510.82 615.306 510.79 616.052C510.761 616.798 510.86 617.496 511.088 618.145C511.316 618.795 511.647 619.362 512.081 619.846C512.529 620.331 513.054 620.718 513.657 621.009C514.26 621.286 514.921 621.439 515.64 621.468ZM525.385 628.097L525.972 613.229L528.43 613.326L528.345 615.484L528.126 614.935C528.523 614.364 529.047 613.931 529.699 613.636C530.352 613.328 531.098 613.191 531.937 613.224C532.963 613.265 533.879 613.555 534.685 614.093C535.491 614.632 536.117 615.338 536.563 616.209C537.022 617.081 537.23 618.05 537.188 619.116C537.147 620.169 536.869 621.118 536.355 621.965C535.841 622.813 535.162 623.473 534.316 623.947C533.47 624.407 532.521 624.616 531.469 624.575C530.682 624.544 529.962 624.362 529.308 624.029C528.668 623.683 528.166 623.21 527.803 622.608L528.243 622.105L528.003 628.201L525.385 628.097ZM531.263 622.165C531.863 622.188 532.401 622.07 532.879 621.808C533.356 621.547 533.731 621.175 534.004 620.692C534.29 620.209 534.445 619.648 534.471 619.009C534.496 618.369 534.385 617.804 534.137 617.314C533.903 616.811 533.559 616.411 533.104 616.113C532.649 615.801 532.122 615.633 531.522 615.61C530.949 615.587 530.424 615.707 529.947 615.968C529.483 616.23 529.108 616.609 528.821 617.104C528.549 617.587 528.4 618.142 528.375 618.768C528.35 619.408 528.454 619.979 528.688 620.482C528.935 620.985 529.279 621.386 529.721 621.683C530.177 621.982 530.691 622.142 531.263 622.165ZM544.116 625.074C542.997 625.03 542.028 624.738 541.208 624.199C540.389 623.659 539.763 622.947 539.331 622.063C538.899 621.179 538.704 620.21 538.745 619.158C538.789 618.065 539.06 617.108 539.559 616.288C540.073 615.454 540.745 614.807 541.578 614.346C542.423 613.885 543.352 613.675 544.365 613.715C545.217 613.749 545.958 613.918 546.586 614.223C547.228 614.529 547.766 614.937 548.199 615.448C548.633 615.959 548.957 616.539 549.171 617.188C549.386 617.823 549.48 618.507 549.451 619.24C549.443 619.427 549.422 619.619 549.388 619.818C549.366 620.017 549.326 620.189 549.267 620.334L540.874 620.002L540.953 618.004L547.867 618.277L546.591 619.167C546.735 618.559 546.724 618.012 546.556 617.525C546.402 617.038 546.124 616.647 545.722 616.351C545.333 616.055 544.852 615.896 544.279 615.873C543.733 615.852 543.241 615.973 542.804 616.236C542.367 616.485 542.025 616.872 541.777 617.396C541.544 617.907 541.439 618.537 541.463 619.285C541.383 619.949 541.446 620.545 541.652 621.074C541.872 621.59 542.203 621.996 542.645 622.294C543.1 622.592 543.627 622.753 544.227 622.777C544.826 622.8 545.338 622.694 545.761 622.457C546.197 622.221 546.544 621.894 546.8 621.477L548.877 622.6C548.644 623.111 548.293 623.558 547.824 623.94C547.355 624.321 546.803 624.613 546.168 624.815C545.546 625.017 544.862 625.104 544.116 625.074ZM551.206 625.114L551.636 614.243L554.094 614.34L554.009 616.478L553.824 616.09C554.103 615.448 554.536 614.971 555.122 614.66C555.722 614.337 556.408 614.191 557.181 614.221C557.98 614.253 558.679 614.454 559.279 614.825C559.891 615.196 560.358 615.701 560.68 616.341C561.002 616.968 561.147 617.687 561.115 618.5L560.839 625.495L558.221 625.391L558.473 619.016C558.491 618.536 558.415 618.12 558.242 617.766C558.069 617.412 557.82 617.136 557.494 616.936C557.182 616.723 556.806 616.608 556.367 616.591C555.94 616.574 555.557 616.659 555.216 616.846C554.875 617.019 554.605 617.275 554.405 617.614C554.204 617.954 554.095 618.363 554.076 618.842L553.824 625.217L551.206 625.114ZM501.064 648.153L501.652 633.265L511.544 633.655L511.449 636.053L504.275 635.77L504.124 639.587L510.899 639.855L510.804 642.253L504.029 641.985L503.876 645.862L511.051 646.146L510.956 648.544L501.064 648.153ZM517.956 649.06C516.876 649.018 515.914 648.733 515.067 648.206C514.234 647.666 513.588 646.96 513.129 646.088C512.67 645.202 512.462 644.22 512.505 643.141C512.548 642.062 512.832 641.105 513.359 640.272C513.886 639.439 514.585 638.793 515.457 638.333C516.343 637.875 517.325 637.667 518.404 637.709C519.177 637.74 519.891 637.908 520.546 638.214C521.201 638.507 521.76 638.903 522.22 639.401C522.695 639.887 523.026 640.46 523.213 641.122L520.875 642.03C520.697 641.476 520.375 641.023 519.908 640.671C519.455 640.319 518.922 640.132 518.309 640.107C517.736 640.085 517.218 640.204 516.754 640.466C516.303 640.729 515.942 641.101 515.669 641.584C515.396 642.067 515.247 642.629 515.222 643.268C515.197 643.908 515.301 644.479 515.535 644.982C515.768 645.485 516.1 645.885 516.528 646.182C516.97 646.479 517.477 646.64 518.05 646.662C518.677 646.687 519.229 646.542 519.709 646.227C520.188 645.913 520.539 645.48 520.761 644.928L523.018 646.058C522.781 646.662 522.412 647.202 521.913 647.676C521.415 648.136 520.827 648.493 520.15 648.747C519.473 648.987 518.742 649.091 517.956 649.06ZM530.194 649.544C529.128 649.502 528.165 649.217 527.306 648.689C526.459 648.162 525.793 647.462 525.307 646.589C524.834 645.716 524.62 644.733 524.663 643.641C524.706 642.548 524.997 641.586 525.537 640.753C526.091 639.921 526.81 639.276 527.695 638.817C528.581 638.358 529.563 638.15 530.642 638.193C531.708 638.235 532.664 638.519 533.511 639.047C534.357 639.574 535.017 640.274 535.49 641.146C535.976 642.006 536.197 642.989 536.154 644.095C536.111 645.187 535.812 646.15 535.259 646.982C534.706 647.814 533.986 648.459 533.101 648.918C532.216 649.377 531.247 649.585 530.194 649.544ZM530.289 647.146C530.875 647.169 531.393 647.049 531.844 646.787C532.308 646.525 532.677 646.152 532.949 645.67C533.236 645.174 533.391 644.613 533.416 643.987C533.441 643.347 533.33 642.782 533.083 642.292C532.849 641.789 532.511 641.389 532.069 641.091C531.641 640.781 531.134 640.614 530.548 640.591C529.948 640.567 529.416 640.693 528.952 640.968C528.488 641.23 528.113 641.602 527.827 642.085C527.555 642.554 527.406 643.109 527.381 643.748C527.356 644.374 527.46 644.946 527.693 645.462C527.94 645.965 528.285 646.366 528.727 646.664C529.169 646.961 529.689 647.122 530.289 647.146ZM537.924 649.609L538.354 638.737L540.812 638.835L540.727 640.973L540.543 640.585C540.821 639.942 541.254 639.466 541.84 639.155C542.44 638.832 543.126 638.686 543.899 638.716C544.698 638.748 545.398 638.949 545.997 639.32C546.609 639.691 547.076 640.196 547.398 640.836C547.72 641.463 547.865 642.182 547.833 642.995L547.557 649.989L544.939 649.886L545.191 643.511C545.21 643.031 545.133 642.615 544.96 642.261C544.787 641.907 544.538 641.63 544.212 641.431C543.9 641.218 543.524 641.103 543.085 641.086C542.658 641.069 542.275 641.154 541.934 641.341C541.593 641.514 541.323 641.77 541.123 642.109C540.923 642.448 540.813 642.858 540.794 643.337L540.542 649.712L537.924 649.609ZM549.771 650.077L550.2 639.205L552.818 639.309L552.389 650.18L549.771 650.077ZM550.248 637.986L550.359 635.188L552.977 635.292L552.866 638.09L550.248 637.986ZM563.021 654.603L563.262 648.508L563.661 649.044C563.265 649.616 562.728 650.048 562.049 650.342C561.371 650.622 560.638 650.746 559.852 650.715C558.8 650.674 557.87 650.39 557.064 649.865C556.258 649.326 555.632 648.614 555.187 647.729C554.741 646.844 554.539 645.875 554.581 644.823C554.623 643.757 554.901 642.807 555.414 641.973C555.927 641.14 556.607 640.486 557.453 640.012C558.312 639.539 559.255 639.323 560.281 639.363C561.107 639.396 561.833 639.591 562.459 639.95C563.099 640.295 563.595 640.769 563.944 641.369L563.663 641.899L563.749 639.74L566.227 639.838L565.639 654.707L563.021 654.603ZM560.227 648.328C560.826 648.352 561.358 648.233 561.822 647.971C562.286 647.709 562.655 647.337 562.927 646.854C563.213 646.371 563.369 645.81 563.394 645.171C563.419 644.545 563.308 643.98 563.061 643.476C562.827 642.96 562.49 642.553 562.048 642.255C561.606 641.958 561.085 641.797 560.486 641.773C559.9 641.75 559.368 641.876 558.89 642.151C558.412 642.412 558.031 642.784 557.745 643.266C557.473 643.736 557.324 644.29 557.299 644.93C557.273 645.569 557.378 646.141 557.611 646.644C557.858 647.147 558.209 647.548 558.665 647.846C559.12 648.144 559.641 648.305 560.227 648.328Z" fill="#660DFF"/>
<rect x="270.197" y="557.943" width="65.0077" height="51.0571" rx="10" fill="#660DFF"/>
<path d="M269.958 561.425C269.608 559.84 270.586 558.18 272.143 557.719L314.715 545.097C316.758 544.491 318.787 545.687 319.247 547.768C319.751 550.048 318.166 552.391 315.88 552.746L280.217 558.286C279.099 558.459 278.051 559.031 277.256 559.901L274.816 562.571C273.206 564.333 270.457 563.685 269.958 561.425Z" fill="#660DFF"/>
<path d="M266.052 597.12C266.052 594.189 268.428 591.812 271.36 591.812H308.3C311.232 591.812 313.608 594.189 313.608 597.12C313.608 600.052 311.232 602.428 308.3 602.428H271.36C268.428 602.428 266.052 600.052 266.052 597.12Z" fill="#2C3E4F"/>
<path d="M316.444 581.449C316.444 576.563 320.405 572.603 325.29 572.603H355.153C360.039 572.603 364 576.563 364 581.449C364 586.335 360.039 590.296 355.153 590.296H325.29C320.405 590.296 316.444 586.335 316.444 581.449Z" fill="#2C3E4F"/>
<rect x="251" y="578.163" width="38.8301" height="10.6158" rx="5.30792" fill="#2C3E4F"/>
<rect x="256.235" y="564.514" width="38.8301" height="10.6158" rx="5.30792" fill="#2C3E4F"/>
<ellipse cx="325.824" cy="580.944" rx="5.45367" ry="5.81343" fill="#660DFF"/>
<path d="M233.88 650V620.2H253.68V625H239.32V632.64H252.88V637.44H239.32V645.2H253.68V650H233.88ZM267.709 650.48C265.549 650.48 263.602 649.987 261.869 649C260.162 647.987 258.816 646.627 257.829 644.92C256.842 643.187 256.349 641.24 256.349 639.08C256.349 636.92 256.842 634.987 257.829 633.28C258.816 631.573 260.162 630.227 261.869 629.24C263.602 628.253 265.549 627.76 267.709 627.76C269.256 627.76 270.696 628.04 272.029 628.6C273.362 629.133 274.509 629.88 275.469 630.84C276.456 631.773 277.162 632.893 277.589 634.2L272.989 636.2C272.589 635.107 271.909 634.227 270.949 633.56C270.016 632.893 268.936 632.56 267.709 632.56C266.562 632.56 265.536 632.84 264.629 633.4C263.749 633.96 263.056 634.733 262.549 635.72C262.042 636.707 261.789 637.84 261.789 639.12C261.789 640.4 262.042 641.533 262.549 642.52C263.056 643.507 263.749 644.28 264.629 644.84C265.536 645.4 266.562 645.68 267.709 645.68C268.962 645.68 270.056 645.347 270.989 644.68C271.922 644.013 272.589 643.12 272.989 642L277.589 644.08C277.162 645.307 276.469 646.413 275.509 647.4C274.549 648.36 273.402 649.12 272.069 649.68C270.736 650.213 269.282 650.48 267.709 650.48ZM292.205 650.48C290.072 650.48 288.125 649.987 286.365 649C284.632 648.013 283.245 646.667 282.205 644.96C281.192 643.253 280.685 641.307 280.685 639.12C280.685 636.933 281.192 634.987 282.205 633.28C283.245 631.573 284.632 630.227 286.365 629.24C288.098 628.253 290.045 627.76 292.205 627.76C294.338 627.76 296.272 628.253 298.005 629.24C299.738 630.227 301.112 631.573 302.125 633.28C303.165 634.96 303.685 636.907 303.685 639.12C303.685 641.307 303.165 643.253 302.125 644.96C301.085 646.667 299.698 648.013 297.965 649C296.232 649.987 294.312 650.48 292.205 650.48ZM292.205 645.68C293.378 645.68 294.405 645.4 295.285 644.84C296.192 644.28 296.898 643.507 297.405 642.52C297.938 641.507 298.205 640.373 298.205 639.12C298.205 637.84 297.938 636.72 297.405 635.76C296.898 634.773 296.192 634 295.285 633.44C294.405 632.853 293.378 632.56 292.205 632.56C291.005 632.56 289.952 632.853 289.045 633.44C288.138 634 287.418 634.773 286.885 635.76C286.378 636.72 286.125 637.84 286.125 639.12C286.125 640.373 286.378 641.507 286.885 642.52C287.418 643.507 288.138 644.28 289.045 644.84C289.952 645.4 291.005 645.68 292.205 645.68ZM307.659 650V628.24H312.579V632.52L312.179 631.76C312.685 630.453 313.512 629.467 314.659 628.8C315.832 628.107 317.192 627.76 318.739 627.76C320.339 627.76 321.752 628.107 322.979 628.8C324.232 629.493 325.205 630.467 325.899 631.72C326.592 632.947 326.939 634.373 326.939 636V650H321.699V637.24C321.699 636.28 321.512 635.453 321.139 634.76C320.765 634.067 320.245 633.533 319.579 633.16C318.939 632.76 318.179 632.56 317.299 632.56C316.445 632.56 315.685 632.76 315.019 633.16C314.352 633.533 313.832 634.067 313.459 634.76C313.085 635.453 312.899 636.28 312.899 637.24V650H307.659ZM331.37 650V628.24H336.61V650H331.37ZM331.37 625.8V620.2H336.61V625.8H331.37ZM358.208 658V645.8L359.048 646.84C358.301 648.013 357.261 648.92 355.928 649.56C354.594 650.173 353.141 650.48 351.568 650.48C349.461 650.48 347.581 649.987 345.928 649C344.274 647.987 342.968 646.613 342.008 644.88C341.048 643.147 340.568 641.227 340.568 639.12C340.568 636.987 341.048 635.067 342.008 633.36C342.968 631.653 344.274 630.293 345.928 629.28C347.608 628.267 349.474 627.76 351.528 627.76C353.181 627.76 354.648 628.093 355.928 628.76C357.234 629.4 358.261 630.307 359.008 631.48L358.488 632.56V628.24H363.448V658H358.208ZM352.128 645.68C353.328 645.68 354.381 645.4 355.288 644.84C356.194 644.28 356.901 643.507 357.408 642.52C357.941 641.533 358.208 640.4 358.208 639.12C358.208 637.867 357.941 636.747 357.408 635.76C356.901 634.747 356.194 633.96 355.288 633.4C354.381 632.84 353.328 632.56 352.128 632.56C350.954 632.56 349.901 632.853 348.968 633.44C348.034 634 347.301 634.773 346.768 635.76C346.261 636.72 346.008 637.84 346.008 639.12C346.008 640.4 346.261 641.533 346.768 642.52C347.301 643.507 348.034 644.28 348.968 644.84C349.901 645.4 350.954 645.68 352.128 645.68Z" fill="#660DFF"/>
<defs>
<linearGradient id="paint0_linear_10_492" x1="365.591" y1="194.729" x2="365.591" y2="350.38" gradientUnits="userSpaceOnUse">
<stop stop-color="#6EC7C6"/>
<stop offset="1" stop-color="#6BA6BF"/>
</linearGradient>
<linearGradient id="paint1_linear_10_492" x1="365.591" y1="532.218" x2="365.591" y2="798.414" gradientUnits="userSpaceOnUse">
<stop stop-color="#6EC7C6"/>
<stop offset="1" stop-color="#6BA6BF"/>
</linearGradient>
<linearGradient id="paint2_linear_10_492" x1="365.591" y1="113.592" x2="365.591" y2="135.5" gradientUnits="userSpaceOnUse">
<stop stop-color="#5C84AD"/>
<stop offset="1" stop-color="#486687"/>
</linearGradient>
<linearGradient id="paint3_linear_10_492" x1="365.591" y1="139.563" x2="365.591" y2="150.517" gradientUnits="userSpaceOnUse">
<stop stop-color="#5C84AD"/>
<stop offset="1" stop-color="#486687"/>
</linearGradient>
<linearGradient id="paint4_linear_10_492" x1="365.591" y1="342.387" x2="365.591" y2="364.295" gradientUnits="userSpaceOnUse">
<stop stop-color="#5C84AD"/>
<stop offset="1" stop-color="#486687"/>
</linearGradient>
<linearGradient id="paint5_linear_10_492" x1="365.591" y1="368.358" x2="365.591" y2="379.311" gradientUnits="userSpaceOnUse">
<stop stop-color="#5C84AD"/>
<stop offset="1" stop-color="#486687"/>
</linearGradient>
<linearGradient id="paint6_linear_10_492" x1="199.648" y1="57.8429" x2="199.648" y2="79.4024" gradientUnits="userSpaceOnUse">
<stop stop-color="#5C84AD"/>
<stop offset="1" stop-color="#486687"/>
</linearGradient>
<linearGradient id="paint7_linear_10_492" x1="532.29" y1="177.572" x2="532.29" y2="326.77" gradientUnits="userSpaceOnUse">
<stop stop-color="#5C84AD"/>
<stop offset="1" stop-color="#486687"/>
</linearGradient>
<linearGradient id="paint8_linear_10_492" x1="365.648" y1="177.572" x2="365.648" y2="326.77" gradientUnits="userSpaceOnUse">
<stop stop-color="#5C84AD"/>
<stop offset="1" stop-color="#486687"/>
</linearGradient>
<linearGradient id="paint9_linear_10_492" x1="199.006" y1="177.572" x2="199.006" y2="326.77" gradientUnits="userSpaceOnUse">
<stop stop-color="#5C84AD"/>
<stop offset="1" stop-color="#486687"/>
</linearGradient>
<linearGradient id="paint10_linear_10_492" x1="528.734" y1="488.591" x2="528.734" y2="805.003" gradientUnits="userSpaceOnUse">
<stop stop-color="#5C84AD"/>
<stop offset="1" stop-color="#486687"/>
</linearGradient>
<linearGradient id="paint11_linear_10_492" x1="528.733" y1="400.083" x2="528.733" y2="475.832" gradientUnits="userSpaceOnUse">
<stop stop-color="#5C84AD"/>
<stop offset="1" stop-color="#486687"/>
</linearGradient>
</defs>
</svg>
