<svg width="393" height="724" viewBox="0 0 393 724" fill="none" xmlns="http://www.w3.org/2000/svg">
<path d="M379.271 125.289H12.9166V549.81H379.271V125.289Z" fill="#6EC7C6"/>
<path d="M186.966 145.967H359.797V154.482H186.966V145.967Z" fill="#2C3E4F"/>
<path d="M32.3906 145.967H174.794V154.482H32.3906V145.967Z" fill="#2C3E4F"/>
<path d="M186.966 527.915H359.797V536.43H186.966V527.915Z" fill="#2C3E4F"/>
<path d="M32.3906 527.915H174.794V536.43H32.3906V527.915Z" fill="#2C3E4F"/>
<path d="M273.381 161.78H359.797V169.079H273.381V161.78Z" fill="#2C3E4F"/>
<path d="M32.3906 161.78H257.559V169.079H32.3906V161.78Z" fill="#2C3E4F"/>
<path d="M206.44 341.807H32.3906V333.292H206.44V341.807Z" fill="#2C3E4F"/>
<path d="M359.797 341.807H218.611V333.292H359.797V341.807Z" fill="#2C3E4F"/>
<path d="M118.807 357.62H32.3906V350.321H118.807V357.62Z" fill="#2C3E4F"/>
<path d="M359.797 357.62H135.846V350.321H359.797V357.62Z" fill="#2C3E4F"/>
<path d="M246.605 374.649H32.3906V366.134H246.605V374.649Z" fill="#2C3E4F"/>
<path d="M359.797 374.649H262.427V366.134H359.797V374.649Z" fill="#2C3E4F"/>
<path d="M357.363 318.695H34.8249V184.892H357.363V318.695Z" fill="#2C3E4F"/>
<path d="M75.9184 184.615L267.258 318.393H244.625L53.2887 184.615H75.9184Z" fill="#324659"/>
<path d="M312.997 318.392H301.685L110.345 184.615H121.66L312.997 318.392Z" fill="#324659"/>
<path d="M338.562 318.392H327.251L135.907 184.615H147.226L338.562 318.392Z" fill="#324659"/>
<path d="M36.4027 317.118H355.789V186.466H36.4027V317.118ZM359.797 319.911H32.3906V183.675H359.797V319.911Z" fill="#324659"/>
<path d="M207.657 515.751H34.8249V389.246H207.657V515.751Z" fill="#2C3E4F"/>
<path d="M191.416 515.417H168.786L34.6645 421.642V405.823L191.416 515.417Z" fill="#324659"/>
<path d="M207.748 494.894V502.805L45.2306 389.179H56.5454L207.748 494.894Z" fill="#324659"/>
<path d="M82.0584 389.178L207.747 477.057V484.968L70.7436 389.178H82.0584Z" fill="#324659"/>
<path d="M36.4098 514.172H206.075V390.825H36.4098V514.172ZM210.091 516.967H32.3906V388.03H210.091V516.967Z" fill="#324659"/>
<path d="M357.363 515.751H247.822V389.246H357.363V515.751Z" fill="#2C3E4F"/>
<path d="M357.509 507.804V515.416H345.767L247.351 446.607V430.786L357.509 507.804Z" fill="#324659"/>
<path d="M357.509 475.862V483.773L247.351 406.755V398.844L357.509 475.862Z" fill="#324659"/>
<path d="M357.509 458.026V465.937L247.726 389.178H259.04L357.509 458.026Z" fill="#324659"/>
<path d="M249.395 514.172H355.787V390.825H249.395V514.172ZM359.797 516.967H245.388V388.03H359.797V516.967Z" fill="#324659"/>
<path d="M379.271 0H12.9166V125.289H379.271V0Z" fill="#78D1CC"/>
<path d="M314.832 79.9212C305.811 79.9212 298.084 83.6246 294.405 88.9482C292.01 84.1655 285.576 80.7167 277.923 80.7167C270.116 80.7167 263.573 84.3099 261.308 89.2444C259.764 87.9324 257.45 87.0807 254.831 87.0807C251.456 87.0807 248.568 88.4758 247.224 90.478C243.054 87.1737 237.019 85.0466 230.223 85.0466C221.877 85.0466 214.662 88.2237 210.703 92.9061C209.246 91.1389 206.551 89.9371 203.428 89.9371C202.255 89.9371 201.138 90.106 200.123 90.4095C196.944 84.305 188.647 79.9212 178.817 79.9212C171.72 79.9212 165.464 82.2416 161.291 85.8005C158.102 82.7312 152.97 80.7167 147.134 80.7167C138.963 80.7167 132.157 84.6428 130.214 89.9297C128.737 88.2286 126.087 87.0807 123.03 87.0807C121.241 87.0807 119.589 87.4747 118.227 88.1405C114.338 83.2623 106.979 79.9212 98.4261 79.9212C89.1453 79.9212 81.2018 83.8155 77.6554 89.3815C75.9085 88.9752 74.0741 88.701 72.1311 88.701C62.4477 88.701 54.6022 94.1887 54.6022 100.956C54.6022 107.724 62.4477 113.212 72.1311 113.212C77.4769 113.212 82.2101 111.501 85.4239 108.86C89.1103 110.664 93.5809 111.738 98.4261 111.738C109.622 111.738 118.878 106.072 120.772 98.6239C121.497 98.7634 122.243 98.8637 123.03 98.8637C126.087 98.8637 128.737 97.7158 130.214 96.0146C132.157 101.302 138.963 105.228 147.134 105.228C151.338 105.228 155.147 104.148 158.165 102.423C161.753 107.908 169.627 111.738 178.817 111.738C188.647 111.738 196.944 107.355 200.126 101.25C201.138 101.554 202.255 101.723 203.428 101.723C204.902 101.723 206.267 101.434 207.471 100.969C207.482 109.748 217.662 116.864 230.223 116.864C242.792 116.864 252.979 109.741 252.979 100.956C252.979 100.163 252.804 99.3998 252.643 98.6385C253.347 98.7707 254.071 98.8637 254.831 98.8637C257.45 98.8637 259.764 98.0119 261.308 96.7C263.573 101.632 270.116 105.228 277.923 105.228C284.179 105.228 289.633 102.917 292.735 99.4683C295.095 106.493 304.064 111.738 314.832 111.738C327.401 111.738 337.585 104.616 337.585 95.8311C337.585 87.0439 327.401 79.9212 314.832 79.9212Z" fill="#B1E079"/>
<path d="M343.975 125.289H48.2133V102.177H343.975V125.289Z" fill="#324659"/>
<path d="M343.975 96.0951H48.2133V102.177H343.975V96.0951Z" fill="#C9F7F2"/>
<path d="M0 0.000470161V9.32853H13.3453V125.277H26.6836V9.32853H365.501V125.277H378.847V9.32853H392.185V0.000470161H0Z" fill="#2C3E4F"/>
<mask id="mask0_11_4661" style="mask-type:luminance" maskUnits="userSpaceOnUse" x="13" y="89" width="366" height="37">
<path d="M13.3452 89.3227H378.843V125.276H13.3452V89.3227Z" fill="white"/>
</mask>
<g mask="url(#mask0_11_4661)">
<g opacity="0.300003">
<path d="M378.846 89.3206H13.3452V125.274H378.846V89.3206Z" fill="#9CDAD5"/>
</g>
</g>
<path d="M64.0359 15.8131H48.2133V9.73115H64.0359V15.8131Z" fill="#2C3E4F"/>
<path d="M120.024 15.8131H104.201V9.73115H120.024V15.8131Z" fill="#2C3E4F"/>
<path d="M176.011 15.8131H160.189V9.73115H176.011V15.8131Z" fill="#2C3E4F"/>
<path d="M231.999 15.8131H216.177V9.73115H231.999V15.8131Z" fill="#2C3E4F"/>
<path d="M287.987 15.8131H272.164V9.73115H287.987V15.8131Z" fill="#2C3E4F"/>
<path d="M343.975 15.8131H328.152V9.73115H343.975V15.8131Z" fill="#2C3E4F"/>
<path d="M76.8874 708.826H315.294V564.737H76.8874V708.826ZM336.672 723.754H55.516V549.81H336.672V723.754Z" fill="#324659"/>
<path d="M55.516 549.81H12.9166V723.754H55.516V549.81Z" fill="#2C3E4F"/>
<path d="M23.8708 549.81H12.9166V723.754H23.8708V549.81Z" fill="#31616D"/>
<path d="M336.672 549.81H379.271V723.754H336.672V549.81Z" fill="#2C3E4F"/>
<path d="M368.317 549.81H379.271V723.754H368.317V549.81Z" fill="#31616D"/>
<path d="M208.874 564.407H315.981V723.754H208.874V564.407Z" fill="#31616D"/>
<path d="M208.874 723.754H77.4243V564.407H208.874V723.754Z" fill="#2C3E4F"/>
<path d="M191.834 723.754H185.748V564.407H191.834V723.754Z" fill="#31616D"/>
<path d="M173.577 723.754H167.492V564.407H173.577V723.754Z" fill="#31616D"/>
<path d="M155.32 723.754H149.235V564.407H155.32V723.754Z" fill="#31616D"/>
<path d="M137.063 723.754H130.978V564.407H137.063V723.754Z" fill="#31616D"/>
<path d="M118.807 723.754H113.938V564.407H118.807V723.754Z" fill="#31616D"/>
<path d="M100.55 723.754H95.6812V564.407H100.55V723.754Z" fill="#31616D"/>
</svg>
