<svg width="23" height="30" viewBox="0 0 23 30" fill="none" xmlns="http://www.w3.org/2000/svg">
<path opacity="0.0909" d="M20.4745 17.1044C20.303 17.1196 20.7458 15.1208 20.9278 13.996C21.108 12.8849 21.2428 9.95886 21.3285 9.94974C21.4108 9.9391 21.4458 12.5687 21.22 13.9625C20.9418 15.6741 20.618 17.0907 20.4745 17.1044Z" fill="#FFB561"/>
<path opacity="0.1736" d="M20.5166 16.8975C20.3591 16.9112 20.7686 15.0568 20.9401 13.9928C21.1081 12.9424 21.2376 10.246 21.3163 10.2368C21.3916 10.2277 21.4213 12.6552 21.2096 13.9624C20.9506 15.5614 20.6478 16.8853 20.5166 16.8975Z" fill="#F3AE5F"/>
<path opacity="0.2562" d="M20.5568 16.6925C20.4133 16.7046 20.7913 14.9946 20.9506 13.993C21.1081 13.005 21.2288 10.5365 21.3023 10.5274C21.3723 10.5198 21.3951 12.745 21.1991 13.9656C20.9593 15.4491 20.6758 16.6818 20.5568 16.6925Z" fill="#E7A75D"/>
<path opacity="0.3388" d="M20.5971 16.486C20.4693 16.4966 20.8123 14.9295 20.9611 13.9917C21.1081 13.0645 21.2218 10.8255 21.2865 10.8179C21.3495 10.8103 21.367 12.8349 21.185 13.9689C20.968 15.3353 20.7056 16.4769 20.5971 16.486Z" fill="#DBA05B"/>
<path opacity="0.4215" d="M20.6374 16.2805C20.5237 16.2896 20.8334 14.8669 20.9716 13.9914C21.1081 13.125 21.2149 11.114 21.2727 11.1079C21.3287 11.1018 21.3409 12.9258 21.1747 13.9716C20.9769 15.2226 20.7337 16.2729 20.6374 16.2805Z" fill="#CF9959"/>
<path opacity="0.5041" d="M20.6774 16.074C20.5777 16.0816 20.8559 14.8032 20.9819 13.99C21.1062 13.1844 21.2059 11.403 21.2584 11.3984C21.3092 11.3939 21.3144 13.0157 21.1639 13.9748C20.9854 15.1103 20.7632 16.0679 20.6774 16.074Z" fill="#C39257"/>
<path opacity="0.5868" d="M20.7195 15.8685C20.6338 15.8746 20.8787 14.7406 20.9942 13.9898C21.108 13.245 21.2008 11.6915 21.2463 11.6885C21.29 11.6854 21.29 13.1051 21.1535 13.9776C20.9943 14.996 20.7913 15.8624 20.7195 15.8685Z" fill="#B88B54"/>
<path opacity="0.6694" d="M20.7599 15.662C20.6881 15.6666 20.8999 14.6771 21.0049 13.9885C21.1081 13.306 21.1921 11.9806 21.2324 11.9775C21.2709 11.976 21.2622 13.1935 21.1432 13.9794C21.0032 14.8838 20.8211 15.659 20.7599 15.662Z" fill="#AC8452"/>
<path opacity="0.7521" d="M20.8 15.4565C20.744 15.4595 20.9225 14.6144 21.0152 13.9882C21.108 13.3665 21.185 12.2706 21.2182 12.269C21.2497 12.2675 21.2357 13.2859 21.1307 13.9836C21.0117 14.771 20.849 15.4534 20.8 15.4565Z" fill="#A07D50"/>
<path opacity="0.8347" d="M20.8402 15.25C20.7982 15.2515 20.9435 14.5508 21.0257 13.9869C21.108 13.426 21.178 12.5581 21.2042 12.5581C21.2305 12.5581 21.2095 13.3743 21.1202 13.9869C21.0205 14.6572 20.8787 15.25 20.8402 15.25Z" fill="#94764E"/>
<path opacity="0.9174" d="M20.8806 15.045C20.8526 15.045 20.9663 14.4887 21.0363 13.9871C21.1063 13.487 21.1693 12.8486 21.1903 12.8501C21.2096 12.8516 21.1833 13.4657 21.1081 13.9916C21.0293 14.5449 20.9068 15.045 20.8806 15.045Z" fill="#886F4C"/>
<path d="M20.9208 14.838C20.9068 14.8365 20.9873 14.4231 21.0468 13.9853C21.1063 13.5476 21.1623 13.1372 21.1763 13.1387C21.1903 13.1402 21.1571 13.5552 21.0976 13.9929C21.0381 14.4322 20.9348 14.8411 20.9208 14.838Z" fill="#7C684A"/>
<path d="M13.1789 29.1046C13.1789 29.1046 5.35466 29.1852 8.83366 13.8073C11.9277 0.127337 19.0204 1.42542 19.0204 1.42542C19.0204 1.42542 18.0054 0.416138 15.5379 0.080218C13.6602 -0.175142 12.4492 0.238298 11.8822 0.495178C8.83892 1.7583 3.64841 9.21998 2.92741 12.2889C2.08916 15.8578 3.81817 24.7194 5.78867 27.1241C6.31542 27.7685 6.76866 28.8781 9.19941 29.3782C11.6267 29.8768 13.1789 29.1046 13.1789 29.1046Z" fill="url(#paint0_linear_109_21551)"/>
<path d="M21.2953 16.2376C23.0506 8.47496 21.6068 1.69272 18.0683 1.08928C14.5298 0.48584 7.67509 9.38392 6.76684 13.3922C5.82884 17.5296 8.17034 28.5967 11.7088 29.2002C15.2473 29.8036 19.5401 24.0002 21.2953 16.2376ZM9.0471 14.1674C10.6466 7.10088 14.5298 1.81432 17.7218 2.36C20.9138 2.90416 22.2071 9.07536 20.6076 16.1403C19.0098 23.2068 15.1249 28.4934 11.9329 27.9492C8.74085 27.4035 7.44935 21.2338 9.0471 14.1674Z" fill="url(#paint1_linear_109_21551)"/>
<path d="M15.452 2.85747C17.9107 3.94275 18.042 10.041 16.789 15.5844C15.557 21.0306 12.7325 27.0376 10.146 26.8598C10.6465 27.4511 11.2468 27.8311 11.9345 27.9481C15.1265 28.4923 19.0115 23.2057 20.6093 16.1392C22.207 9.07275 20.9155 2.90307 17.7235 2.35891C16.9902 2.23579 16.222 2.41819 15.452 2.85747Z" fill="url(#paint2_linear_109_21551)"/>
<path d="M17.0794 2.33112C17.2492 2.32808 17.4189 2.33112 17.5852 2.36C20.7772 2.90416 22.0704 9.07536 20.4709 16.1403C18.9782 22.7386 15.4939 27.7805 12.4402 27.9781C15.5272 27.9294 19.0937 22.839 20.6092 16.1403C22.2069 9.07384 20.9154 2.90416 17.7234 2.36C17.5099 2.32352 17.2964 2.31592 17.0794 2.33112Z" fill="#B1A093"/>
<path d="M11.7088 29.2004C8.17031 28.597 5.82881 17.5298 6.76681 13.3924C7.61731 9.63648 13.6916 1.58504 17.3648 1.08496C13.7091 1.38896 7.49131 9.58632 6.62856 13.3924C5.69056 17.5298 8.03382 28.597 11.5706 29.2004C11.8033 29.2399 12.0413 29.249 12.2811 29.2338C12.0886 29.2369 11.8978 29.2323 11.7088 29.2004Z" fill="#B1A093"/>
<path opacity="0.3" d="M3.71307 20.6947C4.66857 24.4932 7.71358 25.352 7.17633 23.3106C6.32408 20.073 6.73007 15.9736 5.45782 15.25C4.93807 14.9536 3.51007 14.7484 3.22832 15.3321C2.94832 15.9173 3.42782 19.5608 3.71307 20.6947Z" fill="#FFFFDD"/>
<path opacity="0.3" d="M8.00046 4.12363C10.6272 0.974194 13.814 1.24627 12.3807 2.93043C10.1075 5.60107 8.59195 9.49987 7.0922 9.72027C6.4797 9.80995 5.07621 9.50291 5.08846 8.86907C5.09896 8.23523 7.21646 5.06451 8.00046 4.12363Z" fill="url(#paint3_linear_109_21551)"/>
<path opacity="0.5" d="M14.4493 2.91328C14.6033 3.12608 16.4898 1.78848 17.9475 2.18216C19.4053 2.57584 20.2348 4.08824 20.506 4.77072C21.122 6.31808 21.3268 7.78944 21.5753 7.87304C21.8238 7.95816 21.465 5.53072 21.0503 4.37704C20.6355 3.22336 19.729 1.54832 18.1418 1.24736C16.5545 0.943362 14.2883 2.68832 14.4493 2.91328Z" fill="#FFE7B1"/>
<path d="M8.6374 9.71875C8.6374 9.71875 9.65065 10.7235 9.25515 12.6219C8.8579 14.5204 7.51566 15.0874 7.51566 15.0874L6.7229 14.2727L7.5734 10.2021L8.6374 9.71875Z" fill="url(#paint4_linear_109_21551)"/>
<path d="M8.28046 9.58936C8.28046 9.58936 9.29371 10.5941 8.89821 12.4926C8.50096 14.391 7.15871 14.958 7.15871 14.958L6.36597 14.1448L7.21647 10.0742L8.28046 9.58936Z" fill="#624126"/>
<path d="M8.30144 9.9585C8.30144 9.9585 9.09769 10.8082 8.75469 12.4376C8.41169 14.0671 7.33194 14.5656 7.33194 14.5656L6.71069 13.8755L7.44394 10.3841L8.30144 9.9585Z" fill="#CAAE98"/>
<path d="M2.45312 7.31836L4.10161 7.80172L3.01662 8.09508L2.45312 7.31836Z" fill="url(#paint5_linear_109_21551)"/>
<path d="M6.09473 15.1248L7.49648 14.2554L7.90773 14.8223C7.99348 14.9409 7.95849 15.0959 7.82724 15.1765L6.91898 15.7404C6.77723 15.8286 6.57949 15.7951 6.48674 15.6659L6.09473 15.1248Z" fill="url(#paint6_linear_109_21551)"/>
<path d="M1.27699 8.04334L2.453 7.31982L2.95174 8.01142L1.54649 8.87782L1.19649 8.39446C1.11249 8.2759 1.14749 8.12238 1.27699 8.04334Z" fill="url(#paint7_linear_109_21551)"/>
<path d="M8.3646 10.1867L7.4231 8.89322L7.9971 8.53754C8.14235 8.44786 8.34535 8.4813 8.4416 8.61354L9.0506 9.44954C9.1381 9.57114 9.1031 9.73074 8.96835 9.81434L8.3646 10.1867Z" fill="url(#paint8_linear_109_21551)"/>
<path d="M0.69079 14.6343L0.0432856 13.7497C-0.0354644 13.6418 -0.0039638 13.5004 0.115036 13.4259L0.661043 13.0854L1.60604 14.3774L1.08629 14.7027C0.956787 14.7802 0.77654 14.7514 0.69079 14.6343Z" fill="url(#paint9_linear_109_21551)"/>
<path d="M7.95862 9.52368C9.28862 11.3036 8.82663 13.69 6.92613 14.8528C5.02563 16.0156 2.40588 15.514 1.07588 13.7341C-0.254123 11.9526 0.207871 9.56776 2.10837 8.40496C4.01062 7.24368 6.62862 7.74376 7.95862 9.52368Z" fill="#CCCDCE"/>
<path opacity="0.3" d="M4.56894 11.7369L4.29944 11.3736L3.71143 7.89893L4.71593 11.1912L4.56894 11.7369Z" fill="url(#paint10_linear_109_21551)"/>
<path opacity="0.3" d="M6.82284 8.55713L4.71585 11.1913L4.56885 11.737L5.08684 11.4831L6.82284 8.55713Z" fill="url(#paint11_linear_109_21551)"/>
<path opacity="0.3" d="M8.5781 10.9072L5.08684 11.4833L4.56885 11.7371L5.12359 11.8907C5.12359 11.8907 8.5396 10.9315 8.5781 10.9072Z" fill="url(#paint12_linear_109_21551)"/>
<path opacity="0.3" d="M7.99535 13.7371L5.12359 11.8903L4.56885 11.7368L4.90484 12.1867L7.99535 13.7371Z" fill="url(#paint13_linear_109_21551)"/>
<path opacity="0.3" d="M1.05664 9.46924L4.2994 11.3738L4.5689 11.7371L4.00539 11.5972L1.05664 9.46924Z" fill="url(#paint14_linear_109_21551)"/>
<path opacity="0.3" d="M5.30746 15.3635L4.90495 12.1867L4.56897 11.7368L4.37646 12.2217L5.30746 15.3635Z" fill="url(#paint15_linear_109_21551)"/>
<path opacity="0.3" d="M0.389893 12.2705L4.00538 11.5972L4.56889 11.737L4.05614 12.0243L0.389893 12.2705Z" fill="url(#paint16_linear_109_21551)"/>
<path opacity="0.3" d="M2.11011 14.7191L4.05612 12.0241L4.56887 11.7368L4.37637 12.2217L2.11011 14.7191Z" fill="url(#paint17_linear_109_21551)"/>
<path opacity="0.5" d="M4.90137 13.4605L6.84912 14.8148L6.24713 12.6914L4.90137 13.4605Z" fill="url(#paint18_linear_109_21551)"/>
<path opacity="0.5" d="M8.57631 12.2873C8.56231 12.2417 6.49207 11.3403 6.49207 11.3403L6.24707 12.6901L8.57631 12.2873Z" fill="url(#paint19_linear_109_21551)"/>
<path opacity="0.5" d="M8.03554 9.59082C8.03554 9.59082 5.7308 9.96322 5.7588 9.99818C5.7868 10.0347 6.49379 11.3403 6.49379 11.3403L8.03554 9.59082Z" fill="url(#paint20_linear_109_21551)"/>
<path opacity="0.5" d="M5.3669 7.9248C5.39315 7.99776 5.75891 9.99809 5.75891 9.99809L4.04565 9.39617L5.3669 7.9248Z" fill="url(#paint21_linear_109_21551)"/>
<path opacity="0.5" d="M2.24487 8.42041L2.37963 10.29L4.04562 9.39625L2.24487 8.42041Z" fill="url(#paint22_linear_109_21551)"/>
<path opacity="0.5" d="M0.414307 10.8114L2.04531 12.0715L2.37956 10.29L0.414307 10.8114Z" fill="url(#paint23_linear_109_21551)"/>
<path opacity="0.5" d="M3.22675 13.3708C3.22675 13.3708 0.985006 13.725 1.00601 13.6764C1.02701 13.6277 2.04551 12.0728 2.04551 12.0728L3.22675 13.3708Z" fill="url(#paint24_linear_109_21551)"/>
<path opacity="0.5" d="M3.72182 15.3653L3.22656 13.3711L4.90131 13.4608L3.72182 15.3653Z" fill="url(#paint25_linear_109_21551)"/>
<path opacity="0.7" d="M5.30737 15.3637L6.17713 14.0428L7.99538 13.7373L5.30737 15.3637Z" fill="url(#paint26_linear_109_21551)"/>
<path opacity="0.7" d="M8.63054 10.875L7.50879 12.1883C7.50879 12.1883 7.93054 13.8299 7.99529 13.7356C8.06004 13.6429 8.63054 10.875 8.63054 10.875Z" fill="url(#paint27_linear_109_21551)"/>
<path opacity="0.7" d="M6.823 8.55713L7.09426 9.96921L8.63076 10.8751L6.823 8.55713Z" fill="url(#paint28_linear_109_21551)"/>
<path opacity="0.7" d="M3.71143 7.89893L5.12018 8.68477L6.82293 8.55709L3.71143 7.89893Z" fill="url(#paint29_linear_109_21551)"/>
<path d="M1.05664 9.46909L2.6019 9.02525L3.71139 7.89893L1.05664 9.46909Z" fill="url(#paint30_linear_109_21551)"/>
<path d="M0.417969 12.1719L1.16872 10.924L1.05846 9.521L0.417969 12.1719Z" fill="url(#paint31_linear_109_21551)"/>
<path opacity="0.7" d="M2.11013 14.7192L1.80564 13.1855L0.389893 12.2705L2.11013 14.7192Z" fill="url(#paint32_linear_109_21551)"/>
<path opacity="0.7" d="M5.30736 15.3636C5.22161 15.2724 3.89686 14.3984 3.89686 14.3984L2.11011 14.7207L5.30736 15.3636Z" fill="url(#paint33_linear_109_21551)"/>
<path opacity="0.5" d="M4.60904 11.7124L4.2083 11.4707L2.1853 8.44287L4.50755 11.15L4.60904 11.7124Z" fill="url(#paint34_linear_109_21551)"/>
<path opacity="0.5" d="M5.28982 7.93555L4.50757 11.1503L4.60907 11.7127L4.96957 11.2887L5.28982 7.93555Z" fill="url(#paint35_linear_109_21551)"/>
<path opacity="0.5" d="M7.89034 9.49365L4.97134 11.2888L4.61084 11.7129L5.1796 11.6566C5.1796 11.6566 7.86409 9.53013 7.89034 9.49365Z" fill="url(#paint36_linear_109_21551)"/>
<path opacity="0.5" d="M8.57463 12.3418L5.17789 11.6562L4.60913 11.7125L5.10614 12.0104L8.57463 12.3418Z" fill="url(#paint37_linear_109_21551)"/>
<path opacity="0.5" d="M0.451172 10.8628L4.20843 11.4708L4.60917 11.7125L4.03868 11.7854L0.451172 10.8628Z" fill="url(#paint38_linear_109_21551)"/>
<path opacity="0.5" d="M6.83339 14.8269L5.10614 12.0103L4.60913 11.7124L4.64239 12.2338L6.83339 14.8269Z" fill="url(#paint39_linear_109_21551)"/>
<path opacity="0.5" d="M1.04785 13.7142L4.0386 11.7854L4.60909 11.7124L4.26785 12.1638L1.04785 13.7142Z" fill="url(#paint40_linear_109_21551)"/>
<path opacity="0.5" d="M3.65894 15.3786L4.26793 12.1638L4.60918 11.7124L4.64244 12.2338L3.65894 15.3786Z" fill="url(#paint41_linear_109_21551)"/>
<path d="M5.64868 13.2009L7.99544 13.7603L6.54119 11.9971L5.64868 13.2009Z" fill="url(#paint42_linear_109_21551)"/>
<path d="M8.48009 10.7821C8.44859 10.7457 6.18408 10.6499 6.18408 10.6499L6.54109 11.9966L8.48009 10.7821Z" fill="url(#paint43_linear_109_21551)"/>
<path d="M6.83331 8.46289C6.83331 8.46289 4.9013 9.63937 4.9433 9.66369C4.98355 9.68801 6.1858 10.6502 6.1858 10.6502L6.83331 8.46289Z" fill="url(#paint44_linear_109_21551)"/>
<path d="M3.69738 7.87158C3.75338 7.93086 4.94163 9.66366 4.94163 9.66366L3.13037 9.7199L3.69738 7.87158Z" fill="white"/>
<path d="M1.07764 9.45703L2.00339 11.1534L3.13038 9.71847L1.07764 9.45703Z" fill="url(#paint45_linear_109_21551)"/>
<path d="M0.444092 12.345L2.46359 12.9332L2.00334 11.1533L0.444092 12.345Z" fill="url(#paint46_linear_109_21551)"/>
<path d="M4.09102 13.7189C4.09102 13.7189 2.20977 14.8558 2.20802 14.8042C2.20627 14.751 2.46352 12.9346 2.46352 12.9346L4.09102 13.7189Z" fill="url(#paint47_linear_109_21551)"/>
<path d="M5.39657 15.4001L4.09106 13.719L5.64856 13.2007L5.39657 15.4001Z" fill="url(#paint48_linear_109_21551)"/>
<path opacity="0.5" d="M6.83325 14.827L7.0555 13.2827L8.57449 12.3418L6.83325 14.827Z" fill="url(#paint49_linear_109_21551)"/>
<path opacity="0.5" d="M7.92351 9.44482L7.46851 11.0743C7.46851 11.0743 8.55525 12.4514 8.5745 12.3419C8.592 12.2325 7.92351 9.44482 7.92351 9.44482Z" fill="url(#paint50_linear_109_21551)"/>
<path opacity="0.5" d="M5.28979 7.93555L6.1403 9.15459L7.92355 9.44491L5.28979 7.93555Z" fill="url(#paint51_linear_109_21551)"/>
<path opacity="0.7" d="M2.1853 8.44323L3.80055 8.66819L5.28979 7.93555L2.1853 8.44323Z" fill="url(#paint52_linear_109_21551)"/>
<path opacity="0.7" d="M0.451172 10.8627L1.66217 9.89295L2.18543 8.44287L0.451172 10.8627Z" fill="url(#paint53_linear_109_21551)"/>
<path opacity="0.7" d="M1.03034 13.6127L1.17559 12.1793L0.475586 10.9116L1.03034 13.6127Z" fill="url(#paint54_linear_109_21551)"/>
<path opacity="0.5" d="M3.65885 15.3788L2.72435 14.0579L1.04785 13.7144L3.65885 15.3788Z" fill="url(#paint55_linear_109_21551)"/>
<path opacity="0.5" d="M6.83344 14.8272C6.71619 14.774 5.14119 14.4351 5.14119 14.4351L3.65894 15.379L6.83344 14.8272Z" fill="url(#paint56_linear_109_21551)"/>
<g opacity="0.5">
<path d="M4.78759 13.5383L3.02358 13.2009L1.99634 11.8253L2.30784 10.2186L3.77608 9.32031L5.54009 9.65775L6.56909 11.0334L6.25583 12.64L4.78759 13.5383Z" fill="white"/>
<path d="M1.64103 13.1431L1.99628 11.8252L1.11953 10.8828L0.384521 12.2812L1.64103 13.1431Z" fill="white"/>
<path d="M2.29718 10.1805L2.53344 9.01318L1.04419 9.47678L1.11944 10.8828L2.29718 10.1805Z" fill="url(#paint57_linear_109_21551)"/>
<path d="M3.77595 9.32022L2.53345 9.01318L3.72869 7.92334L4.99919 8.59822L3.77595 9.32022Z" fill="white"/>
<path d="M5.50852 9.61344L4.99927 8.59808L6.86302 8.53271L7.04327 9.87488L5.50852 9.61344Z" fill="white"/>
<path d="M6.56909 11.0332L7.04333 9.875L8.56934 10.8949L7.52983 12.1398L6.56909 11.0332Z" fill="white"/>
<path d="M6.15771 14.0184L6.25571 12.6397L7.52971 12.1396L7.98646 13.725L6.15771 14.0184Z" fill="url(#paint58_linear_109_21551)"/>
<path d="M5.30726 15.3636L3.73926 14.441L4.78752 13.5381L6.15776 14.0184L5.30726 15.3636Z" fill="white"/>
<path d="M3.02363 13.2008L1.59912 13.1157L2.15038 14.6965L3.73937 14.4412L3.02363 13.2008Z" fill="white"/>
</g>
<path opacity="0.7" d="M6.56909 11.0332L7.04333 9.875L8.56934 10.8949L7.52983 12.1398L6.56909 11.0332Z" fill="white"/>
<path opacity="0.7" d="M6.15796 14.0184L6.25596 12.6397L7.52995 12.1396L7.98671 13.725L6.15796 14.0184Z" fill="url(#paint59_linear_109_21551)"/>
<path opacity="0.7" d="M3.77619 9.32022L2.53369 9.01318L3.72894 7.92334L4.99944 8.59822L3.77619 9.32022Z" fill="white"/>
<path opacity="0.5" d="M4.78759 13.5378L3.02358 13.2004L1.99634 11.8248L2.30784 10.2181L3.77608 9.31982L5.54009 9.65726L6.56909 11.0329L6.25583 12.6395L4.78759 13.5378Z" fill="white"/>
<path d="M5.50852 9.61344L4.99927 8.59808L6.86302 8.53271L7.04327 9.87488L5.50852 9.61344Z" fill="white"/>
<path opacity="0.25" d="M8.54499 10.9111C8.54499 11.2091 8.26675 11.4507 7.92375 11.4507C7.58075 11.4507 7.30249 11.2091 7.30249 10.9111C7.30249 10.6132 7.58075 10.3731 7.92375 10.3731C8.26675 10.3715 8.54499 10.6132 8.54499 10.9111Z" fill="white"/>
<path opacity="0.5" d="M8.4136 10.9114C8.4136 11.147 8.19485 11.337 7.9236 11.337C7.6541 11.337 7.43359 11.147 7.43359 10.9114C7.43359 10.6774 7.65235 10.4858 7.9236 10.4858C8.1931 10.4858 8.4136 10.6758 8.4136 10.9114Z" fill="white"/>
<path opacity="0.75" d="M8.28243 10.9112C8.28243 11.083 8.12144 11.2228 7.92369 11.2228C7.72594 11.2228 7.56494 11.083 7.56494 10.9112C7.56494 10.7394 7.72594 10.5996 7.92369 10.5996C8.12144 10.5996 8.28243 10.7394 8.28243 10.9112Z" fill="white"/>
<path d="M8.15105 10.9114C8.15105 11.0209 8.04955 11.109 7.92355 11.109C7.79755 11.109 7.69604 11.0209 7.69604 10.9114C7.69604 10.8035 7.79755 10.7154 7.92355 10.7154C8.04955 10.7138 8.15105 10.802 8.15105 10.9114Z" fill="white"/>
<path opacity="0.25" d="M7.48616 9.08854C7.48616 9.27702 7.31116 9.42902 7.09416 9.42902C6.87716 9.42902 6.70215 9.27702 6.70215 9.08854C6.70215 8.90006 6.87716 8.74806 7.09416 8.74806C7.30941 8.74654 7.48616 8.90006 7.48616 9.08854Z" fill="white"/>
<path opacity="0.5" d="M7.40221 9.08886C7.40221 9.23782 7.26395 9.3579 7.09245 9.3579C6.92095 9.3579 6.78271 9.23782 6.78271 9.08886C6.78271 8.9399 6.92095 8.81982 7.09245 8.81982C7.26395 8.81982 7.40221 8.9399 7.40221 9.08886Z" fill="white"/>
<path opacity="0.75" d="M7.31991 9.08868C7.31991 9.1966 7.21842 9.28476 7.09417 9.28476C6.96992 9.28476 6.86841 9.1966 6.86841 9.08868C6.86841 8.98076 6.96992 8.8926 7.09417 8.8926C7.21842 8.89108 7.31991 8.97924 7.31991 9.08868Z" fill="white"/>
<path d="M7.09418 9.21315C7.17344 9.21315 7.23767 9.15734 7.23767 9.08851C7.23767 9.01967 7.17344 8.96387 7.09418 8.96387C7.01493 8.96387 6.95068 9.01967 6.95068 9.08851C6.95068 9.15734 7.01493 9.21315 7.09418 9.21315Z" fill="white"/>
<path opacity="0.25" d="M6.88751 11.3229C6.88751 11.5114 6.71251 11.6634 6.49551 11.6634C6.27851 11.6634 6.10352 11.5114 6.10352 11.3229C6.10352 11.1344 6.27851 10.9824 6.49551 10.9824C6.71251 10.9824 6.88751 11.1344 6.88751 11.3229Z" fill="white"/>
<path opacity="0.5" d="M6.8053 11.3232C6.8053 11.4722 6.66704 11.5923 6.49554 11.5923C6.32404 11.5923 6.18579 11.4722 6.18579 11.3232C6.18579 11.1743 6.32404 11.0542 6.49554 11.0542C6.66704 11.0542 6.8053 11.1743 6.8053 11.3232Z" fill="white"/>
<path opacity="0.75" d="M6.49552 11.5191C6.6202 11.5191 6.72127 11.4313 6.72127 11.323C6.72127 11.2147 6.6202 11.127 6.49552 11.127C6.37084 11.127 6.26978 11.2147 6.26978 11.323C6.26978 11.4313 6.37084 11.5191 6.49552 11.5191Z" fill="white"/>
<path d="M6.49555 11.4475C6.5748 11.4475 6.63905 11.3917 6.63905 11.3229C6.63905 11.254 6.5748 11.1982 6.49555 11.1982C6.4163 11.1982 6.35205 11.254 6.35205 11.3229C6.35205 11.3917 6.4163 11.4475 6.49555 11.4475Z" fill="white"/>
<path opacity="0.25" d="M4.67389 13.5832C4.67389 13.7716 4.49889 13.9236 4.28189 13.9236C4.06489 13.9236 3.88989 13.7716 3.88989 13.5832C3.88989 13.3947 4.06489 13.2427 4.28189 13.2427C4.49889 13.2427 4.67389 13.3962 4.67389 13.5832Z" fill="white"/>
<path opacity="0.5" d="M4.59167 13.5835C4.59167 13.7325 4.45342 13.8525 4.28192 13.8525C4.11042 13.8525 3.97217 13.7325 3.97217 13.5835C3.97217 13.4345 4.11042 13.3145 4.28192 13.3145C4.45342 13.316 4.59167 13.4361 4.59167 13.5835Z" fill="white"/>
<path opacity="0.75" d="M4.2819 13.7794C4.40658 13.7794 4.50764 13.6916 4.50764 13.5833C4.50764 13.475 4.40658 13.3872 4.2819 13.3872C4.15722 13.3872 4.05615 13.475 4.05615 13.5833C4.05615 13.6916 4.15722 13.7794 4.2819 13.7794Z" fill="white"/>
<path d="M4.42543 13.5831C4.42543 13.6515 4.36068 13.7078 4.28193 13.7078C4.20318 13.7078 4.13843 13.6515 4.13843 13.5831C4.13843 13.5147 4.20318 13.4585 4.28193 13.4585C4.36068 13.46 4.42543 13.5147 4.42543 13.5831Z" fill="white"/>
<path opacity="0.25" d="M2.65607 14.4889C2.65607 14.6774 2.48107 14.8294 2.26407 14.8294C2.04707 14.8294 1.87207 14.6774 1.87207 14.4889C1.87207 14.3004 2.04707 14.1484 2.26407 14.1484C2.48107 14.1469 2.65607 14.3004 2.65607 14.4889Z" fill="white"/>
<path opacity="0.5" d="M2.57385 14.4893C2.57385 14.6382 2.4356 14.7583 2.2641 14.7583C2.0926 14.7583 1.95435 14.6382 1.95435 14.4893C1.95435 14.3403 2.0926 14.2202 2.2641 14.2202C2.4356 14.2202 2.57385 14.3403 2.57385 14.4893Z" fill="white"/>
<path opacity="0.75" d="M2.49153 14.4891C2.49153 14.597 2.39004 14.6851 2.26579 14.6851C2.14154 14.6851 2.04004 14.597 2.04004 14.4891C2.04004 14.3811 2.14154 14.293 2.26579 14.293C2.39004 14.2915 2.49153 14.3796 2.49153 14.4891Z" fill="white"/>
<path d="M2.40761 14.4889C2.40761 14.5573 2.34286 14.6135 2.26411 14.6135C2.18536 14.6135 2.12061 14.5573 2.12061 14.4889C2.12061 14.4205 2.18536 14.3643 2.26411 14.3643C2.34286 14.3643 2.40761 14.419 2.40761 14.4889Z" fill="white"/>
<path opacity="0.25" d="M3.72022 10.5314C3.72022 11.0163 3.26697 11.41 2.70872 11.41C2.15047 11.41 1.69897 11.0163 1.69897 10.5314C1.69897 10.0465 2.15222 9.65283 2.70872 9.65283C3.26697 9.65435 3.72022 10.0465 3.72022 10.5314Z" fill="white"/>
<path opacity="0.5" d="M3.50657 10.5314C3.50657 10.913 3.14957 11.223 2.71032 11.223C2.27107 11.223 1.91406 10.913 1.91406 10.5314C1.91406 10.1484 2.27107 9.83984 2.71032 9.83984C3.14957 9.83984 3.50657 10.1499 3.50657 10.5314Z" fill="white"/>
<path opacity="0.75" d="M3.29148 10.5311C3.29148 10.8107 3.03073 11.0372 2.70873 11.0372C2.38673 11.0372 2.12598 10.8107 2.12598 10.5311C2.12598 10.2514 2.38673 10.0249 2.70873 10.0249C3.03073 10.0249 3.29148 10.2514 3.29148 10.5311Z" fill="white"/>
<path d="M3.07785 10.5312C3.07785 10.709 2.9116 10.8519 2.7086 10.8519C2.5056 10.8519 2.33936 10.709 2.33936 10.5312C2.33936 10.3533 2.5056 10.2104 2.7086 10.2104C2.91335 10.2104 3.07785 10.3548 3.07785 10.5312Z" fill="white"/>
<path opacity="0.0625" d="M10.6117 1.5532C7.21142 4.60536 7.40042 7.34744 7.80817 7.5724C8.94917 8.20016 12.1517 4.19344 12.8604 3.51248C15.4819 0.993838 17.3404 1.04096 17.0079 0.736958C15.7689 -0.387842 12.1289 0.197358 10.6117 1.5532Z" fill="#FFFFBB"/>
<path opacity="0.125" d="M10.7394 1.50008C7.5264 4.3744 7.7119 7.02528 8.1074 7.2472C9.18365 7.85368 12.2164 4.078 12.9164 3.41376C15.4119 1.0456 17.1847 1.05168 16.8592 0.753757C15.6919 -0.313283 12.1936 0.209597 10.7394 1.50008Z" fill="#FFFFBD"/>
<path opacity="0.1875" d="M10.867 1.4454C7.83252 4.13276 8.02327 6.70004 8.40827 6.92196C9.41802 7.50564 12.2845 3.96252 12.9723 3.31652C15.34 1.09732 17.0288 1.0654 16.7103 0.772044C15.613 -0.237236 12.2565 0.215723 10.867 1.4454Z" fill="#FFFFC0"/>
<path opacity="0.25" d="M10.9949 1.39029C8.14415 3.89677 8.33665 6.37437 8.70765 6.59477C9.65265 7.15413 12.3512 3.84357 13.0284 3.21733C15.2684 1.14557 16.8714 1.07565 16.5616 0.788373C15.5361 -0.161627 12.3214 0.225974 10.9949 1.39029Z" fill="#FFFFC2"/>
<path opacity="0.3125" d="M11.1226 1.33748C8.4573 3.66308 8.64805 6.051 9.00855 6.26988C9.8888 6.80492 12.4176 3.72844 13.0843 3.12044C15.1931 1.19612 16.7156 1.0882 16.4128 0.806999C15.4573 -0.0837212 12.3861 0.235479 11.1226 1.33748Z" fill="#FFFFC5"/>
<path opacity="0.375" d="M11.2504 1.28276C8.76886 3.429 8.95961 5.72572 9.30786 5.94308C10.1234 6.4538 12.4824 3.6114 13.1404 3.02012C15.1196 1.24324 16.5581 1.09884 16.2641 0.822204C15.3786 -0.00771551 12.4509 0.246124 11.2504 1.28276Z" fill="#FFFFC7"/>
<path opacity="0.4375" d="M11.3779 1.22951C9.08194 3.19639 9.27269 5.40191 9.60869 5.61775C10.3612 6.10263 12.5487 3.49583 13.1979 2.92279C15.0442 1.29183 16.4039 1.11095 16.1187 0.840394C15.2997 0.0682339 12.5154 0.255194 11.3779 1.22951Z" fill="#FFFFCA"/>
<path opacity="0.5" d="M11.5058 1.17451C9.39703 2.96203 9.58428 5.07483 9.90803 5.29067C10.5975 5.74971 12.6153 3.37699 13.2523 2.82371C14.9655 1.33715 16.2465 1.12131 15.9683 0.856827C15.2193 0.145467 12.5803 0.265547 11.5058 1.17451Z" fill="#FFFFCC"/>
<path opacity="0.5625" d="M11.6335 1.12135C9.71027 2.72951 9.89753 4.75111 10.209 4.96543C10.8355 5.39863 12.68 3.26151 13.31 2.72647C14.8885 1.38431 16.0908 1.13503 15.8213 0.875108C15.1405 0.223028 12.645 0.276228 11.6335 1.12135Z" fill="#FFFFCF"/>
<path opacity="0.625" d="M11.7613 1.06652C10.0253 2.49532 10.2108 4.4242 10.5083 4.64004C11.0718 5.04588 12.7448 3.14436 13.3661 2.62908C14.8081 1.42828 15.9351 1.14708 15.6726 0.893241C15.0601 0.300441 12.7098 0.285241 11.7613 1.06652Z" fill="#FFFFD1"/>
<path opacity="0.6875" d="M11.889 1.01342C10.342 2.26438 10.5223 4.09902 10.8075 4.31486C11.3098 4.69182 12.8095 3.02742 13.4203 2.53038C14.724 1.47094 15.7758 1.15934 15.522 0.910058C14.9795 0.378058 12.7763 0.295978 11.889 1.01342Z" fill="#FFFFD3"/>
<path opacity="0.75" d="M12.0169 0.958723C10.6571 2.03184 10.8356 3.77224 11.1086 3.98808C11.5496 4.33616 12.8726 2.90888 13.4781 2.4316C14.6418 1.512 15.6201 1.17 15.3751 0.926804C14.8991 0.455604 12.8429 0.308163 12.0169 0.958723Z" fill="#FFFFD6"/>
<path opacity="0.8125" d="M12.1446 0.905554C10.9756 1.80235 11.1506 3.44699 11.4078 3.66283C11.7893 3.98203 12.9356 2.79035 13.5341 2.33435C14.5578 1.55307 15.4643 1.18371 15.2263 0.945074C14.8186 0.533154 12.9093 0.318834 12.1446 0.905554Z" fill="#FFFFD9"/>
<path opacity="0.875" d="M12.2723 0.850672C11.294 1.57267 11.4655 3.11851 11.7087 3.33587C12.0307 3.62467 12.9985 2.66859 13.59 2.23539C14.4703 1.59091 15.3068 1.19571 15.0775 0.961632C14.738 0.612032 12.9758 0.330832 12.2723 0.850672Z" fill="#FFFFDB"/>
<path opacity="0.9375" d="M12.3999 0.796187C11.6142 1.34491 11.7804 2.78891 12.0079 3.00931C12.2722 3.26619 13.0562 2.54419 13.6459 2.13531C14.3809 1.62459 15.1492 1.20659 14.9304 0.977067C14.6557 0.691307 13.0457 0.344747 12.3999 0.796187Z" fill="#FFFFDD"/>
<path d="M12.5279 0.743038C11.9381 1.12304 12.1009 2.45912 12.3091 2.68408C12.5174 2.90904 13.1141 2.41808 13.7039 2.03808C14.2936 1.65808 14.9919 1.22032 14.7836 0.995358C14.5736 0.770398 13.1176 0.363038 12.5279 0.743038Z" fill="#FFFFE0"/>
<defs>
<linearGradient id="paint0_linear_109_21551" x1="12.1609" y1="0.0881221" x2="8.219" y2="29.726" gradientUnits="userSpaceOnUse">
<stop stop-color="#DBAB60"/>
<stop offset="0.00029627" stop-color="#DCAB60"/>
<stop offset="0.0099" stop-color="#E8B36B"/>
<stop offset="0.0228" stop-color="#EFB870"/>
<stop offset="0.0536" stop-color="#F1B972"/>
<stop offset="0.1083" stop-color="#F7CB88"/>
<stop offset="0.1727" stop-color="#FBDB9A"/>
<stop offset="0.24" stop-color="#FEE4A5"/>
<stop offset="0.3142" stop-color="#FFE7A9"/>
<stop offset="0.3478" stop-color="#FBE1A3"/>
<stop offset="0.3932" stop-color="#F0D292"/>
<stop offset="0.4454" stop-color="#DFB875"/>
<stop offset="0.5023" stop-color="#C6954E"/>
<stop offset="0.5364" stop-color="#B57C33"/>
<stop offset="0.5605" stop-color="#C3944E"/>
<stop offset="0.5964" stop-color="#D5B170"/>
<stop offset="0.6348" stop-color="#E3CA8C"/>
<stop offset="0.676" stop-color="#EEDCA2"/>
<stop offset="0.7212" stop-color="#F6EAB1"/>
<stop offset="0.7738" stop-color="#FBF2BA"/>
<stop offset="0.8506" stop-color="#FCF4BD"/>
<stop offset="0.9387" stop-color="#F0D397"/>
<stop offset="0.9508" stop-color="#EDD094"/>
<stop offset="0.9602" stop-color="#E5C68C"/>
<stop offset="0.9688" stop-color="#D6B57F"/>
<stop offset="0.9769" stop-color="#C29E6B"/>
<stop offset="0.9846" stop-color="#A88053"/>
<stop offset="0.9919" stop-color="#885B35"/>
<stop offset="0.9962" stop-color="#724220"/>
</linearGradient>
<linearGradient id="paint1_linear_109_21551" x1="7.92674" y1="13.4372" x2="21.1752" y2="17.741" gradientUnits="userSpaceOnUse">
<stop offset="0.0038" stop-color="#683D11"/>
<stop offset="0.1533" stop-color="#ECB879"/>
<stop offset="0.2053" stop-color="#DBA965"/>
<stop offset="0.2605" stop-color="#CC9C54"/>
<stop offset="0.2859" stop-color="#DAAD69"/>
<stop offset="0.3103" stop-color="#E4BA78"/>
<stop offset="0.3595" stop-color="#EAC17E"/>
<stop offset="0.4406" stop-color="#EDC481"/>
<stop offset="0.4973" stop-color="#E3B978"/>
<stop offset="0.596" stop-color="#C99D60"/>
<stop offset="0.7242" stop-color="#9E6E3A"/>
<stop offset="0.7356" stop-color="#9A6A36"/>
<stop offset="0.9056" stop-color="#E0BE84"/>
<stop offset="0.9464" stop-color="#F1D397"/>
<stop offset="0.9661" stop-color="#F0D295"/>
<stop offset="0.9744" stop-color="#EBCC8E"/>
<stop offset="0.9805" stop-color="#E3C381"/>
<stop offset="0.9856" stop-color="#D8B670"/>
<stop offset="0.99" stop-color="#C9A659"/>
<stop offset="0.994" stop-color="#B7913D"/>
<stop offset="0.9975" stop-color="#A2791C"/>
<stop offset="1" stop-color="#906500"/>
</linearGradient>
<linearGradient id="paint2_linear_109_21551" x1="14.8824" y1="27.236" x2="16.8638" y2="2.01817" gradientUnits="userSpaceOnUse">
<stop stop-color="#BA8B4C"/>
<stop offset="0.0575" stop-color="#FEE09F"/>
<stop offset="0.1725" stop-color="#FCDE9D"/>
<stop offset="0.2224" stop-color="#F6D797"/>
<stop offset="0.2597" stop-color="#EBCA8C"/>
<stop offset="0.2908" stop-color="#DCB87C"/>
<stop offset="0.318" stop-color="#C8A167"/>
<stop offset="0.3424" stop-color="#AF844E"/>
<stop offset="0.3643" stop-color="#926330"/>
<stop offset="0.3831" stop-color="#744011"/>
<stop offset="0.426" stop-color="#7E4B1B"/>
<stop offset="0.5006" stop-color="#986737"/>
<stop offset="0.5975" stop-color="#C19663"/>
<stop offset="0.6743" stop-color="#E7BF8B"/>
<stop offset="0.7192" stop-color="#EDC994"/>
<stop offset="0.7949" stop-color="#FDE3AB"/>
<stop offset="0.8046" stop-color="#FFE7AE"/>
<stop offset="0.8356" stop-color="#FDE4AA"/>
<stop offset="0.8653" stop-color="#F7DC9F"/>
<stop offset="0.8945" stop-color="#ECCD8B"/>
<stop offset="0.9233" stop-color="#DDB970"/>
<stop offset="0.9518" stop-color="#CA9F4D"/>
<stop offset="0.9798" stop-color="#B27F23"/>
<stop offset="1" stop-color="#9F6500"/>
</linearGradient>
<linearGradient id="paint3_linear_109_21551" x1="5.08741" y1="5.71659" x2="12.7361" y2="5.71659" gradientUnits="userSpaceOnUse">
<stop stop-color="#BA8B4C"/>
<stop offset="0.3831" stop-color="#744011"/>
<stop offset="0.426" stop-color="#7E4B1B"/>
<stop offset="0.5006" stop-color="#986737"/>
<stop offset="0.5975" stop-color="#C19663"/>
<stop offset="0.6743" stop-color="#E7BF8B"/>
<stop offset="0.7192" stop-color="#EDC994"/>
<stop offset="0.7949" stop-color="#FDE3AB"/>
<stop offset="0.8046" stop-color="#FFE7AE"/>
<stop offset="0.8356" stop-color="#FDE4AA"/>
<stop offset="0.8653" stop-color="#F7DC9F"/>
<stop offset="0.8945" stop-color="#ECCD8B"/>
<stop offset="0.9233" stop-color="#DDB970"/>
<stop offset="0.9518" stop-color="#CA9F4D"/>
<stop offset="0.9798" stop-color="#B27F23"/>
<stop offset="1" stop-color="#9F6500"/>
</linearGradient>
<linearGradient id="paint4_linear_109_21551" x1="7.29325" y1="14.5641" x2="8.27044" y2="10.3071" gradientUnits="userSpaceOnUse">
<stop offset="0.0038" stop-color="#724220"/>
<stop offset="0.0243" stop-color="#885B35"/>
<stop offset="0.0594" stop-color="#A88053"/>
<stop offset="0.0964" stop-color="#C29E6B"/>
<stop offset="0.1351" stop-color="#D6B57F"/>
<stop offset="0.1763" stop-color="#E5C68C"/>
<stop offset="0.2218" stop-color="#EDD094"/>
<stop offset="0.2797" stop-color="#F0D397"/>
<stop offset="0.4981" stop-color="#FFEAB5"/>
<stop offset="0.5798" stop-color="#FEE7B1"/>
<stop offset="0.6539" stop-color="#FCDFA6"/>
<stop offset="0.725" stop-color="#F8D294"/>
<stop offset="0.794" stop-color="#F3BF7A"/>
<stop offset="0.8123" stop-color="#F1B972"/>
<stop offset="0.8963" stop-color="#EFB771"/>
<stop offset="0.9315" stop-color="#E8B16C"/>
<stop offset="0.9576" stop-color="#DBA564"/>
<stop offset="0.9791" stop-color="#CA9658"/>
<stop offset="0.9977" stop-color="#B38149"/>
<stop offset="1" stop-color="#B07E47"/>
</linearGradient>
<linearGradient id="paint5_linear_109_21551" x1="2.45295" y1="7.70702" x2="4.10109" y2="7.70702" gradientUnits="userSpaceOnUse">
<stop stop-color="#B0B0BF"/>
<stop offset="0.2128" stop-color="#9E9FA9"/>
<stop offset="0.6015" stop-color="#808384"/>
<stop offset="0.7548" stop-color="#919494"/>
<stop offset="0.8307" stop-color="#666C6A"/>
<stop offset="0.8812" stop-color="#4E5652"/>
<stop offset="0.8824" stop-color="#505754"/>
<stop offset="0.9388" stop-color="#949899"/>
<stop offset="0.9794" stop-color="#C0C1C4"/>
<stop offset="1" stop-color="#D0D0D5"/>
</linearGradient>
<linearGradient id="paint6_linear_109_21551" x1="7.61933" y1="14.762" x2="6.20497" y2="15.8354" gradientUnits="userSpaceOnUse">
<stop stop-color="#B0B0BF"/>
<stop offset="0.2128" stop-color="#9E9FA9"/>
<stop offset="0.6015" stop-color="#808384"/>
<stop offset="0.7548" stop-color="#919494"/>
<stop offset="0.8307" stop-color="#666C6A"/>
<stop offset="0.8812" stop-color="#4E5652"/>
<stop offset="0.8824" stop-color="#505754"/>
<stop offset="0.9388" stop-color="#949899"/>
<stop offset="0.9794" stop-color="#C0C1C4"/>
<stop offset="1" stop-color="#D0D0D5"/>
</linearGradient>
<linearGradient id="paint7_linear_109_21551" x1="2.74961" y1="7.77309" x2="1.04714" y2="8.74849" gradientUnits="userSpaceOnUse">
<stop stop-color="#B0B0BF"/>
<stop offset="0.2128" stop-color="#9E9FA9"/>
<stop offset="0.6015" stop-color="#808384"/>
<stop offset="0.7548" stop-color="#919494"/>
<stop offset="0.8307" stop-color="#666C6A"/>
<stop offset="0.8812" stop-color="#4E5652"/>
<stop offset="0.8824" stop-color="#505754"/>
<stop offset="0.9388" stop-color="#949899"/>
<stop offset="0.9794" stop-color="#C0C1C4"/>
<stop offset="1" stop-color="#D0D0D5"/>
</linearGradient>
<linearGradient id="paint8_linear_109_21551" x1="7.8795" y1="8.83485" x2="8.75535" y2="10.0884" gradientUnits="userSpaceOnUse">
<stop stop-color="#B0B0BF"/>
<stop offset="0.2128" stop-color="#9E9FA9"/>
<stop offset="0.6015" stop-color="#808384"/>
<stop offset="0.7548" stop-color="#919494"/>
<stop offset="0.8307" stop-color="#666C6A"/>
<stop offset="0.8812" stop-color="#4E5652"/>
<stop offset="0.8824" stop-color="#505754"/>
<stop offset="0.9388" stop-color="#949899"/>
<stop offset="0.9794" stop-color="#C0C1C4"/>
<stop offset="1" stop-color="#D0D0D5"/>
</linearGradient>
<linearGradient id="paint9_linear_109_21551" x1="0.551139" y1="13.6433" x2="1.1863" y2="14.9343" gradientUnits="userSpaceOnUse">
<stop stop-color="#B0B0BF"/>
<stop offset="0.2128" stop-color="#9E9FA9"/>
<stop offset="0.6015" stop-color="#808384"/>
<stop offset="0.7548" stop-color="#919494"/>
<stop offset="0.8307" stop-color="#666C6A"/>
<stop offset="0.8812" stop-color="#4E5652"/>
<stop offset="0.8824" stop-color="#505754"/>
<stop offset="0.9388" stop-color="#949899"/>
<stop offset="0.9794" stop-color="#C0C1C4"/>
<stop offset="1" stop-color="#D0D0D5"/>
</linearGradient>
<linearGradient id="paint10_linear_109_21551" x1="3.40963" y1="10.2474" x2="4.73581" y2="9.21459" gradientUnits="userSpaceOnUse">
<stop stop-color="white"/>
<stop offset="0.1135" stop-color="#EFEFEF"/>
<stop offset="0.524" stop-color="#BABABA"/>
<stop offset="0.8319" stop-color="#999999"/>
<stop offset="1" stop-color="#8D8D8C"/>
</linearGradient>
<linearGradient id="paint11_linear_109_21551" x1="4.0874" y1="11.1178" x2="7.0317" y2="8.82481" gradientUnits="userSpaceOnUse">
<stop stop-color="white"/>
<stop offset="0.1135" stop-color="#EFEFEF"/>
<stop offset="0.524" stop-color="#BABABA"/>
<stop offset="0.8319" stop-color="#999999"/>
<stop offset="1" stop-color="#8D8D8C"/>
</linearGradient>
<linearGradient id="paint12_linear_109_21551" x1="4.97712" y1="12.2604" x2="7.87501" y2="10.0036" gradientUnits="userSpaceOnUse">
<stop stop-color="white"/>
<stop offset="0.1135" stop-color="#EFEFEF"/>
<stop offset="0.524" stop-color="#BABABA"/>
<stop offset="0.8319" stop-color="#999999"/>
<stop offset="1" stop-color="#8D8D8C"/>
</linearGradient>
<linearGradient id="paint13_linear_109_21551" x1="5.63162" y1="13.1192" x2="6.80366" y2="12.2064" gradientUnits="userSpaceOnUse">
<stop stop-color="white"/>
<stop offset="0.1135" stop-color="#EFEFEF"/>
<stop offset="0.524" stop-color="#BABABA"/>
<stop offset="0.8319" stop-color="#999999"/>
<stop offset="1" stop-color="#8D8D8C"/>
</linearGradient>
<linearGradient id="paint14_linear_109_21551" x1="2.21489" y1="10.9547" x2="3.30842" y2="10.103" gradientUnits="userSpaceOnUse">
<stop stop-color="#8D8D8C"/>
<stop offset="0.1681" stop-color="#999999"/>
<stop offset="0.476" stop-color="#BABABA"/>
<stop offset="0.8865" stop-color="#EFEFEF"/>
<stop offset="1" stop-color="white"/>
</linearGradient>
<linearGradient id="paint15_linear_109_21551" x1="4.22342" y1="13.9703" x2="5.52171" y2="12.9592" gradientUnits="userSpaceOnUse">
<stop stop-color="#8D8D8C"/>
<stop offset="0.1681" stop-color="#999999"/>
<stop offset="0.476" stop-color="#BABABA"/>
<stop offset="0.8865" stop-color="#EFEFEF"/>
<stop offset="1" stop-color="white"/>
</linearGradient>
<linearGradient id="paint16_linear_109_21551" x1="0.904457" y1="12.9295" x2="3.76394" y2="10.7025" gradientUnits="userSpaceOnUse">
<stop stop-color="#8D8D8C"/>
<stop offset="0.1681" stop-color="#999999"/>
<stop offset="0.476" stop-color="#BABABA"/>
<stop offset="0.8865" stop-color="#EFEFEF"/>
<stop offset="1" stop-color="white"/>
</linearGradient>
<linearGradient id="paint17_linear_109_21551" x1="1.69627" y1="14.1872" x2="4.67267" y2="11.8692" gradientUnits="userSpaceOnUse">
<stop stop-color="#8D8D8C"/>
<stop offset="0.1681" stop-color="#999999"/>
<stop offset="0.476" stop-color="#BABABA"/>
<stop offset="0.8865" stop-color="#EFEFEF"/>
<stop offset="1" stop-color="white"/>
</linearGradient>
<linearGradient id="paint18_linear_109_21551" x1="5.56823" y1="14.3178" x2="6.77999" y2="13.374" gradientUnits="userSpaceOnUse">
<stop stop-color="white"/>
<stop offset="0.1135" stop-color="#EFEFEF"/>
<stop offset="0.524" stop-color="#BABABA"/>
<stop offset="0.8319" stop-color="#999999"/>
<stop offset="1" stop-color="#8D8D8C"/>
</linearGradient>
<linearGradient id="paint19_linear_109_21551" x1="6.18329" y1="12.6081" x2="7.82877" y2="11.3266" gradientUnits="userSpaceOnUse">
<stop stop-color="white"/>
<stop offset="0.1135" stop-color="#EFEFEF"/>
<stop offset="0.524" stop-color="#BABABA"/>
<stop offset="0.8319" stop-color="#999999"/>
<stop offset="1" stop-color="#8D8D8C"/>
</linearGradient>
<linearGradient id="paint20_linear_109_21551" x1="6.01799" y1="10.7316" x2="7.82682" y2="9.32287" gradientUnits="userSpaceOnUse">
<stop stop-color="white"/>
<stop offset="0.3247" stop-color="#B9C1D3"/>
<stop offset="0.6301" stop-color="#7E8DAD"/>
<stop offset="0.8542" stop-color="#5A6C96"/>
<stop offset="0.9732" stop-color="#4C608D"/>
<stop offset="0.9799" stop-color="#606E8D"/>
<stop offset="0.9929" stop-color="#80848C"/>
<stop offset="1" stop-color="#8D8D8C"/>
</linearGradient>
<linearGradient id="paint21_linear_109_21551" x1="4.28941" y1="9.70981" x2="5.82483" y2="8.51403" gradientUnits="userSpaceOnUse">
<stop stop-color="white"/>
<stop offset="0.2389" stop-color="#DED7DE"/>
<stop offset="0.5911" stop-color="#B2A2B2"/>
<stop offset="0.8556" stop-color="#978196"/>
<stop offset="1" stop-color="#8D748C"/>
</linearGradient>
<linearGradient id="paint22_linear_109_21551" x1="1.88116" y1="9.65068" x2="3.35147" y2="8.5056" gradientUnits="userSpaceOnUse">
<stop stop-color="white"/>
<stop offset="0.1135" stop-color="#EFEFEF"/>
<stop offset="0.524" stop-color="#BABABA"/>
<stop offset="0.8319" stop-color="#999999"/>
<stop offset="1" stop-color="#8D8D8C"/>
</linearGradient>
<linearGradient id="paint23_linear_109_21551" x1="1.00785" y1="11.5722" x2="2.4829" y2="10.4235" gradientUnits="userSpaceOnUse">
<stop stop-color="white"/>
<stop offset="0.1135" stop-color="#EFEFEF"/>
<stop offset="0.524" stop-color="#BABABA"/>
<stop offset="0.8319" stop-color="#999999"/>
<stop offset="1" stop-color="#8D8D8C"/>
</linearGradient>
<linearGradient id="paint24_linear_109_21551" x1="1.00678" y1="13.678" x2="2.53758" y2="12.4858" gradientUnits="userSpaceOnUse">
<stop stop-color="white"/>
<stop offset="0.1135" stop-color="#EFEFEF"/>
<stop offset="0.524" stop-color="#BABABA"/>
<stop offset="0.8319" stop-color="#999999"/>
<stop offset="1" stop-color="#8D8D8C"/>
</linearGradient>
<linearGradient id="paint25_linear_109_21551" x1="3.11076" y1="14.5811" x2="4.76795" y2="13.2905" gradientUnits="userSpaceOnUse">
<stop stop-color="white"/>
<stop offset="0.1135" stop-color="#EFEFEF"/>
<stop offset="0.524" stop-color="#BABABA"/>
<stop offset="0.8319" stop-color="#999999"/>
<stop offset="1" stop-color="#8D8D8C"/>
</linearGradient>
<linearGradient id="paint26_linear_109_21551" x1="5.09138" y1="15.0851" x2="7.55265" y2="13.1683" gradientUnits="userSpaceOnUse">
<stop stop-color="white"/>
<stop offset="0.1135" stop-color="#EFEFEF"/>
<stop offset="0.524" stop-color="#BABABA"/>
<stop offset="0.8319" stop-color="#999999"/>
<stop offset="1" stop-color="#8D8D8C"/>
</linearGradient>
<linearGradient id="paint27_linear_109_21551" x1="7.32064" y1="12.8893" x2="9.11303" y2="11.4934" gradientUnits="userSpaceOnUse">
<stop stop-color="white"/>
<stop offset="0.1135" stop-color="#EFEFEF"/>
<stop offset="0.524" stop-color="#BABABA"/>
<stop offset="0.8319" stop-color="#999999"/>
<stop offset="1" stop-color="#8D8D8C"/>
</linearGradient>
<linearGradient id="paint28_linear_109_21551" x1="7.15763" y1="10.0508" x2="7.67553" y2="9.64749" gradientUnits="userSpaceOnUse">
<stop stop-color="white"/>
<stop offset="0.1135" stop-color="#EFEFEF"/>
<stop offset="0.524" stop-color="#BABABA"/>
<stop offset="0.8319" stop-color="#999999"/>
<stop offset="1" stop-color="#8D8D8C"/>
</linearGradient>
<linearGradient id="paint29_linear_109_21551" x1="4.37558" y1="8.75206" x2="5.99372" y2="7.49186" gradientUnits="userSpaceOnUse">
<stop stop-color="white"/>
<stop offset="0.1135" stop-color="#EFEFEF"/>
<stop offset="0.524" stop-color="#BABABA"/>
<stop offset="0.8319" stop-color="#999999"/>
<stop offset="1" stop-color="#8D8D8C"/>
</linearGradient>
<linearGradient id="paint30_linear_109_21551" x1="1.17867" y1="9.62398" x2="3.59127" y2="7.74504" gradientUnits="userSpaceOnUse">
<stop stop-color="white"/>
<stop offset="0.1135" stop-color="#EFEFEF"/>
<stop offset="0.524" stop-color="#BABABA"/>
<stop offset="0.8319" stop-color="#999999"/>
<stop offset="1" stop-color="#8D8D8C"/>
</linearGradient>
<linearGradient id="paint31_linear_109_21551" x1="-0.189599" y1="11.3918" x2="1.49416" y2="10.0805" gradientUnits="userSpaceOnUse">
<stop stop-color="white"/>
<stop offset="0.1135" stop-color="#EFEFEF"/>
<stop offset="0.524" stop-color="#BABABA"/>
<stop offset="0.8319" stop-color="#999999"/>
<stop offset="1" stop-color="#8D8D8C"/>
</linearGradient>
<linearGradient id="paint32_linear_109_21551" x1="1.18643" y1="13.5327" x2="1.74062" y2="13.1011" gradientUnits="userSpaceOnUse">
<stop stop-color="white"/>
<stop offset="0.1135" stop-color="#EFEFEF"/>
<stop offset="0.524" stop-color="#BABABA"/>
<stop offset="0.8319" stop-color="#999999"/>
<stop offset="1" stop-color="#8D8D8C"/>
</linearGradient>
<linearGradient id="paint33_linear_109_21551" x1="2.78456" y1="15.5847" x2="4.46266" y2="14.2778" gradientUnits="userSpaceOnUse">
<stop stop-color="white"/>
<stop offset="0.1135" stop-color="#EFEFEF"/>
<stop offset="0.524" stop-color="#BABABA"/>
<stop offset="0.8319" stop-color="#999999"/>
<stop offset="1" stop-color="#8D8D8C"/>
</linearGradient>
<linearGradient id="paint34_linear_109_21551" x1="2.89602" y1="10.7532" x2="3.71088" y2="9.29709" gradientUnits="userSpaceOnUse">
<stop stop-color="white"/>
<stop offset="0.1135" stop-color="#EFEFEF"/>
<stop offset="0.524" stop-color="#BABABA"/>
<stop offset="0.8319" stop-color="#999999"/>
<stop offset="1" stop-color="#8D8D8C"/>
</linearGradient>
<linearGradient id="paint35_linear_109_21551" x1="3.87694" y1="11.3024" x2="5.64874" y2="8.13639" gradientUnits="userSpaceOnUse">
<stop stop-color="white"/>
<stop offset="0.1135" stop-color="#EFEFEF"/>
<stop offset="0.524" stop-color="#BABABA"/>
<stop offset="0.8319" stop-color="#999999"/>
<stop offset="1" stop-color="#8D8D8C"/>
</linearGradient>
<linearGradient id="paint36_linear_109_21551" x1="5.18707" y1="12.0357" x2="6.91479" y2="8.94842" gradientUnits="userSpaceOnUse">
<stop stop-color="white"/>
<stop offset="0.1135" stop-color="#EFEFEF"/>
<stop offset="0.524" stop-color="#BABABA"/>
<stop offset="0.8319" stop-color="#999999"/>
<stop offset="1" stop-color="#8D8D8C"/>
</linearGradient>
<linearGradient id="paint37_linear_109_21551" x1="6.16494" y1="12.6025" x2="6.85042" y2="11.3776" gradientUnits="userSpaceOnUse">
<stop stop-color="white"/>
<stop offset="0.1135" stop-color="#EFEFEF"/>
<stop offset="0.524" stop-color="#BABABA"/>
<stop offset="0.8319" stop-color="#999999"/>
<stop offset="1" stop-color="#8D8D8C"/>
</linearGradient>
<linearGradient id="paint38_linear_109_21551" x1="2.14341" y1="11.8092" x2="2.77981" y2="10.672" gradientUnits="userSpaceOnUse">
<stop stop-color="#8D8D8C"/>
<stop offset="0.1681" stop-color="#999999"/>
<stop offset="0.476" stop-color="#BABABA"/>
<stop offset="0.8865" stop-color="#EFEFEF"/>
<stop offset="1" stop-color="white"/>
</linearGradient>
<linearGradient id="paint39_linear_109_21551" x1="5.23143" y1="13.9299" x2="6.02826" y2="12.506" gradientUnits="userSpaceOnUse">
<stop stop-color="#8D8D8C"/>
<stop offset="0.1681" stop-color="#999999"/>
<stop offset="0.476" stop-color="#BABABA"/>
<stop offset="0.8865" stop-color="#EFEFEF"/>
<stop offset="1" stop-color="white"/>
</linearGradient>
<linearGradient id="paint40_linear_109_21551" x1="1.78158" y1="14.1249" x2="3.48426" y2="11.0823" gradientUnits="userSpaceOnUse">
<stop stop-color="#8D8D8C"/>
<stop offset="0.1681" stop-color="#998E99"/>
<stop offset="0.476" stop-color="#BA91BA"/>
<stop offset="0.8865" stop-color="#EF96EF"/>
<stop offset="1" stop-color="#FF97FF"/>
</linearGradient>
<linearGradient id="paint41_linear_109_21551" x1="3.03105" y1="15.0275" x2="4.82041" y2="11.83" gradientUnits="userSpaceOnUse">
<stop stop-color="#8D8D8C"/>
<stop offset="0.1681" stop-color="#999999"/>
<stop offset="0.476" stop-color="#BABABA"/>
<stop offset="0.8865" stop-color="#EFEFEF"/>
<stop offset="1" stop-color="white"/>
</linearGradient>
<linearGradient id="paint42_linear_109_21551" x1="6.62474" y1="13.7462" x2="7.35021" y2="12.4499" gradientUnits="userSpaceOnUse">
<stop stop-color="#8D8D8C"/>
<stop offset="0.1681" stop-color="#999999"/>
<stop offset="0.476" stop-color="#BABABA"/>
<stop offset="0.8865" stop-color="#EFEFEF"/>
<stop offset="1" stop-color="white"/>
</linearGradient>
<linearGradient id="paint43_linear_109_21551" x1="6.42841" y1="11.9336" x2="7.40885" y2="10.1817" gradientUnits="userSpaceOnUse">
<stop stop-color="white"/>
<stop offset="0.2056" stop-color="#FBFBFB"/>
<stop offset="0.3892" stop-color="#F1F1F1"/>
<stop offset="0.5644" stop-color="#DFDFDE"/>
<stop offset="0.7344" stop-color="#C5C5C5"/>
<stop offset="0.8991" stop-color="#A5A5A4"/>
<stop offset="1" stop-color="#8D8D8C"/>
</linearGradient>
<linearGradient id="paint44_linear_109_21551" x1="5.48541" y1="10.2593" x2="6.57242" y2="8.31691" gradientUnits="userSpaceOnUse">
<stop stop-color="white"/>
<stop offset="0.4373" stop-color="#FDFDFD"/>
<stop offset="0.5948" stop-color="#F6F6F6"/>
<stop offset="0.7071" stop-color="#EBEBEB"/>
<stop offset="0.7979" stop-color="#DADADA"/>
<stop offset="0.8756" stop-color="#C4C4C4"/>
<stop offset="0.9432" stop-color="#AAAAA9"/>
<stop offset="1" stop-color="#8D8D8C"/>
</linearGradient>
<linearGradient id="paint45_linear_109_21551" x1="1.25469" y1="10.7341" x2="2.13466" y2="9.16166" gradientUnits="userSpaceOnUse">
<stop stop-color="#8D8D8C"/>
<stop offset="0.1681" stop-color="#999999"/>
<stop offset="0.476" stop-color="#BABABA"/>
<stop offset="0.8865" stop-color="#EFEFEF"/>
<stop offset="1" stop-color="white"/>
</linearGradient>
<linearGradient id="paint46_linear_109_21551" x1="1.31203" y1="12.831" x2="2.19199" y2="11.2586" gradientUnits="userSpaceOnUse">
<stop stop-color="#8D8D8C"/>
<stop offset="0.1681" stop-color="#999999"/>
<stop offset="0.476" stop-color="#BABABA"/>
<stop offset="0.8865" stop-color="#EFEFEF"/>
<stop offset="1" stop-color="white"/>
</linearGradient>
<linearGradient id="paint47_linear_109_21551" x1="2.18885" y1="14.7932" x2="3.10048" y2="13.1642" gradientUnits="userSpaceOnUse">
<stop stop-color="#608D8C"/>
<stop offset="0.1296" stop-color="#6D9695"/>
<stop offset="0.3671" stop-color="#8EAEAD"/>
<stop offset="0.6836" stop-color="#C3D4D4"/>
<stop offset="1" stop-color="white"/>
</linearGradient>
<linearGradient id="paint48_linear_109_21551" x1="4.49429" y1="14.8954" x2="5.49214" y2="13.1123" gradientUnits="userSpaceOnUse">
<stop stop-color="#8D8D8C"/>
<stop offset="0.1681" stop-color="#999999"/>
<stop offset="0.476" stop-color="#BABABA"/>
<stop offset="0.8865" stop-color="#EFEFEF"/>
<stop offset="1" stop-color="white"/>
</linearGradient>
<linearGradient id="paint49_linear_109_21551" x1="6.50715" y1="14.644" x2="7.98098" y2="12.0104" gradientUnits="userSpaceOnUse">
<stop stop-color="#8D8D8C"/>
<stop offset="0.1681" stop-color="#999999"/>
<stop offset="0.476" stop-color="#BABABA"/>
<stop offset="0.8865" stop-color="#EFEFEF"/>
<stop offset="1" stop-color="white"/>
</linearGradient>
<linearGradient id="paint50_linear_109_21551" x1="7.57844" y1="11.7979" x2="8.66345" y2="9.85907" gradientUnits="userSpaceOnUse">
<stop stop-color="#8D8D8C"/>
<stop offset="0.1681" stop-color="#999999"/>
<stop offset="0.476" stop-color="#BABABA"/>
<stop offset="0.8865" stop-color="#EFEFEF"/>
<stop offset="1" stop-color="white"/>
</linearGradient>
<linearGradient id="paint51_linear_109_21551" x1="6.22696" y1="9.20277" x2="6.5435" y2="8.63713" gradientUnits="userSpaceOnUse">
<stop stop-color="#8D8D8C"/>
<stop offset="0.1681" stop-color="#999999"/>
<stop offset="0.476" stop-color="#BABABA"/>
<stop offset="0.8865" stop-color="#EFEFEF"/>
<stop offset="1" stop-color="white"/>
</linearGradient>
<linearGradient id="paint52_linear_109_21551" x1="3.14941" y1="8.98323" x2="4.10635" y2="7.27325" gradientUnits="userSpaceOnUse">
<stop stop-color="#8D8D8C"/>
<stop offset="0.1681" stop-color="#999999"/>
<stop offset="0.476" stop-color="#BABABA"/>
<stop offset="0.8865" stop-color="#EFEFEF"/>
<stop offset="1" stop-color="white"/>
</linearGradient>
<linearGradient id="paint53_linear_109_21551" x1="0.603813" y1="10.9476" x2="2.0482" y2="8.36654" gradientUnits="userSpaceOnUse">
<stop stop-color="#8D8D8C"/>
<stop offset="0.1681" stop-color="#999999"/>
<stop offset="0.476" stop-color="#BABABA"/>
<stop offset="0.8865" stop-color="#EFEFEF"/>
<stop offset="1" stop-color="white"/>
</linearGradient>
<linearGradient id="paint54_linear_109_21551" x1="0.125903" y1="13.1071" x2="1.14495" y2="11.2861" gradientUnits="userSpaceOnUse">
<stop stop-color="#8D8D8C"/>
<stop offset="0.1681" stop-color="#999999"/>
<stop offset="0.476" stop-color="#BABABA"/>
<stop offset="0.8865" stop-color="#EFEFEF"/>
<stop offset="1" stop-color="white"/>
</linearGradient>
<linearGradient id="paint55_linear_109_21551" x1="2.29956" y1="14.6183" x2="2.63968" y2="14.0105" gradientUnits="userSpaceOnUse">
<stop stop-color="#8D8D8C"/>
<stop offset="0.1681" stop-color="#999999"/>
<stop offset="0.476" stop-color="#BABABA"/>
<stop offset="0.8865" stop-color="#EFEFEF"/>
<stop offset="1" stop-color="white"/>
</linearGradient>
<linearGradient id="paint56_linear_109_21551" x1="4.63538" y1="15.9256" x2="5.62792" y2="14.152" gradientUnits="userSpaceOnUse">
<stop stop-color="#8D8D8C"/>
<stop offset="0.1681" stop-color="#999999"/>
<stop offset="0.476" stop-color="#BABABA"/>
<stop offset="0.8865" stop-color="#EFEFEF"/>
<stop offset="1" stop-color="white"/>
</linearGradient>
<linearGradient id="paint57_linear_109_21551" x1="0.731374" y1="10.385" x2="2.51876" y2="8.99298" gradientUnits="userSpaceOnUse">
<stop stop-color="#8D8D8C"/>
<stop offset="0.0607" stop-color="#979596"/>
<stop offset="0.3601" stop-color="#C4BBC3"/>
<stop offset="0.6271" stop-color="#E4D6E4"/>
<stop offset="0.8495" stop-color="#F8E6F8"/>
<stop offset="1" stop-color="#FFECFF"/>
</linearGradient>
<linearGradient id="paint58_linear_109_21551" x1="6.01412" y1="13.8327" x2="7.77796" y2="12.4591" gradientUnits="userSpaceOnUse">
<stop stop-color="#8D8D8C"/>
<stop offset="0.0664" stop-color="#9C9C9B"/>
<stop offset="0.2523" stop-color="#BFBFBF"/>
<stop offset="0.4397" stop-color="#DBDBDB"/>
<stop offset="0.6268" stop-color="#EFEFEF"/>
<stop offset="0.8136" stop-color="#FBFBFB"/>
<stop offset="1" stop-color="white"/>
</linearGradient>
<linearGradient id="paint59_linear_109_21551" x1="6.01436" y1="13.8327" x2="7.77821" y2="12.4591" gradientUnits="userSpaceOnUse">
<stop stop-color="#8D8D8C"/>
<stop offset="0.0664" stop-color="#9C9C9B"/>
<stop offset="0.2523" stop-color="#BFBFBF"/>
<stop offset="0.4397" stop-color="#DBDBDB"/>
<stop offset="0.6268" stop-color="#EFEFEF"/>
<stop offset="0.8136" stop-color="#FBFBFB"/>
<stop offset="1" stop-color="white"/>
</linearGradient>
</defs>
</svg>
