<svg width="72" height="856" viewBox="0 0 72 856" fill="none" xmlns="http://www.w3.org/2000/svg">
<g filter="url(#filter0_n_65_16)">
<rect x="2" y="10" width="64" height="61.1576" rx="5" fill="#EDCDA2" fill-opacity="0.87"/>
<rect x="2" y="79.4502" width="64" height="61.1576" rx="5" fill="#EDCDA2" fill-opacity="0.87"/>
<rect x="2" y="150.973" width="64" height="61.1576" rx="5" fill="#EDCDA2" fill-opacity="0.87"/>
<rect x="2" y="222.497" width="64" height="61.1576" rx="5" fill="#EDCDA2" fill-opacity="0.87"/>
<rect x="2" y="294.02" width="64" height="61.1576" rx="5" fill="#EDCDA2" fill-opacity="0.87"/>
<rect x="2" y="365.543" width="64" height="61.1576" rx="5" fill="#EDCDA2" fill-opacity="0.87"/>
<rect x="2" y="437.066" width="64" height="61.1576" rx="5" fill="#EDCDA2" fill-opacity="0.87"/>
<rect x="2" y="508.589" width="64" height="61.1576" rx="5" fill="#EDCDA2" fill-opacity="0.87"/>
<rect x="2" y="580.113" width="64" height="61.1576" rx="5" fill="#EDCDA2" fill-opacity="0.87"/>
<rect x="2" y="651.636" width="64" height="61.1576" rx="5" fill="#EDCDA2" fill-opacity="0.87"/>
<rect x="2" y="723.159" width="64" height="61.1576" rx="5" fill="#EDCDA2" fill-opacity="0.87"/>
<rect x="2" y="794.683" width="64" height="61.1576" rx="5" fill="#EDCDA2" fill-opacity="0.87"/>
</g>
<g filter="url(#filter1_d_65_16)">
<rect x="2" y="4" width="64" height="61.1578" rx="5" fill="#EDCDA2"/>
<rect x="2" y="73.459" width="64" height="61.1578" rx="5" fill="#EDCDA2"/>
<rect x="2" y="144.968" width="64" height="61.1578" rx="5" fill="#EDCDA2"/>
<rect x="2" y="216.497" width="64" height="61.1578" rx="5" fill="#EDCDA2"/>
<rect x="2" y="288.03" width="64" height="61.1578" rx="5" fill="#EDCDA2"/>
<rect x="2" y="359.54" width="64" height="61.1578" rx="5" fill="#EDCDA2"/>
<rect x="2" y="431.068" width="64" height="61.1578" rx="5" fill="#EDCDA2"/>
<rect x="2" y="502.602" width="64" height="61.1578" rx="5" fill="#EDCDA2"/>
<rect x="2" y="574.111" width="64" height="61.1578" rx="5" fill="#EDCDA2"/>
<rect x="2" y="645.643" width="64" height="61.1578" rx="5" fill="#EDCDA2"/>
<rect x="2" y="717.153" width="64" height="61.1578" rx="5" fill="#EDCDA2"/>
<rect x="2" y="788.682" width="64" height="61.1578" rx="5" fill="#EDCDA2"/>
</g>
<defs>
<filter id="filter0_n_65_16" x="2" y="10" width="64" height="845.84" filterUnits="userSpaceOnUse" color-interpolation-filters="sRGB">
<feFlood flood-opacity="0" result="BackgroundImageFix"/>
<feBlend mode="normal" in="SourceGraphic" in2="BackgroundImageFix" result="shape"/>
<feTurbulence type="fractalNoise" baseFrequency="2 2" stitchTiles="stitch" numOctaves="3" result="noise" seed="5456" />
<feColorMatrix in="noise" type="luminanceToAlpha" result="alphaNoise" />
<feComponentTransfer in="alphaNoise" result="coloredNoise1">
<feFuncA type="discrete" tableValues="1 1 1 1 1 1 1 1 1 1 1 1 1 1 1 1 1 1 1 1 1 1 1 1 1 1 1 1 1 1 1 1 1 1 1 1 1 1 1 1 1 1 1 1 1 1 1 1 1 1 1 0 0 0 0 0 0 0 0 0 0 0 0 0 0 0 0 0 0 0 0 0 0 0 0 0 0 0 0 0 0 0 0 0 0 0 0 0 0 0 0 0 0 0 0 0 0 0 0 0 "/>
</feComponentTransfer>
<feComposite operator="in" in2="shape" in="coloredNoise1" result="noise1Clipped" />
<feFlood flood-color="rgba(0, 0, 0, 0.25)" result="color1Flood" />
<feComposite operator="in" in2="noise1Clipped" in="color1Flood" result="color1" />
<feMerge result="effect1_noise_65_16">
<feMergeNode in="shape" />
<feMergeNode in="color1" />
</feMerge>
</filter>
<filter id="filter1_d_65_16" x="0" y="0" width="72" height="853.84" filterUnits="userSpaceOnUse" color-interpolation-filters="sRGB">
<feFlood flood-opacity="0" result="BackgroundImageFix"/>
<feColorMatrix in="SourceAlpha" type="matrix" values="0 0 0 0 0 0 0 0 0 0 0 0 0 0 0 0 0 0 127 0" result="hardAlpha"/>
<feOffset dx="2"/>
<feGaussianBlur stdDeviation="2"/>
<feComposite in2="hardAlpha" operator="out"/>
<feColorMatrix type="matrix" values="0 0 0 0 0 0 0 0 0 0 0 0 0 0 0 0 0 0 0.25 0"/>
<feBlend mode="normal" in2="BackgroundImageFix" result="effect1_dropShadow_65_16"/>
<feBlend mode="normal" in="SourceGraphic" in2="effect1_dropShadow_65_16" result="shape"/>
</filter>
</defs>
</svg>
