<svg width="489" height="329" viewBox="0 0 489 329" fill="none" xmlns="http://www.w3.org/2000/svg">
<mask id="mask0_11_9148" style="mask-type:luminance" maskUnits="userSpaceOnUse" x="0" y="0" width="489" height="329">
<path d="M0 0H489V329H0V0Z" fill="white"/>
</mask>
<g mask="url(#mask0_11_9148)">
<path d="M150.907 254.645L138.228 240.901L128.827 251.158L141.335 264.905L150.907 254.645Z" fill="#FCFFFF"/>
<path d="M150.906 254.645L140.637 265.667L133.314 293.064L162.148 261.371L150.906 254.645Z" fill="#070707"/>
<path d="M164.545 263.547L162.147 261.371L133.314 293.064L135.712 295.239L164.545 263.547Z" fill="#FCFFFF"/>
<path d="M137.096 276.662L140.293 274.687" stroke="white" stroke-width="2.58267" stroke-miterlimit="10" stroke-linecap="round" stroke-linejoin="round"/>
<path d="M138.591 271.429L141.597 269.571" stroke="white" stroke-width="2.58267" stroke-miterlimit="10" stroke-linecap="round" stroke-linejoin="round"/>
<path d="M88.3339 176.388L92.1657 204.363C92.1761 204.42 92.1865 204.476 92.1963 204.532C93.6242 212.222 97.1704 219.351 102.245 225.267L132.766 262.124L148.556 247.442L117.395 206.634L106.905 157.021L88.3339 176.388Z" fill="#9D915E"/>
<path d="M67.1796 279.087L72.5918 261.121L59.0817 258.065L53.5828 275.885L67.1796 279.087Z" fill="#FCFFFF"/>
<path d="M67.1796 279.087L52.578 275.658L25.4242 283.022L67.0596 292.275L67.1796 279.087Z" fill="#070707"/>
<path d="M66.3993 295.46L67.0598 292.275L25.425 283.022L24.7645 286.207L66.3993 295.46Z" fill="#FCFFFF"/>
<path d="M41.379 278.089L44.6768 279.886" stroke="white" stroke-width="2.58267" stroke-miterlimit="10" stroke-linecap="round" stroke-linejoin="round"/>
<path d="M46.6139 276.765L49.7148 278.456" stroke="white" stroke-width="2.58267" stroke-miterlimit="10" stroke-linecap="round" stroke-linejoin="round"/>
<path d="M83.0987 147.095L53.0643 266.931L72.3153 272.308L89.6956 210.008L106.822 172.165C107.79 170.477 108.666 168.673 109.541 166.879C113.951 157.837 111.65 148.351 111.65 148.351L83.0987 147.095Z" fill="#B7AC7B"/>
<path d="M86.5607 71.3489L89.4243 85.5406L101.498 81.7565L94.7765 63.3292L86.5607 71.3489Z" fill="#D26D32"/>
<path d="M87.8789 77.8827L91.6957 69.7314L86.6558 71.8212L87.8789 77.8827Z" fill="black"/>
<path d="M84.8775 44.306C84.8775 44.306 78.7402 44.9154 77.8965 52.5962C77.8965 52.5962 77.5216 55.5171 76.7933 63.5447C76.4087 67.7868 78.6639 73.464 83.9934 73.5081C86.5786 73.5298 89.4271 72.2539 92.0475 70.4833L95.7822 67.4038C104.591 58.709 98.0681 43.3993 85.774 44.2284C85.4799 44.2488 85.1813 44.2745 84.8775 44.306Z" fill="#D26D32"/>
<path d="M77.9114 58.4845L75.0973 62.9273C74.8039 63.2984 74.8672 63.9268 75.3849 64.0176L78.1005 64.6868L77.9114 58.4845Z" fill="#D26D32"/>
<path d="M94.029 61.9165C94.029 61.9165 91.5899 66.7324 97.261 70.1415C97.261 70.1415 113.242 53.4619 94.3948 44.4157L93.0374 46.1732L94.029 61.9165Z" fill="black"/>
<path d="M101.957 48.461C101.807 49.3328 99.9992 55.8463 99.9992 55.8463L91.8251 61.161C91.8251 61.161 88.4999 54.6442 90.8288 48.9143C90.8288 48.9143 102.519 45.1795 101.957 48.461Z" fill="black"/>
<path d="M98.0391 60.9999C98.0678 63.0311 96.4593 64.7011 94.4466 64.7308C92.4339 64.7597 90.7785 63.1364 90.7498 61.1052C90.7211 59.0739 92.3302 57.4033 94.3429 57.3743C96.355 57.3454 98.0104 58.9687 98.0391 60.9999Z" fill="#D26D32"/>
<path d="M95.9885 48.1394C95.9885 48.1394 86.0103 52.5263 79.2106 47.7235C77.8388 46.7543 77.0759 45.1856 77.5421 43.6841C77.9881 42.249 79.5294 41.0935 84.1351 42.878C92.6385 46.1733 95.9885 45.3291 95.9885 45.3291V48.1394Z" fill="black"/>
<path d="M97.0239 48.434C97.0239 48.434 87.135 51.641 82.835 44.2201C81.9672 42.7225 80.6248 40.8577 82.0703 38.8726C82.8879 37.75 85.1125 37.0446 88.5537 39.3332C90.3448 40.5248 92.0719 41.1742 93.4692 41.7105C96.1508 42.7396 97.6602 45.6111 97.0239 48.434Z" fill="black"/>
<path d="M93.4694 41.7107C93.4694 41.7107 103.637 42.0331 105.47 48.1676C108.193 57.2783 103.793 63.3878 97.2607 70.1415L99.9991 55.8458L93.4694 41.7107Z" fill="black"/>
<path d="M80.2236 56.4357C80.2236 56.4357 82.799 57.4464 82.6934 59.0598C82.5604 61.0924 80.1519 60.3706 80.1519 60.3706C80.1519 60.3706 78.0948 58.1209 80.2236 56.4357Z" fill="white"/>
</g>
<mask id="mask1_11_9148" style="mask-type:luminance" maskUnits="userSpaceOnUse" x="0" y="0" width="489" height="329">
<path d="M0 0H489V329H0V0Z" fill="white"/>
</mask>
<g mask="url(#mask1_11_9148)">
<path d="M79.8522 55.8824C80.2414 56.01 80.5674 56.1699 80.8993 56.3621C81.226 56.5542 81.5337 56.7805 81.8102 57.0424C82.0853 57.3076 82.3187 57.6182 82.4974 57.9557C82.6786 58.2953 82.764 58.673 82.8097 59.0434C82.8175 59.1085 82.7719 59.1671 82.708 59.175C82.6486 59.1829 82.5945 59.1441 82.5802 59.0875L82.5769 59.0763C82.4928 58.7414 82.378 58.419 82.1838 58.1426C81.9914 57.8662 81.7586 57.6234 81.4907 57.4214C81.2207 57.2221 80.926 57.0562 80.6176 56.922C80.3138 56.7904 79.9761 56.6779 79.6762 56.62L79.6644 56.618C79.4603 56.5779 79.3267 56.3785 79.3658 56.1726C79.4049 55.9659 79.6025 55.831 79.8072 55.8705C79.8222 55.8738 79.8385 55.8778 79.8522 55.8824Z" fill="black"/>
<path d="M79.2588 66.0242L77.7435 65.838" stroke="black" stroke-width="0.704" stroke-miterlimit="10" stroke-linecap="round" stroke-linejoin="round"/>
<path d="M85.7141 54.1561C85.4826 54.3463 85.1834 54.4075 84.8991 54.3568C84.3064 54.2509 82.9262 54.0436 81.0419 54.0048C77.9931 53.9416 78.8668 51.8097 80.3892 51.6386C81.9123 51.4682 84.4649 52.1657 85.5485 53.0731C86.1503 53.5771 85.9827 53.9364 85.7141 54.1561Z" fill="black"/>
<path d="M77.4931 62.1983C77.1247 62.1983 76.8254 61.8969 76.8254 61.5252V54.2964C76.8254 53.9246 77.1247 53.6226 77.4931 53.6226C77.8615 53.6226 78.1601 53.9246 78.1601 54.2964V61.5252C78.1601 61.8969 77.8615 62.1983 77.4931 62.1983Z" fill="white"/>
<path d="M77.4932 57.9108H90.6362" stroke="white" stroke-width="0.618667" stroke-miterlimit="10"/>
<path d="M55.7469 115.127C55.7469 115.127 55.9203 105.008 48.6499 103.288L48.8383 108.268L44.4641 107.181C44.4641 107.181 41.6494 106.75 40.6459 107.837C39.7462 108.812 32.5461 118.604 55.0969 119.185L55.7469 115.127Z" fill="#D26D32"/>
<path d="M39.439 98.3022L38.9696 115.733C38.9363 116.948 39.7976 117.999 40.9836 118.193L48.8747 119.48C50.0725 119.675 51.2265 118.935 51.5629 117.755L56.3245 101.057L39.439 98.3022Z" fill="black"/>
<path d="M57.5059 101.411L38.208 98.2618L38.4134 96.9807C38.5275 96.2701 39.1906 95.7864 39.8947 95.9016L56.642 98.6343C57.3462 98.7487 57.8247 99.4186 57.7106 100.129L57.5059 101.411Z" fill="white"/>
<path d="M55.5104 98.4493L41.0262 96.0858L41.259 94.6323C41.3575 94.0164 41.9325 93.5979 42.5428 93.6973L54.8173 95.7002C55.4276 95.7996 55.8423 96.3799 55.7432 96.9958L55.5104 98.4493Z" fill="white"/>
<path d="M37.6715 114.521C37.2281 114.449 36.9034 114.106 36.9243 113.73L37.485 103.509C37.5085 103.085 37.9597 102.79 38.4617 102.872L39.5108 103.043C40.8702 103.265 41.8254 104.365 41.6428 105.502L40.4633 112.866C40.2808 114.002 39.0309 114.743 37.6715 114.521Z" fill="#D26D32"/>
<path d="M54.6766 110.55L70.3161 115.613L66.6199 124.225L51.5183 118.82L54.6766 110.55Z" fill="#D26D32"/>
<path d="M90.7464 85.9485C90.7464 85.9485 87.2067 87.3731 75.311 113.958L58.7026 109.633L55.5997 123.292L80.6626 130.323L90.7464 85.9485Z" fill="white"/>
<path d="M112.437 100.376C113.221 93.8899 112.834 87.4725 107.382 83.9469C104.933 82.3631 102.505 81.2945 100.755 81.5932C94.8893 82.5921 88.8564 85.2754 86.2757 93.2675C82.68 104.401 80.1274 129.794 79.7049 139.909C79.6234 141.867 80.5271 147.666 82.4674 147.732L111.65 148.753C113.546 148.819 113.839 144.361 113.951 142.45L112.437 100.376Z" fill="white"/>
<path d="M169.259 204.338L120.308 219.982C117.73 220.806 114.98 219.365 114.163 216.763L105.2 188.203C104.385 185.601 105.812 182.825 108.39 182.001L157.341 166.357C159.918 165.533 162.669 166.974 163.485 169.575L172.447 198.136C173.264 200.737 171.836 203.514 169.259 204.338Z" fill="black"/>
<path d="M124.468 182.033L121.399 172.253C120.753 170.195 121.882 167.998 123.923 167.346L136.772 163.239C138.812 162.587 140.989 163.727 141.635 165.786L144.704 175.567" stroke="black" stroke-width="5.876" stroke-miterlimit="10"/>
<path d="M118.893 181.143L113.435 182.888L112.723 180.616L118.18 178.873L118.893 181.143Z" fill="#FEC43F"/>
<path d="M153.329 170.138L147.872 171.882L147.159 169.611L152.616 167.866L153.329 170.138Z" fill="#FEC43F"/>
<path d="M127.668 153.479C127.572 153.798 122.469 158.665 120.373 160.495C119.832 160.966 119.542 161.661 119.581 162.381L119.697 164.517C119.768 165.824 120.89 166.815 122.183 166.713L126.011 166.409C127.078 166.325 127.896 165.419 127.88 164.339C127.862 163.166 126.872 162.248 125.712 162.329L127.503 159.989L127.668 153.479Z" fill="#D26D32"/>
<path d="M121.049 163.041L123.546 169.503C124.041 170.9 125.678 171.466 126.768 171.181C129.432 170.483 132.208 168.604 134.958 167.891C136.452 167.505 137.127 165.718 136.806 164.556L132.967 154.227L127.805 153.753L122.342 161.848L121.049 163.041Z" fill="#D26D32"/>
<path d="M132.968 154.228L130.816 138.927L120.792 140.491L124.78 159.922L132.968 154.228Z" fill="#D26D32"/>
<path d="M119.673 153.566L135.058 151.361L129.239 115.563C128.952 114.166 128.417 112.832 127.66 111.628L112.2 88.5943C109.861 84.5503 103.817 82.3229 99.8094 84.6838C95.8022 87.0448 94.45 92.237 96.7893 96.2811L113.485 120.244L119.673 153.566Z" fill="white"/>
<path d="M98.312 98.466L112.967 119.5" stroke="black" stroke-width="0.698667" stroke-miterlimit="10" stroke-linecap="round" stroke-linejoin="round"/>
<path d="M88.7197 85.7623L102.114 76.476L104.383 82.2782L91.9869 93.001L88.7197 85.7623Z" fill="#FCFFFF"/>
<path d="M88.8809 86.4495L91.987 93.0012L103.666 83.0128" stroke="black" stroke-width="0.686667" stroke-miterlimit="10" stroke-linecap="round" stroke-linejoin="round"/>
<path d="M90.9785 90.7612L86.8585 93.6827L88.7135 85.7433L90.9785 90.7612Z" fill="black"/>
<path d="M88.7424 90.7966L81.5124 144.805L75.3869 150.406L74.2054 143.491L87.0922 92.6818L88.7424 90.7966Z" fill="black"/>
</g>
<mask id="mask2_11_9148" style="mask-type:luminance" maskUnits="userSpaceOnUse" x="79" y="56" width="4" height="5">
<path d="M80.1522 60.3701C80.1522 60.3701 82.56 61.0919 82.693 59.06C82.7987 57.4459 80.2239 56.4359 80.2239 56.4359C78.0945 58.1204 80.1522 60.3701 80.1522 60.3701Z" fill="white"/>
</mask>
<g mask="url(#mask2_11_9148)">
<path d="M80.6865 55.9579C80.6865 55.9579 81.9259 59.0571 79.7118 60.7784L78.6001 60.5455L78.8994 57.3154L80.6865 55.9579Z" fill="black"/>
</g>
</svg>
