<svg width="147" height="147" viewBox="0 0 147 147" fill="none" xmlns="http://www.w3.org/2000/svg">
<mask id="mask0_28_106574" style="mask-type:luminance" maskUnits="userSpaceOnUse" x="1" y="1" width="144" height="144">
<path d="M1.61328 144.695H144.312V1.99736H1.61328V144.695Z" fill="white"/>
</mask>
<g mask="url(#mask0_28_106574)">
<path d="M152.553 160.688H-6.13867V1.99609H152.553V160.688Z" fill="#5BD6C4"/>
<path d="M49.9826 153.257C46.3239 148.138 10.1826 146.358 5.72657 149.921C1.27057 153.482 18.8919 96.6584 18.8919 96.6584C18.8919 96.6584 36.7159 97.4504 37.0706 102.188C38.9346 127.044 49.9826 153.257 49.9826 153.257Z" fill="#4C1244"/>
<path d="M44.0521 256.414C41.9921 239.048 40.0774 212.921 39.9534 208.62C39.8721 205.841 40.6494 197.16 41.0307 186.426C42.4067 174.316 44.7987 146.521 40.1654 129.922L24.1507 128.108C23.0921 140.638 9.18672 152.414 21.9041 168.82C23.0801 174.456 26.9214 193.549 26.7414 201.701C26.5281 211.321 27.7187 215.761 31.7481 227.077C35.2347 236.87 37.1307 247.989 38.1347 255.604L44.0521 256.414Z" fill="#EF6E4B"/>
<path d="M-0.590285 179.956C-0.294285 185.397 0.671048 189.142 0.857714 193.713C1.13105 200.366 -3.46629 209.322 -1.56362 220.24C-0.663619 225.406 0.0457147 242.158 0.380381 251.416L6.43771 252.246C6.44705 252.16 6.45638 252.07 6.46838 251.989C9.48438 229.984 10.0444 203.33 11.863 193.417C12.6284 189.238 14.163 183.372 15.6604 178.049C15.6684 178.024 20.171 162.59 22.639 161.582C32.7457 157.453 40.1657 129.922 40.1657 129.922L16.119 127.76C16.119 127.76 0.616381 137.416 1.44971 158.504C1.44971 158.504 1.40571 158.712 1.33638 159.08C-0.574285 168.69 -0.858285 175.024 -0.590285 179.956Z" fill="#FF8B66"/>
<path d="M13.5906 117.881C9.79722 124.467 -2.33478 147.735 -3.94678 180.843C-3.94678 180.843 3.86922 187.397 22.3372 189.303C42.3199 191.366 48.0679 185.706 48.0679 185.706C44.4439 154.147 39.2492 116.865 39.2492 116.865C52.8479 99.5608 35.3986 83.7462 35.3986 83.7462C35.3986 83.7462 35.2679 83.6755 35.0212 83.5542C32.6106 82.3622 19.1866 76.1568 9.23589 80.7582C8.57989 81.0542 7.94256 81.4062 7.32656 81.8048C-3.68811 88.9048 13.5906 117.881 13.5906 117.881Z" fill="#F2A668"/>
<path d="M24.2975 51.9367C24.2975 51.9367 21.6081 46.462 16.5308 48.7687C11.4535 51.0753 13.1468 59.7753 12.5135 61.066C11.8815 62.3567 8.6028 61.65 8.80546 63.594C9.00813 65.538 10.9521 66.4793 10.4921 67.2433C10.0308 68.0087 7.66547 68.706 8.21347 69.8287C8.7628 70.9513 10.8615 70.6593 10.2321 72.0873C9.60147 73.5153 8.00546 75.13 9.75213 75.854C9.75213 75.854 8.91613 73.746 10.3361 73.602C11.7575 73.458 12.5148 74.3767 13.6441 72.8087C14.7735 71.2407 12.4335 69.7113 13.8948 69.1207C15.3548 68.53 17.8828 69.358 17.1841 67.45C16.4855 65.5433 16.5175 64.0233 19.1481 63.47C21.7788 62.918 24.2975 51.9367 24.2975 51.9367Z" fill="#F24052"/>
<path d="M42.4772 55.6476C47.0719 57.0183 44.1026 67.101 36.8999 70.621C29.6972 74.141 34.9786 53.409 42.4772 55.6476Z" fill="#F24052"/>
<path d="M27.2591 49.5957C27.2591 49.5957 42.3297 49.4944 41.9351 59.953C41.5391 70.4117 35.7537 79.685 29.5991 76.9224C20.9391 73.037 14.9471 51.521 27.2591 49.5957Z" fill="#FF8B66"/>
<path d="M29.7027 65.2672C29.4547 65.8206 29.8147 66.5206 30.5067 66.8299C31.1973 67.1406 31.9587 66.9432 32.2067 66.3899C32.4547 65.8366 32.096 65.1379 31.404 64.8272C30.712 64.5179 29.9507 64.7139 29.7027 65.2672Z" fill="#DB614D"/>
<path d="M32.6769 59.7487C32.7663 59.7713 32.8649 59.754 32.9409 59.6913C33.7943 58.9927 34.8569 59.454 34.8663 59.4607C35.0169 59.5273 35.1916 59.4607 35.2583 59.31C35.3263 59.1607 35.2596 58.9847 35.1089 58.918C35.0529 58.8927 33.7009 58.3033 32.5649 59.2313C32.4383 59.3353 32.4196 59.522 32.5236 59.65C32.5636 59.6993 32.6183 59.7327 32.6769 59.7487Z" fill="#F24052"/>
<path d="M39.4123 60.3469C39.4709 60.3629 39.5349 60.3589 39.5963 60.3363C40.6163 59.9336 41.4656 60.6709 41.5016 60.7029C41.6243 60.8123 41.8123 60.8003 41.9203 60.6789C42.0283 60.5563 42.0189 60.3696 41.8976 60.2603C41.8509 60.2189 40.7429 59.2443 39.3776 59.7829C39.2256 59.8443 39.1509 60.0163 39.2109 60.1683C39.2469 60.2603 39.3229 60.3229 39.4123 60.3469Z" fill="#F24052"/>
<path d="M37.4814 71.1901C37.4814 71.1901 35.4387 73.3074 32.78 70.0927" stroke="#1A4850" stroke-width="0.6" stroke-miterlimit="10" stroke-linecap="round" stroke-linejoin="round"/>
<path d="M31.0591 56.2814C31.0591 56.2814 26.6538 59.2241 25.1298 64.4201C25.1298 64.4201 23.7645 60.8814 21.7791 62.9174C19.7925 64.9547 23.4058 70.0627 23.4058 70.0627C23.4058 70.0627 15.5765 67.9787 17.9285 57.7414C18.9191 53.4281 25.6085 51.3827 31.0591 56.2814Z" fill="#F24052"/>
<path d="M24.2767 67.9711C24.4007 71.1191 26.8034 77.2884 31.49 77.2857C31.49 77.2857 29.0567 81.1217 30.318 83.2231C30.318 83.2231 31.1167 87.0697 26.734 86.1444C21.2514 84.9884 19.7034 79.7484 19.7034 79.7484C23.6914 75.3671 22.598 67.9951 22.598 67.9951C23.4927 69.1244 24.2767 67.9711 24.2767 67.9711Z" fill="#EF6E4B"/>
<path d="M37.2998 69.1797L37.2345 68.5304C37.3532 68.517 38.3918 68.377 38.3185 67.3837C38.2958 67.0824 38.1998 66.8637 38.0332 66.7344C37.7385 66.5064 37.2932 66.5864 37.2892 66.5877L37.1665 65.9464C37.1958 65.941 37.8972 65.8104 38.4265 66.2144C38.7492 66.461 38.9318 66.8384 38.9692 67.3357C39.0665 68.653 37.9198 69.1184 37.2998 69.1797Z" fill="#DB614D"/>
<path d="M32.4988 63.4742C32.3388 64.0982 32.5294 64.6862 32.9241 64.7889C33.3201 64.8902 33.7708 64.4662 33.9308 63.8422C34.0908 63.2182 33.9001 62.6289 33.5054 62.5275C33.1094 62.4262 32.6588 62.8502 32.4988 63.4742Z" fill="#1A4850"/>
<path d="M32.1829 63.1954C32.1829 63.1954 32.9669 61.8954 33.4762 62.0247C33.9855 62.1554 34.5122 63.3647 34.5122 63.3647L35.6455 62.9981L34.6509 63.0554C34.6509 63.0554 34.2415 61.7354 33.4762 61.7261C32.7122 61.7181 32.1829 63.1954 32.1829 63.1954Z" fill="#1A4850"/>
<path d="M38.4429 64.4498C38.2829 65.0738 38.4735 65.6618 38.8682 65.7645C39.2642 65.8658 39.7149 65.4418 39.8749 64.8178C40.0349 64.1938 39.8442 63.6045 39.4495 63.5031C39.0535 63.4018 38.6029 63.8258 38.4429 64.4498Z" fill="#1A4850"/>
<path d="M38.127 64.171C38.127 64.171 38.911 62.871 39.4203 63.0003C39.9296 63.131 40.4563 64.3403 40.4563 64.3403L41.5896 63.9737L40.595 64.031C40.595 64.031 40.1843 62.711 39.4203 62.7017C38.6563 62.6937 38.127 64.171 38.127 64.171Z" fill="#1A4850"/>
<path d="M35.4036 54.6416C35.4036 54.6416 33.9276 66.0936 25.1302 64.4203C25.1302 64.4203 23.7929 58.3083 18.6369 60.591C18.6369 60.591 18.2089 47.507 28.8422 48.9176C28.8422 48.9176 32.2569 45.0763 39.5889 49.0523C49.8289 54.6056 48.5516 68.7643 38.2289 79.783C38.2289 79.783 51.2196 58.1203 35.4036 54.6416Z" fill="#F24052"/>
<path d="M9.23535 80.7577C10.3354 81.5764 11.654 82.4684 13.2167 83.4377C41.674 101.156 36.294 87.471 36.294 87.471C36.402 86.555 36.218 85.659 35.7913 84.7924C35.594 84.371 35.3354 83.9577 35.022 83.5537C32.6607 82.387 19.7407 76.4084 9.86068 80.4924C9.64735 80.5684 9.44202 80.663 9.23535 80.7577Z" fill="#EF6E4B"/>
<path d="M9.23535 80.7577C10.3354 81.5764 11.654 82.4684 13.2167 83.4377C41.674 101.156 36.294 87.471 36.294 87.471C36.402 86.555 36.218 85.659 35.7913 84.7924C34.6167 85.159 32.2274 85.8684 31.462 85.939L30.7233 87.735L28.366 85.7084C28.366 85.7084 19.2167 84.7177 9.86068 80.4924C9.64735 80.5684 9.44202 80.663 9.23535 80.7577Z" fill="#FF8B66"/>
<path d="M15.5113 78.5315C15.5113 78.5315 23.4966 85.8515 27.0033 98.7208C30.5113 111.592 9.08863 160.534 9.08863 160.534C9.08863 160.534 0.151292 156.844 -6.34204 151.341L9.12463 117.005C9.12463 117.005 0.949958 91.7275 1.26596 87.8182C1.26596 87.8182 4.39796 79.6062 15.5113 78.5315Z" fill="#902E69"/>
<path d="M33.3828 82.456C33.3828 82.456 41.0095 97.484 40.5788 102.233C40.1468 106.983 37.8388 122.22 37.8388 122.22L49.2948 157.211C49.2948 157.211 53.4441 150.325 41.4588 123.529C41.4588 123.529 45.5041 107.951 45.3228 102.867C45.1415 97.784 42.1708 87.4054 33.3828 82.456Z" fill="#902E69"/>
<path d="M23.6611 111.555C27.3558 109.967 29.9878 120.456 25.2118 123.312C20.4371 126.168 17.7518 114.095 23.6611 111.555Z" fill="#4C1244"/>
<path d="M35.3992 83.7463C41.0445 86.965 44.8432 93.2636 46.0418 95.9623C47.2418 98.661 48.5418 124.552 48.5418 124.552C48.5418 124.552 51.5405 128.35 50.4405 132.849C49.3418 137.348 40.8445 133.862 38.4445 128.108C36.0458 122.353 44.0525 105.658 44.0525 105.658C44.0525 105.658 43.8472 101.36 41.9952 95.7623C40.1445 90.1636 35.3992 83.7463 35.3992 83.7463Z" fill="#6B225E"/>
<path d="M43.6432 122.553C44.7325 122.582 46.3472 128.477 44.7952 131.513C43.2432 134.549 39.1885 130.038 38.6805 128.626C38.1725 127.214 43.6432 122.553 43.6432 122.553Z" fill="#4C1244"/>
<path d="M43.6217 120.744C43.6217 120.744 45.243 122.253 44.6737 123.746C44.5244 124.141 43.8577 124.958 43.8577 124.958C43.8577 124.958 44.3617 126.552 44.0524 127.15C43.743 127.75 41.943 129.148 41.943 129.148C41.943 129.148 38.263 131.222 35.7097 128.625C33.1577 126.029 41.4204 120.824 43.6217 120.744Z" fill="#EF6E4B"/>
<path d="M36.8872 107.818C36.8872 107.818 34.4712 104.573 32.4752 104.889C30.4792 105.203 29.2418 110.163 30.0352 112.842C30.8285 115.521 34.1685 117.27 34.1685 117.27L33.8432 115.426C33.8432 115.426 31.8352 114.013 31.5578 111.439C31.2818 108.865 32.9592 106.725 33.5112 106.687C34.0632 106.65 35.3472 108.766 35.3472 108.766L36.8872 107.818Z" fill="#E2C39F"/>
<path d="M25.465 113.08C25.465 113.08 28.8717 108.584 29.793 108.008C30.713 107.431 32.7117 107.715 33.3397 107.956C33.969 108.198 34.709 115.263 33.3397 115.643C31.9703 116.022 29.2863 119.379 26.901 118.176L23.3677 119.759C23.3677 119.759 21.769 117.358 21.469 114.439L25.465 113.08Z" fill="#FF8B66"/>
<path d="M55.1822 117.095L52.3835 117.939C50.4662 110.932 45.8395 113.912 45.8395 113.912L41.1115 128.475C36.3635 129.355 30.3088 126.083 30.3088 126.083L31.0702 110.624C34.1448 106.42 39.1595 106.58 39.1595 106.58L44.9795 109.945C44.9795 109.945 47.7182 109.097 50.7955 110.34C54.8208 111.972 55.1822 117.095 55.1822 117.095Z" fill="#EADAC5"/>
<path d="M45.8371 113.915C44.3504 114.521 41.9651 113.122 41.9651 113.122C41.9651 113.122 45.6264 111.209 48.8904 111.835C52.1544 112.462 53.1358 116.811 53.1358 116.811C53.1358 116.811 55.3478 115.234 57.5238 117.485C57.5238 117.485 53.6118 119.774 51.5971 119.563C51.5971 119.563 51.2864 118.597 52.0091 117.915C52.0091 117.915 50.5704 111.986 45.8371 113.915Z" fill="#E2C39F"/>
<path d="M41.1115 128.475C36.3622 129.355 30.3088 126.083 30.3088 126.083L31.0702 110.625C31.0702 110.625 33.8422 113.169 38.9448 114.345L37.5848 126.577C37.5848 126.577 38.1982 127.821 41.1115 128.475Z" fill="#E2C39F"/>
<path d="M52.4348 119.533C52.4348 119.533 52.4908 119.718 52.5601 120.113" stroke="white" stroke-width="0.6" stroke-linecap="round" stroke-linejoin="round"/>
<path d="M52.7194 121.378C52.8967 123.423 52.9114 127.275 51.7781 133.456" stroke="white" stroke-width="0.6" stroke-linecap="round" stroke-linejoin="round" stroke-dasharray="1.28 1.28"/>
<path d="M51.6552 134.109C51.6179 134.304 51.5792 134.5 51.5405 134.699" stroke="white" stroke-width="0.6" stroke-linecap="round" stroke-linejoin="round"/>
<path d="M53.5645 118.354C53.5645 118.354 56.4138 121.653 56.1138 135.147" stroke="white" stroke-width="0.6" stroke-miterlimit="10" stroke-linecap="round" stroke-linejoin="round" stroke-dasharray="1.2 1.2"/>
<path d="M55.1821 117.602C55.1821 117.602 59.7128 123.002 61.0621 134.324" stroke="white" stroke-width="0.6" stroke-miterlimit="10" stroke-linecap="round" stroke-linejoin="round" stroke-dasharray="1.2 1.2"/>
<path d="M56.4885 117.27C56.4885 117.27 62.1112 121.204 64.7352 132.674" stroke="white" stroke-width="0.6" stroke-miterlimit="10" stroke-linecap="round" stroke-linejoin="round" stroke-dasharray="1.2 1.2"/>
<path d="M1.26637 87.8176C4.6077 82.4563 8.1237 82.695 11.205 88.9643C16.2144 99.1616 12.2984 115.587 12.2984 115.587L23.845 111.442C23.845 111.442 21.4997 118.014 25.397 123.199C25.397 123.199 12.8984 131.659 7.57437 130.108C2.2517 128.559 -2.11497 93.2456 1.26637 87.8176Z" fill="#6B225E"/>
<path d="M-20.1924 3.6004L166.54 114.332L164.509 -16.2969L-8.40438 -25.8943L-20.1924 3.6004Z" fill="#4FC9B5"/>
</g>
<mask id="mask1_28_106574" style="mask-type:luminance" maskUnits="userSpaceOnUse" x="1" y="1" width="144" height="144">
<path d="M1.61328 144.695H144.312V1.99736H1.61328V144.695Z" fill="white"/>
</mask>
<g mask="url(#mask1_28_106574)">
<path d="M152.553 160.688H-6.13867V1.99609H152.553V160.688Z" fill="#5BD6C4"/>
<path d="M49.9826 153.257C46.3239 148.138 10.1826 146.358 5.72657 149.921C1.27057 153.482 18.8919 96.6584 18.8919 96.6584C18.8919 96.6584 36.7159 97.4504 37.0706 102.188C38.9346 127.044 49.9826 153.257 49.9826 153.257Z" fill="#4C1244"/>
<path d="M44.0521 256.414C41.9921 239.048 40.0774 212.921 39.9534 208.62C39.8721 205.841 40.6494 197.16 41.0307 186.426C42.4067 174.316 44.7987 146.521 40.1654 129.922L24.1507 128.108C23.0921 140.638 9.18672 152.414 21.9041 168.82C23.0801 174.456 26.9214 193.549 26.7414 201.701C26.5281 211.321 27.7187 215.761 31.7481 227.077C35.2347 236.87 37.1307 247.989 38.1347 255.604L44.0521 256.414Z" fill="#EF6E4B"/>
<path d="M-0.590285 179.956C-0.294285 185.397 0.671048 189.142 0.857714 193.713C1.13105 200.366 -3.46629 209.322 -1.56362 220.24C-0.663619 225.406 0.0457147 242.158 0.380381 251.416L6.43771 252.246C6.44705 252.16 6.45638 252.07 6.46838 251.989C9.48438 229.984 10.0444 203.33 11.863 193.417C12.6284 189.238 14.163 183.372 15.6604 178.049C15.6684 178.024 20.171 162.59 22.639 161.582C32.7457 157.453 40.1657 129.922 40.1657 129.922L16.119 127.76C16.119 127.76 0.616381 137.416 1.44971 158.504C1.44971 158.504 1.40571 158.712 1.33638 159.08C-0.574285 168.69 -0.858285 175.024 -0.590285 179.956Z" fill="#FF8B66"/>
<path d="M13.5906 117.881C9.79722 124.467 -2.33478 147.735 -3.94678 180.843C-3.94678 180.843 3.86922 187.397 22.3372 189.303C42.3199 191.366 48.0679 185.706 48.0679 185.706C44.4439 154.147 39.2492 116.865 39.2492 116.865C52.8479 99.5608 35.3986 83.7462 35.3986 83.7462C35.3986 83.7462 35.2679 83.6755 35.0212 83.5542C32.6106 82.3622 19.1866 76.1568 9.23589 80.7582C8.57989 81.0542 7.94256 81.4062 7.32656 81.8048C-3.68811 88.9048 13.5906 117.881 13.5906 117.881Z" fill="#F2A668"/>
<path d="M24.2975 51.9367C24.2975 51.9367 21.6081 46.462 16.5308 48.7687C11.4535 51.0753 13.1468 59.7753 12.5135 61.066C11.8815 62.3567 8.6028 61.65 8.80546 63.594C9.00813 65.538 10.9521 66.4793 10.4921 67.2433C10.0308 68.0087 7.66547 68.706 8.21347 69.8287C8.7628 70.9513 10.8615 70.6593 10.2321 72.0873C9.60147 73.5153 8.00546 75.13 9.75213 75.854C9.75213 75.854 8.91613 73.746 10.3361 73.602C11.7575 73.458 12.5148 74.3767 13.6441 72.8087C14.7735 71.2407 12.4335 69.7113 13.8948 69.1207C15.3548 68.53 17.8828 69.358 17.1841 67.45C16.4855 65.5433 16.5175 64.0233 19.1481 63.47C21.7788 62.918 24.2975 51.9367 24.2975 51.9367Z" fill="#F24052"/>
<path d="M42.4772 55.6476C47.0719 57.0183 44.1026 67.101 36.8999 70.621C29.6972 74.141 34.9786 53.409 42.4772 55.6476Z" fill="#F24052"/>
<path d="M27.2591 49.5957C27.2591 49.5957 42.3297 49.4944 41.9351 59.953C41.5391 70.4117 35.7537 79.685 29.5991 76.9224C20.9391 73.037 14.9471 51.521 27.2591 49.5957Z" fill="#FF8B66"/>
<path d="M29.7027 65.2672C29.4547 65.8206 29.8147 66.5206 30.5067 66.8299C31.1973 67.1406 31.9587 66.9432 32.2067 66.3899C32.4547 65.8366 32.096 65.1379 31.404 64.8272C30.712 64.5179 29.9507 64.7139 29.7027 65.2672Z" fill="#DB614D"/>
<path d="M32.6769 59.7487C32.7663 59.7713 32.8649 59.754 32.9409 59.6913C33.7943 58.9927 34.8569 59.454 34.8663 59.4607C35.0169 59.5273 35.1916 59.4607 35.2583 59.31C35.3263 59.1607 35.2596 58.9847 35.1089 58.918C35.0529 58.8927 33.7009 58.3033 32.5649 59.2313C32.4383 59.3353 32.4196 59.522 32.5236 59.65C32.5636 59.6993 32.6183 59.7327 32.6769 59.7487Z" fill="#F24052"/>
<path d="M39.4123 60.3469C39.4709 60.3629 39.5349 60.3589 39.5963 60.3363C40.6163 59.9336 41.4656 60.6709 41.5016 60.7029C41.6243 60.8123 41.8123 60.8003 41.9203 60.6789C42.0283 60.5563 42.0189 60.3696 41.8976 60.2603C41.8509 60.2189 40.7429 59.2443 39.3776 59.7829C39.2256 59.8443 39.1509 60.0163 39.2109 60.1683C39.2469 60.2603 39.3229 60.3229 39.4123 60.3469Z" fill="#F24052"/>
<path d="M37.4814 71.1901C37.4814 71.1901 35.4387 73.3074 32.78 70.0927" stroke="#1A4850" stroke-width="0.6" stroke-miterlimit="10" stroke-linecap="round" stroke-linejoin="round"/>
<path d="M31.0591 56.2814C31.0591 56.2814 26.6538 59.2241 25.1298 64.4201C25.1298 64.4201 23.7645 60.8814 21.7791 62.9174C19.7925 64.9547 23.4058 70.0627 23.4058 70.0627C23.4058 70.0627 15.5765 67.9787 17.9285 57.7414C18.9191 53.4281 25.6085 51.3827 31.0591 56.2814Z" fill="#F24052"/>
<path d="M24.2767 67.9711C24.4007 71.1191 26.8034 77.2884 31.49 77.2857C31.49 77.2857 29.0567 81.1217 30.318 83.2231C30.318 83.2231 31.1167 87.0697 26.734 86.1444C21.2514 84.9884 19.7034 79.7484 19.7034 79.7484C23.6914 75.3671 22.598 67.9951 22.598 67.9951C23.4927 69.1244 24.2767 67.9711 24.2767 67.9711Z" fill="#EF6E4B"/>
<path d="M37.2998 69.1797L37.2345 68.5304C37.3532 68.517 38.3918 68.377 38.3185 67.3837C38.2958 67.0824 38.1998 66.8637 38.0332 66.7344C37.7385 66.5064 37.2932 66.5864 37.2892 66.5877L37.1665 65.9464C37.1958 65.941 37.8972 65.8104 38.4265 66.2144C38.7492 66.461 38.9318 66.8384 38.9692 67.3357C39.0665 68.653 37.9198 69.1184 37.2998 69.1797Z" fill="#DB614D"/>
<path d="M32.4988 63.4742C32.3388 64.0982 32.5294 64.6862 32.9241 64.7889C33.3201 64.8902 33.7708 64.4662 33.9308 63.8422C34.0908 63.2182 33.9001 62.6289 33.5054 62.5275C33.1094 62.4262 32.6588 62.8502 32.4988 63.4742Z" fill="#1A4850"/>
<path d="M32.1829 63.1954C32.1829 63.1954 32.9669 61.8954 33.4762 62.0247C33.9855 62.1554 34.5122 63.3647 34.5122 63.3647L35.6455 62.9981L34.6509 63.0554C34.6509 63.0554 34.2415 61.7354 33.4762 61.7261C32.7122 61.7181 32.1829 63.1954 32.1829 63.1954Z" fill="#1A4850"/>
<path d="M38.4429 64.4498C38.2829 65.0738 38.4735 65.6618 38.8682 65.7645C39.2642 65.8658 39.7149 65.4418 39.8749 64.8178C40.0349 64.1938 39.8442 63.6045 39.4495 63.5031C39.0535 63.4018 38.6029 63.8258 38.4429 64.4498Z" fill="#1A4850"/>
<path d="M38.127 64.171C38.127 64.171 38.911 62.871 39.4203 63.0003C39.9296 63.131 40.4563 64.3403 40.4563 64.3403L41.5896 63.9737L40.595 64.031C40.595 64.031 40.1843 62.711 39.4203 62.7017C38.6563 62.6937 38.127 64.171 38.127 64.171Z" fill="#1A4850"/>
<path d="M35.4036 54.6416C35.4036 54.6416 33.9276 66.0936 25.1302 64.4203C25.1302 64.4203 23.7929 58.3083 18.6369 60.591C18.6369 60.591 18.2089 47.507 28.8422 48.9176C28.8422 48.9176 32.2569 45.0763 39.5889 49.0523C49.8289 54.6056 48.5516 68.7643 38.2289 79.783C38.2289 79.783 51.2196 58.1203 35.4036 54.6416Z" fill="#F24052"/>
<path d="M9.23535 80.7577C10.3354 81.5764 11.654 82.4684 13.2167 83.4377C41.674 101.156 36.294 87.471 36.294 87.471C36.402 86.555 36.218 85.659 35.7913 84.7924C35.594 84.371 35.3354 83.9577 35.022 83.5537C32.6607 82.387 19.7407 76.4084 9.86068 80.4924C9.64735 80.5684 9.44202 80.663 9.23535 80.7577Z" fill="#EF6E4B"/>
<path d="M9.23535 80.7577C10.3354 81.5764 11.654 82.4684 13.2167 83.4377C41.674 101.156 36.294 87.471 36.294 87.471C36.402 86.555 36.218 85.659 35.7913 84.7924C34.6167 85.159 32.2274 85.8684 31.462 85.939L30.7233 87.735L28.366 85.7084C28.366 85.7084 19.2167 84.7177 9.86068 80.4924C9.64735 80.5684 9.44202 80.663 9.23535 80.7577Z" fill="#FF8B66"/>
<path d="M15.5113 78.5315C15.5113 78.5315 23.4966 85.8515 27.0033 98.7208C30.5113 111.592 9.08863 160.534 9.08863 160.534C9.08863 160.534 0.151292 156.844 -6.34204 151.341L9.12463 117.005C9.12463 117.005 0.949958 91.7275 1.26596 87.8182C1.26596 87.8182 4.39796 79.6062 15.5113 78.5315Z" fill="#902E69"/>
<path d="M33.3828 82.456C33.3828 82.456 41.0095 97.484 40.5788 102.233C40.1468 106.983 37.8388 122.22 37.8388 122.22L49.2948 157.211C49.2948 157.211 53.4441 150.325 41.4588 123.529C41.4588 123.529 45.5041 107.951 45.3228 102.867C45.1415 97.784 42.1708 87.4054 33.3828 82.456Z" fill="#902E69"/>
<path d="M23.6611 111.555C27.3558 109.967 29.9878 120.456 25.2118 123.312C20.4371 126.168 17.7518 114.095 23.6611 111.555Z" fill="#4C1244"/>
<path d="M35.3992 83.7463C41.0445 86.965 44.8432 93.2636 46.0418 95.9623C47.2418 98.661 48.5418 124.552 48.5418 124.552C48.5418 124.552 51.5405 128.35 50.4405 132.849C49.3418 137.348 40.8445 133.862 38.4445 128.108C36.0458 122.353 44.0525 105.658 44.0525 105.658C44.0525 105.658 43.8472 101.36 41.9952 95.7623C40.1445 90.1636 35.3992 83.7463 35.3992 83.7463Z" fill="#6B225E"/>
<path d="M43.6432 122.553C44.7325 122.582 46.3472 128.477 44.7952 131.513C43.2432 134.549 39.1885 130.038 38.6805 128.626C38.1725 127.214 43.6432 122.553 43.6432 122.553Z" fill="#4C1244"/>
<path d="M43.6217 120.744C43.6217 120.744 45.243 122.253 44.6737 123.746C44.5244 124.141 43.8577 124.958 43.8577 124.958C43.8577 124.958 44.3617 126.552 44.0524 127.15C43.743 127.75 41.943 129.148 41.943 129.148C41.943 129.148 38.263 131.222 35.7097 128.625C33.1577 126.029 41.4204 120.824 43.6217 120.744Z" fill="#EF6E4B"/>
<path d="M36.8872 107.818C36.8872 107.818 34.4712 104.573 32.4752 104.889C30.4792 105.203 29.2418 110.163 30.0352 112.842C30.8285 115.521 34.1685 117.27 34.1685 117.27L33.8432 115.426C33.8432 115.426 31.8352 114.013 31.5578 111.439C31.2818 108.865 32.9592 106.725 33.5112 106.687C34.0632 106.65 35.3472 108.766 35.3472 108.766L36.8872 107.818Z" fill="#E2C39F"/>
<path d="M25.465 113.08C25.465 113.08 28.8717 108.584 29.793 108.008C30.713 107.431 32.7117 107.715 33.3397 107.956C33.969 108.198 34.709 115.263 33.3397 115.643C31.9703 116.022 29.2863 119.379 26.901 118.176L23.3677 119.759C23.3677 119.759 21.769 117.358 21.469 114.439L25.465 113.08Z" fill="#FF8B66"/>
<path d="M55.1822 117.095L52.3835 117.939C50.4662 110.932 45.8395 113.912 45.8395 113.912L41.1115 128.475C36.3635 129.355 30.3088 126.083 30.3088 126.083L31.0702 110.624C34.1448 106.42 39.1595 106.58 39.1595 106.58L44.9795 109.945C44.9795 109.945 47.7182 109.097 50.7955 110.34C54.8208 111.972 55.1822 117.095 55.1822 117.095Z" fill="#EADAC5"/>
<path d="M45.8371 113.915C44.3504 114.521 41.9651 113.122 41.9651 113.122C41.9651 113.122 45.6264 111.209 48.8904 111.835C52.1544 112.462 53.1358 116.811 53.1358 116.811C53.1358 116.811 55.3478 115.234 57.5238 117.485C57.5238 117.485 53.6118 119.774 51.5971 119.563C51.5971 119.563 51.2864 118.597 52.0091 117.915C52.0091 117.915 50.5704 111.986 45.8371 113.915Z" fill="#E2C39F"/>
<path d="M41.1115 128.475C36.3622 129.355 30.3088 126.083 30.3088 126.083L31.0702 110.625C31.0702 110.625 33.8422 113.169 38.9448 114.345L37.5848 126.577C37.5848 126.577 38.1982 127.821 41.1115 128.475Z" fill="#E2C39F"/>
<path d="M52.4348 119.533C52.4348 119.533 52.4908 119.718 52.5601 120.113" stroke="white" stroke-width="0.6" stroke-linecap="round" stroke-linejoin="round"/>
<path d="M52.7194 121.378C52.8967 123.423 52.9114 127.275 51.7781 133.456" stroke="white" stroke-width="0.6" stroke-linecap="round" stroke-linejoin="round" stroke-dasharray="1.28 1.28"/>
<path d="M51.6552 134.109C51.6179 134.304 51.5792 134.5 51.5405 134.699" stroke="white" stroke-width="0.6" stroke-linecap="round" stroke-linejoin="round"/>
<path d="M53.5645 118.354C53.5645 118.354 56.4138 121.653 56.1138 135.147" stroke="white" stroke-width="0.6" stroke-miterlimit="10" stroke-linecap="round" stroke-linejoin="round" stroke-dasharray="1.2 1.2"/>
<path d="M55.1821 117.602C55.1821 117.602 59.7128 123.002 61.0621 134.324" stroke="white" stroke-width="0.6" stroke-miterlimit="10" stroke-linecap="round" stroke-linejoin="round" stroke-dasharray="1.2 1.2"/>
<path d="M56.4885 117.27C56.4885 117.27 62.1112 121.204 64.7352 132.674" stroke="white" stroke-width="0.6" stroke-miterlimit="10" stroke-linecap="round" stroke-linejoin="round" stroke-dasharray="1.2 1.2"/>
<path d="M1.26637 87.8176C4.6077 82.4563 8.1237 82.695 11.205 88.9643C16.2144 99.1616 12.2984 115.587 12.2984 115.587L23.845 111.442C23.845 111.442 21.4997 118.014 25.397 123.199C25.397 123.199 12.8984 131.659 7.57437 130.108C2.2517 128.559 -2.11497 93.2456 1.26637 87.8176Z" fill="#6B225E"/>
<path d="M-20.1924 3.6004L166.54 114.332L164.509 -16.2969L-8.40438 -25.8943L-20.1924 3.6004Z" fill="#4FC9B5"/>
</g>
<path d="M142.749 142.749H3.60001V3.60002H142.749V142.749ZM0 146.347H146.347V4.9413e-05H0V146.347Z" fill="#E2C39F"/>
<path d="M123.548 136.752H65.9694V9.59864H123.548V136.752ZM59.9707 142.749H129.545V3.59994H59.9707V142.749Z" fill="#E2C39F"/>
<path d="M71.3879 77.2134H73.1746V69.1374H71.3879V77.2134Z" fill="#EADAC5"/>
<path d="M136.751 136.752H79.1721V9.59864H136.751V136.752ZM73.1748 142.749H142.749V3.59994H73.1748V142.749Z" fill="#EADAC5"/>
<path d="M23.6614 111.554C27.356 109.966 29.988 120.456 25.212 123.312C20.4374 126.168 17.752 114.094 23.6614 111.554Z" fill="#4C1244"/>
<path d="M36.8874 107.818C36.8874 107.818 34.4714 104.573 32.4754 104.889C30.4794 105.203 29.2421 110.163 30.0354 112.842C30.8287 115.521 34.1687 117.27 34.1687 117.27L33.8434 115.426C33.8434 115.426 31.8354 114.013 31.5581 111.439C31.2821 108.865 32.9594 106.725 33.5114 106.687C34.0634 106.65 35.3474 108.766 35.3474 108.766L36.8874 107.818Z" fill="#E2C39F"/>
<path d="M25.4652 113.08C25.4652 113.08 28.8719 108.584 29.7932 108.008C30.7132 107.431 32.7119 107.715 33.3399 107.956C33.9692 108.197 34.7092 115.263 33.3399 115.643C31.9706 116.021 29.2866 119.379 26.9012 118.176L23.3679 119.759C23.3679 119.759 21.7692 117.357 21.4692 114.439L25.4652 113.08Z" fill="#FF8B66"/>
<path d="M55.1824 117.094L52.3837 117.938C50.4664 110.932 45.8397 113.912 45.8397 113.912L41.1117 128.474C36.3637 129.354 30.3091 126.082 30.3091 126.082L31.0704 110.624C34.1451 106.42 39.1597 106.58 39.1597 106.58L44.9797 109.945C44.9797 109.945 47.7184 109.097 50.7957 110.34C54.8211 111.972 55.1824 117.094 55.1824 117.094Z" fill="#EADAC5"/>
<path d="M45.8373 113.915C44.3507 114.52 41.9653 113.122 41.9653 113.122C41.9653 113.122 45.6267 111.208 48.8907 111.835C52.1547 112.462 53.136 116.811 53.136 116.811C53.136 116.811 55.348 115.234 57.524 117.484C57.524 117.484 53.612 119.774 51.5973 119.563C51.5973 119.563 51.2867 118.596 52.0093 117.915C52.0093 117.915 50.5707 111.986 45.8373 113.915Z" fill="#E2C39F"/>
<path d="M41.1117 128.475C36.3624 129.355 30.3091 126.083 30.3091 126.083L31.0704 110.624C31.0704 110.624 33.8424 113.168 38.9451 114.344L37.5851 126.576C37.5851 126.576 38.1984 127.82 41.1117 128.475Z" fill="#E2C39F"/>
<path d="M52.4351 119.533C52.4351 119.533 52.4911 119.718 52.5604 120.113" stroke="white" stroke-width="0.6" stroke-linecap="round" stroke-linejoin="round"/>
<path d="M52.7194 121.378C52.8967 123.423 52.9114 127.275 51.7781 133.456" stroke="white" stroke-width="0.6" stroke-linecap="round" stroke-linejoin="round" stroke-dasharray="1.28 1.28"/>
<path d="M51.6552 134.109C51.6179 134.304 51.5792 134.5 51.5405 134.698" stroke="white" stroke-width="0.6" stroke-linecap="round" stroke-linejoin="round"/>
<path d="M53.5647 118.354C53.5647 118.354 56.414 121.653 56.114 135.147" stroke="white" stroke-width="0.6" stroke-miterlimit="10" stroke-linecap="round" stroke-linejoin="round" stroke-dasharray="1.2 1.2"/>
<path d="M55.1821 117.602C55.1821 117.602 59.7128 123.002 61.0621 134.324" stroke="white" stroke-width="0.6" stroke-miterlimit="10" stroke-linecap="round" stroke-linejoin="round" stroke-dasharray="1.2 1.2"/>
</svg>
