<svg width="143" height="114" viewBox="0 0 143 114" fill="none" xmlns="http://www.w3.org/2000/svg">
<path d="M21.9054 47.1699C23.735 34.1347 30.5171 22.2712 38.1455 11.4319C40.3374 8.31615 42.6439 5.2207 45.6109 2.79415C47.0969 1.57894 48.7862 0.522993 50.6839 0.140768C52.5816 -0.242423 54.7193 0.141735 56.0937 1.47759C57.3703 2.7179 57.8126 4.54022 58.1414 6.26989C59.4141 12.9781 59.8032 19.8466 59.0972 26.9699C67.6852 25.7373 76.4411 25.6283 86.4153 26.2392C90.6541 19.3572 96.4114 13.3748 103.181 8.82095C104.762 7.75632 106.632 6.72644 108.501 7.15306C110.441 7.5961 111.664 9.44738 112.484 11.2224C116.757 20.4827 115.497 31.1532 115.139 41.4182C117.624 45.698 119.18 50.4903 119.673 55.3878C119.964 58.2699 119.897 61.2119 120.664 64.0091C121.16 65.8169 121.995 67.5177 122.603 69.2927C125.896 78.9004 121.986 89.9666 114.528 97.004C107.071 104.041 96.6404 109.83 86.5684 110.631C75.7559 112.506 64.654 111.225 53.8109 109.524C28.2127 105.51 7.76749 87.1222 21.9054 47.1699Z" fill="#ED9C39"/>
<path d="M30.7378 40.067C32.6335 34.9948 35.0121 30.1089 37.5051 25.2895C39.8353 20.7858 42.3649 16.2146 46.3272 12.9792C47.6305 11.9155 49.5726 11.0111 50.9273 12.012C51.5019 12.4367 51.8129 13.1162 52.036 13.7861C52.6808 15.7271 52.7716 17.7985 52.7904 19.839C52.8229 23.3398 52.66 26.8426 52.3036 30.3251C48.9841 29.3338 46.7162 28.7884 40.483 34.8819C39.858 33.9456 38.3464 33.9784 37.436 34.655C36.5247 35.3307 36.0666 36.4252 35.6489 37.4657C35.3241 36.9445 34.4946 37.2003 34.0049 37.5787C33.1627 38.2292 32.4854 39.0825 32.05 40.0419C31.4901 39.5458 30.409 39.9753 30.7378 40.067Z" fill="#F1BBBD"/>
<path d="M93.9131 28.6426C96.7448 24.3812 106.125 14.9742 108.359 15.2348C111.666 15.6199 111.785 23.5067 111.436 26.2817C110.935 30.2603 111 34.5961 109.934 38.2185C108.421 38.2137 106.988 37.096 106.645 35.6559C106.513 35.096 106.529 34.5034 106.323 33.9648C106.118 33.4272 105.576 32.9359 105.001 33.0575C104.379 33.1897 104.014 33.9638 103.377 33.9716C103.622 33.0691 103.814 31.9659 103.121 31.3221C102.213 30.4785 100.742 31.2014 99.7394 31.9359C99.4768 30.88 98.4035 29.3926 97.3244 29.1329C96.2452 28.8743 95.1177 29.0123 93.9131 28.6426Z" fill="#F1BBBD"/>
<path d="M95.8446 65.7483C95.5129 65.2541 93.9459 64.3506 91.6829 65.5147C88.4839 67.1604 87.5193 69.8891 87.8757 70.2694C87.9912 70.3919 88.1551 70.4643 88.323 70.4913C88.6942 70.5522 89.0644 70.4083 89.412 70.2674C90.8555 69.6815 92.3 69.0957 93.7435 68.5098C94.6282 68.1507 95.6057 67.6999 95.9266 66.8168C96.0155 66.5716 96.1616 66.2203 95.8446 65.7483Z" fill="#322619"/>
<path d="M52.2572 64.9156C52.7015 63.8857 54.8915 63.6029 56.7843 64.5623C60.2232 66.3064 60.9094 69.0477 60.1047 69.5554C59.3484 70.0322 57.6778 68.9463 55.5767 67.9145C54.2418 67.2581 51.7004 66.208 52.2572 64.9156Z" fill="#322619"/>
<path d="M76.0694 59.4398C72.8447 60.1049 70.2094 62.486 68.5339 65.2601C68.1271 65.9348 67.7618 66.6413 67.2434 67.2378C66.4002 68.2078 65.2163 68.8169 64.1224 69.508C61.338 71.2676 58.8795 73.946 58.5715 77.1728C58.3414 79.5868 59.3357 81.9438 60.4465 84.1117C61.5721 86.3095 62.8813 88.487 64.8234 90.0458C67.3264 92.0545 70.0258 93.8961 75.3101 93.7233C78.758 93.6104 84.8816 90.2196 87.7913 87.9755C89.537 86.6299 91.2194 85.0402 91.9254 82.9795C92.3796 81.6533 92.3953 80.2064 92.112 78.8358C91.6913 76.8002 90.6092 74.8997 89.0611 73.477C87.8831 72.3949 85.7415 70.0234 84.5933 67.2552C82.898 63.1646 82.6659 61.6955 79.7562 60.0884C78.4489 59.3645 76.9847 59.2506 76.0694 59.4398Z" fill="#F1C9AD"/>
<path d="M67.3468 76.9805C70.1401 80.436 74.6888 80.0654 75.2032 75.2065C75.2763 74.8281 75.8785 74.8657 75.9062 75.2451C76.7918 81.4032 68.9878 82.6473 66.7347 77.3242C66.5737 76.9622 67.1108 76.6639 67.3468 76.9805Z" fill="#322619"/>
<path d="M75.9033 75.2946C76.0682 77.337 77.7655 79.3494 79.9871 79.1149C81.1413 78.834 82.1346 77.5619 82.5661 76.5262C82.6441 76.1179 83.2621 76.1517 83.271 76.5696C82.5187 82.9584 74.2091 80.9884 75.2083 75.172C75.3149 74.7473 75.9369 74.8699 75.9033 75.2946Z" fill="#322619"/>
<path d="M62.4269 75.504C41.6035 72.6605 20.1177 74.5591 0.15332 81.0067" stroke="#F1D3D3" stroke-miterlimit="10"/>
<path d="M62.8665 78.053C43.306 79.1881 23.9992 84.3452 6.56543 93.092" stroke="#F1D3D3" stroke-miterlimit="10"/>
<path d="M86.293 75.53C103.69 70.3767 122.376 69.4395 140.221 72.8245" stroke="#F1D3D3" stroke-miterlimit="10"/>
<path d="M86.8145 78.4747C105.668 76.1872 125.173 79.299 142.305 87.3257" stroke="#F1D3D3" stroke-miterlimit="10"/>
<path d="M80.3844 111.875C71.6996 112.538 63.1007 112.144 54.6341 110.027C46.2327 107.926 38.2558 104.391 31.1113 99.588C30.7174 99.3235 30.3481 99.9499 30.7381 100.213C37.9182 105.074 45.9602 108.664 54.4149 110.807C62.7976 112.931 71.7627 113.86 80.3853 112.826C80.9896 112.753 81.0182 111.827 80.3844 111.875Z" fill="#ED8735"/>
<path d="M123.96 74.1266C123.815 71.8111 123.195 69.7214 122.374 67.5612C120.582 62.8491 120.906 57.9863 120.438 53.0637C120.051 48.9914 118.869 44.7127 115.46 42.0612C115.128 41.8035 114.652 42.2475 114.985 42.5255C121.842 48.256 118.083 58.2778 120.156 65.7273C120.733 67.7987 121.72 69.7407 122.219 71.8352C122.746 74.0504 122.643 76.4084 122.393 78.6545C121.949 82.636 120.723 86.5586 118.869 90.127C116.803 94.1047 113.934 97.425 110.758 100.592C110.387 100.963 110.887 101.666 111.347 101.338C117.96 96.622 122.21 88.5161 123.529 80.7306C123.898 78.556 124.098 76.3293 123.96 74.1266Z" fill="#ED8735"/>
<path d="M107.334 103.234C107.189 103.103 106.917 103.068 106.778 103.234C106.496 103.568 106.213 103.902 105.931 104.236C105.794 104.399 105.657 104.561 105.52 104.723C105.361 104.911 105.227 105.116 105.089 105.318C104.986 105.468 105.046 105.681 105.184 105.786C105.327 105.893 105.542 105.888 105.67 105.758C105.818 105.607 105.975 105.461 106.108 105.297C106.246 105.126 106.383 104.957 106.52 104.786C106.792 104.45 107.062 104.114 107.334 103.778C107.46 103.621 107.503 103.386 107.334 103.234Z" fill="#ED8735"/>
<path d="M103.387 105.147C103.164 105.032 102.887 105.092 102.754 105.309C102.609 105.547 102.454 105.778 102.286 106.002C102.265 106.03 102.244 106.058 102.223 106.085C102.214 106.096 102.155 106.171 102.204 106.11C102.161 106.165 102.116 106.219 102.071 106.272C101.981 106.379 101.888 106.484 101.794 106.587C101.608 106.787 101.412 106.979 101.209 107.16C100.996 107.35 100.805 107.564 100.592 107.755C100.279 108.034 100.682 108.531 101.041 108.323C101.313 108.166 101.594 108.002 101.833 107.798C102.051 107.612 102.258 107.409 102.453 107.2C102.867 106.759 103.237 106.276 103.555 105.764C103.678 105.564 103.605 105.26 103.387 105.147Z" fill="#ED8735"/>
</svg>
