<svg width="205" height="120" viewBox="0 0 205 120" fill="none" xmlns="http://www.w3.org/2000/svg">
<path d="M44.845 90.0759C42.969 90.6068 41.0931 91.1763 39.2566 91.823C38.99 91.9195 38.7332 92.0064 38.4666 92.1029C35.5539 90.3945 32.8486 88.3675 30.3901 86.08C27.6946 86.9969 25.4533 89.188 24.6141 91.8713C24.5548 92.0643 24.4956 92.267 24.3475 92.4118C24.1994 92.5566 23.9723 92.6048 23.7551 92.6434C22.4616 92.8558 21.1287 92.8075 19.855 93.1067C18.5813 93.4156 17.3076 94.1974 16.9621 95.4329C16.8041 95.9927 16.8435 96.6201 16.498 97.0931C16.2807 97.4116 15.9253 97.6046 15.5995 97.8073C13.8617 98.898 12.5979 100.635 12.0352 102.556C11.8772 102.431 11.729 102.305 11.5809 102.18C5.77529 97.2765 1.5494 90.4717 0.344825 83.0588C-0.85975 75.6556 1.08535 67.7022 6.27885 61.7179C13.8223 58.5617 21.4743 55.3378 27.8723 50.3091C34.2803 45.2803 39.1479 38.6396 45.0227 33.0124C55.9132 22.5688 70.2596 16.7582 86.5114 9.92443C100.246 4.14279 114.878 -1.24311 129.748 0.252971C136.235 0.909318 142.504 2.85905 148.596 5.12731C154.57 7.35696 160.474 9.93408 165.678 13.5729C176.469 21.1209 183.697 33.0896 186.234 45.8208C188.782 58.552 186.817 71.9588 181.643 83.9082C179.777 88.2227 177.457 92.4214 174.1 95.7707C171.256 98.6085 167.771 100.742 164.197 102.633C153.119 108.492 140.698 112.315 128.109 112.131C122.362 112.044 115.717 110.5 113.338 105.384C106.92 109.042 99.5347 111.04 92.1789 110.915C84.7934 116.677 74.9298 118.559 65.4808 118.415C63.3481 118.386 61.0475 118.029 58.7668 117.498C58.6976 116.716 58.6087 115.963 58.6186 115.567C58.6384 114.988 58.8951 114.438 59.0827 113.888C60.1095 110.828 58.5791 107.151 55.6664 105.645C54.8074 105.211 53.8299 104.921 53.1684 104.226C52.0724 103.058 52.2995 101.263 52.2304 99.6798C52.0922 96.8035 50.7198 94.0044 48.4982 92.1222C47.4319 91.2149 46.1878 90.5199 44.845 90.0759Z" fill="#ED9C39"/>
<path d="M38.4662 92.1026C38.7328 92.0061 38.9896 91.9192 39.2562 91.8227C41.0926 91.176 42.9686 90.6066 44.8446 90.0757C46.1874 90.5197 47.4315 91.2146 48.4978 92.1219C50.7193 94.0041 52.0917 96.8032 52.23 99.6796C52.2991 101.263 52.072 103.058 53.168 104.226C53.8295 104.921 54.807 105.21 55.666 105.645C58.5787 107.15 60.1091 110.828 59.0822 113.888C58.8946 114.438 58.6379 114.988 58.6182 115.567C58.6083 115.963 58.6972 116.716 58.7663 117.497C54.343 116.494 49.9887 114.882 47.1254 113.878C46.4046 113.617 39.7498 115.036 32.6902 113.376C30.3206 112.816 28.1681 111.224 27.1413 109.09C26.0552 104.313 27.8324 99.0039 31.614 95.7801C33.5986 94.1006 36.0077 93.0099 38.4662 92.1026Z" fill="#F1C9AD"/>
<path d="M31.6145 95.7803C27.8329 99.0041 26.0556 104.313 27.1417 109.091C26.9442 108.695 26.7863 108.28 26.6777 107.845C21.3558 108.367 16.1623 105.896 12.0352 102.556C12.5979 100.635 13.8618 98.8979 15.5995 97.8072C15.9253 97.6045 16.2807 97.4115 16.498 97.0929C16.8435 96.62 16.8041 95.9926 16.9621 95.4328C17.3076 94.1973 18.5813 93.4155 19.855 93.1066C21.1287 92.8074 22.4616 92.8557 23.7551 92.6433C23.9723 92.6047 24.1994 92.5564 24.3475 92.4116C24.4956 92.2669 24.5548 92.0642 24.6141 91.8711C25.4533 89.1878 27.6946 86.9968 30.3901 86.0798C32.8486 88.3674 35.5539 90.3944 38.4666 92.1028C36.0081 93.0101 33.599 94.1008 31.6145 95.7803Z" fill="#F1C9AD"/>
<path d="M113.232 105.702C113.65 99.0889 119.396 93.2986 126.167 92.6026L125.421 93.5321C122.937 79.6504 121.741 63.9985 130.43 51.7943C135.375 44.6333 142.784 39.0158 151.211 36.4223C151.459 36.346 151.724 36.4802 151.802 36.7224C151.878 36.957 151.747 37.207 151.515 37.2929C140.848 41.2203 132.103 49.75 128.125 60.1588C124.081 70.7492 125.558 82.3212 127.07 93.3208C127.133 93.7744 126.787 94.1904 126.32 94.2232C123.33 94.4443 120.465 95.8573 118.271 97.9239C116.066 99.9885 114.536 102.785 114.17 105.782C114.115 106.334 113.192 106.305 113.232 105.702Z" fill="#ED8735"/>
<path d="M102.672 96.6006C99.2287 110.614 86.5451 118.621 72.2877 119.099C67.7656 119.324 63.2366 118.912 58.8755 117.892C58.7827 117.87 58.7244 117.778 58.7471 117.688C58.7678 117.605 58.8498 117.551 58.9347 117.558C63.363 117.969 67.8002 117.955 72.1643 117.532C86.0297 116.289 97.1266 109.415 102.278 96.4741C102.356 96.2463 102.747 96.3564 102.672 96.6006Z" fill="#ED8735"/>
<path d="M34.196 104.229C31.5815 105.966 29.8536 108.29 30.1024 111.487C30.1024 112.169 29.0647 112.27 28.9255 111.606C27.9687 108.059 30.4026 104.652 33.8613 103.621C34.2326 103.482 34.5179 104.005 34.196 104.229Z" fill="#ED8735"/>
<path d="M37.8764 105.683C36.7844 106.855 35.5522 107.748 34.9262 109.171C34.2973 110.508 34.2864 111.994 34.3535 113.47C34.3812 113.805 34.1166 114.1 33.77 114.104C33.4876 114.108 33.2487 113.918 33.1855 113.66C32.445 111.164 33.0986 108.11 35.3123 106.505C36.0005 105.955 36.7449 105.554 37.4242 105.158C37.7579 104.951 38.141 105.402 37.8764 105.683Z" fill="#ED8735"/>
<path d="M120.636 103.659C119.858 105.478 119.464 107.342 119.454 109.315C119.454 109.642 119.177 109.907 118.841 109.899C118.576 109.892 118.356 109.717 118.283 109.482C117.799 107.849 118.109 106.016 118.983 104.559C119.279 104.075 119.629 103.624 120.064 103.256C120.216 103.128 120.445 103.144 120.576 103.292C120.668 103.398 120.687 103.54 120.636 103.659Z" fill="#ED8735"/>
<path d="M124.623 104.3C124.127 106.338 123.242 108.529 124.081 110.548C124.199 110.849 124.046 111.186 123.738 111.302C123.488 111.396 123.212 111.314 123.055 111.119C122.207 110.044 122.084 108.575 122.364 107.301C122.368 106.737 124.232 102.53 124.623 104.3Z" fill="#ED8735"/>
<path d="M185.037 41.1453C194.158 48.118 202.818 55.5598 203.965 67.957C205.254 81.8822 199.19 90.8519 195.896 95.7967C192.601 100.742 187.963 104.92 182.395 107.197C176.273 109.701 169.377 109.805 162.805 108.912C158.334 108.305 153.879 107.237 149.876 105.197C141.354 100.854 135.529 92.2119 133.791 82.9719C132.053 73.7309 134.157 64.0238 138.655 55.721C140.65 52.0377 143.174 48.5253 146.64 46.0968C150.105 43.6683 154.631 42.4444 158.733 43.5824C160.635 44.1104 162.479 45.2214 163.329 46.9674C163.927 48.1971 163.977 49.617 163.823 50.9712C163.496 53.8369 162.319 56.5414 161.013 59.1272C158.767 63.5778 156.094 67.8441 154.358 72.508C152.621 77.1719 151.881 82.4102 153.61 87.076C154.99 90.7998 157.94 93.9416 161.618 95.6037C165.296 97.2658 169.654 97.428 173.45 96.0429C176.407 94.9638 178.957 93.0208 181.224 90.8751C186.205 86.162 194.846 76.7926 186.936 64.0846C187.797 55.2297 186.935 49.0726 185.037 41.1453Z" fill="#EDA246"/>
<path d="M148.34 63.745C150.314 65.6754 154.264 61.8146 157.226 62.7798C157.608 63.1533 157.991 63.6002 158.388 64.0703C159.275 62.4285 160.174 60.7914 161.013 59.1284C162.319 56.5426 163.495 53.838 163.822 50.9723C163.976 49.6191 163.927 48.1983 163.329 46.9686C162.479 45.2225 160.635 44.1115 158.732 43.5836C154.631 42.4456 150.105 43.6695 146.639 46.098C143.174 48.5264 140.65 52.0389 138.655 55.7221C138.493 56.0204 138.342 56.3244 138.186 56.6265C143.744 55.7578 145.637 59.3417 148.34 63.745Z" fill="#F1C9AD"/>
<path d="M75.1283 76.0726C66.6884 86.9641 51.7615 88.5731 39.4403 92.7332C36.9591 93.5575 34.5697 94.5584 32.5505 96.0419C28.5754 99.0206 26.42 104.367 27.4015 109.44C27.4567 109.635 27.1171 109.729 27.0657 109.524C25.4188 104.459 27.1664 98.3758 31.5444 94.8161C35.8907 91.3992 41.3163 90.1705 46.4801 88.6059C51.6233 87.1928 56.7704 85.9467 61.6479 84.0491C66.4988 82.137 71.167 79.5956 74.8084 75.812C74.9644 75.6344 75.2952 75.8699 75.1283 76.0726Z" fill="#ED8735"/>
<path d="M22.8958 76.2953C27.0822 82.2844 31.9804 87.7997 38.5158 91.3324C39.6236 91.9752 38.6787 93.617 37.5363 93.0089C34.1862 91.1567 31.1214 88.7639 28.5612 85.96C25.9743 83.1763 23.8733 80.0278 22.1444 76.7383C21.8946 76.2827 22.5996 75.8609 22.8958 76.2953Z" fill="#ED8735"/>
<path d="M8.11436 60.0614C8.06993 59.9041 7.96921 59.7381 7.89615 59.5895C7.77964 59.3549 7.63745 59.1319 7.5249 58.8945C7.50021 58.8424 7.47654 58.7893 7.45186 58.7362C7.44396 58.7188 7.43704 58.7015 7.43013 58.6841C7.38274 58.5663 7.3373 58.4476 7.29583 58.3279C7.20993 58.0808 7.13785 57.8289 7.07762 57.5741C6.98481 57.1812 6.50201 56.9129 6.11003 57.0365C5.69337 57.1687 5.45738 57.5635 5.56007 57.9824C5.70126 58.5557 5.91157 59.1088 6.16927 59.6416C6.28183 59.8751 6.40128 60.1165 6.55037 60.3307C6.64812 60.4697 6.77055 60.6338 6.89891 60.7535C7.05787 60.9021 7.26719 60.9523 7.47355 61.0025C7.81123 61.0846 8.0956 60.8481 8.11831 60.5228C8.1272 60.3693 8.15682 60.214 8.11436 60.0614Z" fill="#ED8735"/>
<path d="M11.2335 60.403C11.1091 60.0758 11.0015 59.7313 10.8385 59.4205C10.6924 59.1425 10.5384 58.8674 10.3883 58.5913C10.0773 58.018 9.76632 57.4456 9.45629 56.8723C9.32299 56.6262 8.95172 56.5306 8.71179 56.6821C8.45705 56.8424 8.37214 57.1474 8.5163 57.409C8.82633 57.9697 9.1364 58.5305 9.44544 59.0904L9.90157 59.9166C10.0576 60.1994 10.2788 60.4561 10.4713 60.7168C10.5927 60.8808 10.7892 60.9696 10.9916 60.8837C11.1674 60.8084 11.3066 60.5961 11.2335 60.403Z" fill="#ED8735"/>
<path d="M87.286 107.379C86.9108 107.546 86.5465 107.725 86.2029 107.951C85.883 108.161 85.5828 108.405 85.2748 108.632C84.6359 109.102 83.9971 109.572 83.3583 110.041C83.1588 110.188 83.0552 110.432 83.1924 110.66C83.3109 110.859 83.6189 110.962 83.8253 110.822C84.4908 110.372 85.1553 109.921 85.8207 109.47C86.1624 109.238 86.5237 109.021 86.8466 108.765C87.1665 108.513 87.4548 108.242 87.7342 107.947C88.0324 107.633 87.6612 107.212 87.286 107.379Z" fill="#ED8735"/>
<path d="M88.0725 105.197C87.9353 105.024 87.6874 104.974 87.49 105.083C86.5865 105.586 85.7473 106.198 84.8913 106.774C84.6523 106.935 84.521 107.258 84.6918 107.518C84.8399 107.742 85.2023 107.893 85.4521 107.712C86.322 107.081 87.2244 106.478 88.037 105.777C88.2058 105.63 88.2019 105.36 88.0725 105.197Z" fill="#ED8735"/>
<path d="M84.4246 105.614C84.2627 105.409 84.0129 105.388 83.7829 105.489C83.5933 105.572 83.4175 105.657 83.2417 105.767C83.064 105.878 82.8863 105.988 82.7086 106.098C82.3591 106.315 82.0095 106.532 81.66 106.75C81.3944 106.915 81.2631 107.281 81.4438 107.555C81.6087 107.805 81.9908 107.955 82.2672 107.766C82.6138 107.53 82.9594 107.293 83.3059 107.058L83.8085 106.715C84.0159 106.574 84.2024 106.423 84.3861 106.254C84.5668 106.087 84.5707 105.799 84.4246 105.614Z" fill="#ED8735"/>
<path d="M129.515 63.1008C129.274 63.0014 128.928 63.0777 128.807 63.3277C128.513 63.9329 128.312 64.5603 128.221 65.2243C128.129 65.9019 128.069 66.6721 128.439 67.286C128.564 67.4935 128.849 67.6229 129.092 67.5457C129.358 67.4617 129.482 67.26 129.517 67.0003C129.554 66.7243 129.526 66.4328 129.5 66.1567C129.473 65.8739 129.469 65.5892 129.486 65.3064C129.49 65.2455 129.494 65.1857 129.5 65.1249C129.502 65.1094 129.517 64.9849 129.519 64.9608C129.538 64.8286 129.563 64.6963 129.593 64.566C129.656 64.289 129.741 64.0188 129.845 63.7533C129.944 63.4975 129.753 63.1993 129.515 63.1008Z" fill="#ED8735"/>
<path d="M131.091 65.899C130.989 65.8083 130.875 65.7523 130.738 65.734C130.47 65.6982 130.106 65.8681 130.065 66.1635C130.009 66.5631 129.953 66.9627 129.898 67.3623C129.866 67.592 129.817 67.8265 129.805 68.0582C129.798 68.1904 129.789 68.3507 129.825 68.4771C129.857 68.591 129.935 68.6962 129.996 68.7975C130.134 69.0244 130.458 69.0649 130.65 68.8796C130.735 68.7976 130.837 68.7155 130.898 68.6142C130.966 68.5003 130.997 68.3478 131.026 68.2194C131.076 67.9935 131.09 67.7541 131.119 67.5244C131.17 67.1239 131.22 66.7233 131.27 66.3227C131.287 66.1876 131.19 65.9888 131.091 65.899Z" fill="#ED8735"/>
<path d="M152.703 91.1926C151.849 90.322 151.235 89.2322 150.932 88.0412C150.879 87.8336 150.641 87.7091 150.433 87.7651C150.209 87.8259 150.109 88.0412 150.151 88.2526C150.42 89.6039 151.065 90.8567 151.984 91.8972C152.163 92.1009 152.519 92.0777 152.703 91.8972C152.902 91.7032 152.895 91.3876 152.703 91.1926Z" fill="#ED8735"/>
<path d="M152.144 94.0446C152.054 93.9056 151.956 93.7763 151.853 93.646C151.65 93.3854 151.445 93.1248 151.241 92.8642C150.833 92.343 150.425 91.8217 150.018 91.3005C149.838 91.0708 149.521 90.926 149.241 91.1017C149.004 91.2513 148.852 91.6084 149.038 91.8603C149.436 92.3989 149.834 92.9375 150.231 93.4761C150.426 93.7415 150.623 94.006 150.818 94.2715C150.935 94.4288 151.051 94.5842 151.182 94.7319C151.316 94.8834 151.476 94.9809 151.649 95.0861C152.005 95.3033 152.451 94.9442 152.346 94.562C152.295 94.3786 152.25 94.2077 152.144 94.0446Z" fill="#ED8735"/>
<path d="M156.805 95.18C156.769 95.1221 156.733 95.0642 156.696 95.0073C156.638 94.9146 156.57 94.848 156.488 94.7785C156.373 94.682 156.257 94.5855 156.142 94.489C155.911 94.2959 155.68 94.1029 155.449 93.9098C155.355 93.8307 155.251 93.7776 155.123 93.7776C155.009 93.7776 154.874 93.8268 154.796 93.9098C154.715 93.9957 154.655 94.1096 154.661 94.2293C154.665 94.3413 154.702 94.4754 154.796 94.5488C155.037 94.738 155.278 94.9272 155.519 95.1163C155.637 95.209 155.756 95.3026 155.875 95.3963C155.904 95.4185 155.932 95.4416 155.961 95.4638C156.04 95.5256 156.107 95.5603 156.201 95.597C156.272 95.624 156.343 95.6501 156.414 95.6771C156.542 95.7254 156.701 95.653 156.779 95.5555C156.86 95.4522 156.878 95.2968 156.805 95.18Z" fill="#ED8735"/>
<path d="M175.259 29.9362C175.11 29.5269 174.851 29.1958 174.566 28.8677C174.32 28.5849 174.076 28.3021 173.831 28.0202C173.34 27.4546 172.849 26.89 172.358 26.3243C172.142 26.0753 171.678 26.0908 171.459 26.3243C171.207 26.5917 171.232 26.9353 171.459 27.2036C171.936 27.7673 172.413 28.33 172.89 28.8937C173.125 29.1708 173.36 29.4487 173.595 29.7257C173.851 30.0288 174.124 30.3271 174.478 30.524C174.857 30.7344 175.42 30.3792 175.259 29.9362Z" fill="#ED8735"/>
<path d="M177.371 34.63C177.243 34.4148 177.124 34.1957 177.01 33.9737C176.95 33.855 176.892 33.7353 176.835 33.6146C176.815 33.5693 176.794 33.5239 176.773 33.4785C176.761 33.4515 176.75 33.4245 176.738 33.3984C176.636 33.1532 176.539 32.9071 176.452 32.6562C176.346 32.3483 176.01 32.1137 175.669 32.2218C175.352 32.3222 175.116 32.6552 175.225 32.9872C175.402 33.5278 175.618 34.0567 175.864 34.5712C175.979 34.8115 176.103 35.047 176.234 35.2796C176.388 35.5518 176.605 35.8616 176.897 36.0093C177.242 36.184 177.738 35.9746 177.715 35.5499C177.698 35.2207 177.536 34.9109 177.371 34.63Z" fill="#ED8735"/>
<path d="M175.233 34.9273C175.112 34.5595 174.904 34.1899 174.704 33.8559C174.505 33.5248 174.315 33.1889 174.135 32.8473C173.786 32.1851 173.488 31.5365 173.222 30.8579C173.103 30.5558 172.809 30.3473 172.468 30.439C172.165 30.5211 171.929 30.8695 172.039 31.1765C172.312 31.94 172.626 32.6909 172.98 33.4216C173.148 33.769 173.327 34.1117 173.514 34.4495C173.712 34.8047 173.964 35.1985 174.267 35.4765C174.668 35.8471 175.418 35.4871 175.233 34.9273Z" fill="#ED8735"/>
<path d="M103.984 6.48251C103.777 6.53463 103.571 6.58385 103.366 6.63791C103.175 6.68713 102.991 6.76725 102.807 6.83578L101.65 7.2624C101.43 7.34348 101.297 7.55486 101.395 7.78168C101.495 8.01237 101.736 8.05484 101.953 7.96508C102.332 7.80871 102.711 7.65138 103.091 7.49502C103.273 7.41973 103.462 7.3541 103.635 7.26144C103.821 7.16202 104.005 7.05971 104.19 6.95836C104.455 6.81261 104.274 6.41012 103.984 6.48251Z" fill="#ED8735"/>
<path d="M107.407 7.73523C106.896 7.87712 106.401 8.08271 105.903 8.2661C105.403 8.44949 104.903 8.63289 104.404 8.81628C104.194 8.89349 104.049 9.09136 104.113 9.31722C104.167 9.51219 104.415 9.68304 104.625 9.60196C105.132 9.40698 105.638 9.21201 106.145 9.01704C106.662 8.81821 107.193 8.63674 107.692 8.39737C108.074 8.21398 107.806 7.62423 107.407 7.73523Z" fill="#ED8735"/>
<path d="M54.3745 34.4959C53.8572 34.549 52.704 35.4206 52.395 35.4206C51.8568 35.4206 51.3997 34.5789 49.887 34.6976C49.2462 34.7478 48.7516 35.3492 48.7279 35.9775C48.7032 36.6059 49.034 37.1956 49.4289 37.6917C50.043 38.463 51.5527 39.349 52.5164 39.0894C53.792 38.7448 55.5643 37.7197 55.8724 36.0586C56.1706 34.4515 54.8761 34.4438 54.3745 34.4959Z" fill="#947376"/>
<path d="M65.5684 73.3613C65.2198 73.1257 64.6689 73.4008 64.3204 73.5273C63.8869 73.6846 63.4524 73.8429 63.019 74.0002C62.1659 74.3101 61.3138 74.6199 60.4607 74.9297C60.2386 75.0108 60.0866 75.2203 60.1537 75.4587C60.2129 75.6691 60.4706 75.839 60.6947 75.7589C61.5636 75.4481 62.4325 75.1373 63.3014 74.8265C63.721 74.6759 64.1407 74.5263 64.5603 74.3757C64.9355 74.2415 65.5822 74.0968 65.6967 73.6672C65.7293 73.5437 65.672 73.4317 65.5684 73.3613Z" fill="#ED8735"/>
<path d="M70.3781 72.5126C69.6376 72.6864 68.9484 73.058 68.2869 73.4199C67.6333 73.7771 66.9786 74.1342 66.325 74.4913C66.1236 74.6014 66.0564 74.8716 66.171 75.0637C66.2974 75.2751 66.5462 75.3089 66.7565 75.2143C67.4407 74.9073 68.1249 74.6004 68.8092 74.2935C69.1399 74.1448 69.4648 73.9942 69.7827 73.8205C69.9407 73.7336 70.0987 73.6487 70.2557 73.5609C70.4462 73.4547 70.6052 73.3138 70.7721 73.1757C71.0969 72.9045 70.7444 72.4267 70.3781 72.5126Z" fill="#ED8735"/>
</svg>
