<svg width="156" height="65" viewBox="0 0 156 65" fill="none" xmlns="http://www.w3.org/2000/svg">
<path d="M5.88624 64.0431L5.44824 63.8011C7.14424 60.7311 6.75424 49.2961 6.75024 49.1811L7.25024 49.1631C7.26724 49.6391 7.64824 60.8531 5.88624 64.0431Z" fill="#221E20"/>
<path d="M152.022 48.4502H7.01953V57.9292H152.022V48.4502Z" fill="#221E20"/>
<path d="M155.854 47.8494C155.854 49.5924 155.126 51.0054 154.229 51.0054C153.332 51.0054 152.604 49.5924 152.604 47.8494C152.604 46.1064 153.332 44.6934 154.229 44.6934C155.127 44.6934 155.854 46.1064 155.854 47.8494Z" fill="url(#paint0_linear_151_4931)"/>
<path d="M154.917 50.8494C154.917 51.0394 154.763 51.1934 154.573 51.1934C154.382 51.1934 154.229 51.0404 154.229 50.8494V45.0364C154.229 44.8464 154.382 44.6924 154.573 44.6924C154.762 44.6924 154.917 44.8464 154.917 45.0364V50.8494Z" fill="black"/>
<path d="M154.979 40.0054C154.979 40.1784 154.839 40.3184 154.666 40.3184H151.853C151.68 40.3184 151.54 40.1784 151.54 40.0054C151.54 39.8324 151.68 39.6924 151.853 39.6924H154.666C154.84 39.6934 154.979 39.8324 154.979 40.0054Z" fill="url(#paint1_linear_151_4931)"/>
<path d="M154.979 40.8804C154.979 41.0534 154.839 41.1934 154.666 41.1934H151.853C151.68 41.1934 151.54 41.0534 151.54 40.8804C151.54 40.7074 151.68 40.5674 151.853 40.5674H154.666C154.84 40.5684 154.979 40.7074 154.979 40.8804Z" fill="url(#paint2_linear_151_4931)"/>
<path d="M154.979 41.7554C154.979 41.9284 154.839 42.0684 154.666 42.0684H151.853C151.68 42.0684 151.54 41.9284 151.54 41.7554C151.54 41.5824 151.68 41.4424 151.853 41.4424H154.666C154.84 41.4434 154.979 41.5824 154.979 41.7554Z" fill="url(#paint3_linear_151_4931)"/>
<path d="M154.979 42.6304C154.979 42.8034 154.839 42.9434 154.666 42.9434H151.853C151.68 42.9434 151.54 42.8034 151.54 42.6304C151.54 42.4574 151.68 42.3174 151.853 42.3174H154.666C154.84 42.3184 154.979 42.4574 154.979 42.6304Z" fill="url(#paint4_linear_151_4931)"/>
<path d="M154.979 43.5054C154.979 43.6784 154.839 43.8184 154.666 43.8184H151.853C151.68 43.8184 151.54 43.6784 151.54 43.5054C151.54 43.3324 151.68 43.1924 151.853 43.1924H154.666C154.84 43.1934 154.979 43.3324 154.979 43.5054Z" fill="url(#paint5_linear_151_4931)"/>
<path d="M124.025 49.3932V18.2791C124.025 18.2791 123.515 15.9322 126.882 15.9322C130.248 15.9322 135.787 15.9012 139.459 15.9322C140.749 15.9432 143.306 15.2191 145.244 18.4831C147.182 21.7481 152.996 31.4391 152.996 31.4391C152.996 31.4391 154.016 32.2541 154.016 35.1111C154.016 37.9671 154.016 52.4542 154.016 52.4542C154.016 52.4542 154.73 55.8202 151.67 55.8202C148.609 55.8202 144.019 55.9211 144.019 55.9211L139.53 49.5972L124.025 49.3932Z" fill="url(#paint6_linear_151_4931)"/>
<path d="M149.709 32.2767C150.201 33.1437 150.236 35.8176 150.236 35.8176V50.7526L144.506 50.6506L140.209 44.5296H126.499V19.4006V18.0267C126.499 18.0267 126.458 16.9426 127.791 16.9426C129.124 16.9426 139.083 16.9426 139.083 16.9426C139.083 16.9426 141.041 16.5687 142.124 18.5267C143.209 20.4837 147.625 28.6087 149.709 32.2767Z" fill="url(#paint7_linear_151_4931)"/>
<path d="M137.208 37.3788C137.208 37.9988 136.706 38.5018 136.086 38.5018H131.699C131.08 38.5018 130.577 37.9988 130.577 37.3788C130.577 36.7588 131.08 36.2568 131.699 36.2568H136.086C136.706 36.2568 137.208 36.7588 137.208 37.3788Z" fill="#221E20"/>
<path opacity="0.42" d="M136.285 37.0346C136.285 37.4816 135.923 37.8446 135.475 37.8446H132.31C131.863 37.8446 131.499 37.4816 131.499 37.0346C131.499 36.5876 131.862 36.2246 132.31 36.2246H135.475C135.923 36.2256 136.285 36.5876 136.285 37.0346Z" fill="url(#paint8_linear_151_4931)"/>
<path d="M2.166 39.5059C2.166 40.1049 1.682 40.5889 1.084 40.5889C0.485 40.5889 0 40.1049 0 39.5059V36.8389C0 36.2399 0.485 35.7559 1.084 35.7559C1.682 35.7559 2.166 36.2399 2.166 36.8389V39.5059Z" fill="#660DFF"/>
<path d="M2.166 44.3398C2.166 44.9378 1.682 45.4229 1.084 45.4229C0.485 45.4229 0 44.9378 0 44.3398V41.6729C0 41.0739 0.485 40.5889 1.084 40.5889C1.682 40.5889 2.166 41.0739 2.166 41.6729V44.3398Z" fill="#A34ADF"/>
<path d="M121.57 0H0.977539V49.554H121.57V0Z" fill="url(#paint9_linear_151_4931)"/>
<path d="M121.57 42.0895C121.28 42.1235 108.721 43.5536 92.0835 40.5886C75.2625 37.5906 29.1505 27.4366 0.978516 29.2506V49.5536H121.57V42.0895Z" fill="#B8EFF2"/>
<path d="M2.68652 45.7549C2.96267 45.7549 3.18652 45.531 3.18652 45.2549C3.18652 44.9787 2.96267 44.7549 2.68652 44.7549C2.41038 44.7549 2.18652 44.9787 2.18652 45.2549C2.18652 45.531 2.41038 45.7549 2.68652 45.7549Z" fill="#636566"/>
<path d="M2.68652 45.5049C2.82459 45.5049 2.93652 45.393 2.93652 45.2549C2.93652 45.1168 2.82459 45.0049 2.68652 45.0049C2.54845 45.0049 2.43652 45.1168 2.43652 45.2549C2.43652 45.393 2.54845 45.5049 2.68652 45.5049Z" fill="black"/>
<path d="M6.75 45.7549C7.02614 45.7549 7.25 45.531 7.25 45.2549C7.25 44.9787 7.02614 44.7549 6.75 44.7549C6.47386 44.7549 6.25 44.9787 6.25 45.2549C6.25 45.531 6.47386 45.7549 6.75 45.7549Z" fill="#636566"/>
<path d="M6.75 45.5049C6.88807 45.5049 7 45.393 7 45.2549C7 45.1168 6.88807 45.0049 6.75 45.0049C6.61193 45.0049 6.5 45.1168 6.5 45.2549C6.5 45.393 6.61193 45.5049 6.75 45.5049Z" fill="black"/>
<path d="M10.8115 45.7549C11.0877 45.7549 11.3115 45.531 11.3115 45.2549C11.3115 44.9787 11.0877 44.7549 10.8115 44.7549C10.5354 44.7549 10.3115 44.9787 10.3115 45.2549C10.3115 45.531 10.5354 45.7549 10.8115 45.7549Z" fill="#636566"/>
<path d="M10.8115 45.5049C10.9496 45.5049 11.0615 45.393 11.0615 45.2549C11.0615 45.1168 10.9496 45.0049 10.8115 45.0049C10.6735 45.0049 10.5615 45.1168 10.5615 45.2549C10.5615 45.393 10.6735 45.5049 10.8115 45.5049Z" fill="black"/>
<path d="M14.875 45.7549C15.1511 45.7549 15.375 45.531 15.375 45.2549C15.375 44.9787 15.1511 44.7549 14.875 44.7549C14.5989 44.7549 14.375 44.9787 14.375 45.2549C14.375 45.531 14.5989 45.7549 14.875 45.7549Z" fill="#636566"/>
<path d="M14.875 45.5049C15.0131 45.5049 15.125 45.393 15.125 45.2549C15.125 45.1168 15.0131 45.0049 14.875 45.0049C14.7369 45.0049 14.625 45.1168 14.625 45.2549C14.625 45.393 14.7369 45.5049 14.875 45.5049Z" fill="black"/>
<path d="M18.9365 45.7549C19.2127 45.7549 19.4365 45.531 19.4365 45.2549C19.4365 44.9787 19.2127 44.7549 18.9365 44.7549C18.6604 44.7549 18.4365 44.9787 18.4365 45.2549C18.4365 45.531 18.6604 45.7549 18.9365 45.7549Z" fill="#636566"/>
<path d="M18.9365 45.5049C19.0746 45.5049 19.1865 45.393 19.1865 45.2549C19.1865 45.1168 19.0746 45.0049 18.9365 45.0049C18.7985 45.0049 18.6865 45.1168 18.6865 45.2549C18.6865 45.393 18.7985 45.5049 18.9365 45.5049Z" fill="black"/>
<path d="M23 45.7549C23.2761 45.7549 23.5 45.531 23.5 45.2549C23.5 44.9787 23.2761 44.7549 23 44.7549C22.7239 44.7549 22.5 44.9787 22.5 45.2549C22.5 45.531 22.7239 45.7549 23 45.7549Z" fill="#636566"/>
<path d="M23 45.5049C23.1381 45.5049 23.25 45.393 23.25 45.2549C23.25 45.1168 23.1381 45.0049 23 45.0049C22.8619 45.0049 22.75 45.1168 22.75 45.2549C22.75 45.393 22.8619 45.5049 23 45.5049Z" fill="black"/>
<path d="M27.0615 45.7549C27.3377 45.7549 27.5615 45.531 27.5615 45.2549C27.5615 44.9787 27.3377 44.7549 27.0615 44.7549C26.7854 44.7549 26.5615 44.9787 26.5615 45.2549C26.5615 45.531 26.7854 45.7549 27.0615 45.7549Z" fill="#636566"/>
<path d="M27.0615 45.5049C27.1996 45.5049 27.3115 45.393 27.3115 45.2549C27.3115 45.1168 27.1996 45.0049 27.0615 45.0049C26.9235 45.0049 26.8115 45.1168 26.8115 45.2549C26.8115 45.393 26.9235 45.5049 27.0615 45.5049Z" fill="black"/>
<path d="M31.125 45.7549C31.4011 45.7549 31.625 45.531 31.625 45.2549C31.625 44.9787 31.4011 44.7549 31.125 44.7549C30.8489 44.7549 30.625 44.9787 30.625 45.2549C30.625 45.531 30.8489 45.7549 31.125 45.7549Z" fill="#636566"/>
<path d="M31.125 45.5049C31.2631 45.5049 31.375 45.393 31.375 45.2549C31.375 45.1168 31.2631 45.0049 31.125 45.0049C30.9869 45.0049 30.875 45.1168 30.875 45.2549C30.875 45.393 30.9869 45.5049 31.125 45.5049Z" fill="black"/>
<path d="M35.1865 45.7549C35.4627 45.7549 35.6865 45.531 35.6865 45.2549C35.6865 44.9787 35.4627 44.7549 35.1865 44.7549C34.9104 44.7549 34.6865 44.9787 34.6865 45.2549C34.6865 45.531 34.9104 45.7549 35.1865 45.7549Z" fill="#636566"/>
<path d="M35.1865 45.5049C35.3246 45.5049 35.4365 45.393 35.4365 45.2549C35.4365 45.1168 35.3246 45.0049 35.1865 45.0049C35.0485 45.0049 34.9365 45.1168 34.9365 45.2549C34.9365 45.393 35.0485 45.5049 35.1865 45.5049Z" fill="black"/>
<path d="M39.25 45.7549C39.5261 45.7549 39.75 45.531 39.75 45.2549C39.75 44.9787 39.5261 44.7549 39.25 44.7549C38.9739 44.7549 38.75 44.9787 38.75 45.2549C38.75 45.531 38.9739 45.7549 39.25 45.7549Z" fill="#636566"/>
<path d="M39.25 45.5049C39.3881 45.5049 39.5 45.393 39.5 45.2549C39.5 45.1168 39.3881 45.0049 39.25 45.0049C39.1119 45.0049 39 45.1168 39 45.2549C39 45.393 39.1119 45.5049 39.25 45.5049Z" fill="black"/>
<path d="M43.3115 45.7549C43.5877 45.7549 43.8115 45.531 43.8115 45.2549C43.8115 44.9787 43.5877 44.7549 43.3115 44.7549C43.0354 44.7549 42.8115 44.9787 42.8115 45.2549C42.8115 45.531 43.0354 45.7549 43.3115 45.7549Z" fill="#636566"/>
<path d="M43.3115 45.5049C43.4496 45.5049 43.5615 45.393 43.5615 45.2549C43.5615 45.1168 43.4496 45.0049 43.3115 45.0049C43.1735 45.0049 43.0615 45.1168 43.0615 45.2549C43.0615 45.393 43.1735 45.5049 43.3115 45.5049Z" fill="black"/>
<path d="M47.375 45.7549C47.6511 45.7549 47.875 45.531 47.875 45.2549C47.875 44.9787 47.6511 44.7549 47.375 44.7549C47.0989 44.7549 46.875 44.9787 46.875 45.2549C46.875 45.531 47.0989 45.7549 47.375 45.7549Z" fill="#636566"/>
<path d="M47.375 45.5049C47.5131 45.5049 47.625 45.393 47.625 45.2549C47.625 45.1168 47.5131 45.0049 47.375 45.0049C47.2369 45.0049 47.125 45.1168 47.125 45.2549C47.125 45.393 47.2369 45.5049 47.375 45.5049Z" fill="black"/>
<path d="M51.4365 45.7549C51.7127 45.7549 51.9365 45.531 51.9365 45.2549C51.9365 44.9787 51.7127 44.7549 51.4365 44.7549C51.1604 44.7549 50.9365 44.9787 50.9365 45.2549C50.9365 45.531 51.1604 45.7549 51.4365 45.7549Z" fill="#636566"/>
<path d="M51.4365 45.5049C51.5746 45.5049 51.6865 45.393 51.6865 45.2549C51.6865 45.1168 51.5746 45.0049 51.4365 45.0049C51.2985 45.0049 51.1865 45.1168 51.1865 45.2549C51.1865 45.393 51.2985 45.5049 51.4365 45.5049Z" fill="black"/>
<path d="M55.5 45.7549C55.7761 45.7549 56 45.531 56 45.2549C56 44.9787 55.7761 44.7549 55.5 44.7549C55.2239 44.7549 55 44.9787 55 45.2549C55 45.531 55.2239 45.7549 55.5 45.7549Z" fill="#636566"/>
<path d="M55.5 45.5049C55.6381 45.5049 55.75 45.393 55.75 45.2549C55.75 45.1168 55.6381 45.0049 55.5 45.0049C55.3619 45.0049 55.25 45.1168 55.25 45.2549C55.25 45.393 55.3619 45.5049 55.5 45.5049Z" fill="black"/>
<path d="M59.5615 45.7549C59.8377 45.7549 60.0615 45.531 60.0615 45.2549C60.0615 44.9787 59.8377 44.7549 59.5615 44.7549C59.2854 44.7549 59.0615 44.9787 59.0615 45.2549C59.0615 45.531 59.2854 45.7549 59.5615 45.7549Z" fill="#636566"/>
<path d="M59.5615 45.5049C59.6996 45.5049 59.8115 45.393 59.8115 45.2549C59.8115 45.1168 59.6996 45.0049 59.5615 45.0049C59.4235 45.0049 59.3115 45.1168 59.3115 45.2549C59.3115 45.393 59.4235 45.5049 59.5615 45.5049Z" fill="black"/>
<path d="M63.625 45.7549C63.9011 45.7549 64.125 45.531 64.125 45.2549C64.125 44.9787 63.9011 44.7549 63.625 44.7549C63.3489 44.7549 63.125 44.9787 63.125 45.2549C63.125 45.531 63.3489 45.7549 63.625 45.7549Z" fill="#636566"/>
<path d="M63.625 45.5049C63.7631 45.5049 63.875 45.393 63.875 45.2549C63.875 45.1168 63.7631 45.0049 63.625 45.0049C63.4869 45.0049 63.375 45.1168 63.375 45.2549C63.375 45.393 63.4869 45.5049 63.625 45.5049Z" fill="black"/>
<path d="M67.6865 45.7549C67.9627 45.7549 68.1865 45.531 68.1865 45.2549C68.1865 44.9787 67.9627 44.7549 67.6865 44.7549C67.4104 44.7549 67.1865 44.9787 67.1865 45.2549C67.1865 45.531 67.4104 45.7549 67.6865 45.7549Z" fill="#636566"/>
<path d="M67.6865 45.5049C67.8246 45.5049 67.9365 45.393 67.9365 45.2549C67.9365 45.1168 67.8246 45.0049 67.6865 45.0049C67.5485 45.0049 67.4365 45.1168 67.4365 45.2549C67.4365 45.393 67.5485 45.5049 67.6865 45.5049Z" fill="black"/>
<path d="M71.75 45.7549C72.0261 45.7549 72.25 45.531 72.25 45.2549C72.25 44.9787 72.0261 44.7549 71.75 44.7549C71.4739 44.7549 71.25 44.9787 71.25 45.2549C71.25 45.531 71.4739 45.7549 71.75 45.7549Z" fill="#636566"/>
<path d="M71.75 45.5049C71.8881 45.5049 72 45.393 72 45.2549C72 45.1168 71.8881 45.0049 71.75 45.0049C71.6119 45.0049 71.5 45.1168 71.5 45.2549C71.5 45.393 71.6119 45.5049 71.75 45.5049Z" fill="black"/>
<path d="M75.8115 45.7549C76.0877 45.7549 76.3115 45.531 76.3115 45.2549C76.3115 44.9787 76.0877 44.7549 75.8115 44.7549C75.5354 44.7549 75.3115 44.9787 75.3115 45.2549C75.3115 45.531 75.5354 45.7549 75.8115 45.7549Z" fill="#636566"/>
<path d="M75.8115 45.5049C75.9496 45.5049 76.0615 45.393 76.0615 45.2549C76.0615 45.1168 75.9496 45.0049 75.8115 45.0049C75.6735 45.0049 75.5615 45.1168 75.5615 45.2549C75.5615 45.393 75.6735 45.5049 75.8115 45.5049Z" fill="black"/>
<path d="M79.875 45.7549C80.1511 45.7549 80.375 45.531 80.375 45.2549C80.375 44.9787 80.1511 44.7549 79.875 44.7549C79.5989 44.7549 79.375 44.9787 79.375 45.2549C79.375 45.531 79.5989 45.7549 79.875 45.7549Z" fill="#636566"/>
<path d="M79.875 45.5049C80.0131 45.5049 80.125 45.393 80.125 45.2549C80.125 45.1168 80.0131 45.0049 79.875 45.0049C79.7369 45.0049 79.625 45.1168 79.625 45.2549C79.625 45.393 79.7369 45.5049 79.875 45.5049Z" fill="black"/>
<path d="M83.9365 45.7549C84.2127 45.7549 84.4365 45.531 84.4365 45.2549C84.4365 44.9787 84.2127 44.7549 83.9365 44.7549C83.6604 44.7549 83.4365 44.9787 83.4365 45.2549C83.4365 45.531 83.6604 45.7549 83.9365 45.7549Z" fill="#636566"/>
<path d="M83.9365 45.5049C84.0746 45.5049 84.1865 45.393 84.1865 45.2549C84.1865 45.1168 84.0746 45.0049 83.9365 45.0049C83.7985 45.0049 83.6865 45.1168 83.6865 45.2549C83.6865 45.393 83.7985 45.5049 83.9365 45.5049Z" fill="black"/>
<path d="M88 45.7549C88.2761 45.7549 88.5 45.531 88.5 45.2549C88.5 44.9787 88.2761 44.7549 88 44.7549C87.7239 44.7549 87.5 44.9787 87.5 45.2549C87.5 45.531 87.7239 45.7549 88 45.7549Z" fill="#636566"/>
<path d="M88 45.5049C88.1381 45.5049 88.25 45.393 88.25 45.2549C88.25 45.1168 88.1381 45.0049 88 45.0049C87.8619 45.0049 87.75 45.1168 87.75 45.2549C87.75 45.393 87.8619 45.5049 88 45.5049Z" fill="black"/>
<path d="M92.0615 45.7549C92.3377 45.7549 92.5615 45.531 92.5615 45.2549C92.5615 44.9787 92.3377 44.7549 92.0615 44.7549C91.7854 44.7549 91.5615 44.9787 91.5615 45.2549C91.5615 45.531 91.7854 45.7549 92.0615 45.7549Z" fill="#636566"/>
<path d="M92.0615 45.5049C92.1996 45.5049 92.3115 45.393 92.3115 45.2549C92.3115 45.1168 92.1996 45.0049 92.0615 45.0049C91.9235 45.0049 91.8115 45.1168 91.8115 45.2549C91.8115 45.393 91.9235 45.5049 92.0615 45.5049Z" fill="black"/>
<path d="M96.125 45.7549C96.4011 45.7549 96.625 45.531 96.625 45.2549C96.625 44.9787 96.4011 44.7549 96.125 44.7549C95.8489 44.7549 95.625 44.9787 95.625 45.2549C95.625 45.531 95.8489 45.7549 96.125 45.7549Z" fill="#636566"/>
<path d="M96.125 45.5049C96.2631 45.5049 96.375 45.393 96.375 45.2549C96.375 45.1168 96.2631 45.0049 96.125 45.0049C95.9869 45.0049 95.875 45.1168 95.875 45.2549C95.875 45.393 95.9869 45.5049 96.125 45.5049Z" fill="black"/>
<path d="M100.187 45.7549C100.463 45.7549 100.687 45.531 100.687 45.2549C100.687 44.9787 100.463 44.7549 100.187 44.7549C99.9104 44.7549 99.6865 44.9787 99.6865 45.2549C99.6865 45.531 99.9104 45.7549 100.187 45.7549Z" fill="#636566"/>
<path d="M100.187 45.5049C100.325 45.5049 100.437 45.393 100.437 45.2549C100.437 45.1168 100.325 45.0049 100.187 45.0049C100.048 45.0049 99.9365 45.1168 99.9365 45.2549C99.9365 45.393 100.048 45.5049 100.187 45.5049Z" fill="black"/>
<path d="M104.25 45.7549C104.526 45.7549 104.75 45.531 104.75 45.2549C104.75 44.9787 104.526 44.7549 104.25 44.7549C103.974 44.7549 103.75 44.9787 103.75 45.2549C103.75 45.531 103.974 45.7549 104.25 45.7549Z" fill="#636566"/>
<path d="M104.25 45.5049C104.388 45.5049 104.5 45.393 104.5 45.2549C104.5 45.1168 104.388 45.0049 104.25 45.0049C104.112 45.0049 104 45.1168 104 45.2549C104 45.393 104.112 45.5049 104.25 45.5049Z" fill="black"/>
<path d="M108.312 45.7549C108.588 45.7549 108.812 45.531 108.812 45.2549C108.812 44.9787 108.588 44.7549 108.312 44.7549C108.035 44.7549 107.812 44.9787 107.812 45.2549C107.812 45.531 108.035 45.7549 108.312 45.7549Z" fill="#636566"/>
<path d="M108.312 45.5049C108.45 45.5049 108.562 45.393 108.562 45.2549C108.562 45.1168 108.45 45.0049 108.312 45.0049C108.173 45.0049 108.062 45.1168 108.062 45.2549C108.062 45.393 108.173 45.5049 108.312 45.5049Z" fill="black"/>
<path d="M112.375 45.7549C112.651 45.7549 112.875 45.531 112.875 45.2549C112.875 44.9787 112.651 44.7549 112.375 44.7549C112.099 44.7549 111.875 44.9787 111.875 45.2549C111.875 45.531 112.099 45.7549 112.375 45.7549Z" fill="#636566"/>
<path d="M112.375 45.5049C112.513 45.5049 112.625 45.393 112.625 45.2549C112.625 45.1168 112.513 45.0049 112.375 45.0049C112.237 45.0049 112.125 45.1168 112.125 45.2549C112.125 45.393 112.237 45.5049 112.375 45.5049Z" fill="black"/>
<path d="M116.437 45.7549C116.713 45.7549 116.937 45.531 116.937 45.2549C116.937 44.9787 116.713 44.7549 116.437 44.7549C116.16 44.7549 115.937 44.9787 115.937 45.2549C115.937 45.531 116.16 45.7549 116.437 45.7549Z" fill="#636566"/>
<path d="M116.437 45.5049C116.575 45.5049 116.687 45.393 116.687 45.2549C116.687 45.1168 116.575 45.0049 116.437 45.0049C116.298 45.0049 116.187 45.1168 116.187 45.2549C116.187 45.393 116.298 45.5049 116.437 45.5049Z" fill="black"/>
<path d="M120.5 45.7549C120.776 45.7549 121 45.531 121 45.2549C121 44.9787 120.776 44.7549 120.5 44.7549C120.224 44.7549 120 44.9787 120 45.2549C120 45.531 120.224 45.7549 120.5 45.7549Z" fill="#636566"/>
<path d="M120.5 45.5049C120.638 45.5049 120.75 45.393 120.75 45.2549C120.75 45.1168 120.638 45.0049 120.5 45.0049C120.362 45.0049 120.25 45.1168 120.25 45.2549C120.25 45.393 120.362 45.5049 120.5 45.5049Z" fill="black"/>
<path d="M121.57 47.125H0.977539V50.054H121.57V47.125Z" fill="#636566"/>
<path d="M121.522 0H0.977539V1.45001H121.522V0Z" fill="white"/>
<path opacity="0.64" d="M128.615 33.7336L128.432 19.2196C128.432 19.2196 128.432 17.9946 129.851 17.9946C131.271 17.9946 135.521 18.0036 138.468 17.9946C139.056 17.9926 141.048 17.5876 141.9 19.3206C142.752 21.0546 143.375 22.1076 143.375 22.1076C143.375 22.1076 147.291 29.4406 148.964 32.3796C149.246 32.8736 149.721 33.2976 149.721 34.5216C149.721 35.7466 149.721 36.4596 149.721 36.4596H141.679L138.462 33.9086L128.615 33.7336Z" fill="url(#paint10_linear_151_4931)"/>
<path d="M143 22.8586C143 22.8586 142.377 21.8056 141.525 20.0716C140.673 18.3386 138.681 18.7436 138.093 18.7456C135.146 18.7546 130.896 18.7456 129.476 18.7456C128.975 18.7456 128.653 18.8996 128.444 19.0976C128.433 19.1726 128.432 19.2206 128.432 19.2206L128.615 33.7346L138.462 33.9106L141.679 36.4616H149.346C149.346 36.1506 149.346 35.7526 149.346 35.2736C149.346 34.0496 148.871 33.6256 148.589 33.1316C146.916 30.1926 143 22.8586 143 22.8586Z" fill="url(#paint11_linear_151_4931)"/>
<path d="M149.721 36.4612C149.721 36.4612 149.721 36.1892 149.721 35.6952L142.006 35.8172L138.332 33.1292L128.621 32.9102L128.615 33.7332L138.462 33.9091L141.679 36.4601H149.721V36.4612Z" fill="#76548F"/>
<path d="M145.33 27.5138C145.639 28.0518 145.534 28.6908 145.098 28.9408L144.238 29.4318C143.802 29.6818 143.198 29.4488 142.89 28.9118L139.459 22.9188C139.151 22.3818 139.256 21.7428 139.692 21.4928L140.551 21.0008C140.989 20.7508 141.592 20.9838 141.9 21.5218L145.33 27.5138Z" fill="black"/>
<path d="M142.875 24.88C142.875 24.88 144.563 24.192 146.813 25.193L142.875 24.88Z" fill="black"/>
<path d="M146.812 26.0049C147.295 26.0049 147.687 25.6131 147.687 25.1299C147.687 24.6466 147.295 24.2549 146.812 24.2549C146.328 24.2549 145.937 24.6466 145.937 25.1299C145.937 25.6131 146.328 26.0049 146.812 26.0049Z" fill="black"/>
<path d="M149.187 43.3179C149.187 43.6979 148.879 44.0059 148.499 44.0059H146.999C146.619 44.0059 146.311 43.6979 146.311 43.3179C146.311 42.9379 146.619 42.6299 146.999 42.6299H148.499C148.88 42.6299 149.187 42.9379 149.187 43.3179Z" fill="#FFB000"/>
<path d="M148.665 43.3179C148.665 43.5599 148.469 43.7559 148.227 43.7559H147.272C147.031 43.7559 146.834 43.5609 146.834 43.3179C146.834 43.0769 147.03 42.8799 147.272 42.8799H148.227C148.469 42.8799 148.665 43.0759 148.665 43.3179Z" fill="#660DFF"/>
<path d="M150.125 26.3184L153.038 31.2314C153.038 31.2314 152.209 28.1524 150.125 26.3184Z" fill="black"/>
<path d="M138.094 18.7459C135.147 18.7549 130.897 18.7459 129.477 18.7459C128.976 18.7459 128.654 18.8998 128.445 19.0978C128.434 19.1728 128.433 19.2209 128.433 19.2209L128.597 32.2708L139.346 18.7169C138.81 18.6789 138.334 18.7449 138.094 18.7459Z" fill="url(#paint12_linear_151_4931)"/>
<path d="M96.25 58.6764C96.25 59.3074 95.476 59.8184 94.521 59.8184H59.229C58.274 59.8184 57.5 59.3074 57.5 58.6764V53.7094C57.5 53.0794 58.274 52.5674 59.229 52.5674H94.52C95.475 52.5674 96.249 53.0794 96.249 53.7094L96.25 58.6764Z" fill="#221E20"/>
<path d="M92.5 60.1514C92.5 60.9334 91.865 61.5684 91.083 61.5684H62.167C61.385 61.5684 60.75 60.9334 60.75 60.1514V53.9864C60.75 53.2034 61.385 52.5684 62.167 52.5684H91.083C91.865 52.5684 92.5 53.2034 92.5 53.9864V60.1514Z" fill="#636566"/>
<path d="M41.5543 12.2383H29.38C26.6768 12.2383 24.4854 14.4297 24.4854 17.133V28.1055C24.4854 30.8088 26.6768 33.0002 29.38 33.0002H41.5543C44.2575 33.0002 46.4489 30.8088 46.4489 28.1055V17.133C46.4489 14.4297 44.2575 12.2383 41.5543 12.2383Z" fill="#660DFF"/>
<path d="M24.3924 13.5878C24.2809 12.9802 24.6622 12.3194 25.2439 12.1118L39.327 7.08635C40.1274 6.80073 40.9006 7.24683 41.054 8.08275C41.2246 9.01244 40.5598 10.0061 39.6539 10.1755L27.9273 12.3678C27.5171 12.4445 27.1296 12.6939 26.8516 13.06L26.235 13.8723C25.6384 14.658 24.5582 14.4913 24.3924 13.5878Z" fill="#660DFF"/>
<path d="M23.0859 28.1692C23.0859 26.9771 24.0523 26.0107 25.2443 26.0107H36.9949C38.1869 26.0107 39.1533 26.9771 39.1533 28.1692C39.1533 29.3613 38.1869 30.3276 36.9949 30.3276H25.2443C24.0523 30.3276 23.0859 29.3613 23.0859 28.1692Z" fill="#CCE3C2"/>
<path d="M40.1113 21.7985C40.1113 19.8118 41.7219 18.2012 43.7086 18.2012H52.5814C54.5681 18.2012 56.1786 19.8118 56.1786 21.7985C56.1786 23.7853 54.5681 25.3959 52.5814 25.3959H43.7086C41.7219 25.3959 40.1113 23.7853 40.1113 21.7985Z" fill="#CCE3C2"/>
<path d="M28.9608 20.4619H20.1584C18.9663 20.4619 18 21.4283 18 22.6203C18 23.8124 18.9663 24.7787 20.1584 24.7787H28.9608C30.1528 24.7787 31.1192 23.8124 31.1192 22.6203C31.1192 21.4283 30.1528 20.4619 28.9608 20.4619Z" fill="#CCE3C2"/>
<path d="M30.7294 14.9121H21.9269C20.7349 14.9121 19.7686 15.8785 19.7686 17.0705C19.7686 18.2626 20.7349 19.2289 21.9269 19.2289H30.7294C31.9214 19.2289 32.8877 18.2626 32.8877 17.0705C32.8877 15.8785 31.9214 14.9121 30.7294 14.9121Z" fill="#CCE3C2"/>
<path d="M43.2801 23.9565C44.2977 23.9565 45.1227 22.8981 45.1227 21.5925C45.1227 20.2869 44.2977 19.2285 43.2801 19.2285C42.2625 19.2285 41.4375 20.2869 41.4375 21.5925C41.4375 22.8981 42.2625 23.9565 43.2801 23.9565Z" fill="#660DFF"/>
<path d="M56.1384 28.3409C55.0812 28.3409 54.1284 28.0994 53.28 27.6164C52.4446 27.1204 51.7855 26.4548 51.3025 25.6194C50.8196 24.771 50.5781 23.8181 50.5781 22.7608C50.5781 21.7036 50.8196 20.7573 51.3025 19.9219C51.7855 19.0865 52.4446 18.4274 53.28 17.9444C54.1284 17.4614 55.0812 17.22 56.1384 17.22C56.8955 17.22 57.6003 17.357 58.2529 17.6311C58.9055 17.8922 59.4668 18.2577 59.9367 18.7276C60.4197 19.1844 60.7655 19.7326 60.9744 20.3722L58.7228 21.3511C58.527 20.816 58.1942 20.3853 57.7243 20.0589C57.2675 19.7326 56.7389 19.5695 56.1384 19.5695C55.5772 19.5695 55.0747 19.7065 54.6309 19.9806C54.2002 20.2547 53.8608 20.6332 53.6128 21.1162C53.3648 21.5992 53.2408 22.1539 53.2408 22.7804C53.2408 23.4069 53.3648 23.9617 53.6128 24.4446C53.8608 24.9276 54.2002 25.3061 54.6309 25.5802C55.0747 25.8543 55.5772 25.9914 56.1384 25.9914C56.7519 25.9914 57.2871 25.8282 57.7439 25.5019C58.2007 25.1756 58.527 24.7383 58.7228 24.1901L60.9744 25.2082C60.7655 25.8087 60.4262 26.3503 59.9563 26.8333C59.4864 27.3032 58.9251 27.6752 58.2725 27.9493C57.6199 28.2103 56.9085 28.3409 56.1384 28.3409ZM68.1284 28.3409C67.0844 28.3409 66.1313 28.0994 65.2699 27.6164C64.4215 27.1335 63.7427 26.4743 63.2337 25.6389C62.7377 24.8036 62.4897 23.8507 62.4897 22.7804C62.4897 21.7101 62.7377 20.7573 63.2337 19.9219C63.7427 19.0865 64.4215 18.4274 65.2699 17.9444C66.1183 17.4614 67.0711 17.22 68.1284 17.22C69.1724 17.22 70.119 17.4614 70.9673 17.9444C71.8155 18.4274 72.488 19.0865 72.9839 19.9219C73.4929 20.7442 73.7474 21.6971 73.7474 22.7804C73.7474 23.8507 73.4929 24.8036 72.9839 25.6389C72.4748 26.4743 71.7959 27.1335 70.9477 27.6164C70.0995 28.0994 69.1597 28.3409 68.1284 28.3409ZM68.1284 25.9914C68.7025 25.9914 69.2052 25.8543 69.6359 25.5802C70.0799 25.3061 70.4254 24.9276 70.6736 24.4446C70.9345 23.9486 71.0652 23.3939 71.0652 22.7804C71.0652 22.1539 70.9345 21.6057 70.6736 21.1358C70.4254 20.6528 70.0799 20.2743 69.6359 20.0002C69.2052 19.713 68.7025 19.5695 68.1284 19.5695C67.541 19.5695 67.0256 19.713 66.5816 20.0002C66.1379 20.2743 65.7855 20.6528 65.5244 21.1358C65.2764 21.6057 65.1524 22.1539 65.1524 22.7804C65.1524 23.3939 65.2764 23.9486 65.5244 24.4446C65.7855 24.9276 66.1379 25.3061 66.5816 25.5802C67.0256 25.8543 67.541 25.9914 68.1284 25.9914ZM75.6926 28.1059V17.4549H78.1007V19.5499L77.905 19.1779C78.1526 18.5383 78.5574 18.0554 79.1188 17.729C79.693 17.3897 80.3586 17.22 81.1158 17.22C81.899 17.22 82.5906 17.3897 83.1912 17.729C83.8045 18.0684 84.2807 18.5448 84.6204 19.1583C84.9596 19.7587 85.1295 20.457 85.1295 21.2532V28.1059H82.5647V21.8602C82.5647 21.3903 82.4731 20.9857 82.2906 20.6463C82.1075 20.3069 81.853 20.0459 81.527 19.8631C81.2137 19.6673 80.8417 19.5695 80.411 19.5695C79.993 19.5695 79.621 19.6673 79.295 19.8631C78.9686 20.0459 78.714 20.3069 78.5315 20.6463C78.3484 20.9857 78.2574 21.3903 78.2574 21.8602V28.1059H75.6926ZM87.2983 28.1059V17.4549H89.8631V28.1059H87.2983ZM87.2983 16.2606V13.5195H89.8631V16.2606H87.2983ZM100.435 32.0217V26.0501L100.846 26.5592C100.48 27.1335 99.971 27.5773 99.3186 27.8905C98.6656 28.1907 97.9544 28.3409 97.1845 28.3409C96.1532 28.3409 95.233 28.0994 94.4239 27.6164C93.6143 27.1204 92.9751 26.4482 92.5052 25.5998C92.0353 24.7514 91.8004 23.8116 91.8004 22.7804C91.8004 21.7362 92.0353 20.7964 92.5052 19.961C92.9751 19.1256 93.6143 18.46 94.4239 17.964C95.2462 17.468 96.1595 17.22 97.1649 17.22C97.974 17.22 98.692 17.3831 99.3186 17.7094C99.9578 18.0227 100.46 18.4665 100.826 19.0408L100.572 19.5695V17.4549H102.999V32.0217H100.435ZM97.4586 25.9914C98.0459 25.9914 98.5613 25.8543 99.0053 25.5802C99.4487 25.3061 99.7948 24.9276 100.043 24.4446C100.304 23.9617 100.435 23.4069 100.435 22.7804C100.435 22.167 100.304 21.6187 100.043 21.1358C99.7948 20.6398 99.4487 20.2547 99.0053 19.9806C98.5613 19.7065 98.0459 19.5695 97.4586 19.5695C96.884 19.5695 96.3685 19.713 95.9119 20.0002C95.4547 20.2743 95.0959 20.6528 94.8351 21.1358C94.5869 21.6057 94.4631 22.1539 94.4631 22.7804C94.4631 23.4069 94.5869 23.9617 94.8351 24.4446C95.0959 24.9276 95.4547 25.3061 95.9119 25.5802C96.3685 25.8543 96.884 25.9914 97.4586 25.9914Z" fill="#660DFF"/>
<defs>
<linearGradient id="paint0_linear_151_4931" x1="152.604" y1="47.8492" x2="155.854" y2="47.8492" gradientUnits="userSpaceOnUse">
<stop offset="0.0061" stop-color="#C4D4E0"/>
<stop offset="0.0383" stop-color="#C7D5E0"/>
<stop offset="0.4108" stop-color="#E1E4DF"/>
<stop offset="0.7431" stop-color="#F1EDDE"/>
<stop offset="1" stop-color="#F7F0DE"/>
</linearGradient>
<linearGradient id="paint1_linear_151_4931" x1="151.542" y1="40.0054" x2="154.979" y2="40.0054" gradientUnits="userSpaceOnUse">
<stop offset="0.0061" stop-color="#C4D4E0"/>
<stop offset="0.0383" stop-color="#C7D5E0"/>
<stop offset="0.4108" stop-color="#E1E4DF"/>
<stop offset="0.7431" stop-color="#F1EDDE"/>
<stop offset="1" stop-color="#F7F0DE"/>
</linearGradient>
<linearGradient id="paint2_linear_151_4931" x1="151.542" y1="40.8804" x2="154.979" y2="40.8804" gradientUnits="userSpaceOnUse">
<stop offset="0.0061" stop-color="#C4D4E0"/>
<stop offset="0.0383" stop-color="#C7D5E0"/>
<stop offset="0.4108" stop-color="#E1E4DF"/>
<stop offset="0.7431" stop-color="#F1EDDE"/>
<stop offset="1" stop-color="#F7F0DE"/>
</linearGradient>
<linearGradient id="paint3_linear_151_4931" x1="151.542" y1="41.7554" x2="154.979" y2="41.7554" gradientUnits="userSpaceOnUse">
<stop offset="0.0061" stop-color="#C4D4E0"/>
<stop offset="0.0383" stop-color="#C7D5E0"/>
<stop offset="0.4108" stop-color="#E1E4DF"/>
<stop offset="0.7431" stop-color="#F1EDDE"/>
<stop offset="1" stop-color="#F7F0DE"/>
</linearGradient>
<linearGradient id="paint4_linear_151_4931" x1="151.542" y1="42.6304" x2="154.979" y2="42.6304" gradientUnits="userSpaceOnUse">
<stop offset="0.0061" stop-color="#C4D4E0"/>
<stop offset="0.0383" stop-color="#C7D5E0"/>
<stop offset="0.4108" stop-color="#E1E4DF"/>
<stop offset="0.7431" stop-color="#F1EDDE"/>
<stop offset="1" stop-color="#F7F0DE"/>
</linearGradient>
<linearGradient id="paint5_linear_151_4931" x1="151.542" y1="43.5054" x2="154.979" y2="43.5054" gradientUnits="userSpaceOnUse">
<stop offset="0.0061" stop-color="#C4D4E0"/>
<stop offset="0.0383" stop-color="#C7D5E0"/>
<stop offset="0.4108" stop-color="#E1E4DF"/>
<stop offset="0.7431" stop-color="#F1EDDE"/>
<stop offset="1" stop-color="#F7F0DE"/>
</linearGradient>
<linearGradient id="paint6_linear_151_4931" x1="152.141" y1="22.1763" x2="123.891" y2="51.676" gradientUnits="userSpaceOnUse">
<stop offset="0.0061" stop-color="#B095DF"/>
<stop offset="0.9939" stop-color="#660DFF"/>
</linearGradient>
<linearGradient id="paint7_linear_151_4931" x1="152.468" y1="28.9771" x2="107.718" y2="44.9772" gradientUnits="userSpaceOnUse">
<stop stop-color="#B095DF"/>
<stop offset="0.9939" stop-color="#660DFF"/>
</linearGradient>
<linearGradient id="paint8_linear_151_4931" x1="131.5" y1="37.0354" x2="136.285" y2="37.0354" gradientUnits="userSpaceOnUse">
<stop offset="0.0061" stop-color="#005CFF"/>
<stop offset="0.9939" stop-color="#005473"/>
</linearGradient>
<linearGradient id="paint9_linear_151_4931" x1="43.3019" y1="41.8988" x2="97.0441" y2="-9.30139" gradientUnits="userSpaceOnUse">
<stop offset="0.0061" stop-color="#CCE3C2"/>
<stop offset="0.9758" stop-color="#FFE3EB"/>
</linearGradient>
<linearGradient id="paint10_linear_151_4931" x1="137.72" y1="36.8665" x2="140.22" y2="20.1787" gradientUnits="userSpaceOnUse">
<stop offset="0.0061" stop-color="#C4D4E0"/>
<stop offset="0.0813" stop-color="#B8CBE0"/>
<stop offset="0.3516" stop-color="#93ACE1"/>
<stop offset="0.6033" stop-color="#7997E2"/>
<stop offset="0.8271" stop-color="#698AE3"/>
<stop offset="1" stop-color="#6385E3"/>
</linearGradient>
<linearGradient id="paint11_linear_151_4931" x1="137.544" y1="36.7959" x2="139.933" y2="20.8467" gradientUnits="userSpaceOnUse">
<stop offset="0.0061" stop-color="#C4D4E0"/>
<stop offset="0.0813" stop-color="#B8CBE0"/>
<stop offset="0.3516" stop-color="#93ACE1"/>
<stop offset="0.6033" stop-color="#7997E2"/>
<stop offset="0.8271" stop-color="#698AE3"/>
<stop offset="1" stop-color="#6385E3"/>
</linearGradient>
<linearGradient id="paint12_linear_151_4931" x1="132.239" y1="30.1033" x2="134.438" y2="15.2299" gradientUnits="userSpaceOnUse">
<stop offset="0.0061" stop-color="#C4D4E0"/>
<stop offset="0.0813" stop-color="#B8CBE0"/>
<stop offset="0.3516" stop-color="#93ACE1"/>
<stop offset="0.6033" stop-color="#7997E2"/>
<stop offset="0.8271" stop-color="#698AE3"/>
<stop offset="1" stop-color="#6385E3"/>
</linearGradient>
</defs>
</svg>
