<svg width="619" height="177" viewBox="0 0 619 177" fill="none" xmlns="http://www.w3.org/2000/svg">
<path d="M52.6657 75.4837H0V2.28882e-05H52.6657V75.4837Z" fill="#A34ADF"/>
<path d="M619 75.4837H566.334V2.28882e-05H619V75.4837Z" fill="#A34ADF"/>
<path d="M99.9855 75.4837H52.666V2.28882e-05H99.9855V75.4837Z" fill="#A34ADF"/>
<path d="M566.336 75.4837H519.017V2.28882e-05H566.336V75.4837Z" fill="#A34ADF"/>
<path d="M146.151 75.4837H99.9851V2.28882e-05H146.151V75.4837Z" fill="#A34ADF"/>
<path d="M519.018 75.4837H472.854V2.28882e-05H519.018V75.4837Z" fill="#A34ADF"/>
<path d="M472.854 75.4837H422.071V2.28882e-05H472.854V75.4837Z" fill="#A34ADF"/>
<path d="M196.931 75.4837H146.151V2.28882e-05H196.931V75.4837Z" fill="#A34ADF"/>
<path d="M246.558 75.4837H196.932V2.28882e-05H246.558V75.4837Z" fill="#A34ADF"/>
<path d="M422.071 75.4837H372.445V2.28882e-05H422.071V75.4837Z" fill="#A34ADF"/>
<path d="M288.106 75.4837H246.557V2.28882e-05H288.106V75.4837Z" fill="#A34ADF"/>
<path d="M372.445 75.4837H330.897V2.28882e-05H372.445V75.4837Z" fill="#A34ADF"/>
<path d="M330.898 0.00170135V75.4853H309.502H288.107V0.00170135H330.898Z" fill="#A34ADF"/>
<rect x="227.251" y="19.5833" width="44.8726" height="42.4167" rx="10" fill="#F4F4F4"/>
<path d="M227.061 22.339C226.833 21.0978 227.612 19.7477 228.801 19.3236L257.573 9.05657C259.208 8.47303 260.788 9.38442 261.102 11.0922C261.45 12.9916 260.092 15.0216 258.241 15.3676L234.283 19.8466C233.445 20.0033 232.653 20.5127 232.085 21.2607L230.825 22.9202C229.607 24.5256 227.4 24.1849 227.061 22.339Z" fill="#F4F4F4"/>
<path d="M224.39 52.1308C224.39 49.6954 226.364 47.7212 228.8 47.7212H252.807C255.242 47.7212 257.216 49.6954 257.216 52.1308C257.216 54.5662 255.242 56.5405 252.807 56.5405H228.8C226.364 56.5405 224.39 54.5662 224.39 52.1308Z" fill="#A34ADF"/>
<path d="M259.174 39.1118C259.174 35.0528 262.464 31.7624 266.523 31.7624H284.651C288.71 31.7624 292 35.0528 292 39.1118C292 43.1708 288.71 46.4612 284.651 46.4612H266.523C262.464 46.4612 259.174 43.1708 259.174 39.1118Z" fill="#A34ADF"/>
<rect x="214" y="36.382" width="26.8031" height="8.8193" rx="4.40965" fill="#A34ADF"/>
<rect x="217.614" y="25.0429" width="26.8031" height="8.8193" rx="4.40965" fill="#A34ADF"/>
<ellipse cx="265.649" cy="38.6918" rx="3.76448" ry="4.82962" fill="#F4F4F4"/>
<path d="M291.92 52.48C289.76 52.48 287.813 51.9867 286.08 51C284.373 49.9867 283.027 48.6267 282.04 46.92C281.053 45.1867 280.56 43.24 280.56 41.08C280.56 38.92 281.053 36.9867 282.04 35.28C283.027 33.5733 284.373 32.2267 286.08 31.24C287.813 30.2533 289.76 29.76 291.92 29.76C293.467 29.76 294.907 30.04 296.24 30.6C297.573 31.1333 298.72 31.88 299.68 32.84C300.667 33.7733 301.373 34.8933 301.8 36.2L297.2 38.2C296.8 37.1067 296.12 36.2267 295.16 35.56C294.227 34.8933 293.147 34.56 291.92 34.56C290.773 34.56 289.747 34.84 288.84 35.4C287.96 35.96 287.267 36.7333 286.76 37.72C286.253 38.7067 286 39.84 286 41.12C286 42.4 286.253 43.5333 286.76 44.52C287.267 45.5067 287.96 46.28 288.84 46.84C289.747 47.4 290.773 47.68 291.92 47.68C293.173 47.68 294.267 47.3467 295.2 46.68C296.133 46.0133 296.8 45.12 297.2 44L301.8 46.08C301.373 47.3067 300.68 48.4133 299.72 49.4C298.76 50.36 297.613 51.12 296.28 51.68C294.947 52.2133 293.493 52.48 291.92 52.48ZM316.416 52.48C314.283 52.48 312.336 51.9867 310.576 51C308.843 50.0133 307.456 48.6667 306.416 46.96C305.403 45.2533 304.896 43.3067 304.896 41.12C304.896 38.9333 305.403 36.9867 306.416 35.28C307.456 33.5733 308.843 32.2267 310.576 31.24C312.309 30.2533 314.256 29.76 316.416 29.76C318.549 29.76 320.483 30.2533 322.216 31.24C323.949 32.2267 325.323 33.5733 326.336 35.28C327.376 36.96 327.896 38.9067 327.896 41.12C327.896 43.3067 327.376 45.2533 326.336 46.96C325.296 48.6667 323.909 50.0133 322.176 51C320.443 51.9867 318.523 52.48 316.416 52.48ZM316.416 47.68C317.589 47.68 318.616 47.4 319.496 46.84C320.403 46.28 321.109 45.5067 321.616 44.52C322.149 43.5067 322.416 42.3733 322.416 41.12C322.416 39.84 322.149 38.72 321.616 37.76C321.109 36.7733 320.403 36 319.496 35.44C318.616 34.8533 317.589 34.56 316.416 34.56C315.216 34.56 314.163 34.8533 313.256 35.44C312.349 36 311.629 36.7733 311.096 37.76C310.589 38.72 310.336 39.84 310.336 41.12C310.336 42.3733 310.589 43.5067 311.096 44.52C311.629 45.5067 312.349 46.28 313.256 46.84C314.163 47.4 315.216 47.68 316.416 47.68ZM331.87 52V30.24H336.79V34.52L336.39 33.76C336.896 32.4533 337.723 31.4667 338.87 30.8C340.043 30.1067 341.403 29.76 342.95 29.76C344.55 29.76 345.963 30.1067 347.19 30.8C348.443 31.4933 349.416 32.4667 350.11 33.72C350.803 34.9467 351.15 36.3733 351.15 38V52H345.91V39.24C345.91 38.28 345.723 37.4533 345.35 36.76C344.976 36.0667 344.456 35.5333 343.79 35.16C343.15 34.76 342.39 34.56 341.51 34.56C340.656 34.56 339.896 34.76 339.23 35.16C338.563 35.5333 338.043 36.0667 337.67 36.76C337.296 37.4533 337.11 38.28 337.11 39.24V52H331.87ZM355.581 52V30.24H360.821V52H355.581ZM355.581 27.8V22.2H360.821V27.8H355.581ZM382.419 60V47.8L383.259 48.84C382.512 50.0133 381.472 50.92 380.139 51.56C378.805 52.1733 377.352 52.48 375.779 52.48C373.672 52.48 371.792 51.9867 370.139 51C368.485 49.9867 367.179 48.6133 366.219 46.88C365.259 45.1467 364.779 43.2267 364.779 41.12C364.779 38.9867 365.259 37.0667 366.219 35.36C367.179 33.6533 368.485 32.2933 370.139 31.28C371.819 30.2667 373.685 29.76 375.739 29.76C377.392 29.76 378.859 30.0933 380.139 30.76C381.445 31.4 382.472 32.3067 383.219 33.48L382.699 34.56V30.24H387.659V60H382.419ZM376.339 47.68C377.539 47.68 378.592 47.4 379.499 46.84C380.405 46.28 381.112 45.5067 381.619 44.52C382.152 43.5333 382.419 42.4 382.419 41.12C382.419 39.8667 382.152 38.7467 381.619 37.76C381.112 36.7467 380.405 35.96 379.499 35.4C378.592 34.84 377.539 34.56 376.339 34.56C375.165 34.56 374.112 34.8533 373.179 35.44C372.245 36 371.512 36.7733 370.979 37.76C370.472 38.72 370.219 39.84 370.219 41.12C370.219 42.4 370.472 43.5333 370.979 44.52C371.512 45.5067 372.245 46.28 373.179 46.84C374.112 47.4 375.165 47.68 376.339 47.68Z" fill="#F4F4F4"/>
</svg>
