<svg width="607" height="76" viewBox="0 0 607 76" fill="none" xmlns="http://www.w3.org/2000/svg">
<mask id="path-1-inside-1_1_539" fill="white">
<path d="M52.6657 75.4836H0V-4.66465e-06H52.6657V75.4836Z"/>
</mask>
<path d="M52.6657 75.4836H0V-4.66465e-06H52.6657V75.4836Z" fill="#A34ADF"/>
<path d="M52.6657 75.4836H143.666V166.484H52.6657V75.4836ZM0 75.4836V166.484H-91V75.4836H0ZM0 -7.62939e-06H-91V-91H0V-7.62939e-06ZM52.6657 -7.62939e-06V-91H143.666V-7.62939e-06H52.6657ZM52.6657 75.4836V166.484H0V75.4836V-15.5164H52.6657V75.4836ZM0 75.4836H-91V-7.62939e-06H0H91V75.4836H0ZM0 -7.62939e-06V-91H52.6657V-7.62939e-06V91H0V-7.62939e-06ZM52.6657 -7.62939e-06H143.666V75.4836H52.6657H-38.3343V-7.62939e-06H52.6657Z" fill="#A34ADF" mask="url(#path-1-inside-1_1_539)"/>
<mask id="path-3-inside-2_1_539" fill="white">
<path d="M607.003 75.4836H554.337V-4.66465e-06H607.003V75.4836Z"/>
</mask>
<path d="M607.003 75.4836H554.337V-4.66465e-06H607.003V75.4836Z" fill="#A34ADF"/>
<path d="M607.003 75.4836H698.003V166.484H607.003V75.4836ZM554.337 75.4836V166.484H463.337V75.4836H554.337ZM554.337 -7.62939e-06H463.337V-91H554.337V-7.62939e-06ZM607.003 -7.62939e-06V-91H698.003V-7.62939e-06H607.003ZM607.003 75.4836V166.484H554.337V75.4836V-15.5164H607.003V75.4836ZM554.337 75.4836H463.337V-7.62939e-06H554.337H645.337V75.4836H554.337ZM554.337 -7.62939e-06V-91H607.003V-7.62939e-06V91H554.337V-7.62939e-06ZM607.003 -7.62939e-06H698.003V75.4836H607.003H516.003V-7.62939e-06H607.003Z" fill="#A34ADF" mask="url(#path-3-inside-2_1_539)"/>
<mask id="path-5-inside-3_1_539" fill="white">
<path d="M98.9853 75.4836H51.6658V-4.66465e-06H98.9853V75.4836Z"/>
</mask>
<path d="M98.9853 75.4836H51.6658V-4.66465e-06H98.9853V75.4836Z" fill="#A34ADF"/>
<path d="M98.9853 75.4836H189.985V166.484H98.9853V75.4836ZM51.6658 75.4836V166.484H-39.3342V75.4836H51.6658ZM51.6658 -7.62939e-06H-39.3342V-91H51.6658V-7.62939e-06ZM98.9853 -7.62939e-06V-91H189.985V-7.62939e-06H98.9853ZM98.9853 75.4836V166.484H51.6658V75.4836V-15.5164H98.9853V75.4836ZM51.6658 75.4836H-39.3342V-7.62939e-06H51.6658H142.666V75.4836H51.6658ZM51.6658 -7.62939e-06V-91H98.9853V-7.62939e-06V91H51.6658V-7.62939e-06ZM98.9853 -7.62939e-06H189.985V75.4836H98.9853H7.98526V-7.62939e-06H98.9853Z" fill="#A34ADF" mask="url(#path-5-inside-3_1_539)"/>
<mask id="path-7-inside-4_1_539" fill="white">
<path d="M555.337 75.4836H508.017V-4.66465e-06H555.337V75.4836Z"/>
</mask>
<path d="M555.337 75.4836H508.017V-4.66465e-06H555.337V75.4836Z" fill="#A34ADF"/>
<path d="M555.337 75.4836H646.337V166.484H555.337V75.4836ZM508.017 75.4836V166.484H417.017V75.4836H508.017ZM508.017 -7.62939e-06H417.017V-91H508.017V-7.62939e-06ZM555.337 -7.62939e-06V-91H646.337V-7.62939e-06H555.337ZM555.337 75.4836V166.484H508.017V75.4836V-15.5164H555.337V75.4836ZM508.017 75.4836H417.017V-7.62939e-06H508.017H599.017V75.4836H508.017ZM508.017 -7.62939e-06V-91H555.337V-7.62939e-06V91H508.017V-7.62939e-06ZM555.337 -7.62939e-06H646.337V75.4836H555.337H464.337V-7.62939e-06H555.337Z" fill="#A34ADF" mask="url(#path-7-inside-4_1_539)"/>
<mask id="path-9-inside-5_1_539" fill="white">
<path d="M144.151 75.4836H97.9852V-4.66465e-06H144.151V75.4836Z"/>
</mask>
<path d="M144.151 75.4836H97.9852V-4.66465e-06H144.151V75.4836Z" fill="#A34ADF"/>
<path d="M144.151 75.4836H235.151V166.484H144.151V75.4836ZM97.9852 75.4836V166.484H6.98523V75.4836H97.9852ZM97.9852 -7.62939e-06H6.98523V-91H97.9852V-7.62939e-06ZM144.151 -7.62939e-06V-91H235.151V-7.62939e-06H144.151ZM144.151 75.4836V166.484H97.9852V75.4836V-15.5164H144.151V75.4836ZM97.9852 75.4836H6.98523V-7.62939e-06H97.9852H188.985V75.4836H97.9852ZM97.9852 -7.62939e-06V-91H144.151V-7.62939e-06V91H97.9852V-7.62939e-06ZM144.151 -7.62939e-06H235.151V75.4836H144.151H53.1513V-7.62939e-06H144.151Z" fill="#A34ADF" mask="url(#path-9-inside-5_1_539)"/>
<mask id="path-11-inside-6_1_539" fill="white">
<path d="M509.017 75.4836H462.854V-4.66465e-06H509.017V75.4836Z"/>
</mask>
<path d="M509.017 75.4836H462.854V-4.66465e-06H509.017V75.4836Z" fill="#A34ADF"/>
<path d="M509.017 75.4836H600.017V166.484H509.017V75.4836ZM462.854 75.4836V166.484H371.854V75.4836H462.854ZM462.854 -7.62939e-06H371.854V-91H462.854V-7.62939e-06ZM509.017 -7.62939e-06V-91H600.017V-7.62939e-06H509.017ZM509.017 75.4836V166.484H462.854V75.4836V-15.5164H509.017V75.4836ZM462.854 75.4836H371.854V-7.62939e-06H462.854H553.854V75.4836H462.854ZM462.854 -7.62939e-06V-91H509.017V-7.62939e-06V91H462.854V-7.62939e-06ZM509.017 -7.62939e-06H600.017V75.4836H509.017H418.017V-7.62939e-06H509.017Z" fill="#A34ADF" mask="url(#path-11-inside-6_1_539)"/>
<mask id="path-13-inside-7_1_539" fill="white">
<path d="M463.854 75.4836H413.072V-4.66465e-06H463.854V75.4836Z"/>
</mask>
<path d="M463.854 75.4836H413.072V-4.66465e-06H463.854V75.4836Z" fill="#A34ADF"/>
<path d="M463.854 75.4836H554.854V166.484H463.854V75.4836ZM413.072 75.4836V166.484H322.072V75.4836H413.072ZM413.072 -7.62939e-06H322.072V-91H413.072V-7.62939e-06ZM463.854 -7.62939e-06V-91H554.854V-7.62939e-06H463.854ZM463.854 75.4836V166.484H413.072V75.4836V-15.5164H463.854V75.4836ZM413.072 75.4836H322.072V-7.62939e-06H413.072H504.072V75.4836H413.072ZM413.072 -7.62939e-06V-91H463.854V-7.62939e-06V91H413.072V-7.62939e-06ZM463.854 -7.62939e-06H554.854V75.4836H463.854H372.854V-7.62939e-06H463.854Z" fill="#A34ADF" mask="url(#path-13-inside-7_1_539)"/>
<mask id="path-15-inside-8_1_539" fill="white">
<path d="M193.931 75.4836H143.151V-4.66465e-06H193.931V75.4836Z"/>
</mask>
<path d="M193.931 75.4836H143.151V-4.66465e-06H193.931V75.4836Z" fill="#A34ADF"/>
<path d="M193.931 75.4836H284.931V166.484H193.931V75.4836ZM143.151 75.4836V166.484H52.1512V75.4836H143.151ZM143.151 -7.62939e-06H52.1512V-91H143.151V-7.62939e-06ZM193.931 -7.62939e-06V-91H284.931V-7.62939e-06H193.931ZM193.931 75.4836V166.484H143.151V75.4836V-15.5164H193.931V75.4836ZM143.151 75.4836H52.1512V-7.62939e-06H143.151H234.151V75.4836H143.151ZM143.151 -7.62939e-06V-91H193.931V-7.62939e-06V91H143.151V-7.62939e-06ZM193.931 -7.62939e-06H284.931V75.4836H193.931H102.931V-7.62939e-06H193.931Z" fill="#A34ADF" mask="url(#path-15-inside-8_1_539)"/>
<mask id="path-17-inside-9_1_539" fill="white">
<path d="M242.557 75.4836H192.931V-4.66465e-06H242.557V75.4836Z"/>
</mask>
<path d="M242.557 75.4836H192.931V-4.66465e-06H242.557V75.4836Z" fill="#A34ADF"/>
<path d="M242.557 75.4836H333.557V166.484H242.557V75.4836ZM192.931 75.4836V166.484H101.931V75.4836H192.931ZM192.931 -7.62939e-06H101.931V-91H192.931V-7.62939e-06ZM242.557 -7.62939e-06V-91H333.557V-7.62939e-06H242.557ZM242.557 75.4836V166.484H192.931V75.4836V-15.5164H242.557V75.4836ZM192.931 75.4836H101.931V-7.62939e-06H192.931H283.931V75.4836H192.931ZM192.931 -7.62939e-06V-91H242.557V-7.62939e-06V91H192.931V-7.62939e-06ZM242.557 -7.62939e-06H333.557V75.4836H242.557H151.557V-7.62939e-06H242.557Z" fill="#A34ADF" mask="url(#path-17-inside-9_1_539)"/>
<mask id="path-19-inside-10_1_539" fill="white">
<path d="M414.072 75.4836H364.445V-4.66465e-06H414.072V75.4836Z"/>
</mask>
<path d="M414.072 75.4836H364.445V-4.66465e-06H414.072V75.4836Z" fill="#A34ADF"/>
<path d="M414.072 75.4836H505.072V166.484H414.072V75.4836ZM364.445 75.4836V166.484H273.445V75.4836H364.445ZM364.445 -7.62939e-06H273.445V-91H364.445V-7.62939e-06ZM414.072 -7.62939e-06V-91H505.072V-7.62939e-06H414.072ZM414.072 75.4836V166.484H364.445V75.4836V-15.5164H414.072V75.4836ZM364.445 75.4836H273.445V-7.62939e-06H364.445H455.445V75.4836H364.445ZM364.445 -7.62939e-06V-91H414.072V-7.62939e-06V91H364.445V-7.62939e-06ZM414.072 -7.62939e-06H505.072V75.4836H414.072H323.072V-7.62939e-06H414.072Z" fill="#A34ADF" mask="url(#path-19-inside-10_1_539)"/>
<mask id="path-21-inside-11_1_539" fill="white">
<path d="M283.107 75.4836H241.557V-4.66465e-06H283.107V75.4836Z"/>
</mask>
<path d="M283.107 75.4836H241.557V-4.66465e-06H283.107V75.4836Z" fill="#A34ADF"/>
<path d="M283.107 75.4836H374.107V166.484H283.107V75.4836ZM241.557 75.4836V166.484H150.557V75.4836H241.557ZM241.557 -7.62939e-06H150.557V-91H241.557V-7.62939e-06ZM283.107 -7.62939e-06V-91H374.107V-7.62939e-06H283.107ZM283.107 75.4836V166.484H241.557V75.4836V-15.5164H283.107V75.4836ZM241.557 75.4836H150.557V-7.62939e-06H241.557H332.557V75.4836H241.557ZM241.557 -7.62939e-06V-91H283.107V-7.62939e-06V91H241.557V-7.62939e-06ZM283.107 -7.62939e-06H374.107V75.4836H283.107H192.107V-7.62939e-06H283.107Z" fill="#A34ADF" mask="url(#path-21-inside-11_1_539)"/>
<mask id="path-23-inside-12_1_539" fill="white">
<path d="M365.445 75.4836H323.898V-4.66465e-06H365.445V75.4836Z"/>
</mask>
<path d="M365.445 75.4836H323.898V-4.66465e-06H365.445V75.4836Z" fill="#A34ADF"/>
<path d="M365.445 75.4836H456.445V166.484H365.445V75.4836ZM323.898 75.4836V166.484H232.898V75.4836H323.898ZM323.898 -7.62939e-06H232.898V-91H323.898V-7.62939e-06ZM365.445 -7.62939e-06V-91H456.445V-7.62939e-06H365.445ZM365.445 75.4836V166.484H323.898V75.4836V-15.5164H365.445V75.4836ZM323.898 75.4836H232.898V-7.62939e-06H323.898H414.898V75.4836H323.898ZM323.898 -7.62939e-06V-91H365.445V-7.62939e-06V91H323.898V-7.62939e-06ZM365.445 -7.62939e-06H456.445V75.4836H365.445H274.445V-7.62939e-06H365.445Z" fill="#A34ADF" mask="url(#path-23-inside-12_1_539)"/>
<mask id="path-25-inside-13_1_539" fill="white">
<path d="M324.898 0.00166778V75.4853H303.503H282.107V0.00166778H324.898Z"/>
</mask>
<path d="M324.898 0.00166778V75.4853H303.503H282.107V0.00166778H324.898Z" fill="#A34ADF"/>
<path d="M324.898 0.00167084V-90.9983H415.898V0.00167084H324.898ZM324.898 75.4853H415.898V166.485H324.898V75.4853ZM282.107 75.4853V166.485H191.107V75.4853H282.107ZM282.107 0.00167084H191.107V-90.9983H282.107V0.00167084ZM324.898 0.00167084H415.898V75.4853H324.898H233.898V0.00167084H324.898ZM324.898 75.4853V166.485H303.503V75.4853V-15.5147H324.898V75.4853ZM303.503 75.4853V166.485H282.107V75.4853V-15.5147H303.503V75.4853ZM282.107 75.4853H191.107V0.00167084H282.107H373.107V75.4853H282.107ZM282.107 0.00167084V-90.9983H324.898V0.00167084V91.0017H282.107V0.00167084Z" fill="#A34ADF" mask="url(#path-25-inside-13_1_539)"/>
<rect x="222.751" y="20.0833" width="43.8726" height="41.4167" rx="9.5" fill="#F4F4F4" stroke="#A34ADF"/>
<path d="M223.891 19.8153L252.663 9.54845C254.038 9.05775 255.367 9.82383 255.631 11.2598C255.924 12.857 254.782 14.5647 253.225 14.8558L229.267 19.3348C228.301 19.5154 227.388 20.1033 226.733 20.9659L225.473 22.6251C224.521 23.8791 222.797 23.6129 222.532 22.1711C222.354 21.2014 222.963 20.1466 223.891 19.8153Z" fill="#F4F4F4" stroke="#A34ADF"/>
<path d="M223.799 48.2211H247.807C249.966 48.2213 251.716 49.9714 251.716 52.1303C251.716 54.2894 249.966 56.0403 247.807 56.0405H223.799C221.64 56.0402 219.89 54.2894 219.89 52.1303C219.89 50.0389 221.533 48.3309 223.598 48.226L223.799 48.2211Z" fill="#A34ADF" stroke="#A34ADF"/>
<path d="M261.523 32.2623H279.65C283.433 32.2623 286.5 35.3291 286.5 39.1119C286.5 42.8947 283.433 45.9615 279.65 45.9615H261.523C257.741 45.9615 254.674 42.8947 254.674 39.1119C254.674 35.3291 257.74 32.2623 261.523 32.2623Z" fill="#A34ADF" stroke="#A34ADF"/>
<rect x="209.5" y="36.882" width="25.8031" height="7.8193" rx="3.90965" fill="#A34ADF" stroke="#A34ADF"/>
<rect x="213.114" y="25.5429" width="25.8031" height="7.8193" rx="3.90965" fill="#A34ADF" stroke="#A34ADF"/>
<path d="M260.649 34.3622C262.343 34.3623 263.914 36.178 263.914 38.6923C263.913 41.2062 262.343 43.0212 260.649 43.0214C258.955 43.0214 257.384 41.2063 257.384 38.6923C257.384 36.178 258.955 34.3622 260.649 34.3622Z" fill="#F4F4F4" stroke="#A34ADF"/>
<mask id="path-34-outside-14_1_539" maskUnits="userSpaceOnUse" x="274" y="21" width="110" height="40" fill="black">
<rect fill="white" x="274" y="21" width="110" height="40"/>
<path d="M286.92 52.48C284.76 52.48 282.813 51.9867 281.08 51C279.373 49.9867 278.027 48.6267 277.04 46.92C276.053 45.1867 275.56 43.24 275.56 41.08C275.56 38.92 276.053 36.9867 277.04 35.28C278.027 33.5733 279.373 32.2267 281.08 31.24C282.813 30.2533 284.76 29.76 286.92 29.76C288.467 29.76 289.907 30.04 291.24 30.6C292.573 31.1333 293.72 31.88 294.68 32.84C295.667 33.7733 296.373 34.8933 296.8 36.2L292.2 38.2C291.8 37.1067 291.12 36.2267 290.16 35.56C289.227 34.8933 288.147 34.56 286.92 34.56C285.773 34.56 284.747 34.84 283.84 35.4C282.96 35.96 282.267 36.7333 281.76 37.72C281.253 38.7067 281 39.84 281 41.12C281 42.4 281.253 43.5333 281.76 44.52C282.267 45.5067 282.96 46.28 283.84 46.84C284.747 47.4 285.773 47.68 286.92 47.68C288.173 47.68 289.267 47.3467 290.2 46.68C291.133 46.0133 291.8 45.12 292.2 44L296.8 46.08C296.373 47.3067 295.68 48.4133 294.72 49.4C293.76 50.36 292.613 51.12 291.28 51.68C289.947 52.2133 288.493 52.48 286.92 52.48ZM311.416 52.48C309.283 52.48 307.336 51.9867 305.576 51C303.843 50.0133 302.456 48.6667 301.416 46.96C300.403 45.2533 299.896 43.3067 299.896 41.12C299.896 38.9333 300.403 36.9867 301.416 35.28C302.456 33.5733 303.843 32.2267 305.576 31.24C307.309 30.2533 309.256 29.76 311.416 29.76C313.549 29.76 315.483 30.2533 317.216 31.24C318.949 32.2267 320.323 33.5733 321.336 35.28C322.376 36.96 322.896 38.9067 322.896 41.12C322.896 43.3067 322.376 45.2533 321.336 46.96C320.296 48.6667 318.909 50.0133 317.176 51C315.443 51.9867 313.523 52.48 311.416 52.48ZM311.416 47.68C312.589 47.68 313.616 47.4 314.496 46.84C315.403 46.28 316.109 45.5067 316.616 44.52C317.149 43.5067 317.416 42.3733 317.416 41.12C317.416 39.84 317.149 38.72 316.616 37.76C316.109 36.7733 315.403 36 314.496 35.44C313.616 34.8533 312.589 34.56 311.416 34.56C310.216 34.56 309.163 34.8533 308.256 35.44C307.349 36 306.629 36.7733 306.096 37.76C305.589 38.72 305.336 39.84 305.336 41.12C305.336 42.3733 305.589 43.5067 306.096 44.52C306.629 45.5067 307.349 46.28 308.256 46.84C309.163 47.4 310.216 47.68 311.416 47.68ZM326.87 52V30.24H331.79V34.52L331.39 33.76C331.896 32.4533 332.723 31.4667 333.87 30.8C335.043 30.1067 336.403 29.76 337.95 29.76C339.55 29.76 340.963 30.1067 342.19 30.8C343.443 31.4933 344.416 32.4667 345.11 33.72C345.803 34.9467 346.15 36.3733 346.15 38V52H340.91V39.24C340.91 38.28 340.723 37.4533 340.35 36.76C339.976 36.0667 339.456 35.5333 338.79 35.16C338.15 34.76 337.39 34.56 336.51 34.56C335.656 34.56 334.896 34.76 334.23 35.16C333.563 35.5333 333.043 36.0667 332.67 36.76C332.296 37.4533 332.11 38.28 332.11 39.24V52H326.87ZM350.581 52V30.24H355.821V52H350.581ZM350.581 27.8V22.2H355.821V27.8H350.581ZM377.419 60V47.8L378.259 48.84C377.512 50.0133 376.472 50.92 375.139 51.56C373.805 52.1733 372.352 52.48 370.779 52.48C368.672 52.48 366.792 51.9867 365.139 51C363.485 49.9867 362.179 48.6133 361.219 46.88C360.259 45.1467 359.779 43.2267 359.779 41.12C359.779 38.9867 360.259 37.0667 361.219 35.36C362.179 33.6533 363.485 32.2933 365.139 31.28C366.819 30.2667 368.685 29.76 370.739 29.76C372.392 29.76 373.859 30.0933 375.139 30.76C376.445 31.4 377.472 32.3067 378.219 33.48L377.699 34.56V30.24H382.659V60H377.419ZM371.339 47.68C372.539 47.68 373.592 47.4 374.499 46.84C375.405 46.28 376.112 45.5067 376.619 44.52C377.152 43.5333 377.419 42.4 377.419 41.12C377.419 39.8667 377.152 38.7467 376.619 37.76C376.112 36.7467 375.405 35.96 374.499 35.4C373.592 34.84 372.539 34.56 371.339 34.56C370.165 34.56 369.112 34.8533 368.179 35.44C367.245 36 366.512 36.7733 365.979 37.76C365.472 38.72 365.219 39.84 365.219 41.12C365.219 42.4 365.472 43.5333 365.979 44.52C366.512 45.5067 367.245 46.28 368.179 46.84C369.112 47.4 370.165 47.68 371.339 47.68Z"/>
</mask>
<path d="M286.92 52.48C284.76 52.48 282.813 51.9867 281.08 51C279.373 49.9867 278.027 48.6267 277.04 46.92C276.053 45.1867 275.56 43.24 275.56 41.08C275.56 38.92 276.053 36.9867 277.04 35.28C278.027 33.5733 279.373 32.2267 281.08 31.24C282.813 30.2533 284.76 29.76 286.92 29.76C288.467 29.76 289.907 30.04 291.24 30.6C292.573 31.1333 293.72 31.88 294.68 32.84C295.667 33.7733 296.373 34.8933 296.8 36.2L292.2 38.2C291.8 37.1067 291.12 36.2267 290.16 35.56C289.227 34.8933 288.147 34.56 286.92 34.56C285.773 34.56 284.747 34.84 283.84 35.4C282.96 35.96 282.267 36.7333 281.76 37.72C281.253 38.7067 281 39.84 281 41.12C281 42.4 281.253 43.5333 281.76 44.52C282.267 45.5067 282.96 46.28 283.84 46.84C284.747 47.4 285.773 47.68 286.92 47.68C288.173 47.68 289.267 47.3467 290.2 46.68C291.133 46.0133 291.8 45.12 292.2 44L296.8 46.08C296.373 47.3067 295.68 48.4133 294.72 49.4C293.76 50.36 292.613 51.12 291.28 51.68C289.947 52.2133 288.493 52.48 286.92 52.48ZM311.416 52.48C309.283 52.48 307.336 51.9867 305.576 51C303.843 50.0133 302.456 48.6667 301.416 46.96C300.403 45.2533 299.896 43.3067 299.896 41.12C299.896 38.9333 300.403 36.9867 301.416 35.28C302.456 33.5733 303.843 32.2267 305.576 31.24C307.309 30.2533 309.256 29.76 311.416 29.76C313.549 29.76 315.483 30.2533 317.216 31.24C318.949 32.2267 320.323 33.5733 321.336 35.28C322.376 36.96 322.896 38.9067 322.896 41.12C322.896 43.3067 322.376 45.2533 321.336 46.96C320.296 48.6667 318.909 50.0133 317.176 51C315.443 51.9867 313.523 52.48 311.416 52.48ZM311.416 47.68C312.589 47.68 313.616 47.4 314.496 46.84C315.403 46.28 316.109 45.5067 316.616 44.52C317.149 43.5067 317.416 42.3733 317.416 41.12C317.416 39.84 317.149 38.72 316.616 37.76C316.109 36.7733 315.403 36 314.496 35.44C313.616 34.8533 312.589 34.56 311.416 34.56C310.216 34.56 309.163 34.8533 308.256 35.44C307.349 36 306.629 36.7733 306.096 37.76C305.589 38.72 305.336 39.84 305.336 41.12C305.336 42.3733 305.589 43.5067 306.096 44.52C306.629 45.5067 307.349 46.28 308.256 46.84C309.163 47.4 310.216 47.68 311.416 47.68ZM326.87 52V30.24H331.79V34.52L331.39 33.76C331.896 32.4533 332.723 31.4667 333.87 30.8C335.043 30.1067 336.403 29.76 337.95 29.76C339.55 29.76 340.963 30.1067 342.19 30.8C343.443 31.4933 344.416 32.4667 345.11 33.72C345.803 34.9467 346.15 36.3733 346.15 38V52H340.91V39.24C340.91 38.28 340.723 37.4533 340.35 36.76C339.976 36.0667 339.456 35.5333 338.79 35.16C338.15 34.76 337.39 34.56 336.51 34.56C335.656 34.56 334.896 34.76 334.23 35.16C333.563 35.5333 333.043 36.0667 332.67 36.76C332.296 37.4533 332.11 38.28 332.11 39.24V52H326.87ZM350.581 52V30.24H355.821V52H350.581ZM350.581 27.8V22.2H355.821V27.8H350.581ZM377.419 60V47.8L378.259 48.84C377.512 50.0133 376.472 50.92 375.139 51.56C373.805 52.1733 372.352 52.48 370.779 52.48C368.672 52.48 366.792 51.9867 365.139 51C363.485 49.9867 362.179 48.6133 361.219 46.88C360.259 45.1467 359.779 43.2267 359.779 41.12C359.779 38.9867 360.259 37.0667 361.219 35.36C362.179 33.6533 363.485 32.2933 365.139 31.28C366.819 30.2667 368.685 29.76 370.739 29.76C372.392 29.76 373.859 30.0933 375.139 30.76C376.445 31.4 377.472 32.3067 378.219 33.48L377.699 34.56V30.24H382.659V60H377.419ZM371.339 47.68C372.539 47.68 373.592 47.4 374.499 46.84C375.405 46.28 376.112 45.5067 376.619 44.52C377.152 43.5333 377.419 42.4 377.419 41.12C377.419 39.8667 377.152 38.7467 376.619 37.76C376.112 36.7467 375.405 35.96 374.499 35.4C373.592 34.84 372.539 34.56 371.339 34.56C370.165 34.56 369.112 34.8533 368.179 35.44C367.245 36 366.512 36.7733 365.979 37.76C365.472 38.72 365.219 39.84 365.219 41.12C365.219 42.4 365.472 43.5333 365.979 44.52C366.512 45.5067 367.245 46.28 368.179 46.84C369.112 47.4 370.165 47.68 371.339 47.68Z" fill="#F4F4F4"/>
<path d="M281.08 51L280.569 51.8599L280.577 51.8645L280.585 51.8691L281.08 51ZM277.04 46.92L276.171 47.4147L276.174 47.4205L277.04 46.92ZM277.04 35.28L277.906 35.7805V35.7805L277.04 35.28ZM281.08 31.24L280.585 30.3709L280.579 30.3743L281.08 31.24ZM291.24 30.6L290.853 31.522L290.861 31.5253L290.869 31.5285L291.24 30.6ZM294.68 32.84L293.973 33.5471L293.983 33.5569L293.993 33.5665L294.68 32.84ZM296.8 36.2L297.199 37.1171L298.033 36.7544L297.751 35.8896L296.8 36.2ZM292.2 38.2L291.261 38.5436L291.625 39.5402L292.599 39.1171L292.2 38.2ZM290.16 35.56L289.579 36.3738L289.59 36.3814L290.16 35.56ZM283.84 35.4L283.314 34.5491L283.303 34.5563L283.84 35.4ZM281.76 37.72L280.87 37.2632V37.2632L281.76 37.72ZM281.76 44.52L280.87 44.9768V44.9768L281.76 44.52ZM283.84 46.84L283.303 47.6837L283.315 47.6908L283.84 46.84ZM290.2 46.68L290.781 47.4937H290.781L290.2 46.68ZM292.2 44L292.612 43.0888L291.623 42.6417L291.258 43.6637L292.2 44ZM296.8 46.08L297.744 46.4085L298.045 45.5454L297.212 45.1688L296.8 46.08ZM294.72 49.4L295.427 50.1072L295.437 50.0974L294.72 49.4ZM291.28 51.68L291.651 52.6085L291.659 52.6053L291.667 52.602L291.28 51.68ZM286.92 52.48V51.48C284.919 51.48 283.145 51.0247 281.575 50.1309L281.08 51L280.585 51.8691C282.482 52.9486 284.601 53.48 286.92 53.48V52.48ZM281.08 51L281.591 50.1401C280.03 49.2136 278.806 47.9769 277.906 46.4195L277.04 46.92L276.174 47.4205C277.247 49.2764 278.717 50.7597 280.569 51.8599L281.08 51ZM277.04 46.92L277.909 46.4253C277.015 44.8551 276.56 43.0814 276.56 41.08H275.56H274.56C274.56 43.3986 275.091 45.5182 276.171 47.4147L277.04 46.92ZM275.56 41.08H276.56C276.56 39.0784 277.015 37.3207 277.906 35.7805L277.04 35.28L276.174 34.7795C275.091 36.6526 274.56 38.7616 274.56 41.08H275.56ZM277.04 35.28L277.906 35.7805C278.805 34.2255 280.025 33.0047 281.581 32.1057L281.08 31.24L280.579 30.3743C278.721 31.4486 277.249 32.9212 276.174 34.7795L277.04 35.28ZM281.08 31.24L281.575 32.1091C283.145 31.2153 284.919 30.76 286.92 30.76V29.76V28.76C284.601 28.76 282.482 29.2914 280.585 30.3709L281.08 31.24ZM286.92 29.76V30.76C288.343 30.76 289.65 31.017 290.853 31.522L291.24 30.6L291.627 29.678C290.163 29.063 288.59 28.76 286.92 28.76V29.76ZM291.24 30.6L290.869 31.5285C292.084 32.0145 293.114 32.6883 293.973 33.5471L294.68 32.84L295.387 32.1329C294.326 31.0717 293.063 30.2522 291.611 29.6715L291.24 30.6ZM294.68 32.84L293.993 33.5665C294.857 34.3838 295.474 35.3602 295.849 36.5104L296.8 36.2L297.751 35.8896C297.273 34.4265 296.476 33.1629 295.367 32.1135L294.68 32.84ZM296.8 36.2L296.401 35.2829L291.801 37.2829L292.2 38.2L292.599 39.1171L297.199 37.1171L296.8 36.2ZM292.2 38.2L293.139 37.8564C292.668 36.5688 291.859 35.5223 290.73 34.7386L290.16 35.56L289.59 36.3814C290.381 36.931 290.932 37.6445 291.261 38.5436L292.2 38.2ZM290.16 35.56L290.741 34.7463C289.626 33.9498 288.34 33.56 286.92 33.56V34.56V35.56C287.954 35.56 288.827 35.8368 289.579 36.3737L290.16 35.56ZM286.92 34.56V33.56C285.602 33.56 284.391 33.8842 283.315 34.5492L283.84 35.4L284.365 36.2508C285.102 35.7958 285.944 35.56 286.92 35.56V34.56ZM283.84 35.4L283.303 34.5563C282.264 35.2178 281.453 36.1289 280.87 37.2632L281.76 37.72L282.65 38.1768C283.08 37.3377 283.656 36.7022 284.377 36.2437L283.84 35.4ZM281.76 37.72L280.87 37.2632C280.281 38.4115 280 39.7057 280 41.12H281H282C282 39.9743 282.226 39.0018 282.65 38.1768L281.76 37.72ZM281 41.12H280C280 42.5343 280.281 43.8285 280.87 44.9768L281.76 44.52L282.65 44.0632C282.226 43.2382 282 42.2657 282 41.12H281ZM281.76 44.52L280.87 44.9768C281.453 46.1111 282.264 47.0222 283.303 47.6837L283.84 46.84L284.377 45.9963C283.656 45.5378 283.08 44.9023 282.65 44.0632L281.76 44.52ZM283.84 46.84L283.315 47.6908C284.391 48.3558 285.602 48.68 286.92 48.68V47.68V46.68C285.944 46.68 285.102 46.4442 284.365 45.9892L283.84 46.84ZM286.92 47.68V48.68C288.361 48.68 289.662 48.2928 290.781 47.4937L290.2 46.68L289.619 45.8663C288.871 46.4005 287.985 46.68 286.92 46.68V47.68ZM290.2 46.68L290.781 47.4937C291.887 46.7039 292.676 45.641 293.142 44.3363L292.2 44L291.258 43.6637C290.924 44.599 290.38 45.3228 289.619 45.8663L290.2 46.68ZM292.2 44L291.788 44.9112L296.388 46.9912L296.8 46.08L297.212 45.1688L292.612 43.0888L292.2 44ZM296.8 46.08L295.856 45.7515C295.48 46.8318 294.868 47.8144 294.003 48.7026L294.72 49.4L295.437 50.0974C296.492 49.0123 297.267 47.7815 297.744 46.4085L296.8 46.08ZM294.72 49.4L294.013 48.6929C293.15 49.5553 292.114 50.2449 290.893 50.758L291.28 51.68L291.667 52.602C293.112 51.9951 294.37 51.1647 295.427 50.1071L294.72 49.4ZM291.28 51.68L290.909 50.7515C289.704 51.2333 288.378 51.48 286.92 51.48V52.48V53.48C288.608 53.48 290.189 53.1934 291.651 52.6085L291.28 51.68ZM305.576 51L305.081 51.8691L305.087 51.8723L305.576 51ZM301.416 46.96L300.556 47.4706L300.562 47.4804L301.416 46.96ZM301.416 35.28L300.562 34.7596L300.556 34.7695L301.416 35.28ZM305.576 31.24L305.081 30.3709V30.3709L305.576 31.24ZM317.216 31.24L317.711 30.3709H317.711L317.216 31.24ZM321.336 35.28L320.476 35.7905L320.481 35.7985L320.486 35.8064L321.336 35.28ZM321.336 46.96L322.19 47.4804V47.4804L321.336 46.96ZM317.176 51L317.671 51.8691L317.176 51ZM314.496 46.84L313.97 45.9891L313.959 45.9963L314.496 46.84ZM316.616 44.52L315.731 44.0542L315.726 44.0632L316.616 44.52ZM316.616 37.76L315.726 38.2168L315.734 38.2313L315.742 38.2456L316.616 37.76ZM314.496 35.44L313.941 36.272L313.956 36.2817L313.97 36.2908L314.496 35.44ZM308.256 35.44L308.781 36.2908L308.79 36.2853L308.799 36.2796L308.256 35.44ZM306.096 37.76L305.216 37.2845L305.212 37.2932L306.096 37.76ZM306.096 44.52L305.202 44.9672L305.209 44.9815L305.216 44.9955L306.096 44.52ZM308.256 46.84L308.781 45.9892V45.9892L308.256 46.84ZM311.416 52.48V51.48C309.444 51.48 307.667 51.0258 306.065 50.1277L305.576 51L305.087 51.8723C307.005 52.9475 309.122 53.48 311.416 53.48V52.48ZM305.576 51L306.071 50.1309C304.485 49.2283 303.222 48.0018 302.27 46.4396L301.416 46.96L300.562 47.4804C301.69 49.3315 303.2 50.7983 305.081 51.8691L305.576 51ZM301.416 46.96L302.276 46.4495C301.363 44.9127 300.896 43.1458 300.896 41.12H299.896H298.896C298.896 43.4675 299.442 45.594 300.556 47.4705L301.416 46.96ZM299.896 41.12H300.896C300.896 39.0942 301.363 37.3273 302.276 35.7905L301.416 35.28L300.556 34.7695C299.442 36.646 298.896 38.7725 298.896 41.12H299.896ZM301.416 35.28L302.27 35.8004C303.222 34.2382 304.485 33.0117 306.071 32.1091L305.576 31.24L305.081 30.3709C303.2 31.4417 301.69 32.9085 300.562 34.7596L301.416 35.28ZM305.576 31.24L306.071 32.1091C307.641 31.2153 309.415 30.76 311.416 30.76V29.76V28.76C309.097 28.76 306.978 29.2914 305.081 30.3709L305.576 31.24ZM311.416 29.76V30.76C313.388 30.76 315.149 31.2142 316.721 32.1091L317.216 31.24L317.711 30.3709C315.816 29.2925 313.71 28.76 311.416 28.76V29.76ZM317.216 31.24L316.721 32.1091C318.305 33.0104 319.552 34.2338 320.476 35.7905L321.336 35.28L322.196 34.7695C321.093 32.9129 319.594 31.443 317.711 30.3709L317.216 31.24ZM321.336 35.28L320.486 35.8064C321.416 37.3098 321.896 39.0696 321.896 41.12H322.896H323.896C323.896 38.7437 323.336 36.6102 322.186 34.7536L321.336 35.28ZM322.896 41.12H321.896C321.896 43.141 321.418 44.9043 320.482 46.4396L321.336 46.96L322.19 47.4804C323.334 45.6024 323.896 43.4724 323.896 41.12H322.896ZM321.336 46.96L320.482 46.4396C319.53 48.0018 318.267 49.2283 316.681 50.1309L317.176 51L317.671 51.8691C319.552 50.7983 321.062 49.3315 322.19 47.4804L321.336 46.96ZM317.176 51L316.681 50.1309C315.107 51.0269 313.359 51.48 311.416 51.48V52.48V53.48C313.686 53.48 315.778 52.9464 317.671 51.8691L317.176 51ZM311.416 47.68V48.68C312.755 48.68 313.973 48.3582 315.033 47.6837L314.496 46.84L313.959 45.9963C313.259 46.4418 312.424 46.68 311.416 46.68V47.68ZM314.496 46.84L315.021 47.6908C316.09 47.0311 316.919 46.1186 317.506 44.9768L316.616 44.52L315.726 44.0632C315.299 44.8947 314.716 45.5289 313.97 45.9892L314.496 46.84ZM316.616 44.52L317.501 44.9857C318.117 43.8156 318.416 42.52 318.416 41.12H317.416H316.416C316.416 42.2267 316.182 43.1978 315.731 44.0543L316.616 44.52ZM317.416 41.12H318.416C318.416 39.6984 318.119 38.4058 317.49 37.2744L316.616 37.76L315.742 38.2456C316.18 39.0341 316.416 39.9816 316.416 41.12H317.416ZM316.616 37.76L317.506 37.3032C316.919 36.1614 316.09 35.2489 315.021 34.5892L314.496 35.44L313.97 36.2908C314.716 36.7511 315.299 37.3853 315.726 38.2168L316.616 37.76ZM314.496 35.44L315.051 34.6079C313.989 33.9 312.764 33.56 311.416 33.56V34.56V35.56C312.414 35.56 313.243 35.8067 313.941 36.272L314.496 35.44ZM311.416 34.56V33.56C310.045 33.56 308.799 33.8976 307.713 34.6004L308.256 35.44L308.799 36.2796C309.526 35.8091 310.387 35.56 311.416 35.56V34.56ZM308.256 35.44L307.73 34.5892C306.667 35.246 305.828 36.1523 305.216 37.2845L306.096 37.76L306.976 38.2355C307.43 37.3944 308.032 36.754 308.781 36.2908L308.256 35.44ZM306.096 37.76L305.212 37.2932C304.616 38.4208 304.336 39.7064 304.336 41.12H305.336H306.336C306.336 39.9736 306.562 39.0192 306.98 38.2268L306.096 37.76ZM305.336 41.12H304.336C304.336 42.5119 304.618 43.8008 305.202 44.9672L306.096 44.52L306.99 44.0728C306.56 43.2125 306.336 42.2348 306.336 41.12H305.336ZM306.096 44.52L305.216 44.9955C305.828 46.1277 306.667 47.034 307.73 47.6908L308.256 46.84L308.781 45.9892C308.032 45.526 307.43 44.8856 306.976 44.0445L306.096 44.52ZM308.256 46.84L307.73 47.6908C308.814 48.3602 310.054 48.68 311.416 48.68V47.68V46.68C310.378 46.68 309.511 46.4398 308.781 45.9892L308.256 46.84ZM326.87 52H325.87V53H326.87V52ZM326.87 30.24V29.24H325.87V30.24H326.87ZM331.79 30.24H332.79V29.24H331.79V30.24ZM331.79 34.52L330.905 34.9857L332.79 34.52H331.79ZM331.39 33.76L330.457 33.3985L330.293 33.8229L330.505 34.2257L331.39 33.76ZM333.87 30.8L334.372 31.6645L334.378 31.6609L333.87 30.8ZM342.19 30.8L341.698 31.6706L341.706 31.675L342.19 30.8ZM345.11 33.72L344.235 34.2041L344.239 34.2121L345.11 33.72ZM346.15 52V53H347.15V52H346.15ZM340.91 52H339.91V53H340.91V52ZM340.35 36.76L341.23 36.2859V36.2859L340.35 36.76ZM338.79 35.16L338.26 36.008L338.28 36.0207L338.301 36.0325L338.79 35.16ZM334.23 35.16L334.718 36.0325L334.731 36.0252L334.744 36.0175L334.23 35.16ZM332.67 36.76L333.55 37.2341V37.2341L332.67 36.76ZM332.11 52V53H333.11V52H332.11ZM326.87 52H327.87V30.24H326.87H325.87V52H326.87ZM326.87 30.24V31.24H331.79V30.24V29.24H326.87V30.24ZM331.79 30.24H330.79V34.52H331.79H332.79V30.24H331.79ZM331.79 34.52L332.675 34.0543L332.275 33.2943L331.39 33.76L330.505 34.2257L330.905 34.9857L331.79 34.52ZM331.39 33.76L332.322 34.1215C332.752 33.0135 333.433 32.2104 334.372 31.6645L333.87 30.8L333.367 29.9355C332.013 30.723 331.041 31.8931 330.457 33.3985L331.39 33.76ZM333.87 30.8L334.378 31.6609C335.378 31.0704 336.557 30.76 337.95 30.76V29.76V28.76C336.249 28.76 334.708 29.1429 333.361 29.9391L333.87 30.8ZM337.95 29.76V30.76C339.401 30.76 340.64 31.073 341.698 31.6706L342.19 30.8L342.682 29.9294C341.286 29.1403 339.698 28.76 337.95 28.76V29.76ZM342.19 30.8L341.706 31.675C342.794 32.2774 343.632 33.1152 344.235 34.2041L345.11 33.72L345.985 33.2359C345.2 31.8181 344.092 30.7093 342.674 29.925L342.19 30.8ZM345.11 33.72L344.239 34.2121C344.835 35.2668 345.15 36.5188 345.15 38H346.15H347.15C347.15 36.2278 346.771 34.6265 345.98 33.2279L345.11 33.72ZM346.15 38H345.15V52H346.15H347.15V38H346.15ZM346.15 52V51H340.91V52V53H346.15V52ZM340.91 52H341.91V39.24H340.91H339.91V52H340.91ZM340.91 39.24H341.91C341.91 38.1504 341.697 37.1536 341.23 36.2859L340.35 36.76L339.469 37.2341C339.749 37.7531 339.91 38.4096 339.91 39.24H340.91ZM340.35 36.76L341.23 36.2859C340.77 35.4306 340.116 34.7566 339.278 34.2875L338.79 35.16L338.301 36.0325C338.797 36.31 339.183 36.7027 339.469 37.2341L340.35 36.76ZM338.79 35.16L339.32 34.312C338.496 33.7971 337.545 33.56 336.51 33.56V34.56V35.56C337.234 35.56 337.803 35.7229 338.26 36.008L338.79 35.16ZM336.51 34.56V33.56C335.493 33.56 334.552 33.8003 333.715 34.3025L334.23 35.16L334.744 36.0175C335.241 35.7197 335.819 35.56 336.51 35.56V34.56ZM334.23 35.16L333.741 34.2875C332.903 34.7566 332.25 35.4306 331.789 36.2859L332.67 36.76L333.55 37.2341C333.836 36.7027 334.223 36.31 334.718 36.0325L334.23 35.16ZM332.67 36.76L331.789 36.2859C331.322 37.1536 331.11 38.1504 331.11 39.24H332.11H333.11C333.11 38.4096 333.271 37.7531 333.55 37.2341L332.67 36.76ZM332.11 39.24H331.11V52H332.11H333.11V39.24H332.11ZM332.11 52V51H326.87V52V53H332.11V52ZM350.581 52H349.581V53H350.581V52ZM350.581 30.24V29.24H349.581V30.24H350.581ZM355.821 30.24H356.821V29.24H355.821V30.24ZM355.821 52V53H356.821V52H355.821ZM350.581 27.8H349.581V28.8H350.581V27.8ZM350.581 22.2V21.2H349.581V22.2H350.581ZM355.821 22.2H356.821V21.2H355.821V22.2ZM355.821 27.8V28.8H356.821V27.8H355.821ZM350.581 52H351.581V30.24H350.581H349.581V52H350.581ZM350.581 30.24V31.24H355.821V30.24V29.24H350.581V30.24ZM355.821 30.24H354.821V52H355.821H356.821V30.24H355.821ZM355.821 52V51H350.581V52V53H355.821V52ZM350.581 27.8H351.581V22.2H350.581H349.581V27.8H350.581ZM350.581 22.2V23.2H355.821V22.2V21.2H350.581V22.2ZM355.821 22.2H354.821V27.8H355.821H356.821V22.2H355.821ZM355.821 27.8V26.8H350.581V27.8V28.8H355.821V27.8ZM377.419 60H376.419V61H377.419V60ZM377.419 47.8L378.197 47.1717L376.419 44.9704V47.8H377.419ZM378.259 48.84L379.102 49.3769L379.488 48.7707L379.037 48.2117L378.259 48.84ZM375.139 51.56L375.557 52.4685L375.564 52.4651L375.571 52.4615L375.139 51.56ZM365.139 51L364.616 51.8527L364.626 51.8587L365.139 51ZM361.219 46.88L362.094 46.3955L361.219 46.88ZM361.219 35.36L362.09 35.8503V35.8503L361.219 35.36ZM365.139 31.28L364.622 30.4237L364.616 30.4274L365.139 31.28ZM375.139 30.76L374.677 31.6469L374.688 31.6526L374.699 31.6581L375.139 30.76ZM378.219 33.48L379.12 33.9138L379.361 33.4125L379.062 32.9431L378.219 33.48ZM377.699 34.56H376.699L378.6 34.9938L377.699 34.56ZM377.699 30.24V29.24H376.699V30.24H377.699ZM382.659 30.24H383.659V29.24H382.659V30.24ZM382.659 60V61H383.659V60H382.659ZM374.499 46.84L373.973 45.9892V45.9892L374.499 46.84ZM376.619 44.52L375.739 44.0445L375.734 44.0538L375.729 44.0632L376.619 44.52ZM376.619 37.76L375.724 38.2072L375.731 38.2215L375.739 38.2355L376.619 37.76ZM374.499 35.4L373.973 36.2508V36.2508L374.499 35.4ZM368.179 35.44L368.693 36.2975L368.702 36.2922L368.711 36.2866L368.179 35.44ZM365.979 37.76L365.099 37.2845L365.094 37.2932L365.979 37.76ZM365.979 44.52L365.089 44.9768L365.094 44.9862L365.099 44.9955L365.979 44.52ZM368.179 46.84L368.693 45.9825V45.9825L368.179 46.84ZM377.419 60H378.419V47.8H377.419H376.419V60H377.419ZM377.419 47.8L376.641 48.4283L377.481 49.4683L378.259 48.84L379.037 48.2117L378.197 47.1717L377.419 47.8ZM378.259 48.84L377.415 48.3031C376.775 49.3088 375.882 50.0939 374.706 50.6585L375.139 51.56L375.571 52.4615C377.062 51.7461 378.249 50.7179 379.102 49.3769L378.259 48.84ZM375.139 51.56L374.721 50.6515C373.528 51.2003 372.218 51.48 370.779 51.48V52.48V53.48C372.486 53.48 374.083 53.1464 375.557 52.4685L375.139 51.56ZM370.779 52.48V51.48C368.835 51.48 367.135 51.0269 365.651 50.1413L365.139 51L364.626 51.8587C366.449 52.9464 368.509 53.48 370.779 53.48V52.48ZM365.139 51L365.661 50.1474C364.159 49.2263 362.972 47.9812 362.094 46.3955L361.219 46.88L360.344 47.3645C361.386 49.2454 362.812 50.747 364.616 51.8526L365.139 51ZM361.219 46.88L362.094 46.3955C361.221 44.8198 360.779 43.0682 360.779 41.12H359.779H358.779C358.779 43.3851 359.297 45.4735 360.344 47.3645L361.219 46.88ZM359.779 41.12H360.779C360.779 39.1426 361.222 37.3941 362.09 35.8503L361.219 35.36L360.347 34.8697C359.296 36.7393 358.779 38.8307 358.779 41.12H359.779ZM361.219 35.36L362.09 35.8503C362.968 34.2906 364.155 33.056 365.661 32.1326L365.139 31.28L364.616 30.4274C362.816 31.5307 361.39 33.016 360.347 34.8697L361.219 35.36ZM365.139 31.28L365.655 32.1363C367.172 31.2215 368.859 30.76 370.739 30.76V29.76V28.76C368.512 28.76 366.466 29.3119 364.622 30.4237L365.139 31.28ZM370.739 29.76V30.76C372.255 30.76 373.559 31.0647 374.677 31.6469L375.139 30.76L375.601 29.8731C374.159 29.1219 372.529 28.76 370.739 28.76V29.76ZM375.139 30.76L374.699 31.6581C375.848 32.221 376.732 33.0061 377.375 34.0169L378.219 33.48L379.062 32.9431C378.212 31.6072 377.043 30.579 375.579 29.8619L375.139 30.76ZM378.219 33.48L377.318 33.0462L376.798 34.1262L377.699 34.56L378.6 34.9938L379.12 33.9138L378.219 33.48ZM377.699 34.56H378.699V30.24H377.699H376.699V34.56H377.699ZM377.699 30.24V31.24H382.659V30.24V29.24H377.699V30.24ZM382.659 30.24H381.659V60H382.659H383.659V30.24H382.659ZM382.659 60V59H377.419V60V61H382.659V60ZM371.339 47.68V48.68C372.7 48.68 373.94 48.3602 375.024 47.6908L374.499 46.84L373.973 45.9892C373.244 46.4398 372.377 46.68 371.339 46.68V47.68ZM374.499 46.84L375.024 47.6908C376.092 47.0311 376.922 46.1186 377.508 44.9768L376.619 44.52L375.729 44.0632C375.302 44.8947 374.718 45.5289 373.973 45.9892L374.499 46.84ZM376.619 44.52L377.498 44.9955C378.121 43.8433 378.419 42.5423 378.419 41.12H377.419H376.419C376.419 42.2577 376.183 43.2234 375.739 44.0445L376.619 44.52ZM377.419 41.12H378.419C378.419 39.7205 378.12 38.4337 377.498 37.2845L376.619 37.76L375.739 38.2355C376.185 39.0596 376.419 40.0129 376.419 41.12H377.419ZM376.619 37.76L377.513 37.3128C376.929 36.1442 376.099 35.2131 375.024 34.5492L374.499 35.4L373.973 36.2508C374.712 36.7069 375.295 37.3491 375.724 38.2072L376.619 37.76ZM374.499 35.4L375.024 34.5492C373.94 33.8798 372.7 33.56 371.339 33.56V34.56V35.56C372.377 35.56 373.244 35.8002 373.973 36.2508L374.499 35.4ZM371.339 34.56V33.56C369.99 33.56 368.75 33.9 367.647 34.5934L368.179 35.44L368.711 36.2866C369.474 35.8067 370.341 35.56 371.339 35.56V34.56ZM368.179 35.44L367.664 34.5825C366.572 35.2377 365.715 36.1451 365.099 37.2845L365.979 37.76L366.858 38.2355C367.309 37.4016 367.919 36.7623 368.693 36.2975L368.179 35.44ZM365.979 37.76L365.094 37.2932C364.499 38.4208 364.219 39.7064 364.219 41.12H365.219H366.219C366.219 39.9736 366.445 39.0192 366.863 38.2268L365.979 37.76ZM365.219 41.12H364.219C364.219 42.5343 364.499 43.8285 365.089 44.9768L365.979 44.52L366.868 44.0632C366.445 43.2382 366.219 42.2657 366.219 41.12H365.219ZM365.979 44.52L365.099 44.9955C365.715 46.1349 366.572 47.0423 367.664 47.6975L368.179 46.84L368.693 45.9825C367.919 45.5177 367.309 44.8784 366.858 44.0445L365.979 44.52ZM368.179 46.84L367.664 47.6975C368.765 48.358 369.999 48.68 371.339 48.68V47.68V46.68C370.332 46.68 369.459 46.442 368.693 45.9825L368.179 46.84Z" fill="#A34ADF" mask="url(#path-34-outside-14_1_539)"/>
</svg>
