<svg width="169" height="204" viewBox="0 0 169 204" fill="none" xmlns="http://www.w3.org/2000/svg">
<path d="M84.3961 61.3398H68.7051V200.704C68.7051 202.188 69.9081 203.391 71.3921 203.391H81.7091C83.1931 203.391 84.3961 202.188 84.3961 200.704V61.3398Z" fill="#878787"/>
<path d="M81.224 61.3398H71.876V203.391H81.224V61.3398Z" fill="#9D9D9C"/>
<path opacity="0.2" d="M84.3961 61.3398H68.7051V66.1288H84.3961V61.3398Z" fill="#878787"/>
<path d="M12.265 61.341C5.502 61.341 0 55.839 0 49.075V12.265C0 5.50201 5.502 0 12.265 0H124.78C126.93 0 129.05 0.568005 130.913 1.64301L162.791 20.048C166.631 22.265 168.924 26.236 168.924 30.67C168.924 35.104 166.631 39.075 162.791 41.292L130.913 59.698C129.051 60.772 126.931 61.341 124.78 61.341H12.265Z" fill="#295173"/>
<path d="M124.78 1.18359H12.2646C6.14461 1.18359 1.18262 6.14559 1.18262 12.2656V49.0756C1.18262 55.1956 6.14361 60.1576 12.2646 60.1576H124.78C126.725 60.1576 128.636 59.6456 130.321 58.6726L162.199 40.2676C169.587 36.0026 169.587 25.3386 162.199 21.0736L130.321 2.66861C128.637 1.69561 126.726 1.18359 124.78 1.18359Z" fill="#0B5FA3"/>
<path opacity="0.4" d="M12.265 55.4229C8.76497 55.4229 5.91797 52.575 5.91797 49.076V12.2659C5.91797 8.76593 8.76497 5.91895 12.265 5.91895H124.78C125.893 5.91895 126.99 6.21295 127.954 6.76895L159.832 25.174C161.82 26.321 163.006 28.3759 163.006 30.6709C163.006 32.9649 161.82 35.0199 159.832 36.1679L127.954 54.5729C126.991 55.1289 125.894 55.4229 124.78 55.4229H12.265Z" fill="#0B5FA3"/>
<path d="M12.265 55.4229C8.76497 55.4229 5.91797 52.575 5.91797 49.076V12.2659C5.91797 8.76593 8.76497 5.91895 12.265 5.91895H124.78C125.893 5.91895 126.99 6.21295 127.954 6.76895L159.832 25.174C161.82 26.321 163.006 28.3759 163.006 30.6709C163.006 32.9649 161.82 35.0199 159.832 36.1679L127.954 54.5729C126.991 55.1289 125.894 55.4229 124.78 55.4229H12.265Z" stroke="#FFF0E5" stroke-width="2" stroke-miterlimit="10"/>
<path opacity="0.4" d="M12.2652 53.0561C10.0712 53.0561 8.28516 51.2711 8.28516 49.0761V12.2661C8.28516 10.0711 10.0702 8.28613 12.2652 8.28613H124.78C125.478 8.28613 126.166 8.47112 126.771 8.81912L158.648 27.2241C159.894 27.9431 160.638 29.2321 160.638 30.6711C160.638 32.1101 159.894 33.3981 158.648 34.1171L126.77 52.5231C126.167 52.8711 125.479 53.0551 124.78 53.0551L12.2652 53.0561Z" fill="#0B5FA3"/>
<path d="M44.4827 17.7793H28.7278C25.2295 17.7793 22.3936 20.6153 22.3936 24.1136V38.313C22.3936 41.8113 25.2295 44.6473 28.7278 44.6473H44.4827C47.9811 44.6473 50.817 41.8113 50.817 38.313V24.1136C50.817 20.6153 47.9811 17.7793 44.4827 17.7793Z" fill="#F4F4F4"/>
<path d="M22.2731 19.5252C22.1288 18.739 22.6222 17.8838 23.3751 17.6151L41.6002 11.1117C42.6361 10.7421 43.6367 11.3194 43.8352 12.4012C44.056 13.6043 43.1957 14.8902 42.0233 15.1094L26.8476 17.9465C26.3168 18.0457 25.8153 18.3684 25.4556 18.8422L24.6576 19.8934C23.8856 20.9102 22.4877 20.6944 22.2731 19.5252Z" fill="#F4F4F4"/>
<path d="M20.5811 38.3958C20.5811 36.8531 21.8316 35.6025 23.3742 35.6025H38.5808C40.1235 35.6025 41.3741 36.8531 41.3741 38.3958C41.3741 39.9384 40.1235 41.1889 38.5808 41.1889H23.3742C21.8316 41.1889 20.5811 39.9384 20.5811 38.3958Z" fill="#0B5FA3"/>
<path d="M42.6143 30.1504C42.6143 27.5794 44.6985 25.4951 47.2696 25.4951H58.752C61.323 25.4951 63.4073 27.5794 63.4073 30.1504C63.4073 32.7215 61.323 34.8058 58.752 34.8058H47.2696C44.6985 34.8058 42.6143 32.7215 42.6143 30.1504Z" fill="#0B5FA3"/>
<path d="M28.1846 28.4209H16.7932C15.2506 28.4209 14 29.6715 14 31.2141C14 32.7567 15.2506 34.0073 16.7932 34.0073H28.1846C29.7272 34.0073 30.9778 32.7567 30.9778 31.2141C30.9778 29.6715 29.7272 28.4209 28.1846 28.4209Z" fill="#0B5FA3"/>
<path d="M30.4736 21.2383H19.0822C17.5396 21.2383 16.2891 22.4888 16.2891 24.0315C16.2891 25.5741 17.5396 26.8247 19.0822 26.8247H30.4736C32.0163 26.8247 33.2668 25.5741 33.2668 24.0315C33.2668 22.4888 32.0163 21.2383 30.4736 21.2383Z" fill="#0B5FA3"/>
<path d="M46.7156 32.9427C48.0325 32.9427 49.1001 31.573 49.1001 29.8834C49.1001 28.1939 48.0325 26.8242 46.7156 26.8242C45.3986 26.8242 44.3311 28.1939 44.3311 29.8834C44.3311 31.573 45.3986 32.9427 46.7156 32.9427Z" fill="#F4F4F4"/>
<path d="M63.3568 38.6177C61.9886 38.6177 60.7556 38.3053 59.6576 37.6803C58.5766 37.0384 57.7236 36.1769 57.0986 35.0959C56.4736 33.9979 56.1611 32.7648 56.1611 31.3966C56.1611 30.0284 56.4736 28.8038 57.0986 27.7227C57.7236 26.6417 58.5766 25.7887 59.6576 25.1637C60.7556 24.5387 61.9886 24.2262 63.3568 24.2262C64.3366 24.2262 65.2487 24.4036 66.0932 24.7583C66.9378 25.0961 67.6641 25.5691 68.2722 26.1772C68.8972 26.7684 69.3448 27.4778 69.6151 28.3055L66.7013 29.5724C66.448 28.8798 66.0172 28.3224 65.4091 27.9001C64.818 27.4778 64.1339 27.2667 63.3568 27.2667C62.6305 27.2667 61.9802 27.444 61.4059 27.7988C60.8485 28.1535 60.4093 28.6433 60.0884 29.2683C59.7674 29.8933 59.607 30.6112 59.607 31.422C59.607 32.2328 59.7674 32.9506 60.0884 33.5756C60.4093 34.2006 60.8485 34.6905 61.4059 35.0452C61.9802 35.3999 62.6305 35.5773 63.3568 35.5773C64.1507 35.5773 64.8433 35.3661 65.4345 34.9438C66.0257 34.5215 66.448 33.9557 66.7013 33.2462L69.6151 34.5638C69.3448 35.3408 68.9057 36.0418 68.2976 36.6668C67.6895 37.2749 66.9631 37.7563 66.1186 38.111C65.274 38.4488 64.3534 38.6177 63.3568 38.6177ZM78.8732 38.6177C77.5221 38.6177 76.2888 38.3053 75.174 37.6803C74.076 37.0552 73.1977 36.2023 72.5389 35.1212C71.8971 34.0401 71.5761 32.8071 71.5761 31.422C71.5761 30.0369 71.8971 28.8038 72.5389 27.7227C73.1977 26.6417 74.076 25.7887 75.174 25.1637C76.2719 24.5387 77.505 24.2262 78.8732 24.2262C80.2243 24.2262 81.4494 24.5387 82.5471 25.1637C83.6448 25.7887 84.5151 26.6417 85.1568 27.7227C85.8156 28.7869 86.145 30.02 86.145 31.422C86.145 32.8071 85.8156 34.0401 85.1568 35.1212C84.498 36.2023 83.6195 37.0552 82.5218 37.6803C81.424 38.3053 80.2079 38.6177 78.8732 38.6177ZM78.8732 35.5773C79.6162 35.5773 80.2668 35.3999 80.8242 35.0452C81.3987 34.6905 81.8459 34.2006 82.167 33.5756C82.5047 32.9338 82.6738 32.2158 82.6738 31.422C82.6738 30.6112 82.5047 29.9017 82.167 29.2937C81.8459 28.6686 81.3987 28.1788 80.8242 27.8241C80.2668 27.4525 79.6162 27.2667 78.8732 27.2667C78.1131 27.2667 77.4461 27.4525 76.8715 27.8241C76.2973 28.1788 75.8412 28.6686 75.5033 29.2937C75.1825 29.9017 75.0219 30.6112 75.0219 31.422C75.0219 32.2158 75.1825 32.9338 75.5033 33.5756C75.8412 34.2006 76.2973 34.6905 76.8715 35.0452C77.4461 35.3999 78.1131 35.5773 78.8732 35.5773ZM88.6622 38.3137V24.5303H91.7786V27.2413L91.5253 26.7599C91.8458 25.9322 92.3696 25.3073 93.0962 24.885C93.8392 24.4458 94.7006 24.2262 95.6805 24.2262C96.694 24.2262 97.589 24.4458 98.3663 24.885C99.1599 25.3241 99.7763 25.9407 100.216 26.7346C100.655 27.5116 100.875 28.4153 100.875 29.4457V38.3137H97.5555V30.2311C97.5555 29.623 97.437 29.0994 97.2008 28.6602C96.9639 28.2211 96.6345 27.8832 96.2126 27.6467C95.8072 27.3934 95.3258 27.2667 94.7684 27.2667C94.2275 27.2667 93.7461 27.3934 93.3242 27.6467C92.9017 27.8832 92.5723 28.2211 92.336 28.6602C92.0991 29.0994 91.9813 29.623 91.9813 30.2311V38.3137H88.6622ZM103.681 38.3137V24.5303H107V38.3137H103.681ZM103.681 22.9847V19.4375H107V22.9847H103.681ZM120.681 43.3811V35.6533L121.213 36.312C120.74 37.0552 120.081 37.6296 119.237 38.035C118.392 38.4235 117.472 38.6177 116.475 38.6177C115.141 38.6177 113.95 38.3053 112.903 37.6803C111.855 37.0384 111.028 36.1684 110.42 35.0705C109.812 33.9726 109.508 32.7564 109.508 31.422C109.508 30.0707 109.812 28.8545 110.42 27.7734C111.028 26.6924 111.855 25.8309 112.903 25.189C113.967 24.5472 115.149 24.2262 116.45 24.2262C117.497 24.2262 118.426 24.4373 119.237 24.8597C120.064 25.265 120.715 25.8394 121.188 26.5826L120.859 27.2667V24.5303H124V43.3811H120.681ZM116.83 35.5773C117.59 35.5773 118.257 35.3999 118.832 35.0452C119.405 34.6905 119.853 34.2006 120.174 33.5756C120.512 32.9506 120.681 32.2328 120.681 31.422C120.681 30.6281 120.512 29.9187 120.174 29.2937C119.853 28.6518 119.405 28.1535 118.832 27.7988C118.257 27.444 117.59 27.2667 116.83 27.2667C116.086 27.2667 115.419 27.4525 114.828 27.8241C114.237 28.1788 113.772 28.6686 113.435 29.2937C113.114 29.9017 112.953 30.6112 112.953 31.422C112.953 32.2328 113.114 32.9506 113.435 33.5756C113.772 34.2006 114.237 34.6905 114.828 35.0452C115.419 35.3999 116.086 35.5773 116.83 35.5773Z" fill="#F4F4F4"/>
</svg>
