<svg width="268" height="241" viewBox="0 0 268 241" fill="none" xmlns="http://www.w3.org/2000/svg">
<path d="M25.7613 88.2606C30.02 97.3112 49.2173 97.9912 60.852 92.5219C53.088 87.3726 40.6413 83.7806 42.6186 79.0339C46.168 80.8086 49.3613 82.5819 52.556 84.3566C55.5013 85.7606 58.456 87.0272 61.4253 88.1899C59.068 84.2632 57.0133 77.9872 56.1053 75.1299C56.4586 74.9526 57.7013 74.4192 57.88 74.4192C60.028 80.5766 63.4493 86.6166 68.512 90.7699C79.04 94.3619 89.776 97.0366 100.821 100.327C107.92 102.811 118.212 111.329 123.18 117.007C126.375 120.911 127.793 125.525 130.632 129.429C133.472 133.689 138.796 133.689 141.636 137.593C141.636 136.882 141.991 135.107 142.345 134.398C144.121 131.559 146.249 127.299 148.024 123.75C150.863 119.491 149.799 117.362 148.024 112.749C146.249 108.845 141.459 99.9726 138.265 97.1326C136.748 95.7686 135.795 94.4299 135.019 92.9646C132.429 92.4459 129.252 90.0339 127.261 89.5032C124.6 88.6152 119.631 87.7286 116.969 88.0832C115.017 88.2606 113.599 89.6806 111.647 89.8579C109.872 90.0352 107.92 89.6806 105.967 89.3246C103.128 88.6152 97.0946 87.3726 95.3213 84.8886C96.74 82.5819 105.789 88.0832 108.984 87.9059C112.533 87.7286 113.42 86.6632 110.049 85.2446C107.565 84.1792 105.257 83.2912 102.775 82.4046C106.145 80.6299 109.34 83.6472 112.533 84.7112C115.551 85.7766 119.099 86.3086 122.292 86.6632C124.037 86.9552 130.292 87.9526 132.019 85.8726C130.507 82.4179 129.576 79.6539 128.995 77.1446C120.521 74.7832 110.684 67.1272 105.257 60.2232C107.741 58.0939 109.163 61.1112 111.115 62.8859C113.599 65.1926 116.081 67.4992 118.921 69.4512C121.66 71.3832 124.839 73.4366 128.321 73.2739C127.577 67.0032 128.396 60.8832 126.375 46.7379C127.084 46.7379 127.793 46.7379 128.504 47.0926C129.3 51.0752 129.884 55.0592 130.511 59.0419C131.501 59.5032 133.641 57.9459 134.064 57.4419C135.448 55.9499 136.407 54.1379 137.58 52.5379C138.539 51.1526 139.391 48.9139 140.671 47.8486C141.949 46.7832 142.268 47.5286 141.736 49.1272C141.096 50.5126 140.137 51.8992 139.285 53.2846C137.793 55.9499 136.193 58.1872 133.743 60.1059C132.987 60.6712 132.083 61.9752 131.096 62.6472C131.72 66.3352 131.376 71.6192 132.407 75.3072C133.117 78.8552 134.892 81.1632 135.956 84.7112C136.424 85.9219 137.013 87.0072 137.675 88.0326C138.381 88.1779 139.14 88.1686 139.604 88.0312C142.695 86.8579 143.013 81.9552 143.973 79.1846C144.957 76.5286 145.679 73.6046 147.123 71.1592C147.725 67.7232 147.963 64.1406 148.452 60.6379C148.771 58.2939 148.452 47.9552 152.075 48.7019C152.18 50.4059 151.435 52.3246 151.221 53.9246C151.009 55.8432 150.795 57.6539 150.581 59.4659C150.32 62.0872 150.004 64.8352 149.951 67.3312C150.905 66.1939 151.881 65.0579 152.715 63.8366C155.591 59.7859 158.255 55.7352 159.003 50.6206C162.201 49.8739 160.175 55.5232 159.641 57.0139C158.681 59.5726 156.764 61.3846 155.485 63.6232C154.845 64.9006 154.419 66.1806 153.567 67.2472C152.715 68.2059 151.541 68.9526 150.901 70.0179C149.837 72.0432 149.411 74.7072 148.665 76.8392C147.279 80.4619 144.4 83.5539 143.761 87.3912C143.349 89.8579 143.128 92.5112 142.903 95.0646C143.2 95.5059 143.491 95.9539 143.765 96.4232C147.315 102.457 155.477 111.683 156.187 118.427C156.897 126.59 144.831 134.043 150.153 141.495C158.316 152.498 163.64 141.141 167.544 134.753C170.105 130.483 173.821 125.741 177.227 121.019C177.335 119.741 177.335 118.429 177.335 117.661C177.443 114.57 176.908 111.479 176.056 108.494C175.203 105.297 173.285 102.419 172.645 99.2219C172.452 98.1166 172.316 97.1286 172.064 96.1392C170.875 95.7766 169.168 94.7899 168.381 94.3179C166.143 92.9339 165.717 90.9086 164.439 88.7766C163.16 86.5379 162.305 84.5126 161.561 82.0632C161.133 80.1446 159.323 76.0939 160.815 74.3872C162.733 75.8806 163.372 81.1032 164.439 83.4472C165.643 86.1352 167.172 88.9819 169.723 90.4499C168.775 87.5312 167.512 84.7686 167.209 81.5286C166.996 78.5446 167.421 75.5606 167.103 72.4686C166.249 65.9672 166.037 59.2539 166.889 52.7513C169.768 52.6446 168.808 55.3099 168.703 57.5486C168.595 59.9992 168.595 62.5579 168.808 65.0099C169.449 70.8713 169.341 77.0526 170.512 82.9152C171.792 90.0566 175.843 95.8112 178.933 102.205C180.209 104.757 181.9 110.282 181.692 114.381C182.22 113.511 182.715 112.649 183.159 111.801C185.999 106.831 189.192 71.9352 200.549 74.0646C198.556 74.1592 194.449 82.5112 192.116 89.3992C192.287 89.4566 192.477 89.4966 192.681 89.5219C195.239 89.8432 197.904 86.9646 199.504 85.5792C201.845 83.5539 203.66 82.1672 206.429 80.7832C208.776 79.6099 211.121 78.4379 213.465 77.1592C213.787 77.2659 214.317 77.7979 214.424 78.0112C212.719 79.6099 210.053 80.4619 208.029 81.7419C205.579 83.4472 203.447 84.8326 201.421 87.0712C199.396 89.2032 197.052 89.7352 194.493 90.9086C193.025 91.6419 191.933 92.5859 190.877 93.6326C189.2 100.61 189.137 107.907 186.352 114.523C184.399 118.726 181.723 122.725 178.975 126.71C180.787 125.949 182.608 125.274 184.581 124.909C188.845 124.269 192.683 124.909 196.84 125.229C197.267 127.254 196.945 127.574 195.133 127.574C193.748 127.574 192.469 127.361 191.083 127.361C188.739 127.254 186.607 127.467 184.368 128.106C181.599 128.958 178.933 130.239 176.483 131.731C175.945 131.997 175.448 132.305 174.947 132.607C169.251 141.205 164.677 150.177 167.541 161.409C171.584 177.261 182.804 190.233 177.836 202.894C175.209 209.582 170.028 215.67 171.803 223.123C173.223 228.447 176.416 231.995 175.707 238.026L174.997 238.381C167.188 242.286 152.284 241.221 142.701 238.735C137.733 237.671 138.087 237.671 138.443 233.061C138.443 229.866 139.507 226.673 140.217 223.833C142.56 217.473 145.552 213.617 149.752 208.138C149.848 204.203 148.768 200.563 147.809 196.639C147.064 193.761 144.292 193.442 143.013 190.777C142.16 188.858 140.883 185.981 140.989 183.847C143.973 183.742 143.973 187.899 145.571 189.817C147.277 191.95 149.728 192.055 150.58 194.721C151.42 197.013 152.379 201.206 154.54 202.11C157.732 198.111 159.701 194.754 158.672 187.278C157.961 182.309 155.477 181.599 152.993 177.341C151.219 174.501 151.573 170.242 150.863 166.694C149.089 156.757 145.896 153.562 137.733 148.239C131.344 144.335 125.665 134.398 122.116 127.654C119.076 122.129 114.413 117.095 108.943 112.767C108.652 112.758 108.363 112.749 108.097 112.749C105.789 112.749 104.548 112.571 102.596 113.458C100.644 114.345 99.5786 115.233 97.2733 115.41C93.0133 115.765 89.82 115.41 85.7386 116.83C79.8826 119.137 68.704 117.539 63.38 113.99C64.268 110.619 71.188 114.523 73.8493 115.055C76.688 115.587 82.3666 116.799 85.156 115.037C80.3653 114.858 76.8666 113.281 72.4306 110.974C73.3173 110.087 73.8493 109.199 74.56 108.313C80.3413 114.59 97.336 115.017 105.241 110.037C97.424 104.63 88.4453 100.605 80.2373 98.5526C78.0733 97.9512 72.6466 96.4926 66.556 94.4966C66.2666 94.6899 65.9653 94.8646 65.6866 95.0032C62.8466 96.4232 58.2333 96.9552 55.2173 97.6659C51.3133 98.5526 47.4093 99.2619 43.5066 99.0846C38.6253 98.6939 19.2413 94.6099 25.7613 88.2606Z" fill="#815151"/>
<path d="M48.7093 108.605C47.5147 107.708 48.112 106.116 49.4053 105.818C50.5 105.618 51.8933 106.414 52.5893 107.212C50.4013 105.321 54.38 103.628 56.1733 105.618C56.072 103.928 57.1667 102.037 59.0587 102.234C60.8493 102.434 60.0533 103.828 60.8493 104.921C61.248 103.43 63.636 103.03 64.6307 104.225C64.7307 101.837 68.612 101.041 68.812 103.728C70.536 100.434 74.2853 101.226 74.344 103.606L74.9813 103.43C76.4747 102.234 80.3547 102.534 77.6693 104.824C78.464 104.624 80.8533 103.828 81.5493 104.624C82.744 106.017 79.7587 106.812 78.9613 107.212C79.8573 107.509 83.7387 107.808 83.44 109.401C83.1413 110.694 79.0627 110.297 78.1667 109.998C79.3147 112.116 75.688 112.12 74.0907 111.608C75.1267 112.212 75.524 113.57 74.484 114.178C73.2907 114.874 70.9027 114.077 69.9067 113.282C70.2053 116.268 67.516 115.969 65.7267 114.773C65.7267 116.069 65.6267 117.661 63.736 117.162C63.22 117.016 62.8707 116.744 62.6213 116.401C61.0573 117.344 59.1307 117.256 58.9587 115.073C57.3667 117.86 55.676 116.765 54.2827 114.376C53.2867 116.466 50.1027 116.366 49.8027 113.878C49.008 115.272 47.812 116.765 45.9227 116.166C43.6333 115.372 44.2307 113.481 45.6253 112.286C40.7467 112.685 44.628 105.917 48.7093 108.605Z" fill="#80B225"/>
<path d="M98.1022 77.1408C98.3369 75.4848 99.9942 73.8288 101.886 73.8288C101.886 74.7742 102.596 75.7222 102.36 76.6688H102.596C103.542 75.4848 104.49 74.0648 106.145 73.8288C106.145 74.7742 106.62 76.1942 106.382 77.1408C107.565 75.4848 110.168 75.0115 110.641 77.3782C112.297 73.3555 116.793 74.3022 113.953 78.5608C117.029 77.8515 120.577 80.6902 116.793 81.1635C122.708 81.3995 119.396 86.1315 114.9 83.7662C115.136 84.4755 115.372 85.1862 115.609 85.6582C114.189 86.1315 112.533 85.8955 111.352 84.7115C113.008 88.0248 107.801 87.7875 106.382 85.4208C104.964 86.6048 102.833 86.6048 101.413 85.4208C105.436 88.9702 100.466 89.2075 97.6275 86.6048C98.5742 89.4448 95.2622 89.6808 93.8435 87.7875C94.3155 91.5742 89.1102 91.3368 89.5835 87.5515C88.6369 91.0995 81.3022 92.7568 83.6689 88.2608C81.5395 90.3902 77.0435 89.2075 80.1195 86.1315C77.5182 87.5515 75.3889 85.1862 78.2275 83.7662C74.2035 83.5302 76.5715 78.3235 80.8289 80.2168C78.9369 76.9035 83.4315 76.6688 84.8515 79.0328C86.0342 77.6128 87.6902 77.1408 89.3475 77.8515C88.6369 74.5382 91.9489 74.3022 92.6595 77.3782C92.4222 72.4102 97.6275 73.5915 98.3369 76.6688L98.1022 77.1408Z" fill="#739500"/>
<path d="M64.0398 67.6408C68.8198 65.1288 72.0185 71.1048 66.8385 69.8222C68.4852 70.3288 72.4838 71.5862 71.2652 73.4555C70.0465 75.3275 66.0478 74.0675 64.6412 73.3315C70.5078 76.0462 64.5212 79.7182 61.2812 75.8715C63.1158 78.9822 57.6932 77.9328 56.2998 76.4862C59.7892 79.6275 55.0225 81.4315 52.7078 78.7848C52.6665 80.9128 49.8332 80.6248 48.1878 79.8835C51.9172 83.0288 47.3865 84.8382 44.3452 82.8862C45.4852 85.2742 42.8798 85.4622 41.2358 84.7222C45.6692 88.1182 37.8225 90.0995 36.0092 85.8062C36.6558 89.1302 32.1438 89.9928 30.7692 87.5982C31.4172 90.9248 26.1985 91.5368 25.0652 88.9115C25.9305 93.1862 20.0132 93.3115 19.8518 89.2862C19.3265 92.1155 15.4772 95.3555 16.0345 90.8688C15.5052 93.9368 14.2598 97.2262 11.8532 99.3088C8.48784 102.085 7.11851 99.4568 8.37318 95.6942C6.85984 100.636 2.17718 97.9448 5.32385 94.2168C2.64518 98.1902 -1.07216 94.5702 2.52918 91.7982C-1.74149 92.4275 -0.0041577 88.2008 3.31984 87.5542C-0.228158 87.4875 2.20917 83.7462 5.04384 84.0368C2.70917 82.3355 4.16784 80.2342 6.76651 80.5195C6.32784 78.6168 6.83851 76.7342 8.96651 76.7755C4.75318 74.3288 10.9532 71.8422 13.3092 72.3595C10.0732 68.2768 18.2025 63.9342 20.0265 67.5168C19.8892 62.3102 27.2172 62.6848 29.0385 66.5048C30.0252 64.3942 34.3052 63.2928 34.7198 66.3768C36.4012 64.9875 40.6918 63.4128 41.3398 66.7382C43.2532 65.5915 45.8732 64.6955 46.7718 67.3128C49.4305 64.2888 51.0292 67.3942 53.6305 67.4435C55.5238 67.4782 58.6585 64.4635 59.5398 67.7915C60.2825 66.1488 60.7452 66.6328 61.6865 66.8848L64.0398 67.6408Z" fill="#80B225"/>
<path d="M12.7796 62.8843C7.35697 61.8363 14.2743 58.8896 16.4036 58.9309C14.293 57.9443 16.229 55.6136 18.585 56.1323C15.0836 53.6989 18.4383 51.3963 21.497 52.4003C17.737 50.9096 21.1116 47.6603 23.9156 49.6069C20.197 45.9869 25.9556 41.8363 27.753 46.8389C25.473 42.3003 31.6823 39.3416 33.4756 44.5816C34.689 42.9469 37.297 42.7603 38.925 44.2109C37.5556 41.5816 39.9716 39.0243 42.0543 41.4309C40.4983 36.1949 46.693 33.9456 47.7716 39.4096C48.053 37.0483 50.9103 36.1549 52.2943 38.0749C51.6783 33.0936 58.3516 30.6163 57.9983 36.7629C58.2783 34.4016 60.1983 33.0176 62.5596 33.3003C65.157 33.5856 65.1263 35.2416 66.509 37.1603C67.753 33.8709 73.9263 32.8043 76.0023 35.6829C78.641 33.8403 89.7756 33.1043 89.4463 38.0683C93.577 34.7189 98.7463 37.0189 98.737 41.8469L112.258 45.5989C114.433 43.2736 120.128 42.4336 116.725 47.1029C118.386 46.8963 125.238 47.4989 120.461 49.7749C122.83 49.5843 125.64 51.2936 124.642 53.8776C123.898 55.7576 119.866 56.1536 118.206 56.3589C125.718 59.5776 116.925 61.5403 113.196 58.6309C115.908 65.3083 108.585 64.6963 105.58 60.8536C108.802 65.6469 100.558 63.5976 98.453 62.3749C101.242 65.0309 97.4116 67.3243 95.0743 65.8603C98.0983 68.5216 91.9143 70.2976 89.8383 67.4176C89.5503 70.0149 85.281 70.6443 83.665 68.4829C82.465 69.4083 81.7463 69.8669 80.3303 69.6056C83.581 72.9789 76.9343 74.0363 75.109 70.4523C76.6836 74.7416 70.3223 73.2016 69.1956 70.3403C68.6676 73.1696 63.4516 73.7803 62.7996 70.6936C62.0436 73.0443 58.0063 73.9149 58.0636 70.8403C55.941 74.8909 53.9303 73.3923 52.909 70.8269C51.4196 71.9629 49.525 72.2963 49.093 69.7243C49.493 73.5176 45.473 73.4403 44.1063 70.5763C43.093 74.1069 37.849 76.1376 38.1796 71.1723C37.029 73.7976 30.9516 76.5269 31.157 72.8883C30.2956 75.8003 25.5516 74.6389 25.401 71.1683C25.5663 74.9589 21.085 74.1643 20.1916 71.3069C18.7583 71.9909 17.3396 71.9629 16.4196 70.5269C18.933 75.3056 9.95697 74.4269 13.1476 68.3349C11.0023 69.2403 9.12364 68.4949 8.93164 66.1256C8.97164 63.9949 10.8716 63.5576 12.7796 62.8843Z" fill="#739500"/>
<path d="M206.463 68.859C207.172 65.783 211.432 65.311 210.721 69.0963C212.615 67.6763 215.453 67.9136 214.744 70.9883C216.875 70.279 218.529 69.0963 221.132 69.3336C221.368 70.9883 220.895 72.4083 219.476 73.1176C221.368 72.6456 225.155 72.6456 223.497 75.4843C225.627 75.0123 231.543 76.431 227.047 78.7963C232.961 78.087 234.381 83.7656 227.993 82.1096C231.779 84.7123 225.627 86.131 223.735 83.2923C222.552 85.1843 219.476 84.9483 218.767 82.819C216.875 83.7656 214.269 83.5296 212.851 81.6363C215.453 85.659 209.301 83.7656 207.881 81.6363C206.227 84.239 205.044 82.1096 203.151 81.8723C202.204 81.6363 199.839 81.8723 198.656 80.9256C200.312 84.475 195.58 83.2923 195.105 80.6896C193.924 83.2923 190.611 82.3456 190.847 79.5056C189.428 79.9803 188.008 79.743 186.825 78.7963C187.536 82.3456 183.749 82.1096 183.276 79.271C182.095 82.5816 179.255 80.4523 179.727 77.6136C178.308 80.9256 173.101 79.5056 175.941 76.1936C174.285 79.271 170.264 78.3243 172.867 75.2483C171.447 76.431 168.607 75.9576 169.319 73.8283C169.791 71.9363 172.629 72.1723 174.048 71.9363C171.211 71.6976 171.92 69.5696 173.812 68.623C175.232 67.9136 178.308 68.623 179.491 70.043C177.599 66.731 182.095 66.0216 183.513 68.859C184.696 67.203 187.063 67.203 188.008 69.0963C189.428 67.203 191.556 67.4416 192.977 68.859C191.321 65.0736 196.763 65.0736 198.183 68.387C198.656 65.547 202.44 65.0736 202.44 68.1496C203.151 63.1816 205.991 66.967 206.227 69.0963L206.463 68.859Z" fill="#80B225"/>
<path d="M136.862 44.6747C134.734 40.536 140.428 39.1734 145.512 38.8814C145.923 37.672 147.379 37.1027 148.862 37.772C147.064 35.9947 150.312 33.98 152.558 35.2C151.416 33.0974 153.951 30.8267 156.246 33.2107C154.675 28.684 161.308 28.3374 161.231 32.3574C163.211 27.8987 164.319 31.7054 166.427 32.9294C163.415 29.56 168.614 29.8947 170.494 30.64C169.136 27.3014 173.422 25.9627 174.063 29.5241C173.904 25.4987 177.955 23.9187 178.823 28.1947C178.415 24.6374 182.187 25.4187 183.084 28.0387C182.696 23.6267 185.891 23.0587 188.611 24.4974C190.774 22.3601 193.744 23.0014 193.274 27.2854C195.455 24.4854 199.962 24.0974 198.692 28.5694C200.658 24.8214 204.919 24.664 204.115 29.6187C206.486 29.4267 208.614 29.468 208.802 32.0734C208.636 28.2854 213.89 25.7814 214.038 30.516C217.179 27.0267 219.795 26.3667 219.451 32.0387C222.075 30.9054 228.248 29.8387 224.368 34.7347C226.511 34.0654 228.387 35.0467 228.107 37.408C229.791 35.784 232.148 36.3014 232.104 38.668C233.378 33.9587 236.663 35.4414 236.582 39.6987C239.727 35.972 243.968 36.9987 241.978 42.1667C244.111 41.9707 245.262 43.6494 244.511 45.764C246.444 43.672 248.538 45.604 248.252 48.2014C249.408 45.568 251.947 46.272 251.842 48.6867C252.472 43.2654 260.696 45.968 256.266 50.0094C259.584 49.5987 262.374 52.256 258.78 54.5534C261.88 53.428 263.243 56.2947 261.307 58.624C265.611 56.3387 269.3 61.3774 264.783 62.4774C267.61 63.2387 269.89 67.78 265.167 67.2147C265.814 70.5427 262.503 70.4787 260.16 69.2507C260.155 69.4867 258.958 70.1747 258.486 70.1667C261.026 73.5267 257.196 75.8214 254.892 72.4654C253.879 75.996 249.402 74.9627 248.751 71.8747C246.354 73.4867 243.062 72.4774 242.404 69.624C241.196 71.0214 239.07 70.7454 238.156 69.0707C238.611 70.028 238.351 71.204 238.57 72.156C236.196 72.584 234.082 71.8347 233.416 69.4547C231.483 71.548 228.68 69.6027 229.911 67.024C228.006 67.6974 226.368 66.7187 225.69 65.0494C226.332 68.6107 221.604 68.2854 220.952 65.1974C218.748 69.1774 217.395 65.6027 216.974 62.992C214.419 64.0534 212.026 62.884 211.094 60.872C209.738 61.3987 208.018 61.1027 207.095 59.7294C211.018 65.0094 204.631 64.8894 202.336 61.0587C202.724 65.5627 198.04 63.108 197.383 60.2547C195.714 60.9334 193.831 60.424 193.152 58.7547C195.215 62.3427 189.536 62.236 188.18 58.8974C186.939 61.9507 182.999 57.616 180.391 57.804C181.324 58.532 181.539 59.7187 182.234 60.4414C181.044 60.8934 179.632 60.392 178.71 59.192C180.294 63.008 175.316 63.388 174.207 59.58C172.255 62.6187 169.188 62.088 169.494 58.544C167.583 59.4547 165.951 58.004 164.802 56.3254C165.216 59.4094 161.668 59.3427 161.248 56.496C161.178 60.2814 157.424 58.5534 157 55.9414C154.822 58.504 152.255 56.5627 152.072 53.72C150.631 54.8734 148.743 54.6027 147.834 52.692C149.162 57.4507 143.94 58.2974 144.02 54.0387C142.552 56.616 139.026 55.3654 139.08 52.5267C136.643 56.2667 133.906 50.772 136.303 49.1614C132.983 49.5707 134.018 44.8587 136.862 44.6747Z" fill="#739500"/>
<path d="M171.586 18.6473L171.578 18.646C171.58 18.642 171.583 18.6393 171.59 18.6353L171.586 18.6473ZM57.7349 38.178C54.1602 39.53 57.4215 42.194 59.8189 40.5833C57.8869 42.6767 61.8575 45.3553 64.2735 42.7967C62.1082 44.65 64.4335 46.8233 66.8082 46.3953C67.0055 46.35 67.2055 46.2327 67.4029 46.0847C68.2109 48.3687 70.2815 51.1473 71.5162 47.6673C71.9455 50.0407 74.5055 52.2193 76.4469 49.654C77.5869 52.042 80.1735 52.8007 79.5322 49.238C80.9335 50.2113 80.9402 49.9753 82.5949 50.0073C83.5029 51.9167 85.3975 51.9527 87.0749 50.8007C87.0029 54.586 91.4975 54.6713 92.2709 51.3727C91.7255 55.1487 97.1935 53.8327 97.4895 50.7607C98.6402 52.4393 100.51 53.658 102.424 52.5113C101.97 51.5567 101.988 50.61 101.527 49.8913C102.227 50.378 105.051 51.378 105.522 51.3873C107.407 51.8953 108.322 53.57 110.022 51.2353C111.387 54.1007 114.695 54.3993 116.404 51.5913C117.766 54.6953 124.152 54.8153 122.572 50.7633C124.426 52.9273 129.392 53.0207 126.856 49.4247C128.723 50.878 130.846 51.1553 132.999 50.014C132.938 53.3247 137.444 52.7007 137.967 50.1073C140.036 53.2233 145.724 52.8567 142.715 49.25C143.886 49.982 144.595 49.9953 146.023 49.55C146.906 52.8793 151.424 51.782 151.243 48.702C153.07 52.286 159.252 50.746 156.012 46.8993C157.168 48.3407 159.046 49.086 160.947 48.6487C160.734 47.462 159.814 46.0233 158.646 45.2913C158.876 45.534 159.35 45.542 159.582 45.7833C160.287 46.0327 160.992 46.2833 161.702 46.2967L161.775 45.914C162.98 47.2873 164.375 48.0207 166.071 47.3327L165.667 49.4487C167.054 51.13 169.196 50.4607 168.531 48.082C169.687 49.5233 171.803 50.274 173.252 48.6447C172.963 51.478 175.792 52.0047 177.484 50.1447C176.948 53.4473 180.274 52.8007 181.26 50.6887C183.086 54.2727 186.438 52.206 184.608 48.8593C186.714 50.082 189.099 49.1807 187.012 46.774C189.12 47.998 196.446 48.61 197.444 45.7887C200.926 49.4047 205.063 43.33 200.818 42.5393C204.35 43.5527 209.108 42.2233 205.635 38.1353C212 39.438 207.68 30.1273 201.747 30.962C204.116 30.77 205.1 28.8967 203.474 27.2073C202.315 26.0033 199.459 26.8967 198.288 26.1633C203.092 22.4687 195.527 22.0887 193.152 22.5167C195.816 19.254 192.299 17.5313 189.43 19.134C189.47 17.0047 190.01 13.4647 187.171 13.4113C184.836 13.5793 183.398 16.798 183.267 18.8313C183.076 14.4753 177.868 16.25 177.347 19.8527C177.394 17.322 176.142 16.358 174.526 16.262C175.01 15.6487 175.243 14.9087 174.858 13.8887C173.956 11.506 171.336 12.402 169.42 13.55C171.1 12.398 170.907 10.0273 169.502 9.29134C168.799 8.80468 164.994 9.91668 164.043 10.134C166.734 5.45268 161.494 7.24601 159.579 8.39401C159.459 2.23801 152.84 1.87668 153.187 8.50868C151.814 6.11801 149.435 6.78201 147.756 7.93268C147.563 5.56334 145.203 5.28201 143.522 6.67134C144.071 2.65668 141.212 3.55001 139.048 5.40201C138.454 -0.761989 133.67 1.98868 132.407 6.22335C130.387 0.506013 126.355 0.902012 126.475 7.05801C125.147 4.88201 122.16 5.26334 120.466 6.91668C121.35 1.96868 116.499 1.57801 113.503 4.68201C112.907 -1.24466 107.002 -1.82999 107.591 4.57134C105.98 2.17401 102.888 3.06201 102.83 6.13668C98.9202 0.147343 95.4682 7.41801 97.2802 11.7113C95.6615 9.78868 92.8082 10.4447 93.7055 13.0633C92.0709 11.85 89.7069 11.806 89.8922 14.4113C88.5095 12.4927 85.6589 13.1487 85.3815 15.2727C81.4535 10.23 74.7629 13.6527 79.4309 17.054C77.7895 16.3127 73.7775 15.7633 75.3749 18.87C73.9909 16.9513 70.4335 17.3567 70.6202 19.9633C67.1789 14.2193 62.8095 20.0513 66.2775 24.3767C64.6629 22.218 60.6229 23.0873 61.2789 25.9393C58.9322 24.9487 57.0029 26.806 59.3322 28.742C53.4589 26.5007 50.2589 33.066 56.1629 33.6513C50.7362 32.8393 53.2269 38.802 57.7349 38.178Z" fill="#80B225"/>
<path d="M165.112 236.398C165.112 236.398 164.672 234.003 163.901 229.814C163.57 227.709 163.202 225.133 163.204 222.141C163.238 221.393 163.273 220.621 163.309 219.826C163.425 219.037 163.545 218.223 163.668 217.39C164.032 215.751 164.418 214.059 164.865 212.282C165.729 208.727 166.762 204.913 167.529 200.823C168.292 196.747 168.792 192.361 168.536 187.885C168.105 183.478 166.088 179.159 164.474 174.625C163.668 172.35 162.985 169.961 162.722 167.477C162.432 164.963 162.74 162.506 162.701 160.11C162.784 155.269 162.717 150.345 163.582 145.53C164.329 140.582 167.141 136.45 169.788 132.766C172.468 129.057 175.236 125.63 177.094 121.949C178.008 120.11 178.69 118.227 179.037 116.339C179.317 114.459 179.32 112.539 179.12 110.777C178.701 107.198 177.64 104.013 176.417 101.342C175.192 98.662 173.738 96.514 172.377 94.894C171.001 93.278 169.713 92.206 168.809 91.514C167.86 90.8873 167.352 90.5527 167.352 90.5527C167.352 90.5527 167.873 90.8673 168.852 91.4553C169.781 92.114 171.138 93.1273 172.573 94.7233C173.998 96.3167 175.536 98.446 176.862 101.126C178.192 103.797 179.38 107.007 179.864 110.686C180.106 112.547 180.142 114.453 179.884 116.477C179.557 118.471 178.878 120.455 177.968 122.378C176.114 126.221 173.376 129.761 170.726 133.441C169.412 135.287 168.112 137.198 167.04 139.222C166.793 139.735 166.516 140.219 166.288 140.759C166.076 141.299 165.817 141.871 165.641 142.387C165.337 143.495 164.949 144.579 164.806 145.755C164 150.394 164.088 155.261 164.032 160.138C164.05 162.605 163.741 165.021 164.002 167.341C164.234 169.685 164.868 171.979 165.648 174.218C167.194 178.69 169.248 183.065 169.689 187.814C169.946 192.453 169.324 196.897 168.478 201.013C167.626 205.134 166.517 208.941 165.59 212.462C165.11 214.214 164.7 215.929 164.292 217.526C164.146 218.334 164.008 219.121 163.87 219.887C163.81 220.665 163.753 221.421 163.697 222.151C163.605 225.094 163.89 227.669 164.156 229.775C164.764 233.99 165.112 236.398 165.112 236.398Z" fill="#704646"/>
<path d="M168.097 232.668C168.097 232.668 167.917 231.724 167.605 230.069C167.45 229.243 167.285 228.235 167.105 227.075C167.013 226.495 166.914 225.876 166.812 225.225C166.742 224.569 166.67 223.88 166.594 223.16C166.404 221.721 166.389 220.144 166.312 218.477C166.301 217.643 166.368 216.784 166.394 215.905C166.392 215.023 166.529 214.133 166.682 213.229C166.882 211.401 167.444 209.587 167.938 207.724C168.642 205.947 169.298 204.061 170.162 202.36C171.042 200.617 171.933 198.955 172.566 197.228C173.184 195.512 173.608 193.751 173.489 192.031C173.484 191.221 173.292 190.283 173.229 189.439C173.042 188.625 172.858 187.829 172.681 187.055C172.426 186.281 172.18 185.529 171.938 184.801C171.657 184.084 171.384 183.391 171.122 182.725C170.552 181.407 170.05 180.185 169.606 179.099C169.148 178.02 168.81 177.047 168.506 176.264C168.218 175.471 168.06 174.823 167.921 174.395C167.792 173.964 167.724 173.733 167.724 173.733C167.724 173.733 168.096 174.617 168.745 176.167C169.113 176.924 169.516 177.855 170.058 178.893C170.588 179.936 171.185 181.116 171.808 182.42C172.106 183.083 172.416 183.773 172.736 184.487C173.018 185.223 173.309 185.983 173.61 186.764C173.852 187.576 174.092 188.433 174.314 189.301C174.434 190.179 174.6 190.988 174.644 191.976C174.801 193.869 174.368 195.819 173.736 197.649C173.093 199.487 172.193 201.237 171.364 202.932C170.461 204.648 169.837 206.395 169.116 208.119C168.616 209.904 168.041 211.645 167.824 213.408C167.748 213.844 167.674 214.277 167.6 214.705C167.541 215.136 167.524 215.568 167.48 215.993C167.414 216.844 167.308 217.676 167.28 218.492C167.28 220.125 167.22 221.673 167.34 223.105C167.465 225.969 167.704 228.36 167.86 230.035C168.012 231.711 168.097 232.668 168.097 232.668Z" fill="#704646"/>
<path d="M173.692 204.319C173.692 204.319 173.759 204.726 173.696 205.267C173.671 205.541 173.615 205.847 173.53 206.165C173.456 206.486 173.311 206.809 173.21 207.133C173.027 207.766 172.742 208.362 172.438 208.806C172.143 209.25 171.827 209.542 171.827 209.542C171.827 209.542 171.702 209.165 171.698 208.609C171.68 208.05 171.78 207.313 171.983 206.611C172.247 205.961 172.639 205.378 172.998 204.965C173.35 204.549 173.692 204.319 173.692 204.319Z" fill="#704646"/>
<path d="M169.205 140.535C169.205 140.535 169.272 140.323 169.396 139.925C169.53 139.533 169.674 138.937 169.96 138.216C170.292 137.507 170.696 136.644 171.158 135.656C171.677 134.704 172.248 133.619 172.926 132.467C174.308 130.184 175.934 127.527 177.78 124.759C178.693 123.373 179.637 121.941 180.596 120.487C181.028 119.765 181.608 119.009 181.929 118.303L183.112 115.923C183.837 114.319 184.566 112.749 185.177 111.121C185.488 110.312 185.796 109.509 186.101 108.717C186.4 107.921 186.652 107.119 186.924 106.34C187.474 104.78 187.937 103.249 188.388 101.799C188.865 100.356 189.185 98.956 189.55 97.68C189.909 96.4027 190.157 95.212 190.437 94.1694C190.713 93.124 190.909 92.2027 191.065 91.444C191.402 89.9267 191.596 89.0614 191.596 89.0614C191.596 89.0614 191.496 89.944 191.32 91.488C191.229 92.26 191.11 93.1987 190.924 94.2654C190.737 95.3334 190.59 96.552 190.281 97.8507C189.981 99.1507 189.73 100.58 189.326 102.057C188.946 103.54 188.57 105.115 188.041 106.701C187.566 108.305 187.006 109.943 186.377 111.587C185.777 113.233 185.026 114.895 184.301 116.523L183.098 118.892C182.664 119.784 182.14 120.424 181.67 121.193C180.698 122.655 179.697 124.055 178.748 125.419C176.833 128.137 175.033 130.656 173.56 132.864C172.838 133.976 172.176 134.995 171.588 135.899C171.053 136.828 170.586 137.637 170.202 138.305C169.553 139.713 169.205 140.535 169.205 140.535Z" fill="#704646"/>
<path d="M52.4644 85.7033C52.4644 85.7033 55.0457 87.2047 59.6164 89.7207C61.899 90.9833 64.7284 92.4113 68.0577 93.8407C69.7524 94.4807 71.5404 95.198 73.4964 95.734C74.459 96.0553 75.471 96.2873 76.511 96.5113C77.5377 96.7473 78.6164 96.99 79.7137 97.2113C84.099 98.1167 88.843 99.374 93.635 101.291C94.2337 101.534 94.8364 101.777 95.443 102.022C96.0377 102.299 96.635 102.578 97.235 102.858C98.4524 103.39 99.6257 104.045 100.82 104.694C103.208 105.999 105.498 107.578 107.818 109.121C112.458 112.298 117.012 116.015 120.962 120.453C121.992 121.521 122.852 122.745 123.811 123.891C124.748 125.055 125.54 126.331 126.415 127.551C127.259 128.791 127.976 130.115 128.766 131.397C129.536 132.646 130.219 134.037 131.091 135.139C132.768 137.481 134.928 139.499 137.292 141.209C139.662 142.927 142.228 144.394 144.715 145.991C147.204 147.582 149.626 149.329 151.691 151.429C152.727 152.469 153.659 153.621 154.542 154.713C155.414 155.901 156.18 157.239 156.583 158.63C157.039 160.017 157.26 161.426 157.455 162.789C157.656 164.166 157.826 165.479 158.05 166.814C158.492 169.423 159.36 171.854 160.379 174.195C161.383 176.554 162.519 178.722 163.4 181.081C163.57 181.659 163.738 182.234 163.904 182.803C164.035 183.391 164.103 184.006 164.203 184.597C164.324 185.193 164.322 185.781 164.336 186.363C164.342 186.945 164.403 187.522 164.326 188.089C164.054 192.663 162.478 196.582 160.948 199.874C159.399 203.181 157.826 205.939 156.578 208.231C155.314 210.514 154.354 212.325 153.723 213.573C153.123 214.837 152.803 215.51 152.803 215.51C152.803 215.51 153.1 214.826 153.658 213.542C154.251 212.275 155.134 210.419 156.348 208.109C157.54 205.786 159.042 202.99 160.495 199.671C161.93 196.363 163.37 192.465 163.576 188.054C163.644 187.506 163.574 186.953 163.56 186.394C163.538 185.834 163.532 185.266 163.408 184.718C163.306 184.165 163.242 183.606 163.108 183.041C162.935 182.475 162.758 181.903 162.579 181.327C161.738 179.185 160.532 176.926 159.488 174.589C158.426 172.25 157.47 169.697 156.972 166.997C156.431 164.349 156.318 161.534 155.483 158.989C155.095 157.689 154.426 156.549 153.624 155.454C152.718 154.342 151.839 153.267 150.839 152.275C148.852 150.275 146.51 148.598 144.047 147.041C141.587 145.477 138.992 144.014 136.539 142.255C134.086 140.497 131.807 138.411 129.999 135.902C129.035 134.641 128.414 133.33 127.624 132.041C126.858 130.781 126.159 129.475 125.338 128.257C124.487 127.058 123.716 125.802 122.806 124.658C121.872 123.533 121.038 122.327 120.032 121.275C116.184 116.91 111.738 113.239 107.171 110.078C104.846 108.507 102.594 106.965 100.283 105.642C99.1217 104.986 97.979 104.325 96.7897 103.785C96.203 103.499 95.619 103.215 95.0404 102.934C94.4457 102.683 93.855 102.435 93.2697 102.189C88.563 100.223 83.9177 98.9127 79.555 97.942C78.4644 97.7033 77.4084 97.45 76.3524 97.1913C75.3004 96.946 74.2764 96.698 73.311 96.3447C71.3417 95.7527 69.5537 94.982 67.8644 94.294C64.5457 92.77 61.7457 91.2673 59.491 89.946C57.2257 88.6433 55.487 87.5527 54.2924 86.826C53.1004 86.094 52.4644 85.7033 52.4644 85.7033Z" fill="#704646"/>
<path d="M154.295 171.122C154.295 171.122 154.363 171.243 154.459 171.459C154.571 171.661 154.644 172.013 154.831 172.327C154.924 172.483 155.022 172.645 155.1 172.815C155.162 172.989 155.336 173.15 155.438 173.331C155.654 173.699 155.976 174.031 156.262 174.383C156.59 174.711 156.902 175.054 157.247 175.346C157.566 175.666 157.91 175.923 158.184 176.19C158.759 176.678 159.144 177.09 159.144 177.09C159.144 177.09 159.007 177.087 158.771 177.059C158.54 177.023 158.192 176.995 157.815 176.861C157.434 176.731 156.979 176.577 156.55 176.291C156.34 176.146 156.086 176.045 155.894 175.843L155.278 175.283C155.1 175.065 154.939 174.829 154.775 174.605C154.594 174.394 154.511 174.118 154.402 173.875C154.302 173.626 154.19 173.406 154.164 173.142C154.118 172.893 154.096 172.655 154.079 172.445C154.036 172.027 154.163 171.721 154.198 171.485C154.252 171.255 154.295 171.122 154.295 171.122Z" fill="#704646"/>
<path d="M160.636 165.9L160.864 164.921C160.92 164.592 160.942 164.26 160.98 163.931C161.012 163.268 160.99 162.604 160.894 161.949C160.798 161.296 160.651 160.649 160.432 160.025C160.227 159.4 159.968 158.788 159.662 158.205C159.372 157.612 159.018 157.053 158.66 156.5C158.29 155.953 157.894 155.425 157.472 154.916C156.626 153.904 155.714 152.947 154.732 152.061C154.235 151.625 153.735 151.195 153.211 150.792C152.682 150.364 152.164 149.967 151.626 149.607L148.27 147.409C147.148 146.657 146.035 145.871 145.006 144.94C144.498 144.465 144.007 143.964 143.584 143.384C143.135 142.829 142.806 142.155 142.551 141.448L142.543 141.429L142.539 141.407C142.246 139.747 142.751 138.281 143.267 136.935C143.803 135.579 144.458 134.303 145.112 133.043C145.768 131.785 146.448 130.545 146.991 129.293C147.491 128.064 147.943 126.651 148.402 125.343C149.304 122.684 150.222 120.011 150.414 117.303C150.632 114.596 149.794 111.937 148.336 109.597C147.646 108.407 146.799 107.293 145.938 106.197L144.612 104.548C144.18 103.977 143.778 103.356 143.366 102.761C142.604 101.547 141.887 100.312 141.206 99.0692C140.515 97.8332 139.851 96.5865 139.123 95.3865C138.774 94.7759 138.392 94.1879 138.002 93.6092L137.712 93.1705C137.674 93.1159 137.594 92.9825 137.591 92.9932L137.411 92.7972L136.692 92.0159C135.75 90.9759 134.644 90.1999 133.386 89.5919C132.119 89.0239 130.746 88.6919 129.362 88.4199C127.974 88.1572 126.583 87.8732 125.202 87.5679L129.406 88.1679C130.807 88.3745 132.218 88.6399 133.566 89.1692C134.226 89.4505 134.88 89.7812 135.488 90.1785C136.056 90.6265 136.718 91.0292 137.172 91.5572L137.915 92.3159L138.1 92.5065C138.224 92.6399 138.222 92.6692 138.291 92.7559L138.6 93.1945C139.016 93.7759 139.423 94.3639 139.795 94.9705C140.571 96.1692 141.275 97.4012 141.998 98.6159C142.715 99.8332 143.455 101.025 144.23 102.187C144.643 102.741 145.024 103.3 145.46 103.845C145.92 104.388 146.376 104.916 146.822 105.483C147.719 106.6 148.603 107.737 149.346 108.988C150.115 110.215 150.764 111.549 151.174 112.976C151.595 114.393 151.782 115.905 151.672 117.377C151.478 120.333 150.572 123.095 149.652 125.775C149.162 127.132 148.743 128.415 148.167 129.803C147.571 131.143 146.874 132.377 146.211 133.623C145.548 134.865 144.898 136.107 144.382 137.379C143.866 138.633 143.464 139.991 143.67 141.156L143.66 141.115C143.862 141.663 144.107 142.216 144.5 142.708C144.859 143.216 145.314 143.672 145.766 144.128C146.698 145.024 147.754 145.82 148.832 146.591L152.131 148.889C152.695 149.291 153.224 149.725 153.724 150.155C154.251 150.584 154.751 151.041 155.248 151.504C156.223 152.445 157.15 153.443 157.967 154.528C158.375 155.071 158.755 155.633 159.108 156.213C159.45 156.8 159.786 157.392 160.055 158.016C160.342 158.631 160.579 159.272 160.758 159.925C160.95 160.576 161.071 161.248 161.138 161.92C161.207 162.595 161.184 163.275 161.108 163.944C161.047 164.277 161.003 164.613 160.927 164.939L160.636 165.9Z" fill="#704646"/>
<path d="M129.303 61.8316C129.303 61.8316 129.603 62.361 129.876 63.181C130.02 63.5903 130.16 64.0716 130.28 64.5903C130.414 65.1076 130.491 65.673 130.599 66.2263C130.807 67.325 130.91 68.4423 130.903 69.309C130.907 70.1703 130.796 70.7836 130.796 70.7836C130.796 70.7836 130.472 70.281 130.155 69.4716C129.828 68.6663 129.502 67.5543 129.28 66.425C129.111 65.2996 129.078 64.1596 129.122 63.2916C129.162 62.4263 129.303 61.8316 129.303 61.8316Z" fill="#704646"/>
<path d="M140.12 94.2827C140.12 94.2827 140.108 94.1307 140.088 93.8467C140.079 93.5627 140.004 93.148 140.026 92.616C140.06 92.084 140.056 91.4173 140.195 90.6813C140.283 89.9333 140.483 89.1067 140.762 88.2253C141.323 86.464 142.2 84.488 143.26 82.4733C144.302 80.4467 145.506 78.3573 146.42 76.172C146.902 75.0893 147.3 73.98 147.596 72.8667C147.852 71.8173 148.043 70.576 148.26 69.488C148.5 68.368 148.547 67.308 148.704 66.2867C148.855 65.2733 148.927 64.2973 148.982 63.3933C149.116 61.5893 149.256 60.0773 149.31 59.0187C149.396 57.96 149.446 57.3547 149.446 57.3547C149.446 57.3547 149.49 57.96 149.568 59.02C149.623 60.08 149.748 61.5947 149.732 63.4213C149.747 64.3333 149.747 65.3227 149.674 66.3787C149.592 67.424 149.63 68.5733 149.419 69.6827C149.224 70.8253 149.146 71.9227 148.844 73.1893C148.54 74.3813 148.135 75.5627 147.646 76.6987C146.659 78.972 145.419 81.0773 144.288 83.0347C143.162 84.9947 142.118 86.812 141.466 88.4773C141.148 89.3093 140.854 90.0773 140.678 90.7827C140.455 91.4813 140.383 92.1053 140.284 92.6227C140.16 93.6733 140.12 94.2827 140.12 94.2827Z" fill="#704646"/>
<path d="M142.359 234.533C142.359 234.533 142.36 233.735 142.362 232.339C142.366 231.641 142.354 230.797 142.526 229.825C142.683 228.862 142.727 227.722 143.102 226.574C143.402 225.403 143.732 224.131 144.246 222.846C144.686 221.529 145.276 220.202 145.892 218.83C146.532 217.478 147.192 216.083 147.864 214.665C148.555 213.261 149.22 211.825 149.838 210.374L150.8 208.199C151.095 207.475 151.34 206.797 151.467 206.093C151.763 204.725 151.294 203.302 150.874 201.882C150.762 201.526 150.651 201.174 150.54 200.826C150.49 200.673 150.42 200.427 150.386 200.354L150.183 199.851C149.912 199.186 149.674 198.509 149.33 197.971C149.024 197.398 148.707 196.843 148.323 196.333C147.975 195.807 147.608 195.314 147.23 194.857C146.504 193.923 145.784 193.09 145.208 192.301C144.6 191.535 144.139 190.814 143.755 190.227C143.364 189.645 143.171 189.117 142.988 188.793C142.822 188.458 142.732 188.281 142.732 188.281C142.732 188.281 142.843 188.446 143.052 188.758C143.271 189.061 143.538 189.538 143.97 190.081C144.402 190.623 144.918 191.283 145.588 191.981C146.231 192.701 147.023 193.457 147.807 194.375C148.216 194.818 148.62 195.299 149.015 195.827C149.438 196.326 149.818 196.903 150.191 197.519C150.612 198.123 150.878 198.765 151.186 199.415L151.416 199.905C151.528 200.163 151.551 200.274 151.623 200.466C151.744 200.813 151.867 201.163 151.99 201.517C152.228 202.235 152.472 202.966 152.655 203.765C152.748 204.159 152.779 204.594 152.834 205.013C152.803 205.439 152.835 205.89 152.736 206.305C152.598 207.147 152.302 207.963 152.007 208.709C151.703 209.439 151.39 210.169 151.059 210.906C150.415 212.379 149.727 213.826 149.019 215.229C148.315 216.627 147.62 218.003 146.948 219.334C146.319 220.674 145.644 221.945 145.147 223.201C144.571 224.433 144.182 225.647 143.823 226.773C143.403 227.887 143.266 228.951 143.016 229.883C142.758 230.811 142.688 231.662 142.619 232.355C142.454 233.741 142.359 234.533 142.359 234.533Z" fill="#704646"/>
<path d="M155.787 236.398C155.787 236.398 155.734 235.959 155.673 235.191C155.633 234.422 155.497 233.33 155.487 232.006C155.441 230.683 155.441 229.138 155.527 227.486C155.558 226.659 155.594 225.805 155.695 224.941C155.787 224.077 155.854 223.195 155.97 222.319C156.11 221.447 156.25 220.574 156.387 219.714C156.499 218.851 156.754 218.025 156.922 217.214C157.111 216.407 157.277 215.623 157.523 214.901C157.757 214.177 157.977 213.494 158.179 212.862C158.573 211.597 159.109 210.611 159.385 209.895C159.697 209.19 159.89 208.795 159.89 208.795C159.89 208.795 159.806 209.231 159.63 209.981C159.463 210.733 159.161 211.782 158.917 213.07C158.785 213.71 158.642 214.403 158.49 215.137C158.313 215.862 158.227 216.651 158.071 217.451C157.939 218.255 157.766 219.078 157.657 219.927C157.537 220.774 157.414 221.635 157.29 222.495C157.161 223.355 157.081 224.222 156.975 225.073C156.87 225.922 156.759 226.759 156.695 227.574C156.607 228.387 156.525 229.174 156.445 229.921C156.375 230.667 156.31 231.373 156.25 232.026C156.117 233.337 156.007 234.429 155.93 235.194C155.851 235.961 155.787 236.398 155.787 236.398Z" fill="#704646"/>
<path d="M89.041 40.8114C88.7397 41.2954 88.4077 41.766 88.165 42.258C88.0437 42.506 87.9584 42.762 87.9024 43.0167C87.8544 43.2754 87.8704 43.5247 87.9064 43.766L87.709 43.538L88.5544 43.5994L89.3824 43.4634L90.1637 43.1474L90.8877 42.7007C91.117 42.5607 91.4157 42.6314 91.557 42.8607C91.629 42.978 91.6464 43.114 91.6144 43.238L91.6077 43.2634C91.517 43.6047 91.4677 43.95 91.5357 44.2167C91.6024 44.4914 91.773 44.6047 91.8957 44.6314C92.0224 44.6314 92.1757 44.566 92.2984 44.3407C92.4184 44.118 92.4584 43.7874 92.4637 43.4527C92.4677 43.106 92.7544 42.8287 93.101 42.834C93.401 42.838 93.6477 43.0514 93.7064 43.3327L93.7144 43.3647C93.7877 43.7167 93.8917 44.0527 94.0637 44.3207C94.225 44.59 94.481 44.762 94.6144 44.7727C94.6504 44.7874 94.661 44.766 94.681 44.7727C94.6904 44.758 94.709 44.7687 94.7224 44.7434C94.7584 44.7287 94.805 44.634 94.8504 44.522C94.9317 44.27 94.9357 43.8994 94.9037 43.534L94.9024 43.5194C94.8717 43.1554 95.1424 42.8367 95.5064 42.806C95.765 42.7834 96.001 42.914 96.1264 43.122C96.3144 43.4314 96.549 43.698 96.8197 43.866C97.089 44.0354 97.393 44.0914 97.6237 44.038C97.861 43.9967 98.005 43.8394 98.0864 43.582C98.125 43.454 98.1437 43.294 98.1197 43.122C98.1197 42.954 98.0517 42.77 98.013 42.5887L98.0064 42.5567C97.937 42.2367 98.141 41.922 98.4597 41.854C98.5944 41.826 98.7277 41.8447 98.8424 41.9007C99.1744 42.0634 99.485 42.29 99.833 42.41C100.005 42.474 100.172 42.5714 100.348 42.6087L100.877 42.7514L101.412 42.8234L101.938 42.8167C102.098 42.7767 102.284 42.774 102.43 42.71C102.582 42.6514 102.736 42.594 102.846 42.4914C102.988 42.4154 103.044 42.282 103.125 42.1647C103.174 42.0327 103.225 41.8927 103.202 41.73C103.229 41.5714 103.121 41.41 103.09 41.2394L102.809 40.762C102.569 40.4674 102.301 40.1807 101.985 39.9394C101.69 39.67 101.342 39.4687 101.016 39.226C101.377 39.4007 101.776 39.5234 102.118 39.7487C102.478 39.9487 102.805 40.2047 103.121 40.4927C103.262 40.654 103.4 40.826 103.533 41.002C103.617 41.214 103.77 41.3994 103.789 41.6514C103.849 41.894 103.83 42.1474 103.757 42.4047C103.661 42.6314 103.537 42.8914 103.344 43.042C103.166 43.2327 102.956 43.346 102.738 43.454C102.525 43.5687 102.298 43.6034 102.073 43.6767C101.85 43.71 101.625 43.734 101.397 43.7527L100.73 43.7167L100.081 43.5954C99.8597 43.562 99.665 43.4714 99.4544 43.41C99.0277 43.2927 98.6584 43.074 98.2637 42.8927L99.093 42.2034C99.169 42.4594 99.265 42.7034 99.2904 42.99C99.3357 43.262 99.3344 43.5674 99.261 43.874C99.205 44.1794 99.0424 44.4954 98.8104 44.7487C98.5797 45.0047 98.2677 45.1847 97.9464 45.2714C97.2944 45.4394 96.6517 45.274 96.1544 44.978C95.649 44.6767 95.273 44.2447 94.989 43.7847L96.2117 43.3714C96.253 43.8634 96.2984 44.374 96.1104 44.95C95.9984 45.2354 95.8477 45.5474 95.529 45.786C95.2344 46.0407 94.7824 46.1287 94.4277 46.0687C93.697 45.934 93.2637 45.4634 92.9744 45.0114C92.6864 44.5434 92.5397 44.0407 92.469 43.542L93.7197 43.4527C93.6904 43.9394 93.6264 44.4514 93.3304 44.9514C93.173 45.1954 92.9664 45.434 92.673 45.59C92.529 45.674 92.3717 45.7314 92.197 45.7554C92.033 45.8007 91.8517 45.766 91.6824 45.7527C91.3517 45.6687 91.0344 45.4914 90.8504 45.23C90.6464 44.9807 90.5504 44.694 90.4984 44.4207C90.4144 43.8674 90.5464 43.3834 90.701 42.9394L91.421 43.502L90.525 43.9527C90.2024 44.0527 89.8757 44.1407 89.5544 44.2287L88.541 44.2847L87.5557 44.0727L87.5437 44.07C87.4344 44.046 87.3584 43.9514 87.357 43.8447C87.349 43.5154 87.385 43.2007 87.4877 42.9047C87.5944 42.6154 87.7344 42.3487 87.9024 42.106C88.2304 41.614 88.6504 41.2274 89.041 40.8114Z" fill="#709A03"/>
<path d="M29.5084 63.3563C29.2004 63.875 28.8831 64.3843 28.7591 64.9217C28.7177 65.187 28.6964 65.4537 28.8004 65.643C28.8271 65.7483 28.9191 65.8097 28.9711 65.8897C29.0671 65.9417 29.1271 66.019 29.2471 66.047C29.4444 66.1403 29.7057 66.1563 29.9564 66.1563C30.2111 66.1523 30.4751 66.123 30.7351 66.0617C31.2577 65.9443 31.7577 65.7243 32.2417 65.4777C32.5244 65.3337 32.8697 65.4443 33.0137 65.727C33.0471 65.795 33.0684 65.867 33.0751 65.939L33.0831 66.0403C33.0951 66.207 33.0791 66.3843 33.1204 66.5337C33.1391 66.6937 33.1937 66.8297 33.2484 66.9483C33.3724 67.187 33.5337 67.2777 33.6484 67.291C33.6804 67.271 33.7097 67.299 33.7444 67.2723C33.7764 67.2643 33.8124 67.2523 33.8471 67.2217C33.9217 67.1817 33.9951 67.0923 34.0617 66.9897C34.1231 66.879 34.1857 66.7523 34.2164 66.6003C34.2724 66.4617 34.2764 66.287 34.3084 66.1283L34.3244 66.047C34.3964 65.6897 34.7444 65.4603 35.0991 65.531C35.3697 65.5857 35.5684 65.8003 35.6164 66.0563C35.6697 66.347 35.8057 66.635 36.0017 66.8817C36.1977 67.127 36.4631 67.3283 36.7057 67.4323C36.8324 67.4963 36.9351 67.491 37.0071 67.4977C37.0591 67.4723 37.0951 67.499 37.1337 67.4257C37.1804 67.3763 37.2271 67.2497 37.2431 67.0977C37.2857 66.9603 37.2564 66.767 37.2644 66.5963L37.2724 66.4683C37.2897 66.1897 37.5297 65.9763 37.8097 65.9937C37.9137 65.999 38.0071 66.0363 38.0844 66.095C38.7311 66.5857 39.6231 66.8803 40.4204 66.6443C40.7964 66.5377 41.1497 66.2777 41.0177 65.9057C40.9737 65.7177 40.8151 65.5337 40.6457 65.383C40.4884 65.2043 40.2711 65.091 40.0764 64.9417C40.3017 65.0297 40.5497 65.0817 40.7657 65.2177C40.9831 65.343 41.2084 65.5003 41.3457 65.7643C41.5044 66.007 41.5071 66.4017 41.3271 66.6617C41.1724 66.943 40.9244 67.1137 40.6751 67.255C40.1617 67.5003 39.5937 67.571 39.0431 67.5137C38.7711 67.4737 38.4951 67.4203 38.2391 67.3163C37.9697 67.2363 37.7364 67.0857 37.4871 66.959L38.3071 66.4577C38.3257 66.7043 38.3857 66.9297 38.3564 67.207C38.3444 67.467 38.2911 67.7683 38.1044 68.063C37.9471 68.3697 37.5764 68.603 37.2337 68.6803C36.8911 68.739 36.5644 68.7057 36.3031 68.6097C35.7577 68.4337 35.3417 68.1003 35.0044 67.7057C34.6711 67.307 34.4257 66.8257 34.3164 66.2937L35.6257 66.2217C35.5831 66.707 35.4817 67.2177 35.1724 67.7003C35.0137 67.9377 34.8124 68.171 34.5284 68.335C34.3937 68.4257 34.2391 68.4883 34.0697 68.5297C33.9111 68.587 33.7271 68.5737 33.5564 68.5803C33.3884 68.547 33.2044 68.5323 33.0564 68.451C32.8977 68.3843 32.7564 68.299 32.6377 68.1897C32.3831 67.9843 32.2297 67.719 32.1151 67.4643C32.0111 67.207 31.9431 66.943 31.9257 66.6937C31.8844 66.4377 31.9177 66.2003 31.9217 65.9577L32.7617 66.519C32.1724 66.7883 31.5431 66.9683 30.8924 67.0457C30.2457 67.1163 29.5404 67.0923 28.8897 66.7177C28.5751 66.5403 28.2684 66.2057 28.2137 65.815C28.1231 65.431 28.2417 65.087 28.3551 64.7857C28.5017 64.4977 28.6657 64.231 28.8697 63.995C29.0524 63.7457 29.2977 63.5723 29.5084 63.3563Z" fill="#6E8600"/>
<path d="M180.981 38.6982C181.02 39.1995 181.064 39.6848 181.211 40.1328C181.352 40.5728 181.601 41.0035 181.907 41.1955C181.981 41.2222 182.052 41.2702 182.104 41.2568C182.163 41.2742 182.191 41.2422 182.231 41.2195C182.308 41.1862 182.388 41.0128 182.452 40.8528C182.569 40.4875 182.577 40.0248 182.565 39.5795C182.559 39.2902 182.787 39.0502 183.076 39.0422C183.253 39.0382 183.413 39.1235 183.511 39.2555L183.548 39.3075C183.981 39.9062 184.813 40.3608 185.532 40.3848C185.711 40.4035 185.86 40.3675 185.963 40.3342C186.056 40.2808 186.097 40.2622 186.115 40.1848C186.135 40.1595 186.145 40.1088 186.143 40.0395C186.159 39.9875 186.148 39.9062 186.132 39.8222C186.132 39.6675 186.035 39.4675 185.996 39.2835L185.973 39.1742C185.899 38.8182 186.128 38.4688 186.484 38.3955C186.751 38.3395 187.012 38.4542 187.159 38.6648C187.284 38.8435 187.483 39.0035 187.711 39.1088C187.936 39.2142 188.199 39.2595 188.385 39.2342C188.473 39.2155 188.54 39.1968 188.569 39.1728C188.607 39.1568 188.62 39.1355 188.643 39.0728C188.667 39.0555 188.649 38.9915 188.661 38.9515C188.676 38.9115 188.653 38.8422 188.649 38.7848C188.652 38.6715 188.58 38.5248 188.551 38.3915L188.525 38.2742C188.459 37.9715 188.651 37.6715 188.953 37.6062C188.996 37.5968 189.041 37.5928 189.083 37.5928C189.629 37.6022 190.184 37.6075 190.728 37.5488C191.264 37.4862 191.821 37.4035 192.261 37.2008C192.372 37.1515 192.469 37.0955 192.539 37.0315C192.615 36.9675 192.669 36.9142 192.683 36.8448C192.725 36.7835 192.687 36.6888 192.676 36.5875C192.615 36.4888 192.569 36.3742 192.484 36.2742C192.153 35.8515 191.656 35.5302 191.196 35.1755C191.464 35.2835 191.749 35.3662 192.012 35.5022C192.279 35.6328 192.537 35.7835 192.783 35.9822C192.905 36.0795 193.011 36.2182 193.123 36.3475C193.203 36.5195 193.304 36.6902 193.276 36.9235C193.279 37.1355 193.163 37.3568 193.044 37.4902C192.92 37.6448 192.783 37.7528 192.64 37.8462C192.073 38.2168 191.481 38.3888 190.887 38.5182C190.289 38.6408 189.689 38.7288 189.083 38.7462L189.616 37.9475C189.685 38.1555 189.784 38.3315 189.819 38.5755C189.839 38.6942 189.873 38.7995 189.867 38.9382C189.86 39.0742 189.881 39.1955 189.836 39.3448C189.783 39.6262 189.621 39.9422 189.373 40.1422C189.132 40.3555 188.851 40.4515 188.591 40.4995C188.071 40.5795 187.608 40.4795 187.183 40.3022C186.761 40.1195 186.372 39.8368 186.077 39.4368L187.24 38.8168C187.323 39.0982 187.427 39.3475 187.447 39.6782C187.467 39.8328 187.481 39.9915 187.451 40.1795C187.439 40.3542 187.399 40.5355 187.303 40.7275C187.153 41.1088 186.78 41.4062 186.433 41.5355C186.084 41.6582 185.744 41.6888 185.444 41.6542C184.833 41.5888 184.305 41.3702 183.828 41.0728C183.355 40.7728 182.927 40.3742 182.641 39.8515L183.623 39.5795C183.573 40.1142 183.531 40.6542 183.269 41.2062C183.109 41.4702 182.945 41.7768 182.547 41.9328C182.373 42.0022 182.131 42.0328 181.959 41.9675C181.76 41.9275 181.632 41.8168 181.493 41.7208C181.045 41.2608 180.923 40.7168 180.856 40.2062C180.788 39.6875 180.873 39.1768 180.981 38.6982Z" fill="#709A03"/>
<path d="M202.998 73.924C203.019 74.1774 203.006 74.4467 203.066 74.684C203.091 74.924 203.175 75.1574 203.255 75.3787C203.355 75.596 203.475 75.7894 203.619 75.96C203.777 76.1174 203.934 76.2574 204.109 76.336C204.281 76.4214 204.454 76.4267 204.579 76.396C204.637 76.3574 204.697 76.3574 204.742 76.3C204.791 76.26 204.839 76.2134 204.874 76.136C204.955 76.008 205.014 75.8227 205.034 75.6187C205.081 75.4294 205.049 75.192 205.066 74.9814L205.067 74.972C205.094 74.652 205.375 74.4134 205.695 74.4414C205.931 74.46 206.123 74.62 206.195 74.8307C206.301 75.1307 206.463 75.4067 206.674 75.6267C206.882 75.8427 207.139 76.012 207.357 76.0627C207.595 76.1054 207.621 76.0734 207.687 75.9654C207.725 75.908 207.762 75.7974 207.779 75.6587C207.815 75.5347 207.794 75.3574 207.803 75.204L207.806 75.1667C207.83 74.792 208.154 74.5067 208.529 74.532C208.67 74.54 208.798 74.5907 208.901 74.672C209.098 74.824 209.349 74.968 209.657 75.0614C209.969 75.148 210.299 75.2107 210.643 75.2494C210.991 75.2667 211.341 75.2747 211.693 75.2374C212.041 75.2067 212.394 75.1627 212.723 75.064C212.898 75.0307 213.042 74.9574 213.198 74.896C213.369 74.8467 213.471 74.748 213.617 74.6734C213.722 74.5854 213.835 74.488 213.89 74.3814C213.909 74.3267 213.933 74.272 213.965 74.2147C213.971 74.1534 213.958 74.0867 213.962 74.0187C213.998 73.876 213.865 73.7307 213.818 73.5747C213.759 73.4134 213.607 73.2894 213.503 73.1414C213.278 72.8454 212.958 72.6227 212.686 72.34C213.026 72.516 213.415 72.6374 213.726 72.8987C213.878 73.0334 214.069 73.124 214.197 73.3027C214.314 73.488 214.507 73.624 214.55 73.8854C214.581 74.0054 214.626 74.1294 214.634 74.256C214.615 74.384 214.59 74.516 214.559 74.6467C214.486 74.892 214.322 75.1014 214.17 75.2787C213.998 75.424 213.827 75.6094 213.637 75.7014C213.446 75.8094 213.254 75.928 213.055 75.9947C212.267 76.3254 211.438 76.468 210.591 76.4627C210.167 76.4467 209.735 76.416 209.302 76.2947C208.866 76.176 208.426 75.9707 208.018 75.6427L209.114 75.1107C209.114 75.3574 209.143 75.5867 209.093 75.8574C209.065 76.1134 208.983 76.4027 208.803 76.6787C208.722 76.82 208.606 76.948 208.459 77.0614C208.331 77.1867 208.149 77.2454 207.986 77.3174C207.649 77.4067 207.306 77.4014 207.033 77.3147C206.47 77.1574 206.054 76.828 205.739 76.4414C205.422 76.0547 205.206 75.604 205.086 75.132L206.217 74.9814C206.183 75.276 206.185 75.5547 206.082 75.856C206.007 76.1467 205.882 76.456 205.654 76.728C205.551 76.8694 205.411 76.9894 205.242 77.0867C205.091 77.1974 204.881 77.2307 204.702 77.264C204.321 77.2854 203.979 77.1587 203.721 76.972C203.458 76.7894 203.269 76.5467 203.127 76.2934C202.995 76.032 202.91 75.764 202.859 75.4934C202.826 75.22 202.799 74.952 202.833 74.6827C202.838 74.4107 202.942 74.176 202.998 73.924Z" fill="#709A03"/>
<path d="M204.76 50.8511L204.517 51.2164C204.419 51.3324 204.408 51.4817 204.345 51.6004C204.249 51.8457 204.209 52.1257 204.245 52.3804C204.264 52.6377 204.36 52.8844 204.488 53.0977C204.617 53.3124 204.789 53.4924 204.973 53.6431C205.167 53.7857 205.379 53.8804 205.584 53.9097C205.687 53.9044 205.788 53.9431 205.879 53.9057C205.971 53.8937 206.061 53.8751 206.139 53.8177C206.225 53.7897 206.297 53.7217 206.367 53.6471C206.447 53.5911 206.507 53.4991 206.564 53.4004C206.7 53.2377 206.757 52.9751 206.863 52.7671L206.875 52.7444C207.019 52.4604 207.367 52.3471 207.652 52.4911C207.883 52.6084 208 52.8617 207.957 53.1031C207.892 53.4924 207.86 53.8817 207.931 54.2111C207.973 54.3697 208.031 54.5084 208.1 54.6151C208.143 54.6497 208.167 54.7191 208.208 54.7351C208.243 54.7657 208.277 54.7897 208.307 54.7937C208.336 54.8231 208.361 54.7937 208.388 54.8111C208.413 54.7911 208.441 54.8124 208.475 54.7791C208.509 54.7737 208.547 54.7377 208.587 54.7017C208.632 54.6844 208.664 54.6031 208.709 54.5604C208.867 54.3257 208.972 53.9631 209.039 53.5884L209.043 53.5644C209.105 53.2071 209.447 52.9671 209.804 53.0297C210.103 53.0817 210.319 53.3271 210.345 53.6151C210.376 53.9191 210.46 54.2097 210.611 54.4484C210.756 54.6857 210.972 54.8684 211.16 54.9391C211.359 55.0057 211.437 54.9831 211.567 54.8391C211.629 54.7644 211.688 54.6431 211.724 54.4964C211.78 54.3631 211.779 54.1831 211.808 54.0217L211.82 53.9591C211.873 53.6671 212.153 53.4737 212.445 53.5271C212.572 53.5511 212.681 53.6177 212.759 53.7111C212.895 53.8724 213.003 54.0737 213.157 54.2124C213.299 54.3737 213.461 54.4964 213.629 54.6151C213.8 54.7204 213.981 54.8177 214.173 54.8604C214.268 54.9004 214.363 54.8911 214.46 54.9057C214.561 54.9284 214.648 54.8897 214.747 54.8897C215.121 54.8404 215.464 54.5577 215.464 54.1444C215.457 53.9431 215.392 53.7191 215.259 53.5284C215.148 53.3164 214.969 53.1497 214.8 52.9644C215.009 53.0937 215.239 53.2097 215.42 53.4004C215.608 53.5791 215.752 53.8217 215.821 54.1031C215.873 54.3831 215.836 54.7191 215.648 54.9684C215.483 55.2364 215.215 55.4111 214.936 55.5284C214.792 55.5617 214.644 55.6284 214.497 55.6271C214.349 55.6324 214.195 55.6564 214.052 55.6271C213.753 55.6044 213.475 55.5097 213.208 55.3951C212.671 55.1551 212.28 54.7417 211.909 54.3324L212.86 54.0217C212.851 54.2591 212.873 54.4871 212.813 54.7417C212.776 54.9871 212.685 55.2524 212.519 55.5031C212.367 55.7577 212.088 55.9871 211.769 56.1044C211.451 56.2124 211.104 56.2137 210.819 56.1284C210.232 55.9684 209.812 55.5831 209.528 55.1511C209.241 54.7137 209.089 54.2177 209.036 53.7244L210.343 53.7511C210.289 54.0151 210.275 54.2737 210.172 54.5431C210.096 54.8097 209.959 55.0777 209.781 55.3324C209.672 55.4577 209.596 55.5897 209.447 55.6964C209.312 55.8097 209.172 55.9137 208.985 55.9831C208.645 56.1444 208.188 56.1511 207.832 55.9951C207.452 55.8551 207.212 55.5724 207.02 55.2991C206.852 55.0137 206.767 54.7177 206.715 54.4297C206.633 53.8537 206.724 53.3257 206.844 52.8244L207.94 53.1631C207.781 53.4671 207.669 53.7764 207.412 54.0497C207.303 54.1911 207.184 54.3257 207.019 54.4351C206.869 54.5537 206.712 54.6591 206.515 54.7177C206.335 54.8017 206.139 54.8284 205.94 54.8324C205.74 54.8631 205.557 54.7911 205.372 54.7551C205.015 54.6417 204.717 54.4377 204.476 54.1937C204.243 53.9431 204.053 53.6591 203.951 53.3417C203.843 53.0311 203.791 52.6964 203.833 52.3764C203.859 52.0551 203.971 51.7511 204.14 51.4897C204.233 51.3644 204.307 51.2204 204.427 51.1377L204.76 50.8511Z" fill="#6E8600"/>
<path d="M247.912 67.9358C248.277 68.1758 248.657 68.3211 249.048 68.4011C249.431 68.4891 249.837 68.4904 250.16 68.4024C250.243 68.3838 250.313 68.3544 250.365 68.3171C250.439 68.2918 250.441 68.2398 250.479 68.2184C250.473 68.1838 250.492 68.1744 250.472 68.1438C250.485 68.1344 250.444 68.0704 250.441 68.0318C250.357 67.8078 250.069 67.5211 249.805 67.2771C249.579 67.0691 249.564 66.7171 249.772 66.4904C249.931 66.3184 250.172 66.2691 250.38 66.3478L250.453 66.3758L251.209 66.6651L251.975 66.8624C252.227 66.9051 252.477 66.9291 252.727 66.9678C252.969 66.9638 253.203 66.9358 253.44 66.9304L252.896 67.4744C252.911 67.2944 252.919 67.1211 252.901 66.9491C252.877 66.7798 252.825 66.6171 252.753 66.4584C252.668 66.3038 252.565 66.1571 252.44 66.0198C252.304 65.8891 252.163 65.7584 251.999 65.6438L251.953 65.6118C251.677 65.4184 251.609 65.0371 251.804 64.7611C251.959 64.5384 252.237 64.4518 252.484 64.5264C253.295 64.7758 254.307 64.7504 255.232 64.5224C255.465 64.4678 255.696 64.3944 255.896 64.2971C256.004 64.2504 256.097 64.2038 256.169 64.1478C256.245 64.1024 256.287 64.0371 256.288 64.0571C256.308 64.0491 256.284 63.9784 256.183 63.9211C256.107 63.8518 255.992 63.8051 255.873 63.7624C255.647 63.6584 255.385 63.6118 255.133 63.5318C255.393 63.5224 255.661 63.4571 255.935 63.4984C256.072 63.5064 256.211 63.5158 256.361 63.5758C256.493 63.6038 256.708 63.7278 256.772 63.9638C256.803 64.0998 256.791 64.2278 256.741 64.3078C256.703 64.4051 256.653 64.5011 256.599 64.5504C256.493 64.6851 256.379 64.7931 256.259 64.8758C256.02 65.0544 255.772 65.1891 255.516 65.3064C254.493 65.7611 253.353 65.9731 252.147 65.7078L252.631 64.5904C252.883 64.7384 253.129 64.9051 253.347 65.1158C253.561 65.3318 253.751 65.5784 253.905 65.8531C254.051 66.1358 254.156 66.4371 254.211 66.7531C254.259 67.0704 254.249 67.3851 254.201 67.6918L254.191 67.7598C254.149 68.0304 253.921 68.2251 253.659 68.2371C253.319 68.2504 252.972 68.2744 252.639 68.2638C252.319 68.2118 251.992 68.1704 251.679 68.0998C251.38 67.9958 251.079 67.8971 250.785 67.7878L249.951 67.3824L250.601 66.4824C250.891 66.8571 251.215 67.1998 251.36 67.7984C251.375 67.9678 251.42 68.1131 251.357 68.3091C251.328 68.4984 251.211 68.6558 251.087 68.7958C250.955 68.8944 250.807 69.0038 250.671 69.0318C250.531 69.0838 250.397 69.1051 250.271 69.1104C249.757 69.1424 249.309 68.9891 248.905 68.7918C248.507 68.5811 248.152 68.2838 247.912 67.9358Z" fill="#6E8600"/>
<path d="M55.0503 108.621C54.929 108.959 54.8237 109.301 54.757 109.619L54.6903 110.103C54.7023 110.261 54.7103 110.412 54.709 110.559L54.4623 110.213L55.185 110.232C55.425 110.173 55.6583 110.128 55.8863 110.076C56.105 109.96 56.325 109.871 56.5423 109.777L57.1197 109.359C57.4077 109.149 57.809 109.213 58.0183 109.501C58.1317 109.656 58.1637 109.844 58.1263 110.017L58.1157 110.065C58.0757 110.245 58.0023 110.432 57.9757 110.601C57.9397 110.777 57.929 110.931 57.9357 111.052C57.9423 111.107 57.961 111.124 57.9583 111.157C57.9743 111.137 57.9463 111.156 57.9383 111.128C57.881 111.115 57.941 111.147 58.0717 111.132C58.3277 111.108 58.685 110.964 59.0143 110.803C59.349 110.636 59.6637 110.411 59.957 110.181L60.0117 110.14C60.2343 109.967 60.5517 110 60.7357 110.208L60.9823 110.488C61.0623 110.608 61.153 110.624 61.237 110.697C61.3277 110.792 61.397 110.767 61.481 110.809C61.5277 110.843 61.561 110.807 61.6023 110.803C61.6397 110.788 61.693 110.804 61.7357 110.773C61.8023 110.696 61.937 110.677 61.9957 110.551C62.0623 110.443 62.165 110.344 62.2037 110.203C62.2477 110.069 62.3357 109.935 62.3517 109.785L62.4477 109.325L62.561 109.795C62.6023 109.956 62.5717 110.123 62.577 110.295C62.5917 110.469 62.5103 110.633 62.4623 110.811C62.4277 110.992 62.265 111.143 62.1477 111.308C62.0783 111.384 61.9663 111.428 61.869 111.484C61.7663 111.532 61.665 111.603 61.5517 111.593C61.3317 111.607 61.0743 111.625 60.901 111.532C60.713 111.457 60.4943 111.383 60.369 111.26L59.933 110.909L60.7117 110.936C60.401 111.305 60.029 111.593 59.6343 111.859C59.2317 112.119 58.7997 112.341 58.2117 112.428C57.929 112.463 57.5237 112.473 57.133 112.183C56.9303 112.051 56.8277 111.856 56.7277 111.66C56.6743 111.489 56.629 111.3 56.621 111.145C56.6117 110.839 56.6503 110.572 56.709 110.332C56.761 110.083 56.845 109.871 56.917 109.643L57.913 110.349L57.069 110.836C56.761 110.94 56.4503 111.039 56.141 111.117C55.8157 111.144 55.4877 111.149 55.1703 111.157C54.8477 111.091 54.5317 110.992 54.2317 110.904L54.185 110.891C54.0397 110.848 53.9543 110.704 53.9823 110.559C54.021 110.36 54.069 110.165 54.121 109.977L54.3623 109.464C54.5677 109.139 54.7903 108.868 55.0503 108.621Z" fill="#709A03"/>
<path d="M80.2363 26.368C80.0163 26.42 79.775 26.4454 79.5723 26.5187C79.363 26.5707 79.1737 26.668 78.995 26.7574C78.835 26.8667 78.691 26.9894 78.6457 27.1227C78.6057 27.184 78.6057 27.2454 78.6017 27.2987C78.6163 27.3547 78.611 27.4027 78.6523 27.4534C78.691 27.5547 78.823 27.64 78.935 27.7254C79.0723 27.8014 79.231 27.8534 79.399 27.8934C79.7497 27.948 80.131 27.9347 80.5123 27.8787C80.835 27.8307 81.1377 28.0534 81.1857 28.376C81.203 28.496 81.1843 28.612 81.1363 28.7147L81.075 28.8454L80.8643 29.296L80.7017 29.8494C80.6097 30.2627 80.4937 30.7214 80.323 31.1947L79.4123 30.3534L80.0523 30.1174L80.6177 29.964C80.779 29.9134 80.9177 29.856 81.075 29.8147C81.187 29.7534 81.275 29.6907 81.3937 29.6414L81.6323 29.5387C81.923 29.416 82.2577 29.552 82.3803 29.8414C82.439 29.9787 82.439 30.1267 82.3923 30.2574C82.2643 30.6187 82.163 30.9854 82.1417 31.3254C82.1417 31.4894 82.1523 31.648 82.2017 31.7734C82.2483 31.8987 82.3083 31.988 82.4003 32.0627C82.591 32.1894 82.979 32.1574 83.3217 31.9574C83.6697 31.7614 83.987 31.4587 84.287 31.124C84.1523 31.548 83.9563 31.976 83.6163 32.3307C83.2923 32.6707 82.7497 33 82.0977 32.812C81.787 32.7054 81.5163 32.4787 81.367 32.2107C81.2083 31.9454 81.139 31.6667 81.0963 31.3947C81.0257 30.852 81.1283 30.3534 81.2497 29.876L82.2483 30.4934C82.0457 30.6547 81.827 30.8267 81.6097 30.9587C81.4057 31.048 81.1843 31.128 80.983 31.2014L80.439 31.3667L80.0043 31.5414C79.6523 31.6814 79.2523 31.5107 79.111 31.1587C79.0523 31.0134 79.047 30.8614 79.087 30.7214L79.0923 30.7014C79.1443 30.5134 79.2097 30.332 79.2723 30.148L79.4457 29.5187L79.6803 28.8187C79.807 28.58 79.9563 28.344 80.1003 28.1174L80.663 29.084C80.151 29.108 79.619 29.1014 79.0977 28.9094C78.8363 28.8054 78.5857 28.672 78.3563 28.4814C78.251 28.3654 78.131 28.2787 78.0523 28.132C77.9657 27.9974 77.895 27.8507 77.8643 27.6774C77.7897 27.352 77.875 26.9587 78.0977 26.7334C78.3057 26.4894 78.5723 26.388 78.8163 26.3094C79.0643 26.2547 79.3123 26.2334 79.5523 26.2547C79.7937 26.248 80.007 26.3334 80.2363 26.368Z" fill="#709A03"/>
<path d="M138.712 12.2775C138.939 11.9308 139.252 11.5895 139.691 11.3962C139.907 11.2935 140.163 11.2495 140.436 11.2615C140.701 11.3015 140.997 11.4068 141.201 11.6282C141.423 11.8348 141.548 12.1108 141.612 12.3815C141.667 12.6522 141.667 12.9162 141.64 13.1708C141.581 13.6815 141.376 14.1135 141.164 14.5308L140.38 13.6748C140.753 13.4748 141.175 13.3122 141.648 13.2842C142.113 13.2535 142.656 13.3428 143.116 13.7108C143.599 14.0695 143.775 14.7682 143.68 15.2748C143.592 15.7975 143.352 16.2028 143.077 16.5335L142.709 15.5415C143.3 15.6908 143.764 16.0282 144.105 16.4255C144.44 16.8308 144.692 17.2868 144.803 17.7988C144.86 18.0522 144.877 18.3215 144.843 18.5922C144.812 18.8642 144.685 19.1375 144.503 19.3455C144.392 19.4322 144.305 19.5495 144.175 19.5868C144.052 19.6375 143.937 19.6962 143.812 19.7002C143.571 19.7562 143.336 19.7015 143.116 19.6748C143.335 19.6082 143.545 19.5482 143.72 19.4388C143.815 19.4015 143.877 19.3202 143.945 19.2602C144.023 19.2082 144.044 19.1122 144.095 19.0508C144.227 18.7495 144.143 18.3855 143.989 18.0575C143.68 17.4028 143.028 16.8322 142.464 16.7615C142.141 16.7215 141.912 16.4268 141.952 16.1042C141.963 16.0175 141.992 15.9388 142.035 15.8682L142.096 15.7695C142.247 15.5268 142.372 15.2882 142.389 15.0962C142.404 14.9028 142.363 14.8122 142.263 14.7268C142.165 14.6362 141.959 14.5628 141.712 14.5735C141.467 14.5842 141.192 14.6468 140.919 14.7548L140.857 14.7802C140.551 14.9015 140.201 14.7508 140.08 14.4428C140.008 14.2575 140.035 14.0548 140.135 13.8975C140.331 13.5962 140.508 13.2815 140.608 12.9722C140.703 12.6628 140.705 12.3615 140.588 12.1602C140.485 11.9482 140.184 11.8148 139.819 11.8562C139.457 11.8922 139.081 12.0535 138.712 12.2775Z" fill="#709A03"/>
<path d="M135.189 40.4585C135.275 40.9639 135.383 41.4559 135.612 41.8292C135.728 42.0092 135.877 42.1572 136.017 42.1905C136.088 42.2065 136.149 42.2239 136.217 42.2012C136.279 42.1945 136.344 42.1585 136.409 42.1199C136.672 41.9479 136.899 41.5772 137.021 41.1825C137.148 40.7799 137.2 40.3385 137.216 39.8972C137.228 39.5599 137.511 39.2959 137.848 39.3079C138.084 39.3172 138.284 39.4585 138.38 39.6585L138.409 39.7239C138.581 40.0932 138.791 40.4265 139.069 40.6559C139.343 40.8865 139.672 40.9932 139.951 40.9905C140.091 40.9825 140.217 40.9479 140.323 40.8745C140.427 40.8012 140.529 40.7092 140.595 40.5652C140.675 40.4359 140.739 40.2665 140.76 40.0759C140.805 39.8932 140.783 39.6785 140.789 39.4719L140.792 39.3692C140.801 39.0612 141.059 38.8199 141.365 38.8292C141.459 38.8319 141.548 38.8585 141.623 38.9012C141.915 39.0665 142.215 39.2119 142.493 39.2225C142.763 39.2305 143.013 39.1399 143.185 38.9012C143.353 38.6692 143.432 38.3145 143.312 37.9812C143.213 37.6425 142.94 37.3345 142.587 37.1119C142.995 37.1785 143.42 37.3919 143.692 37.7905C143.956 38.1812 144.051 38.7372 143.835 39.2319C143.741 39.4825 143.56 39.7079 143.335 39.8772C143.109 40.0519 142.835 40.1439 142.563 40.1812C142.015 40.2439 141.525 40.0932 141.084 39.9025L141.917 39.3319C141.941 39.6185 141.992 39.8999 141.956 40.2079C141.944 40.5065 141.875 40.8292 141.728 41.1359C141.6 41.4452 141.351 41.7332 141.055 41.9425C140.759 42.1572 140.397 42.2759 140.047 42.3052C139.332 42.3625 138.684 42.0585 138.217 41.6452C137.747 41.2265 137.431 40.6905 137.251 40.1372L138.444 39.9639C138.369 40.5145 138.28 41.0705 138.017 41.5945C137.749 42.0972 137.405 42.6439 136.741 42.8879C136.573 42.9425 136.401 42.9799 136.212 42.9599C136.033 42.9585 135.84 42.8812 135.696 42.7932C135.384 42.5972 135.252 42.2932 135.161 42.0279C135.001 41.4759 135.084 40.9452 135.189 40.4585Z" fill="#709A03"/>
</svg>
