<svg width="190" height="195" viewBox="0 0 190 195" fill="none" xmlns="http://www.w3.org/2000/svg">
<path d="M1.32625 41.5227C5.58492 50.5733 24.7822 51.2533 36.4169 45.784C28.6529 40.6347 16.2062 37.0427 18.1836 32.296C21.7329 34.0707 24.9262 35.844 28.1209 37.6187C31.0662 39.0227 34.0209 40.2893 36.9902 41.452C34.6329 37.5253 32.5782 31.2493 31.6702 28.392C32.0236 28.2147 33.2662 27.6813 33.4449 27.6813C35.5929 33.8387 39.0142 39.8787 44.0769 44.032C54.6049 47.624 65.3409 50.2987 76.3862 53.5893C83.4849 56.0733 93.7769 64.5907 98.7449 70.2693C101.94 74.1733 103.358 78.7867 106.197 82.6907C109.037 86.9507 114.361 86.9507 117.201 90.8547C117.201 90.144 117.556 88.3693 117.91 87.66C119.686 84.8213 121.814 80.5613 123.589 77.012C126.428 72.7533 125.364 70.624 123.589 66.0107C121.814 62.1067 117.024 53.2347 113.83 50.3947C112.313 49.0307 111.36 47.692 110.584 46.2267C107.994 45.708 104.817 43.296 102.826 42.7653C100.165 41.8773 95.1956 40.9907 92.5342 41.3453C90.5822 41.5227 89.1636 42.9427 87.2116 43.12C85.4369 43.2973 83.4849 42.9427 81.5316 42.5867C78.6929 41.8773 72.6596 40.6347 70.8862 38.1507C72.3049 35.844 81.3542 41.3453 84.5489 41.168C88.0982 40.9907 88.9849 39.9253 85.6142 38.5067C83.1302 37.4413 80.8222 36.5533 78.3396 35.6667C81.7102 33.892 84.9049 36.9093 88.0983 37.9733C91.1156 39.0387 94.6636 39.5707 97.8569 39.9253C99.6023 40.2173 105.857 41.2147 107.584 39.1347C106.072 35.68 105.141 32.916 104.56 30.4067C96.0863 28.0453 86.2489 20.3893 80.8222 13.4853C83.3062 11.356 84.7276 14.3733 86.6796 16.148C89.1636 18.4547 91.6463 20.7613 94.4863 22.7133C97.2249 24.6453 100.404 26.6987 103.886 26.536C103.142 20.2653 103.961 14.1453 101.94 6.49038e-06C102.649 6.49038e-06 103.358 1.51132e-05 104.069 0.354682C104.865 4.33735 105.449 8.32134 106.076 12.304C107.066 12.7653 109.206 11.208 109.629 10.704C111.013 9.21201 111.972 7.40001 113.145 5.80001C114.104 4.41468 114.956 2.17602 116.236 1.11068C117.514 0.0453502 117.833 0.790683 117.301 2.38935C116.661 3.77468 115.702 5.16134 114.85 6.54668C113.358 9.21201 111.758 11.4493 109.308 13.368C108.552 13.9333 107.648 15.2373 106.661 15.9093C107.285 19.5973 106.941 24.8813 107.972 28.5693C108.682 32.1173 110.457 34.4253 111.521 37.9733C111.989 39.184 112.578 40.2693 113.24 41.2947C113.946 41.44 114.705 41.4307 115.169 41.2933C118.26 40.12 118.578 35.2173 119.538 32.4467C120.522 29.7907 121.244 26.8667 122.688 24.4213C123.29 20.9853 123.528 17.4027 124.017 13.9C124.336 11.556 124.017 1.21735 127.64 1.96402C127.745 3.66802 127 5.58667 126.786 7.18667C126.574 9.10534 126.36 10.916 126.146 12.728C125.885 15.3493 125.569 18.0973 125.516 20.5933C126.47 19.456 127.446 18.32 128.28 17.0987C131.156 13.048 133.82 8.99734 134.568 3.88268C137.766 3.13601 135.74 8.78534 135.206 10.276C134.246 12.8347 132.329 14.6467 131.05 16.8853C130.41 18.1627 129.984 19.4427 129.132 20.5093C128.28 21.468 127.106 22.2147 126.466 23.28C125.402 25.3053 124.976 27.9693 124.23 30.1013C122.844 33.724 119.965 36.816 119.326 40.6533C118.914 43.12 118.693 45.7733 118.468 48.3267C118.765 48.768 119.056 49.216 119.33 49.6853C122.88 55.7187 131.042 64.9453 131.752 71.6893C132.462 79.852 120.396 87.3053 125.718 94.7573C133.881 105.76 139.205 94.4027 143.109 88.0147C145.67 83.7453 149.386 79.0027 152.792 74.2813C152.9 73.0027 152.9 71.6907 152.9 70.9227C153.008 67.832 152.473 64.7413 151.621 61.756C150.768 58.5587 148.85 55.6813 148.21 52.484C148.017 51.3787 147.881 50.3907 147.629 49.4013C146.44 49.0387 144.733 48.052 143.946 47.58C141.708 46.196 141.282 44.1707 140.004 42.0387C138.725 39.8 137.87 37.7747 137.126 35.3253C136.698 33.4067 134.888 29.356 136.38 27.6493C138.298 29.1427 138.937 34.3653 140.004 36.7093C141.208 39.3973 142.737 42.244 145.288 43.712C144.34 40.7933 143.077 38.0307 142.774 34.7907C142.561 31.8067 142.986 28.8227 142.668 25.7307C141.814 19.2293 141.602 12.516 142.454 6.01335C145.333 5.90669 144.373 8.57201 144.268 10.8107C144.16 13.2613 144.16 15.82 144.373 18.272C145.014 24.1334 144.906 30.3147 146.077 36.1773C147.357 43.3187 151.408 49.0733 154.498 55.4667C155.774 58.0187 157.465 63.544 157.257 67.6427C157.785 66.7733 158.28 65.9107 158.724 65.0627C161.564 60.0933 164.757 25.1973 176.114 27.3267C174.121 27.4213 170.014 35.7733 167.681 42.6613C167.852 42.7187 168.042 42.7587 168.246 42.784C170.804 43.1053 173.469 40.2267 175.069 38.8413C177.41 36.816 179.225 35.4293 181.994 34.0453C184.341 32.872 186.686 31.7 189.03 30.4213C189.352 30.528 189.882 31.06 189.989 31.2733C188.284 32.872 185.618 33.724 183.594 35.004C181.144 36.7093 179.012 38.0947 176.986 40.3333C174.961 42.4653 172.617 42.9973 170.058 44.1707C168.59 44.904 167.498 45.848 166.442 46.8947C164.765 53.872 164.702 61.1693 161.917 67.7853C159.964 71.988 157.288 75.9867 154.54 79.972C156.352 79.2107 158.173 78.536 160.146 78.1707C164.41 77.5307 168.248 78.1707 172.405 78.4907C172.832 80.516 172.51 80.836 170.698 80.836C169.313 80.836 168.034 80.6227 166.648 80.6227C164.304 80.516 162.172 80.7293 159.933 81.368C157.164 82.22 154.498 83.5013 152.048 84.9933C151.51 85.2587 151.013 85.5667 150.512 85.8693C144.816 94.4667 140.242 103.439 143.106 114.671C147.149 130.523 158.369 143.495 153.401 156.156C150.774 162.844 145.593 168.932 147.368 176.385C148.788 181.709 151.981 185.257 151.272 191.288L150.562 191.643C142.753 195.548 127.849 194.483 118.266 191.997C113.298 190.933 113.652 190.933 114.008 186.323C114.008 183.128 115.072 179.935 115.782 177.095C118.125 170.735 121.117 166.879 125.317 161.4C125.413 157.465 124.333 153.825 123.374 149.901C122.629 147.023 119.857 146.704 118.578 144.039C117.725 142.12 116.448 139.243 116.554 137.109C119.538 137.004 119.538 141.161 121.136 143.079C122.842 145.212 125.293 145.317 126.145 147.983C126.985 150.275 127.944 154.468 130.105 155.372C133.297 151.373 135.266 148.016 134.237 140.54C133.526 135.571 131.042 134.861 128.558 130.603C126.784 127.763 127.138 123.504 126.428 119.956C124.654 110.019 121.461 106.824 113.298 101.501C106.909 97.5973 101.23 87.66 97.6809 80.916C94.6409 75.3907 89.9782 70.3573 84.5076 66.0293C84.2169 66.02 83.9276 66.0107 83.6622 66.0107C81.3542 66.0107 80.1129 65.8333 78.1609 66.72C76.2089 67.6067 75.1436 68.4947 72.8382 68.672C68.5782 69.0267 65.3849 68.672 61.3036 70.092C55.4476 72.3987 44.2689 70.8013 38.9449 67.252C39.8329 63.8813 46.7529 67.7853 49.4142 68.3173C52.2529 68.8493 57.9316 70.0613 60.7209 68.2987C55.9302 68.12 52.4316 66.5427 47.9956 64.236C48.8822 63.3493 49.4142 62.4613 50.1249 61.5747C55.9062 67.852 72.9009 68.2787 80.8062 63.2987C72.9889 57.892 64.0102 53.8667 55.8022 51.8147C53.6382 51.2133 48.2116 49.7547 42.1209 47.7587C41.8316 47.952 41.5302 48.1267 41.2516 48.2653C38.4116 49.6853 33.7982 50.2173 30.7822 50.928C26.8782 51.8147 22.9742 52.524 19.0716 52.3467C14.1902 51.956 -5.19375 47.872 1.32625 41.5227Z" fill="#815151"/>
<path d="M140.677 189.66C140.677 189.66 140.237 187.265 139.466 183.076C139.135 180.971 138.767 178.395 138.769 175.403C138.803 174.655 138.838 173.883 138.874 173.088C138.99 172.299 139.11 171.485 139.233 170.652C139.597 169.013 139.983 167.321 140.43 165.544C141.294 161.989 142.327 158.175 143.094 154.085C143.857 150.009 144.357 145.623 144.101 141.147C143.67 136.74 141.653 132.421 140.039 127.887C139.233 125.612 138.55 123.223 138.287 120.739C137.997 118.225 138.305 115.768 138.266 113.372C138.349 108.531 138.282 103.607 139.147 98.7921C139.894 93.8441 142.706 89.7121 145.353 86.0281C148.033 82.3188 150.801 78.8921 152.659 75.2108C153.573 73.3721 154.255 71.4894 154.602 69.6014C154.882 67.7214 154.885 65.8014 154.685 64.0388C154.266 60.4601 153.205 57.2748 151.982 54.6041C150.757 51.9241 149.303 49.7761 147.942 48.1561C146.566 46.5401 145.278 45.4681 144.374 44.7761C143.425 44.1494 142.917 43.8148 142.917 43.8148C142.917 43.8148 143.438 44.1294 144.417 44.7174C145.346 45.3761 146.703 46.3894 148.138 47.9854C149.563 49.5788 151.101 51.7081 152.427 54.3881C153.757 57.0588 154.945 60.2694 155.429 63.9481C155.671 65.8094 155.707 67.7148 155.449 69.7388C155.122 71.7334 154.443 73.7174 153.533 75.6401C151.679 79.4828 148.941 83.0228 146.291 86.7028C144.977 88.5494 143.677 90.4601 142.605 92.4841C142.358 92.9974 142.081 93.4814 141.853 94.0214C141.641 94.5614 141.382 95.1334 141.206 95.6494C140.902 96.7574 140.514 97.8414 140.371 99.0174C139.565 103.656 139.653 108.523 139.597 113.4C139.615 115.867 139.306 118.283 139.567 120.603C139.799 122.947 140.433 125.241 141.213 127.48C142.759 131.952 144.813 136.327 145.254 141.076C145.511 145.715 144.889 150.159 144.043 154.275C143.191 158.396 142.082 162.203 141.155 165.724C140.675 167.476 140.265 169.191 139.857 170.788C139.711 171.596 139.573 172.383 139.435 173.149C139.375 173.927 139.318 174.683 139.262 175.413C139.17 178.356 139.455 180.931 139.721 183.037C140.329 187.252 140.677 189.66 140.677 189.66Z" fill="#704646"/>
<path d="M143.662 185.93C143.662 185.93 143.482 184.986 143.17 183.332C143.015 182.505 142.85 181.497 142.67 180.337C142.578 179.757 142.479 179.138 142.377 178.488C142.307 177.832 142.235 177.142 142.159 176.422C141.969 174.984 141.954 173.406 141.877 171.74C141.866 170.905 141.933 170.046 141.959 169.168C141.957 168.285 142.094 167.396 142.247 166.492C142.447 164.664 143.009 162.849 143.503 160.986C144.207 159.209 144.863 157.324 145.727 155.622C146.607 153.88 147.498 152.217 148.131 150.49C148.749 148.774 149.173 147.013 149.054 145.293C149.049 144.484 148.857 143.545 148.794 142.701C148.607 141.888 148.423 141.092 148.246 140.317C147.991 139.544 147.745 138.792 147.503 138.064C147.222 137.346 146.949 136.653 146.687 135.988C146.117 134.669 145.615 133.448 145.171 132.361C144.713 131.282 144.375 130.309 144.071 129.526C143.783 128.733 143.625 128.085 143.486 127.657C143.357 127.226 143.289 126.996 143.289 126.996C143.289 126.996 143.661 127.88 144.31 129.429C144.678 130.186 145.081 131.117 145.623 132.156C146.153 133.198 146.75 134.378 147.373 135.682C147.671 136.345 147.981 137.036 148.301 137.749C148.583 138.485 148.874 139.245 149.175 140.026C149.417 140.838 149.657 141.696 149.879 142.564C149.999 143.441 150.165 144.25 150.209 145.238C150.366 147.132 149.933 149.081 149.301 150.912C148.658 152.749 147.758 154.5 146.929 156.194C146.026 157.91 145.402 159.657 144.681 161.381C144.181 163.166 143.606 164.908 143.389 166.67C143.313 167.106 143.239 167.54 143.165 167.968C143.106 168.398 143.089 168.83 143.045 169.256C142.979 170.106 142.873 170.938 142.845 171.754C142.845 173.388 142.785 174.936 142.905 176.368C143.03 179.232 143.269 181.622 143.425 183.297C143.577 184.973 143.662 185.93 143.662 185.93Z" fill="#704646"/>
<path d="M149.257 157.581C149.257 157.581 149.324 157.988 149.261 158.529C149.236 158.803 149.18 159.109 149.095 159.427C149.021 159.748 148.876 160.071 148.775 160.395C148.592 161.028 148.307 161.624 148.003 162.068C147.708 162.512 147.392 162.804 147.392 162.804C147.392 162.804 147.267 162.427 147.263 161.871C147.245 161.312 147.345 160.575 147.548 159.873C147.812 159.223 148.204 158.64 148.563 158.227C148.915 157.811 149.257 157.581 149.257 157.581Z" fill="#704646"/>
<path d="M144.77 93.7968C144.77 93.7968 144.837 93.5848 144.961 93.1875C145.095 92.7955 145.239 92.1995 145.525 91.4782C145.857 90.7688 146.261 89.9062 146.723 88.9182C147.242 87.9662 147.813 86.8808 148.491 85.7288C149.873 83.4462 151.499 80.7888 153.345 78.0208C154.258 76.6355 155.202 75.2035 156.161 73.7488C156.593 73.0275 157.173 72.2715 157.494 71.5648L158.677 69.1848C159.402 67.5808 160.131 66.0115 160.742 64.3835C161.053 63.5742 161.361 62.7715 161.666 61.9795C161.965 61.1835 162.217 60.3808 162.489 59.6022C163.039 58.0422 163.502 56.5115 163.953 55.0608C164.43 53.6182 164.75 52.2182 165.115 50.9422C165.474 49.6648 165.722 48.4742 166.002 47.4315C166.278 46.3862 166.474 45.4648 166.63 44.7062C166.967 43.1888 167.161 42.3235 167.161 42.3235C167.161 42.3235 167.061 43.2062 166.885 44.7502C166.794 45.5222 166.675 46.4608 166.489 47.5275C166.302 48.5955 166.155 49.8142 165.846 51.1128C165.546 52.4128 165.295 53.8422 164.891 55.3195C164.511 56.8022 164.135 58.3768 163.606 59.9635C163.131 61.5675 162.571 63.2048 161.942 64.8488C161.342 66.4955 160.591 68.1568 159.866 69.7848L158.663 72.1542C158.229 73.0462 157.705 73.6862 157.235 74.4555C156.263 75.9168 155.262 77.3168 154.313 78.6808C152.398 81.3995 150.598 83.9182 149.125 86.1262C148.403 87.2382 147.741 88.2568 147.153 89.1608C146.618 90.0902 146.151 90.8995 145.767 91.5675C145.118 92.9755 144.77 93.7968 144.77 93.7968Z" fill="#704646"/>
<path d="M28.0293 38.9654C28.0293 38.9654 30.6106 40.4668 35.1813 42.9828C37.464 44.2454 40.2933 45.6734 43.6226 47.1028C45.3173 47.7428 47.1053 48.4601 49.0613 48.9961C50.024 49.3174 51.036 49.5494 52.076 49.7734C53.1026 50.0094 54.1813 50.2521 55.2786 50.4734C59.664 51.3788 64.408 52.6361 69.2 54.5534C69.7986 54.7961 70.4013 55.0388 71.008 55.2841C71.6026 55.5614 72.2 55.8401 72.8 56.1201C74.0173 56.6521 75.1906 57.3068 76.3853 57.9561C78.7733 59.2614 81.0626 60.8401 83.3826 62.3828C88.0226 65.5601 92.5773 69.2774 96.5266 73.7148C97.5573 74.7828 98.4173 76.0068 99.376 77.1534C100.313 78.3174 101.105 79.5934 101.98 80.8134C102.824 82.0534 103.541 83.3774 104.331 84.6588C105.101 85.9081 105.784 87.2988 106.656 88.4014C108.333 90.7428 110.493 92.7614 112.857 94.4708C115.227 96.1894 117.793 97.6561 120.28 99.2534C122.769 100.844 125.191 102.591 127.256 104.691C128.292 105.731 129.224 106.883 130.107 107.975C130.979 109.163 131.745 110.501 132.148 111.892C132.604 113.279 132.825 114.688 133.02 116.051C133.221 117.428 133.391 118.741 133.615 120.076C134.057 122.685 134.925 125.116 135.944 127.457C136.948 129.816 138.084 131.984 138.965 134.343C139.135 134.921 139.303 135.496 139.469 136.065C139.6 136.653 139.668 137.268 139.768 137.859C139.889 138.455 139.887 139.043 139.901 139.625C139.907 140.207 139.968 140.784 139.891 141.351C139.619 145.925 138.043 149.844 136.513 153.136C134.964 156.443 133.391 159.201 132.143 161.493C130.879 163.776 129.919 165.587 129.288 166.835C128.688 168.099 128.368 168.772 128.368 168.772C128.368 168.772 128.665 168.088 129.223 166.804C129.816 165.537 130.699 163.681 131.913 161.371C133.105 159.048 134.607 156.252 136.06 152.933C137.495 149.625 138.935 145.727 139.141 141.316C139.209 140.768 139.139 140.215 139.125 139.656C139.103 139.096 139.097 138.528 138.973 137.98C138.871 137.427 138.807 136.868 138.673 136.303C138.5 135.737 138.323 135.165 138.144 134.589C137.303 132.447 136.097 130.188 135.053 127.851C133.991 125.512 133.035 122.959 132.537 120.259C131.996 117.611 131.883 114.796 131.048 112.251C130.66 110.951 129.991 109.811 129.189 108.716C128.283 107.604 127.404 106.529 126.404 105.537C124.417 103.537 122.075 101.86 119.612 100.303C117.152 98.7388 114.557 97.2761 112.104 95.5174C109.651 93.7588 107.372 91.6734 105.564 89.1641C104.6 87.9028 103.979 86.5921 103.189 85.3028C102.423 84.0428 101.724 82.7374 100.903 81.5188C100.052 80.3201 99.2813 79.0641 98.3706 77.9201C97.4373 76.7948 96.6026 75.5894 95.5973 74.5374C91.7493 70.1721 87.3026 66.5014 82.736 63.3401C80.4106 61.7694 78.1586 60.2268 75.848 58.9041C74.6866 58.2481 73.544 57.5868 72.3546 57.0468C71.768 56.7614 71.184 56.4774 70.6053 56.1961C70.0106 55.9454 69.42 55.6974 68.8346 55.4508C64.128 53.4854 59.4826 52.1748 55.12 51.2041C54.0293 50.9654 52.9733 50.7121 51.9173 50.4534C50.8653 50.2081 49.8413 49.9601 48.876 49.6068C46.9066 49.0148 45.1186 48.2441 43.4293 47.5561C40.1106 46.0321 37.3106 44.5294 35.056 43.2081C32.7906 41.9054 31.052 40.8148 29.8573 40.0881C28.6653 39.3561 28.0293 38.9654 28.0293 38.9654Z" fill="#704646"/>
<path d="M129.86 124.384C129.86 124.384 129.928 124.505 130.024 124.721C130.136 124.923 130.209 125.275 130.396 125.589C130.489 125.745 130.587 125.907 130.665 126.077C130.727 126.251 130.901 126.412 131.003 126.593C131.219 126.961 131.541 127.293 131.827 127.645C132.155 127.973 132.467 128.316 132.812 128.608C133.131 128.928 133.475 129.185 133.749 129.452C134.324 129.94 134.709 130.352 134.709 130.352C134.709 130.352 134.572 130.349 134.336 130.321C134.105 130.285 133.757 130.257 133.38 130.123C132.999 129.993 132.544 129.839 132.115 129.553C131.905 129.408 131.651 129.307 131.459 129.105L130.843 128.545C130.665 128.327 130.504 128.091 130.34 127.867C130.159 127.656 130.076 127.38 129.967 127.137C129.867 126.888 129.755 126.668 129.729 126.404C129.683 126.155 129.661 125.917 129.644 125.707C129.601 125.289 129.728 124.983 129.763 124.747C129.817 124.517 129.86 124.384 129.86 124.384Z" fill="#704646"/>
<path d="M136.201 119.162L136.429 118.183C136.485 117.854 136.507 117.522 136.545 117.193C136.577 116.53 136.555 115.866 136.459 115.211C136.363 114.558 136.216 113.911 135.997 113.287C135.792 112.662 135.533 112.05 135.227 111.467C134.937 110.874 134.583 110.315 134.225 109.762C133.855 109.215 133.459 108.687 133.037 108.178C132.191 107.166 131.279 106.209 130.297 105.323C129.8 104.887 129.3 104.457 128.776 104.054C128.247 103.626 127.729 103.229 127.191 102.869L123.835 100.671C122.713 99.9193 121.6 99.1327 120.571 98.202C120.063 97.7273 119.572 97.226 119.149 96.646C118.7 96.0913 118.371 95.4167 118.116 94.71L118.108 94.6913L118.104 94.6687C117.811 93.0087 118.316 91.5433 118.832 90.1967C119.368 88.8407 120.023 87.5647 120.677 86.3047C121.333 85.0473 122.013 83.8073 122.556 82.5553C123.056 81.326 123.508 79.9127 123.967 78.6047C124.869 75.946 125.787 73.2727 125.979 70.5647C126.197 67.858 125.359 65.1993 123.901 62.8593C123.211 61.6687 122.364 60.5553 121.503 59.4593L120.177 57.81C119.745 57.2393 119.343 56.618 118.931 56.0233C118.169 54.8087 117.452 53.574 116.771 52.3313C116.08 51.0953 115.416 49.8487 114.688 48.6487C114.339 48.038 113.957 47.45 113.567 46.8713L113.277 46.4327C113.239 46.378 113.159 46.2447 113.156 46.2553L112.976 46.0593L112.257 45.278C111.315 44.238 110.209 43.462 108.951 42.854C107.684 42.286 106.311 41.954 104.927 41.682C103.539 41.4193 102.148 41.1353 100.767 40.83L104.971 41.43C106.372 41.6367 107.783 41.902 109.131 42.4313C109.791 42.7127 110.445 43.0433 111.053 43.4407C111.621 43.8887 112.283 44.2913 112.737 44.8193L113.48 45.578L113.665 45.7687C113.789 45.902 113.787 45.9313 113.856 46.018L114.165 46.4567C114.581 47.038 114.988 47.626 115.36 48.2327C116.136 49.4313 116.84 50.6633 117.563 51.878C118.28 53.0953 119.02 54.2873 119.795 55.4487C120.208 56.0033 120.589 56.562 121.025 57.1073C121.485 57.65 121.941 58.178 122.387 58.7447C123.284 59.862 124.168 60.9993 124.911 62.25C125.68 63.4767 126.329 64.8113 126.739 66.238C127.16 67.6553 127.347 69.1673 127.237 70.6393C127.043 73.5953 126.137 76.3567 125.217 79.0367C124.727 80.394 124.308 81.6767 123.732 83.0647C123.136 84.4047 122.439 85.6393 121.776 86.8847C121.113 88.1273 120.463 89.3687 119.947 90.6407C119.431 91.8953 119.029 93.2527 119.235 94.418L119.225 94.3767C119.427 94.9247 119.672 95.478 120.065 95.97C120.424 96.478 120.879 96.934 121.331 97.39C122.263 98.286 123.319 99.082 124.397 99.8527L127.696 102.151C128.26 102.553 128.789 102.987 129.289 103.417C129.816 103.846 130.316 104.303 130.813 104.766C131.788 105.707 132.715 106.705 133.532 107.79C133.94 108.333 134.32 108.895 134.673 109.475C135.015 110.062 135.351 110.654 135.62 111.278C135.907 111.893 136.144 112.534 136.323 113.187C136.515 113.838 136.636 114.51 136.703 115.182C136.772 115.857 136.749 116.537 136.673 117.206C136.612 117.539 136.568 117.875 136.492 118.201L136.201 119.162Z" fill="#704646"/>
<path d="M104.868 15.0937C104.868 15.0937 105.168 15.6231 105.441 16.4431C105.585 16.8524 105.725 17.3337 105.845 17.8524C105.979 18.3697 106.056 18.9351 106.164 19.4884C106.372 20.5871 106.475 21.7044 106.468 22.5711C106.472 23.4324 106.361 24.0457 106.361 24.0457C106.361 24.0457 106.037 23.5431 105.72 22.7337C105.393 21.9284 105.067 20.8164 104.845 19.6871C104.676 18.5617 104.643 17.4217 104.687 16.5537C104.727 15.6884 104.868 15.0937 104.868 15.0937Z" fill="#704646"/>
<path d="M115.685 47.5448C115.685 47.5448 115.673 47.3928 115.653 47.1088C115.644 46.8248 115.569 46.4101 115.591 45.8781C115.625 45.3461 115.621 44.6794 115.76 43.9434C115.848 43.1954 116.048 42.3688 116.327 41.4874C116.888 39.7261 117.765 37.7501 118.825 35.7354C119.867 33.7088 121.071 31.6194 121.985 29.4341C122.467 28.3514 122.865 27.2421 123.161 26.1288C123.417 25.0794 123.608 23.8381 123.825 22.7501C124.065 21.6301 124.112 20.5701 124.269 19.5488C124.42 18.5354 124.492 17.5594 124.547 16.6554C124.681 14.8514 124.821 13.3394 124.875 12.2808C124.961 11.2221 125.011 10.6168 125.011 10.6168C125.011 10.6168 125.055 11.2221 125.133 12.2821C125.188 13.3421 125.313 14.8568 125.297 16.6834C125.312 17.5954 125.312 18.5848 125.239 19.6408C125.157 20.6861 125.195 21.8354 124.984 22.9448C124.789 24.0874 124.711 25.1848 124.409 26.4514C124.105 27.6434 123.7 28.8248 123.211 29.9608C122.224 32.2341 120.984 34.3394 119.853 36.2968C118.727 38.2568 117.683 40.0741 117.031 41.7394C116.713 42.5714 116.419 43.3394 116.243 44.0448C116.02 44.7434 115.948 45.3674 115.849 45.8848C115.725 46.9354 115.685 47.5448 115.685 47.5448Z" fill="#704646"/>
<path d="M117.924 187.795C117.924 187.795 117.925 186.997 117.926 185.601C117.93 184.903 117.918 184.059 118.09 183.087C118.248 182.124 118.292 180.984 118.666 179.836C118.966 178.665 119.297 177.393 119.81 176.108C120.25 174.791 120.841 173.464 121.457 172.092C122.097 170.74 122.757 169.345 123.429 167.927C124.12 166.523 124.785 165.087 125.402 163.636L126.365 161.461C126.66 160.737 126.905 160.059 127.032 159.355C127.328 157.987 126.858 156.564 126.438 155.144C126.326 154.788 126.216 154.436 126.105 154.088C126.054 153.935 125.985 153.689 125.95 153.616L125.748 153.113C125.477 152.448 125.238 151.771 124.894 151.233C124.589 150.66 124.272 150.105 123.888 149.595C123.54 149.069 123.173 148.576 122.794 148.119C122.069 147.185 121.349 146.352 120.773 145.563C120.165 144.797 119.704 144.076 119.32 143.489C118.929 142.907 118.736 142.379 118.553 142.055C118.386 141.72 118.297 141.543 118.297 141.543C118.297 141.543 118.408 141.708 118.617 142.02C118.836 142.323 119.102 142.8 119.534 143.343C119.966 143.885 120.482 144.545 121.153 145.243C121.796 145.963 122.588 146.719 123.372 147.637C123.781 148.08 124.185 148.561 124.58 149.089C125.002 149.588 125.382 150.165 125.756 150.781C126.177 151.385 126.442 152.027 126.75 152.677L126.981 153.167C127.093 153.425 127.116 153.536 127.188 153.728C127.309 154.075 127.432 154.425 127.554 154.779C127.793 155.497 128.037 156.228 128.22 157.027C128.313 157.421 128.344 157.856 128.398 158.275C128.368 158.701 128.4 159.152 128.301 159.567C128.162 160.409 127.866 161.225 127.572 161.971C127.268 162.701 126.954 163.431 126.624 164.168C125.98 165.641 125.292 167.088 124.584 168.491C123.88 169.889 123.185 171.265 122.513 172.596C121.884 173.936 121.209 175.207 120.712 176.463C120.136 177.695 119.746 178.909 119.388 180.035C118.968 181.149 118.83 182.213 118.581 183.145C118.322 184.073 118.253 184.924 118.184 185.617C118.018 187.003 117.924 187.795 117.924 187.795Z" fill="#704646"/>
<path d="M131.352 189.66C131.352 189.66 131.299 189.221 131.237 188.453C131.197 187.684 131.061 186.592 131.052 185.268C131.005 183.945 131.005 182.4 131.092 180.748C131.123 179.921 131.159 179.067 131.26 178.203C131.352 177.339 131.419 176.457 131.535 175.581C131.675 174.709 131.815 173.836 131.952 172.976C132.064 172.113 132.319 171.287 132.487 170.476C132.676 169.669 132.841 168.885 133.088 168.163C133.321 167.439 133.541 166.756 133.744 166.124C134.137 164.859 134.673 163.873 134.949 163.157C135.261 162.452 135.455 162.057 135.455 162.057C135.455 162.057 135.371 162.493 135.195 163.243C135.028 163.995 134.725 165.044 134.481 166.332C134.349 166.972 134.207 167.665 134.055 168.399C133.877 169.124 133.792 169.913 133.636 170.713C133.504 171.517 133.331 172.34 133.221 173.189C133.101 174.036 132.979 174.897 132.855 175.757C132.725 176.617 132.645 177.484 132.54 178.335C132.435 179.184 132.324 180.021 132.26 180.836C132.172 181.649 132.089 182.436 132.009 183.183C131.94 183.929 131.875 184.635 131.815 185.288C131.681 186.599 131.572 187.691 131.495 188.456C131.416 189.223 131.352 189.66 131.352 189.66Z" fill="#704646"/>
</svg>
