<svg width="227" height="415" viewBox="0 0 227 415" fill="none" xmlns="http://www.w3.org/2000/svg">
<path d="M58.7827 0.107498C142.723 -2.85643 144.007 56.1735 110.702 90.5829C110.702 90.5829 168.751 92.7528 183.534 145.233C198.316 197.71 157.573 221.741 157.573 221.741C157.573 221.741 227.88 223.844 226.079 270.925C224.277 318.007 124.635 309.325 124.635 309.325C124.635 309.325 112.576 336.202 61.3068 336.202C10.0355 336.202 12.9938 311.61 12.9938 311.61C12.9938 311.61 -86.7728 333.358 -96.9748 270.925C-107.179 208.493 -37.8456 199.882 -37.8456 199.882C-37.8456 199.882 -64.711 178.854 -61.6422 154.037C-58.5711 129.221 -13.6891 109.71 -13.6891 109.71C-13.6891 109.71 -43.3977 3.71593 58.7827 0.107498Z" fill="#91D66C"/>
<path d="M10.531 229.104C10.531 231.686 8.0453 233.781 4.97656 233.781C1.91021 233.781 -0.5755 231.686 -0.5755 229.104C-0.5755 226.522 1.91021 224.427 4.97656 224.427C8.0453 224.427 10.531 226.522 10.531 229.104Z" fill="#73BC45"/>
<path d="M134.727 144.503C134.727 148.73 130.658 152.157 125.639 152.157C120.622 152.157 116.552 148.73 116.552 144.503C116.552 140.277 120.622 136.85 125.639 136.85C130.658 136.85 134.727 140.277 134.727 144.503Z" fill="#73BC45"/>
<path d="M98.3772 125.798C98.3772 128.85 95.438 131.323 91.815 131.323C88.1896 131.323 85.2504 128.85 85.2504 125.798C85.2504 122.745 88.1896 120.272 91.815 120.272C95.438 120.272 98.3772 122.745 98.3772 125.798Z" fill="#73BC45"/>
<path d="M130.184 110.493C130.184 113.312 127.472 115.595 124.125 115.595C120.778 115.595 118.067 113.312 118.067 110.493C118.067 107.675 120.778 105.392 124.125 105.392C127.472 105.392 130.184 107.675 130.184 110.493Z" fill="#73BC45"/>
<path d="M96.3576 155.557C96.3576 157.67 94.323 159.383 91.8133 159.383C89.3036 159.383 87.269 157.67 87.269 155.557C87.269 153.443 89.3036 151.73 91.8133 151.73C94.323 151.73 96.3576 153.443 96.3576 155.557Z" fill="#73BC45"/>
<path d="M154.417 172.987C154.417 175.569 151.931 177.664 148.863 177.664C145.796 177.664 143.31 175.569 143.31 172.987C143.31 170.405 145.796 168.31 148.863 168.31C151.931 168.31 154.417 170.405 154.417 172.987Z" fill="#73BC45"/>
<path d="M121.601 255.887C121.601 261.522 116.176 266.09 109.484 266.09C102.793 266.09 97.3676 261.522 97.3676 255.887C97.3676 250.252 102.793 245.684 109.484 245.684C116.176 245.684 121.601 250.252 121.601 255.887Z" fill="#73BC45"/>
<path d="M141.291 238.882C141.291 241.7 138.579 243.984 135.232 243.984C131.885 243.984 129.174 241.7 129.174 238.882C129.174 236.064 131.885 233.781 135.232 233.781C138.579 233.781 141.291 236.064 141.291 238.882Z" fill="#73BC45"/>
<path d="M181.175 263.965C181.175 267.017 178.236 269.49 174.613 269.49C170.987 269.49 168.048 267.017 168.048 263.965C168.048 260.912 170.987 258.439 174.613 258.439C178.236 258.439 181.175 260.912 181.175 263.965Z" fill="#73BC45"/>
<path d="M205.913 251.636C205.913 254.688 202.974 257.161 199.351 257.161C195.726 257.161 192.786 254.688 192.786 251.636C192.786 248.583 195.726 246.11 199.351 246.11C202.974 246.11 205.913 248.583 205.913 251.636Z" fill="#73BC45"/>
<path d="M142.3 276.718C142.3 278.361 140.719 279.694 138.766 279.694C136.816 279.694 135.232 278.361 135.232 276.718C135.232 275.076 136.816 273.742 138.766 273.742C140.719 273.742 142.3 275.076 142.3 276.718Z" fill="#73BC45"/>
<path d="M97.3675 303.076C97.3675 306.363 94.2028 309.028 90.2991 309.028C86.3953 309.028 83.2306 306.363 83.2306 303.076C83.2306 299.789 86.3953 297.124 90.2991 297.124C94.2028 297.124 97.3675 299.789 97.3675 303.076Z" fill="#73BC45"/>
<path d="M7.50182 121.546C7.50182 123.66 5.46719 125.373 2.95748 125.373C0.447782 125.373 -1.58685 123.66 -1.58685 121.546C-1.58685 119.433 0.447782 117.72 2.95748 117.72C5.46719 117.72 7.50182 119.433 7.50182 121.546Z" fill="#73BC45"/>
<path d="M31.2305 30.569C31.2305 33.6218 28.2913 36.0948 24.6683 36.0948C21.0429 36.0948 18.1038 33.6218 18.1038 30.569C18.1038 27.5162 21.0429 25.0432 24.6683 25.0432C28.2913 25.0432 31.2305 27.5162 31.2305 30.569Z" fill="#73BC45"/>
<path d="M83.7362 20.7909C83.7362 23.6094 81.0249 25.8924 77.6779 25.8924C74.3308 25.8924 71.6195 23.6094 71.6195 20.7909C71.6195 17.9725 74.3308 15.6894 77.6779 15.6894C81.0249 15.6894 83.7362 17.9725 83.7362 20.7909Z" fill="#73BC45"/>
<path d="M76.1633 60.3281C76.1633 62.9101 73.6776 65.0053 70.6089 65.0053C67.5425 65.0053 65.0568 62.9101 65.0568 60.3281C65.0568 57.746 67.5425 55.6509 70.6089 55.6509C73.6776 55.6509 76.1633 57.746 76.1633 60.3281Z" fill="#73BC45"/>
<path d="M110.999 39.4969C110.999 42.3153 108.287 44.5984 104.94 44.5984C101.593 44.5984 98.882 42.3153 98.882 39.4969C98.882 36.6784 101.593 34.3954 104.94 34.3954C108.287 34.3954 110.999 36.6784 110.999 39.4969Z" fill="#73BC45"/>
<path d="M21.133 49.2746C21.133 50.9172 19.5518 52.2507 17.5988 52.2507C15.6481 52.2507 14.0645 50.9172 14.0645 49.2746C14.0645 47.6321 15.6481 46.2986 17.5988 46.2986C19.5518 46.2986 21.133 47.6321 21.133 49.2746Z" fill="#73BC45"/>
<path d="M13.56 91.7875C13.56 94.3696 11.0743 96.4647 8.00552 96.4647C4.93917 96.4647 2.45346 94.3696 2.45346 91.7875C2.45346 89.2055 4.93917 87.1103 8.00552 87.1103C11.0743 87.1103 13.56 89.2055 13.56 91.7875Z" fill="#73BC45"/>
<path d="M21.638 134.3C21.638 136.414 19.6033 138.127 17.0936 138.127C14.5839 138.127 12.5493 136.414 12.5493 134.3C12.5493 132.187 14.5839 130.474 17.0936 130.474C19.6033 130.474 21.638 132.187 21.638 134.3Z" fill="#73BC45"/>
<path d="M4.97744 180.214C4.97744 184.909 0.457097 188.716 -5.11895 188.716C-10.6974 188.716 -15.2177 184.909 -15.2177 180.214C-15.2177 175.519 -10.6974 171.712 -5.11895 171.712C0.457097 171.712 4.97744 175.519 4.97744 180.214Z" fill="#73BC45"/>
<path d="M24.667 267.366C24.667 272.295 19.9212 276.294 14.0644 276.294C8.21001 276.294 3.46173 272.295 3.46173 267.366C3.46173 262.436 8.21001 258.437 14.0644 258.437C19.9212 258.437 24.667 262.436 24.667 267.366Z" fill="#73BC45"/>
<path d="M32.7449 300.951C32.7449 303.533 30.2592 305.628 27.1905 305.628C24.1241 305.628 21.6384 303.533 21.6384 300.951C21.6384 298.368 24.1241 296.273 27.1905 296.273C30.2592 296.273 32.7449 298.368 32.7449 300.951Z" fill="#73BC45"/>
<path d="M127.154 212.524C127.154 216.045 123.764 218.9 119.582 218.9C115.4 218.9 112.007 216.045 112.007 212.524C112.007 209.002 115.4 206.148 119.582 206.148C123.764 206.148 127.154 209.002 127.154 212.524Z" fill="#73BC45"/>
<path d="M84.2411 181.915C84.2411 184.967 81.3019 187.44 77.6789 187.44C74.0535 187.44 71.1143 184.967 71.1143 181.915C71.1143 178.862 74.0535 176.389 77.6789 176.389C81.3019 176.389 84.2411 178.862 84.2411 181.915Z" fill="#73BC45"/>
<path d="M117.274 171.548C111.019 176.816 105.416 182.766 100.464 189.148V189.168C99.7896 189.991 99.161 190.833 98.5348 191.674C95.0462 196.335 91.8838 201.169 89.0022 206.103C88.4216 207.101 87.8386 208.12 87.2819 209.138C85.492 212.33 83.8413 215.52 82.2817 218.731C81.6315 220.062 81.0029 221.394 80.4222 222.705C77.3079 229.421 74.7262 235.999 72.5404 242.165C72.2381 243.087 71.9142 243.988 71.6119 244.869C71.192 246.101 70.7961 247.315 70.4026 248.509C70.1219 249.37 69.8676 250.213 69.6108 251.055C68.4951 254.637 67.5426 258.005 66.7052 261.078C66.5661 261.608 66.4485 262.117 66.3094 262.626C66.3573 262.939 66.4029 263.27 66.4485 263.584C67.3099 269.281 68.1688 275.019 68.9846 280.773C69.0998 281.656 69.2389 282.537 69.3565 283.418C70.4026 290.857 71.4007 298.316 72.3557 305.697C72.4708 306.578 72.5884 307.479 72.7036 308.38C73.4234 314.095 74.0976 319.773 74.7262 325.353C74.7958 326.018 74.8654 326.685 74.959 327.349C75.5876 333.126 76.1682 338.783 76.7033 344.304C76.7944 345.381 76.888 346.458 77.0056 347.515C77.3079 350.98 77.5862 354.368 77.8429 357.696C77.9581 359.126 78.0733 360.554 78.1669 361.965C78.3996 365.096 78.5867 368.151 78.7475 371.127C78.7955 372.143 78.8651 373.144 78.9106 374.142C79.0282 376.568 79.1194 378.938 79.189 381.229C79.237 382.443 79.261 383.638 79.2825 384.811C79.3305 386.143 79.3521 387.454 79.3521 388.747C79.3761 389.941 79.3761 391.135 79.3761 392.291C79.3761 397.029 79.237 401.433 78.9586 405.407C78.8411 406.797 78.7259 408.129 78.5867 409.422C78.4932 410.537 78.354 411.634 78.2148 412.671L46.7092 414.081L34.3646 414.628C34.3646 414.628 34.5278 414.295 34.7821 413.592C35.4563 411.889 36.8527 408.012 38.4339 401.688C38.8058 400.336 39.1537 398.869 39.5016 397.283C40.0846 394.758 40.6653 391.937 41.2219 388.806C41.4331 387.688 41.6418 386.515 41.8266 385.32C41.8745 385.046 41.9201 384.753 41.9681 384.478C42.1289 383.597 42.2704 382.698 42.4096 381.777C42.8511 378.976 43.247 375.982 43.6405 372.81C43.8036 371.42 43.9908 369.992 44.1515 368.543C44.617 364.157 45.0369 359.457 45.3848 354.406C45.4544 353.663 45.4999 352.919 45.5479 352.174C45.8502 347.28 46.1046 342.072 46.2677 336.532C46.2917 335.475 46.3157 334.378 46.3373 333.283C46.4765 327.683 46.5005 321.789 46.4549 315.544C46.4309 314.78 46.4309 313.998 46.4069 313.194C46.2917 304.658 45.9438 295.536 45.3848 285.765C45.3152 284.826 45.2696 283.848 45.1976 282.888C44.9193 278.464 44.5954 273.922 44.2211 269.263C44.1299 268.204 44.0603 267.147 43.9668 266.091C43.8972 265.307 43.8492 264.525 43.7796 263.741C43.4557 259.591 43.1534 255.48 42.8727 251.368C42.8031 250.429 42.7575 249.489 42.6879 248.548C42.5704 246.964 42.4792 245.378 42.3616 243.792C42.316 243.066 42.2704 242.343 42.2225 241.638C42.0377 238.525 41.8506 235.431 41.6658 232.358C41.6418 231.613 41.5938 230.889 41.5482 230.164C41.2939 225.721 41.0828 221.315 40.874 216.951C40.387 215.813 39.8519 214.601 39.2929 213.328C38.9906 212.643 38.6666 211.918 38.3163 211.174C36.5264 207.2 34.3646 202.717 31.8765 197.9C31.3655 196.941 30.8544 195.963 30.3194 194.983C28.1576 190.892 25.715 186.584 23.0422 182.198C22.5527 181.337 22.0177 180.495 21.485 179.634C17.9508 173.936 13.9967 168.104 9.64911 162.386C9.11406 161.642 8.55741 160.917 7.95278 160.194C4.90563 156.199 1.60415 152.284 -1.88208 148.486C-0.69681 149.68 3.44203 154.007 8.85973 159.919C9.48595 160.604 10.1386 161.309 10.7888 162.053C15.3451 167.085 20.5781 173.056 25.5999 179.183C26.2957 180.026 26.9939 180.866 27.6681 181.729C31.1087 185.996 34.3886 190.284 37.2006 194.318C37.8749 195.296 38.5251 196.256 39.1537 197.195C39.48 197.725 39.8039 198.234 40.1302 198.743C40.1062 198.193 40.0846 197.646 40.0846 197.117C40.0367 196.098 40.0151 195.062 39.9671 194.064C39.8519 189.364 39.7343 184.723 39.6648 180.143C39.6432 179.163 39.6192 178.185 39.6192 177.226C39.48 169.512 39.432 161.976 39.5016 154.652C39.5016 153.829 39.5016 153.007 39.5256 152.185C39.5712 145.451 39.7128 138.893 39.9215 132.549C39.9455 132.04 39.9671 131.53 39.9911 131.021C40.1542 126.207 40.363 121.507 40.6197 116.925C40.0151 115.888 39.2689 114.577 38.4339 113.03C38.0836 112.403 37.7117 111.718 37.3398 110.993H37.3182C35.2956 107.156 32.8291 102.261 30.3649 96.6826C30.2954 96.4664 30.1802 96.2522 30.0866 96.0361C27.9248 91.0437 25.7846 85.5219 23.9707 79.786C23.5532 78.5535 23.1814 77.3009 22.8095 76.0462C21.1587 70.1346 19.8799 64.0653 19.3688 58.1516C19.3448 58.0344 19.3208 57.9172 19.3208 57.8C19.3208 57.8 19.3688 57.9173 19.46 58.1516C20.043 59.8164 22.7615 67.2959 26.2957 76.224C26.7851 77.4767 27.2962 78.7677 27.8313 80.0992C30.0866 85.6795 32.5747 91.573 34.9693 96.7796C35.1084 97.0745 35.2236 97.3473 35.3652 97.6221C37.4094 102.008 39.4104 105.863 41.1524 108.585C41.3851 105.257 41.6418 101.988 41.9441 98.7959C41.9681 98.4241 42.0137 98.0726 42.0377 97.719C42.5704 92.0417 43.175 86.6392 43.8732 81.4892C44.0364 80.1396 44.2211 78.8081 44.4082 77.4949C45.3848 70.9569 46.4765 64.8876 47.7553 59.3275C47.9185 58.5436 48.1056 57.7616 48.2904 56.9979V56.9777C49.8715 50.3993 51.6614 44.6048 53.7081 39.671C54.1039 38.673 54.5214 37.7334 54.9629 36.8121C55.0805 36.5394 55.1956 36.2646 55.3348 36.0101C55.3132 36.107 55.2652 36.402 55.174 36.8324C55.0565 37.4789 54.8477 38.477 54.591 39.7882C53.8952 43.4492 52.8011 49.5589 51.6158 57.3313C51.5007 58.093 51.3831 58.8769 51.2439 59.679C50.4522 65.122 49.6172 71.27 48.8734 77.907C48.7102 79.2182 48.5711 80.5497 48.4295 81.9014C47.8729 87.1483 47.3618 92.668 46.9659 98.3272C46.9203 98.7575 46.8964 99.1879 46.8724 99.6182C46.6396 103.162 46.4309 106.785 46.2677 110.407C46.2461 111.13 46.2221 111.874 46.1981 112.599C46.0134 118.374 45.9438 124.229 46.059 130.023C46.059 130.532 46.083 131.041 46.1046 131.571C46.1526 133.626 46.2221 135.662 46.3157 137.699C46.7572 135.525 47.2443 133.411 47.7793 131.355C47.9425 130.807 48.0816 130.258 48.2208 129.71C49.9411 123.427 52.0813 117.709 54.4758 112.52C54.8237 111.737 55.174 110.975 55.5675 110.211C57.0551 107.136 58.6363 104.239 60.311 101.538C60.6829 100.95 61.0308 100.344 61.4051 99.7758C65.2177 93.8439 69.2869 88.8515 73.3082 84.6814C74.5391 83.4288 75.7483 82.2327 76.936 81.1174C83.7477 74.7552 90.0723 70.7225 94.2088 68.4314C95.4181 67.7849 96.4426 67.2555 97.2319 66.8837C98.1389 66.4534 98.7435 66.1988 98.9763 66.12C98.6044 66.4332 98.2085 66.7464 97.8366 67.0797C97.1168 67.6474 96.3946 68.2556 95.6748 68.8617C91.0249 72.8944 86.8165 77.2807 83.0255 81.9014C82.0274 83.0954 81.0508 84.3278 80.1439 85.5623C76.4465 90.3789 73.1906 95.3895 70.309 100.481C69.9371 101.146 69.5413 101.831 69.1934 102.515C67.7274 105.16 66.3789 107.821 65.1241 110.484C64.7282 111.288 64.3563 112.09 64.0084 112.912C61.5659 118.218 59.4977 123.503 57.7293 128.595C57.5446 129.162 57.3358 129.748 57.1487 130.316C54.7782 137.404 52.9883 144.081 51.6614 149.876C51.4767 150.736 51.2895 151.559 51.1048 152.381C50.2434 156.414 49.6172 159.939 49.1517 162.816C49.1757 162.954 49.1973 163.091 49.2213 163.208C49.8955 166.714 50.6633 170.688 51.4767 175.054C51.6398 176.011 51.8246 176.971 52.0117 177.969C52.8491 182.511 53.756 187.445 54.6846 192.692C54.8717 193.652 55.0565 194.65 55.2196 195.65C55.9394 199.701 56.6832 203.931 57.451 208.316C57.5902 209.178 57.7533 210.019 57.8925 210.9C58.6843 215.403 59.4737 220.062 60.2654 224.84C60.4286 225.739 60.5677 226.661 60.7309 227.58C61.242 230.732 61.777 233.944 62.3097 237.193C63.5669 233.318 65.0305 229.617 66.6597 226.113C67.1707 224.917 67.7514 223.743 68.356 222.588V222.569C70.6569 217.949 73.2386 213.662 75.9811 209.667C76.6553 208.669 77.3535 207.689 78.0517 206.73C82.0034 201.327 86.1878 196.549 90.3027 192.399C91.2576 191.459 92.1862 190.538 93.1171 189.657C105.579 177.834 116.623 171.882 117.274 171.548Z" fill="#C26E3C"/>
<path d="M77.0048 347.515C72.6333 349.944 67.9138 351.92 62.9376 353.134C57.1504 354.562 51.2432 354.837 45.384 354.407C45.4536 353.663 45.5016 352.918 45.5472 352.174C50.8953 352.449 56.2434 352.116 61.6371 350.687C67.2156 349.198 72.1918 347.006 76.7025 344.305C76.7961 345.382 76.8897 346.459 77.0048 347.515Z" fill="#E9996E"/>
<path d="M74.959 327.35C69.8196 328.877 64.7282 330.522 59.6128 332.225C55.1956 333.694 50.7545 335.181 46.2677 336.533C46.2917 335.474 46.3157 334.379 46.3373 333.282C55.7787 330.619 65.1001 327.388 74.7262 325.354C74.7958 326.019 74.8654 326.685 74.959 327.35Z" fill="#E9996E"/>
<path d="M79.3764 392.29C67.0079 393.876 54.8241 396.539 43.0841 400.18C41.5246 400.669 39.9674 401.16 38.4342 401.687C38.8061 400.338 39.154 398.869 39.5019 397.283C52.36 393.171 65.753 390.312 79.3525 388.747C79.3764 389.941 79.3764 391.135 79.3764 392.29Z" fill="#E9996E"/>
<path d="M78.1674 361.964C67.4255 367.073 55.7312 370.754 43.641 372.809C43.8041 371.419 43.9889 369.991 44.152 368.542C50.779 367.328 57.2884 365.604 63.5674 363.471C68.4477 361.808 73.2151 359.889 77.8411 357.697C77.9586 359.125 78.0738 360.553 78.1674 361.964Z" fill="#E9996E"/>
<path d="M78.9578 405.407C78.8427 406.797 78.7251 408.129 78.5859 409.422C76.1434 409.656 73.7273 409.911 71.3088 410.204C63.0551 411.202 54.8469 412.495 46.7108 414.081L34.3638 414.628C34.3638 414.628 34.527 414.295 34.7837 413.59C49.1989 409.929 64.0076 407.11 78.9578 405.407Z" fill="#E9996E"/>
<path d="M79.2833 384.811C66.4948 385.221 53.7544 386.573 41.2227 388.806C41.4314 387.688 41.6425 386.514 41.8273 385.32C54.1047 383.05 66.6364 381.639 79.1897 381.229C79.2377 382.441 79.2593 383.637 79.2833 384.811Z" fill="#E9996E"/>
<path d="M78.9112 374.141C67.8215 380.29 54.9394 382.932 41.9662 384.478C42.1294 383.597 42.2686 382.698 42.4077 381.777C55.2202 380.172 67.6583 377.586 78.748 371.127C78.796 372.145 78.8656 373.143 78.9112 374.141Z" fill="#E9996E"/>
<path d="M72.7037 308.379C63.9605 310.825 55.3133 313.509 46.455 315.545C46.431 314.781 46.431 313.997 46.407 313.195C55.1502 310.943 63.7302 308.163 72.3558 305.696C72.4709 306.579 72.5885 307.478 72.7037 308.379Z" fill="#E9996E"/>
<path d="M69.3555 283.417C65.6581 283.221 61.9392 283.28 58.2418 283.575C53.8486 283.946 49.5706 284.728 45.3838 285.767C45.3142 284.827 45.2686 283.847 45.199 282.888C51.8956 281.38 58.7529 280.54 65.7277 280.657C66.8218 280.675 67.9135 280.695 68.9836 280.774C69.0988 281.655 69.2403 282.536 69.3555 283.417Z" fill="#E9996E"/>
<path d="M70.4019 248.509C70.1236 249.37 69.8668 250.213 69.6125 251.055C60.9389 250.388 51.9414 250.78 42.8743 251.368C42.8048 250.429 42.7568 249.489 42.6872 248.548C50.8497 248.079 59.0314 247.766 67.2396 248.275C68.2857 248.334 69.3318 248.412 70.4019 248.509Z" fill="#E9996E"/>
<path d="M66.3099 262.625C66.3555 262.938 66.4035 263.272 66.4491 263.585C58.8936 263.918 51.4077 264.995 43.9674 266.09C43.8978 265.308 43.8498 264.524 43.7802 263.74C51.3837 262.566 59.0088 261.431 66.7058 261.077C66.5667 261.607 66.4491 262.116 66.3099 262.625Z" fill="#E9996E"/>
<path d="M57.8935 210.9C51.6169 211.468 45.3858 212.231 39.2939 213.329C38.9916 212.642 38.6653 211.918 38.3174 211.175C44.594 209.902 51.0123 209.001 57.4521 208.316C57.5912 209.177 57.7544 210.019 57.8935 210.9Z" fill="#E9996E"/>
<path d="M89.0018 206.103C88.4211 207.101 87.8381 208.12 87.2814 209.138C83.5385 209.314 79.7715 209.471 75.983 209.667C76.6572 208.667 77.353 207.689 78.0512 206.73C81.7006 206.516 85.3524 206.32 89.0018 206.103Z" fill="#E9996E"/>
<path d="M60.73 227.58C60.6148 227.601 60.4973 227.639 60.3821 227.659C54.2206 229.166 47.9896 231.007 41.6649 232.357C41.6409 231.613 41.5953 230.89 41.5497 230.165C47.8504 228.52 54.0335 226.621 60.2645 224.839C60.4277 225.74 60.5669 226.661 60.73 227.58Z" fill="#E9996E"/>
<path d="M82.2824 218.731C81.6322 220.063 81.0036 221.394 80.4229 222.705C75.8186 223.861 71.2383 224.997 66.658 226.112C67.169 224.918 67.7521 223.744 68.3567 222.588V222.568C72.9826 221.295 77.6325 220.004 82.2824 218.731Z" fill="#E9996E"/>
<path d="M72.5408 242.166C72.2385 243.085 71.9122 243.986 71.6098 244.867C61.8685 245.847 52.0577 245.631 42.362 243.79C42.3164 243.067 42.2684 242.342 42.2228 241.637C45.2676 242.166 48.3603 242.558 51.477 242.754C58.5671 243.223 65.5899 242.95 72.5408 242.166Z" fill="#E9996E"/>
<path d="M37.2009 194.317C37.8751 195.297 38.5253 196.255 39.1539 197.194C36.7354 197.431 34.2953 197.665 31.8767 197.9C31.3657 196.942 30.8546 195.962 30.3196 194.982C32.5965 194.748 34.8999 194.534 37.2009 194.317Z" fill="#E9996E"/>
<path d="M55.2196 195.649C50.1738 196.138 45.128 196.609 40.0846 197.118C40.0366 196.099 40.015 195.061 39.967 194.063C44.8737 193.574 49.7803 193.123 54.6845 192.693C54.8717 193.653 55.0564 194.651 55.2196 195.649Z" fill="#E9996E"/>
<path d="M100.464 189.168C99.7897 189.991 99.1611 190.833 98.5348 191.674C95.79 191.91 93.0476 192.144 90.3027 192.399C91.2577 191.46 92.1862 190.538 93.1172 189.657C95.5573 189.502 98.0238 189.324 100.464 189.168Z" fill="#E9996E"/>
<path d="M10.7888 162.053C10.3929 162.15 10.021 162.269 9.64912 162.386C9.11407 161.643 8.55742 160.917 7.95279 160.192C8.25511 160.075 8.55742 159.998 8.85974 159.919C9.48596 160.604 10.1386 161.309 10.7888 162.053Z" fill="#E9996E"/>
<path d="M51.6625 149.875C51.4754 150.736 51.2906 151.558 51.1035 152.381C47.2213 153.066 43.3632 153.811 39.5027 154.652C39.5027 153.829 39.5027 153.007 39.5267 152.185C43.548 151.344 47.5932 150.581 51.6625 149.875Z" fill="#E9996E"/>
<path d="M46.1055 131.57C44.0373 131.863 41.9667 132.176 39.92 132.548C39.944 132.041 39.968 131.532 39.9896 131.023C41.9907 130.669 44.0373 130.336 46.0599 130.022C46.0599 130.532 46.0815 131.041 46.1055 131.57Z" fill="#E9996E"/>
<path d="M57.7306 128.594C57.5435 129.162 57.3347 129.75 57.15 130.317C54.0116 130.59 50.8949 130.944 47.7806 131.354C47.9413 130.806 48.0829 130.259 48.2221 129.709C51.3604 129.279 54.5443 128.907 57.7306 128.594Z" fill="#E9996E"/>
<path d="M25.5993 179.184C26.2975 180.026 26.9933 180.867 27.6675 181.729C26.1343 181.905 24.5771 182.061 23.0416 182.198C22.5545 181.337 22.0195 180.495 21.4844 179.634C22.8568 179.497 24.2268 179.341 25.5993 179.184Z" fill="#E9996E"/>
<path d="M52.0112 177.97C50.454 178.283 48.8729 178.596 47.3157 178.871C44.7796 179.322 42.2219 179.752 39.6642 180.144C39.6426 179.164 39.6187 178.186 39.6187 177.226C43.5943 176.58 47.546 175.855 51.4762 175.052C51.6393 176.012 51.8241 176.972 52.0112 177.97Z" fill="#E9996E"/>
<path d="M37.3403 110.994C40.3155 110.719 43.293 110.523 46.2682 110.406C46.2442 111.131 46.2226 111.874 46.1986 112.6C43.5954 112.677 41.0137 112.834 38.432 113.03C38.0841 112.404 37.7122 111.719 37.3403 110.994Z" fill="#E9996E"/>
<path d="M65.1242 110.485C64.7283 111.287 64.3564 112.091 64.0085 112.913C60.8222 112.677 57.6383 112.56 54.476 112.521C54.8239 111.737 55.1742 110.973 55.5676 110.21C58.754 110.23 61.9379 110.309 65.1242 110.485Z" fill="#E9996E"/>
<path d="M35.3642 97.6219C33.6894 97.329 32.0387 97.0158 30.3664 96.6824C30.2968 96.4663 30.1792 96.2521 30.0856 96.0359C31.7148 96.2905 33.3415 96.5451 34.9683 96.7794C35.1074 97.0744 35.225 97.3472 35.3642 97.6219Z" fill="#E9996E"/>
<path d="M46.9661 98.3267C46.9205 98.7571 46.8965 99.1874 46.8725 99.6178C45.2218 99.3652 43.595 99.0905 41.9443 98.7975C41.9683 98.4237 42.0139 98.0722 42.0378 97.7206C43.6886 97.9348 45.3153 98.1308 46.9661 98.3267Z" fill="#E9996E"/>
<path d="M70.3088 100.48C69.9369 101.145 69.541 101.832 69.1931 102.517C68.2621 102.438 67.3552 102.341 66.4266 102.242C64.38 102.028 62.3334 101.791 60.3107 101.537C60.6826 100.951 61.0329 100.343 61.4048 99.775C63.4491 99.971 65.4957 100.129 67.5183 100.284C68.4493 100.363 69.3778 100.422 70.3088 100.48Z" fill="#E9996E"/>
<path d="M26.2967 76.223C26.7862 77.4757 27.2973 78.7687 27.8323 80.1002C26.5535 80.0012 25.2746 79.884 23.9718 79.787C23.5543 78.5526 23.1824 77.2999 22.8081 76.0473C23.9718 76.0856 25.1331 76.1442 26.2967 76.223Z" fill="#E9996E"/>
<path d="M48.8725 77.9068C48.7094 79.218 48.5702 80.5494 48.431 81.9011C47.896 81.8425 47.3369 81.7839 46.8043 81.7435C45.8278 81.6667 44.8512 81.5677 43.8747 81.4889C44.0355 80.1393 44.2226 78.8078 44.4073 77.4966C45.8973 77.632 47.3849 77.7694 48.8725 77.9068Z" fill="#E9996E"/>
<path d="M83.0265 81.9007C82.026 83.0948 81.0495 84.3292 80.1425 85.5617C77.8655 85.2485 75.5862 84.9556 73.3092 84.6808C74.5401 83.4282 75.7493 82.2341 76.9346 81.1168C78.0983 81.2542 79.238 81.3916 80.3992 81.5492C81.2822 81.6664 82.1435 81.7835 83.0265 81.9007Z" fill="#E9996E"/>
<path d="M19.3216 57.8001C19.3216 57.8001 19.3672 57.9173 19.4608 58.1517H19.3672C19.3456 58.0345 19.3216 57.9173 19.3216 57.8001Z" fill="#E9996E"/>
<path d="M51.6158 57.3302C51.5007 58.0939 51.3831 58.8778 51.2439 59.6799C50.0803 59.5425 48.919 59.4254 47.7553 59.3264C47.9185 58.5445 48.1056 57.7606 48.2904 56.9968C49.4061 57.0958 50.5001 57.213 51.6158 57.3302Z" fill="#E9996E"/>
<path d="M97.8368 67.0802C97.117 67.6479 96.3948 68.254 95.675 68.8622C95.1856 68.7248 94.6985 68.5672 94.209 68.4318C95.4183 67.7853 96.4428 67.256 97.2322 66.8842C97.4409 66.9428 97.6281 67.0216 97.8368 67.0802Z" fill="#E9996E"/>
<path d="M55.1731 36.8321C55.058 37.4786 54.8468 38.4767 54.5925 39.7879C54.3118 39.7294 54.0095 39.7092 53.7095 39.6708C54.103 38.6727 54.5229 37.7332 54.9644 36.8119C55.034 36.8119 55.1035 36.8321 55.1731 36.8321Z" fill="#E9996E"/>
</svg>
