<svg width="811" height="880" viewBox="0 0 811 880" fill="none" xmlns="http://www.w3.org/2000/svg">
<rect y="-1" width="811" height="881" fill="#76548F"/>
<rect x="1" y="18" width="65" height="62.326" rx="5" fill="#EDCDA2"/>
<rect x="1" y="88.777" width="65" height="62.326" rx="5" fill="#EDCDA2"/>
<rect x="1" y="161.667" width="65" height="62.326" rx="5" fill="#EDCDA2"/>
<rect x="1" y="234.556" width="65" height="62.326" rx="5" fill="#EDCDA2"/>
<rect x="1" y="307.446" width="65" height="62.326" rx="5" fill="#EDCDA2"/>
<rect x="1" y="380.336" width="65" height="62.326" rx="5" fill="#EDCDA2"/>
<rect x="1" y="453.225" width="65" height="62.326" rx="5" fill="#EDCDA2"/>
<rect x="1" y="526.115" width="65" height="62.326" rx="5" fill="#EDCDA2"/>
<rect x="1" y="599.005" width="65" height="62.326" rx="5" fill="#EDCDA2"/>
<rect x="1" y="671.895" width="65" height="62.326" rx="5" fill="#EDCDA2"/>
<rect x="1" y="744.784" width="65" height="62.326" rx="5" fill="#EDCDA2"/>
<rect x="1" y="817.674" width="65" height="62.326" rx="5" fill="#EDCDA2"/>
<rect x="745" y="18" width="65" height="62.326" rx="5" fill="#EDCDA2"/>
<rect x="745" y="88.777" width="65" height="62.326" rx="5" fill="#EDCDA2"/>
<rect x="745" y="161.667" width="65" height="62.326" rx="5" fill="#EDCDA2"/>
<rect x="745" y="234.556" width="65" height="62.326" rx="5" fill="#EDCDA2"/>
<rect x="745" y="307.446" width="65" height="62.326" rx="5" fill="#EDCDA2"/>
<rect x="745" y="380.336" width="65" height="62.326" rx="5" fill="#EDCDA2"/>
<rect x="745" y="453.225" width="65" height="62.326" rx="5" fill="#EDCDA2"/>
<rect x="745" y="526.115" width="65" height="62.326" rx="5" fill="#EDCDA2"/>
<rect x="745" y="599.005" width="65" height="62.326" rx="5" fill="#EDCDA2"/>
<rect x="745" y="671.895" width="65" height="62.326" rx="5" fill="#EDCDA2"/>
<rect x="745" y="744.784" width="65" height="62.326" rx="5" fill="#EDCDA2"/>
<rect x="745" y="817.674" width="65" height="62.326" rx="5" fill="#EDCDA2"/>
</svg>
