<svg width="216" height="50" viewBox="0 0 216 50" fill="none" xmlns="http://www.w3.org/2000/svg">
<path d="M34.788 29.5143C34.788 29.5143 36.9867 9.29694 33.188 5.71027C29.3893 2.1236 25.192 4.7236 25.192 4.7236C25.192 4.7236 27.9907 5.68227 28.7907 9.60094C29.5893 13.5196 30.3067 22.7423 30.3067 22.7423C30.3067 22.7423 24.392 12.7209 14.9947 12.7209C5.59867 12.7209 0 25.2156 0 25.2156C0 25.2156 5.59867 14.3436 14.396 16.0303C23.192 17.7183 27.1907 29.5143 27.1907 29.5143C27.1907 29.5143 20.5933 26.5156 12.396 29.5143C4.19867 32.5129 3.2 43.9089 3.2 43.9089C3.2 43.9089 5.39867 33.1223 14.7947 32.8183C24.192 32.5129 27.9907 43.9089 27.9907 43.9089H35.4213L34.788 29.5143Z" fill="#279184"/>
<path d="M32.9387 47.5577C32.9387 47.5577 25.024 23.8657 16.536 21.3177C8.048 18.7684 5.948 24.7657 5.948 24.7657C5.948 24.7657 7.33066 15.2991 16.536 17.1831C25.7413 19.0684 30.3893 32.8177 30.3893 32.8177C30.3893 32.8177 27.2413 8.24707 23.192 5.70974C19.144 3.17374 16.536 4.82307 16.536 4.82307C16.536 4.82307 21.5427 -0.124927 25.7413 2.42441C29.94 4.97374 34.4387 27.9151 34.4387 27.9151C34.4387 27.9151 34.4467 11.8711 38.3413 6.4724C42.2347 1.07507 48.5333 8.42174 48.5333 8.42174C48.5333 8.42174 43.4347 5.2724 41.336 8.42174C39.236 11.5711 37.1373 30.0137 37.1373 30.0137C37.1373 30.0137 42.8347 17.9977 47.6333 17.1831C52.432 16.3684 57.0067 22.0671 57.0067 22.0671C57.0067 22.0671 51.9813 18.6177 49.4333 19.9671C46.884 21.3177 42.5347 32.8177 42.5347 32.8177C42.5347 32.8177 46.584 29.2644 48.9827 29.4137C51.3827 29.5644 51.532 32.8177 51.532 32.8177C51.532 32.8177 48.2333 31.5137 46.884 32.4137C45.5347 33.3124 40.328 44.4084 40.328 44.4084L32.9387 47.5577Z" fill="#35A59A"/>
<path d="M78.7983 43.7041C78.7983 43.7041 79.1357 30.1708 74.3677 28.8508C69.5997 27.5308 67.4423 31.4001 64.945 28.8508C62.4477 26.3028 62.9343 23.6561 60.3637 24.1894C57.793 24.7228 57.389 19.2801 57.389 19.2801C57.389 19.2801 56.657 24.5801 58.2463 26.3188C59.8357 28.0574 60.7783 24.9508 62.181 29.8134C63.5823 34.6761 66.3703 33.0428 69.0637 34.6761C71.757 36.3094 72.2623 43.7041 72.2623 43.7041H78.7983Z" fill="#279184"/>
<path d="M85.1414 41.6272C85.1414 41.6272 86.3054 29.4619 82.664 24.8099C79.0227 20.1579 77.6654 19.9819 78.7987 15.9446C79.9307 11.9059 77.4334 9.27255 77.4334 9.27255C77.4334 9.27255 78.1147 11.4272 77.4334 13.8619C76.752 16.2952 74.1414 19.1046 76.752 22.8792C79.3627 26.6539 81.8614 37.4646 81.6907 41.6272C81.52 45.7899 85.1414 41.6272 85.1414 41.6272Z" fill="#279184"/>
<path d="M85.6075 42.6295C85.6075 42.6295 84.4728 38.0655 86.6288 31.5695C88.7861 25.0735 92.1608 27.0895 94.3488 23.7655C96.5381 20.4415 95.5981 18.3789 97.0741 16.3709C98.5501 14.3642 101.274 14.5109 103.431 18.0362C103.431 18.0362 101.274 16.9682 99.6848 18.0362C98.0955 19.1042 99.1995 23.8789 97.8688 26.3189C96.5381 28.7602 96.2035 29.8135 93.4035 31.7442C90.6035 33.6762 89.3541 41.6269 89.3541 41.6269L85.6075 42.6295Z" fill="#279184"/>
<path d="M127.981 31.7084C127.981 31.7084 125.782 11.491 129.581 7.90436C133.379 4.3177 137.577 6.9177 137.577 6.9177C137.577 6.9177 134.778 7.87636 133.978 11.795C133.179 15.7137 132.462 24.9364 132.462 24.9364C132.462 24.9364 138.377 14.915 147.774 14.915C157.17 14.915 162.769 27.4097 162.769 27.4097C162.769 27.4097 157.17 16.5377 148.373 18.2244C139.577 19.9124 135.578 31.7084 135.578 31.7084C135.578 31.7084 142.175 28.7097 150.373 31.7084C158.57 34.707 159.569 46.103 159.569 46.103C159.569 46.103 157.37 35.3164 147.974 35.0124C138.577 34.707 134.778 46.103 134.778 46.103H127.347L127.981 31.7084Z" fill="#279184"/>
<path d="M129.83 49.7518C129.83 49.7518 137.745 26.0598 146.233 23.5118C154.721 20.9625 156.821 26.9598 156.821 26.9598C156.821 26.9598 155.438 17.4932 146.233 19.3772C137.028 21.2625 132.38 35.0118 132.38 35.0118C132.38 35.0118 135.528 10.4412 139.577 7.90383C143.625 5.36783 146.233 7.01717 146.233 7.01717C146.233 7.01717 141.226 2.06917 137.028 4.6185C132.829 7.16784 128.33 30.1092 128.33 30.1092C128.33 30.1092 128.322 14.0652 124.428 8.6665C120.534 3.26917 114.236 10.6158 114.236 10.6158C114.236 10.6158 119.334 7.4665 121.433 10.6158C123.533 13.7652 125.632 32.2078 125.632 32.2078C125.632 32.2078 119.934 20.1918 115.136 19.3772C110.337 18.5625 105.762 24.2612 105.762 24.2612C105.762 24.2612 110.788 20.8118 113.336 22.1612C115.885 23.5118 120.234 35.0118 120.234 35.0118C120.234 35.0118 116.185 31.4585 113.786 31.6078C111.386 31.7585 111.237 35.0118 111.237 35.0118C111.237 35.0118 114.536 33.7078 115.885 34.6078C117.234 35.5065 122.441 46.6025 122.441 46.6025L129.83 49.7518Z" fill="#35A59A"/>
<path d="M85.9481 41.6272C85.9481 41.6272 85.8347 33.8512 89.2401 28.9352C92.6467 24.0205 91.0814 18.7299 91.0814 16.3712C91.0814 14.0125 94.3494 11.0285 94.3494 11.0285C94.3494 11.0285 90.2627 10.6779 88.9001 13.1352C87.5374 15.5925 88.9001 22.2645 87.3667 22.8792C85.8347 23.4939 80.3054 26.2285 83.6374 41.6272" fill="#35A59A"/>
<path d="M81.746 42.6295C81.746 42.6295 83.4553 30.7615 78.798 27.6535C74.1407 24.5468 70.5073 27.5308 69.7127 21.9135C68.918 16.2948 63.73 16.9975 62.1807 21.9135C62.1807 21.9135 64.4047 18.5775 66.378 20.8602C68.3513 23.1428 65.8033 26.4775 69.0633 29.6375C72.3247 32.7975 75.0487 29.8135 76.298 35.0802C77.5473 40.3468 76.9793 44.3668 76.9793 44.3668L81.746 42.6295Z" fill="#35A59A"/>
<path d="M186.672 45.1617C186.672 45.1617 186.226 27.4111 192.524 25.6791C198.822 23.9484 201.671 29.0231 204.97 25.6791C208.268 22.3364 207.624 18.8657 211.02 19.5644C214.416 20.2644 214.948 13.1257 214.948 13.1257C214.948 13.1257 215.915 20.0777 213.816 22.3591C211.716 24.6391 210.472 20.5631 208.62 26.9417C206.768 33.3204 203.087 31.1791 199.53 33.3204C195.972 35.4617 195.306 45.1617 195.306 45.1617H186.672Z" fill="#279184"/>
<path d="M178.295 42.4373C178.295 42.4373 176.758 26.4813 181.567 20.3787C186.376 14.276 188.168 14.0467 186.672 8.74935C185.176 3.45335 188.475 1.39217e-05 188.475 1.39217e-05C188.475 1.39217e-05 187.576 2.82535 188.475 6.01735C189.375 9.21068 192.824 12.8947 189.375 17.8453C185.926 22.7973 182.627 36.9773 182.852 42.4373C183.078 47.8973 178.295 42.4373 178.295 42.4373Z" fill="#279184"/>
<path d="M177.679 43.7521C177.679 43.7521 179.179 37.7654 176.33 29.2441C173.48 20.7241 169.023 23.3694 166.134 19.0094C163.243 14.6481 164.484 11.9427 162.535 9.30941C160.586 6.67741 156.987 6.86941 154.138 11.4947C154.138 11.4947 156.987 10.0934 159.086 11.4947C161.184 12.8947 159.727 19.1561 161.484 22.3587C163.243 25.5601 163.684 26.9414 167.383 29.4747C171.082 32.0081 172.731 42.4374 172.731 42.4374L177.679 43.7521Z" fill="#279184"/>
<path d="M177.229 42.4374C177.229 42.4374 177.379 32.2387 172.881 25.7907C168.383 19.3427 170.449 12.4027 170.449 9.30938C170.449 6.21738 166.133 2.30271 166.133 2.30271C166.133 2.30271 171.532 1.84138 173.331 5.06538C175.131 8.28938 173.331 17.04 175.355 17.8454C177.379 18.652 184.683 22.24 180.281 42.4374" fill="#35A59A"/>
<path d="M182.779 43.752C182.779 43.752 180.52 28.1853 186.672 24.1093C192.823 20.0333 197.622 23.948 198.671 16.58C199.72 9.21065 206.574 10.132 208.62 16.58C208.62 16.58 205.683 12.204 203.076 15.1973C200.471 18.1907 203.836 22.5667 199.53 26.712C195.223 30.856 191.624 26.9413 189.975 33.8507C188.326 40.7587 189.075 46.032 189.075 46.032L182.779 43.752Z" fill="#35A59A"/>
</svg>
