<svg width="212" height="149" viewBox="0 0 212 149" fill="none" xmlns="http://www.w3.org/2000/svg">
<g filter="url(#filter0_f_24_92)">
<path d="M86.4172 108.093L85.6225 109.242C86.1105 109.869 86.3705 110.595 86.4025 111.423C86.4345 112.253 86.2065 113.017 85.7212 113.718L84.8185 115.023C84.7919 115.062 84.7585 115.069 84.7199 115.042L82.9279 113.802C82.8892 113.774 82.8825 113.742 82.9092 113.703L83.7932 112.385C84.0545 112.007 84.1425 111.622 84.0599 111.229C83.9772 110.835 83.7799 110.531 83.4679 110.315C83.1425 110.09 82.7812 110.023 82.3839 110.113C81.9852 110.202 81.6705 110.415 81.4359 110.753C81.2119 111.078 81.0919 111.403 81.0772 111.729C81.0625 112.055 81.1679 112.459 81.3919 112.941L82.3892 114.955C82.7225 115.609 82.8945 116.255 82.9039 116.897C82.9119 117.535 82.6919 118.181 82.2425 118.83C81.7305 119.57 81.0865 120.07 80.3105 120.33C79.5359 120.59 78.7572 120.605 77.9772 120.373L77.1825 121.522C77.1465 121.574 77.0959 121.577 77.0305 121.531L75.3359 120.359C75.2839 120.323 75.2759 120.279 75.3119 120.227L76.0945 119.098C75.5799 118.453 75.3065 117.703 75.2759 116.846C75.2439 115.989 75.4759 115.203 75.9705 114.489L76.4825 113.749C76.5185 113.697 76.5625 113.689 76.6145 113.725L78.3865 114.951C78.4252 114.978 78.4265 115.018 78.3919 115.07L77.8799 115.81C77.6452 116.147 77.5612 116.526 77.6265 116.946C77.6919 117.366 77.8865 117.687 78.2105 117.913C78.5479 118.146 78.9185 118.214 79.3212 118.118C79.7239 118.022 80.0332 117.818 80.2479 117.507C80.5265 117.105 80.5119 116.585 80.2025 115.949C80.1052 115.729 79.9425 115.394 79.7145 114.949C79.4852 114.502 79.2732 114.086 79.0785 113.702C78.7012 112.942 78.5585 112.199 78.6479 111.474C78.7372 110.747 79.0105 110.054 79.4692 109.391C79.9719 108.665 80.6212 108.178 81.4159 107.93C82.2105 107.683 82.9945 107.682 83.7652 107.929L84.5479 106.799C84.5839 106.747 84.6265 106.738 84.6785 106.774L86.3745 107.947C86.4385 107.993 86.4532 108.041 86.4172 108.093ZM78.1159 102.353C74.9732 103.067 72.2905 104.982 70.5772 107.721C68.8639 110.457 68.3199 113.698 69.0425 116.845C69.7665 119.993 71.6732 122.669 74.4119 124.382C77.1492 126.097 80.3892 126.641 83.5359 125.917C83.8092 125.855 84.0772 125.783 84.3399 125.705C87.1385 124.859 89.5079 123.051 91.0745 120.55C92.7879 117.813 93.3319 114.571 92.6092 111.425C91.8852 108.278 89.9785 105.601 87.2412 103.887C84.5052 102.173 81.2639 101.629 78.1159 102.353Z" fill="#659D00"/>
<path d="M12.0692 117.468C24.8025 105.904 51.0279 66.252 54.8185 60.496C61.5879 66.348 68.0892 71.5013 74.2999 76.06C112.133 103.824 139.309 109.04 153.495 109.379L153.509 109.431L153.676 109.38C156.951 109.435 159.525 109.243 161.363 109.008C159.147 110.429 156.944 111.763 154.769 113.047C145.163 112.231 114.22 107.413 74.4972 79.3426C69.7332 75.9773 64.8572 72.2826 59.8679 68.2186L59.2945 67.7506L58.8945 68.36C58.2559 69.2906 57.2852 69.904 56.1799 70.072C55.0612 70.2426 53.9519 69.936 53.0825 69.224L52.5092 68.7573L52.1079 69.3653C44.7892 80.2266 30.9519 100.257 20.4825 112.447L19.9372 113.085L20.6812 113.473C21.7412 114.031 22.4732 115.021 22.7052 116.205C22.9452 117.413 22.6319 118.636 21.8292 119.576L21.3092 120.207L22.0279 120.601C29.9839 124.897 54.7719 136.685 86.1039 136.384C73.3905 137.453 62.3532 136.512 53.3465 134.776C29.8985 130.285 15.1785 119.829 12.0692 117.468Z" fill="#659D00"/>
<path d="M165.968 73.7462L164.757 75.4142C164.71 75.4768 164.661 75.4902 164.61 75.4542L163.48 74.6315C162.842 75.1062 162.109 75.3502 161.28 75.3622C160.452 75.3755 159.692 75.1302 159.001 74.6288L157.717 73.6968C157.68 73.6688 157.674 73.6355 157.702 73.5968L158.982 71.8342C159.01 71.7955 159.044 71.7902 159.082 71.8182L160.38 72.7328C160.75 73.0008 161.133 73.0982 161.529 73.0248C161.924 72.9515 162.233 72.7608 162.456 72.4542C162.688 72.1342 162.764 71.7742 162.684 71.3755C162.604 70.9755 162.397 70.6542 162.065 70.4128C161.745 70.1808 161.422 70.0542 161.097 70.0328C160.772 70.0102 160.365 70.1048 159.878 70.3182L157.841 71.2688C157.18 71.5888 156.529 71.7448 155.889 71.7395C155.25 71.7328 154.61 71.4982 153.972 71.0342C153.244 70.5048 152.758 69.8502 152.516 69.0688C152.273 68.2875 152.277 67.5088 152.528 66.7342L151.397 65.9128C151.345 65.8755 151.344 65.8248 151.389 65.7622L152.601 64.0942C152.638 64.0435 152.682 64.0355 152.733 64.0728L153.845 64.8808C154.501 64.3808 155.257 64.1262 156.114 64.1142C156.972 64.1022 157.752 64.3528 158.454 64.8635L159.184 65.3915C159.234 65.4288 159.241 65.4728 159.204 65.5235L157.937 67.2675C157.909 67.3062 157.869 67.3075 157.818 67.2702L157.09 66.7408C156.758 66.4995 156.382 66.4062 155.961 66.4622C155.54 66.5168 155.213 66.7048 154.981 67.0248C154.74 67.3568 154.662 67.7248 154.749 68.1302C154.837 68.5342 155.033 68.8475 155.34 69.0702C155.736 69.3582 156.256 69.3555 156.898 69.0608C157.121 68.9688 157.458 68.8142 157.91 68.5955C158.361 68.3768 158.781 68.1742 159.17 67.9888C159.938 67.6288 160.685 67.5022 161.408 67.6088C162.132 67.7142 162.82 68.0035 163.47 68.4782C164.186 68.9968 164.658 69.6568 164.888 70.4582C165.116 71.2582 165.098 72.0408 164.834 72.8062L165.946 73.6142C165.998 73.6515 166.005 73.6955 165.968 73.7462ZM156.258 57.8835C153.081 58.5302 150.374 60.3795 148.6 63.0768C146.824 65.7742 146.204 69.0022 146.856 72.1648C147.508 75.3275 149.35 78.0475 152.049 79.8235C154.746 81.5995 157.974 82.2182 161.137 81.5675C161.504 81.4928 161.861 81.4008 162.214 81.2942C164.916 80.4782 167.225 78.7595 168.796 76.3742C170.572 73.6768 171.19 70.4488 170.54 67.2862C169.888 64.1235 168.044 61.4035 165.346 59.6275C162.648 57.8515 159.421 57.2328 156.258 57.8835Z" fill="#659D00"/>
<path d="M116.305 99.0537C119.8 95.2684 122.134 90.871 123.586 86.2257C129.393 67.9657 121.997 45.839 120.369 41.3724C154.654 36.8777 189.708 15.5617 195.23 12.083C199.018 24.895 200.456 36.1057 200.309 45.8577C200.045 64.435 194.093 77.6964 187.912 86.5137C177.85 100.836 165.074 106.771 164.328 107.108C164.072 107.186 161.649 107.834 157.22 108.016C163.801 105.136 174.317 98.7284 182.877 87.9657C191.748 76.803 196.62 63.7004 197.462 48.835C197.94 40.6404 197.178 31.9004 195.193 22.6524L195.01 21.7737L194.222 22.207C193.22 22.7604 192.06 22.791 191.026 22.323C190.018 21.847 189.318 20.959 189.101 19.8684L188.916 18.9777L188.118 19.427C177.608 25.347 161.249 33.5764 142.972 39.099C138.249 40.5257 133.592 41.7097 129.116 42.6164L128.433 42.7537L128.612 43.4377C128.856 44.3804 128.714 45.3417 128.197 46.167C127.693 46.9884 126.889 47.551 125.938 47.727L125.242 47.867L125.422 48.5524C127.905 57.8297 130.493 72.899 126.413 86.3617C124.936 91.2924 122.554 95.995 118.944 100.136C118.073 99.787 117.197 99.4244 116.305 99.0537Z" fill="#659D00"/>
<path d="M67.74 117.139C66.936 113.649 67.548 110.051 69.444 107.014C71.1814 104.233 73.8187 102.223 76.9214 101.286C77.2147 101.198 77.512 101.122 77.8134 101.058C77.9694 101.025 78.14 100.987 78.3 100.967C81.652 100.303 85.0467 100.935 87.952 102.759C90.9894 104.655 93.1027 107.638 93.9067 111.127C94.7107 114.618 94.1107 118.211 92.2027 121.254C91.1774 122.886 89.8267 124.27 88.2574 125.301C86.928 126.203 85.4387 126.849 83.8374 127.221C80.3467 128.025 76.7374 127.417 73.712 125.517C70.6694 123.609 68.548 120.642 67.74 117.139ZM24.02 115.946C24.2814 117.274 24.024 118.634 23.3254 119.778C32.6094 124.69 60.2254 137.307 94.116 134.687C98.2254 134.365 102.433 133.818 106.704 133.015C120.705 129.662 136.171 123.778 152.817 114.194C141.507 112.945 111.969 107.202 74.6427 81.0688C69.7374 77.6474 64.6894 73.8514 59.544 69.6821C58.7334 70.5954 57.5947 71.2034 56.3694 71.3928C55.1414 71.5688 53.8787 71.3101 52.8254 70.6808C45.5214 81.4954 32.2694 100.654 21.9894 112.73C23.0307 113.502 23.7654 114.645 24.02 115.946Z" fill="#AAD25A"/>
<path d="M145.548 72.4316C144.822 68.9183 145.508 65.3396 147.487 62.3463C149.234 59.6876 151.792 57.7863 154.792 56.8797C155.188 56.761 155.575 56.657 155.982 56.5756C159.499 55.8623 163.09 56.5463 166.08 58.5117C169.074 60.4903 171.127 63.505 171.84 67.0223C172.342 69.4623 172.166 71.925 171.363 74.201C171.002 75.2156 170.514 76.185 169.915 77.1036C167.935 80.097 164.916 82.1383 161.407 82.8783C158.939 83.373 156.447 83.193 154.159 82.3516C153.174 81.9956 152.224 81.529 151.322 80.9383C148.316 78.9636 146.275 75.945 145.548 72.4316ZM124.872 96.3396C126.867 95.793 128.85 95.9036 130.827 96.6863L134.511 98.1356C134.619 98.173 134.659 98.2583 134.61 98.3703L132.623 103.414C132.574 103.526 132.502 103.562 132.392 103.525L128.682 102.125C127.623 101.708 126.635 101.713 125.73 102.126C125.524 102.23 125.364 102.348 125.192 102.469C128.426 103.582 131.471 104.486 134.327 105.225L135.735 104.076C137.131 102.888 138.595 102.112 140.15 101.725C141.692 101.342 143.383 101.5 145.219 102.228C147.304 103.045 148.888 104.322 149.956 106.061C150.335 106.67 150.596 107.302 150.831 107.941C151.724 107.992 152.6 108.034 153.414 108.053C156.971 106.782 192.726 92.8596 196.03 50.549C196.651 42.645 196.131 33.7343 194.058 23.7343C192.886 24.1437 191.61 24.069 190.47 23.5223C189.34 23.0143 188.498 22.113 188.048 20.9943C177.47 26.921 161.34 34.9423 143.356 40.3756C138.826 41.745 134.339 42.8916 130.028 43.7903C130.158 44.865 129.912 45.9423 129.328 46.8703C128.75 47.8116 127.895 48.4876 126.876 48.8503C129.327 58.2503 131.73 73.0263 127.803 86.401C126.706 90.145 125.111 93.761 122.898 97.1316C123.51 96.8076 124.163 96.5263 124.872 96.3396Z" fill="#AAD25A"/>
<mask id="mask0_24_92" style="mask-type:luminance" maskUnits="userSpaceOnUse" x="157" y="45" width="44" height="64">
<path d="M157.219 45.8573H200.31V108.017H157.219V45.8573Z" fill="white"/>
</mask>
<g mask="url(#mask0_24_92)">
<g opacity="0.5">
<path d="M197.462 48.835C198.369 47.7804 199.305 46.7737 200.309 45.8577C200.045 64.435 194.093 77.6964 187.912 86.5137C177.85 100.836 165.074 106.771 164.326 107.11C164.072 107.186 161.649 107.835 157.22 108.016C163.801 105.136 174.317 98.7284 182.877 87.9657C191.748 76.803 196.62 63.7004 197.462 48.835Z" fill="#AAD25A"/>
</g>
</g>
<mask id="mask1_24_92" style="mask-type:luminance" maskUnits="userSpaceOnUse" x="122" y="50" width="75" height="59">
<path d="M122.898 50.5493H196.03V108.052H122.898V50.5493Z" fill="white"/>
</mask>
<g mask="url(#mask1_24_92)">
<g opacity="0.5">
<path d="M127.803 86.4007C136.729 86.5314 145.673 85.1527 154.159 82.3514C155.057 82.0527 155.951 81.7407 156.842 81.4154C161.925 79.5181 166.81 77.1087 171.363 74.2007C172.299 73.6114 173.227 72.9967 174.137 72.3607C181.634 67.0727 188.159 60.5047 193.855 53.3101C194.569 52.3981 195.291 51.4687 196.03 50.5487C192.726 92.8594 156.971 106.782 153.414 108.053C152.599 108.034 151.723 107.991 150.831 107.941C150.595 107.302 150.335 106.67 149.957 106.061C148.887 104.322 147.305 103.045 145.218 102.227C143.383 101.499 141.691 101.342 140.15 101.725C138.595 102.111 137.13 102.887 135.734 104.075L134.326 105.225C131.471 104.486 128.426 103.582 125.193 102.469C125.365 102.347 125.525 102.23 125.73 102.126C126.635 101.713 127.622 101.707 128.682 102.125L132.393 103.526C132.501 103.562 132.574 103.526 132.623 103.414L134.61 98.3701C134.659 98.2581 134.619 98.1727 134.51 98.1354L130.827 96.6861C128.85 95.9047 126.866 95.7927 124.873 96.3394C124.163 96.5261 123.51 96.8074 122.897 97.1314C125.11 93.7607 126.706 90.1447 127.803 86.4007Z" fill="#AAD25A"/>
</g>
</g>
<mask id="mask2_24_92" style="mask-type:luminance" maskUnits="userSpaceOnUse" x="116" y="86" width="11" height="15">
<path d="M116.304 86.2262H126.412V100.136H116.304V86.2262Z" fill="white"/>
</mask>
<g mask="url(#mask2_24_92)">
<g opacity="0.5">
<path d="M116.305 99.0536C119.8 95.2682 122.134 90.8709 123.586 86.2256C124.525 86.2909 125.473 86.3389 126.413 86.3616C124.936 91.2922 122.554 95.9949 118.944 100.136C118.073 99.7869 117.197 99.4242 116.305 99.0536Z" fill="#AAD25A"/>
</g>
</g>
<mask id="mask3_24_92" style="mask-type:luminance" maskUnits="userSpaceOnUse" x="21" y="69" width="74" height="67">
<path d="M21.9897 69.6814H94.1164V135.042H21.9897V69.6814Z" fill="white"/>
</mask>
<g mask="url(#mask3_24_92)">
<g opacity="0.5">
<path d="M88.2575 125.301C89.5735 127.676 90.9682 129.984 92.4468 132.253C92.9895 133.078 93.5402 133.886 94.1162 134.688C60.2255 137.308 32.6095 124.689 23.3255 119.778C24.0242 118.634 24.2815 117.274 24.0202 115.946C23.7655 114.645 23.0308 113.501 21.9895 112.73C32.2695 100.654 45.5215 81.4957 52.8255 70.681C53.8788 71.309 55.1415 71.569 56.3695 71.393C57.5948 71.2037 58.7335 70.5957 59.5442 69.681C64.6895 73.8517 69.7362 77.6477 74.6428 81.0677C75.2535 87.793 76.4855 94.4544 78.3002 100.968C80.6602 109.42 84.0002 117.617 88.2575 125.301Z" fill="#AAD25A"/>
</g>
</g>
<mask id="mask4_24_92" style="mask-type:luminance" maskUnits="userSpaceOnUse" x="12" y="60" width="75" height="77">
<path d="M12.0697 60.496H86.1044V136.837H12.0697V60.496Z" fill="white"/>
</mask>
<g mask="url(#mask4_24_92)">
<g opacity="0.5">
<path d="M12.0692 117.468C24.8025 105.904 51.0278 66.252 54.8185 60.496C61.5878 66.348 68.0892 71.5013 74.2998 76.06C74.3358 77.1493 74.4025 78.244 74.4972 79.3426C69.7332 75.9773 64.8572 72.2826 59.8678 68.2186L59.2945 67.7506L58.8945 68.36C58.2558 69.2906 57.2852 69.904 56.1798 70.072C55.0612 70.2426 53.9518 69.936 53.0825 69.224L52.5092 68.7573L52.1078 69.3653C44.7892 80.2266 30.9518 100.257 20.4825 112.447L19.9372 113.085L20.6812 113.473C21.7412 114.031 22.4732 115.021 22.7052 116.205C22.9452 117.413 22.6318 118.636 21.8292 119.576L21.3092 120.207L22.0278 120.601C29.9838 124.897 54.7718 136.685 86.1038 136.384C73.3905 137.453 62.3532 136.512 53.3465 134.776C29.8985 130.285 15.1785 119.829 12.0692 117.468Z" fill="#AAD25A"/>
</g>
</g>
<mask id="mask5_24_92" style="mask-type:luminance" maskUnits="userSpaceOnUse" x="79" y="88" width="6" height="12">
<path d="M79.9524 88.6908H84.1457V99.2302H79.9524V88.6908Z" fill="white"/>
</mask>
<g mask="url(#mask5_24_92)">
<g opacity="0.5">
<path d="M82.781 90.1388C82.601 89.7428 82.3904 89.3468 82.065 89.0574C81.7384 88.7694 81.273 88.6054 80.857 88.7374C80.457 88.8641 80.1757 89.2441 80.0557 89.6468C79.9344 90.0494 79.9464 90.4788 79.961 90.9001C80.0277 92.7921 80.1224 94.7174 80.769 96.4974C81.373 98.1548 82.9424 100.865 83.8597 97.9201C84.6024 95.5401 83.7744 92.3281 82.781 90.1388Z" fill="#AAD25A"/>
</g>
</g>
<path d="M186.049 68.5554C186.226 68.1581 186.382 67.7381 186.382 67.3021C186.381 66.8661 186.195 66.4087 185.821 66.1861C185.459 65.9714 184.99 66.0127 184.607 66.1901C184.226 66.3661 183.913 66.6607 183.609 66.9514C182.237 68.2567 180.859 69.6047 179.958 71.2701C179.117 72.8221 178.131 75.7941 180.943 74.5274C183.217 73.5021 185.07 70.7514 186.049 68.5554Z" fill="#AAD25A"/>
<path d="M53.016 136.074C66.776 138.722 85.1653 139.578 107.083 134.305C99.8573 135.68 92.8293 136.314 86.1053 136.381C73.384 137.456 62.3573 136.509 53.3427 134.78C29.9053 130.288 15.1707 119.828 12.0693 117.462C24.7973 105.906 51.028 66.2517 54.812 60.4917C102.865 101.974 136.981 108.998 153.493 109.373L153.125 108.153C153.145 108.146 153.249 108.112 153.413 108.053C152.596 108.033 151.731 107.996 150.825 107.94C150.885 108.116 150.961 108.288 151.013 108.465C150.844 108.47 150.669 108.489 150.485 108.541C149.125 108.924 147.56 108.38 146.217 108.112C144.383 107.745 142.545 107.397 140.712 107.02C138.393 106.544 136.065 106.154 133.747 105.704L134.332 105.222C131.476 104.489 128.428 103.582 125.189 102.466C124.875 102.684 124.588 102.925 124.363 103.214C122.761 102.666 121.188 102.045 119.641 101.364C119.616 101.392 119.593 101.421 119.568 101.449L118.579 100.557C118.703 100.418 118.816 100.274 118.937 100.134C118.073 99.789 117.197 99.4277 116.311 99.053C116.072 99.3104 115.851 99.577 115.601 99.829L114.652 98.8917C114.777 98.7637 114.885 98.6264 115.009 98.497C98.6813 91.413 78.5787 79.333 55.1093 58.985L54.532 58.485L54.1147 59.1237C53.8107 59.589 23.6213 105.709 10.5933 116.99L10 117.502L10.6027 118.005C10.7573 118.134 26.3253 130.94 53.016 136.074Z" fill="#004700"/>
<path d="M106.702 133.019C67.1876 140.489 33.7289 125.285 23.3276 119.779C24.0289 118.639 24.2796 117.281 24.0182 115.947C23.7622 114.642 23.0382 113.505 21.9916 112.727C32.2702 100.657 45.5289 81.4995 52.8302 70.6768C53.8836 71.3155 55.1382 71.5741 56.3689 71.3915C57.5982 71.2088 58.7276 70.5955 59.5476 69.6781C103.885 105.622 140.028 112.778 152.818 114.194C153.594 114.279 154.296 114.346 154.896 114.395L155.002 113.066C154.929 113.059 154.841 113.05 154.764 113.045C144.014 112.134 106.505 106.214 59.8622 68.2168L59.2969 67.7541L58.8889 68.3608C58.2556 69.2968 57.2902 69.9075 56.1742 70.0715C55.0542 70.2395 53.9556 69.9368 53.0782 69.2221L52.5129 68.7621L52.1049 69.3675C44.7916 80.2261 30.9569 100.261 20.4782 112.445L19.9329 113.081L20.6742 113.47C21.7369 114.027 22.4782 115.025 22.7089 116.203C22.9449 117.407 22.6262 118.637 21.8316 119.579L21.3062 120.207L22.0262 120.595C29.9876 124.895 54.7716 136.689 86.1062 136.381C92.8289 136.315 99.8569 135.679 107.082 134.305C107.504 134.225 107.921 134.158 108.344 134.073L108.328 133.995L108.08 132.765C107.618 132.858 107.162 132.933 106.702 133.019Z" fill="#004700"/>
<path d="M115.601 99.8292C115.851 99.5772 116.073 99.3106 116.311 99.0532C133.528 80.3839 122.407 46.9732 120.365 41.3732C154.652 36.8799 189.705 15.5572 195.236 12.0812C206.228 49.2612 197.347 73.0626 187.909 86.5079C177.852 100.839 165.071 106.775 164.329 107.109C164.311 107.117 164.293 107.125 164.291 107.127L164.823 108.348C164.827 108.347 164.848 108.337 164.88 108.323C165.843 107.885 178.78 101.807 188.96 87.3319C198.664 73.5359 207.807 49.0692 196.26 10.8519L196.003 9.9999L195.257 10.4866C194.873 10.7372 156.495 35.5906 119.363 40.1559L118.504 40.2612L118.825 41.0666C118.977 41.4452 133.675 78.8946 115.009 98.4972C114.887 98.6266 114.777 98.7639 114.652 98.8919L115.601 99.8292Z" fill="#004700"/>
<path d="M153.67 109.376C154.647 109.072 155.846 108.624 157.217 108.023C163.806 105.134 174.313 98.7245 182.87 87.9631C196.635 70.6525 200.781 48.6791 195.194 22.6511L195.007 21.7765L194.222 22.2071C193.219 22.7591 192.054 22.7965 191.029 22.3191C190.022 21.8511 189.319 20.9591 189.099 19.8711L188.918 18.9711L188.118 19.4218C177.613 25.3511 161.253 33.5765 142.975 39.0991C138.249 40.5271 133.587 41.7098 129.121 42.6125L128.426 42.7525L128.607 43.4365C128.857 44.3765 128.711 45.3471 128.199 46.1685C127.689 46.9871 126.882 47.5498 125.937 47.7311L125.241 47.8698L125.423 48.5565C128.806 61.2391 132.411 84.6978 118.938 100.135C118.815 100.275 118.703 100.418 118.578 100.556L119.569 101.448C119.594 101.422 119.617 101.392 119.641 101.364C119.567 101.332 119.491 101.303 119.418 101.271C120.202 100.212 120.897 99.0738 121.605 97.9578C122.009 97.6485 122.442 97.3765 122.895 97.1325C133.069 81.6978 130.007 60.8858 126.881 48.8511C127.895 48.4911 128.751 47.8058 129.331 46.8738C129.914 45.9378 130.154 44.8631 130.029 43.7871C134.341 42.8938 138.821 41.7471 143.361 40.3751C161.341 34.9431 177.465 26.9178 188.049 20.9911C188.497 22.1071 189.346 23.0085 190.466 23.5285C191.614 24.0631 192.891 24.1458 194.059 23.7285C207.235 87.2125 157.633 106.547 153.414 108.052C153.25 108.111 153.146 108.146 153.125 108.152L153.494 109.374L153.511 109.428C153.559 109.414 153.619 109.392 153.67 109.376Z" fill="#004700"/>
<path d="M145.216 102.227C143.384 101.505 141.694 101.336 140.146 101.72C138.597 102.104 137.124 102.889 135.726 104.073L134.332 105.221L133.748 105.704C136.065 106.155 138.394 106.543 140.712 107.02C142.545 107.397 144.382 107.745 146.217 108.112C147.56 108.38 149.125 108.923 150.485 108.541C150.67 108.489 150.845 108.469 151.014 108.465C150.962 108.287 150.886 108.116 150.825 107.94C150.601 107.299 150.332 106.668 149.957 106.063C148.885 104.329 147.304 103.049 145.216 102.227Z" fill="#004700"/>
<path d="M128.685 102.123L132.389 103.519C132.499 103.563 132.576 103.53 132.619 103.42L134.612 98.3644C134.655 98.2537 134.621 98.1777 134.512 98.135L130.829 96.683C128.852 95.903 126.865 95.787 124.872 96.335C124.16 96.5297 123.507 96.8044 122.896 97.1324C122.443 97.3764 122.009 97.6484 121.604 97.9577C120.897 99.0737 120.203 100.212 119.417 101.271C119.492 101.303 119.567 101.331 119.641 101.364C121.188 102.046 122.761 102.666 124.363 103.214C124.588 102.924 124.875 102.683 125.189 102.466C125.361 102.347 125.528 102.226 125.729 102.132C126.637 101.708 127.624 101.704 128.685 102.123Z" fill="#004700"/>
<path d="M164.887 70.4577C164.658 69.6564 164.186 68.9977 163.471 68.4777C162.819 68.0044 162.131 67.7137 161.408 67.6084C160.684 67.5031 159.939 67.6284 159.17 67.9884C158.782 68.1751 158.362 68.3764 157.91 68.5951C157.458 68.8137 157.122 68.9684 156.899 69.0604C156.255 69.3551 155.735 69.3577 155.339 69.0697C155.032 68.8471 154.836 68.5337 154.75 68.1297C154.663 67.7244 154.74 67.3564 154.982 67.0244C155.214 66.7044 155.54 66.5177 155.96 66.4617C156.382 66.4071 156.758 66.4991 157.091 66.7404L157.819 67.2697C157.87 67.3071 157.91 67.3057 157.938 67.2684L159.204 65.5244C159.242 65.4724 159.234 65.4284 159.183 65.3924L158.455 64.8631C157.752 64.3524 156.972 64.1031 156.115 64.1137C155.256 64.1257 154.5 64.3817 153.844 64.8804L152.734 64.0737C152.682 64.0364 152.638 64.0431 152.6 64.0951L151.39 65.7617C151.343 65.8257 151.346 65.8751 151.396 65.9124L152.527 66.7337C152.276 67.5084 152.272 68.2871 152.515 69.0684C152.758 69.8497 153.243 70.5044 153.972 71.0337C154.611 71.4977 155.25 71.7324 155.89 71.7391C156.53 71.7444 157.18 71.5884 157.842 71.2684L159.879 70.3177C160.366 70.1057 160.771 70.0097 161.096 70.0324C161.423 70.0537 161.746 70.1804 162.064 70.4124C162.396 70.6537 162.603 70.9751 162.683 71.3751C162.763 71.7751 162.688 72.1351 162.455 72.4537C162.232 72.7604 161.924 72.9511 161.528 73.0257C161.134 73.0991 160.751 73.0017 160.38 72.7324L159.082 71.8177C159.043 71.7897 159.011 71.7951 158.983 71.8337L157.702 73.5977C157.674 73.6351 157.679 73.6684 157.718 73.6964L159.002 74.6297C159.691 75.1311 160.451 75.3751 161.28 75.3617C162.11 75.3497 162.842 75.1057 163.479 74.6324L164.61 75.4537C164.662 75.4911 164.71 75.4777 164.756 75.4137L165.967 73.7457C166.004 73.6951 165.998 73.6511 165.947 73.6137L164.835 72.8057C165.099 72.0404 165.115 71.2577 164.887 70.4577Z" fill="#004700"/>
<path d="M170.539 67.2862C171.19 70.4489 170.571 73.6769 168.795 76.3742C167.225 78.7596 164.915 80.4782 162.214 81.2942C161.861 81.4009 161.503 81.4929 161.137 81.5676C157.974 82.2196 154.746 81.5996 152.049 79.8236C149.35 78.0476 147.507 75.3276 146.855 72.1649C146.203 69.0022 146.823 65.7756 148.599 63.0769C150.374 60.3796 153.081 58.5302 156.258 57.8836C159.421 57.2329 162.647 57.8516 165.346 59.6276C168.043 61.4036 169.887 64.1236 170.539 67.2862ZM155.989 56.5769C155.582 56.6622 155.183 56.7622 154.791 56.8809C151.793 57.7876 149.229 59.6956 147.486 62.3449C145.514 65.3396 144.826 68.9222 145.549 72.4342C146.273 75.9462 148.321 78.9649 151.315 80.9369C154.311 82.9089 157.893 83.5969 161.406 82.8742C164.918 82.1396 167.938 80.1009 169.909 77.1076C171.881 74.1116 172.567 70.5289 171.845 67.0169C171.122 63.5062 169.074 60.4862 166.078 58.5142C163.083 56.5422 159.501 55.8542 155.989 56.5769Z" fill="#004700"/>
<path d="M84.5473 106.799L83.766 107.928C82.994 107.683 82.2113 107.684 81.4166 107.931C80.6206 108.177 79.9726 108.664 79.4686 109.392C79.0113 110.053 78.7366 110.748 78.6473 111.473C78.558 112.199 78.702 112.941 79.0793 113.701C79.274 114.087 79.486 114.501 79.714 114.948C79.9433 115.395 80.106 115.728 80.2033 115.949C80.5113 116.585 80.5273 117.104 80.2486 117.507C80.0326 117.819 79.7233 118.023 79.3206 118.119C78.918 118.215 78.5486 118.145 78.2113 117.912C77.886 117.688 77.6913 117.365 77.626 116.945C77.5606 116.525 77.646 116.148 77.8793 115.809L78.3913 115.069C78.4273 115.019 78.426 114.979 78.3873 114.952L76.614 113.725C76.562 113.689 76.518 113.697 76.482 113.749L75.97 114.489C75.4766 115.204 75.2446 115.988 75.2753 116.845C75.3073 117.703 75.5793 118.453 76.094 119.097L75.3126 120.227C75.2766 120.279 75.2846 120.323 75.3366 120.359L77.0313 121.532C77.0953 121.576 77.146 121.573 77.182 121.521L77.978 120.372C78.7566 120.604 79.5353 120.591 80.3113 120.331C81.086 120.069 81.73 119.569 82.242 118.829C82.6913 118.18 82.9126 117.536 82.9033 116.896C82.8953 116.256 82.7233 115.609 82.3886 114.955L81.3926 112.94C81.1673 112.459 81.0633 112.055 81.078 111.729C81.0926 111.403 81.2113 111.077 81.4366 110.753C81.67 110.415 81.986 110.201 82.3833 110.112C82.782 110.023 83.1433 110.091 83.4673 110.315C83.7793 110.531 83.9766 110.835 84.0606 111.229C84.142 111.623 84.054 112.008 83.794 112.384L82.91 113.703C82.8833 113.741 82.8886 113.775 82.9273 113.801L84.7193 115.041C84.7593 115.068 84.7913 115.063 84.818 115.024L85.722 113.719C86.2073 113.017 86.434 112.252 86.402 111.424C86.3713 110.595 86.1113 109.868 85.622 109.241L86.4166 108.092C86.4526 108.041 86.4393 107.992 86.374 107.947L84.6793 106.775C84.6273 106.739 84.5833 106.747 84.5473 106.799Z" fill="#004700"/>
<path d="M92.6091 111.425C93.3331 114.572 92.7891 117.813 91.0744 120.549C89.5091 123.052 87.1384 124.859 84.3398 125.704C84.0771 125.784 83.8091 125.856 83.5371 125.917C80.3904 126.641 77.1491 126.097 74.4118 124.383C71.6731 122.669 69.7664 119.993 69.0438 116.845C68.3198 113.699 68.8638 110.457 70.5784 107.721C72.2918 104.983 74.9731 103.067 78.1158 102.353C81.2638 101.629 84.5051 102.173 87.2411 103.888C89.9784 105.601 91.8851 108.277 92.6091 111.425ZM77.8171 101.053C77.5158 101.123 77.2184 101.201 76.9251 101.289C73.8184 102.229 71.1864 104.236 69.4478 107.012C67.5451 110.052 66.9411 113.651 67.7451 117.144C68.5478 120.639 70.6638 123.611 73.7038 125.513C76.7438 127.416 80.3411 128.021 83.8358 127.217C87.3144 126.409 90.3011 124.297 92.2051 121.257C94.1078 118.219 94.7131 114.62 93.9091 111.127C93.1051 107.632 90.9878 104.66 87.9491 102.756C84.9104 100.853 81.3118 100.249 77.8171 101.053Z" fill="#004700"/>
</g>
<defs>
<filter id="filter0_f_24_92" x="0" y="0" width="211.656" height="148.17" filterUnits="userSpaceOnUse" color-interpolation-filters="sRGB">
<feFlood flood-opacity="0" result="BackgroundImageFix"/>
<feBlend mode="normal" in="SourceGraphic" in2="BackgroundImageFix" result="shape"/>
<feGaussianBlur stdDeviation="5" result="effect1_foregroundBlur_24_92"/>
</filter>
</defs>
</svg>
