<svg width="225" height="201" viewBox="0 0 225 201" fill="none" xmlns="http://www.w3.org/2000/svg">
<g filter="url(#filter0_f_24_176)">
<path d="M200.725 55.9169C198.498 59.9302 196.218 63.8369 193.898 67.6502C185.845 80.8902 177.258 92.9436 168.538 103.85C156.551 118.837 144.311 131.65 132.818 142.37C119.391 154.904 106.991 164.57 97.258 171.504C92.8047 174.677 88.898 177.29 85.7113 179.33L85.3647 179.557L85.018 179.344C83.1247 178.237 80.7913 178.277 78.9247 179.464L78.578 179.677L55.058 165.97L33.218 153.25L34.0713 152.65C35.7113 151.517 36.6447 149.637 36.5647 147.65C36.4847 145.637 35.4047 143.824 33.658 142.797L32.778 142.264L33.618 141.677C36.8047 139.41 39.9513 137.064 43.0447 134.65C55.058 125.264 66.338 114.837 76.6713 104.144C88.5513 91.8769 99.1913 79.2769 108.325 67.5436C119.178 53.6502 127.898 40.9836 134.058 31.5436C135.685 29.0502 137.138 26.7836 138.391 24.7836L138.711 24.2769L139.245 24.5302C141.911 25.8102 145.125 24.8769 146.711 22.3702L147.031 21.8636L197.525 45.8636L198.191 46.1836L197.831 46.7969C197.031 48.2236 196.858 49.8636 197.338 51.4102C197.831 52.9969 198.938 54.2636 200.431 54.9969L201.058 55.3036L200.725 55.9169ZM200.338 40.6769L139.418 11.7302C138.378 13.5169 134.751 19.6369 128.951 28.4636C122.698 37.9702 113.925 50.6102 103.125 64.4102C93.978 76.0902 83.378 88.5969 71.618 100.704C61.2047 111.437 49.898 121.85 37.8847 131.13C31.2713 136.237 24.4447 141.01 17.4447 145.277C15.8713 146.25 14.2847 147.197 12.6847 148.104L82.0047 188.49C83.6447 187.557 91.2713 183.104 102.418 175.024C108.231 170.824 114.991 165.624 122.365 159.41C123.138 158.77 123.911 158.104 124.685 157.437C128.885 153.864 133.245 149.957 137.738 145.73C138.685 144.85 139.631 143.944 140.578 143.024C141.965 141.717 143.351 140.357 144.751 138.957C147.205 136.544 149.671 134.024 152.165 131.41C152.858 130.69 153.551 129.957 154.245 129.224C155.005 128.424 155.765 127.597 156.511 126.77C157.391 125.824 158.271 124.864 159.138 123.89C160.178 122.744 161.218 121.584 162.258 120.397C162.671 119.93 163.071 119.477 163.485 118.997C169.058 112.61 174.631 105.77 180.098 98.4636C180.645 97.7436 181.178 97.0236 181.711 96.3036C182.791 94.8502 183.871 93.3836 184.925 91.8902C185.445 91.1569 185.978 90.3969 186.511 89.6502C187.045 88.9036 187.578 88.1436 188.098 87.3702C188.631 86.6102 189.151 85.8369 189.671 85.0636C190.431 83.9569 191.191 82.8369 191.938 81.7036C192.045 81.5569 192.138 81.3969 192.231 81.2502C192.938 80.1836 193.645 79.0902 194.351 77.9969C194.845 77.2502 195.338 76.4902 195.805 75.7302C196.285 74.9569 196.765 74.1969 197.245 73.4236C197.378 73.2369 197.498 73.0369 197.605 72.8502C198.045 72.1302 198.485 71.4102 198.925 70.6902C199.525 69.7302 200.111 68.7569 200.685 67.7836C201.258 66.8102 201.845 65.8236 202.418 64.8369C203.511 62.9702 204.578 61.0902 205.645 59.1836C206.245 58.1169 206.831 57.0369 207.405 55.9569C208.205 54.5169 208.965 53.0636 209.738 51.5969L210.738 49.6769C211.285 48.5969 211.845 47.5036 212.391 46.4102L200.338 40.6769Z" fill="#659D00"/>
<path d="M81.9915 163.11C77.3741 163.11 73.0128 161.358 69.6715 158.149C66.2408 154.857 64.2981 150.423 64.2008 145.67C64.1048 140.915 65.8648 136.409 69.1595 132.977C72.4528 129.547 76.8848 127.605 81.6381 127.509C86.4581 127.397 90.9008 129.171 94.3315 132.466C97.7608 135.758 99.7035 140.191 99.7994 144.945C99.8981 149.699 98.1368 154.206 94.8435 157.638C91.5501 161.067 87.1181 163.01 82.3635 163.106C82.2395 163.109 82.1155 163.11 81.9915 163.11ZM97.9781 88.6032L102.983 83.8485C103.175 83.6672 103.345 83.6539 103.49 83.8072L106.714 87.2005C109.102 86.0272 111.665 85.6712 114.402 86.1352C117.141 86.5979 119.493 87.8659 121.461 89.9365L125.122 93.7912C125.231 93.9072 125.229 94.0192 125.113 94.1272L119.821 99.1552C119.706 99.2645 119.594 99.2619 119.485 99.1472L115.766 95.3459C114.709 94.2352 113.507 93.6805 112.161 93.6819C110.813 93.6859 109.681 94.1232 108.759 94.9979C107.801 95.9099 107.331 97.0485 107.353 98.4139C107.373 99.7805 107.857 100.962 108.805 101.959C109.715 102.918 110.701 103.533 111.759 103.803C112.818 104.074 114.214 104.007 115.946 103.602L123.235 101.713C125.607 101.062 127.846 100.942 129.951 101.351C132.054 101.762 134.017 102.925 135.838 104.842C137.914 107.029 139.114 109.482 139.438 112.202C139.761 114.923 139.273 117.485 137.977 119.883L141.201 123.277C141.347 123.43 141.323 123.598 141.133 123.779L136.127 128.534C135.973 128.681 135.825 128.677 135.678 128.523L132.509 125.186C130.045 126.431 127.398 126.814 124.566 126.329C121.734 125.845 119.318 124.547 117.314 122.438L115.238 120.251C115.093 120.099 115.095 119.95 115.249 119.803L120.485 114.831C120.599 114.722 120.73 114.745 120.875 114.897L122.951 117.083C123.899 118.081 125.082 118.615 126.502 118.689C127.923 118.763 129.111 118.346 130.071 117.434C131.067 116.487 131.546 115.321 131.507 113.935C131.467 112.55 131.011 111.397 130.137 110.477C129.009 109.289 127.294 108.982 124.997 109.558C124.207 109.726 123.002 110.031 121.382 110.475C119.762 110.921 118.255 111.331 116.861 111.707C114.11 112.423 111.577 112.386 109.259 111.595C106.941 110.807 104.853 109.434 102.994 107.478C100.954 105.33 99.8021 102.87 99.5355 100.093C99.2701 97.3192 99.8035 94.7499 101.137 92.3899L97.9675 89.0525C97.8221 88.8992 97.8248 88.7499 97.9781 88.6032ZM144.111 54.9099C147.405 51.4792 151.837 49.5365 156.59 49.4405C161.395 49.3672 165.854 51.1059 169.283 54.3992C172.713 57.6925 174.655 62.1232 174.751 66.8779C174.85 71.6325 173.089 76.1392 169.795 79.5712C166.305 83.2045 161.63 85.0339 156.95 85.0339C152.513 85.0339 148.07 83.3912 144.623 80.0819C141.193 76.7899 139.25 72.3579 139.154 67.6019C139.057 62.8485 140.817 58.3405 144.111 54.9099ZM199.23 55.8565C197.729 54.9365 196.594 53.4939 196.07 51.8099C195.546 50.1285 195.65 48.3672 196.354 46.7819L147.505 23.5685C145.582 26.1232 142.189 27.1032 139.217 25.9699C124.514 49.3125 85.6741 106.082 35.1595 142.209C36.8101 143.517 37.8155 145.47 37.8968 147.601C37.9755 149.705 37.1381 151.701 35.6221 153.111L78.5595 178.127C80.6661 176.946 83.1901 176.899 85.3288 177.995C107.122 163.986 160.99 124.506 199.23 55.8565Z" fill="#AAD25A"/>
<path d="M90.6855 152.327L88.6788 154.234C88.6162 154.293 88.5575 154.291 88.4988 154.23L87.2268 152.891C86.2388 153.391 85.1775 153.543 84.0415 153.35C82.9068 153.155 81.9375 152.635 81.1335 151.789L80.3015 150.913C80.2428 150.851 80.2442 150.791 80.3055 150.733L82.4055 148.738C82.4508 148.695 82.5042 148.703 82.5615 148.765L83.3948 149.642C83.7748 150.042 84.2482 150.257 84.8188 150.286C85.3882 150.315 85.8655 150.147 86.2495 149.782C86.6495 149.403 86.8415 148.935 86.8255 148.379C86.8095 147.823 86.6268 147.362 86.2762 146.993C85.8228 146.515 85.1362 146.393 84.2148 146.623C83.8975 146.691 83.4148 146.814 82.7655 146.991C82.1148 147.17 81.5108 147.335 80.9522 147.486C79.8495 147.773 78.8322 147.758 77.9028 147.441C76.9735 147.125 76.1362 146.574 75.3908 145.79C74.5735 144.929 74.1108 143.942 74.0042 142.827C73.8975 141.715 74.1108 140.686 74.6468 139.739L73.3748 138.401C73.3162 138.339 73.3175 138.279 73.3788 138.221L75.3868 136.314C75.4628 136.241 75.5308 136.235 75.5895 136.297L76.8828 137.658C77.8402 137.187 78.8682 137.045 79.9655 137.231C81.0642 137.417 82.0082 137.925 82.7962 138.755L84.2655 140.301C84.3082 140.347 84.3068 140.393 84.2615 140.437L82.1388 142.453C82.0922 142.495 82.0482 142.494 82.0042 142.449L80.5122 140.925C80.0895 140.479 79.6068 140.257 79.0668 140.257C78.5268 140.258 78.0722 140.434 77.7028 140.785C77.3188 141.15 77.1308 141.607 77.1388 142.155C77.1468 142.703 77.3415 143.177 77.7215 143.577C78.0868 143.961 78.4815 144.207 78.9068 144.315C79.3308 144.425 79.8908 144.398 80.5855 144.235L83.5082 143.478C84.4602 143.217 85.3575 143.169 86.2015 143.333C87.0455 143.497 87.8322 143.963 88.5628 144.733C89.3948 145.61 89.8762 146.594 90.0055 147.685C90.1348 148.775 89.9402 149.803 89.4202 150.765L90.7135 152.126C90.7722 152.187 90.7615 152.254 90.6855 152.327ZM93.4068 133.426C90.3175 130.459 86.2815 128.838 82.0108 128.838C81.8948 128.838 81.7815 128.839 81.6655 128.841C77.2682 128.93 73.1668 130.727 70.1202 133.901C67.0735 137.074 65.4442 141.243 65.5348 145.642C65.6242 150.041 67.4215 154.141 70.5962 157.187C73.7708 160.234 77.9282 161.854 82.3362 161.773C86.7348 161.683 90.8348 159.887 93.8828 156.713C96.9295 153.539 98.5562 149.37 98.4668 144.971C98.3788 140.573 96.5815 136.473 93.4068 133.426Z" fill="#659D00"/>
<path d="M148.331 60.1536L150.338 58.247C150.415 58.1736 150.483 58.1683 150.542 58.2296L151.835 59.591C152.791 59.1203 153.819 58.9776 154.918 59.1643C156.015 59.3496 156.959 59.8576 157.749 60.6883L159.217 62.2336C159.261 62.2803 159.259 62.3256 159.213 62.3696L157.091 64.3856C157.045 64.4296 156.999 64.4283 156.955 64.3816L155.465 62.8576C155.041 62.4123 154.559 62.1896 154.019 62.1896C153.478 62.1923 153.025 62.367 152.655 62.7176C152.27 63.083 152.082 63.5403 152.091 64.0883C152.099 64.6363 152.293 65.1096 152.673 65.5096C153.038 65.8936 153.433 66.1403 153.858 66.2496C154.282 66.3576 154.842 66.331 155.537 66.1683L158.461 65.411C159.411 65.1496 160.31 65.1016 161.154 65.2656C161.997 65.431 162.783 65.8963 163.514 66.6656C164.347 67.543 164.829 68.527 164.958 69.6176C165.087 70.7083 164.891 71.7363 164.373 72.6976L165.665 74.059C165.723 74.1203 165.714 74.1883 165.638 74.2603L163.63 76.167C163.569 76.2256 163.509 76.2243 163.45 76.163L162.179 74.8243C161.191 75.3243 160.13 75.4776 158.994 75.283C157.858 75.0883 156.889 74.5683 156.086 73.723L155.253 72.8456C155.194 72.7843 155.195 72.7243 155.258 72.6656L157.357 70.671C157.403 70.6283 157.455 70.6376 157.514 70.6976L158.346 71.575C158.726 71.975 159.201 72.1896 159.77 72.219C160.339 72.2483 160.817 72.0816 161.202 71.7163C161.602 71.3363 161.793 70.8683 161.778 70.3123C161.762 69.7576 161.578 69.295 161.227 68.9256C160.775 68.4483 160.089 68.3256 159.167 68.5576C158.85 68.6243 158.366 68.747 157.717 68.9256C157.067 69.1043 156.463 69.2683 155.903 69.419C154.801 69.7056 153.785 69.691 152.855 69.3736C151.925 69.0576 151.087 68.507 150.343 67.723C149.525 66.8616 149.062 65.875 148.955 64.7616C148.85 63.6483 149.063 62.619 149.598 61.6723L148.327 60.3336C148.269 60.2723 148.27 60.2123 148.331 60.1536ZM168.834 78.6456C171.881 75.4736 173.509 71.3043 173.418 66.9056C173.33 62.507 171.533 58.407 168.358 55.3603C165.269 52.3923 161.233 50.7696 156.962 50.7696C156.847 50.7696 156.733 50.771 156.618 50.7736C152.219 50.863 148.119 52.6603 145.073 55.8336C142.025 59.007 140.398 63.1763 140.487 67.575C140.575 71.9736 142.373 76.075 145.547 79.1216C152.098 85.4123 162.546 85.1963 168.834 78.6456Z" fill="#659D00"/>
<mask id="mask0_24_176" style="mask-type:luminance" maskUnits="userSpaceOnUse" x="37" y="100" width="101" height="76">
<path d="M37.8849 100.703H137.738V175.023H37.8849V100.703Z" fill="white"/>
</mask>
<g mask="url(#mask0_24_176)">
<g opacity="0.5">
<path d="M137.738 145.73C133.244 149.957 128.884 153.863 124.684 157.437C123.911 158.103 123.138 158.77 122.364 159.41C114.991 165.623 108.231 170.823 102.418 175.023L97.2578 171.503L96.0845 170.703L86.4445 164.157L84.6178 162.917L82.8978 161.743L66.3645 150.503L64.6578 149.343L44.2045 135.437L43.0445 134.65L37.8845 131.13C49.8978 121.85 61.2045 111.437 71.6178 100.703L76.6711 104.143L77.7778 104.903L127.964 139.063L131.684 141.597L132.818 142.37L137.738 145.73Z" fill="#AAD25A"/>
</g>
</g>
<mask id="mask1_24_176" style="mask-type:luminance" maskUnits="userSpaceOnUse" x="103" y="28" width="96" height="79">
<path d="M103.125 28.4635H198.925V106.89H103.125V28.4635Z" fill="white"/>
</mask>
<g mask="url(#mask1_24_176)">
<g opacity="0.5">
<path d="M198.924 70.6901C190.898 83.9035 182.311 95.9568 173.591 106.89L168.538 103.85L108.324 67.5435L103.124 64.4101C113.924 50.6101 122.698 37.9701 128.951 28.4635L134.058 31.5435L193.898 67.6501L198.924 70.6901Z" fill="#AAD25A"/>
</g>
</g>
<mask id="mask2_24_176" style="mask-type:luminance" maskUnits="userSpaceOnUse" x="12" y="40" width="201" height="149">
<path d="M12.6849 40.6767H212.392V188.49H12.6849V40.6767Z" fill="white"/>
</mask>
<g mask="url(#mask2_24_176)">
<g opacity="0.5">
<path d="M212.391 46.4102C211.845 47.5036 211.285 48.5969 210.738 49.6769L209.738 51.5969C208.965 53.0636 208.205 54.5169 207.405 55.9569C206.831 57.0369 206.245 58.1169 205.645 59.1836C204.578 61.0902 203.511 62.9702 202.418 64.8369C201.845 65.8236 201.258 66.8102 200.685 67.7836C200.111 68.7569 199.525 69.7302 198.925 70.6902C198.485 71.4102 198.045 72.1302 197.605 72.8503C197.498 73.0369 197.378 73.2369 197.245 73.4236C196.765 74.1969 196.285 74.9569 195.805 75.7302C195.338 76.4902 194.845 77.2502 194.351 77.9969C193.645 79.0902 192.938 80.1836 192.231 81.2502C192.138 81.3969 192.045 81.5569 191.938 81.7036C191.191 82.8369 190.431 83.9569 189.671 85.0636C189.151 85.8369 188.631 86.6102 188.098 87.3702C187.578 88.1436 187.045 88.9036 186.511 89.6502C185.978 90.3969 185.445 91.1569 184.925 91.8902C183.871 93.3836 182.791 94.8502 181.711 96.3036C181.178 97.0236 180.645 97.7436 180.098 98.4636C174.631 105.77 169.058 112.61 163.485 118.997C163.071 119.477 162.671 119.93 162.258 120.397C161.218 121.584 160.178 122.744 159.138 123.89C158.271 124.864 157.391 125.824 156.511 126.77C155.765 127.597 155.005 128.424 154.245 129.224C153.551 129.957 152.858 130.69 152.165 131.41C149.685 134.01 147.205 136.53 144.751 138.957C143.351 140.357 141.965 141.717 140.578 143.024C139.631 143.944 138.685 144.85 137.738 145.73C133.245 149.957 128.885 153.864 124.685 157.437C123.911 158.104 123.138 158.77 122.365 159.41C114.991 165.624 108.231 170.824 102.418 175.024C91.2713 183.104 83.6446 187.557 82.0046 188.49L12.6846 148.104C14.2846 147.197 15.8713 146.25 17.4446 145.277C28.4713 154.784 41.0846 162.944 55.058 165.97C56.3246 166.25 57.5913 166.49 58.8847 166.664C59.8847 166.824 60.898 166.944 61.9246 167.037C70.178 167.784 78.5113 166.584 86.4446 164.157C87.938 163.704 89.4046 163.21 90.858 162.677C104.818 157.57 117.031 149.17 127.965 139.064C138.578 129.29 147.965 117.917 156.605 106.397C167.805 91.4636 178.191 75.9436 188.445 60.3436C190.951 56.5569 193.445 52.7436 195.791 48.8369C196.378 47.8503 196.951 46.8636 197.525 45.8636C198.511 44.1569 199.458 42.4236 200.338 40.6769L212.391 46.4102Z" fill="#659D00"/>
</g>
</g>
<path d="M84.6457 111.801C88.007 114.253 90.3177 116.806 89.807 117.506C89.2964 118.206 86.1577 116.786 82.7977 114.336C79.4364 111.884 77.1257 109.329 77.6364 108.629C78.147 107.93 81.2844 109.349 84.6457 111.801Z" fill="#AAD25A"/>
<mask id="mask3_24_176" style="mask-type:luminance" maskUnits="userSpaceOnUse" x="176" y="51" width="11" height="8">
<path d="M176.19 51.6969H186.186V58.1875H176.19V51.6969Z" fill="white"/>
</mask>
<g mask="url(#mask3_24_176)">
<g opacity="0.5">
<path d="M181.994 53.5965C184.718 55.2272 186.564 57.1512 186.12 57.8952C185.675 58.6379 183.106 57.9192 180.382 56.2872C177.659 54.6565 175.811 52.7325 176.256 51.9899C176.702 51.2459 179.27 51.9659 181.994 53.5965Z" fill="#AAD25A"/>
</g>
</g>
<path d="M139.413 11.7334L212.387 46.4054C165.805 139.484 87.7187 185.24 82.0067 188.491L12.6787 148.099C81.804 108.609 134.877 19.5054 139.413 11.7334ZM81.992 190.025L82.3227 189.844C83.1493 189.391 165.605 143.359 213.884 46.3921L214.187 45.7841L138.872 10.0001L138.565 10.5387C138.02 11.4961 83.1307 106.908 11.0147 147.511L10 148.081L81.6653 189.835L81.992 190.025Z" fill="#004700"/>
<path d="M78.5592 178.127L35.6218 153.111C37.1392 151.701 37.9765 149.705 37.8965 147.6C37.8152 145.469 36.8098 143.516 35.1592 142.209C85.6738 106.081 124.514 49.3133 139.216 25.9693C142.19 27.1026 145.583 26.1226 147.505 23.5679L196.355 46.7813C195.65 48.3679 195.546 50.1279 196.07 51.8106C196.594 53.4933 197.728 54.9359 199.23 55.8559C160.99 124.505 107.122 163.987 85.3285 177.995C83.1912 176.899 80.6658 176.945 78.5592 178.127ZM85.3698 179.552L85.7138 179.331C107.434 165.42 162.12 125.543 200.722 55.9173L201.063 55.3026L200.43 54.9946C198.931 54.2653 197.835 52.9933 197.343 51.4133C196.859 49.8573 197.032 48.2186 197.836 46.7999L198.188 46.1773L147.031 21.8679L146.715 22.3666C145.126 24.8799 141.912 25.8079 139.243 24.5306L138.706 24.2733L138.39 24.7773C123.894 47.8613 84.6632 105.463 33.6125 141.673L32.7738 142.268L33.6578 142.792C35.4018 143.823 36.4872 145.64 36.5632 147.652C36.6392 149.64 35.7058 151.511 34.0698 152.655L33.2138 153.252L78.5778 179.68L78.9205 179.463C80.7885 178.277 83.1232 178.232 85.0178 179.344L85.3698 179.552Z" fill="#004700"/>
<path d="M101.137 92.3891C99.8038 94.7491 99.2705 97.3185 99.5358 100.093C99.8012 102.869 100.955 105.33 102.995 107.477C104.852 109.433 106.94 110.808 109.259 111.594C111.576 112.385 114.111 112.422 116.861 111.706C118.255 111.33 119.763 110.921 121.383 110.476C123.003 110.032 124.207 109.726 124.997 109.558C127.295 108.981 129.008 109.288 130.137 110.476C131.012 111.396 131.467 112.55 131.508 113.934C131.547 115.321 131.068 116.486 130.072 117.434C129.112 118.345 127.923 118.762 126.503 118.689C125.081 118.616 123.9 118.081 122.952 117.082L120.875 114.897C120.731 114.744 120.599 114.721 120.484 114.83L115.249 119.804C115.096 119.949 115.093 120.098 115.237 120.252L117.315 122.437C119.319 124.548 121.735 125.844 124.567 126.329C127.397 126.813 130.045 126.432 132.509 125.186L135.679 128.522C135.825 128.676 135.973 128.68 136.128 128.533L141.132 123.78C141.324 123.598 141.347 123.43 141.201 123.277L137.977 119.882C139.273 117.485 139.76 114.924 139.437 112.202C139.115 109.482 137.915 107.028 135.837 104.842C134.016 102.925 132.055 101.761 129.952 101.352C127.847 100.941 125.608 101.062 123.236 101.712L115.947 103.601C114.215 104.008 112.819 104.073 111.76 103.802C110.701 103.533 109.716 102.918 108.804 101.958C107.857 100.962 107.373 99.7798 107.353 98.4131C107.332 97.0478 107.8 95.9091 108.76 94.9985C109.68 94.1238 110.813 93.6865 112.161 93.6811C113.508 93.6811 114.709 94.2345 115.765 95.3465L119.484 99.1465C119.593 99.2611 119.705 99.2638 119.821 99.1545L125.113 94.1278C125.228 94.0185 125.231 93.9065 125.123 93.7918L121.46 89.9371C119.493 87.8652 117.14 86.5985 114.403 86.1358C111.664 85.6718 109.101 86.0265 106.715 87.2011L103.491 83.8065C103.345 83.6532 103.175 83.6678 102.984 83.8491L97.9785 88.6038C97.8252 88.7491 97.8225 88.8985 97.9678 89.0532L101.137 92.3891Z" fill="#004700"/>
<path d="M89.4201 150.765C89.9401 149.803 90.1348 148.775 90.0055 147.685C89.8761 146.594 89.3948 145.61 88.5615 144.733C87.8321 143.965 87.0455 143.498 86.2015 143.333C85.3575 143.169 84.4601 143.217 83.5081 143.478L80.5841 144.235C79.8908 144.398 79.3308 144.425 78.9068 144.317C78.4815 144.207 78.0868 143.961 77.7201 143.577C77.3415 143.177 77.1468 142.703 77.1388 142.155C77.1308 141.607 77.3188 141.15 77.7028 140.785C78.0721 140.434 78.5268 140.259 79.0668 140.257C79.6068 140.257 80.0895 140.479 80.5121 140.925L82.0041 142.449C82.0481 142.495 82.0921 142.497 82.1388 142.453L84.2615 140.437C84.3068 140.393 84.3081 140.347 84.2641 140.301L82.7961 138.755C82.0068 137.925 81.0641 137.417 79.9655 137.231C78.8681 137.045 77.8401 137.187 76.8828 137.658L75.5895 136.297C75.5308 136.235 75.4628 136.241 75.3868 136.314L73.3788 138.221C73.3175 138.279 73.3161 138.339 73.3748 138.401L74.6455 139.739C74.1108 140.686 73.8975 141.715 74.0041 142.829C74.1108 143.942 74.5721 144.929 75.3908 145.79C76.1361 146.574 76.9735 147.126 77.9028 147.441C78.8321 147.758 79.8481 147.773 80.9521 147.486C81.5108 147.335 82.1148 147.171 82.7655 146.993C83.4148 146.814 83.8975 146.691 84.2148 146.625C85.1361 146.393 85.8228 146.515 86.2761 146.993C86.6268 147.362 86.8095 147.825 86.8255 148.379C86.8415 148.935 86.6495 149.403 86.2495 149.782C85.8655 150.149 85.3881 150.315 84.8188 150.286C84.2481 150.257 83.7748 150.042 83.3948 149.642L82.5615 148.765C82.5028 148.703 82.4508 148.695 82.4055 148.738L80.3055 150.733C80.2441 150.791 80.2428 150.851 80.3001 150.913L81.1335 151.79C81.9375 152.635 82.9068 153.155 84.0415 153.35C85.1775 153.545 86.2388 153.391 87.2268 152.891L88.4988 154.23C88.5561 154.291 88.6161 154.293 88.6788 154.234L90.6855 152.327C90.7615 152.254 90.7721 152.187 90.7135 152.126L89.4201 150.765Z" fill="#004700"/>
<path d="M82.3365 161.772C77.9272 161.855 73.7698 160.235 70.5952 157.188C67.4205 154.14 65.6245 150.04 65.5338 145.642C65.4445 141.244 67.0738 137.075 70.1205 133.902C73.1672 130.727 77.2672 128.93 81.6658 128.842C81.7818 128.839 81.8952 128.838 82.0112 128.838C86.2818 128.838 90.3165 130.46 93.4072 133.426C96.5818 136.472 98.3778 140.574 98.4672 144.971C98.5565 149.37 96.9285 153.539 93.8818 156.712C90.8352 159.887 86.7352 161.684 82.3365 161.772ZM99.8005 144.944C99.7032 140.19 97.7605 135.758 94.3312 132.466C90.9005 129.171 86.4578 127.396 81.6392 127.508C76.8845 127.604 72.4525 129.547 69.1592 132.976C65.8645 136.408 64.1045 140.915 64.2005 145.67C64.2992 150.423 66.2418 154.856 69.6712 158.148C73.0125 161.356 77.3738 163.11 81.9912 163.11C82.1152 163.11 82.2392 163.108 82.3645 163.106C87.1178 163.01 91.5498 161.067 94.8432 157.636C98.1378 154.206 99.8978 149.699 99.8005 144.944Z" fill="#004700"/>
<path d="M149.598 61.6718C149.063 62.6185 148.85 63.6491 148.955 64.7611C149.062 65.8745 149.525 66.8611 150.343 67.7225C151.087 68.5078 151.925 69.0585 152.855 69.3745C153.785 69.6905 154.801 69.7065 155.903 69.4185C156.463 69.2678 157.067 69.1038 157.717 68.9251C158.366 68.7465 158.85 68.6251 159.167 68.5571C160.087 68.3265 160.775 68.4491 161.227 68.9251C161.578 69.2945 161.761 69.7571 161.778 70.3118C161.793 70.8678 161.602 71.3358 161.202 71.7158C160.817 72.0811 160.339 72.2491 159.77 72.2185C159.201 72.1891 158.726 71.9745 158.346 71.5745L157.514 70.6985C157.455 70.6371 157.403 70.6278 157.357 70.6718L155.258 72.6651C155.195 72.7238 155.194 72.7838 155.253 72.8451L156.086 73.7225C156.889 74.5678 157.858 75.0878 158.994 75.2825C160.13 75.4771 161.191 75.3238 162.179 74.8251L163.45 76.1625C163.509 76.2238 163.569 76.2251 163.63 76.1665L165.638 74.2598C165.714 74.1878 165.723 74.1198 165.665 74.0585L164.373 72.6971C164.891 71.7358 165.087 70.7091 164.958 69.6171C164.829 68.5265 164.347 67.5425 163.514 66.6665C162.783 65.8971 161.997 65.4305 161.154 65.2665C160.31 65.1011 159.411 65.1505 158.461 65.4105L155.537 66.1678C154.842 66.3305 154.282 66.3571 153.858 66.2491C153.433 66.1411 153.038 65.8945 152.673 65.5091C152.293 65.1091 152.099 64.6358 152.091 64.0878C152.082 63.5398 152.27 63.0838 152.655 62.7185C153.025 62.3678 153.478 62.1918 154.019 62.1905C154.559 62.1891 155.041 62.4118 155.465 62.8571L156.955 64.3811C156.999 64.4278 157.045 64.4291 157.091 64.3851L159.213 62.3691C159.259 62.3251 159.261 62.2798 159.217 62.2345L157.749 60.6878C156.959 59.8571 156.015 59.3491 154.918 59.1638C153.819 58.9771 152.791 59.1198 151.834 59.5905L150.542 58.2305C150.483 58.1691 150.415 58.1744 150.338 58.2465L148.331 60.1531C148.27 60.2118 148.269 60.2718 148.327 60.3331L149.598 61.6718Z" fill="#004700"/>
<path d="M145.072 55.8337C148.119 52.6604 152.219 50.863 156.618 50.7737C156.732 50.771 156.847 50.7697 156.962 50.7697C161.232 50.7697 165.268 52.3924 168.359 55.3604C171.534 58.407 173.33 62.507 173.419 66.9057C173.508 71.3044 171.88 75.4724 168.834 78.6457C162.546 85.1964 152.099 85.4124 145.547 79.1217C142.374 76.075 140.576 71.9737 140.488 67.575C140.398 63.1764 142.026 59.007 145.072 55.8337ZM156.95 85.0337C161.631 85.0337 166.306 83.2044 169.795 79.571C173.09 76.139 174.85 71.6324 174.752 66.8777C174.655 62.123 172.712 57.6924 169.283 54.399C165.855 51.1057 161.395 49.367 156.591 49.4404C151.836 49.5364 147.404 51.479 144.111 54.9097C140.818 58.3404 139.056 62.8484 139.155 67.6017C139.251 72.3577 141.194 76.7897 144.623 80.083C148.07 83.391 152.512 85.0337 156.95 85.0337Z" fill="#004700"/>
</g>
<defs>
<filter id="filter0_f_24_176" x="0" y="0" width="224.187" height="200.025" filterUnits="userSpaceOnUse" color-interpolation-filters="sRGB">
<feFlood flood-opacity="0" result="BackgroundImageFix"/>
<feBlend mode="normal" in="SourceGraphic" in2="BackgroundImageFix" result="shape"/>
<feGaussianBlur stdDeviation="5" result="effect1_foregroundBlur_24_176"/>
</filter>
</defs>
</svg>
