<svg width="235" height="140" viewBox="0 0 235 140" fill="none" xmlns="http://www.w3.org/2000/svg">
<g filter="url(#filter0_f_24_2)">
<path d="M32.7155 115.588C32.5741 115.315 32.3755 115.093 32.1488 114.94C35.2995 112.5 40.5488 108.533 46.8781 104.116C58.6275 95.9213 74.1101 86.2026 86.8368 81.892C89.6341 82.348 92.5928 82.1266 95.4248 81.2333C98.8888 81.788 103.17 82.396 107.447 82.8013L107.457 82.7933C110.31 83.0666 113.17 83.2453 115.795 83.2626C113.075 86.116 110.209 88.8213 107.182 91.284C106.097 88.9653 104.306 86.968 101.959 85.692C101.39 85.372 100.779 85.104 100.135 84.8813C97.0515 83.8066 93.7421 84.0026 90.8021 85.4373C89.7595 85.9426 88.8021 86.5786 87.9635 87.3306C86.4355 88.7013 85.2781 90.4373 84.5995 92.424C84.4235 92.9226 84.2861 93.432 84.1808 93.9413C83.5661 96.8946 84.0995 99.8866 85.5035 102.393C74.2288 105.151 50.2608 111.063 32.9195 116.428C32.9195 116.147 32.8568 115.861 32.7155 115.588Z" fill="#AAD25A"/>
<path d="M14.0311 126.829C17.3297 123.249 25.4831 114.765 36.7884 105.663C51.0857 94.1587 70.4177 81.6547 91.3257 76.828C92.6644 77.08 103.352 79.06 112.456 79.54C114.88 79.664 117.186 79.688 119.179 79.5453C118.403 80.4333 117.62 81.3134 116.823 82.1773L116.816 82.1693C114.407 82.1947 111.734 82.0573 109.056 81.8333C103.89 81.396 98.7244 80.6453 95.4697 80.1253C95.3764 80.104 95.2977 80.116 95.2111 80.1347C92.4657 81.0253 89.5924 81.244 86.8897 80.776C86.7964 80.756 86.7031 80.7667 86.6151 80.8C73.0937 85.3493 56.4991 95.9627 44.4684 104.455C38.2244 108.868 33.2084 112.699 30.4897 114.825L30.4577 114.856C30.2684 115.025 30.2217 115.304 30.3431 115.521C30.4631 115.755 30.7457 115.872 31.0004 115.792C31.3577 115.679 31.6217 115.872 31.7337 116.097C31.8551 116.331 31.8684 116.644 31.5657 116.885C31.3471 117.037 31.2911 117.34 31.4191 117.581C31.5391 117.815 31.8217 117.932 32.0764 117.852C47.1631 113.113 67.8191 107.889 80.5444 104.751C65.4871 109.505 26.6511 121.887 14.0311 126.829Z" fill="#659D00"/>
<path d="M86.7468 102.094C85.2055 99.5324 84.6895 96.3764 85.5815 93.3217C85.6295 93.1604 85.6855 92.9911 85.7428 92.8231C86.7055 90.0457 88.6882 87.8084 91.3295 86.5204C93.9788 85.2417 96.9602 85.0604 99.7375 86.0244C100.022 86.1257 100.312 86.2351 100.579 86.3671C103.19 87.5097 105.14 89.5857 106.21 92.0671C103.638 94.0924 100.964 95.9404 98.1708 97.5871C98.0442 97.3297 97.8935 97.0791 97.6882 96.8337L96.3975 95.2471C96.0988 94.8631 95.9215 94.5324 95.8668 94.2404C95.8202 93.9417 95.8522 93.6298 95.9882 93.3018C96.1322 92.9497 96.3642 92.6964 96.6935 92.5351C97.0308 92.3804 97.3682 92.3604 97.6962 92.4951C98.0175 92.6217 98.2562 92.8537 98.4175 93.1831C98.5708 93.5204 98.5668 93.8791 98.4135 94.2697L97.8948 95.6097C97.8762 95.6551 97.8908 95.6871 97.9295 95.6978L99.7735 96.4311C99.8188 96.4497 99.8428 96.4431 99.8615 96.3964L100.395 95.0577C100.684 94.3391 100.724 93.6057 100.53 92.8764C100.327 92.1537 99.9602 91.5631 99.3908 91.1097L99.8695 89.9244C99.8802 89.8698 99.8588 89.8298 99.7975 89.8111L98.0535 89.1071C98.0068 89.0884 97.9602 89.1017 97.9402 89.1631L97.4788 90.3177C96.7468 90.2631 96.0508 90.4124 95.3895 90.7991C94.7428 91.1858 94.2668 91.7457 93.9682 92.4884C93.6962 93.1764 93.5975 93.8444 93.6628 94.5124C93.7295 95.1644 94.0148 95.7977 94.4988 96.3871C94.7482 96.6977 95.0202 97.0164 95.3215 97.3698C95.6068 97.7204 95.8268 97.9831 95.9508 98.1537C96.0975 98.3338 96.1895 98.5031 96.2508 98.6711C95.5175 99.0764 94.7695 99.4657 94.0148 99.8311C93.9562 99.7497 93.9135 99.6697 93.8655 99.5644C93.7282 99.2137 93.7322 98.8537 93.8682 98.5097L94.1668 97.7524C94.1855 97.6911 94.1722 97.6591 94.1415 97.6417L92.3202 96.9164C92.2668 96.8911 92.2268 96.9124 92.2002 96.9657L91.9015 97.7231C91.6108 98.4577 91.5628 99.1977 91.7642 99.9511C91.8428 100.236 91.9535 100.492 92.0815 100.735C92.0415 100.755 91.9935 100.768 91.9535 100.79C91.4615 100.935 89.5668 101.403 86.7468 102.094Z" fill="#659D00"/>
<path d="M92.7192 101.66C104.955 96.1575 115.31 86.4255 123.749 75.7295C133.47 63.4055 140.637 49.8028 145.151 39.9402C148.434 32.7561 150.327 27.5588 150.779 26.2775L222.453 11.5228C217.359 22.2442 211.603 32.1962 205.394 41.1602C193.366 58.5175 179.601 72.1682 165.575 80.5202C161.933 82.6908 158.277 84.5015 154.619 85.9282C154.019 86.1695 153.397 86.4015 152.759 86.6322C156.199 84.7482 159.642 82.5348 162.942 80.2135C169.663 75.4895 175.761 70.3175 179.961 66.5508C187.825 59.4975 195.375 50.8868 202.302 41.1015C206.949 34.5615 211.321 27.4975 215.33 20.0162L215.879 18.9908L214.733 19.2175C214.125 19.3322 213.551 19.1055 213.186 18.6175C212.815 18.1202 212.777 17.5162 213.065 16.9762L213.638 15.9295L156.447 27.7042L156.339 27.9788C155.526 29.9988 153.781 31.4588 151.663 31.8908L151.362 31.9535L151.254 32.2295C150.43 34.3028 149.331 36.9468 147.962 40.0002C143.637 49.6775 136.574 63.4108 126.794 76.0828C122.639 81.4695 117.987 86.6642 112.842 91.2788C111.733 92.2735 105.81 96.9628 103.278 98.9668L102.346 99.7135C98.6072 100.487 95.3112 101.144 92.7192 101.66Z" fill="#659D00"/>
<path d="M169.22 60.5258C169.276 60.5405 169.295 60.5832 169.276 60.6512L168.8 62.4658C168.785 62.5218 168.751 62.5418 168.695 62.5272L167.485 62.2112C167.095 62.8512 166.539 63.3178 165.815 63.6112C165.092 63.9045 164.348 63.9512 163.584 63.7498L162.791 63.5418C162.736 63.5285 162.715 63.4925 162.729 63.4365L163.227 61.5392C163.239 61.4978 163.272 61.4845 163.327 61.4992L164.119 61.7072C164.481 61.8018 164.831 61.7565 165.169 61.5698C165.508 61.3832 165.723 61.1165 165.813 60.7685C165.908 60.4072 165.852 60.0698 165.644 59.7552C165.437 59.4418 165.167 59.2405 164.833 59.1525C164.403 59.0405 163.963 59.2138 163.515 59.6765C163.356 59.8285 163.121 60.0712 162.811 60.4058C162.501 60.7405 162.212 61.0498 161.944 61.3365C161.411 61.8952 160.82 62.2498 160.172 62.3992C159.524 62.5485 158.845 62.5298 158.136 62.3445C157.357 62.1405 156.739 61.7365 156.28 61.1338C155.823 60.5312 155.577 59.8618 155.548 59.1258L154.339 58.8085C154.283 58.7938 154.263 58.7592 154.277 58.7032L154.752 56.8885C154.771 56.8192 154.808 56.7925 154.864 56.8072L156.093 57.1285C156.477 56.5165 157.017 56.0672 157.716 55.7832C158.415 55.4978 159.14 55.4538 159.891 55.6512L161.288 56.0178C161.329 56.0285 161.345 56.0552 161.333 56.0965L160.831 58.0152C160.82 58.0565 160.793 58.0712 160.752 58.0605L159.349 57.7152C158.947 57.6098 158.589 57.6538 158.279 57.8472C157.968 58.0405 157.769 58.3032 157.681 58.6378C157.591 58.9845 157.645 59.3152 157.845 59.6272C158.045 59.9405 158.327 60.1432 158.688 60.2378C159.036 60.3298 159.351 60.3298 159.635 60.2405C159.917 60.1525 160.231 59.9378 160.572 59.5952L161.985 58.1165C162.44 57.6272 162.94 57.2792 163.485 57.0725C164.029 56.8658 164.648 56.8538 165.344 57.0365C166.136 57.2432 166.764 57.6392 167.228 58.2205C167.692 58.8032 167.945 59.4645 167.989 60.2032L169.22 60.5258ZM164.079 48.8938C158.116 47.6218 152.229 51.4352 150.956 57.3992C150.34 60.2872 150.884 63.2432 152.491 65.7218C154.099 68.2005 156.573 69.9045 159.461 70.5218C162.349 71.1378 165.304 70.5925 167.784 68.9858C168.277 68.6658 168.741 68.3112 169.171 67.9258C170.899 66.3765 172.089 64.3285 172.584 62.0152C173.856 56.0538 170.04 50.1672 164.079 48.8938Z" fill="#659D00"/>
<path d="M168.385 69.9127C165.659 71.6793 162.407 72.2793 159.23 71.6007C156.054 70.922 153.331 69.0487 151.565 66.322C149.798 63.5953 149.199 60.3447 149.878 57.1673C150.434 54.5607 151.794 52.326 153.642 50.6687C156.441 48.158 160.359 46.9713 164.31 47.8153C170.866 49.2153 175.062 55.6887 173.663 62.246C172.983 65.4233 171.109 68.146 168.385 69.9127ZM213.919 20.302C213.278 20.1793 212.699 19.8207 212.293 19.2687C211.891 18.726 211.722 18.0767 211.789 17.438L157.243 28.6647C156.294 30.7967 154.434 32.3553 152.177 32.91C147.514 44.626 134.634 73.222 113.578 92.106C112.543 93.034 107.701 96.8767 104.769 99.198C115.823 96.858 130.054 93.6127 141.894 90.1513C155.005 86.2687 170.899 73.1953 179.221 65.7327C192.074 54.2033 204.059 38.51 213.919 20.302Z" fill="#AAD25A"/>
<mask id="mask0_24_2" style="mask-type:luminance" maskUnits="userSpaceOnUse" x="123" y="39" width="83" height="42">
<path d="M123.749 39.9413H205.394V80.52H123.749V39.9413Z" fill="white"/>
</mask>
<g mask="url(#mask0_24_2)">
<g opacity="0.5">
<path d="M123.748 75.7294C133.471 63.4067 140.636 49.804 145.151 39.9414L147.962 40L149.172 40.0267L200.975 41.076L202.302 41.1013L205.394 41.16C193.366 58.5174 179.6 72.168 165.575 80.52L162.942 80.2134L161.295 80.0294L128.067 76.2307L126.794 76.0827L123.748 75.7294Z" fill="#AAD25A"/>
</g>
</g>
<mask id="mask1_24_2" style="mask-type:luminance" maskUnits="userSpaceOnUse" x="185" y="35" width="13" height="4">
<path d="M185.129 35.7533H197.606V38.5586H185.129V35.7533Z" fill="white"/>
</mask>
<g mask="url(#mask1_24_2)">
<g opacity="0.5">
<path d="M191.294 38.5163C187.848 38.3283 185.088 37.5683 185.13 36.8163C185.171 36.0656 187.996 35.6083 191.442 35.7963C194.887 35.983 197.647 36.7443 197.606 37.495C197.564 38.247 194.739 38.703 191.294 38.5163Z" fill="#AAD25A"/>
</g>
</g>
<path d="M139.732 76.0737C136.286 75.887 133.526 75.1257 133.568 74.3737C133.608 73.623 136.434 73.1657 139.88 73.3537C143.325 73.5404 146.085 74.3017 146.044 75.0524C146.002 75.8044 143.177 76.2604 139.732 76.0737Z" fill="#AAD25A"/>
<mask id="mask2_24_2" style="mask-type:luminance" maskUnits="userSpaceOnUse" x="109" y="79" width="11" height="4">
<path d="M109.057 79.5399H119.179V82.1772H109.057V79.5399Z" fill="white"/>
</mask>
<g mask="url(#mask2_24_2)">
<g opacity="0.5">
<path d="M109.056 81.8332C110.228 81.1226 111.364 80.3559 112.456 79.5399C114.88 79.6639 117.186 79.6879 119.179 79.5452C118.403 80.4346 117.62 81.3132 116.823 82.1772L116.816 82.1692C114.407 82.1946 111.734 82.0572 109.056 81.8332Z" fill="#AAD25A"/>
</g>
</g>
<mask id="mask3_24_2" style="mask-type:luminance" maskUnits="userSpaceOnUse" x="101" y="82" width="15" height="10">
<path d="M101.959 82.7933H115.795V91.2839H101.959V82.7933Z" fill="white"/>
</mask>
<g mask="url(#mask3_24_2)">
<g opacity="0.5">
<path d="M101.96 85.6919C103.517 84.9319 105.053 84.1479 106.561 83.2999C106.86 83.1359 107.157 82.9733 107.448 82.8013L107.456 82.7933C110.31 83.0666 113.169 83.2453 115.796 83.2626C113.076 86.1159 110.209 88.8213 107.182 91.2839C106.097 88.9653 104.306 86.9679 101.96 85.6919Z" fill="#AAD25A"/>
</g>
</g>
<mask id="mask4_24_2" style="mask-type:luminance" maskUnits="userSpaceOnUse" x="85" y="86" width="22" height="17">
<path d="M85.1445 86.3679H106.21V102.093H85.1445V86.3679Z" fill="white"/>
</mask>
<g mask="url(#mask4_24_2)">
<g opacity="0.5">
<path d="M85.582 93.3222C89.866 91.4529 94.102 89.4462 98.3233 87.4409C99.07 87.0822 99.8313 86.7249 100.578 86.3676C103.19 87.5102 105.141 89.5862 106.21 92.0676C103.637 94.0929 100.965 95.9409 98.17 97.5862C98.0433 97.3302 97.8927 97.0796 97.6873 96.8342L96.398 95.2476C96.098 94.8636 95.9207 94.5329 95.866 94.2409C95.8207 93.9409 95.8527 93.6302 95.9873 93.3022C96.1327 92.9502 96.3647 92.6969 96.694 92.5356C97.03 92.3809 97.3673 92.3609 97.6967 92.4956C98.018 92.6222 98.2553 92.8542 98.418 93.1836C98.5713 93.5209 98.5673 93.8796 98.4127 94.2702L97.8953 95.6102C97.8767 95.6556 97.89 95.6876 97.9287 95.6982L99.7727 96.4316C99.8193 96.4489 99.8433 96.4422 99.8607 96.3969L100.395 95.0582C100.685 94.3382 100.725 93.6062 100.529 92.8769C100.326 92.1542 99.9593 91.5636 99.39 91.1102L99.8687 89.9249C99.8793 89.8702 99.858 89.8302 99.7967 89.8116L98.0527 89.1062C98.0073 89.0889 97.9593 89.1022 97.9407 89.1636L97.4793 90.3182C96.7473 90.2636 96.0513 90.4129 95.3887 90.7982C94.742 91.1862 94.266 91.7462 93.9687 92.4889C93.6967 93.1769 93.598 93.8436 93.6633 94.5116C93.7287 95.1649 94.0153 95.7982 94.4993 96.3862C94.7473 96.6969 95.0193 97.0169 95.3207 97.3689C95.6073 97.7209 95.8273 97.9836 95.95 98.1542C96.0967 98.3342 96.19 98.5036 96.2513 98.6702C95.518 99.0769 94.77 99.4662 94.014 99.8316C93.9567 99.7502 93.914 99.6689 93.8647 99.5649C93.7273 99.2142 93.7313 98.8542 93.8673 98.5102L94.1673 97.7529C94.186 97.6902 94.1713 97.6582 94.142 97.6409L92.3207 96.9169C92.2673 96.8902 92.2273 96.9116 92.2007 96.9649L91.902 97.7222C91.6113 98.4582 91.5633 99.1969 91.7647 99.9516C91.8433 100.237 91.954 100.493 92.082 100.734C92.042 100.756 91.994 100.769 91.954 100.79C91.4607 100.936 89.5673 101.404 86.7473 102.094C85.2047 99.5316 84.6887 96.3769 85.582 93.3222Z" fill="#AAD25A"/>
</g>
</g>
<mask id="mask5_24_2" style="mask-type:luminance" maskUnits="userSpaceOnUse" x="32" y="93" width="54" height="24">
<path d="M32.1486 93.9413H85.5032V116.428H32.1486V93.9413Z" fill="white"/>
</mask>
<g mask="url(#mask5_24_2)">
<g opacity="0.5">
<path d="M32.1489 114.94C35.2996 112.5 40.5489 108.533 46.8783 104.117C51.7156 103.441 56.5436 102.773 61.3143 101.712C69.1876 99.9584 76.7676 97.1504 84.1809 93.9424C83.5663 96.8944 84.0996 99.8864 85.5036 102.394C74.2289 105.15 50.2609 111.062 32.9196 116.428C32.9196 116.146 32.8569 115.861 32.7156 115.588C32.5743 115.314 32.3756 115.093 32.1489 114.94Z" fill="#AAD25A"/>
</g>
</g>
<mask id="mask6_24_2" style="mask-type:luminance" maskUnits="userSpaceOnUse" x="14" y="104" width="67" height="23">
<path d="M14.0312 104.454H80.5445V126.829H14.0312V104.454Z" fill="white"/>
</mask>
<g mask="url(#mask6_24_2)">
<g opacity="0.5">
<path d="M14.0311 126.829C17.3297 123.249 25.4831 114.765 36.7884 105.662C39.3391 105.2 41.9004 104.814 44.4684 104.454C38.2244 108.868 33.2084 112.698 30.4897 114.825L30.4577 114.856C30.2684 115.025 30.2217 115.304 30.3431 115.521C30.4631 115.754 30.7457 115.872 31.0004 115.792C31.3577 115.678 31.6217 115.872 31.7337 116.097C31.8551 116.33 31.8684 116.644 31.5657 116.885C31.347 117.037 31.2911 117.34 31.4191 117.581C31.5391 117.814 31.8217 117.932 32.0764 117.852C47.163 113.113 67.819 107.889 80.5444 104.75C65.487 109.505 26.6511 121.886 14.0311 126.829Z" fill="#AAD25A"/>
</g>
</g>
<path d="M120.645 79.3973C120.181 79.4573 119.688 79.5026 119.179 79.5386C118.405 80.4293 117.62 81.3119 116.817 82.1786L116.829 83.2733C116.495 83.2773 116.139 83.2653 115.796 83.2626C113.083 86.1173 110.211 88.8159 107.181 91.2826C107.272 91.4773 107.372 91.6666 107.452 91.8666C107.144 92.0133 106.855 92.2133 106.627 92.4933C106.579 92.5519 106.517 92.6039 106.468 92.6613C106.393 92.4586 106.299 92.2639 106.213 92.0653C103.644 94.0919 100.963 95.9453 98.1747 97.5866C98.2453 97.7266 98.3173 97.8653 98.3733 98.0079C97.7013 98.3439 97.0307 98.6826 96.3613 99.0213C96.3453 98.9079 96.3053 98.7906 96.256 98.6719C95.5173 99.0733 94.772 99.4626 94.0173 99.8319C94.08 99.9199 94.1507 99.9986 94.2293 100.068C93.5573 100.38 92.8787 100.673 92.1907 100.936C92.1507 100.872 92.12 100.801 92.084 100.735C92.0413 100.753 91.9987 100.771 91.956 100.789C91.9813 100.783 92.0213 100.772 92.0387 100.767L92.3693 101.819C91.9587 101.948 90.0187 102.423 86.8053 103.209C86.7787 103.216 86.7507 103.223 86.7253 103.229L86.9333 103.892C86.9293 103.893 86.9107 103.9 86.9 103.903C87.708 103.753 119.265 97.9026 142.099 91.2373L141.791 90.1853C141.825 90.1759 141.86 90.1613 141.893 90.1519C130.055 93.6133 115.823 96.8573 104.768 99.1986C104.485 99.4239 104.212 99.6386 103.969 99.8319L102.92 100.663L102.233 99.7986L102.348 99.7079C98.6067 100.489 95.312 101.151 92.7253 101.66C129.315 85.1893 149.169 30.8413 150.779 26.2799L222.455 11.5266C204.933 48.3879 179.629 76.1626 154.615 85.9306C154.019 86.1639 153.397 86.3959 152.763 86.6293C149.228 88.5666 145.7 90.1573 142.341 91.1666C147.063 89.7826 151.411 88.3666 155.016 86.9586C180.512 77.0039 206.272 48.6066 223.925 10.9973L224.393 9.99992L149.939 25.3266L149.837 25.6266C149.691 26.0586 139.591 55.3959 120.209 78.3346C120.305 78.3239 120.408 78.3146 120.503 78.3026L120.645 79.3973Z" fill="#004700"/>
<path d="M179.957 66.5541C193.096 54.7714 205.327 38.6781 215.327 20.0168L215.881 18.9861L214.733 19.2141C214.128 19.3368 213.548 19.1114 213.183 18.6141C212.82 18.1234 212.777 17.5101 213.069 16.9741L213.636 15.9301L156.445 27.7034L156.335 27.9781C155.528 29.9994 153.781 31.4634 151.661 31.8941L151.368 31.9541L151.257 32.2328C146.719 43.6994 133.887 72.4088 112.841 91.2848C111.731 92.2794 105.812 96.9661 103.284 98.9661L102.348 99.7074L102.233 99.7994L102.92 100.662L103.969 99.8314C104.212 99.6394 104.485 99.4234 104.769 99.1981C107.701 96.8768 112.543 93.0341 113.577 92.1061C134.633 73.2221 147.515 44.6261 152.177 32.9101C154.433 32.3554 156.295 30.7968 157.244 28.6648L211.789 17.4381C211.721 18.0768 211.892 18.7261 212.292 19.2688C212.699 19.8208 213.279 20.1808 213.92 20.3034C204.06 38.5101 192.075 54.2034 179.22 65.7328C170.9 73.1954 155.005 86.2688 141.893 90.1514C141.86 90.1621 141.825 90.1754 141.791 90.1861L142.099 91.2368L142.101 91.2448C142.18 91.2221 142.261 91.1901 142.341 91.1661C145.7 90.1568 149.228 88.5674 152.763 86.6288C163.215 80.8994 173.708 72.1581 179.957 66.5541Z" fill="#004700"/>
<path d="M11.5787 127.899L10 129.74L12.2213 128.764C23.5187 123.791 85.4213 104.366 86.9 103.903C86.9107 103.899 86.9293 103.894 86.9333 103.892L86.7253 103.23C84.996 103.654 82.908 104.164 80.5467 104.748C65.4853 109.51 26.648 121.884 14.0253 126.828C21.4813 118.719 53.88 85.4789 91.3227 76.8282C93.024 77.1509 109.683 80.2309 119.179 79.5389C119.688 79.5016 120.181 79.4562 120.645 79.3976L120.503 78.3029C120.408 78.3149 120.305 78.3229 120.209 78.3349C110.872 79.4096 91.6107 75.7602 91.416 75.7229L91.188 75.7269C65.2613 81.6829 41.744 99.3229 27.104 112.452C17.5053 121.062 11.7227 127.732 11.5787 127.899Z" fill="#004700"/>
<path d="M92.3692 101.819L92.0386 100.766C92.0212 100.771 91.9812 100.782 91.9559 100.79C91.4599 100.932 89.5652 101.398 86.7452 102.088C86.8319 102.231 86.9066 102.382 86.9999 102.52C86.5572 102.626 86.1132 102.704 85.6866 102.732C85.6199 102.622 85.5679 102.504 85.5052 102.392C74.2279 105.155 50.2639 111.06 32.9199 116.428C32.9239 116.146 32.8572 115.856 32.7146 115.587C32.5719 115.315 32.3759 115.096 32.1466 114.939C41.1479 107.96 67.2532 88.5203 86.8386 81.887C89.6319 82.3483 92.5932 82.123 95.4212 81.231C101.195 82.1603 109.229 83.2217 115.796 83.263C116.139 83.2643 116.495 83.2763 116.829 83.2737L116.817 82.179V82.1683C109.759 82.247 100.411 80.919 95.4666 80.1203C95.3799 80.107 95.2919 80.1137 95.2092 80.1403C92.4652 81.0257 89.5892 81.2443 86.8892 80.775C86.7972 80.759 86.7052 80.7657 86.6186 80.7963C66.0879 87.7017 38.4652 108.592 30.4879 114.831C30.4786 114.838 30.4692 114.847 30.4599 114.855C30.2732 115.022 30.2212 115.298 30.3399 115.522C30.4639 115.759 30.7386 115.871 30.9932 115.792C31.3626 115.676 31.6199 115.875 31.7386 116.099C31.8559 116.324 31.8706 116.64 31.5679 116.887C31.3439 117.039 31.2959 117.342 31.4212 117.578C31.5452 117.815 31.8199 117.927 32.0746 117.848C47.1639 113.116 67.8172 107.892 80.5466 104.748C82.9079 104.164 84.9959 103.654 86.7252 103.23C86.7506 103.223 86.7799 103.216 86.8052 103.21C90.0186 102.423 91.9586 101.948 92.3692 101.819Z" fill="#004700"/>
<path d="M93.8639 98.5078L94.1679 97.7465C94.1892 97.6945 94.1799 97.6585 94.1399 97.6425L92.3172 96.9158C92.2639 96.8945 92.2265 96.9105 92.2052 96.9638L91.9025 97.7251C91.6092 98.4598 91.5639 99.2025 91.7652 99.9571C91.8412 100.238 91.9532 100.493 92.0839 100.734C92.1199 100.801 92.1505 100.872 92.1905 100.936C92.8785 100.673 93.5572 100.38 94.2292 100.068C94.1505 99.9985 94.0799 99.9198 94.0185 99.8318C93.9612 99.7531 93.9105 99.6665 93.8705 99.5665C93.7279 99.2078 93.7252 98.8558 93.8639 98.5078Z" fill="#004700"/>
<path d="M96.3949 95.2471C96.0976 94.8657 95.9229 94.5297 95.8696 94.2377C95.8162 93.9444 95.8562 93.6324 95.9896 93.2977C96.1269 92.9511 96.3642 92.6977 96.6989 92.5377C97.0336 92.3764 97.3682 92.3631 97.7016 92.4964C98.0216 92.6244 98.2589 92.8537 98.4122 93.1857C98.5656 93.5177 98.5656 93.8777 98.4122 94.2644L97.8962 95.6137C97.8802 95.6551 97.8922 95.6817 97.9322 95.6977L99.7749 96.4337C99.8149 96.4497 99.8429 96.4377 99.8589 96.3977L100.394 95.0551C100.682 94.3351 100.727 93.6097 100.53 92.8817C100.334 92.1537 99.9549 91.5617 99.3936 91.1057L99.8642 89.9244C99.8856 89.8711 99.8629 89.8311 99.7962 89.8044L98.0549 89.1097C98.0016 89.0884 97.9642 89.1044 97.9429 89.1577L97.4789 90.3191C96.7456 90.2577 96.0509 90.4177 95.3962 90.7991C94.7416 91.1804 94.2656 91.7444 93.9669 92.4911C93.6949 93.1724 93.5936 93.8431 93.6629 94.5057C93.7309 95.1671 94.0096 95.7964 94.4989 96.3937C94.7496 96.6951 95.0216 97.0204 95.3162 97.3697C95.6096 97.7191 95.8216 97.9817 95.9536 98.1577C96.0962 98.3351 96.1882 98.5057 96.2562 98.6724C96.3042 98.7911 96.3456 98.9084 96.3602 99.0217C97.0309 98.6831 97.7002 98.3444 98.3736 98.0084C98.3176 97.8657 98.2456 97.7257 98.1736 97.5857C98.0442 97.3284 97.8936 97.0751 97.6896 96.8311L96.3949 95.2471Z" fill="#004700"/>
<path d="M100.137 84.8799C97.0545 83.8106 93.7399 84.0079 90.8039 85.4319C89.7585 85.9386 88.8052 86.5799 87.9625 87.3359C86.4412 88.7013 85.2825 90.4373 84.5945 92.4213C83.4065 95.8519 83.8559 99.4506 85.5052 102.392C85.5679 102.504 85.6199 102.621 85.6865 102.732C86.1132 102.705 86.5572 102.625 86.9999 102.521C86.9065 102.381 86.8319 102.232 86.7452 102.088C85.1172 99.3879 84.6305 96.0253 85.7412 92.8186C86.7052 90.0426 88.6879 87.8066 91.3332 86.5239C93.9772 85.2399 96.9625 85.0639 99.7399 86.0266C102.768 87.0759 105.031 89.3319 106.213 92.0653C106.299 92.2639 106.393 92.4586 106.468 92.6613C106.517 92.6039 106.579 92.5519 106.627 92.4933C106.855 92.2133 107.144 92.0133 107.452 91.8653C107.372 91.6666 107.272 91.4773 107.181 91.2826C105.835 88.3853 103.387 86.0066 100.137 84.8799Z" fill="#004700"/>
<path d="M165.344 57.0361C164.649 56.8534 164.029 56.8654 163.485 57.0721C162.94 57.2787 162.44 57.6267 161.985 58.1161L160.572 59.5961C160.23 59.9374 159.917 60.1521 159.634 60.2414C159.352 60.3307 159.036 60.3294 158.688 60.2387C158.326 60.1441 158.046 59.9401 157.845 59.6267C157.645 59.3147 157.59 58.9854 157.682 58.6374C157.769 58.3041 157.968 58.0401 158.278 57.8467C158.589 57.6534 158.946 57.6094 159.349 57.7147L160.752 58.0601C160.794 58.0721 160.82 58.0561 160.832 58.0147L161.334 56.0961C161.345 56.0547 161.329 56.0281 161.288 56.0174L159.89 55.6507C159.14 55.4547 158.416 55.4987 157.717 55.7827C157.018 56.0681 156.477 56.5161 156.094 57.1294L154.864 56.8067C154.808 56.7921 154.77 56.8201 154.753 56.8894L154.277 58.7027C154.262 58.7587 154.284 58.7934 154.338 58.8081L155.548 59.1254C155.578 59.8614 155.822 60.5307 156.281 61.1334C156.74 61.7374 157.357 62.1401 158.136 62.3441C158.845 62.5294 159.524 62.5481 160.172 62.3987C160.82 62.2494 161.41 61.8961 161.944 61.3361C162.212 61.0507 162.501 60.7401 162.812 60.4054C163.122 60.0707 163.357 59.8281 163.514 59.6761C163.964 59.2147 164.402 59.0401 164.833 59.1534C165.166 59.2401 165.437 59.4414 165.645 59.7547C165.852 60.0694 165.909 60.4081 165.814 60.7694C165.722 61.1174 165.508 61.3827 165.169 61.5694C164.83 61.7561 164.481 61.8014 164.12 61.7067L163.326 61.4987C163.272 61.4841 163.238 61.4974 163.228 61.5401L162.73 63.4374C162.716 63.4934 162.736 63.5281 162.792 63.5427L163.584 63.7494C164.348 63.9507 165.092 63.9041 165.816 63.6107C166.538 63.3174 167.096 62.8507 167.486 62.2107L168.696 62.5281C168.752 62.5427 168.786 62.5214 168.801 62.4654L169.276 60.6521C169.294 60.5827 169.276 60.5401 169.22 60.5254L167.99 60.2027C167.946 59.4641 167.692 58.8027 167.228 58.2201C166.764 57.6387 166.136 57.2441 165.344 57.0361Z" fill="#004700"/>
<path d="M172.584 62.0155C172.089 64.3288 170.898 66.3768 169.172 67.9262C168.741 68.3115 168.277 68.6662 167.784 68.9862C165.305 70.5928 162.35 71.1368 159.462 70.5222C156.573 69.9048 154.098 68.1995 152.492 65.7222C150.885 63.2422 150.341 60.2875 150.957 57.3995C152.229 51.4355 158.116 47.6208 164.078 48.8942C170.041 50.1675 173.856 56.0542 172.584 62.0155ZM164.309 47.8155C160.36 46.9715 156.44 48.1582 153.641 50.6688C151.793 52.3262 150.434 54.5608 149.877 57.1675C149.2 60.3448 149.798 63.5955 151.565 66.3222C153.332 69.0488 156.053 70.9222 159.23 71.6008C162.408 72.2782 165.658 71.6795 168.385 69.9128C171.109 68.1462 172.984 65.4235 173.662 62.2462C175.062 55.6888 170.866 49.2155 164.309 47.8155Z" fill="#004700"/>
</g>
<defs>
<filter id="filter0_f_24_2" x="0" y="0" width="234.393" height="139.74" filterUnits="userSpaceOnUse" color-interpolation-filters="sRGB">
<feFlood flood-opacity="0" result="BackgroundImageFix"/>
<feBlend mode="normal" in="SourceGraphic" in2="BackgroundImageFix" result="shape"/>
<feGaussianBlur stdDeviation="5" result="effect1_foregroundBlur_24_2"/>
</filter>
</defs>
</svg>
