<svg xmlns="http://www.w3.org/2000/svg" version="1.1" xmlns:xlink="http://www.w3.org/1999/xlink" width="1000" height="1000"><g clip-path="url(#SvgjsClipPath1737)"><rect width="1000" height="1000" fill="#6900e6"></rect><g transform="matrix(5.084745762711864,0,0,5.084745762711864,50,362.7118644067797)"><svg xmlns="http://www.w3.org/2000/svg" width="177" height="54" viewBox="0 0 177 54" fill="none"><rect x="13.2511" y="11.5833" width="44.8726" height="42.4167" rx="10" fill="#F4F4F4"></rect><path d="M13.0612 14.339C12.8334 13.0977 13.6123 11.7477 14.8009 11.3235L43.5733 1.05654C45.2086 0.473003 46.7883 1.38439 47.1017 3.09217C47.4502 4.99154 46.092 7.02157 44.2412 7.36759L20.2831 11.8466C19.4451 12.0033 18.6533 12.5127 18.0855 13.2607L16.8256 14.9202C15.6068 16.5255 13.3999 16.1848 13.0612 14.339Z" fill="#F4F4F4"></path><path d="M10.3899 44.1308C10.3899 41.6954 12.3642 39.7211 14.7995 39.7211H38.8065C41.2419 39.7211 43.2162 41.6954 43.2162 44.1308C43.2162 46.5662 41.2419 48.5404 38.8065 48.5404H14.7995C12.3642 48.5404 10.3899 46.5662 10.3899 44.1308Z" fill="#660DFF"></path><path d="M45.1737 31.1117C45.1737 27.0528 48.4642 23.7623 52.5231 23.7623H70.6506C74.7095 23.7623 78 27.0528 78 31.1117C78 35.1707 74.7095 38.4612 70.6506 38.4612H52.5231C48.4642 38.4612 45.1737 35.1707 45.1737 31.1117Z" fill="#660DFF"></path><rect y="28.382" width="26.8031" height="8.8193" rx="4.40965" fill="#660DFF"></rect><rect x="3.61389" y="17.0429" width="26.8031" height="8.8193" rx="4.40965" fill="#660DFF"></rect><ellipse cx="51.6488" cy="30.6918" rx="3.76448" ry="4.82962" fill="#F4F4F4"></ellipse><path d="M77.92 44.48C75.76 44.48 73.8133 43.9867 72.08 43C70.3733 41.9867 69.0267 40.6267 68.04 38.92C67.0533 37.1867 66.56 35.24 66.56 33.08C66.56 30.92 67.0533 28.9867 68.04 27.28C69.0267 25.5733 70.3733 24.2267 72.08 23.24C73.8133 22.2533 75.76 21.76 77.92 21.76C79.4667 21.76 80.9067 22.04 82.24 22.6C83.5733 23.1333 84.72 23.88 85.68 24.84C86.6667 25.7733 87.3733 26.8933 87.8 28.2L83.2 30.2C82.8 29.1067 82.12 28.2267 81.16 27.56C80.2267 26.8933 79.1467 26.56 77.92 26.56C76.7733 26.56 75.7467 26.84 74.84 27.4C73.96 27.96 73.2667 28.7333 72.76 29.72C72.2533 30.7067 72 31.84 72 33.12C72 34.4 72.2533 35.5333 72.76 36.52C73.2667 37.5067 73.96 38.28 74.84 38.84C75.7467 39.4 76.7733 39.68 77.92 39.68C79.1733 39.68 80.2667 39.3467 81.2 38.68C82.1333 38.0133 82.8 37.12 83.2 36L87.8 38.08C87.3733 39.3067 86.68 40.4133 85.72 41.4C84.76 42.36 83.6133 43.12 82.28 43.68C80.9467 44.2133 79.4933 44.48 77.92 44.48ZM102.416 44.48C100.283 44.48 98.3359 43.9867 96.5759 43C94.8426 42.0133 93.4559 40.6667 92.4159 38.96C91.4026 37.2533 90.8959 35.3067 90.8959 33.12C90.8959 30.9333 91.4026 28.9867 92.4159 27.28C93.4559 25.5733 94.8426 24.2267 96.5759 23.24C98.3093 22.2533 100.256 21.76 102.416 21.76C104.549 21.76 106.483 22.2533 108.216 23.24C109.949 24.2267 111.323 25.5733 112.336 27.28C113.376 28.96 113.896 30.9067 113.896 33.12C113.896 35.3067 113.376 37.2533 112.336 38.96C111.296 40.6667 109.909 42.0133 108.176 43C106.443 43.9867 104.523 44.48 102.416 44.48ZM102.416 39.68C103.589 39.68 104.616 39.4 105.496 38.84C106.403 38.28 107.109 37.5067 107.616 36.52C108.149 35.5067 108.416 34.3733 108.416 33.12C108.416 31.84 108.149 30.72 107.616 29.76C107.109 28.7733 106.403 28 105.496 27.44C104.616 26.8533 103.589 26.56 102.416 26.56C101.216 26.56 100.163 26.8533 99.2559 27.44C98.3493 28 97.6293 28.7733 97.0959 29.76C96.5893 30.72 96.3359 31.84 96.3359 33.12C96.3359 34.3733 96.5893 35.5067 97.0959 36.52C97.6293 37.5067 98.3493 38.28 99.2559 38.84C100.163 39.4 101.216 39.68 102.416 39.68ZM117.87 44V22.24H122.79V26.52L122.39 25.76C122.896 24.4533 123.723 23.4667 124.87 22.8C126.043 22.1067 127.403 21.76 128.95 21.76C130.55 21.76 131.963 22.1067 133.19 22.8C134.443 23.4933 135.416 24.4667 136.11 25.72C136.803 26.9467 137.15 28.3733 137.15 30V44H131.91V31.24C131.91 30.28 131.723 29.4533 131.35 28.76C130.976 28.0667 130.456 27.5333 129.79 27.16C129.15 26.76 128.39 26.56 127.51 26.56C126.656 26.56 125.896 26.76 125.23 27.16C124.563 27.5333 124.043 28.0667 123.67 28.76C123.296 29.4533 123.11 30.28 123.11 31.24V44H117.87ZM141.581 44V22.24H146.821V44H141.581ZM141.581 19.8V14.2H146.821V19.8H141.581ZM168.419 52V39.8L169.259 40.84C168.512 42.0133 167.472 42.92 166.139 43.56C164.805 44.1733 163.352 44.48 161.779 44.48C159.672 44.48 157.792 43.9867 156.139 43C154.485 41.9867 153.179 40.6133 152.219 38.88C151.259 37.1467 150.779 35.2267 150.779 33.12C150.779 30.9867 151.259 29.0667 152.219 27.36C153.179 25.6533 154.485 24.2933 156.139 23.28C157.819 22.2667 159.685 21.76 161.739 21.76C163.392 21.76 164.859 22.0933 166.139 22.76C167.445 23.4 168.472 24.3067 169.219 25.48L168.699 26.56V22.24H173.659V52H168.419ZM162.339 39.68C163.539 39.68 164.592 39.4 165.499 38.84C166.405 38.28 167.112 37.5067 167.619 36.52C168.152 35.5333 168.419 34.4 168.419 33.12C168.419 31.8667 168.152 30.7467 167.619 29.76C167.112 28.7467 166.405 27.96 165.499 27.4C164.592 26.84 163.539 26.56 162.339 26.56C161.165 26.56 160.112 26.8533 159.179 27.44C158.245 28 157.512 28.7733 156.979 29.76C156.472 30.72 156.219 31.84 156.219 33.12C156.219 34.4 156.472 35.5333 156.979 36.52C157.512 37.5067 158.245 38.28 159.179 38.84C160.112 39.4 161.165 39.68 162.339 39.68Z" fill="#F4F4F4"></path></svg></g></g><defs><clipPath id="SvgjsClipPath1737"><rect width="1000" height="1000" x="0" y="0" rx="500" ry="500"></rect></clipPath></defs></svg>